<?xml version="1.0" encoding="utf-8"?>
<!-- Generator: Adobe Illustrator 16.0.0, SVG Export Plug-In . SVG Version: 6.00 Build 0)  -->
<!DOCTYPE svg PUBLIC "-//W3C//DTD SVG 1.1//EN" "http://www.w3.org/Graphics/SVG/1.1/DTD/svg11.dtd">
<svg version="1.1" id="Layer_1" xmlns="http://www.w3.org/2000/svg" xmlns:xlink="http://www.w3.org/1999/xlink" x="0px" y="0px"
	 width="550.789px" height="366.667px" viewBox="0 0 550.789 366.667" enable-background="new 0 0 550.789 366.667"
	 xml:space="preserve">
<g>
	<g>
		<path fill="#1D0F1F" d="M29.292,118.065h57.372l-29.775,95.619h21.787v-33.164h62.698v33.164h19.366v36.797h-19.366v13.314h14.767
			V306.4H47.931v-42.604h30.744v-13.314H0v-41.396L29.292,118.065z"/>
		<path fill="#1D0F1F" d="M252.239,309.79c-52.047,0-85.211-26.871-85.211-97.558c0-70.686,33.164-97.556,85.211-97.556
			c52.046,0,85.21,26.87,85.21,97.556C337.449,282.919,304.285,309.79,252.239,309.79z M268.7,248.786v-73.107
			c0-12.588-5.567-17.914-16.461-17.914s-16.461,5.325-16.461,17.914v73.107c0,12.588,5.568,17.914,16.461,17.914
			S268.7,261.374,268.7,248.786z"/>
		<path fill="#1D0F1F" d="M505.931,250.481v-36.797h-19.367v-20.1c-1.879-2.484-3.175-5.421-3.947-8.496
			c-0.148-0.592-0.265-1.313-0.398-2.07c-1.234,0.727-2.43,1.531-3.933,2.033c-2.167,0.723-4.503,0.684-6.767,0.706
			c-2.021,0.021-4.533,0.441-6.484-0.095c-0.374-0.103-0.732-0.296-1.073-0.523c-0.162-0.023-0.321-0.053-0.48-0.084
			c0.066,0.477,0.167,0.943,0.351,1.393c0.357,1.08-0.403,2.293-1.464,2.578c-3.021,0.812-5.251-1.145-7.039-3.355
			c-0.978-1.205-1.796-2.552-2.827-3.711c-0.248-0.278-1.224-1.036-0.967-1.225c-0.708,0.52-0.928,1.103-0.57,1.881
			c1.117,2.439-2.495,4.57-3.62,2.116c-0.208-0.454-0.357-0.879-0.479-1.292c0.093,1.333,0.449,2.929,0.388,3.564
			c-0.152,1.55-1.672,2.652-3.154,1.811c-2.007-1.141-3.517-2.662-5.212-4.2c-2.362-2.143-4.657-2.565-7.679-3.047
			c-1.316-0.21-2.449-0.572-3.487-1.048h-3.854v33.164h-21.786l29.775-95.619h-57.374l-29.291,91.021v41.396h78.676v13.314h-30.743
			V306.4h108.207v-42.604h-14.768v-13.314H505.931z"/>
		<path fill="#1D0F1F" d="M29.292,120.581h57.372l-29.775,95.619h21.787v-33.164h62.698v33.164h19.366v36.797h-19.366v13.314h14.767
			v42.604H47.931v-42.604h30.744v-13.314H0v-41.396L29.292,120.581z"/>
		<path fill="#1D0F1F" d="M252.239,312.305c-52.047,0-85.211-26.871-85.211-97.558c0-70.686,33.164-97.556,85.211-97.556
			c52.046,0,85.21,26.87,85.21,97.556C337.449,285.434,304.285,312.305,252.239,312.305z M268.7,251.301v-73.106
			c0-12.588-5.567-17.914-16.461-17.914s-16.461,5.325-16.461,17.914v73.106c0,12.588,5.568,17.914,16.461,17.914
			S268.7,263.889,268.7,251.301z"/>
		<path fill="#1D0F1F" d="M505.931,252.996v-36.797h-19.367v-20.1c-1.879-2.484-3.175-5.421-3.947-8.496
			c-0.148-0.592-0.265-1.313-0.398-2.069c-1.234,0.727-2.43,1.53-3.933,2.032c-2.167,0.723-4.503,0.684-6.767,0.706
			c-2.021,0.021-4.533,0.441-6.484-0.095c-0.374-0.103-0.732-0.296-1.073-0.523c-0.162-0.023-0.321-0.053-0.48-0.084
			c0.066,0.477,0.167,0.943,0.351,1.393c0.357,1.08-0.403,2.293-1.464,2.578c-3.021,0.812-5.251-1.145-7.039-3.355
			c-0.978-1.205-1.796-2.552-2.827-3.711c-0.248-0.278-1.224-1.036-0.967-1.224c-0.708,0.52-0.928,1.103-0.57,1.881
			c1.117,2.438-2.495,4.569-3.62,2.115c-0.208-0.454-0.357-0.879-0.479-1.291c0.093,1.333,0.449,2.929,0.388,3.563
			c-0.152,1.55-1.672,2.652-3.154,1.811c-2.007-1.141-3.517-2.662-5.212-4.2c-2.362-2.143-4.657-2.565-7.679-3.047
			c-1.316-0.21-2.449-0.572-3.487-1.047h-3.854v33.164h-21.786l29.775-95.619h-57.374l-29.291,91.02v41.396h78.676v13.314h-30.743
			v42.604h108.207v-42.604h-14.768v-13.314H505.931z"/>
	</g>
	<g>
		<g>
			<path fill="#E1D39A" d="M29.292,115.55h57.372l-29.775,95.62h21.787v-33.165h62.698v33.165h19.366v36.797h-19.366v13.314h14.767
				v42.604H47.931v-42.604h30.744v-13.314H0v-41.396L29.292,115.55z"/>
			<path fill="#E1D39A" d="M252.239,307.275c-52.047,0-85.211-26.871-85.211-97.558s33.164-97.557,85.211-97.557
				c52.046,0,85.21,26.87,85.21,97.557S304.285,307.275,252.239,307.275z M268.7,246.271v-73.107
				c0-12.588-5.567-17.914-16.461-17.914s-16.461,5.325-16.461,17.914v73.107c0,12.588,5.568,17.914,16.461,17.914
				S268.7,258.859,268.7,246.271z"/>
			<path fill="#E1D39A" d="M505.931,247.967V211.17h-19.367v-20.1c-1.879-2.484-3.175-5.421-3.947-8.497
				c-0.148-0.592-0.265-1.313-0.398-2.07c-1.234,0.727-2.43,1.531-3.933,2.033c-2.167,0.723-4.503,0.684-6.767,0.706
				c-2.021,0.021-4.533,0.442-6.484-0.095c-0.374-0.103-0.732-0.296-1.073-0.523c-0.162-0.023-0.321-0.053-0.48-0.084
				c0.066,0.477,0.167,0.943,0.351,1.393c0.357,1.08-0.403,2.293-1.464,2.578c-3.021,0.812-5.251-1.145-7.039-3.356
				c-0.978-1.205-1.796-2.552-2.827-3.711c-0.248-0.278-1.224-1.036-0.967-1.225c-0.708,0.52-0.928,1.103-0.57,1.881
				c1.117,2.439-2.495,4.57-3.62,2.116c-0.208-0.454-0.357-0.879-0.479-1.292c0.093,1.333,0.449,2.93,0.388,3.564
				c-0.152,1.55-1.672,2.652-3.154,1.811c-2.007-1.141-3.517-2.662-5.212-4.201c-2.362-2.143-4.657-2.565-7.679-3.047
				c-1.316-0.21-2.449-0.572-3.487-1.048h-3.854v33.165h-21.786l29.775-95.62h-57.374l-29.291,91.021v41.396h78.676v13.314h-30.743
				v42.604h108.207v-42.604h-14.768v-13.314H505.931z"/>
		</g>
		<g>
			<g>
				<linearGradient id="SVGID_1_" gradientUnits="userSpaceOnUse" x1="80.3691" y1="306.4004" x2="80.3691" y2="118.0659">
					<stop  offset="0" style="stop-color:#250E29"/>
					<stop  offset="0.3185" style="stop-color:#2E1534"/>
					<stop  offset="0.9852" style="stop-color:#431D4E"/>
					<stop  offset="1" style="stop-color:#441D4F"/>
				</linearGradient>
				<path fill="url(#SVGID_1_)" d="M29.292,118.065h57.372l-29.775,95.619h21.787v-33.164h62.698v33.164h19.366v36.797h-19.366
					v13.314h14.767V306.4H47.931v-42.604h30.744v-13.314H0v-41.396L29.292,118.065z"/>
				<linearGradient id="SVGID_2_" gradientUnits="userSpaceOnUse" x1="252.2383" y1="309.79" x2="252.2383" y2="114.6768">
					<stop  offset="0" style="stop-color:#250E29"/>
					<stop  offset="0.3185" style="stop-color:#2E1534"/>
					<stop  offset="0.9852" style="stop-color:#431D4E"/>
					<stop  offset="1" style="stop-color:#441D4F"/>
				</linearGradient>
				<path fill="url(#SVGID_2_)" d="M252.239,309.79c-52.047,0-85.211-26.871-85.211-97.558c0-70.686,33.164-97.556,85.211-97.556
					c52.046,0,85.21,26.87,85.21,97.556C337.449,282.919,304.285,309.79,252.239,309.79z M268.7,248.786v-73.107
					c0-12.588-5.567-17.914-16.461-17.914s-16.461,5.325-16.461,17.914v73.107c0,12.588,5.568,17.914,16.461,17.914
					S268.7,261.374,268.7,248.786z"/>
				<linearGradient id="SVGID_3_" gradientUnits="userSpaceOnUse" x1="425.562" y1="306.4004" x2="425.562" y2="118.0659">
					<stop  offset="0" style="stop-color:#250E29"/>
					<stop  offset="0.3185" style="stop-color:#2E1534"/>
					<stop  offset="0.9852" style="stop-color:#431D4E"/>
					<stop  offset="1" style="stop-color:#441D4F"/>
				</linearGradient>
				<path fill="url(#SVGID_3_)" d="M505.931,250.481v-36.797h-19.367v-20.1c-1.879-2.484-3.175-5.421-3.947-8.496
					c-0.148-0.592-0.265-1.313-0.398-2.07c-1.234,0.727-2.43,1.531-3.933,2.033c-2.167,0.723-4.503,0.684-6.767,0.706
					c-2.021,0.021-4.533,0.441-6.484-0.095c-0.374-0.103-0.732-0.296-1.073-0.523c-0.162-0.023-0.321-0.053-0.48-0.084
					c0.066,0.477,0.167,0.943,0.351,1.393c0.357,1.08-0.403,2.293-1.464,2.578c-3.021,0.812-5.251-1.145-7.039-3.355
					c-0.978-1.205-1.796-2.552-2.827-3.711c-0.248-0.278-1.224-1.036-0.967-1.225c-0.708,0.52-0.928,1.103-0.57,1.881
					c1.117,2.439-2.495,4.57-3.62,2.116c-0.208-0.454-0.357-0.879-0.479-1.292c0.093,1.333,0.449,2.929,0.388,3.564
					c-0.152,1.55-1.672,2.652-3.154,1.811c-2.007-1.141-3.517-2.662-5.212-4.2c-2.362-2.143-4.657-2.565-7.679-3.047
					c-1.316-0.21-2.449-0.572-3.487-1.048h-3.854v33.164h-21.786l29.775-95.619h-57.374l-29.291,91.021v41.396h78.676v13.314
					h-30.743V306.4h108.207v-42.604h-14.768v-13.314H505.931z"/>
			</g>
		</g>
	</g>
</g>
<g>
	<path fill="none" stroke="#100A10" stroke-width="0.8384" stroke-miterlimit="10" d="M454.773,184.785
		c-0.25,0.808-0.136,1.479-0.209,2.32c-0.162,1.847-0.328,1.716-1.059,3.134c-0.781,1.512-1.177,1.61,0.263,2.878
		c3.884,3.421,8.51,1.562,12.789,3.358c1.233,0.518,1.676,1.474,3.093,1.938c1.34,0.44,2.979,0.246,4.395,0.416
		c2.115,0.254,4.347,2.07,6.351,3.295c1.899,1.159,3.616,2.424,5.607,3.201"/>
	<path fill="none" stroke="#100A10" stroke-width="0.8384" stroke-miterlimit="10" d="M458.545,195.056
		c1.079,0.855,3.737,2.266,3.526,3.736c-1.412,0.561-2.845,1.186-3.111,2.761c-0.407,2.399,1.009,2.604-1.011,4.433
		c-1.979,1.792-3.055,2.115-2.758,4.999c0.273,2.643,1.216,4.786,3.308,6.497c1.634,1.336,4.344,2.283,4.819,4.555
		c0.53,2.534-2.019,3.854-0.116,5.873c0.604,0.641,1.674,0.783,2.213,1.515c0.659,0.896,0.367,1.591,0.676,2.521
		c0.534,1.607,1.372,2.662,0.838,4.611"/>
	<path fill="none" stroke="#100A10" stroke-width="0.8384" stroke-miterlimit="10" d="M439.892,182.689
		c-1.559,0.117-3.703,3.439-4.669,4.617c-1.258,1.533-2.366,2.214-1.393,3.987c0.948,1.728,3.416,1.977,4.337,3.61
		c1.109,1.967-1.789,2.27,1.934,3.504c1.717,0.57,3.396,1.211,5.156,1.631c0.932,0.223,3.389,0.162,4.022,0.938
		c1.328,1.626-1.466,2.352-2.68,3.149c-1.769,1.162-2.593,2.245-4.864,1.833c-2.848-0.516-5.473-1.621-8.132-2.682
		c-1.702-0.678-3.337-1.485-4.417,0.534c-0.774,1.45,0.271,2.783,0.025,4.46c-0.075,0.514-0.53,1.006-0.639,1.666
		c-0.132,0.804,0.193,1.727,0,2.516c-0.467,1.9-3.583,2.296-3.145,4.191"/>
	<path fill="none" stroke="#100A10" stroke-width="0.8384" stroke-miterlimit="10" d="M473.636,198.828
		c0.549-0.055,3.116,1.522,3.521,2.353c0.667,1.365-0.186,2.82,0.252,4.354c0.437,1.533,1.191,2.741,1.258,4.392
		c0.092,2.298-1.132,4.142-1.049,6.508c0.137,3.86,3.217,2.163,5.915,3.936c1.204,0.791,1.859,1.375,3.312,2.085
		c1.214,0.593,2.865,1.413,3.768,2.362"/>
	<path fill="none" stroke="#100A10" stroke-width="0.8384" stroke-miterlimit="10" d="M434.023,191.492
		c-1.844,1.093-3.821-0.571-5.198,1.043c-0.481,0.565-0.386,1.505-1.043,2.147c-0.592,0.58-1.493,0.699-2.143,1.211"/>
	<path fill="none" stroke="#100A10" stroke-width="0.7536" stroke-miterlimit="10" d="M468.187,197.78
		c1.358,1.918,0.385,5.311,0.584,7.775c0.854,0.342,1.875,0.557,2.658,1.488c0.97,1.152,0.977,2.463,1.577,4.094
		c0.8,2.174,1.325,1.508,2.503,2.711c0.904,0.924,1.067,2.538,1.69,3.843"/>
	<path fill="none" stroke="#100A10" stroke-width="0.8384" stroke-miterlimit="10" d="M436.958,192.959
		c-0.542,0.59-1.097,1.171-1.504,1.851c-2.038,0.119-8.124-1.105-4.993,2.296c0.684,0.742,2.674,1.712,2.887,2.771
		c0.298,1.478-1.522,1.653,0.047,3.144"/>
	<path fill="none" stroke="#100A10" stroke-width="0.7536" stroke-miterlimit="10" d="M439.682,205.954
		c1.924,1.818,5.959,2.943,1.875,5.449c-1.133,0.694-2.838,0.338-3.971,1.096c-1.386,0.927-0.404,0.941-0.629,1.619
		c0.005-0.016,0.362,0.787,0.306,1.053c-0.074,0.342-1.157,0.541-1.357,1.001c-0.398,0.918-0.015,2.55,0.213,3.616
		c0.514,2.407,1.264,1.674,3.189,3.092c1.229,0.904,1.213,2.229,2.251,3.242c0.94,0.919,2.792,1.418,3.992,1.63"/>
	<path fill="none" stroke="#100A10" stroke-width="0.7536" stroke-miterlimit="10" d="M462.947,227.333
		c2.141-0.08,3.922,1.337,5.875,1.938c2.077,0.638,4.328,0.502,6.512,0.578c1.833,0.063,3.399,0.516,5.22,0.629
		c2.519,0.155,3.158,0.117,4.192,2.305c1.993,4.212,7.175,4.021,10.694,6.923c1.385,1.143,1.891,2.535,2.726,3.976
		c0.908,1.57,1.981,2.383,3.604,3.406c0.946,0.598,2.212,0.961,2.505,2.009c0.3,0.128,0.547,0.267,0.802,0.454"/>
	<path fill="none" stroke="#100A10" stroke-width="0.7536" stroke-miterlimit="10" d="M438.005,222.513
		c-2.079,1.207-5.269,1.09-7.13,2.771c-1.368,1.236-1.729,3.576-2.941,5.156c-1.298,1.693-3.437,3.485-5.438,4.229
		c-2.132,0.791-3.728,0.646-5.397,2.147c-2.052,1.842-4.378,2.396-7.138,3.354c-2.63,0.912-4.484,0.636-7.167,0.775
		c-1.805,0.094-4.511,0.835-5.811,2.164c-0.936,0.957-1.141,2.144-2.103,3.29c-1.096,1.306-2.648,2.867-4.034,3.569"/>
</g>
<g>
	<path fill="none" stroke="#52235F" stroke-width="0.8384" stroke-miterlimit="10" d="M454.995,186.042
		c-0.25,0.809-0.136,1.48-0.209,2.32c-0.161,1.847-0.328,1.717-1.059,3.135c-0.78,1.512-1.177,1.61,0.263,2.878
		c3.884,3.42,8.51,1.562,12.789,3.358c1.233,0.518,1.676,1.473,3.093,1.938c1.34,0.439,2.979,0.246,4.395,0.416
		c2.116,0.254,4.347,2.07,6.351,3.295c1.899,1.159,3.617,2.423,5.608,3.201"/>
	<path fill="none" stroke="#52235F" stroke-width="0.8384" stroke-miterlimit="10" d="M458.768,196.313
		c1.078,0.855,3.736,2.266,3.526,3.735c-1.413,0.561-2.846,1.187-3.112,2.761c-0.407,2.4,1.009,2.605-1.011,4.434
		c-1.979,1.792-3.055,2.114-2.757,4.999c0.272,2.642,1.215,4.786,3.307,6.497c1.634,1.336,4.344,2.282,4.819,4.555
		c0.531,2.533-2.019,3.853-0.116,5.873c0.604,0.641,1.674,0.783,2.213,1.515c0.659,0.896,0.367,1.591,0.676,2.521
		c0.534,1.606,1.372,2.662,0.839,4.61"/>
	<path fill="none" stroke="#52235F" stroke-width="0.8384" stroke-miterlimit="10" d="M440.114,183.946
		c-1.558,0.117-3.703,3.439-4.669,4.616c-1.258,1.534-2.365,2.215-1.393,3.988c0.948,1.728,3.416,1.977,4.337,3.61
		c1.109,1.967-1.789,2.27,1.934,3.504c1.717,0.57,3.396,1.211,5.156,1.631c0.933,0.223,3.389,0.161,4.023,0.938
		c1.327,1.625-1.467,2.352-2.681,3.149c-1.768,1.161-2.592,2.245-4.864,1.833c-2.848-0.516-5.473-1.621-8.132-2.682
		c-1.702-0.678-3.337-1.486-4.417,0.534c-0.774,1.45,0.271,2.782,0.025,4.459c-0.075,0.515-0.53,1.007-0.639,1.667
		c-0.132,0.803,0.193,1.727,0,2.515c-0.467,1.901-3.583,2.297-3.144,4.192"/>
	<path fill="none" stroke="#52235F" stroke-width="0.8384" stroke-miterlimit="10" d="M473.859,200.085
		c0.548-0.054,3.115,1.523,3.521,2.353c0.667,1.366-0.186,2.821,0.252,4.354c0.437,1.534,1.191,2.742,1.258,4.392
		c0.092,2.298-1.132,4.142-1.048,6.508c0.137,3.86,3.216,2.163,5.914,3.936c1.204,0.791,1.859,1.376,3.312,2.085
		c1.215,0.594,2.865,1.413,3.768,2.363"/>
	<path fill="none" stroke="#52235F" stroke-width="0.8384" stroke-miterlimit="10" d="M434.245,192.749
		c-1.844,1.094-3.821-0.57-5.198,1.043c-0.48,0.565-0.386,1.505-1.043,2.148c-0.592,0.58-1.493,0.699-2.143,1.211"/>
	<path fill="none" stroke="#52235F" stroke-width="0.7536" stroke-miterlimit="10" d="M468.409,199.038
		c1.358,1.918,0.386,5.31,0.584,7.775c0.854,0.342,1.875,0.557,2.658,1.488c0.97,1.152,0.978,2.463,1.577,4.094
		c0.8,2.173,1.326,1.508,2.503,2.711c0.905,0.924,1.067,2.538,1.69,3.843"/>
	<path fill="none" stroke="#52235F" stroke-width="0.8384" stroke-miterlimit="10" d="M437.179,194.217
		c-0.542,0.589-1.097,1.171-1.504,1.851c-2.038,0.119-8.123-1.105-4.993,2.295c0.684,0.743,2.674,1.713,2.887,2.771
		c0.298,1.479-1.522,1.654,0.048,3.144"/>
	<path fill="none" stroke="#52235F" stroke-width="0.7536" stroke-miterlimit="10" d="M439.904,207.212
		c1.924,1.817,5.959,2.943,1.875,5.448c-1.133,0.694-2.838,0.339-3.971,1.097c-1.385,0.927-0.404,0.94-0.629,1.619
		c0.005-0.016,0.362,0.787,0.306,1.052c-0.074,0.343-1.157,0.542-1.356,1.002c-0.399,0.917-0.015,2.549,0.213,3.615
		c0.513,2.408,1.263,1.675,3.188,3.093c1.229,0.904,1.213,2.229,2.251,3.242c0.94,0.919,2.793,1.418,3.992,1.63"/>
	<path fill="none" stroke="#52235F" stroke-width="0.7536" stroke-miterlimit="10" d="M463.169,228.591
		c2.14-0.08,3.922,1.337,5.874,1.938c2.077,0.638,4.328,0.501,6.513,0.577c1.832,0.063,3.399,0.517,5.219,0.629
		c2.519,0.156,3.158,0.118,4.193,2.305c1.992,4.212,7.174,4.021,10.693,6.924c1.385,1.143,1.891,2.535,2.726,3.976
		c0.908,1.569,1.981,2.383,3.604,3.406c0.946,0.598,2.212,0.961,2.505,2.008c0.3,0.129,0.547,0.267,0.803,0.455"/>
	<path fill="none" stroke="#52235F" stroke-width="0.7536" stroke-miterlimit="10" d="M438.227,223.77
		c-2.079,1.208-5.269,1.091-7.13,2.772c-1.368,1.236-1.729,3.576-2.941,5.156c-1.298,1.693-3.437,3.485-5.438,4.229
		c-2.132,0.791-3.727,0.646-5.397,2.146c-2.052,1.843-4.377,2.396-7.138,3.354c-2.63,0.912-4.484,0.636-7.167,0.776
		c-1.805,0.094-4.51,0.834-5.811,2.164c-0.936,0.957-1.141,2.144-2.103,3.29c-1.096,1.306-2.648,2.867-4.034,3.568"/>
</g>
<g>
	
		<linearGradient id="SVGID_4_" gradientUnits="userSpaceOnUse" x1="383.0669" y1="151.6392" x2="402.5667" y2="128.081" gradientTransform="matrix(0.9941 -0.1086 0.1086 0.9941 36.9747 46.3649)">
		<stop  offset="0" style="stop-color:#361212"/>
		<stop  offset="1" style="stop-color:#BE2026"/>
	</linearGradient>
	<path fill="url(#SVGID_4_)" d="M434.664,161.242c-4.773-2.899-5.789-10.692-3.564-14.621c2.231-3.944,6.355-10.95,0.307-16.391
		c1.892,0.215,4.189,1.856,5.179,4.459c2.637-0.553-1.925-6.516-2.407-8.365c-0.595-2.28-0.231-4.577,0.389-6.285
		c0.609-1.678-2.009-6.336,2.67-4.931c-3.689,0.897-1.458,10.199,2.881,9.613c2.312-0.312,1.657-2.731,1.327-5.247
		c-0.391-2.974-1.39-6.367,1.763-5.986c-3.11,0.87,1.719,7.032,2.423,8.824c1.891,4.81-1.675,5.395-3.161,7.715
		c-2.429,3.792,2.019,4.846,4.088,3.994c2.616-1.077,1.557-6.4,4.25-6.936c-2.794,0.603-0.371,4.799-0.215,7.609
		c0.188,3.356-2.075,4.306-3.991,5.122c-3.19,1.358-1.62,5.535,1.718,4.583c2.372-0.677,2.514-3.503,4.755-4.491
		c-1.045,0.465-1.945,2.304-0.231,3.504c1.551,1.085,3.155-0.787,3.373-2.46c0.312-2.397-1.639-9.161,1.97-8.104
		c-2.49,1.985,0.77,6.483,0.471,9.72c-0.374,4.059-2.553,4.813-5.056,6.076c-0.757,0.38-2.434,1.041-0.997,2.862
		c1.079,1.368,3.282,0.099,4.104-0.337c2.213-1.176,4.137-3.878,7.189-1.957c-1.141,0.62-3.25,0.952-3.398,3.027
		c-0.081,1.15,0.664,1.697,0.174,2.731c-0.397,0.835-1.807,1.244-2.528,1.631c-1.455,0.78-4.397-0.795-5.426,0.173
		c-1.717,1.618,2.354,2.619,3.313,2.201c-0.969,1.715-4.785,1.647-6.699,1.513c-2.14-0.152-7.485-0.941-7.826,2.379"/>
	<g>
		
			<linearGradient id="SVGID_5_" gradientUnits="userSpaceOnUse" x1="382.2944" y1="147.3042" x2="402.3149" y2="133.282" gradientTransform="matrix(0.9941 -0.1086 0.1086 0.9941 36.9747 46.3649)">
			<stop  offset="0.0798" style="stop-color:#FEBB12"/>
			<stop  offset="1" style="stop-color:#FED900;stop-opacity:0.15"/>
		</linearGradient>
		<path fill="url(#SVGID_5_)" d="M439.852,161.96c0.454-4.444,5.461-4.015,8.451-3.758c0.23,0.02,0.442,0.038,0.63,0.051
			c0.741,0.052,1.395,0.069,1.975,0.057c-0.289-0.774-0.632-2.315,0.614-3.488c0.523-0.495,1.193-0.627,1.919-0.609
			c-0.613-0.193-1.223-0.592-1.78-1.299c-1.122-1.422-1.29-2.702-1.289-3.337c0.002-1.943,1.34-2.6,2.141-2.993l0.713-0.354
			c0.203-0.1,0.399-0.198,0.585-0.292c-0.455-0.081-0.913-0.278-1.362-0.592c-0.302-0.211-0.562-0.438-0.785-0.671
			c-0.602,0.811-1.356,1.579-2.574,1.925c-2.687,0.767-4.744-1.068-5.519-3.099c-0.779-2.041-0.44-4.739,2.14-5.84
			c1.689-0.719,2.875-1.325,3.159-2.604c-0.363,0.481-0.828,0.878-1.433,1.127c-1.739,0.715-5.044,0.523-6.616-2.168
			c-0.606-1.035-1.379-3.153,0.258-5.706c0.517-0.807,1.175-1.387,1.811-1.948c1.716-1.511,1.898-2.004,1.308-3.504
			c-0.091-0.209-0.504-0.901-0.804-1.406c-0.029-0.045-0.058-0.093-0.084-0.139c0.291,2.23,0.399,5.238-2.564,5.64
			c-1.905,0.255-3.814-0.911-5.18-2.999c-0.058,0.771-0.004,1.512,0.162,2.173c0.124,0.317,0.599,1.179,0.917,1.754
			c1.28,2.312,2.729,4.933,2.369,7.075c-0.128,0.752-0.529,1.7-1.729,1.951l-1.068,0.224c0.163,4.351-2.039,8.236-3.571,10.941
			l-0.112,0.201c-1.016,1.792-1.18,4.639-0.409,7.086c0.556,1.774,1.507,3.081,2.823,3.88 M454.71,154.35
			c0.122,0.02,0.245,0.041,0.365,0.061c0.798,0.134,1.7,0.285,2.095,0.075c0.197-0.105,0.439-0.213,0.697-0.328
			c0.322-0.143,0.94-0.415,1.224-0.649c-0.073-0.256-0.159-0.589-0.214-0.977c-0.386,0.272-0.786,0.536-1.203,0.759l-0.114,0.059
			C456.892,153.708,455.844,154.268,454.71,154.35z"/>
	</g>
</g>
<defs>
	<filter id="Adobe_OpacityMaskFilter" filterUnits="userSpaceOnUse" x="457.08" y="132.511" width="45.009" height="29.786">
		<feColorMatrix  type="matrix" values="1 0 0 0 0  0 1 0 0 0  0 0 1 0 0  0 0 0 1 0"/>
	</filter>
</defs>
<mask maskUnits="userSpaceOnUse" x="457.08" y="132.511" width="45.009" height="29.786" id="SVGID_6_">
	<g filter="url(#Adobe_OpacityMaskFilter)">
		<linearGradient id="SVGID_7_" gradientUnits="userSpaceOnUse" x1="465.1284" y1="159.5796" x2="517.3461" y2="123.0068">
			<stop  offset="0" style="stop-color:#FFFFFF"/>
			<stop  offset="0.0201" style="stop-color:#E6E5E5"/>
			<stop  offset="0.1421" style="stop-color:#908D8D"/>
			<stop  offset="0.2582" style="stop-color:#595655"/>
			<stop  offset="0.3653" style="stop-color:#363434"/>
			<stop  offset="0.4615" style="stop-color:#1D1C1C"/>
			<stop  offset="0.5434" style="stop-color:#0A0A0A"/>
			<stop  offset="0.6012" style="stop-color:#010101"/>
		</linearGradient>
		<rect x="453.487" y="119.604" fill="url(#SVGID_7_)" width="63.666" height="51.667"/>
	</g>
</mask>
<g mask="url(#SVGID_6_)">
	
		<linearGradient id="SVGID_8_" gradientUnits="userSpaceOnUse" x1="54.3252" y1="-173.3652" x2="74.0094" y2="-197.1461" gradientTransform="matrix(-0.1596 -0.9872 -0.9872 0.1596 303.0852 241.2732)">
		<stop  offset="0" style="stop-color:#361212"/>
		<stop  offset="1" style="stop-color:#BE2026"/>
	</linearGradient>
	<path fill="url(#SVGID_8_)" d="M459.546,160.834c3.333,2.883,10.601,1.122,13.873-1.967c3.285-3.102,9.098-8.739,14.936-5.671
		c-0.467-1.452-2.297-2.758-4.817-2.693c0.128-2.304,6.231-0.605,7.989-0.829c2.169-0.276,4.217-1.329,5.688-2.393
		c1.446-1.045,6.078-0.479,4.124-3.78c-0.292,3.267-9.112,4.549-9.198,0.863c-0.046-1.965,2.259-2.239,4.605-2.805
		c2.774-0.67,6.018-0.989,5.219-3.399c-0.351,2.79-6.673,0.942-8.411,0.969c-4.667,0.071-4.691,3.132-6.599,5.097
		c-3.118,3.209-4.718-0.021-4.236-1.969c0.61-2.461,5.627-3.371,5.73-5.715c-0.151,2.449-4.333,1.888-6.924,2.691
		c-3.095,0.96-3.638,3.095-4.109,4.908c-0.785,3.017-4.827,3.135-4.435,0.133c0.278-2.132,2.842-3.182,3.424-5.312
		c-0.275,0.995-1.827,2.328-3.169,1.345c-1.215-0.889,0.267-2.798,1.766-3.528c2.146-1.044,8.606-1.713,7.124-4.267
		c-1.458,2.66-6.035,1.527-8.951,2.837c-3.655,1.644-4.032,3.646-4.828,6.079c-0.24,0.734-0.604,2.303-2.474,1.75
		c-1.404-0.417-0.56-2.609-0.279-3.414c0.758-2.171,2.952-4.614,0.76-6.435c-0.404,1.123-0.405,2.931-2.28,3.736
		c-1.04,0.447-1.646,0.028-2.521,0.764c-0.707,0.597-0.879,1.865-1.128,2.575c-0.505,1.429,1.356,3.276,0.618,4.424
		c-1.232,1.917-2.73-1.028-2.485-1.938c-1.429,1.347-0.821,4.396-0.424,5.893c0.445,1.671,1.932,5.712-1.055,7.086"/>
	<g>
		
			<linearGradient id="SVGID_9_" gradientUnits="userSpaceOnUse" x1="53.7222" y1="-178.0234" x2="74.0615" y2="-192.269" gradientTransform="matrix(-0.1596 -0.9872 -0.9872 0.1596 303.0852 241.2732)">
			<stop  offset="0.0798" style="stop-color:#FEBB12"/>
			<stop  offset="1" style="stop-color:#FED900;stop-opacity:0.15"/>
		</linearGradient>
		<path fill="url(#SVGID_9_)" d="M461.337,159.945c0.918,0.794,2.248,1.127,3.95,0.988c2.347-0.189,4.925-1.265,6.417-2.673
			l0.168-0.158c2.253-2.129,5.488-5.186,9.488-6.495l0.052-0.935c0.058-1.047,0.866-1.684,1.535-2.035
			c1.906-1,4.509-0.701,6.805-0.436c0.571,0.066,1.427,0.164,1.735,0.159c0.627-0.086,1.312-0.287,2.009-0.589
			c-2.104-0.409-3.442-1.559-3.482-3.176c-0.057-2.518,2.707-3.426,4.787-3.93c-0.046-0.006-0.093-0.013-0.139-0.021
			c-0.505-0.074-1.196-0.178-1.4-0.182c-1.456,0.021-1.88,0.332-3.016,2.212c-0.422,0.697-0.858,1.418-1.521,2.102
			c-2.099,2.161-4.146,2.24-5.178,2.096c-2.685-0.376-3.333-2.973-2.929-4.607c0.141-0.57,0.438-1.074,0.825-1.526
			c-1.129,0.651-1.513,1.807-1.928,3.404c-0.637,2.44-3.054,3.606-5.03,3.653c-1.967,0.049-3.939-0.999-3.623-3.416
			c0.143-1.094,0.736-1.957,1.392-2.708c-0.246-0.103-0.489-0.238-0.726-0.41c-0.353-0.258-0.598-0.562-0.736-0.901
			c-0.061,0.181-0.122,0.372-0.185,0.568l-0.221,0.69c-0.245,0.774-0.653,2.068-2.429,2.712c-0.58,0.212-1.773,0.5-3.233,0.067
			c-0.727-0.215-1.179-0.573-1.442-1.003c0.119,0.579,0.095,1.161-0.283,1.747c-0.893,1.39-2.352,1.625-3.1,1.648
			c0.072,0.471,0.181,0.991,0.335,1.57c0.039,0.146,0.086,0.311,0.137,0.49c0.664,2.32,1.771,6.208-2.224,8.044 M463.48,139.796
			l0.038-0.112c0.145-0.41,0.327-0.82,0.521-1.22c-0.361,0.085-0.678,0.125-0.922,0.153c-0.175,0.304-0.335,0.893-0.418,1.198
			c-0.068,0.246-0.132,0.476-0.2,0.669c-0.136,0.388,0.132,1.064,0.368,1.661c0.036,0.091,0.072,0.183,0.107,0.275
			C462.886,141.48,463.249,140.452,463.48,139.796z"/>
	</g>
</g>
<g>
	<path fill="none" stroke="#250E29" stroke-width="0.8384" stroke-miterlimit="10" d="M455.087,185.345
		c-0.25,0.808-0.136,1.479-0.209,2.32c-0.162,1.846-0.328,1.715-1.06,3.134c-0.78,1.512-1.176,1.61,0.263,2.878
		c3.885,3.42,8.511,1.562,12.79,3.357c1.233,0.518,1.676,1.475,3.093,1.938c1.34,0.44,2.979,0.245,4.395,0.415
		c2.115,0.254,4.347,2.071,6.351,3.295c1.899,1.16,3.616,2.424,5.607,3.202"/>
	<path fill="none" stroke="#250E29" stroke-width="0.8384" stroke-miterlimit="10" d="M458.86,195.614
		c1.079,0.856,3.737,2.267,3.526,3.736c-1.412,0.561-2.845,1.187-3.111,2.762c-0.407,2.398,1.009,2.604-1.011,4.433
		c-1.979,1.792-3.055,2.114-2.758,4.999c0.272,2.643,1.216,4.787,3.308,6.497c1.634,1.337,4.344,2.282,4.819,4.554
		c0.53,2.535-2.019,3.854-0.116,5.874c0.604,0.641,1.674,0.783,2.212,1.515c0.66,0.895,0.368,1.591,0.677,2.52
		c0.533,1.607,1.372,2.663,0.838,4.611"/>
	<path fill="none" stroke="#250E29" stroke-width="0.8384" stroke-miterlimit="10" d="M440.207,183.248
		c-1.559,0.117-3.703,3.438-4.669,4.616c-1.258,1.533-2.366,2.215-1.393,3.988c0.948,1.728,3.416,1.977,4.337,3.609
		c1.109,1.967-1.789,2.27,1.933,3.506c1.718,0.569,3.396,1.211,5.157,1.629c0.932,0.223,3.389,0.162,4.022,0.939
		c1.328,1.625-1.466,2.35-2.681,3.148c-1.768,1.162-2.592,2.244-4.863,1.833c-2.848-0.517-5.473-1.621-8.132-2.682
		c-1.702-0.679-3.337-1.485-4.417,0.534c-0.774,1.449,0.271,2.783,0.025,4.459c-0.075,0.514-0.531,1.007-0.639,1.666
		c-0.132,0.805,0.193,1.727,0,2.516c-0.467,1.901-3.583,2.297-3.145,4.191"/>
	<path fill="none" stroke="#250E29" stroke-width="0.8384" stroke-miterlimit="10" d="M473.951,199.388
		c0.549-0.055,3.116,1.522,3.521,2.352c0.667,1.365-0.186,2.82,0.252,4.355c0.436,1.533,1.191,2.74,1.257,4.391
		c0.093,2.299-1.131,4.143-1.048,6.508c0.137,3.861,3.217,2.164,5.915,3.936c1.204,0.791,1.859,1.375,3.312,2.086
		c1.214,0.592,2.865,1.412,3.768,2.362"/>
	<path fill="none" stroke="#250E29" stroke-width="0.8384" stroke-miterlimit="10" d="M434.337,192.052
		c-1.844,1.092-3.822-0.571-5.198,1.043c-0.481,0.564-0.386,1.504-1.043,2.146c-0.592,0.58-1.493,0.7-2.143,1.211"/>
	<path fill="none" stroke="#250E29" stroke-width="0.7536" stroke-miterlimit="10" d="M468.501,198.339
		c1.358,1.919,0.385,5.311,0.584,7.776c0.854,0.342,1.875,0.556,2.658,1.487c0.97,1.152,0.977,2.464,1.577,4.096
		c0.8,2.172,1.325,1.506,2.503,2.709c0.904,0.925,1.067,2.539,1.69,3.844"/>
	<path fill="none" stroke="#250E29" stroke-width="0.8384" stroke-miterlimit="10" d="M437.272,193.519
		c-0.542,0.59-1.097,1.171-1.504,1.85c-2.038,0.119-8.124-1.104-4.993,2.297c0.684,0.742,2.674,1.713,2.887,2.771
		c0.298,1.477-1.522,1.654,0.047,3.143"/>
	<path fill="none" stroke="#250E29" stroke-width="0.7536" stroke-miterlimit="10" d="M439.997,206.513
		c1.924,1.818,5.959,2.944,1.875,5.449c-1.133,0.695-2.838,0.339-3.971,1.096c-1.386,0.928-0.404,0.941-0.629,1.619
		c0.005-0.016,0.362,0.787,0.306,1.053c-0.074,0.343-1.157,0.542-1.357,1.002c-0.398,0.918-0.015,2.549,0.213,3.615
		c0.514,2.408,1.264,1.675,3.189,3.092c1.229,0.904,1.213,2.229,2.251,3.242c0.94,0.92,2.792,1.418,3.991,1.631"/>
	<path fill="none" stroke="#250E29" stroke-width="0.7536" stroke-miterlimit="10" d="M463.261,227.892
		c2.141-0.079,3.922,1.338,5.875,1.938c2.077,0.639,4.328,0.502,6.512,0.578c1.833,0.064,3.399,0.516,5.22,0.629
		c2.519,0.156,3.158,0.118,4.192,2.305c1.993,4.213,7.175,4.021,10.693,6.924c1.386,1.143,1.892,2.535,2.727,3.975
		c0.908,1.57,1.981,2.384,3.604,3.407c0.946,0.597,2.211,0.961,2.505,2.009c0.3,0.128,0.547,0.266,0.802,0.454"/>
	<path fill="none" stroke="#250E29" stroke-width="0.7536" stroke-miterlimit="10" d="M438.32,223.071
		c-2.08,1.208-5.269,1.09-7.131,2.772c-1.367,1.236-1.729,3.575-2.94,5.155c-1.299,1.693-3.437,3.486-5.438,4.229
		c-2.133,0.791-3.728,0.647-5.397,2.148c-2.052,1.842-4.378,2.396-7.138,3.354c-2.63,0.912-4.485,0.637-7.167,0.775
		c-1.805,0.094-4.511,0.836-5.811,2.164c-0.936,0.957-1.141,2.145-2.103,3.291c-1.096,1.306-2.648,2.867-4.034,3.568"/>
</g>
<g opacity="0.53">
	<linearGradient id="SVGID_10_" gradientUnits="userSpaceOnUse" x1="430.7056" y1="230.5967" x2="459.6364" y2="182.4338">
		<stop  offset="0" style="stop-color:#250E29;stop-opacity:0"/>
		<stop  offset="0.5276" style="stop-color:#250E29"/>
		<stop  offset="1" style="stop-color:#250E29;stop-opacity:0.53"/>
	</linearGradient>
	<path fill="url(#SVGID_10_)" d="M482.617,185.089c-0.148-0.592-0.265-1.313-0.398-2.07c-1.234,0.727-2.43,1.531-3.933,2.033
		c-2.167,0.723-4.503,0.684-6.767,0.706c-2.021,0.021-4.533,0.441-6.484-0.095c-0.374-0.103-0.732-0.296-1.073-0.523
		c-0.162-0.023-0.321-0.053-0.48-0.084c0.066,0.477,0.167,0.943,0.351,1.393c0.357,1.08-0.403,2.293-1.464,2.578
		c-3.021,0.812-5.251-1.145-7.039-3.355c-0.978-1.205-1.796-2.552-2.827-3.711c-0.248-0.278-1.224-1.036-0.967-1.225
		c-0.708,0.52-0.928,1.103-0.57,1.881c1.117,2.439-2.495,4.57-3.62,2.116c-0.208-0.454-0.357-0.879-0.479-1.292
		c0.093,1.333,0.449,2.929,0.388,3.564c-0.152,1.55-1.672,2.652-3.154,1.811c-2.007-1.141-3.517-2.662-5.212-4.2
		c-2.362-2.143-4.657-2.565-7.679-3.047c-1.316-0.21-2.449-0.572-3.487-1.048h-3.854v28.935c11.257,3.751,21.793,3.704,33.106,2.089
		c11.222-1.604,20.718-6.467,29.59-12.478v-5.481C484.685,191.101,483.389,188.164,482.617,185.089z"/>
	<linearGradient id="SVGID_11_" gradientUnits="userSpaceOnUse" x1="385.8638" y1="203.6611" x2="414.7949" y2="155.4978">
		<stop  offset="0" style="stop-color:#250E29;stop-opacity:0"/>
		<stop  offset="0.5276" style="stop-color:#250E29"/>
		<stop  offset="1" style="stop-color:#250E29;stop-opacity:0.53"/>
	</linearGradient>
	<path fill="url(#SVGID_11_)" d="M389.903,172.14c0.756,12.094,6.975,21.453,16.175,28.71l14.551-46.727
		C406.716,151.17,389.149,155.545,389.903,172.14z"/>
</g>
<defs>
	<filter id="Adobe_OpacityMaskFilter_1_" filterUnits="userSpaceOnUse" x="442.05" y="0" width="85.398" height="155.565">
		<feColorMatrix  type="matrix" values="1 0 0 0 0  0 1 0 0 0  0 0 1 0 0  0 0 0 1 0"/>
	</filter>
</defs>
<mask maskUnits="userSpaceOnUse" x="442.05" y="0" width="85.398" height="155.565" id="SVGID_12_">
	<g filter="url(#Adobe_OpacityMaskFilter_1_)">
		<linearGradient id="SVGID_13_" gradientUnits="userSpaceOnUse" x1="423.269" y1="164.3105" x2="556.6149" y2="-54.8376">
			<stop  offset="0.3742" style="stop-color:#FFFFFF"/>
			<stop  offset="1" style="stop-color:#010101"/>
		</linearGradient>
		<rect x="399.7" y="-30.298" fill="url(#SVGID_13_)" width="161.475" height="201.311"/>
	</g>
</mask>
<g mask="url(#SVGID_12_)">
	<g>
		<linearGradient id="SVGID_14_" gradientUnits="userSpaceOnUse" x1="448.7212" y1="148.5962" x2="466.4885" y2="130.8289">
			<stop  offset="0" style="stop-color:#1F0D0E"/>
			<stop  offset="1" style="stop-color:#303030"/>
		</linearGradient>
		<circle fill="url(#SVGID_14_)" cx="457.604" cy="139.713" r="12.563"/>
		<linearGradient id="SVGID_15_" gradientUnits="userSpaceOnUse" x1="471.0942" y1="133.252" x2="497.9566" y2="106.3896">
			<stop  offset="0" style="stop-color:#1F0D0E"/>
			<stop  offset="1" style="stop-color:#303030"/>
		</linearGradient>
		<circle fill="url(#SVGID_15_)" cx="484.524" cy="119.82" r="18.995"/>
		<linearGradient id="SVGID_16_" gradientUnits="userSpaceOnUse" x1="455.0571" y1="131.0425" x2="470.9204" y2="115.1792">
			<stop  offset="0" style="stop-color:#1F0D0E"/>
			<stop  offset="1" style="stop-color:#303030"/>
		</linearGradient>
		<circle fill="url(#SVGID_16_)" cx="462.988" cy="123.11" r="11.217"/>
		<linearGradient id="SVGID_17_" gradientUnits="userSpaceOnUse" x1="484.0708" y1="105.019" x2="499.9344" y2="89.1554">
			<stop  offset="0" style="stop-color:#1F0D0E"/>
			<stop  offset="1" style="stop-color:#303030"/>
		</linearGradient>
		<circle fill="url(#SVGID_17_)" cx="492.003" cy="97.087" r="11.217"/>
		<linearGradient id="SVGID_18_" gradientUnits="userSpaceOnUse" x1="489.6499" y1="96.1494" x2="514.3964" y2="71.403">
			<stop  offset="0" style="stop-color:#1F0D0E"/>
			<stop  offset="1" style="stop-color:#303030"/>
		</linearGradient>
		<circle fill="url(#SVGID_18_)" cx="502.022" cy="83.776" r="17.499"/>
		<linearGradient id="SVGID_19_" gradientUnits="userSpaceOnUse" x1="500.8228" y1="118.4805" x2="516.6865" y2="102.6167">
			<stop  offset="0" style="stop-color:#1F0D0E"/>
			<stop  offset="1" style="stop-color:#303030"/>
		</linearGradient>
		<circle fill="url(#SVGID_19_)" cx="508.754" cy="110.548" r="11.218"/>
		<linearGradient id="SVGID_20_" gradientUnits="userSpaceOnUse" x1="469.9019" y1="141.9209" x2="480.9009" y2="130.9218">
			<stop  offset="0" style="stop-color:#1F0D0E"/>
			<stop  offset="1" style="stop-color:#303030"/>
		</linearGradient>
		<circle fill="url(#SVGID_20_)" cx="475.402" cy="136.422" r="7.778"/>
		<linearGradient id="SVGID_21_" gradientUnits="userSpaceOnUse" x1="447.4683" y1="137.4341" x2="458.4671" y2="126.4352">
			<stop  offset="0" style="stop-color:#1F0D0E"/>
			<stop  offset="1" style="stop-color:#303030"/>
		</linearGradient>
		<circle fill="url(#SVGID_21_)" cx="452.968" cy="131.935" r="7.777"/>
		<linearGradient id="SVGID_22_" gradientUnits="userSpaceOnUse" x1="514.1724" y1="85.3867" x2="525.1703" y2="74.3887">
			<stop  offset="0" style="stop-color:#1F0D0E"/>
			<stop  offset="1" style="stop-color:#303030"/>
		</linearGradient>
		<circle fill="url(#SVGID_22_)" cx="519.671" cy="79.888" r="7.777"/>
		<linearGradient id="SVGID_23_" gradientUnits="userSpaceOnUse" x1="478.5757" y1="83.2939" x2="489.575" y2="72.2946">
			<stop  offset="0" style="stop-color:#1F0D0E"/>
			<stop  offset="1" style="stop-color:#303030"/>
		</linearGradient>
		<path fill="url(#SVGID_23_)" d="M491.854,77.794c0,4.295-3.483,7.777-7.776,7.777c-4.298,0-7.78-3.482-7.78-7.777
			c0-4.295,3.482-7.777,7.78-7.777C488.371,70.017,491.854,73.499,491.854,77.794z"/>
		<linearGradient id="SVGID_24_" gradientUnits="userSpaceOnUse" x1="495.4312" y1="69.1323" x2="509.8134" y2="54.7501">
			<stop  offset="0" style="stop-color:#1F0D0E"/>
			<stop  offset="1" style="stop-color:#303030"/>
		</linearGradient>
		<circle fill="url(#SVGID_24_)" cx="502.622" cy="61.941" r="10.17"/>
		<linearGradient id="SVGID_25_" gradientUnits="userSpaceOnUse" x1="488.5581" y1="73.0151" x2="495.7491" y2="65.8241">
			<stop  offset="0" style="stop-color:#1F0D0E"/>
			<stop  offset="1" style="stop-color:#303030"/>
		</linearGradient>
		<circle fill="url(#SVGID_25_)" cx="492.152" cy="69.419" r="5.084"/>
		<linearGradient id="SVGID_26_" gradientUnits="userSpaceOnUse" x1="471.8071" y1="110.1055" x2="478.9977" y2="102.9149">
			<stop  offset="0" style="stop-color:#1F0D0E"/>
			<stop  offset="1" style="stop-color:#303030"/>
		</linearGradient>
		<circle fill="url(#SVGID_26_)" cx="475.402" cy="106.51" r="5.085"/>
		<linearGradient id="SVGID_27_" gradientUnits="userSpaceOnUse" x1="500.5229" y1="127.4546" x2="507.7137" y2="120.2639">
			<stop  offset="0" style="stop-color:#1F0D0E"/>
			<stop  offset="1" style="stop-color:#303030"/>
		</linearGradient>
		<circle fill="url(#SVGID_27_)" cx="504.118" cy="123.859" r="5.085"/>
		<linearGradient id="SVGID_28_" gradientUnits="userSpaceOnUse" x1="455.9536" y1="154.0762" x2="463.1439" y2="146.8859">
			<stop  offset="0" style="stop-color:#1F0D0E"/>
			<stop  offset="1" style="stop-color:#303030"/>
		</linearGradient>
		<circle fill="url(#SVGID_28_)" cx="459.549" cy="150.481" r="5.085"/>
		<linearGradient id="SVGID_29_" gradientUnits="userSpaceOnUse" x1="478.9263" y1="95.6577" x2="482.9455" y2="91.6385">
			<stop  offset="0" style="stop-color:#1F0D0E"/>
			<stop  offset="1" style="stop-color:#303030"/>
		</linearGradient>
		<circle fill="url(#SVGID_29_)" cx="480.935" cy="93.647" r="2.842"/>
		<linearGradient id="SVGID_30_" gradientUnits="userSpaceOnUse" x1="480.4224" y1="72.625" x2="484.4408" y2="68.6065">
			<stop  offset="0" style="stop-color:#1F0D0E"/>
			<stop  offset="1" style="stop-color:#303030"/>
		</linearGradient>
		<circle fill="url(#SVGID_30_)" cx="482.431" cy="70.616" r="2.842"/>
		<linearGradient id="SVGID_31_" gradientUnits="userSpaceOnUse" x1="442.8843" y1="135.4409" x2="446.903" y2="131.4222">
			<stop  offset="0" style="stop-color:#1F0D0E"/>
			<stop  offset="1" style="stop-color:#303030"/>
		</linearGradient>
		<circle fill="url(#SVGID_31_)" cx="444.892" cy="133.431" r="2.842"/>
		<linearGradient id="SVGID_32_" gradientUnits="userSpaceOnUse" x1="513.7729" y1="73.2231" x2="517.7919" y2="69.2042">
			<stop  offset="0" style="stop-color:#1F0D0E"/>
			<stop  offset="1" style="stop-color:#303030"/>
		</linearGradient>
		<circle fill="url(#SVGID_32_)" cx="515.784" cy="71.214" r="2.842"/>
		<linearGradient id="SVGID_33_" gradientUnits="userSpaceOnUse" x1="509.8853" y1="58.5664" x2="513.9042" y2="54.5475">
			<stop  offset="0" style="stop-color:#1F0D0E"/>
			<stop  offset="1" style="stop-color:#303030"/>
		</linearGradient>
		<circle fill="url(#SVGID_33_)" cx="511.895" cy="56.557" r="2.842"/>
		<linearGradient id="SVGID_34_" gradientUnits="userSpaceOnUse" x1="514.147" y1="107.0254" x2="519.9636" y2="101.2087">
			<stop  offset="0" style="stop-color:#1F0D0E"/>
			<stop  offset="1" style="stop-color:#303030"/>
		</linearGradient>
		<circle fill="url(#SVGID_34_)" cx="517.055" cy="104.117" r="4.113"/>
		<linearGradient id="SVGID_35_" gradientUnits="userSpaceOnUse" x1="516.8403" y1="90.8735" x2="522.6569" y2="85.057">
			<stop  offset="0" style="stop-color:#1F0D0E"/>
			<stop  offset="1" style="stop-color:#303030"/>
		</linearGradient>
		<circle fill="url(#SVGID_35_)" cx="519.748" cy="87.964" r="4.113"/>
		<linearGradient id="SVGID_36_" gradientUnits="userSpaceOnUse" x1="447.5776" y1="151.6826" x2="454.7682" y2="144.4921">
			<stop  offset="0" style="stop-color:#1F0D0E"/>
			<stop  offset="1" style="stop-color:#303030"/>
		</linearGradient>
		<circle fill="url(#SVGID_36_)" cx="451.173" cy="148.087" r="5.084"/>
	</g>
	<g>
		
			<linearGradient id="SVGID_37_" gradientUnits="userSpaceOnUse" x1="207.1943" y1="-48.646" x2="219.6008" y2="-61.0524" gradientTransform="matrix(-0.6649 -0.7469 -0.7469 0.6649 590.8213 264.7636)">
			<stop  offset="0" style="stop-color:#1F0D0E"/>
			<stop  offset="1" style="stop-color:#303030"/>
		</linearGradient>
		<circle fill="url(#SVGID_37_)" cx="489.9" cy="68.907" r="8.772"/>
		
			<linearGradient id="SVGID_38_" gradientUnits="userSpaceOnUse" x1="222.8169" y1="-59.3604" x2="241.5741" y2="-78.1175" gradientTransform="matrix(-0.6649 -0.7469 -0.7469 0.6649 590.8213 264.7636)">
			<stop  offset="0" style="stop-color:#1F0D0E"/>
			<stop  offset="1" style="stop-color:#303030"/>
		</linearGradient>
		<circle fill="url(#SVGID_38_)" cx="487.777" cy="45.632" r="13.263"/>
		
			<linearGradient id="SVGID_39_" gradientUnits="userSpaceOnUse" x1="211.6191" y1="-60.9028" x2="222.6958" y2="-71.9795" gradientTransform="matrix(-0.6649 -0.7469 -0.7469 0.6649 590.8213 264.7636)">
			<stop  offset="0" style="stop-color:#1F0D0E"/>
			<stop  offset="1" style="stop-color:#303030"/>
		</linearGradient>
		<circle fill="url(#SVGID_39_)" cx="496.059" cy="58.392" r="7.832"/>
		
			<linearGradient id="SVGID_40_" gradientUnits="userSpaceOnUse" x1="231.8799" y1="-79.0737" x2="242.9572" y2="-90.151" gradientTransform="matrix(-0.6649 -0.7469 -0.7469 0.6649 590.8213 264.7636)">
			<stop  offset="0" style="stop-color:#1F0D0E"/>
			<stop  offset="1" style="stop-color:#303030"/>
		</linearGradient>
		<circle fill="url(#SVGID_40_)" cx="496.16" cy="31.177" r="7.833"/>
		
			<linearGradient id="SVGID_41_" gradientUnits="userSpaceOnUse" x1="235.7754" y1="-85.2671" x2="253.0556" y2="-102.5473" gradientTransform="matrix(-0.6649 -0.7469 -0.7469 0.6649 590.8213 264.7636)">
			<stop  offset="0" style="stop-color:#1F0D0E"/>
			<stop  offset="1" style="stop-color:#303030"/>
		</linearGradient>
		<circle fill="url(#SVGID_41_)" cx="498.451" cy="19.77" r="12.219"/>
		
			<linearGradient id="SVGID_42_" gradientUnits="userSpaceOnUse" x1="243.5757" y1="-69.6748" x2="254.6529" y2="-80.752" gradientTransform="matrix(-0.6649 -0.7469 -0.7469 0.6649 590.8213 264.7636)">
			<stop  offset="0" style="stop-color:#1F0D0E"/>
			<stop  offset="1" style="stop-color:#303030"/>
		</linearGradient>
		<circle fill="url(#SVGID_42_)" cx="481.363" cy="28.69" r="7.833"/>
		
			<linearGradient id="SVGID_43_" gradientUnits="userSpaceOnUse" x1="221.9858" y1="-53.3057" x2="229.666" y2="-60.9859" gradientTransform="matrix(-0.6649 -0.7469 -0.7469 0.6649 590.8213 264.7636)">
			<stop  offset="0" style="stop-color:#1F0D0E"/>
			<stop  offset="1" style="stop-color:#303030"/>
		</linearGradient>
		<circle fill="url(#SVGID_43_)" cx="483.354" cy="58.098" r="5.43"/>
		
			<linearGradient id="SVGID_44_" gradientUnits="userSpaceOnUse" x1="206.3208" y1="-56.4395" x2="214.0009" y2="-64.1196" gradientTransform="matrix(-0.6649 -0.7469 -0.7469 0.6649 590.8213 264.7636)">
			<stop  offset="0" style="stop-color:#1F0D0E"/>
			<stop  offset="1" style="stop-color:#303030"/>
		</linearGradient>
		<circle fill="url(#SVGID_44_)" cx="496.11" cy="67.714" r="5.431"/>
		
			<linearGradient id="SVGID_45_" gradientUnits="userSpaceOnUse" x1="252.8984" y1="-92.7827" x2="260.5785" y2="-100.4628" gradientTransform="matrix(-0.6649 -0.7469 -0.7469 0.6649 590.8213 264.7636)">
			<stop  offset="0" style="stop-color:#1F0D0E"/>
			<stop  offset="1" style="stop-color:#303030"/>
		</linearGradient>
		<circle fill="url(#SVGID_45_)" cx="492.285" cy="8.761" r="5.431"/>
		
			<linearGradient id="SVGID_46_" gradientUnits="userSpaceOnUse" x1="228.043" y1="-94.2446" x2="235.723" y2="-101.9247" gradientTransform="matrix(-0.6649 -0.7469 -0.7469 0.6649 590.8213 264.7636)">
			<stop  offset="0" style="stop-color:#1F0D0E"/>
			<stop  offset="1" style="stop-color:#303030"/>
		</linearGradient>
		<circle fill="url(#SVGID_46_)" cx="509.902" cy="26.353" r="5.43"/>
		
			<linearGradient id="SVGID_47_" gradientUnits="userSpaceOnUse" x1="239.8115" y1="-104.1333" x2="249.8544" y2="-114.1762" gradientTransform="matrix(-0.6649 -0.7469 -0.7469 0.6649 590.8213 264.7636)">
			<stop  offset="0" style="stop-color:#1F0D0E"/>
			<stop  offset="1" style="stop-color:#303030"/>
		</linearGradient>
		<circle fill="url(#SVGID_47_)" cx="509.561" cy="9.32" r="7.102"/>
		
			<linearGradient id="SVGID_48_" gradientUnits="userSpaceOnUse" x1="235.0112" y1="-101.4229" x2="240.0322" y2="-106.4439" gradientTransform="matrix(-0.6649 -0.7469 -0.7469 0.6649 590.8213 264.7636)">
			<stop  offset="0" style="stop-color:#1F0D0E"/>
			<stop  offset="1" style="stop-color:#303030"/>
		</linearGradient>
		<circle fill="url(#SVGID_48_)" cx="510.521" cy="18.253" r="3.55"/>
		
			<linearGradient id="SVGID_49_" gradientUnits="userSpaceOnUse" x1="223.3154" y1="-75.5229" x2="228.3363" y2="-80.5439" gradientTransform="matrix(-0.6649 -0.7469 -0.7469 0.6649 590.8213 264.7636)">
			<stop  offset="0" style="stop-color:#1F0D0E"/>
			<stop  offset="1" style="stop-color:#303030"/>
		</linearGradient>
		<circle fill="url(#SVGID_49_)" cx="498.954" cy="44.21" r="3.55"/>
		
			<linearGradient id="SVGID_50_" gradientUnits="userSpaceOnUse" x1="243.3662" y1="-63.4087" x2="248.3871" y2="-68.4296" gradientTransform="matrix(-0.6649 -0.7469 -0.7469 0.6649 590.8213 264.7636)">
			<stop  offset="0" style="stop-color:#1F0D0E"/>
			<stop  offset="1" style="stop-color:#303030"/>
		</linearGradient>
		<circle fill="url(#SVGID_50_)" cx="476.574" cy="37.289" r="3.55"/>
		
			<linearGradient id="SVGID_51_" gradientUnits="userSpaceOnUse" x1="212.2446" y1="-44.8184" x2="217.2661" y2="-49.8398" gradientTransform="matrix(-0.6649 -0.7469 -0.7469 0.6649 590.8213 264.7636)">
			<stop  offset="0" style="stop-color:#1F0D0E"/>
			<stop  offset="1" style="stop-color:#303030"/>
		</linearGradient>
		<circle fill="url(#SVGID_51_)" cx="483.381" cy="72.893" r="3.551"/>
		
			<linearGradient id="SVGID_52_" gradientUnits="userSpaceOnUse" x1="228.2866" y1="-85.6123" x2="231.0922" y2="-88.4179" gradientTransform="matrix(-0.6649 -0.7469 -0.7469 0.6649 590.8213 264.7636)">
			<stop  offset="0" style="stop-color:#1F0D0E"/>
			<stop  offset="1" style="stop-color:#303030"/>
		</linearGradient>
		<circle fill="url(#SVGID_52_)" cx="503.092" cy="35.352" r="1.984"/>
		
			<linearGradient id="SVGID_53_" gradientUnits="userSpaceOnUse" x1="229.3315" y1="-101.6943" x2="232.1377" y2="-104.5005" gradientTransform="matrix(-0.6649 -0.7469 -0.7469 0.6649 590.8213 264.7636)">
			<stop  offset="0" style="stop-color:#1F0D0E"/>
			<stop  offset="1" style="stop-color:#303030"/>
		</linearGradient>
		<circle fill="url(#SVGID_53_)" cx="514.41" cy="23.878" r="1.984"/>
		
			<linearGradient id="SVGID_54_" gradientUnits="userSpaceOnUse" x1="203.1182" y1="-57.8315" x2="205.9243" y2="-60.6377" gradientTransform="matrix(-0.6649 -0.7469 -0.7469 0.6649 590.8213 264.7636)">
			<stop  offset="0" style="stop-color:#1F0D0E"/>
			<stop  offset="1" style="stop-color:#303030"/>
		</linearGradient>
		<circle fill="url(#SVGID_54_)" cx="499.079" cy="72.621" r="1.984"/>
		
			<linearGradient id="SVGID_55_" gradientUnits="userSpaceOnUse" x1="252.6211" y1="-101.2759" x2="255.4272" y2="-104.082" gradientTransform="matrix(-0.6649 -0.7469 -0.7469 0.6649 590.8213 264.7636)">
			<stop  offset="0" style="stop-color:#1F0D0E"/>
			<stop  offset="1" style="stop-color:#303030"/>
		</linearGradient>
		<circle fill="url(#SVGID_55_)" cx="498.614" cy="6.761" r="1.984"/>
		
			<linearGradient id="SVGID_56_" gradientUnits="userSpaceOnUse" x1="249.9048" y1="-111.5117" x2="252.7111" y2="-114.318" gradientTransform="matrix(-0.6649 -0.7469 -0.7469 0.6649 590.8213 264.7636)">
			<stop  offset="0" style="stop-color:#1F0D0E"/>
			<stop  offset="1" style="stop-color:#303030"/>
		</linearGradient>
		<circle fill="url(#SVGID_56_)" cx="508.062" cy="1.984" r="1.984"/>
		
			<linearGradient id="SVGID_57_" gradientUnits="userSpaceOnUse" x1="252.8804" y1="-77.6738" x2="256.9421" y2="-81.7355" gradientTransform="matrix(-0.6649 -0.7469 -0.7469 0.6649 590.8213 264.7636)">
			<stop  offset="0" style="stop-color:#1F0D0E"/>
			<stop  offset="1" style="stop-color:#303030"/>
		</linearGradient>
		<path fill="url(#SVGID_57_)" d="M478.954,19.23c-1.187,1.055-1.29,2.87-0.235,4.054c1.055,1.185,2.868,1.292,4.052,0.237
			c1.188-1.055,1.292-2.871,0.238-4.056C481.953,18.28,480.137,18.175,478.954,19.23z"/>
		
			<linearGradient id="SVGID_58_" gradientUnits="userSpaceOnUse" x1="254.7598" y1="-88.9526" x2="258.8216" y2="-93.0145" gradientTransform="matrix(-0.6649 -0.7469 -0.7469 0.6649 590.8213 264.7636)">
			<stop  offset="0" style="stop-color:#1F0D0E"/>
			<stop  offset="1" style="stop-color:#303030"/>
		</linearGradient>
		<circle fill="url(#SVGID_58_)" cx="488.038" cy="12.472" r="2.872"/>
		
			<linearGradient id="SVGID_59_" gradientUnits="userSpaceOnUse" x1="206.3955" y1="-46.4907" x2="211.4166" y2="-51.5119" gradientTransform="matrix(-0.6649 -0.7469 -0.7469 0.6649 590.8213 264.7636)">
			<stop  offset="0" style="stop-color:#1F0D0E"/>
			<stop  offset="1" style="stop-color:#303030"/>
		</linearGradient>
		<circle fill="url(#SVGID_59_)" cx="488.519" cy="76.15" r="3.55"/>
	</g>
</g>
<g>
	<linearGradient id="SVGID_60_" gradientUnits="userSpaceOnUse" x1="452.4487" y1="148.2349" x2="469.7281" y2="127.3592">
		<stop  offset="0" style="stop-color:#361212"/>
		<stop  offset="1" style="stop-color:#BE2026"/>
	</linearGradient>
	<path fill="url(#SVGID_60_)" d="M447.49,149.196c-4.248-2.167-3.521-7.876-0.341-10.728c3.191-2.862,9.025-7.945,4.043-11.984
		c1.895,0.176,3.884,1.399,4.311,3.313c2.835-0.378-0.498-4.785-0.574-6.142c-0.093-1.673,0.805-3.35,1.83-4.593
		c1.007-1.221-0.626-4.653,3.866-3.579c-3.998,0.62-3.82,7.444,0.775,7.059c2.448-0.205,2.325-1.981,2.559-3.824
		c0.273-2.179,0.02-4.67,3.172-4.361c-3.394,0.605,0.17,5.16,0.486,6.477c0.85,3.537-2.948,3.929-5.004,5.611
		c-3.361,2.749,0.975,3.564,3.295,2.962c2.935-0.762,3.056-4.666,5.947-5.03c-3.011,0.413-1.474,3.506-1.951,5.562
		c-0.57,2.457-3.113,3.129-5.269,3.707c-3.591,0.962-2.926,4.032,0.723,3.369c2.593-0.471,3.383-2.537,5.911-3.237
		c-1.18,0.33-2.523,1.666-1.033,2.56c1.348,0.809,3.422-0.544,4.027-1.767c0.866-1.75,0.397-6.715,3.867-5.908
		c-3.012,1.429-0.684,4.75-1.727,7.114c-1.307,2.964-3.718,3.494-6.58,4.394c-0.863,0.271-2.738,0.737-1.676,2.083
		c0.8,1.011,3.353,0.104,4.297-0.207c2.545-0.837,5.137-2.795,7.838-1.36c-1.312,0.442-3.558,0.664-4.182,2.18
		c-0.347,0.84,0.296,1.248-0.443,1.999c-0.598,0.607-2.14,0.892-2.971,1.168c-1.673,0.556-4.34-0.625-5.617,0.073
		c-2.133,1.166,1.824,1.938,2.905,1.642c-1.385,1.245-5.294,1.158-7.232,1.041c-2.165-0.132-7.482-0.762-8.588,1.664"/>
	<g>
		<linearGradient id="SVGID_61_" gradientUnits="userSpaceOnUse" x1="449.7905" y1="143.9517" x2="469.1028" y2="130.4255">
			<stop  offset="0.0798" style="stop-color:#FEBB12"/>
			<stop  offset="1" style="stop-color:#FED900;stop-opacity:0.15"/>
		</linearGradient>
		<path fill="url(#SVGID_61_)" d="M452.662,149.772c1.479-3.245,6.529-2.882,9.544-2.665c0.233,0.017,0.447,0.032,0.636,0.043
			c0.752,0.046,1.419,0.064,2.019,0.062c-0.122-0.569-0.124-1.7,1.423-2.545c0.652-0.357,1.372-0.447,2.114-0.427
			c-0.589-0.147-1.123-0.445-1.536-0.968c-0.831-1.051-0.712-1.988-0.566-2.453c0.443-1.421,1.97-1.888,2.882-2.167l0.813-0.252
			c0.231-0.071,0.454-0.141,0.668-0.208c-0.45-0.063-0.876-0.212-1.268-0.447c-0.261-0.157-0.477-0.325-0.654-0.499
			c-0.803,0.587-1.754,1.142-3.084,1.383c-2.938,0.535-4.636-0.829-4.971-2.321c-0.337-1.5,0.624-3.47,3.529-4.249
			c1.899-0.509,3.257-0.94,3.84-1.874c-0.483,0.349-1.05,0.635-1.73,0.811c-1.949,0.506-5.305,0.333-6.31-1.65
			c-0.388-0.763-0.7-2.32,1.562-4.171c0.715-0.585,1.523-1.003,2.306-1.407c2.106-1.089,2.407-1.446,2.142-2.55
			c-0.046-0.154-0.313-0.664-0.509-1.036c-0.018-0.034-0.036-0.068-0.053-0.103c-0.209,1.635-0.78,3.835-3.92,4.1
			c-2.018,0.167-3.715-0.704-4.645-2.244c-0.233,0.564-0.348,1.106-0.328,1.591c0.055,0.233,0.349,0.868,0.545,1.292
			c0.79,1.703,1.686,3.634,0.826,5.197c-0.302,0.549-0.93,1.237-2.219,1.409l-1.15,0.153c-0.822,3.184-3.968,6.003-6.16,7.967
			l-0.162,0.146c-1.45,1.3-2.267,3.381-2.032,5.178c0.17,1.304,0.851,2.268,2.021,2.866 M469.671,144.354
			c0.12,0.016,0.24,0.031,0.361,0.048c0.789,0.105,1.684,0.225,2.137,0.075c0.227-0.075,0.498-0.151,0.791-0.232
			c0.363-0.101,1.062-0.294,1.404-0.462c-0.017-0.188-0.028-0.433,0.004-0.716c-0.459,0.195-0.93,0.384-1.411,0.542l-0.13,0.043
			C472.06,143.906,470.854,144.306,469.671,144.354z"/>
	</g>
</g>
<g id="Spaceship_6_">
	
		<ellipse transform="matrix(-0.925 -0.38 0.38 -0.925 799.4603 484.5717)" fill="#059464" cx="447.553" cy="163.386" rx="41.934" ry="22.485"/>
	<path fill="#016242" d="M428.491,178.89c-0.896-13.869-0.237-27.941,2.091-41.697c-10.719,0.042-19.067,3.568-21.817,10.26
		C404.877,156.917,413.392,169.743,428.491,178.89z"/>
	<path fill="#025036" d="M450.524,187.888c17.04,3.998,31.954,0.839,35.818-8.568c1.916-4.668,0.819-10.155-2.599-15.615
		C474.102,174.025,462.602,181.787,450.524,187.888z"/>
	
		<ellipse transform="matrix(-0.925 -0.38 0.38 -0.925 796.7333 488.689)" fill="#29B67D" cx="446.598" cy="165.711" rx="38.696" ry="18.652"/>
	
		<ellipse transform="matrix(-0.925 -0.38 0.38 -0.925 795.3313 491.7363)" fill="#3EB982" cx="446.196" cy="167.375" rx="32.435" ry="15.633"/>
	
		<ellipse transform="matrix(-0.925 -0.38 0.38 -0.925 794.1824 493.4693)" fill="#4BBB87" cx="445.795" cy="168.352" rx="26.158" ry="12.608"/>
	
		<ellipse transform="matrix(-0.925 -0.38 0.38 -0.925 793.0085 495.2405)" fill="#68C292" cx="445.382" cy="169.354" rx="23.482" ry="10.234"/>
	
		<ellipse transform="matrix(-0.925 -0.38 0.38 -0.925 793.0085 495.2405)" fill="#4BBB87" cx="445.382" cy="169.354" rx="23.482" ry="10.234"/>
	<path opacity="0.25" fill="#024E35" d="M466.417,176.839l3.179-19.742c0,0-7.721-5.7-15.925-8.883
		c-9.123-3.537-16.17-4.663-16.17-4.663l-13.019,16.062L466.417,176.839z"/>
	<path fill="#2D7188" d="M466.432,177.083c-0.008-0.626-0.46-9.499-17.695-16.578c-17.233-7.08-23.792-1.086-24.239-0.647
		c0.011,0.626,5.299,10.317,18.105,15.579C455.413,180.697,465.985,177.521,466.432,177.083z"/>
	<path fill="#013445" d="M465.602,173.92c0,0-2.179-7.382-16.865-13.416c-14.686-6.032-21.654-2.216-21.654-2.216
		s3.606,8.65,16.787,14.065S465.602,173.92,465.602,173.92z"/>
	<path fill="#071C24" d="M460.051,167.197c0,0-2.091-2.903-11.345-6.705c-9.253-3.801-12.903-3.197-12.903-3.197
		s3.065,3.518,11.369,6.929C455.48,167.638,460.051,167.197,460.051,167.197z"/>
	<g>
		<circle fill="#07251B" cx="462.177" cy="148.709" r="2.032"/>
		<circle fill="#024E35" cx="462.64" cy="148.899" r="2.033"/>
		<circle fill="#FED500" cx="462.64" cy="148.899" r="1.427"/>
		
			<ellipse transform="matrix(-0.9248 -0.3803 0.3803 -0.9248 833.4615 463.1981)" fill="#FFEF9E" cx="462.494" cy="149.254" rx="0.999" ry="0.847"/>
		<path fill="#FFF9E1" d="M461.849,149.51c0.043-0.107,0.287-0.11,0.541-0.004c0.258,0.104,0.427,0.276,0.382,0.384
			c-0.042,0.108-0.286,0.111-0.543,0.005C461.975,149.79,461.803,149.618,461.849,149.51z"/>
		
			<ellipse transform="matrix(-0.925 -0.38 0.38 -0.925 835.0276 460.8732)" fill="#C8842A" cx="462.998" cy="148.027" rx="0.745" ry="0.355"/>
	</g>
	<g>
		<circle fill="#07251B" cx="449.578" cy="143.534" r="2.032"/>
		<circle fill="#024E35" cx="450.04" cy="143.723" r="2.032"/>
		<circle fill="#FED500" cx="450.04" cy="143.724" r="1.427"/>
		
			<ellipse transform="matrix(-0.9251 -0.3797 0.3797 -0.9251 811.4017 448.1749)" fill="#FFEF9E" cx="449.894" cy="144.078" rx="1.001" ry="0.847"/>
		<path fill="#FFF9E1" d="M449.25,144.334c0.041-0.107,0.286-0.11,0.542-0.004c0.256,0.105,0.426,0.276,0.381,0.384
			c-0.044,0.107-0.285,0.11-0.542,0.005C449.375,144.614,449.206,144.441,449.25,144.334z"/>
		
			<ellipse transform="matrix(-0.9253 -0.3792 0.3792 -0.9253 812.9996 445.8138)" fill="#C8842A" cx="450.398" cy="142.852" rx="0.746" ry="0.355"/>
	</g>
	<g>
		<circle fill="#07251B" cx="436.758" cy="140.484" r="2.032"/>
		<circle fill="#024E35" cx="436.424" cy="140.501" r="2.033"/>
		<circle fill="#FED500" cx="436.424" cy="140.502" r="1.426"/>
		
			<ellipse transform="matrix(-0.925 -0.3799 0.3799 -0.925 786.3281 436.9041)" fill="#FFEF9E" cx="436.278" cy="140.856" rx="0.999" ry="0.847"/>
		
			<ellipse transform="matrix(-0.9249 -0.3803 0.3803 -0.9249 785.6821 437.8369)" fill="#FFF9E1" cx="436.094" cy="141.302" rx="0.499" ry="0.211"/>
		
			<ellipse transform="matrix(-0.925 -0.3799 0.3799 -0.925 787.7717 434.7272)" fill="#C8842A" cx="436.783" cy="139.629" rx="0.745" ry="0.354"/>
	</g>
	<g>
		<circle fill="#07251B" cx="423.483" cy="140.612" r="1.791"/>
		<circle fill="#024E35" cx="423.188" cy="140.627" r="1.79"/>
		<circle fill="#FED500" cx="423.188" cy="140.627" r="1.257"/>
		
			<ellipse transform="matrix(-0.9249 -0.3803 0.3803 -0.9249 760.7266 432.1873)" fill="#FFEF9E" cx="423.06" cy="140.941" rx="0.88" ry="0.746"/>
		
			<ellipse transform="matrix(-0.925 -0.38 0.38 -0.925 760.3766 432.7554)" fill="#FFF9E1" cx="422.898" cy="141.333" rx="0.441" ry="0.186"/>
		
			<ellipse transform="matrix(-0.925 -0.38 0.38 -0.925 762.0862 430.1661)" fill="#C8842A" cx="423.504" cy="139.859" rx="0.657" ry="0.312"/>
	</g>
	<g>
		<circle fill="#07251B" cx="413.679" cy="144.267" r="1.322"/>
		<circle fill="#024E35" cx="413.462" cy="144.278" r="1.322"/>
		<circle fill="#FED500" cx="413.463" cy="144.278" r="0.928"/>
		
			<ellipse transform="matrix(-0.9253 -0.3793 0.3793 -0.9253 741.022 435.0217)" fill="#FFEF9E" cx="413.367" cy="144.509" rx="0.651" ry="0.551"/>
		
			<ellipse transform="matrix(-0.9252 -0.3794 0.3794 -0.9252 740.6646 435.5548)" fill="#FFF9E1" cx="413.248" cy="144.799" rx="0.326" ry="0.138"/>
		
			<ellipse transform="matrix(-0.925 -0.38 0.38 -0.925 741.7569 433.8326)" fill="#C8842A" cx="413.694" cy="143.711" rx="0.485" ry="0.23"/>
	</g>
	<g>
		<circle fill="#07251B" cx="472.599" cy="155.362" r="2.032"/>
		<circle fill="#024E35" cx="473.062" cy="155.551" r="2.032"/>
		<circle fill="#FED500" cx="473.062" cy="155.551" r="1.427"/>
		
			<ellipse transform="matrix(-0.9249 -0.3802 0.3802 -0.9249 851.0515 479.8945)" fill="#FFEF9E" cx="472.916" cy="155.906" rx="1" ry="0.848"/>
		
			<ellipse transform="matrix(-0.9249 -0.3803 0.3803 -0.9249 850.4846 480.7409)" fill="#FFF9E1" cx="472.734" cy="156.353" rx="0.499" ry="0.211"/>
		
			<ellipse transform="matrix(-0.9249 -0.3802 0.3802 -0.9249 852.4664 477.7527)" fill="#C8842A" cx="473.42" cy="154.679" rx="0.745" ry="0.354"/>
	</g>
	<g>
		<circle fill="#013D52" cx="443.212" cy="173.953" r="1.017"/>
		<circle fill="#ED2224" cx="443.213" cy="173.953" r="0.714"/>
		
			<ellipse transform="matrix(-0.9247 -0.3807 0.3807 -0.9247 786.638 503.8341)" fill="#F69C9E" cx="443.141" cy="174.13" rx="0.499" ry="0.423"/>
		
			<ellipse transform="matrix(-0.925 -0.38 0.38 -0.925 786.6053 503.9905)" fill="#FFF9E1" cx="443.049" cy="174.354" rx="0.249" ry="0.105"/>
		
			<ellipse transform="matrix(-0.9249 -0.3803 0.3803 -0.9249 787.4733 502.6267)" fill="#C82026" cx="443.392" cy="173.517" rx="0.372" ry="0.176"/>
	</g>
	<g>
		<circle fill="#013D52" cx="437.517" cy="171.044" r="1.017"/>
		<path fill="#ED2224" d="M436.856,170.773c0.149-0.363,0.567-0.537,0.931-0.388c0.365,0.15,0.539,0.566,0.389,0.93
			c-0.148,0.365-0.564,0.539-0.932,0.389C436.882,171.556,436.707,171.138,436.856,170.773z"/>
		<path fill="#F69C9E" d="M436.98,171.033c0.09-0.216,0.368-0.308,0.623-0.202c0.257,0.104,0.392,0.365,0.303,0.581
			c-0.09,0.216-0.368,0.307-0.625,0.202C437.029,171.509,436.891,171.249,436.98,171.033z"/>
		
			<ellipse transform="matrix(-0.9252 -0.3795 0.3795 -0.9252 776.9343 496.0296)" fill="#FFF9E1" cx="437.353" cy="171.445" rx="0.25" ry="0.105"/>
		
			<ellipse transform="matrix(-0.925 -0.3801 0.3801 -0.925 777.7057 494.7651)" fill="#C82026" cx="437.695" cy="170.609" rx="0.373" ry="0.177"/>
	</g>
	<g>
		<circle fill="#013D52" cx="432.228" cy="167.003" r="1.017"/>
		<path fill="#ED2224" d="M431.569,166.733c0.147-0.365,0.567-0.538,0.931-0.389c0.364,0.15,0.539,0.567,0.39,0.931
			c-0.15,0.363-0.567,0.538-0.934,0.388C431.595,167.514,431.417,167.096,431.569,166.733z"/>
		
			<ellipse transform="matrix(-0.9254 -0.3789 0.3789 -0.9254 768.7299 485.6526)" fill="#F69C9E" cx="432.155" cy="167.181" rx="0.501" ry="0.423"/>
		<path fill="#FFF9E1" d="M431.833,167.309c0.021-0.053,0.144-0.054,0.271-0.002c0.13,0.053,0.213,0.139,0.191,0.194
			c-0.022,0.052-0.144,0.053-0.273,0C431.898,167.449,431.812,167.363,431.833,167.309z"/>
		
			<ellipse transform="matrix(-0.9254 -0.3789 0.3789 -0.9254 769.4476 484.5678)" fill="#C82026" cx="432.407" cy="166.567" rx="0.373" ry="0.176"/>
	</g>
	<g>
		<circle fill="#013D52" cx="427.464" cy="161.824" r="1.017"/>
		<path fill="#ED2224" d="M426.804,161.554c0.15-0.364,0.567-0.538,0.931-0.389c0.364,0.149,0.54,0.566,0.39,0.931
			c-0.148,0.364-0.565,0.539-0.932,0.387C426.832,162.335,426.656,161.917,426.804,161.554z"/>
		
			<ellipse transform="matrix(-0.925 -0.38 0.38 -0.925 761.1747 474.2463)" fill="#F69C9E" cx="427.392" cy="162.001" rx="0.5" ry="0.423"/>
		
			<ellipse transform="matrix(-0.9261 -0.3773 0.3773 -0.9261 761.8241 473.669)" fill="#FFF9E1" cx="427.301" cy="162.225" rx="0.25" ry="0.106"/>
		
			<ellipse transform="matrix(-0.9244 -0.3814 0.3814 -0.9244 761.3944 473.6965)" fill="#C82026" cx="427.644" cy="161.388" rx="0.372" ry="0.177"/>
	</g>
	<g>
		<circle fill="#013D52" cx="449.333" cy="175.9" r="1.016"/>
		<circle fill="#ED2224" cx="449.333" cy="175.899" r="0.714"/>
		
			<ellipse transform="matrix(-0.925 -0.38 0.38 -0.925 797.8989 509.6793)" fill="#F69C9E" cx="449.261" cy="176.077" rx="0.5" ry="0.424"/>
		<path fill="#FFF9E1" d="M448.938,176.206c0.023-0.054,0.144-0.055,0.271-0.004c0.131,0.054,0.215,0.139,0.193,0.194
			c-0.022,0.053-0.144,0.054-0.272,0.002C449.003,176.346,448.917,176.258,448.938,176.206z"/>
		
			<ellipse transform="matrix(-0.9252 -0.3794 0.3794 -0.9252 798.8473 508.3529)" fill="#C82026" cx="449.513" cy="175.464" rx="0.373" ry="0.177"/>
	</g>
	<g>
		<circle fill="#013D52" cx="456.381" cy="176.925" r="1.016"/>
		<circle fill="#ED2224" cx="456.381" cy="176.925" r="0.714"/>
		
			<ellipse transform="matrix(-0.9248 -0.3804 0.3804 -0.9248 810.95 514.463)" fill="#F69C9E" cx="456.309" cy="177.102" rx="0.5" ry="0.423"/>
		<path fill="#FFF9E1" d="M455.987,177.23c0.021-0.053,0.145-0.055,0.269-0.002c0.129,0.052,0.215,0.139,0.194,0.193
			c-0.024,0.053-0.144,0.054-0.272,0.001C456.05,177.371,455.965,177.284,455.987,177.23z"/>
		
			<ellipse transform="matrix(-0.925 -0.38 0.38 -0.925 811.8193 513.2151)" fill="#C82026" cx="456.559" cy="176.489" rx="0.373" ry="0.177"/>
	</g>
	<g>
		<circle fill="#013D52" cx="462.768" cy="176.327" r="1.017"/>
		<circle fill="#ED2224" cx="462.77" cy="176.327" r="0.713"/>
		
			<ellipse transform="matrix(-0.9252 -0.3794 0.3794 -0.9252 823.8342 515.3566)" fill="#F69C9E" cx="462.696" cy="176.504" rx="0.499" ry="0.424"/>
		
			<ellipse transform="matrix(-0.9255 -0.3788 0.3788 -0.9255 823.7992 515.5134)" fill="#FFF9E1" cx="462.606" cy="176.727" rx="0.25" ry="0.105"/>
		
			<ellipse transform="matrix(-0.925 -0.38 0.38 -0.925 824.3446 514.4921)" fill="#C82026" cx="462.948" cy="175.891" rx="0.373" ry="0.177"/>
	</g>
	<g>
		<circle fill="#07251B" cx="480.954" cy="164.057" r="1.781"/>
		<circle fill="#024E35" cx="481.557" cy="164.306" r="1.781"/>
		<path fill="#FED500" d="M480.401,163.832c0.263-0.639,0.992-0.943,1.631-0.682c0.638,0.264,0.942,0.993,0.682,1.631
			c-0.263,0.638-0.994,0.942-1.633,0.68C480.445,165.199,480.138,164.469,480.401,163.832z"/>
		
			<ellipse transform="matrix(-0.9252 -0.3796 0.3796 -0.9252 864.3391 499.6565)" fill="#FFEF9E" cx="481.429" cy="164.616" rx="0.877" ry="0.743"/>
		
			<ellipse transform="matrix(-0.9248 -0.3804 0.3804 -0.9248 863.5828 500.6897)" fill="#FFF9E1" cx="481.269" cy="165.007" rx="0.438" ry="0.185"/>
		<path fill="#C8842A" d="M481.267,163.293c0.064-0.158,0.39-0.175,0.72-0.038c0.337,0.138,0.554,0.376,0.488,0.535
			c-0.066,0.159-0.388,0.177-0.724,0.039C481.419,163.691,481.202,163.452,481.267,163.293z"/>
	</g>
	<g>
		<circle fill="#07251B" cx="485.296" cy="173.314" r="1.785"/>
		<circle fill="#024E35" cx="485.701" cy="173.48" r="1.786"/>
		<circle fill="#FED500" cx="485.7" cy="173.48" r="1.253"/>
		
			<ellipse transform="matrix(-0.9248 -0.3804 0.3804 -0.9248 868.5347 519.2256)" fill="#FFEF9E" cx="485.572" cy="173.792" rx="0.878" ry="0.745"/>
		<path fill="#FFF9E1" d="M485.004,174.016c0.04-0.094,0.253-0.096,0.478-0.004c0.227,0.093,0.376,0.244,0.337,0.338
			c-0.042,0.094-0.252,0.098-0.478,0.005C485.116,174.263,484.967,174.111,485.004,174.016z"/>
		<path fill="#C8842A" d="M485.408,172.465c0.068-0.159,0.393-0.175,0.726-0.039c0.336,0.138,0.554,0.377,0.488,0.536
			c-0.066,0.159-0.388,0.178-0.725,0.039C485.563,172.864,485.343,172.623,485.408,172.465z"/>
	</g>
	<path opacity="0.27" fill="#E4F5FD" d="M457.644,184.677c-1.752-1.526,8.703-4.519,12.521-5.945
		c3.818-1.424,9.951-3.182,10.763-1.007c0.812,2.178-1.418,7.116-7.822,8.891C466.746,188.378,461.074,187.662,457.644,184.677z"/>
	<path opacity="0.72" fill="#AAE0F8" d="M448.737,160.505c-17.875-7.342-24.266-0.621-24.266-0.621
		c-5.381,13.099-0.352,27.576,11.238,32.338c3.33,1.367,6.839,1.779,10.278,1.367c0.01-0.025,0.025-0.047,0.04-0.069
		c-0.426-0.206-0.847-0.425-1.253-0.675c-0.379-0.232-2.476-1.387-2.075-1.429c0.245-0.026,2.81,0.602,3.048,0.521
		c0.027-0.019,0.03-0.014,0.05-0.023c-0.08-0.114-0.167-0.221-0.26-0.325c-0.285-0.32-0.563-0.644-0.761-1.027
		c-0.147-0.286-3.015-1.57-2.687-1.583c0.569-0.021,4.233,1.156,4.793,1.058c0.282-0.311,0.566-0.414,0.901-0.491
		c-0.016-0.766-2.518-0.885-2.646-1.252c-0.091-0.262,0.885-3.96,1.143-3.962c1.005-0.006,2.485,0.891,2.819,1.677
		c0.44-0.568,0.757-2.332,1.219-2.286c1.188,0.118,2.094,1.217,2.904,0.466c0.171-0.159,0.422-0.162,0.593,0
		c0.519,0.488,2.161,0.654,1.912,1.363c-0.101,0.289-1.565,1.617-0.532,1.6c0.657-0.012,0.383,0.836,1.031,0.738
		c0.376-0.057,0.634,0.263,0.474,0.616l-0.113,0.248c0.297,0.024,0.574,0.064,0.819,0.154c3.815-2.855,7.01-6.875,9.026-11.785
		C466.433,177.121,466.611,167.848,448.737,160.505z"/>
	
		<ellipse transform="matrix(-0.994 0.1096 -0.1096 -0.994 888.9966 276.0476)" opacity="0.55" fill="#FFFFFF" cx="436.915" cy="162.445" rx="5.794" ry="2.187"/>
	<path opacity="0.55" fill="#FFFFFF" d="M426.691,176.669c0,0-2-3.324-2.17-7.22c-0.201-4.526,1.587-9.208,1.587-9.208
		s1.158-0.776,2.687-1.206c1.529-0.429,2.187-0.118,2.187-0.118s-2.59,2.423-4.047,9.454
		C426.117,172.307,426.691,176.669,426.691,176.669z"/>
</g>
<path fill="none" stroke="#C9EBFC" stroke-width="0.4192" stroke-miterlimit="10" d="M446.509,180.062
	c-0.277,0.167-0.95-0.041-1.207-0.322c-0.147-0.161,0.18-0.359,0.053-0.501c-0.151-0.168-0.483-0.183-0.674-0.3
	c-0.326-0.202-1.109-0.661-0.997-1.167c0.078-0.353,0.619-0.421,0.671-0.99c0.019-0.202,0.06-0.803-0.126-0.99
	c-0.538-0.54-1.573-0.03-2.144-0.511c-0.361-0.304-0.379-1.089-0.829-1.468c-0.351-0.297-1.156-0.45-1.299-0.684"/>
<path fill="none" stroke="#C9EBFC" stroke-width="0.4192" stroke-miterlimit="10" d="M441.938,184.938
	c-0.207-0.062-0.54-0.18-0.762-0.152c-0.515,0.063-0.306,0.067-0.627,0.381c-0.459,0.447-0.661,0.926-1.278,1.199
	c-1.079,0.48-2.214-0.623-3.428-0.209"/>
<path fill="none" stroke="#C9EBFC" stroke-width="0.4192" stroke-miterlimit="10" d="M444.293,175.703
	c0.044-0.498,0.514-0.526,0.655-0.917c0.242-0.679,0.225-0.159-0.154-0.73c-0.487-0.734-1.285-1.182-1.533-2.106
	c0.148,0.014,0.126-0.063,0.193-0.123"/>
<path fill="none" stroke="#C9EBFC" stroke-width="0.4192" stroke-miterlimit="10" d="M452.992,179.79
	c0.544-0.145,1.272-0.027,1.351-0.714c-1.728-0.568-1.758-1.872-2.914-2.721c0.537-0.167,0.774-0.759,1.019-1.281
	c0.349-0.743-0.047-0.789,0.964-0.946c0.505-0.078,0.991,0.039,1.462-0.108c0.441-0.138,0.745-0.532,1.247-0.642
	c0.08-0.608-0.782-1.172-0.822-1.658"/>
<path fill="none" stroke="#C9EBFC" stroke-width="0.4192" stroke-miterlimit="10" d="M441.673,184.506
	c-0.79,0.315-1.333-0.833-1.572-1.362c-0.221-0.489,0.171-0.592-0.31-0.949c-0.39-0.29-1.092,0.057-1.484-0.307
	c0.607-0.617,2.965-1.365,2.529-1.996c-0.417-0.605-2.935-1.261-3.673-1.383c-1.193-0.198-2.41,0.44-3.169-0.577
	c-0.353-0.473-0.726-2.106-1.334-1.81"/>
<g>
	<g>
		<linearGradient id="SVGID_62_" gradientUnits="userSpaceOnUse" x1="59.8018" y1="348.0869" x2="59.8018" y2="308.502">
			<stop  offset="0" style="stop-color:#250E29;stop-opacity:0.26"/>
			<stop  offset="1" style="stop-color:#050406"/>
		</linearGradient>
		<polygon fill="url(#SVGID_62_)" points="123.404,334.96 48.099,334.96 55.944,327.989 30.9,327.989 43.698,348.087 
			-30.783,348.087 -36.143,328.956 -21.285,320.255 64.647,320.255 67.796,317.457 34.853,317.457 46.968,308.502 155.747,308.502 
			150.803,317.457 134.979,317.457 133.129,320.255 154.282,320.255 150.275,327.989 128.014,327.989 		"/>
		<linearGradient id="SVGID_63_" gradientUnits="userSpaceOnUse" x1="256.1494" y1="348.7998" x2="256.1494" y2="307.79">
			<stop  offset="0" style="stop-color:#250E29;stop-opacity:0.26"/>
			<stop  offset="1" style="stop-color:#050406"/>
		</linearGradient>
		<path fill="url(#SVGID_63_)" d="M258.764,348.8c-67.843,0-108.408-5.648-101.403-20.506c7.005-14.856,42.832-20.504,94.878-20.504
			c52.046,0,89.67,5.647,101.401,20.504C365.374,343.151,326.605,348.8,258.764,348.8z M272.301,320.611
			c-0.743-2.646-6.998-3.765-18.622-3.765s-17.523,1.119-17.424,3.765l0.573,15.366c0.099,2.646,7.025,3.766,20.495,3.766
			s20.039-1.119,19.295-3.766L272.301,320.611z"/>
		<linearGradient id="SVGID_64_" gradientUnits="userSpaceOnUse" x1="406.0288" y1="320.1689" x2="406.0288" y2="320.0986">
			<stop  offset="0" style="stop-color:#250E29;stop-opacity:0.26"/>
			<stop  offset="1" style="stop-color:#050406"/>
		</linearGradient>
		<path fill="url(#SVGID_64_)" d="M406.384,320.169l-0.712-0.07C405.902,320.118,406.141,320.143,406.384,320.169z"/>
		<linearGradient id="SVGID_65_" gradientUnits="userSpaceOnUse" x1="494.3179" y1="366.667" x2="494.3179" y2="308.502">
			<stop  offset="0" style="stop-color:#250E29;stop-opacity:0.26"/>
			<stop  offset="1" style="stop-color:#050406"/>
		</linearGradient>
		<path fill="url(#SVGID_65_)" d="M619.532,353.474c1.524,0.709-0.925,1.285-5.471,1.285c-0.448,0-0.899-0.008-1.35-0.019
			c0.233,0.052,0.428,0.107,0.551,0.166c0.543,0.259-0.366,0.47-2.033,0.47c-1.307,0-2.677-0.13-3.472-0.311
			c-0.647,0.113-1.394,0.213-2.226,0.299c2.156,0.291,3.869,0.666,4.71,1.073c0.309,0.149,0.466,0.292,0.513,0.429
			c1.488,0.043,2.938,0.232,3.413,0.461c0.537,0.259-0.396,0.469-2.087,0.469c-0.921,0-1.868-0.063-2.63-0.162
			c-1.367,0.299-3.707,0.483-6.706,0.483c-0.766,0-1.537-0.013-2.304-0.035c-0.235,0.032-0.488,0.062-0.757,0.087
			c1.173,0.227,2.1,0.468,2.775,0.715c0.165,0.014,0.334,0.027,0.497,0.045c2.017,0.215,2.903,0.586,1.969,0.827
			c-0.294,0.076-0.742,0.128-1.271,0.159c-0.073,0.137-0.25,0.269-0.533,0.395c1.057,0.055,2.118,0.135,3.136,0.242
			c0.148,0.016,0.288,0.033,0.432,0.05c0.551-0.126,1.853-0.135,2.958-0.018c1.139,0.12,1.638,0.327,1.114,0.463
			c-0.186,0.048-0.479,0.079-0.826,0.096c0.603,0.149,1.037,0.306,1.283,0.462c0.722,0.047,1.443,0.101,2.153,0.164
			c0.054-0.016,0.08-0.034,0.143-0.05c1.438-0.37,5.136-0.403,8.276-0.073c1.958,0.205,3.237,0.502,3.58,0.785
			c0.201,0.014,0.397,0.028,0.591,0.049c1.155,0.12,1.667,0.327,1.143,0.462c-0.469,0.121-1.609,0.143-2.673,0.06
			c-0.316,0.054-0.683,0.098-1.105,0.131c0.341,0.022,0.682,0.049,1.011,0.083c2.071,0.216,2.984,0.586,2.033,0.827
			c-0.071,0.02-0.17,0.034-0.259,0.051c0.651,0.043,1.299,0.094,1.93,0.159c4.164,0.431,6.004,1.172,4.086,1.655
			c-0.955,0.24-2.658,0.371-4.641,0.391c0.266,0.09,0.292,0.186-0.006,0.26c-0.546,0.135-1.937,0.146-3.106,0.026
			c-1.032-0.106-1.54-0.281-1.261-0.413c-0.695-0.045-1.388-0.098-2.057-0.167c-1.834-0.19-3.166-0.44-3.959-0.702
			c-0.723,0.043-1.493,0.074-2.297,0.094c0.666,0.117,0.885,0.268,0.455,0.373c-0.551,0.135-1.938,0.146-3.092,0.027
			c-0.269-0.028-0.493-0.061-0.686-0.096c-0.096,0.039-0.195,0.08-0.346,0.116c-1.515,0.37-5.312,0.403-8.47,0.073
			c-2.093-0.219-3.347-0.542-3.521-0.844c-0.375-0.02-0.753-0.047-1.111-0.084c-1.656-0.174-2.347-0.475-1.544-0.67
			c0.265-0.064,0.666-0.107,1.134-0.133c-1.879-0.405-2.924-0.854-2.98-1.276c-0.704,0.132-1.643,0.224-2.718,0.278
			c0.163,0.104,0.106,0.207-0.236,0.291c-0.802,0.195-2.785,0.213-4.426,0.039c-0.972-0.104-1.591-0.25-1.778-0.394
			c-0.824-0.052-1.641-0.118-2.43-0.202c-4.446-0.476-6.26-1.293-4.084-1.826c0.001-0.001,0.004-0.001,0.004-0.001
			c-0.558-0.024-1.119-0.063-1.655-0.122c-1.999-0.215-2.821-0.586-1.842-0.827c0.329-0.081,0.826-0.136,1.407-0.167
			c-3.366-0.747-4.201-1.634-1.653-2.277c0.198-0.051,0.418-0.098,0.648-0.143c-1.891-0.328-2.526-0.756-1.356-1.057
			c0.712-0.183,1.953-0.282,3.388-0.297c-1.543-0.223-2.682-0.484-3.354-0.754c-1.141-0.077-2.129-0.235-2.474-0.42
			c-0.081-0.043-0.107-0.084-0.111-0.123c-2.607-0.231-4.757-0.621-5.575-1.062c-1.313-0.709,1.263-1.284,5.757-1.284
			c0.189,0,0.382,0.003,0.571,0.005c-0.195-0.153-0.284-0.301-0.318-0.445c-1.372-0.138-2.636-0.306-3.733-0.496
			c-0.369,0.045-0.853,0.072-1.429,0.072c-1.635,0-3.351-0.21-3.832-0.469c-0.472-0.253,0.4-0.457,1.945-0.469
			c-0.073-0.033-0.156-0.066-0.219-0.1c-0.438-0.233-0.575-0.455-0.471-0.66c-1.389-0.034-2.767-0.088-4.125-0.162
			c-0.626,0.064-1.391,0.105-2.301,0.105c-2.894,0-5.924-0.376-6.768-0.84c-0.067-0.037-0.093-0.072-0.13-0.109
			c-1.947-0.264-3.694-0.566-5.141-0.9c-1.121,0.076-2.399,0.121-3.824,0.121c-0.048,0-0.097-0.002-0.146-0.002
			c0.063,0.05,0.106,0.102,0.123,0.157c0.091,0.313-3.273,1.396,2.009,1.539c-4.547,0.073-5.202-0.519-6.509-1.036
			c-1.105-0.438-1.66-0.859-5.336-0.908c-6.893-0.092-4.428,1.529,1.739,1.677c-6.223,0.255-5.18-0.56-7.155-0.851
			c-2.005-0.295-3.989-0.693-4.515-1.091c-0.429-0.323,2.668-1.37-1.603-1.46c0.142,0.455-2.273,0.746-4.971,0.787
			c5.658-0.959-4.772-2.167-10.46-2.848c-1.15-0.138-2.19-0.305-3.084-0.486c-6.198,0.271-12.39,0.404-18.238,0.4l0,0
			c0,0,0,0-0.001,0c-0.837-0.001-1.663-0.004-2.484-0.011c-0.027,0-0.055,0-0.084-0.001c-1.203-0.009-2.39-0.023-3.553-0.044
			l13.723,4.075h-74.484l-54.229-19.131l-7.37-8.701h50.298l-0.101-0.01c0.034,0.003,0.07,0.008,0.103,0.01h1.072
			c-0.25-0.031-0.496-0.06-0.737-0.086l0.871,0.086h34.428l-3.999-2.798h-32.942l-10.762-8.955h108.777l17.933,8.955h-15.824
			l5.297,2.798h19.786l0.537-0.068c-0.136,0.027-0.287,0.049-0.453,0.068h1.283l15.752,7.734h-22.263l5.816,3.072l2.182,1.152
			c-1.236,0.522-1.617,1.14-1.331,1.786c0.019,0.041,0.056,0.089,0.091,0.136c0.165,0.019,0.328,0.038,0.49,0.058
			c0.11,0.013,0.227,0.026,0.336,0.039c0.419,0.052,0.825,0.104,1.223,0.159c0.102,0.014,0.2,0.029,0.3,0.043
			c0.295,0.042,0.588,0.085,0.87,0.129c0.132,0.02,0.262,0.041,0.393,0.062c0.244,0.039,0.486,0.08,0.722,0.121
			c0.127,0.021,0.257,0.045,0.38,0.066c0.241,0.045,0.472,0.089,0.698,0.134c0.104,0.021,0.212,0.041,0.312,0.062
			c0.321,0.066,0.635,0.135,0.927,0.203c0.296,0.07,0.566,0.14,0.829,0.211c0.086,0.023,0.164,0.047,0.246,0.07
			c0.171,0.049,0.337,0.098,0.491,0.146c0.086,0.027,0.167,0.054,0.246,0.08c0.145,0.049,0.281,0.098,0.41,0.146
			c0.068,0.025,0.14,0.052,0.205,0.078c0.146,0.059,0.279,0.117,0.407,0.178c0.033,0.016,0.072,0.031,0.104,0.047
			c0.063,0.031,0.12,0.064,0.177,0.096c0.054,0.011,0.113,0.021,0.16,0.032c0.535,0.126,0.665,0.261,0.431,0.363
			c0.019,0.017,0.029,0.034,0.047,0.052c0.054,0.053,0.101,0.105,0.141,0.159c0.02,0.026,0.042,0.054,0.059,0.081
			c0.035,0.059,0.062,0.119,0.079,0.178c0.007,0.021,0.019,0.041,0.022,0.061c0.017,0.08,0.021,0.161,0.007,0.242
			c-0.001,0.012-0.007,0.023-0.012,0.034c-0.014,0.069-0.04,0.139-0.079,0.208c-0.013,0.025-0.031,0.05-0.046,0.075
			c-0.038,0.058-0.083,0.114-0.136,0.172c-0.025,0.026-0.051,0.054-0.078,0.081c-0.062,0.059-0.132,0.117-0.21,0.176
			c-0.03,0.023-0.058,0.047-0.091,0.07c-0.116,0.082-0.242,0.164-0.389,0.246l-0.002-0.001c-1.717,0.952-5.47,1.901-10.965,2.743
			c1.116,0.15,2.007,0.353,2.409,0.576c0.638,0.035,1.21,0.08,1.675,0.135c-0.256-0.011-0.601-0.015-0.981-0.014
			c1.095,0.111,2.136,0.244,3.088,0.393c0.851-0.012,1.693-0.011,2.477,0.029c1.297,0.064,3.612,0.133,4.728,0.277
			c0.674,0.087,0.841,0.154,0.94,0.225c0.191-0.003,0.384-0.006,0.585-0.006c3.457,0,7.099,0.381,9.063,0.904
			c0.538-0.009,1.087-0.015,1.656-0.015c7.431,0,15.257,0.714,20.428,1.75c0.613-0.074,1.398-0.12,2.347-0.12
			c2.818,0,5.877,0.377,6.823,0.84c0.254,0.124,0.318,0.24,0.239,0.346c0.005,0,0.009,0,0.014,0c6.264,0,13.091,0.83,15.245,1.853
			c0.381,0.181,0.581,0.355,0.628,0.521c1.284,0.124,2.371,0.32,2.838,0.541c0.795,0.376-0.463,0.68-2.807,0.68
			c-1.006,0-2.037-0.058-2.959-0.151c-1.135,0.136-2.554,0.226-4.223,0.253c4.078,0.283,7.867,0.74,10.783,1.301
			c0.509-0.058,1.155-0.093,1.933-0.093c2.362,0,4.924,0.304,5.723,0.679c0.171,0.08,0.229,0.156,0.222,0.229
			C616.015,352.591,618.517,353.002,619.532,353.474z M580.048,349.048c-0.04,0.009-0.069,0.02-0.109,0.029
			c0.123,0.01,0.248,0.021,0.369,0.031C580.219,349.089,580.134,349.067,580.048,349.048z M593.63,361.358
			c-0.016-0.014-0.025-0.027-0.038-0.041c-0.06,0.001-0.123,0-0.183,0.001C593.482,361.331,593.559,361.345,593.63,361.358z
			 M584.769,356.715c-0.054-0.001-0.108-0.003-0.164-0.005c0.068,0.015,0.122,0.029,0.183,0.043
			C584.784,356.741,584.774,356.728,584.769,356.715z M595.887,362.095c-0.011-0.002-0.022-0.004-0.035-0.006
			c0.005,0.004,0.013,0.008,0.016,0.012C595.875,362.099,595.881,362.097,595.887,362.095z M456.574,337.384
			c0.979-0.24,2.078-0.477,3.283-0.709c0.044-0.008,0.086-0.016,0.129-0.023c0.327-0.062,0.661-0.125,1.003-0.187
			c0.039-0.007,0.077-0.015,0.117-0.021c0.581-0.105,1.185-0.209,1.812-0.311c-0.198-0.408-0.12-0.803,0.231-1.174h-0.45
			l-8.692-6.082l-1.271-0.889h-25.042L456.574,337.384z M486.883,333.237c-0.626,0.031-1.214,0.055-1.227,0.09
			c-0.012,0.023,0.465,0.193,1.019,0.373c0.635-0.039,1.271-0.076,1.908-0.11C488.252,333.442,487.615,333.315,486.883,333.237z
			 M541.42,344.698c0.101,0.008,0.198,0.016,0.297,0.023c-0.084-0.018-0.164-0.034-0.244-0.052
			C541.455,344.679,541.439,344.688,541.42,344.698z M586.089,349.935c0.018,0.004,0.031,0.008,0.045,0.011
			c0.021,0,0.046,0.001,0.067,0.001C586.165,349.942,586.128,349.938,586.089,349.935z"/>
	</g>
</g>
<g>
	<g>
		<g>
			<path fill="#1D0F1F" d="M447.424,325.249c-2.552-0.418-10.481,1.795-11.834,4.42c-2.039,3.963,3.784,5.783,7.092,6.637
				c4.622,1.189,7.24,0.949,8.263-3.551c1.118-4.926-0.344-5.871-4.362-7.576"/>
			<path fill="#1D0F1F" d="M497.555,329.843c-2.421-1.514-3.075,2.037-3.312,4.338c2.428,1.871,7.791,0.885,8.556-2.109
				c-1.617-0.807-3.269-1.662-4.82-2.596L497.555,329.843z"/>
			<path fill="#1D0F1F" d="M531.33,339.032c-2.407-1.959-3.286-0.914-3.953,3.658c-0.235,1.627-1.094,2.191-0.063,3.24
				c0.749,0.762,1.745,0.609,3.085,0.896c1.199-1.199,2.754-1.99,3.847-1.986c-0.401-1.775-2.526-3.643-2.667-5.582L531.33,339.032z
				"/>
			<path fill="#1D0F1F" d="M546.905,322.747c-2.552-0.418-10.481,1.795-11.834,4.422c-2.039,3.961,3.783,5.783,7.091,6.635
				c4.622,1.191,7.242,0.951,8.263-3.549c1.12-4.928-0.344-5.871-4.362-7.578"/>
			<path fill="#1D0F1F" d="M517.058,342.103c0.449,1.451,1.929,0.301,2.812-0.51c-0.329-1.594-2.812-3.119-4.145-2.225
				c0.37,0.889,0.737,1.811,1.037,2.727L517.058,342.103z"/>
			<path fill="#1D0F1F" d="M464.102,339.032c-1.417,2.041-0.529,2.68,3.164,2.934c1.312,0.088,1.816,0.74,2.59-0.146
				c0.563-0.646,0.38-1.432,0.528-2.518c-1.031-0.885-1.758-2.078-1.82-2.953c-1.395,0.43-2.755,2.24-4.295,2.473L464.102,339.032z"
				/>
			<path fill="#1D0F1F" d="M485.536,354.065c-0.803,1.156-0.301,1.518,1.794,1.662c0.743,0.051,1.028,0.42,1.468-0.084
				c0.319-0.365,0.216-0.811,0.3-1.426c-0.586-0.502-0.996-1.178-1.032-1.674c-0.79,0.244-1.562,1.27-2.435,1.4L485.536,354.065z"/>
			<path fill="#1D0F1F" d="M476.254,333.138c-0.802,1.158-0.299,1.52,1.794,1.662c0.744,0.051,1.03,0.42,1.469-0.082
				c0.32-0.367,0.215-0.812,0.299-1.428c-0.584-0.502-0.996-1.178-1.031-1.674c-0.79,0.244-1.562,1.27-2.435,1.402L476.254,333.138z
				"/>
		</g>
		<g>
			<g>
				
					<linearGradient id="SVGID_66_" gradientUnits="userSpaceOnUse" x1="476.437" y1="336.8408" x2="476.437" y2="325.0957" gradientTransform="matrix(0.9965 0.0833 -0.0833 0.9965 -3.9658 -41.2534)">
					<stop  offset="0" style="stop-color:#250E29"/>
					<stop  offset="0.3185" style="stop-color:#2E1534"/>
					<stop  offset="0.9852" style="stop-color:#431D4E"/>
					<stop  offset="1" style="stop-color:#441D4F"/>
				</linearGradient>
				<path fill="url(#SVGID_66_)" d="M447.424,322.712c-2.552-0.418-10.481,1.795-11.834,4.421c-2.039,3.962,3.784,5.783,7.092,6.636
					c4.622,1.189,7.24,0.949,8.263-3.551c1.118-4.926-0.344-5.87-4.362-7.576"/>
				
					<linearGradient id="SVGID_67_" gradientUnits="userSpaceOnUse" x1="531.728" y1="330.8096" x2="531.728" y2="325.1074" gradientTransform="matrix(0.9965 0.0833 -0.0833 0.9965 -3.9658 -41.2534)">
					<stop  offset="0" style="stop-color:#250E29"/>
					<stop  offset="0.3185" style="stop-color:#2E1534"/>
					<stop  offset="0.9852" style="stop-color:#431D4E"/>
					<stop  offset="1" style="stop-color:#441D4F"/>
				</linearGradient>
				<path fill="url(#SVGID_67_)" d="M497.555,327.306c-2.421-1.514-3.075,2.038-3.312,4.338c2.428,1.872,7.791,0.886,8.556-2.109
					c-1.617-0.807-3.269-1.662-4.82-2.596L497.555,327.306z"/>
				
					<linearGradient id="SVGID_68_" gradientUnits="userSpaceOnUse" x1="1009.9585" y1="259.8125" x2="1009.9585" y2="251.5898" gradientTransform="matrix(0.4178 0.3483 -0.6137 0.7361 265.1276 -199.3357)">
					<stop  offset="0" style="stop-color:#250E29"/>
					<stop  offset="0.3185" style="stop-color:#2E1534"/>
					<stop  offset="0.9852" style="stop-color:#431D4E"/>
					<stop  offset="1" style="stop-color:#441D4F"/>
				</linearGradient>
				<path fill="url(#SVGID_68_)" d="M531.33,336.495c-2.407-1.959-3.286-0.914-3.953,3.658c-0.235,1.627-1.094,2.191-0.063,3.24
					c0.749,0.762,1.745,0.609,3.085,0.896c1.199-1.199,2.754-1.99,3.847-1.986c-0.401-1.774-2.526-3.643-2.667-5.582L531.33,336.495
					z"/>
				
					<linearGradient id="SVGID_69_" gradientUnits="userSpaceOnUse" x1="575.3667" y1="326.0605" x2="575.3667" y2="314.3164" gradientTransform="matrix(0.9965 0.0833 -0.0833 0.9965 -3.9658 -41.2534)">
					<stop  offset="0" style="stop-color:#250E29"/>
					<stop  offset="0.3185" style="stop-color:#2E1534"/>
					<stop  offset="0.9852" style="stop-color:#431D4E"/>
					<stop  offset="1" style="stop-color:#441D4F"/>
				</linearGradient>
				<path fill="url(#SVGID_69_)" d="M546.905,320.211c-2.552-0.419-10.481,1.794-11.834,4.421c-2.039,3.961,3.783,5.783,7.091,6.635
					c4.622,1.191,7.242,0.951,8.263-3.549c1.12-4.927-0.344-5.871-4.362-7.577"/>
				
					<linearGradient id="SVGID_70_" gradientUnits="userSpaceOnUse" x1="228.2666" y1="-365.4067" x2="228.2666" y2="-368.3555" gradientTransform="matrix(-0.7155 -0.7489 0.7254 -0.693 946.9802 254.9087)">
					<stop  offset="0" style="stop-color:#250E29"/>
					<stop  offset="0.3185" style="stop-color:#2E1534"/>
					<stop  offset="0.9852" style="stop-color:#431D4E"/>
					<stop  offset="1" style="stop-color:#441D4F"/>
				</linearGradient>
				<path fill="url(#SVGID_70_)" d="M517.058,339.566c0.449,1.451,1.929,0.301,2.812-0.511c-0.329-1.593-2.812-3.119-4.145-2.225
					c0.37,0.89,0.737,1.811,1.037,2.727L517.058,339.566z"/>
				
					<linearGradient id="SVGID_71_" gradientUnits="userSpaceOnUse" x1="-192.6431" y1="227.8369" x2="-192.6431" y2="221.251" gradientTransform="matrix(0.3155 -0.4431 0.7807 0.5559 352.9711 126.9875)">
					<stop  offset="0" style="stop-color:#250E29"/>
					<stop  offset="0.3185" style="stop-color:#2E1534"/>
					<stop  offset="0.9852" style="stop-color:#431D4E"/>
					<stop  offset="1" style="stop-color:#441D4F"/>
				</linearGradient>
				<path fill="url(#SVGID_71_)" d="M464.102,336.496c-1.417,2.041-0.529,2.679,3.164,2.933c1.312,0.089,1.816,0.74,2.59-0.146
					c0.563-0.646,0.38-1.432,0.528-2.518c-1.031-0.885-1.758-2.078-1.82-2.952c-1.395,0.43-2.755,2.239-4.295,2.472L464.102,336.496
					z"/>
				
					<linearGradient id="SVGID_72_" gradientUnits="userSpaceOnUse" x1="-193.4268" y1="252.2998" x2="-193.4268" y2="248.5664" gradientTransform="matrix(0.3155 -0.4431 0.7807 0.5559 352.9711 126.9875)">
					<stop  offset="0" style="stop-color:#250E29"/>
					<stop  offset="0.3185" style="stop-color:#2E1534"/>
					<stop  offset="0.9852" style="stop-color:#431D4E"/>
					<stop  offset="1" style="stop-color:#441D4F"/>
				</linearGradient>
				<path fill="url(#SVGID_72_)" d="M485.536,351.528c-0.803,1.157-0.301,1.519,1.794,1.662c0.743,0.051,1.028,0.42,1.468-0.083
					c0.319-0.365,0.216-0.811,0.3-1.427c-0.586-0.502-0.996-1.178-1.032-1.674c-0.79,0.244-1.562,1.27-2.435,1.401L485.536,351.528z
					"/>
				
					<linearGradient id="SVGID_73_" gradientUnits="userSpaceOnUse" x1="-171.9844" y1="231.7471" x2="-171.9844" y2="228.0127" gradientTransform="matrix(0.3155 -0.4431 0.7807 0.5559 352.9711 126.9875)">
					<stop  offset="0" style="stop-color:#250E29"/>
					<stop  offset="0.3185" style="stop-color:#2E1534"/>
					<stop  offset="0.9852" style="stop-color:#431D4E"/>
					<stop  offset="1" style="stop-color:#441D4F"/>
				</linearGradient>
				<path fill="url(#SVGID_73_)" d="M476.254,330.601c-0.802,1.158-0.299,1.52,1.794,1.663c0.744,0.05,1.03,0.419,1.469-0.083
					c0.32-0.366,0.215-0.812,0.299-1.428c-0.584-0.501-0.996-1.178-1.031-1.673c-0.79,0.243-1.562,1.27-2.435,1.401L476.254,330.601
					z"/>
			</g>
		</g>
	</g>
	<g>
		<g>
			<path fill="#1D0F1F" d="M518.889,324.144c-0.447,1.099,1.672,4.644,4.281,5.333c3.936,1.039,5.822-1.434,6.713-2.848
				c1.243-1.973,1.034-3.125-3.451-3.74c-4.91-0.674-5.871-0.07-7.622,1.62"/>
			<path fill="#1D0F1F" d="M424.966,344.082c0.933,1.582,1.505-1.938,1.793-4.223c-0.906-1.94-3.322-1.121-3.898,1.84
				c0.64,0.854,1.29,1.758,1.892,2.735L424.966,344.082z"/>
			<path fill="#1D0F1F" d="M413.662,323.811c-2.736,1.287-1.646,1.731,3.673,2.016c1.892,0.104,2.415,0.544,3.837-0.011
				c1.033-0.401,1.022-0.922,1.593-1.626c-1.221-0.612-1.896-1.415-1.702-1.987c-2.177,0.235-4.76,1.374-7.088,1.475
				L413.662,323.811z"/>
			<path fill="#1D0F1F" d="M390.412,332.002c-1.018,0.609-1.456,4.717,0.214,6.836c2.519,3.196,5.517,2.354,7.076,1.76
				c2.179-0.828,2.706-1.875-0.509-5.063c-3.519-3.491-4.649-3.585-7.065-3.288"/>
			<path fill="#1D0F1F" d="M461.119,352.982c-1.051-0.604-1.451-0.472-1.787,0.389c-0.12,0.307-0.507,0.344-0.059,0.646
				c0.325,0.22,0.769,0.276,1.362,0.451c0.542-0.136,1.241-0.159,1.727-0.062c-0.163-0.393-1.09-0.953-1.135-1.356L461.119,352.982z
				"/>
		</g>
		<g>
			<g>
				
					<linearGradient id="SVGID_74_" gradientUnits="userSpaceOnUse" x1="56.1133" y1="-39.8843" x2="56.1133" y2="-51.5942" gradientTransform="matrix(0.1174 -0.9931 0.9931 0.1174 563.3433 385.6031)">
					<stop  offset="0" style="stop-color:#250E29"/>
					<stop  offset="0.3185" style="stop-color:#2E1534"/>
					<stop  offset="0.9852" style="stop-color:#431D4E"/>
					<stop  offset="1" style="stop-color:#441D4F"/>
				</linearGradient>
				<path fill="url(#SVGID_74_)" d="M518.889,322.467c-0.447,1.099,1.672,4.644,4.281,5.333c3.936,1.039,5.822-1.434,6.713-2.848
					c1.243-1.973,1.034-3.125-3.451-3.74c-4.91-0.674-5.871-0.07-7.622,1.62"/>
				
					<linearGradient id="SVGID_75_" gradientUnits="userSpaceOnUse" x1="532.2417" y1="-515.123" x2="532.2417" y2="-520.7866" gradientTransform="matrix(-0.9871 -0.1602 0.1602 -0.9871 1033.0522 -86.1293)">
					<stop  offset="0" style="stop-color:#250E29"/>
					<stop  offset="0.3185" style="stop-color:#2E1534"/>
					<stop  offset="0.9852" style="stop-color:#431D4E"/>
					<stop  offset="1" style="stop-color:#441D4F"/>
				</linearGradient>
				<path fill="url(#SVGID_75_)" d="M424.966,342.405c0.933,1.582,1.505-1.938,1.793-4.223c-0.906-1.94-3.322-1.121-3.898,1.84
					c0.64,0.854,1.29,1.758,1.892,2.735L424.966,342.405z"/>
				
					<linearGradient id="SVGID_76_" gradientUnits="userSpaceOnUse" x1="282.4126" y1="205.0977" x2="282.4126" y2="197.9297" gradientTransform="matrix(0.5814 -0.507 0.6299 0.7224 126.4159 320.5621)">
					<stop  offset="0" style="stop-color:#250E29"/>
					<stop  offset="0.3185" style="stop-color:#2E1534"/>
					<stop  offset="0.9852" style="stop-color:#431D4E"/>
					<stop  offset="1" style="stop-color:#441D4F"/>
				</linearGradient>
				<path fill="url(#SVGID_76_)" d="M413.662,322.134c-2.736,1.287-1.646,1.731,3.673,2.016c1.892,0.104,2.415,0.544,3.837-0.011
					c1.033-0.401,1.022-0.922,1.593-1.626c-1.221-0.612-1.896-1.415-1.702-1.987c-2.177,0.235-4.76,1.374-7.088,1.475
					L413.662,322.134z"/>
				
					<linearGradient id="SVGID_77_" gradientUnits="userSpaceOnUse" x1="322.2271" y1="186.9355" x2="322.2271" y2="175.2266" gradientTransform="matrix(0.6909 -0.723 0.723 0.6909 40.1261 443.196)">
					<stop  offset="0" style="stop-color:#250E29"/>
					<stop  offset="0.3185" style="stop-color:#2E1534"/>
					<stop  offset="0.9852" style="stop-color:#431D4E"/>
					<stop  offset="1" style="stop-color:#441D4F"/>
				</linearGradient>
				<path fill="url(#SVGID_77_)" d="M390.412,330.325c-1.018,0.609-1.456,4.717,0.214,6.836c2.519,3.196,5.517,2.354,7.076,1.76
					c2.179-0.828,2.706-1.875-0.509-5.063c-3.519-3.491-4.649-3.585-7.065-3.288"/>
				
					<linearGradient id="SVGID_78_" gradientUnits="userSpaceOnUse" x1="1191.856" y1="320.7236" x2="1191.856" y2="318.4951" gradientTransform="matrix(0.3615 0.4065 -0.7162 0.6369 258.656 -335.7644)">
					<stop  offset="0" style="stop-color:#250E29"/>
					<stop  offset="0.3185" style="stop-color:#2E1534"/>
					<stop  offset="0.9852" style="stop-color:#431D4E"/>
					<stop  offset="1" style="stop-color:#441D4F"/>
				</linearGradient>
				<path fill="url(#SVGID_78_)" d="M461.119,351.306c-1.051-0.604-1.451-0.472-1.787,0.389c-0.12,0.307-0.507,0.344-0.059,0.646
					c0.325,0.22,0.769,0.276,1.362,0.451c0.542-0.136,1.241-0.159,1.727-0.062c-0.163-0.393-1.09-0.953-1.135-1.356L461.119,351.306
					z"/>
			</g>
		</g>
	</g>
</g>
</svg>
