<?xml version="1.0" encoding="utf-8"?>
<!-- Generator: Adobe Illustrator 16.0.0, SVG Export Plug-In . SVG Version: 6.00 Build 0)  -->
<!DOCTYPE svg PUBLIC "-//W3C//DTD SVG 1.1//EN" "http://www.w3.org/Graphics/SVG/1.1/DTD/svg11.dtd">
<svg version="1.1" id="Layer_1" xmlns="http://www.w3.org/2000/svg" xmlns:xlink="http://www.w3.org/1999/xlink" x="0px" y="0px"
	 width="107.068px" height="70.572px" viewBox="0 0 107.068 70.572" enable-background="new 0 0 107.068 70.572"
	 xml:space="preserve">
<g id="Spaceship_1_">
	
		<ellipse transform="matrix(0.9803 0.1974 -0.1974 0.9803 8.9673 -9.7807)" fill="#059464" cx="53.534" cy="40.081" rx="54.289" ry="29.109"/>
	<path fill="#016242" d="M73.954,15.689c4.549,17.409,7.17,35.458,7.593,53.514c13.614-2.688,23.357-9.221,25.208-18.403
		C109.369,37.814,95.395,23.604,73.954,15.689z"/>
	<path fill="#025036" d="M43.735,9.667C21.095,8.774,2.914,16.455,0.313,29.362c-1.288,6.405,1.456,13.109,7.143,19.21
		C17.175,33.083,29.884,20.39,43.735,9.667z"/>
	
		<ellipse transform="matrix(0.9803 0.1974 -0.1974 0.9803 8.3506 -9.9712)" fill="#29B67D" cx="54.178" cy="36.891" rx="50.097" ry="24.147"/>
	
		<ellipse transform="matrix(0.9803 0.1974 -0.1974 0.9803 7.9153 -10.0344)" fill="#3EB982" cx="54.279" cy="34.677" rx="41.991" ry="20.24"/>
	
		<ellipse transform="matrix(0.9803 0.1974 -0.1974 0.9803 7.6562 -10.1144)" fill="#4BBB87" cx="54.55" cy="33.337" rx="33.865" ry="16.323"/>
	
		<ellipse transform="matrix(0.9803 0.1974 -0.1974 0.9803 7.3899 -10.196)" fill="#68C292" cx="54.827" cy="31.961" rx="30.401" ry="13.251"/>
	
		<ellipse transform="matrix(0.9803 0.1974 -0.1974 0.9803 7.3899 -10.196)" fill="#4BBB87" cx="54.827" cy="31.961" rx="30.401" ry="13.251"/>
	<path opacity="0.25" fill="#024E35" d="M26.173,27.312l0.812,25.875c0,0,11.212,5.348,22.424,7.376
		c12.466,2.254,21.701,1.953,21.701,1.953l12.598-23.616L26.173,27.312z"/>
	<path opacity="0.86" fill="#AAE0F8" d="M83.735,38.859c0,0-6.472,10.114-30.997,5.174c-24.525-4.939-26.576-16.77-26.576-16.77
		C29.781,9.29,45.606-2.684,61.501,0.518C77.402,3.721,87.355,20.886,83.735,38.859z"/>
	<path fill="#2D7188" d="M26.173,27.312c0.164,0.793,2.918,11.96,26.565,16.722c23.646,4.764,30.508-4.467,30.97-5.134
		c-0.168-0.794-9.271-11.812-26.844-15.352C39.29,20.008,26.632,26.645,26.173,27.312z"/>
	<path fill="#013445" d="M28.004,31.127c0,0,4.584,8.847,24.734,12.906c20.151,4.059,28.068-2.504,28.068-2.504
		s-6.709-10.11-24.794-13.753C37.926,24.134,28.004,31.127,28.004,31.127z"/>
	<path fill="#071C24" d="M36.712,38.309c0,0,3.371,3.176,16.067,5.734c12.697,2.557,17.188,0.892,17.188,0.892
		s-4.76-3.718-16.154-6.013C42.414,36.625,36.712,38.309,36.712,38.309z"/>
	<g>
		<circle fill="#07251B" cx="38.554" cy="62.33" r="2.631"/>
		<circle fill="#024E35" cx="37.918" cy="62.203" r="2.631"/>
		<circle fill="#FED500" cx="37.919" cy="62.203" r="1.847"/>
		
			<ellipse transform="matrix(0.9803 0.1974 -0.1974 0.9803 12.9324 -6.2908)" fill="#FFEF9E" cx="38.017" cy="61.716" rx="1.294" ry="1.096"/>
		
			<ellipse transform="matrix(0.9803 0.1977 -0.1977 0.9803 12.834 -6.3348)" fill="#FFF9E1" cx="38.141" cy="61.104" rx="0.647" ry="0.272"/>
		
			<ellipse transform="matrix(0.9803 0.1974 -0.1974 0.9803 13.2551 -6.1897)" fill="#C8842A" cx="37.678" cy="63.399" rx="0.965" ry="0.459"/>
	</g>
	<g>
		<circle fill="#07251B" cx="55.841" cy="65.812" r="2.63"/>
		<circle fill="#024E35" cx="55.207" cy="65.686" r="2.631"/>
		<circle fill="#FED500" cx="55.208" cy="65.685" r="1.847"/>
		
			<ellipse transform="matrix(0.9804 0.1971 -0.1971 0.9804 13.9377 -9.623)" fill="#FFEF9E" cx="55.305" cy="65.198" rx="1.295" ry="1.097"/>
		
			<ellipse transform="matrix(0.9803 0.1973 -0.1973 0.9803 13.8308 -9.6655)" fill="#FFF9E1" cx="55.428" cy="64.586" rx="0.646" ry="0.273"/>
		
			<ellipse transform="matrix(0.9805 0.1967 -0.1967 0.9805 14.2293 -9.5051)" fill="#C8842A" cx="54.965" cy="66.881" rx="0.966" ry="0.459"/>
	</g>
	<g>
		<circle fill="#07251B" cx="72.885" cy="66.537" r="2.631"/>
		<circle fill="#024E35" cx="73.306" cy="66.434" r="2.631"/>
		<circle fill="#FED500" cx="73.306" cy="66.434" r="1.846"/>
		
			<ellipse transform="matrix(0.9803 0.1977 -0.1977 0.9803 14.4876 -13.2109)" fill="#FFEF9E" cx="73.403" cy="65.947" rx="1.294" ry="1.097"/>
		
			<ellipse transform="matrix(0.9802 0.1979 -0.1979 0.9802 14.3807 -13.2564)" fill="#FFF9E1" cx="73.527" cy="65.335" rx="0.647" ry="0.272"/>
		
			<ellipse transform="matrix(0.9803 0.1974 -0.1974 0.9803 14.7865 -13.0909)" fill="#C8842A" cx="73.064" cy="67.631" rx="0.965" ry="0.458"/>
	</g>
	<g>
		<circle fill="#07251B" cx="89.728" cy="63.112" r="2.319"/>
		<circle fill="#024E35" cx="90.099" cy="63.021" r="2.319"/>
		<circle fill="#FED500" cx="90.099" cy="63.021" r="1.628"/>
		
			<ellipse transform="matrix(0.9803 0.1975 -0.1975 0.9803 14.1393 -16.5801)" fill="#FFEF9E" cx="90.186" cy="62.59" rx="1.14" ry="0.968"/>
		
			<ellipse transform="matrix(0.9804 0.1968 -0.1968 0.9804 13.9755 -16.5543)" fill="#FFF9E1" cx="90.294" cy="62.052" rx="0.571" ry="0.24"/>
		
			<ellipse transform="matrix(0.9803 0.1973 -0.1973 0.9803 14.4111 -16.4773)" fill="#C8842A" cx="89.886" cy="64.074" rx="0.851" ry="0.404"/>
	</g>
	<g>
		<circle fill="#07251B" cx="101.291" cy="56.057" r="1.711"/>
		<circle fill="#024E35" cx="101.564" cy="55.99" r="1.712"/>
		<path fill="#FED500" d="M102.741,56.227c-0.132,0.65-0.766,1.07-1.415,0.939c-0.647-0.131-1.069-0.763-0.94-1.414
			c0.131-0.65,0.766-1.07,1.416-0.939C102.45,54.943,102.871,55.576,102.741,56.227z"/>
		
			<ellipse transform="matrix(0.9802 0.1978 -0.1978 0.9802 13.0191 -19.0011)" fill="#FFEF9E" cx="101.628" cy="55.672" rx="0.842" ry="0.713"/>
		
			<ellipse transform="matrix(0.9802 0.1981 -0.1981 0.9802 12.9672 -19.0548)" fill="#FFF9E1" cx="101.708" cy="55.275" rx="0.421" ry="0.178"/>
		
			<ellipse transform="matrix(0.9803 0.1975 -0.1975 0.9803 13.2061 -18.9064)" fill="#C8842A" cx="101.408" cy="56.768" rx="0.628" ry="0.299"/>
	</g>
	<g>
		<circle fill="#07251B" cx="23.67" cy="56.438" r="2.631"/>
		<circle fill="#024E35" cx="23.037" cy="56.309" r="2.631"/>
		<circle fill="#FED500" cx="23.037" cy="56.31" r="1.848"/>
		
			<ellipse transform="matrix(0.9803 0.1973 -0.1973 0.9803 11.4672 -3.467)" fill="#FFEF9E" cx="23.135" cy="55.823" rx="1.294" ry="1.097"/>
		
			<ellipse transform="matrix(0.9804 0.197 -0.197 0.9804 11.3314 -3.4996)" fill="#FFF9E1" cx="23.257" cy="55.21" rx="0.647" ry="0.273"/>
		<path fill="#C8842A" d="M23.742,57.697c-0.051,0.248-0.515,0.363-1.036,0.258c-0.526-0.105-0.906-0.392-0.857-0.639
			c0.051-0.249,0.514-0.365,1.037-0.26C23.408,57.161,23.791,57.449,23.742,57.697z"/>
	</g>
	<g>
		<circle fill="#013D52" cx="56.455" cy="25.582" r="1.315"/>
		<circle fill="#ED2224" cx="56.454" cy="25.582" r="0.924"/>
		<path fill="#F69C9E" d="M57.137,25.467c-0.059,0.297-0.392,0.479-0.741,0.41c-0.351-0.071-0.586-0.368-0.527-0.665
			c0.062-0.296,0.394-0.481,0.743-0.411C56.96,24.872,57.198,25.17,57.137,25.467z"/>
		
			<ellipse transform="matrix(0.9803 0.1974 -0.1974 0.9803 6.0554 -10.6745)" fill="#FFF9E1" cx="56.564" cy="25.033" rx="0.323" ry="0.136"/>
		
			<ellipse transform="matrix(0.9803 0.1977 -0.1977 0.9803 6.2868 -10.6191)" fill="#C82026" cx="56.333" cy="26.18" rx="0.482" ry="0.23"/>
	</g>
	<g>
		<circle fill="#013D52" cx="64.41" cy="27.879" r="1.316"/>
		<path fill="#ED2224" d="M65.315,28.061c-0.101,0.5-0.588,0.823-1.088,0.723c-0.5-0.102-0.823-0.588-0.723-1.087
			c0.101-0.5,0.587-0.823,1.089-0.723C65.091,27.074,65.417,27.561,65.315,28.061z"/>
		
			<ellipse transform="matrix(0.9803 0.1973 -0.1973 0.9803 6.7216 -12.1776)" fill="#F69C9E" cx="64.459" cy="27.635" rx="0.647" ry="0.547"/>
		
			<ellipse transform="matrix(0.9806 0.196 -0.196 0.9806 6.6068 -12.1142)" fill="#FFF9E1" cx="64.521" cy="27.329" rx="0.323" ry="0.137"/>
		
			<ellipse transform="matrix(0.9802 0.1978 -0.1978 0.9802 6.9017 -12.152)" fill="#C82026" cx="64.29" cy="28.477" rx="0.483" ry="0.229"/>
	</g>
	<g>
		<path fill="#013D52" d="M73.416,31.976c-0.144,0.712-0.837,1.173-1.552,1.03c-0.713-0.144-1.172-0.838-1.028-1.55
			c0.142-0.712,0.837-1.174,1.549-1.029C73.098,30.569,73.558,31.264,73.416,31.976z"/>
		<path fill="#ED2224" d="M73.03,31.898c-0.099,0.499-0.589,0.823-1.087,0.722c-0.501-0.101-0.826-0.588-0.726-1.087
			c0.104-0.499,0.59-0.823,1.091-0.722C72.806,30.912,73.132,31.399,73.03,31.898z"/>
		
			<ellipse transform="matrix(0.9803 0.1976 -0.1976 0.9803 7.6406 -13.6389)" fill="#F69C9E" cx="72.175" cy="31.473" rx="0.648" ry="0.547"/>
		<path fill="#FFF9E1" d="M72.553,31.23c-0.016,0.073-0.17,0.105-0.344,0.07c-0.178-0.036-0.306-0.124-0.292-0.198
			c0.017-0.073,0.17-0.104,0.348-0.069C72.437,31.068,72.566,31.157,72.553,31.23z"/>
		
			<ellipse transform="matrix(0.9805 0.1966 -0.1966 0.9805 7.7584 -13.5256)" fill="#C82026" cx="72.005" cy="32.315" rx="0.483" ry="0.229"/>
	</g>
	<g>
		<circle fill="#013D52" cx="79.454" cy="37.128" r="1.317"/>
		<circle fill="#ED2224" cx="79.453" cy="37.128" r="0.923"/>
		
			<ellipse transform="matrix(0.9803 0.1977 -0.1977 0.9803 8.8619 -14.9903)" fill="#F69C9E" cx="79.501" cy="36.885" rx="0.647" ry="0.548"/>
		
			<ellipse transform="matrix(0.9803 0.1976 -0.1976 0.9803 8.7949 -14.9979)" fill="#FFF9E1" cx="79.562" cy="36.579" rx="0.324" ry="0.137"/>
		
			<ellipse transform="matrix(0.9801 0.1985 -0.1985 0.9801 9.0648 -14.9933)" fill="#C82026" cx="79.332" cy="37.727" rx="0.482" ry="0.229"/>
	</g>
	<g>
		<circle fill="#013D52" cx="48.196" cy="24.613" r="1.316"/>
		<circle fill="#ED2224" cx="48.195" cy="24.613" r="0.924"/>
		
			<ellipse transform="matrix(0.9804 0.1972 -0.1972 0.9804 5.7531 -9.0354)" fill="#F69C9E" cx="48.244" cy="24.369" rx="0.647" ry="0.548"/>
		
			<ellipse transform="matrix(0.9803 0.1973 -0.1973 0.9803 5.6963 -9.0565)" fill="#FFF9E1" cx="48.305" cy="24.063" rx="0.324" ry="0.138"/>
		
			<ellipse transform="matrix(0.9803 0.1975 -0.1975 0.9803 5.9255 -8.9974)" fill="#C82026" cx="48.075" cy="25.211" rx="0.482" ry="0.229"/>
	</g>
	<g>
		<circle fill="#013D52" cx="38.986" cy="25.042" r="1.315"/>
		<circle fill="#ED2224" cx="38.986" cy="25.042" r="0.924"/>
		
			<ellipse transform="matrix(0.9803 0.1973 -0.1973 0.9803 5.6617 -7.2158)" fill="#F69C9E" cx="39.035" cy="24.799" rx="0.647" ry="0.548"/>
		
			<ellipse transform="matrix(0.9802 0.198 -0.198 0.9802 5.6233 -7.2559)" fill="#FFF9E1" cx="39.095" cy="24.492" rx="0.324" ry="0.136"/>
		
			<ellipse transform="matrix(0.9802 0.1978 -0.1978 0.9802 5.8384 -7.18)" fill="#C82026" cx="38.866" cy="25.64" rx="0.483" ry="0.229"/>
	</g>
	<g>
		<circle fill="#013D52" cx="31.014" cy="27.372" r="1.316"/>
		<circle fill="#ED2224" cx="31.013" cy="27.372" r="0.923"/>
		
			<ellipse transform="matrix(0.9804 0.1971 -0.1971 0.9804 5.9574 -5.5911)" fill="#F69C9E" cx="31.062" cy="27.128" rx="0.646" ry="0.549"/>
		<path fill="#FFF9E1" d="M31.439,26.887c-0.014,0.073-0.167,0.105-0.341,0.07c-0.178-0.035-0.307-0.124-0.293-0.198
			c0.015-0.074,0.17-0.105,0.346-0.07C31.325,26.724,31.455,26.813,31.439,26.887z"/>
		
			<ellipse transform="matrix(0.9801 0.1985 -0.1985 0.9801 6.1652 -5.5744)" fill="#C82026" cx="30.893" cy="27.97" rx="0.482" ry="0.229"/>
	</g>
	<g>
		<circle fill="#07251B" cx="10.916" cy="47.438" r="2.306"/>
		<circle fill="#024E35" cx="10.087" cy="47.27" r="2.306"/>
		<path fill="#FED500" d="M11.673,47.589c-0.177,0.876-1.029,1.442-1.905,1.267C8.892,48.679,8.325,47.826,8.5,46.95
			c0.177-0.875,1.032-1.441,1.908-1.265C11.281,45.861,11.851,46.715,11.673,47.589z"/>
		
			<ellipse transform="matrix(0.9803 0.1976 -0.1976 0.9803 9.4571 -1.0866)" fill="#FFEF9E" cx="10.173" cy="46.843" rx="1.134" ry="0.961"/>
		
			<ellipse transform="matrix(0.9803 0.1973 -0.1973 0.9803 9.3373 -1.1182)" fill="#FFF9E1" cx="10.281" cy="46.307" rx="0.567" ry="0.239"/>
		
			<ellipse transform="matrix(0.9802 0.198 -0.198 0.9802 9.7628 -0.9988)" fill="#C8842A" cx="9.876" cy="48.319" rx="0.846" ry="0.4"/>
	</g>
	<g>
		<path fill="#07251B" d="M5.387,37.196c-0.251,1.251-1.469,2.062-2.721,1.81c-1.253-0.254-2.062-1.472-1.812-2.724
			c0.254-1.25,1.472-2.061,2.724-1.809C4.829,34.725,5.64,35.943,5.387,37.196z"/>
		<path fill="#024E35" d="M4.831,37.083c-0.252,1.251-1.471,2.062-2.721,1.81c-1.255-0.252-2.063-1.471-1.812-2.722
			c0.252-1.251,1.472-2.062,2.723-1.811C4.274,34.613,5.084,35.833,4.831,37.083z"/>
		<circle fill="#FED500" cx="2.565" cy="36.627" r="1.623"/>
		
			<ellipse transform="matrix(0.9803 0.1976 -0.1976 0.9803 7.2053 0.1898)" fill="#FFEF9E" cx="2.651" cy="36.199" rx="1.137" ry="0.964"/>
		
			<ellipse transform="matrix(0.9803 0.1973 -0.1973 0.9803 7.0892 0.1565)" fill="#FFF9E1" cx="2.759" cy="35.662" rx="0.569" ry="0.24"/>
		
			<ellipse transform="matrix(0.9804 0.1972 -0.1972 0.9804 7.4772 0.2758)" fill="#C8842A" cx="2.354" cy="37.678" rx="0.849" ry="0.402"/>
	</g>
	<path opacity="0.27" fill="#E4F5FD" d="M35.477,15.499c2.602,1.508-9.952,7.882-14.454,10.634
		c-4.504,2.749-11.867,6.491-13.434,3.925c-1.567-2.568,0.054-9.394,7.758-13.224C22.997,13.031,30.382,12.548,35.477,15.499z"/>
	<path fill="#139F49" d="M46.509,14.294c0,0-0.102-5.317,6.48-5.215c6.576,0.102,10.153,4.655,7.613,10.531
		c-2.538,5.876-7.36,3.645-7.743,6.714c-0.379,3.07,1.215,3.319,5.78,5.244c4.562,1.925,4.872,6.15,4.928,9.136
		c0.057,2.986-1.721,4.774-1.721,4.774s-6.264-0.689-11.963-1.87c-5.111-1.058-9.596-3.21-9.596-3.21s-0.326-6.972,1.853-8.518
		c2.179-1.546,5.519-0.563,6.384-1.84c0.867-1.276,0.958-4.125-0.488-4.986C44.82,23.14,46.509,14.294,46.509,14.294z"/>
	<path fill="#54B848" d="M49.206,31.263c0.097-2.107,1.233-3.212-0.39-5.301c0.315,1.186,0.277,3.242-0.292,4.08
		c-0.865,1.277-4.205,0.293-6.384,1.84c-1.316,0.934-1.715,3.841-1.827,6.004C40.863,33.777,42.666,31.567,49.206,31.263z"/>
	<path fill="#54B848" d="M49.399,9.763c-2.938,1.411-2.891,4.531-2.891,4.531s-1.688,8.846,1.527,10.761
		c0.181,0.107,0.338,0.246,0.473,0.407C46.113,22.517,46.113,14.859,49.399,9.763z"/>
	<path fill="#0F8140" d="M63.567,40.704c-0.056-2.985-0.365-7.211-4.928-9.136c-4.565-1.925-6.159-2.174-5.78-5.244
		c0.383-3.069,5.205-0.837,7.743-6.714c1.605-3.712,0.763-6.892-1.727-8.76c2.131,11.043-8.649,11.438-6.859,16.59
		c0.858,5.479,5.227,4.666,6.913,7.424c1.427,2.336,0.583,6.234-0.858,10.01c2.242,0.373,3.775,0.604,3.775,0.604
		S63.624,43.69,63.567,40.704z"/>
	<path fill="#ED2224" d="M46.533,13.892c0,0-0.477-8.546,8.648-9.528c7.271-0.782,9.989,5.309,10.903,7.227
		c1.995,4.181,4.195,3.105,4.861,2.165c0.668-0.939,0.511-1.155,0.511-1.155s0.514,2.373-1.253,3.755
		c-1.681,1.313-3.127,1.659-5.812-0.476c-2.322-1.845-2.979,0.417-2.979,0.417s-5.214-5.092-10.716-5.346
		C46.664,10.765,46.533,13.892,46.533,13.892"/>
	<path fill="#ED2224" d="M71.473,12.681c-0.001-0.055-0.016-0.08-0.016-0.08S71.465,12.641,71.473,12.681z"/>
	<path fill="#B71F25" d="M54.134,11.687c4.054,1.47,7.279,4.61,7.279,4.61s0.657-2.262,2.979-0.417
		c2.685,2.134,4.131,1.789,5.812,0.476c0.996-0.779,1.26-1.862,1.307-2.667C67.949,18.477,60.21,7.416,54.134,11.687z"/>
	<g>
		<g>
			<polygon fill="#FFFFFF" points="72.925,13.904 72.089,13.504 72.259,14.414 71.707,13.673 71.434,14.557 71.286,13.644 
				70.636,14.3 70.93,13.423 70.048,13.702 70.718,13.062 69.808,12.898 70.697,12.643 69.965,12.076 70.872,12.263 70.489,11.42 
				71.204,12.007 71.257,11.083 71.617,11.936 72.095,11.143 72.017,12.065 72.807,11.583 72.31,12.364 73.233,12.305 
				72.431,12.765 73.276,13.142 72.351,13.177 			"/>
			<polygon fill="#DCDBDB" points="73.142,13.559 72.237,13.36 72.611,14.208 71.903,13.611 71.84,14.536 71.489,13.678 
				71.003,14.467 71.091,13.545 70.294,14.018 70.802,13.243 69.877,13.292 70.685,12.84 69.845,12.454 70.769,12.429 
				70.204,11.696 71.034,12.104 70.875,11.193 71.421,11.941 71.703,11.059 71.838,11.975 72.497,11.327 72.192,12.2 73.078,11.931 
				72.402,12.563 73.312,12.737 72.418,12.981 			"/>
			<polygon fill="#FFFFFF" points="72.557,13.425 71.967,13.227 72.156,13.819 71.727,13.371 71.617,13.981 71.447,13.386 
				71.067,13.875 71.19,13.268 70.628,13.525 71.021,13.044 70.401,13.011 70.973,12.769 70.439,12.451 71.058,12.501 
				70.735,11.972 71.259,12.305 71.218,11.687 71.528,12.223 71.778,11.657 71.804,12.277 72.291,11.892 72.022,12.452 
				72.632,12.338 72.135,12.709 72.728,12.891 72.115,12.989 			"/>
			<polygon fill="#DCDBDB" points="72.672,13.177 72.056,13.12 72.372,13.653 71.853,13.314 71.886,13.933 71.583,13.393 
				71.325,13.955 71.308,13.336 70.816,13.715 71.091,13.159 70.479,13.266 70.981,12.9 70.39,12.712 71.002,12.621 70.568,12.179 
				71.152,12.383 70.973,11.791 71.396,12.242 71.513,11.634 71.678,12.231 72.062,11.746 71.931,12.352 72.497,12.101 72.1,12.576 
				72.718,12.619 72.145,12.854 			"/>
			<polygon fill="#FFFFFF" points="71.907,13.28 71.67,13.079 71.647,13.389 71.531,13.101 71.367,13.364 71.399,13.055 
				71.133,13.213 71.302,12.954 70.991,12.968 71.264,12.818 70.981,12.687 71.294,12.68 71.104,12.434 71.382,12.573 71.33,12.266 
				71.512,12.517 71.607,12.223 71.651,12.53 71.873,12.312 71.771,12.606 72.066,12.517 71.84,12.728 72.145,12.787 71.845,12.868 
				72.087,13.063 71.782,12.996 			"/>
			<polygon fill="#F1F0F0" points="72.006,13.186 71.73,13.044 71.779,13.352 71.601,13.098 71.501,13.392 71.46,13.083 
				71.235,13.298 71.343,13.007 71.045,13.092 71.276,12.883 70.972,12.821 71.271,12.743 71.033,12.546 71.334,12.617 
				71.213,12.331 71.448,12.535 71.474,12.226 71.587,12.515 71.755,12.253 71.722,12.562 71.99,12.407 71.816,12.665 
				72.126,12.653 71.853,12.8 72.132,12.934 71.822,12.938 			"/>
		</g>
		<g>
			<polygon fill="#FFFFFF" points="73.06,13.712 72.179,13.427 72.468,14.306 71.821,13.646 71.67,14.558 71.402,13.673 
				70.843,14.411 71.017,13.502 70.181,13.896 70.759,13.172 69.834,13.132 70.682,12.76 69.882,12.295 70.807,12.36 70.312,11.576 
				71.1,12.062 71.029,11.14 71.5,11.937 71.866,11.085 71.913,12.01 72.633,11.427 72.244,12.268 73.151,12.085 72.417,12.649 
				73.305,12.91 72.394,13.067 			"/>
			<polygon fill="#DCDBDB" points="73.229,13.34 72.306,13.265 72.788,14.055 72.006,13.559 72.069,14.482 71.605,13.68 
				71.23,14.526 71.193,13.601 70.468,14.176 70.866,13.34 69.956,13.512 70.697,12.957 69.812,12.687 70.725,12.538 70.067,11.887 
				70.946,12.181 70.664,11.299 71.307,11.967 71.469,11.056 71.726,11.945 72.292,11.214 72.105,12.12 72.947,11.737 
				72.361,12.453 73.285,12.503 72.435,12.866 			"/>
			<polygon fill="#FFFFFF" points="72.629,13.287 72.021,13.17 72.284,13.73 71.801,13.344 71.773,13.963 71.524,13.395 
				71.213,13.931 71.256,13.312 70.732,13.643 71.058,13.115 70.439,13.164 70.972,12.847 70.402,12.603 71.021,12.572 
				70.631,12.089 71.193,12.349 71.072,11.742 71.45,12.233 71.622,11.638 71.729,12.249 72.161,11.802 71.971,12.393 
				72.558,12.199 72.117,12.633 72.729,12.734 72.135,12.913 			"/>
			<polygon fill="#DCDBDB" points="72.712,13.026 72.093,13.051 72.479,13.538 71.918,13.271 72.034,13.879 71.662,13.384 
				71.479,13.977 71.382,13.365 70.945,13.806 71.143,13.218 70.55,13.406 70.998,12.977 70.389,12.869 70.984,12.697 
				70.493,12.316 71.099,12.441 70.843,11.878 71.321,12.27 71.355,11.65 71.599,12.222 71.915,11.689 71.866,12.306 72.396,11.983 
				72.062,12.506 72.681,12.465 72.145,12.776 			"/>
			<polygon fill="#FFFFFF" points="71.967,13.229 71.707,13.062 71.725,13.372 71.57,13.102 71.443,13.385 71.434,13.075 
				71.189,13.267 71.324,12.987 71.019,13.043 71.268,12.857 70.969,12.765 71.278,12.717 71.058,12.498 71.353,12.598 
				71.259,12.302 71.473,12.527 71.528,12.222 71.614,12.521 71.805,12.275 71.742,12.58 72.025,12.451 71.826,12.691 
				72.136,12.709 71.849,12.83 72.115,12.99 71.806,12.963 			"/>
			<polygon fill="#FFFFFF" points="72.053,13.123 71.762,13.02 71.851,13.317 71.639,13.09 71.581,13.395 71.498,13.094 
				71.305,13.337 71.37,13.035 71.086,13.159 71.287,12.92 70.978,12.898 71.266,12.782 71.002,12.619 71.312,12.649 71.152,12.381 
				71.413,12.552 71.397,12.242 71.548,12.514 71.679,12.233 71.687,12.542 71.932,12.353 71.795,12.631 72.1,12.579 71.849,12.761 
				72.144,12.857 71.836,12.901 			"/>
		</g>
	</g>
	<path fill="#FFFFFF" d="M45.607,13.835c0.014,0.468,0.901,0.459,0.901,0.459s0.096-2.397,2.258-3.125
		c2.161-0.728,7.198,1.006,9.237,2.475c2.04,1.469,3.351,3.335,3.351,3.335s0.46,0.136,0.573-0.064c0.115-0.2,0.618-1.33,0.84-1.666
		c0.224-0.335,0.173-1.191,0.044-1.315c-0.128-0.125-3.849-3.713-7.836-5.092c-2.839-0.982-5.338-1.182-6.811-0.505
		c-1.009,0.466-1.524,0.952-1.584,1.296C46.521,9.979,45.595,13.368,45.607,13.835z"/>
	<path fill="#F3F3F3" d="M46.581,9.635c-0.061,0.344-0.986,3.733-0.974,4.201c0.014,0.468,0.901,0.459,0.901,0.459
		s0.055-1.046,0.711-1.968c0.13-1.322,0.362-2.708,0.801-3.912C47.117,8.857,46.637,9.308,46.581,9.635z"/>
	<path fill="#E6E6E5" d="M62.812,13.936c-0.114-0.11-3.063-2.95-6.515-4.552c-0.39,0.965-0.736,1.891-1.002,2.852
		c1.084,0.437,2.052,0.937,2.709,1.409c2.04,1.469,3.351,3.335,3.351,3.335s0.46,0.136,0.573-0.064c0.115-0.2,0.618-1.33,0.84-1.666
		C62.991,14.915,62.94,14.06,62.812,13.936z"/>
	<g>
		<path fill="#FFFFFF" d="M46.881,15.586c0,0,0.962-3.318,4.424-2.793c3.479,0.527,3.875,3.609,3.875,3.609
			s-1.807,2.967-5.271,2.307C48.218,18.386,46.881,15.586,46.881,15.586z"/>
		
			<ellipse transform="matrix(0.9899 0.1415 -0.1415 0.9899 2.7067 -6.9999)" fill="#46C3F1" stroke="#205F76" stroke-width="0.3" stroke-miterlimit="10" cx="50.58" cy="15.535" rx="1.72" ry="2.41"/>
		
			<ellipse transform="matrix(0.9899 0.1419 -0.1419 0.9899 2.7161 -7.0198)" fill="#010101" stroke="#205F76" stroke-width="0.3" stroke-miterlimit="10" cx="50.58" cy="15.535" rx="0.652" ry="0.913"/>
		<path fill="#0F8140" d="M46.881,15.586C46.837,15.704,46.881,15.586,46.881,15.586s1.337,2.8,3.028,3.122
			c2.175,0.414,3.695-0.6,4.525-1.414C51.951,19.235,48.664,18.816,46.881,15.586z"/>
		<path fill="#0F8140" d="M55.128,16.167c-0.165-0.71-0.902-2.933-3.823-3.375c-2.302-0.35-3.481,0.988-4.027,1.932
			C49.979,12.395,52.901,13.292,55.128,16.167z"/>
		
			<ellipse transform="matrix(0.9899 0.1416 -0.1416 0.9899 2.5548 -7.0403)" opacity="0.74" fill="#FFFFFF" cx="50.739" cy="14.428" rx="1.195" ry="0.675"/>
	</g>
	<path fill="#0F8140" d="M42.871,41.491c0,0-0.074-3.038,0.195-4.239c0.271-1.201,1.053-2.412,1.053-2.412s-0.761,2.252-0.532,4.782
		c0.103,1.119,0.492,2.321,0.492,2.321l-1.064-0.43"/>
	<path fill="#139F49" d="M40.346,37.336c-0.122,1.674-0.058,3.062-0.058,3.062s4.484,2.152,9.596,3.21
		c5.699,1.181,11.963,1.87,11.963,1.87s1.777-1.788,1.721-4.774c0-0.019-0.002-0.036-0.003-0.054
		C55.444,41.076,47.464,40.948,40.346,37.336z"/>
	<path opacity="0.27" fill="#AAE0F8" d="M83.735,38.859c0,0-6.472,10.114-30.997,5.174c-24.525-4.939-26.576-16.77-26.576-16.77
		C29.781,9.29,45.606-2.684,61.501,0.518C77.402,3.721,87.355,20.886,83.735,38.859z"/>
	<path opacity="0.55" fill="#FFFFFF" d="M57.194,3.307c0.463,1.494-2.367,3.699-6.326,4.928c-3.956,1.227-7.542,1.011-8.002-0.483
		c-0.466-1.493,2.368-3.7,6.324-4.928C53.147,1.599,56.731,1.813,57.194,3.307z"/>
	<path opacity="0.55" fill="#FFFFFF" d="M76.786,18.069c0,0,3.359,3.733,4.535,8.644c1.366,5.704,0.245,12.094,0.245,12.094
		S80.285,40.078,78.448,41c-1.838,0.922-2.75,0.688-2.75,0.688s2.697-3.717,2.821-13.012C78.59,23.473,76.786,18.069,76.786,18.069z
		"/>
</g>
<g>
</g>
<g>
</g>
<g>
</g>
<g>
</g>
<g>
</g>
<g>
</g>
</svg>
