<?xml version="1.0" encoding="utf-8"?>
<!-- Generator: Adobe Illustrator 16.0.0, SVG Export Plug-In . SVG Version: 6.00 Build 0)  -->
<!DOCTYPE svg PUBLIC "-//W3C//DTD SVG 1.1//EN" "http://www.w3.org/Graphics/SVG/1.1/DTD/svg11.dtd">
<svg version="1.1" id="Layer_1" xmlns="http://www.w3.org/2000/svg" xmlns:xlink="http://www.w3.org/1999/xlink" x="0px" y="0px"
	 width="159.225px" height="30.754px" viewBox="0 0 159.225 30.754" enable-background="new 0 0 159.225 30.754"
	 xml:space="preserve">
<g>
	<g opacity="0.4">
		<rect x="20.503" y="22.502" fill="#4C1211" width="10.252" height="10.252"/>
		<path fill="#4C1211" d="M20.503,2H10.251v10.251H1.728C0.777,12.251,0,13.029,0,13.98v6.793c0,0.951,0.777,1.729,1.728,1.729
			h18.775V2z"/>
		<path fill="#4C1211" d="M39.277,12.251h-8.522v10.25h8.522c0.951,0,1.729-0.777,1.729-1.729V13.98
			C41.006,13.029,40.229,12.251,39.277,12.251z"/>
		<path fill="#4C1211" d="M56.317,5.915H49.12v19.992h7.251c5.838,0,8.743-2.826,8.743-10.077
			C65.114,8.874,62.528,5.915,56.317,5.915z M56.291,22.548h-3.492V9.3h3.492c3.599,0,4.983,1.333,4.983,6.504
			C61.274,21.35,59.755,22.548,56.291,22.548z"/>
		<path fill="#4C1211" d="M68.62,4.528c-1.359,0-2.025,0.587-2.025,1.626c0,1.173,0.666,1.573,2.025,1.573
			c1.387,0,2.027-0.506,2.027-1.573C70.647,5.115,70.007,4.528,68.62,4.528z"/>
		<polygon fill="#4C1211" points="66.889,25.907 70.326,25.907 70.326,9.78 66.889,9.967 		"/>
		<path fill="#4C1211" d="M84.551,9.566l-2.666,0.96c-1.12-0.72-2.586-0.933-3.972-0.933c-4.292,0-5.917,1.946-5.917,4.905
			c0,1.865,0.72,3.039,1.838,3.758l-0.026,0.054c-1.332,0.559-1.972,1.546-1.972,2.611c0,1.066,0.533,1.84,1.252,2.291
			c-0.906,0.748-1.387,1.734-1.387,2.774c0,2.479,1.895,4.238,6.372,4.238c5.118,0,7.117-1.946,7.117-5.038
			c0-2.373-1.359-3.705-5.171-3.973l-3.865-0.266c-0.827-0.053-1.2-0.428-1.2-0.879c0-0.401,0.319-0.748,0.853-0.96
			c0.667,0.132,1.388,0.187,2.106,0.187c4.265,0,5.892-1.732,5.892-4.798c0-0.747-0.107-1.387-0.321-1.92l1.786-1.333L84.551,9.566z
			 M75.567,23.854l3.864,0.293c2.187,0.159,2.692,0.64,2.692,1.546c0,1.146-0.826,1.92-4.132,1.92c-2.397,0-3.384-0.721-3.384-2.053
			C74.608,25,74.954,24.361,75.567,23.854z M77.859,16.896c-1.492,0-2.532-0.479-2.532-2.345c0-1.599,0.693-2.345,2.612-2.345
			c1.838,0,2.612,0.612,2.612,2.345C80.552,16.178,79.938,16.896,77.859,16.896z"/>
		<polygon fill="#4C1211" points="86.896,25.907 90.333,25.907 90.333,9.78 86.896,9.967 		"/>
		<path fill="#4C1211" d="M88.627,4.528c-1.358,0-2.025,0.587-2.025,1.626c0,1.173,0.667,1.573,2.025,1.573
			c1.386,0,2.027-0.506,2.027-1.573C90.654,5.115,90.013,4.528,88.627,4.528z"/>
		<path fill="#4C1211" d="M97.371,5.835l-2.666,0.267L94.093,9.86h-2.107v2.612h2v9.01c0,2.957,1.493,4.691,4.504,4.691
			c0.986,0,1.974-0.187,2.507-0.427l-0.213-2.534c-0.292,0.107-0.88,0.188-1.308,0.188c-1.358,0-2.104-0.586-2.104-1.998v-8.93
			h3.759V9.86h-3.759V5.835z"/>
		<path fill="#4C1211" d="M110.207,9.594c-1.785,0-3.385,0.639-4.531,1.732l-0.666-1.519l-2.399,0.16v19.965h3.439v-3.039
			l-0.055-2.158l0.081-0.027c1.064,1.119,2.479,1.492,3.997,1.492c3.812,0,6.238-2.559,6.238-8.342
			C116.312,11.699,114.152,9.594,110.207,9.594z M109.22,23.295c-1.571,0-2.611-0.721-3.17-1.626v-7.438
			c0.691-0.986,1.838-1.572,3.278-1.572c2.346,0,3.491,1.092,3.491,5.171C112.819,22.281,111.353,23.295,109.22,23.295z"/>
		<path fill="#4C1211" d="M123.711,9.566c-1.998,0-3.785,0.347-5.357,1.039l0.294,2.799c1.466-0.64,2.718-0.905,4.45-0.905
			c2.399,0,3.358,0.799,3.358,2.798v1.2c-0.905-0.295-2.077-0.507-3.332-0.507c-3.731,0-5.757,1.945-5.757,4.958
			c0,3.571,1.973,5.225,4.957,5.225c1.92,0,3.545-0.747,4.532-2l0.08,0.027l0.294,1.706h2.585V15.804
			C129.815,11.486,128.189,9.566,123.711,9.566z M126.456,21.188c0,1.173-1.519,2.239-3.198,2.239c-1.571,0-2.691-0.666-2.691-2.531
			c0-1.627,0.985-2.507,3.171-2.507c1.333,0,2.319,0.267,2.719,0.454V21.188z"/>
		<polygon fill="#4C1211" points="131.59,25.907 135.028,25.907 135.028,9.78 131.59,9.967 		"/>
		<path fill="#4C1211" d="M133.322,4.528c-1.359,0-2.024,0.587-2.024,1.626c0,1.173,0.665,1.573,2.024,1.573
			c1.387,0,2.025-0.506,2.025-1.573C135.348,5.115,134.709,4.528,133.322,4.528z"/>
		<path fill="#4C1211" d="M144.081,9.566c-1.733,0-3.358,0.613-4.559,1.732l-0.534-1.546l-2.425,0.188v15.967h3.386V14.125
			c0.665-0.932,1.999-1.465,3.198-1.465c1.973,0,3.066,0.853,3.066,2.878v10.37h3.385V15.511
			C149.599,11.619,147.467,9.566,144.081,9.566z"/>
		<path fill="#4C1211" d="M159.225,12.473V9.86h-3.758V5.835l-2.666,0.267l-0.613,3.759h-2.105v2.612h1.998v9.01
			c0,2.957,1.494,4.691,4.506,4.691c0.987,0,1.973-0.187,2.506-0.427l-0.214-2.534c-0.292,0.107-0.88,0.188-1.305,0.188
			c-1.359,0-2.106-0.586-2.106-1.998v-8.93H159.225z"/>
		<rect x="20.503" y="23.502" fill="#4C1211" width="10.252" height="10.252"/>
		<path fill="#4C1211" d="M20.503,3H10.251v10.251H1.728C0.777,13.251,0,14.029,0,14.98v6.793c0,0.951,0.777,1.729,1.728,1.729
			h18.775V3z"/>
		<path fill="#4C1211" d="M39.277,13.251h-8.522v10.25h8.522c0.951,0,1.729-0.777,1.729-1.729V14.98
			C41.006,14.029,40.229,13.251,39.277,13.251z"/>
		<path fill="#4C1211" d="M56.317,6.915H49.12v19.992h7.251c5.838,0,8.743-2.826,8.743-10.077
			C65.114,9.874,62.528,6.915,56.317,6.915z M56.291,23.548h-3.492V10.3h3.492c3.599,0,4.983,1.333,4.983,6.505
			C61.274,22.35,59.755,23.548,56.291,23.548z"/>
		<path fill="#4C1211" d="M68.62,5.528c-1.359,0-2.025,0.587-2.025,1.626c0,1.173,0.666,1.573,2.025,1.573
			c1.387,0,2.027-0.506,2.027-1.573C70.647,6.115,70.007,5.528,68.62,5.528z"/>
		<polygon fill="#4C1211" points="66.889,26.907 70.326,26.907 70.326,10.78 66.889,10.967 		"/>
		<path fill="#4C1211" d="M84.551,10.566l-2.666,0.96c-1.12-0.72-2.586-0.933-3.972-0.933c-4.292,0-5.917,1.946-5.917,4.905
			c0,1.865,0.72,3.039,1.838,3.758l-0.026,0.054c-1.332,0.559-1.972,1.546-1.972,2.611c0,1.066,0.533,1.84,1.252,2.291
			c-0.906,0.748-1.387,1.734-1.387,2.774c0,2.479,1.895,4.238,6.372,4.238c5.118,0,7.117-1.946,7.117-5.038
			c0-2.373-1.359-3.705-5.171-3.973l-3.865-0.266c-0.827-0.053-1.2-0.428-1.2-0.879c0-0.401,0.319-0.748,0.853-0.96
			c0.667,0.132,1.388,0.187,2.106,0.187c4.265,0,5.892-1.732,5.892-4.798c0-0.747-0.107-1.387-0.321-1.92l1.786-1.333L84.551,10.566
			z M75.567,24.854l3.864,0.293c2.187,0.159,2.692,0.64,2.692,1.546c0,1.146-0.826,1.92-4.132,1.92
			c-2.397,0-3.384-0.721-3.384-2.053C74.608,26,74.954,25.361,75.567,24.854z M77.859,17.896c-1.492,0-2.532-0.479-2.532-2.345
			c0-1.599,0.693-2.345,2.612-2.345c1.838,0,2.612,0.612,2.612,2.345C80.552,17.178,79.938,17.896,77.859,17.896z"/>
		<polygon fill="#4C1211" points="86.896,26.907 90.333,26.907 90.333,10.78 86.896,10.967 		"/>
		<path fill="#4C1211" d="M88.627,5.528c-1.358,0-2.025,0.587-2.025,1.626c0,1.173,0.667,1.573,2.025,1.573
			c1.386,0,2.027-0.506,2.027-1.573C90.654,6.115,90.013,5.528,88.627,5.528z"/>
		<path fill="#4C1211" d="M97.371,6.835l-2.666,0.267l-0.612,3.759h-2.107v2.612h2v9.01c0,2.957,1.493,4.691,4.504,4.691
			c0.986,0,1.974-0.187,2.507-0.427l-0.213-2.534c-0.292,0.107-0.88,0.188-1.308,0.188c-1.358,0-2.104-0.586-2.104-1.998v-8.93
			h3.759V10.86h-3.759V6.835z"/>
		<path fill="#4C1211" d="M110.207,10.594c-1.785,0-3.385,0.639-4.531,1.732l-0.666-1.519l-2.399,0.16v19.965h3.439v-3.039
			l-0.055-2.158l0.081-0.027c1.064,1.119,2.479,1.492,3.997,1.492c3.812,0,6.238-2.559,6.238-8.342
			C116.312,12.699,114.152,10.594,110.207,10.594z M109.22,24.295c-1.571,0-2.611-0.721-3.17-1.626v-7.438
			c0.691-0.986,1.838-1.572,3.278-1.572c2.346,0,3.491,1.092,3.491,5.171C112.819,23.281,111.353,24.295,109.22,24.295z"/>
		<path fill="#4C1211" d="M123.711,10.566c-1.998,0-3.785,0.347-5.357,1.039l0.294,2.799c1.466-0.64,2.718-0.905,4.45-0.905
			c2.399,0,3.358,0.799,3.358,2.798v1.2c-0.905-0.295-2.077-0.507-3.332-0.507c-3.731,0-5.757,1.945-5.757,4.958
			c0,3.571,1.973,5.225,4.957,5.225c1.92,0,3.545-0.747,4.532-2l0.08,0.027l0.294,1.706h2.585V16.805
			C129.815,12.486,128.189,10.566,123.711,10.566z M126.456,22.188c0,1.173-1.519,2.239-3.198,2.239
			c-1.571,0-2.691-0.666-2.691-2.531c0-1.627,0.985-2.507,3.171-2.507c1.333,0,2.319,0.267,2.719,0.454V22.188z"/>
		<polygon fill="#4C1211" points="131.59,26.907 135.028,26.907 135.028,10.78 131.59,10.967 		"/>
		<path fill="#4C1211" d="M133.322,5.528c-1.359,0-2.024,0.587-2.024,1.626c0,1.173,0.665,1.573,2.024,1.573
			c1.387,0,2.025-0.506,2.025-1.573C135.348,6.115,134.709,5.528,133.322,5.528z"/>
		<path fill="#4C1211" d="M144.081,10.566c-1.733,0-3.358,0.613-4.559,1.732l-0.534-1.546l-2.425,0.188v15.967h3.386V15.125
			c0.665-0.932,1.999-1.465,3.198-1.465c1.973,0,3.066,0.853,3.066,2.878v10.37h3.385V16.512
			C149.599,12.619,147.467,10.566,144.081,10.566z"/>
		<path fill="#4C1211" d="M159.225,13.473V10.86h-3.758V6.835l-2.666,0.267l-0.613,3.759h-2.105v2.612h1.998v9.01
			c0,2.957,1.494,4.691,4.506,4.691c0.987,0,1.973-0.187,2.506-0.427l-0.214-2.534c-0.292,0.107-0.88,0.188-1.305,0.188
			c-1.359,0-2.106-0.586-2.106-1.998v-8.93H159.225z"/>
	</g>
	<g>
		<g>
			<rect x="20.503" y="19.502" fill="#F48789" width="10.252" height="10.252"/>
			<path fill="#F48789" d="M20.503-1H10.251V9.251H1.728C0.777,9.251,0,10.029,0,10.98v6.793c0,0.951,0.777,1.729,1.728,1.729
				h18.775V-1z"/>
			<path fill="#F48789" d="M39.277,9.251h-8.522v10.25h8.522c0.951,0,1.729-0.777,1.729-1.729V10.98
				C41.006,10.029,40.229,9.251,39.277,9.251z"/>
			<path fill="#F48789" d="M56.317,2.915H49.12v19.992h7.251c5.838,0,8.743-2.826,8.743-10.077
				C65.114,5.874,62.528,2.915,56.317,2.915z M56.291,19.548h-3.492V6.3h3.492c3.599,0,4.983,1.333,4.983,6.504
				C61.274,18.35,59.755,19.548,56.291,19.548z"/>
			<path fill="#F48789" d="M68.62,1.528c-1.359,0-2.025,0.587-2.025,1.626c0,1.173,0.666,1.573,2.025,1.573
				c1.387,0,2.027-0.506,2.027-1.573C70.647,2.115,70.007,1.528,68.62,1.528z"/>
			<polygon fill="#F48789" points="66.889,22.907 70.326,22.907 70.326,6.78 66.889,6.967 			"/>
			<path fill="#F48789" d="M84.551,6.566l-2.666,0.96c-1.12-0.72-2.586-0.933-3.972-0.933c-4.292,0-5.917,1.946-5.917,4.905
				c0,1.865,0.72,3.038,1.838,3.758l-0.026,0.054c-1.332,0.559-1.972,1.546-1.972,2.611c0,1.066,0.533,1.84,1.252,2.291
				c-0.906,0.748-1.387,1.734-1.387,2.774c0,2.479,1.895,4.238,6.372,4.238c5.118,0,7.117-1.946,7.117-5.038
				c0-2.373-1.359-3.705-5.171-3.973l-3.865-0.266c-0.827-0.053-1.2-0.428-1.2-0.879c0-0.401,0.319-0.748,0.853-0.96
				c0.667,0.132,1.388,0.187,2.106,0.187c4.265,0,5.892-1.733,5.892-4.798c0-0.747-0.107-1.387-0.321-1.92l1.786-1.333L84.551,6.566
				z M75.567,20.854l3.864,0.293c2.187,0.159,2.692,0.64,2.692,1.546c0,1.146-0.826,1.92-4.132,1.92
				c-2.397,0-3.384-0.721-3.384-2.053C74.608,22,74.954,21.361,75.567,20.854z M77.859,13.896c-1.492,0-2.532-0.479-2.532-2.345
				c0-1.599,0.693-2.345,2.612-2.345c1.838,0,2.612,0.612,2.612,2.345C80.552,13.177,79.938,13.896,77.859,13.896z"/>
			<polygon fill="#F48789" points="86.896,22.907 90.333,22.907 90.333,6.78 86.896,6.967 			"/>
			<path fill="#F48789" d="M88.627,1.528c-1.358,0-2.025,0.587-2.025,1.626c0,1.173,0.667,1.573,2.025,1.573
				c1.386,0,2.027-0.506,2.027-1.573C90.654,2.115,90.013,1.528,88.627,1.528z"/>
			<path fill="#F48789" d="M97.371,2.835l-2.666,0.267L94.093,6.86h-2.107v2.612h2v9.01c0,2.957,1.493,4.691,4.504,4.691
				c0.986,0,1.974-0.187,2.507-0.427l-0.213-2.534c-0.292,0.107-0.88,0.188-1.308,0.188c-1.358,0-2.104-0.586-2.104-1.998v-8.93
				h3.759V6.86h-3.759V2.835z"/>
			<path fill="#F48789" d="M110.207,6.594c-1.785,0-3.385,0.639-4.531,1.732l-0.666-1.519l-2.399,0.16v19.965h3.439v-3.039
				l-0.055-2.158l0.081-0.027c1.064,1.119,2.479,1.492,3.997,1.492c3.812,0,6.238-2.559,6.238-8.342
				C116.312,8.699,114.152,6.594,110.207,6.594z M109.22,20.295c-1.571,0-2.611-0.721-3.17-1.626v-7.438
				c0.691-0.986,1.838-1.572,3.278-1.572c2.346,0,3.491,1.092,3.491,5.171C112.819,19.281,111.353,20.295,109.22,20.295z"/>
			<path fill="#F48789" d="M123.711,6.566c-1.998,0-3.785,0.347-5.357,1.039l0.294,2.799c1.466-0.64,2.718-0.905,4.45-0.905
				c2.399,0,3.358,0.799,3.358,2.798v1.2c-0.905-0.294-2.077-0.506-3.332-0.506c-3.731,0-5.757,1.945-5.757,4.958
				c0,3.571,1.973,5.225,4.957,5.225c1.92,0,3.545-0.747,4.532-2l0.08,0.027l0.294,1.706h2.585V12.804
				C129.815,8.486,128.189,6.566,123.711,6.566z M126.456,18.188c0,1.173-1.519,2.239-3.198,2.239c-1.571,0-2.691-0.666-2.691-2.531
				c0-1.627,0.985-2.507,3.171-2.507c1.333,0,2.319,0.267,2.719,0.454V18.188z"/>
			<polygon fill="#F48789" points="131.59,22.907 135.028,22.907 135.028,6.78 131.59,6.967 			"/>
			<path fill="#F48789" d="M133.322,1.528c-1.359,0-2.024,0.587-2.024,1.626c0,1.173,0.665,1.573,2.024,1.573
				c1.387,0,2.025-0.506,2.025-1.573C135.348,2.115,134.709,1.528,133.322,1.528z"/>
			<path fill="#F48789" d="M144.081,6.566c-1.733,0-3.358,0.613-4.559,1.732l-0.534-1.546l-2.425,0.188v15.967h3.386V11.125
				c0.665-0.932,1.999-1.465,3.198-1.465c1.973,0,3.066,0.853,3.066,2.878v10.37h3.385V12.511
				C149.599,8.619,147.467,6.566,144.081,6.566z"/>
			<path fill="#F48789" d="M159.225,9.473V6.86h-3.758V2.835l-2.666,0.267l-0.613,3.759h-2.105v2.612h1.998v9.01
				c0,2.957,1.494,4.691,4.506,4.691c0.987,0,1.973-0.187,2.506-0.427l-0.214-2.534c-0.292,0.107-0.88,0.188-1.305,0.188
				c-1.359,0-2.106-0.586-2.106-1.998v-8.93H159.225z"/>
		</g>
		<g>
			<g>
				<rect x="20.503" y="20.502" fill="#FFFFFF" width="10.252" height="10.252"/>
				<path fill="#FFFFFF" d="M20.503,0H10.251v10.251H1.728C0.777,10.251,0,11.029,0,11.98v6.793c0,0.951,0.777,1.729,1.728,1.729
					h18.775V0z"/>
				<path fill="#FFFFFF" d="M39.277,10.251h-8.522v10.25h8.522c0.951,0,1.729-0.777,1.729-1.729V11.98
					C41.006,11.029,40.229,10.251,39.277,10.251z"/>
				<path fill="#FFFFFF" d="M56.317,3.915H49.12v19.992h7.251c5.838,0,8.743-2.826,8.743-10.077
					C65.114,6.874,62.528,3.915,56.317,3.915z M56.291,20.548h-3.492V7.3h3.492c3.599,0,4.983,1.333,4.983,6.504
					C61.274,19.35,59.755,20.548,56.291,20.548z"/>
				<path fill="#FFFFFF" d="M68.62,2.528c-1.359,0-2.025,0.587-2.025,1.626c0,1.173,0.666,1.573,2.025,1.573
					c1.387,0,2.027-0.506,2.027-1.573C70.647,3.115,70.007,2.528,68.62,2.528z"/>
				<polygon fill="#FFFFFF" points="66.889,23.907 70.326,23.907 70.326,7.78 66.889,7.967 				"/>
				<path fill="#FFFFFF" d="M84.551,7.566l-2.666,0.96c-1.12-0.72-2.586-0.933-3.972-0.933c-4.292,0-5.917,1.946-5.917,4.905
					c0,1.865,0.72,3.038,1.838,3.758l-0.026,0.054c-1.332,0.559-1.972,1.546-1.972,2.611c0,1.066,0.533,1.84,1.252,2.291
					c-0.906,0.748-1.387,1.734-1.387,2.774c0,2.479,1.895,4.238,6.372,4.238c5.118,0,7.117-1.946,7.117-5.038
					c0-2.373-1.359-3.705-5.171-3.973l-3.865-0.266c-0.827-0.053-1.2-0.428-1.2-0.879c0-0.401,0.319-0.748,0.853-0.96
					c0.667,0.132,1.388,0.187,2.106,0.187c4.265,0,5.892-1.733,5.892-4.798c0-0.747-0.107-1.387-0.321-1.92l1.786-1.333
					L84.551,7.566z M75.567,21.854l3.864,0.293c2.187,0.159,2.692,0.64,2.692,1.546c0,1.146-0.826,1.92-4.132,1.92
					c-2.397,0-3.384-0.721-3.384-2.053C74.608,23,74.954,22.361,75.567,21.854z M77.859,14.896c-1.492,0-2.532-0.479-2.532-2.345
					c0-1.599,0.693-2.345,2.612-2.345c1.838,0,2.612,0.612,2.612,2.345C80.552,14.177,79.938,14.896,77.859,14.896z"/>
				<polygon fill="#FFFFFF" points="86.896,23.907 90.333,23.907 90.333,7.78 86.896,7.967 				"/>
				<path fill="#FFFFFF" d="M88.627,2.528c-1.358,0-2.025,0.587-2.025,1.626c0,1.173,0.667,1.573,2.025,1.573
					c1.386,0,2.027-0.506,2.027-1.573C90.654,3.115,90.013,2.528,88.627,2.528z"/>
				<path fill="#FFFFFF" d="M97.371,3.835l-2.666,0.267L94.093,7.86h-2.107v2.612h2v9.01c0,2.957,1.493,4.691,4.504,4.691
					c0.986,0,1.974-0.187,2.507-0.427l-0.213-2.534c-0.292,0.107-0.88,0.188-1.308,0.188c-1.358,0-2.104-0.586-2.104-1.998v-8.93
					h3.759V7.86h-3.759V3.835z"/>
				<path fill="#FFFFFF" d="M110.207,7.594c-1.785,0-3.385,0.639-4.531,1.732l-0.666-1.519l-2.399,0.16v19.965h3.439v-3.039
					l-0.055-2.158l0.081-0.027c1.064,1.119,2.479,1.492,3.997,1.492c3.812,0,6.238-2.559,6.238-8.342
					C116.312,9.699,114.152,7.594,110.207,7.594z M109.22,21.295c-1.571,0-2.611-0.721-3.17-1.626v-7.438
					c0.691-0.986,1.838-1.572,3.278-1.572c2.346,0,3.491,1.092,3.491,5.171C112.819,20.281,111.353,21.295,109.22,21.295z"/>
				<path fill="#FFFFFF" d="M123.711,7.566c-1.998,0-3.785,0.347-5.357,1.039l0.294,2.799c1.466-0.64,2.718-0.905,4.45-0.905
					c2.399,0,3.358,0.799,3.358,2.798v1.2c-0.905-0.294-2.077-0.506-3.332-0.506c-3.731,0-5.757,1.945-5.757,4.958
					c0,3.571,1.973,5.225,4.957,5.225c1.92,0,3.545-0.747,4.532-2l0.08,0.027l0.294,1.706h2.585V13.804
					C129.815,9.486,128.189,7.566,123.711,7.566z M126.456,19.188c0,1.173-1.519,2.239-3.198,2.239
					c-1.571,0-2.691-0.666-2.691-2.531c0-1.627,0.985-2.507,3.171-2.507c1.333,0,2.319,0.267,2.719,0.454V19.188z"/>
				<polygon fill="#FFFFFF" points="131.59,23.907 135.028,23.907 135.028,7.78 131.59,7.967 				"/>
				<path fill="#FFFFFF" d="M133.322,2.528c-1.359,0-2.024,0.587-2.024,1.626c0,1.173,0.665,1.573,2.024,1.573
					c1.387,0,2.025-0.506,2.025-1.573C135.348,3.115,134.709,2.528,133.322,2.528z"/>
				<path fill="#FFFFFF" d="M144.081,7.566c-1.733,0-3.358,0.613-4.559,1.732l-0.534-1.546l-2.425,0.188v15.967h3.386V12.125
					c0.665-0.932,1.999-1.465,3.198-1.465c1.973,0,3.066,0.853,3.066,2.878v10.37h3.385V13.511
					C149.599,9.619,147.467,7.566,144.081,7.566z"/>
				<path fill="#FFFFFF" d="M159.225,10.473V7.86h-3.758V3.835l-2.666,0.267l-0.613,3.759h-2.105v2.612h1.998v9.01
					c0,2.957,1.494,4.691,4.506,4.691c0.987,0,1.973-0.187,2.506-0.427l-0.214-2.534c-0.292,0.107-0.88,0.188-1.305,0.188
					c-1.359,0-2.106-0.586-2.106-1.998v-8.93H159.225z"/>
			</g>
		</g>
	</g>
</g>
<g>
</g>
<g>
</g>
<g>
</g>
<g>
</g>
<g>
</g>
<g>
</g>
</svg>
