<?xml version="1.0" encoding="utf-8"?>
<!-- Generator: Adobe Illustrator 16.0.0, SVG Export Plug-In . SVG Version: 6.00 Build 0)  -->
<!DOCTYPE svg PUBLIC "-//W3C//DTD SVG 1.1//EN" "http://www.w3.org/Graphics/SVG/1.1/DTD/svg11.dtd">
<svg version="1.1" id="Layer_1" xmlns="http://www.w3.org/2000/svg" xmlns:xlink="http://www.w3.org/1999/xlink" x="0px" y="0px"
	 width="159.225px" height="30.754px" viewBox="0 0 159.225 30.754" enable-background="new 0 0 159.225 30.754"
	 xml:space="preserve">
<g>
	<rect x="20.503" y="20.502" fill="#250E29" width="10.252" height="10.252"/>
	<path fill="#250E29" d="M20.503,0H10.251v10.252H1.728C0.777,10.252,0,11.029,0,11.98v6.793c0,0.951,0.777,1.729,1.728,1.729
		h18.775V0z"/>
	<path fill="#250E29" d="M39.277,10.252h-8.522v10.25h8.522c0.951,0,1.729-0.777,1.729-1.729V11.98
		C41.006,11.029,40.229,10.252,39.277,10.252z"/>
	<path fill="#250E29" d="M56.317,3.915H49.12v19.992h7.251c5.838,0,8.743-2.826,8.743-10.077
		C65.114,6.873,62.528,3.915,56.317,3.915z M56.291,20.548h-3.492V7.3h3.492c3.599,0,4.983,1.333,4.983,6.505
		C61.274,19.35,59.755,20.548,56.291,20.548z"/>
	<path fill="#250E29" d="M68.62,2.528c-1.359,0-2.025,0.587-2.025,1.626c0,1.174,0.666,1.572,2.025,1.572
		c1.387,0,2.027-0.506,2.027-1.572C70.647,3.115,70.007,2.528,68.62,2.528z"/>
	<polygon fill="#250E29" points="66.889,23.907 70.326,23.907 70.326,7.78 66.889,7.967 	"/>
	<path fill="#250E29" d="M84.551,7.566l-2.666,0.96c-1.12-0.72-2.586-0.933-3.972-0.933c-4.292,0-5.917,1.945-5.917,4.904
		c0,1.865,0.72,3.039,1.838,3.759l-0.026,0.054c-1.332,0.559-1.972,1.546-1.972,2.611c0,1.066,0.533,1.84,1.252,2.291
		c-0.906,0.748-1.387,1.734-1.387,2.774c0,2.479,1.895,4.238,6.372,4.238c5.118,0,7.117-1.946,7.117-5.038
		c0-2.373-1.359-3.705-5.171-3.973l-3.865-0.266c-0.827-0.053-1.2-0.428-1.2-0.879c0-0.401,0.319-0.748,0.853-0.96
		c0.667,0.132,1.388,0.187,2.106,0.187c4.265,0,5.892-1.732,5.892-4.799c0-0.746-0.107-1.387-0.321-1.92l1.786-1.332L84.551,7.566z
		 M75.567,21.854l3.864,0.293c2.187,0.159,2.692,0.64,2.692,1.546c0,1.146-0.826,1.92-4.132,1.92c-2.397,0-3.384-0.721-3.384-2.053
		C74.608,23,74.954,22.361,75.567,21.854z M77.859,14.896c-1.492,0-2.532-0.479-2.532-2.346c0-1.599,0.693-2.345,2.612-2.345
		c1.838,0,2.612,0.612,2.612,2.345C80.552,14.178,79.938,14.896,77.859,14.896z"/>
	<polygon fill="#250E29" points="86.896,23.907 90.333,23.907 90.333,7.78 86.896,7.967 	"/>
	<path fill="#250E29" d="M88.627,2.528c-1.358,0-2.025,0.587-2.025,1.626c0,1.174,0.667,1.572,2.025,1.572
		c1.386,0,2.027-0.506,2.027-1.572C90.654,3.115,90.013,2.528,88.627,2.528z"/>
	<path fill="#250E29" d="M97.371,3.835l-2.666,0.267L94.093,7.86h-2.107v2.612h2v9.01c0,2.957,1.493,4.691,4.504,4.691
		c0.986,0,1.974-0.187,2.507-0.427l-0.213-2.534c-0.292,0.107-0.88,0.188-1.308,0.188c-1.358,0-2.104-0.586-2.104-1.998v-8.93h3.759
		V7.86h-3.759V3.835z"/>
	<path fill="#250E29" d="M110.207,7.594c-1.785,0-3.385,0.639-4.531,1.732l-0.666-1.52l-2.399,0.16v19.965h3.439v-3.039
		l-0.055-2.158l0.081-0.027c1.064,1.119,2.479,1.492,3.997,1.492c3.812,0,6.238-2.559,6.238-8.342
		C116.312,9.699,114.152,7.594,110.207,7.594z M109.22,21.295c-1.571,0-2.611-0.721-3.17-1.626V12.23
		c0.691-0.985,1.838-1.571,3.278-1.571c2.346,0,3.491,1.093,3.491,5.171C112.819,20.281,111.353,21.295,109.22,21.295z"/>
	<path fill="#250E29" d="M123.711,7.566c-1.998,0-3.785,0.348-5.357,1.039l0.294,2.799c1.466-0.639,2.718-0.904,4.45-0.904
		c2.399,0,3.358,0.799,3.358,2.798v1.2c-0.905-0.295-2.077-0.507-3.332-0.507c-3.731,0-5.757,1.945-5.757,4.958
		c0,3.571,1.973,5.225,4.957,5.225c1.92,0,3.545-0.747,4.532-2l0.08,0.027l0.294,1.706h2.585V13.805
		C129.815,9.486,128.189,7.566,123.711,7.566z M126.456,19.188c0,1.173-1.519,2.239-3.198,2.239c-1.571,0-2.691-0.666-2.691-2.531
		c0-1.627,0.985-2.507,3.171-2.507c1.333,0,2.319,0.267,2.719,0.454V19.188z"/>
	<polygon fill="#250E29" points="131.59,23.907 135.028,23.907 135.028,7.78 131.59,7.967 	"/>
	<path fill="#250E29" d="M133.322,2.528c-1.359,0-2.024,0.587-2.024,1.626c0,1.174,0.665,1.572,2.024,1.572
		c1.387,0,2.025-0.506,2.025-1.572C135.348,3.115,134.709,2.528,133.322,2.528z"/>
	<path fill="#250E29" d="M144.081,7.566c-1.733,0-3.358,0.613-4.559,1.732l-0.534-1.547l-2.425,0.188v15.968h3.386V12.125
		c0.665-0.933,1.999-1.466,3.198-1.466c1.973,0,3.066,0.853,3.066,2.878v10.37h3.385V13.512
		C149.599,9.619,147.467,7.566,144.081,7.566z"/>
	<path fill="#250E29" d="M159.225,10.473V7.86h-3.758V3.835l-2.666,0.267l-0.613,3.759h-2.105v2.612h1.998v9.01
		c0,2.957,1.494,4.691,4.506,4.691c0.987,0,1.973-0.187,2.506-0.427l-0.214-2.534c-0.292,0.107-0.88,0.188-1.305,0.188
		c-1.359,0-2.106-0.586-2.106-1.998v-8.93H159.225z"/>
</g>
</svg>
