<?xml version="1.0" encoding="utf-8"?>
<!-- Generator: Adobe Illustrator 16.0.0, SVG Export Plug-In . SVG Version: 6.00 Build 0)  -->
<!DOCTYPE svg PUBLIC "-//W3C//DTD SVG 1.1//EN" "http://www.w3.org/Graphics/SVG/1.1/DTD/svg11.dtd">
<svg version="1.1" id="Layer_1" xmlns="http://www.w3.org/2000/svg" xmlns:xlink="http://www.w3.org/1999/xlink" x="0px" y="0px"
	 width="151.974px" height="75.833px" viewBox="0 0 151.974 75.833" enable-background="new 0 0 151.974 75.833"
	 xml:space="preserve">
<g>
	<circle fill="#EECB99" cx="133.409" cy="57.267" r="18.565"/>
	<circle fill="#EECB99" cx="95.334" cy="40.954" r="34.879"/>
	<circle fill="#EECB99" cx="55.864" cy="47.679" r="28.155"/>
	<circle fill="#EECB99" cx="18.098" cy="57.735" r="18.098"/>
	<circle fill="#EECB99" cx="97.378" cy="11.788" r="11.788"/>
	<circle fill="#EECB99" cx="124.737" cy="40.569" r="11.789"/>
	<circle fill="#EECB99" cx="27.708" cy="39.242" r="11.789"/>
	<rect x="18.947" y="45.132" fill="#EECB99" width="115.714" height="30.701"/>
	<path fill="#C4A06B" d="M69.738,33.628c0,14.135,17.988,39.197,30.509,27.936c10.51-9.455,20.683-13.801,20.683-27.936
		c0-14.136-11.46-25.596-25.595-25.596C81.198,8.032,69.738,19.492,69.738,33.628z"/>
	<ellipse fill="#C4A06B" cx="134.662" cy="58.54" rx="16.558" ry="14.566"/>
	<path fill="#C4A06B" d="M32.188,53.522c0,12.852,7.309,13.172,28.267,5.701c11.325-4.037,20.586-0.176,20.586-13.025
		c0-12.851-9.748-23.268-21.771-23.268C47.247,22.93,32.188,40.672,32.188,53.522z"/>
	<path fill="#C4A06B" d="M1.769,60.481c0,9.242,10.136,15.129,19.164,15.129c9.026,0,23.169-1.127,23.169-10.369
		S29.561,43.356,20.775,41.286C9.808,38.702,1.769,51.239,1.769,60.481z"/>
	<circle fill="#C4A06B" cx="97.378" cy="11.788" r="9.866"/>
	<path fill="#C4A06B" d="M106.448,56.372c4.888-4.014,7.695-0.441,13.579-0.441c5.882,0,10.652-5.764,10.652-12.871
		c0-7.11-4.771-12.874-10.652-12.874C114.143,30.186,100.954,60.884,106.448,56.372z"/>
	<ellipse fill="#C4A06B" cx="30.136" cy="41.286" rx="9.361" ry="9.744"/>
	<rect x="30.959" y="45.132" fill="#C4A06B" width="95.577" height="30.701"/>
	<path fill="#FFE6BF" d="M6.966,70.583c13.76,8.469,28.601,3.299,42.362-1.994c15.877-6.352,35.293,11.916,55.053,0.742
		c11.659-4.361,28.361,4.613,38.947,0.379c5.626-1.689,8.07-11.977,7.893-17.658c0.484,1.654,0.753,3.402,0.753,5.215
		c0,9.832-7.646,17.855-17.313,18.502v0.064H18.947V75.79c-0.284,0.014-0.562,0.043-0.849,0.043c-9.315,0-16.979-7.041-17.98-16.088
		C1.224,61.581,3.504,67.642,6.966,70.583z"/>
</g>
</svg>
