<?xml version="1.0" encoding="utf-8"?>
<!-- Generator: Adobe Illustrator 16.0.0, SVG Export Plug-In . SVG Version: 6.00 Build 0)  -->
<!DOCTYPE svg PUBLIC "-//W3C//DTD SVG 1.1//EN" "http://www.w3.org/Graphics/SVG/1.1/DTD/svg11.dtd">
<svg version="1.1" id="Layer_1" xmlns="http://www.w3.org/2000/svg" xmlns:xlink="http://www.w3.org/1999/xlink" x="0px" y="0px"
	 width="184.961px" height="92.293px" viewBox="0 0 184.961 92.293" enable-background="new 0 0 184.961 92.293"
	 xml:space="preserve">
<g>
	<g>
		<circle fill="#692B6E" cx="162.367" cy="69.697" r="22.594"/>
		<circle fill="#692B6E" cx="116.028" cy="49.843" r="42.449"/>
		<circle fill="#692B6E" cx="67.989" cy="58.027" r="34.266"/>
		<circle fill="#692B6E" cx="22.026" cy="70.267" r="22.026"/>
		<circle fill="#692B6E" cx="118.515" cy="14.347" r="14.347"/>
		<circle fill="#692B6E" cx="151.812" cy="49.376" r="14.348"/>
		<circle fill="#692B6E" cx="33.723" cy="47.76" r="14.347"/>
		<rect x="23.059" y="54.927" fill="#692B6E" width="140.833" height="37.365"/>
	</g>
	<g>
		<path fill="#46154F" d="M84.875,40.927c0,17.203,21.893,47.707,37.131,33.998c12.791-11.508,25.172-16.795,25.172-33.998
			c0-17.204-13.948-31.151-31.151-31.151C98.822,9.776,84.875,23.723,84.875,40.927z"/>
		<ellipse fill="#46154F" cx="163.891" cy="71.246" rx="20.152" ry="17.73"/>
		<path fill="#46154F" d="M39.175,65.14c0,15.641,8.895,16.031,34.403,6.939c13.783-4.914,25.055-0.213,25.055-15.854
			S86.769,27.907,72.137,27.907C57.502,27.907,39.175,49.5,39.175,65.14z"/>
		<path fill="#46154F" d="M2.151,73.611c0,11.248,12.337,18.412,23.324,18.412c10.986,0,28.199-1.371,28.199-12.619
			S35.978,52.767,25.284,50.248C11.937,47.103,2.151,62.363,2.151,73.611z"/>
		<circle fill="#46154F" cx="118.516" cy="14.347" r="12.008"/>
		<path fill="#46154F" d="M129.553,68.609c5.949-4.887,9.366-0.537,16.527-0.537c7.159,0,12.965-7.014,12.965-15.666
			c0-8.653-5.807-15.668-12.965-15.668C138.919,36.738,122.866,74.101,129.553,68.609z"/>
		<ellipse fill="#46154F" cx="36.677" cy="50.248" rx="11.393" ry="11.859"/>
		<rect x="37.68" y="54.927" fill="#46154F" width="116.323" height="37.365"/>
	</g>
	<path fill="#98489B" d="M8.479,85.906c16.747,10.305,34.809,4.012,51.557-2.43c19.324-7.73,42.954,14.504,67.003,0.904
		c14.19-5.309,34.517,5.613,47.402,0.461c6.848-2.055,9.822-14.574,9.605-21.492c0.59,2.016,0.916,4.143,0.916,6.348
		c0,11.965-9.305,21.732-21.07,22.52v0.076H23.059V92.24c-0.346,0.018-0.684,0.053-1.032,0.053c-11.338,0-20.667-8.566-21.884-19.58
		C1.488,74.949,4.265,82.324,8.479,85.906z"/>
</g>
</svg>
