<?xml version="1.0" encoding="utf-8"?>
<!-- Generator: Adobe Illustrator 16.0.0, SVG Export Plug-In . SVG Version: 6.00 Build 0)  -->
<!DOCTYPE svg PUBLIC "-//W3C//DTD SVG 1.1//EN" "http://www.w3.org/Graphics/SVG/1.1/DTD/svg11.dtd">
<svg version="1.1" id="Layer_1" xmlns="http://www.w3.org/2000/svg" xmlns:xlink="http://www.w3.org/1999/xlink" x="0px" y="0px"
	 width="130.883px" height="65.308px" viewBox="0 0 130.883 65.308" enable-background="new 0 0 130.883 65.308"
	 xml:space="preserve">
<g>
	<g>
		<circle fill="#692B6E" cx="15.989" cy="49.32" r="15.989"/>
		<circle fill="#692B6E" cx="48.78" cy="35.271" r="30.039"/>
		<circle fill="#692B6E" cx="82.773" cy="41.061" r="24.247"/>
		<circle fill="#692B6E" cx="115.297" cy="49.723" r="15.586"/>
		<circle fill="#692B6E" cx="47.02" cy="10.152" r="10.152"/>
		<circle fill="#692B6E" cx="23.458" cy="34.939" r="10.153"/>
		<circle fill="#692B6E" cx="107.021" cy="33.796" r="10.151"/>
		<rect x="14.91" y="38.869" fill="#692B6E" width="99.657" height="26.44"/>
	</g>
	<g>
		<path fill="#46154F" d="M70.825,28.961c0,12.174-15.493,33.758-26.276,24.059c-9.051-8.144-17.812-11.885-17.812-24.059
			c0-12.174,9.869-22.043,22.042-22.043C60.955,6.917,70.825,16.787,70.825,28.961z"/>
		<ellipse fill="#46154F" cx="14.91" cy="50.416" rx="14.26" ry="12.546"/>
		<path fill="#46154F" d="M103.163,46.094c0,11.068-6.293,11.345-24.344,4.91c-9.754-3.477-17.73-0.15-17.73-11.217
			c0-11.068,8.396-20.04,18.75-20.04C90.194,19.748,103.163,35.027,103.163,46.094z"/>
		<path fill="#46154F" d="M129.362,52.088c0,7.96-8.73,13.029-16.506,13.029c-7.773,0-19.953-0.97-19.953-8.93
			c0-7.959,12.523-18.849,20.09-20.631C122.438,33.331,129.362,44.129,129.362,52.088z"/>
		<circle fill="#46154F" cx="47.019" cy="10.152" r="8.497"/>
		<path fill="#46154F" d="M39.209,48.549c-4.21-3.457-6.628-0.381-11.695-0.381c-5.065,0-9.174-4.963-9.174-11.085
			c0-6.124,4.108-11.087,9.174-11.087C32.581,25.997,43.94,52.436,39.209,48.549z"/>
		<path fill="#46154F" d="M112.993,35.557c0,4.635-3.609,8.391-8.061,8.391c-4.455,0-8.062-3.756-8.062-8.391
			c0-4.635,3.607-8.392,8.062-8.392C109.383,27.165,112.993,30.922,112.993,35.557z"/>
		<rect x="21.908" y="38.869" fill="#46154F" width="82.313" height="26.44"/>
	</g>
	<path fill="#98489B" d="M124.885,60.789c-11.852,7.293-24.633,2.84-36.484-1.718C74.727,53.6,58.006,69.333,40.988,59.709
		c-10.041-3.756-24.426,3.973-33.543,0.326c-4.845-1.453-6.95-10.313-6.797-15.207C0.231,46.254,0,47.758,0,49.32
		c0,8.467,6.585,15.378,14.91,15.935v0.055h99.657v-0.037c0.244,0.012,0.484,0.037,0.73,0.037c8.023,0,14.625-6.062,15.486-13.855
		C129.831,53.036,127.866,58.254,124.885,60.789z"/>
</g>
</svg>
