<?xml version="1.0" encoding="utf-8"?>
<!-- Generator: Adobe Illustrator 16.0.0, SVG Export Plug-In . SVG Version: 6.00 Build 0)  -->
<!DOCTYPE svg PUBLIC "-//W3C//DTD SVG 1.1//EN" "http://www.w3.org/Graphics/SVG/1.1/DTD/svg11.dtd">
<svg version="1.1" id="Layer_1" xmlns="http://www.w3.org/2000/svg" xmlns:xlink="http://www.w3.org/1999/xlink" x="0px" y="0px"
	 width="87.998px" height="43.91px" viewBox="0 0 87.998 43.91" enable-background="new 0 0 87.998 43.91" xml:space="preserve">
<g>
	<circle fill="#EECB99" cx="77.249" cy="33.16" r="10.75"/>
	<circle fill="#EECB99" cx="55.202" cy="23.714" r="20.196"/>
	<circle fill="#EECB99" cx="32.347" cy="27.607" r="16.302"/>
	<circle fill="#EECB99" cx="10.479" cy="33.431" r="10.479"/>
	<circle fill="#EECB99" cx="56.386" cy="6.826" r="6.826"/>
	<circle fill="#EECB99" cx="72.228" cy="23.491" r="6.826"/>
	<circle fill="#EECB99" cx="16.044" cy="22.723" r="6.826"/>
	<rect x="10.971" y="26.133" fill="#EECB99" width="67.003" height="17.777"/>
	<path fill="#C4A06B" d="M40.38,19.472c0,8.185,10.416,22.697,17.666,16.175c6.086-5.475,11.977-7.99,11.977-16.175
		c0-8.185-6.635-14.821-14.82-14.821S40.38,11.287,40.38,19.472z"/>
	<ellipse fill="#C4A06B" cx="77.974" cy="33.896" rx="9.588" ry="8.436"/>
	<path fill="#C4A06B" d="M18.638,30.991c0,7.441,4.232,7.627,16.368,3.302c6.558-2.338,11.919-0.102,11.919-7.543
		c0-7.441-5.644-13.473-12.605-13.473C27.357,13.277,18.638,23.551,18.638,30.991z"/>
	<path fill="#C4A06B" d="M1.024,35.021c0,5.352,5.869,8.76,11.097,8.76c5.227,0,13.416-0.652,13.416-6.004
		s-8.42-12.672-13.507-13.871C5.679,22.41,1.024,29.67,1.024,35.021z"/>
	<circle fill="#C4A06B" cx="56.386" cy="6.826" r="5.713"/>
	<path fill="#C4A06B" d="M61.638,32.642c2.83-2.325,4.455-0.256,7.861-0.256s6.168-3.337,6.168-7.453
		c0-4.117-2.762-7.454-6.168-7.454S58.456,35.254,61.638,32.642z"/>
	<ellipse fill="#C4A06B" cx="17.45" cy="23.906" rx="5.42" ry="5.643"/>
	<rect x="17.926" y="26.133" fill="#C4A06B" width="55.342" height="17.777"/>
	<path fill="#FFE6BF" d="M4.034,40.871c7.968,4.902,16.561,1.908,24.529-1.156c9.193-3.678,20.437,6.9,31.878,0.43
		c6.752-2.525,16.422,2.672,22.551,0.22c3.258-0.978,4.674-6.935,4.57-10.225c0.281,0.958,0.438,1.97,0.438,3.021
		c0,5.691-4.428,10.338-10.025,10.713v0.037H10.971v-0.025c-0.164,0.008-0.326,0.025-0.492,0.025c-5.394,0-9.832-4.076-10.411-9.316
		C0.708,35.658,2.029,39.166,4.034,40.871z"/>
</g>
</svg>
