<?xml version="1.0" encoding="utf-8"?>
<!-- Generator: Adobe Illustrator 16.0.0, SVG Export Plug-In . SVG Version: 6.00 Build 0)  -->
<!DOCTYPE svg PUBLIC "-//W3C//DTD SVG 1.1//EN" "http://www.w3.org/Graphics/SVG/1.1/DTD/svg11.dtd">
<svg version="1.1" id="Layer_1" xmlns="http://www.w3.org/2000/svg" xmlns:xlink="http://www.w3.org/1999/xlink" x="0px" y="0px"
	 width="76.432px" height="38.138px" viewBox="0 0 76.432 38.138" enable-background="new 0 0 76.432 38.138" xml:space="preserve">
<g>
	<g>
		<circle fill="#863460" cx="9.337" cy="28.801" r="9.337"/>
		<circle fill="#863460" cx="28.486" cy="20.597" r="17.542"/>
		<circle fill="#863460" cx="48.337" cy="23.979" r="14.159"/>
		<circle fill="#863460" cx="67.331" cy="29.037" r="9.102"/>
		<circle fill="#863460" cx="27.458" cy="5.928" r="5.929"/>
		<circle fill="#863460" cx="13.699" cy="20.404" r="5.929"/>
		<circle fill="#863460" cx="62.498" cy="19.736" r="5.929"/>
		<rect x="8.707" y="22.699" fill="#863460" width="58.198" height="15.439"/>
	</g>
	<g>
		<path fill="#4D0B33" d="M41.36,16.913c0,7.109-9.047,19.714-15.344,14.05c-5.286-4.756-10.401-6.94-10.401-14.05
			S21.377,4.04,28.485,4.04C35.596,4.04,41.36,9.803,41.36,16.913z"/>
		<ellipse fill="#4D0B33" cx="8.707" cy="29.441" rx="8.327" ry="7.327"/>
		<path fill="#4D0B33" d="M60.245,26.917c0,6.464-3.676,6.625-14.217,2.868c-5.695-2.03-10.354-0.088-10.354-6.552
			c0-6.463,4.903-11.702,10.95-11.702S60.245,20.455,60.245,26.917z"/>
		<path fill="#4D0B33" d="M75.543,30.417c0,4.648-5.098,7.609-9.639,7.609c-4.539,0-11.652-0.566-11.652-5.215
			s7.312-11.007,11.732-12.048C71.5,19.464,75.543,25.771,75.543,30.417z"/>
		<circle fill="#4D0B33" cx="27.458" cy="5.928" r="4.962"/>
		<path fill="#4D0B33" d="M22.896,28.351c-2.458-2.019-3.87-0.222-6.829-0.222c-2.958,0-5.357-2.898-5.357-6.474
			c0-3.576,2.399-6.475,5.357-6.475C19.026,15.181,25.66,30.621,22.896,28.351z"/>
		<ellipse fill="#4D0B33" cx="61.277" cy="20.764" rx="4.708" ry="4.9"/>
		<rect x="12.794" y="22.699" fill="#4D0B33" width="48.068" height="15.439"/>
	</g>
	<path fill="#A8426D" d="M72.93,35.5c-6.922,4.258-14.385,1.658-21.307-1.004c-7.984-3.195-17.75,5.993-27.688,0.373
		c-5.863-2.193-14.264,2.32-19.588,0.19c-2.829-0.849-4.059-6.022-3.969-8.881C0.135,27.011,0,27.89,0,28.801
		c0,4.944,3.846,8.979,8.707,9.306v0.031h58.198v-0.021c0.143,0.008,0.281,0.021,0.426,0.021c4.686,0,8.541-3.54,9.043-8.091
		C75.817,30.972,74.67,34.019,72.93,35.5z"/>
</g>
</svg>
