<?xml version="1.0" encoding="utf-8"?>
<!-- Generator: Adobe Illustrator 16.0.0, SVG Export Plug-In . SVG Version: 6.00 Build 0)  -->
<!DOCTYPE svg PUBLIC "-//W3C//DTD SVG 1.1//EN" "http://www.w3.org/Graphics/SVG/1.1/DTD/svg11.dtd">
<svg version="1.1" id="Layer_1" xmlns="http://www.w3.org/2000/svg" xmlns:xlink="http://www.w3.org/1999/xlink" x="0px" y="0px"
	 width="143.579px" height="71.643px" viewBox="0 0 143.579 71.643" enable-background="new 0 0 143.579 71.643"
	 xml:space="preserve">
<g>
	<g>
		<circle fill="#EDAA6C" cx="17.54" cy="54.103" r="17.54"/>
		<circle fill="#EDAA6C" cx="53.511" cy="38.692" r="32.952"/>
		<circle fill="#EDAA6C" cx="90.801" cy="45.044" r="26.6"/>
		<circle fill="#EDAA6C" cx="126.481" cy="54.544" r="17.098"/>
		<circle fill="#EDAA6C" cx="51.58" cy="11.137" r="11.137"/>
		<circle fill="#EDAA6C" cx="25.733" cy="38.328" r="11.137"/>
		<circle fill="#EDAA6C" cx="117.401" cy="37.074" r="11.137"/>
		<rect x="16.356" y="42.638" fill="#EDAA6C" width="109.322" height="29.004"/>
	</g>
	<g>
		<path fill="#B88353" d="M77.694,31.77c0,13.354-16.995,37.032-28.824,26.392C38.941,49.228,29.33,45.125,29.33,31.77
			c0-13.355,10.826-24.182,24.182-24.182C66.866,7.588,77.694,18.415,77.694,31.77z"/>
		<ellipse fill="#B88353" cx="16.357" cy="55.306" rx="15.642" ry="13.762"/>
		<path fill="#B88353" d="M113.168,50.566c0,12.141-6.904,12.443-26.705,5.385c-10.701-3.812-19.449-0.164-19.449-12.305
			c0-12.141,9.208-21.983,20.568-21.983S113.168,38.424,113.168,50.566z"/>
		<path fill="#B88353" d="M141.907,57.14c0,8.732-9.574,14.293-18.104,14.293s-21.891-1.064-21.891-9.795
			c0-8.732,13.738-20.678,22.039-22.633C134.311,36.564,141.907,48.41,141.907,57.14z"/>
		<circle fill="#B88353" cx="51.58" cy="11.137" r="9.321"/>
		<path fill="#B88353" d="M43.011,53.257c-4.618-3.793-7.271-0.416-12.829-0.416c-5.557,0-10.063-5.445-10.063-12.162
			c0-6.716,4.506-12.161,10.063-12.161C35.741,28.518,48.202,57.521,43.011,53.257z"/>
		<ellipse fill="#B88353" cx="115.108" cy="39.005" rx="8.844" ry="9.205"/>
		<rect x="24.033" y="42.638" fill="#B88353" width="90.297" height="29.004"/>
	</g>
	<path fill="#FCC28D" d="M136.997,66.685c-13,8-27.021,3.113-40.021-1.887c-15-6-33.344,11.258-52.012,0.701
		c-11.015-4.119-26.794,4.359-36.794,0.359c-5.315-1.596-7.625-11.314-7.457-16.684C0.253,50.74,0,52.39,0,54.103
		c0,9.287,7.224,16.869,16.356,17.48v0.059h109.322v-0.039c0.268,0.012,0.531,0.039,0.803,0.039c8.801,0,16.041-6.65,16.986-15.197
		C142.422,58.179,140.266,63.904,136.997,66.685z"/>
</g>
</svg>
