<?xml version="1.0" encoding="utf-8"?>
<!-- Generator: Adobe Illustrator 16.0.0, SVG Export Plug-In . SVG Version: 6.00 Build 0)  -->
<!DOCTYPE svg PUBLIC "-//W3C//DTD SVG 1.1//EN" "http://www.w3.org/Graphics/SVG/1.1/DTD/svg11.dtd">
<svg version="1.1" id="Layer_1" xmlns="http://www.w3.org/2000/svg" xmlns:xlink="http://www.w3.org/1999/xlink" x="0px" y="0px"
	 width="59.107px" height="70.093px" viewBox="0 0 59.107 70.093" enable-background="new 0 0 59.107 70.093" xml:space="preserve">
<g id="Moon_3_">
	<g opacity="0.9">
		<path fill="#FCFBE1" d="M39.301,3.091C36.092,1.537,32.762,0.521,29.412,0c11.053,10.243,14.635,26.91,7.706,41.223
			C30.188,55.535,14.89,63.061,0,60.742c2.487,2.304,5.349,4.286,8.558,5.84c17.471,8.461,38.515,1.105,47.005-16.428
			C64.052,32.621,56.771,11.55,39.301,3.091z"/>
	</g>
	<g opacity="0.9">
		<path fill="#FFEF91" d="M39.301,3.091c-1.366-0.661-2.756-1.22-4.158-1.69C46.529,17.35,49.234,32.086,38.58,49.59
			c-4.99,6.655-13.624,11.996-21.212,14.558c-2.696,0.829-7.852,0.948-10.703,1.43c0.62,0.348,1.243,0.69,1.892,1.005
			c17.471,8.461,38.515,1.105,47.005-16.428C64.052,32.621,56.771,11.55,39.301,3.091z"/>
	</g>
	<g opacity="0.9">
		<path fill="#FEE449" d="M47.967,9.029c8.814,13.486,9.328,32.293-0.514,45.412c-3.326,4.992-9.149,8.319-14.973,11.646
			c-3.833,1.533-6.968,3.059-10.691,3.941c13.787,0.797,27.361-6.633,33.773-19.875C62.471,35.887,58.936,19.28,47.967,9.029z"/>
	</g>
</g>
</svg>
