<?xml version="1.0" encoding="utf-8"?>
<!-- Generator: Adobe Illustrator 16.0.0, SVG Export Plug-In . SVG Version: 6.00 Build 0)  -->
<!DOCTYPE svg PUBLIC "-//W3C//DTD SVG 1.1//EN" "http://www.w3.org/Graphics/SVG/1.1/DTD/svg11.dtd">
<svg version="1.1" id="Layer_1" xmlns="http://www.w3.org/2000/svg" xmlns:xlink="http://www.w3.org/1999/xlink" x="0px" y="0px"
	 width="1200.98px" height="180.869px" viewBox="0 0 1200.98 180.869" enable-background="new 0 0 1200.98 180.869"
	 xml:space="preserve">
<linearGradient id="SVGID_1_" gradientUnits="userSpaceOnUse" x1="600.4902" y1="79.5576" x2="600.4902" y2="0.6935">
	<stop  offset="0.4601" style="stop-color:#0B1629"/>
	<stop  offset="1" style="stop-color:#202C3D"/>
</linearGradient>
<polygon fill="url(#SVGID_1_)" points="0,103.199 93.657,74.812 141.063,109.343 205.396,74.812 302.997,55.312 368.984,20.814 
	537.075,61.312 600.611,7.315 693.067,65.812 760.146,30.801 841.56,38.813 900.057,30.801 949.554,0 978.579,53.812 
	1041.05,91.477 1111.513,71.938 1200.98,20.814 1200.98,180.869 0,180.869 "/>
<linearGradient id="SVGID_2_" gradientUnits="userSpaceOnUse" x1="80.481" y1="109.3433" x2="141.0635" y2="109.3433">
	<stop  offset="0" style="stop-color:#2C456E"/>
	<stop  offset="1" style="stop-color:#62748C"/>
</linearGradient>
<polygon fill="url(#SVGID_2_)" points="93.657,74.812 141.063,109.343 132.48,126.199 106.202,143.875 117.36,118.699 
	93.657,110.755 80.481,100.699 93.657,90.699 89.98,82.137 "/>
<linearGradient id="SVGID_3_" gradientUnits="userSpaceOnUse" x1="194.9805" y1="70.2568" x2="374.4805" y2="70.2568">
	<stop  offset="0" style="stop-color:#2C456E"/>
	<stop  offset="1" style="stop-color:#62748C"/>
</linearGradient>
<polygon fill="url(#SVGID_3_)" points="205.396,74.812 205.396,82.137 194.98,91.199 200.188,104.199 222.48,89.505 247.98,95.699 
	271.98,119.699 273.98,97.255 295.666,87.699 295.666,71.199 284.98,65.812 312.48,61.199 338.48,72.199 344.665,51.699 
	360.061,42.699 366.48,53.699 374.48,42.699 368.984,20.814 298.771,56.157 "/>
<linearGradient id="SVGID_4_" gradientUnits="userSpaceOnUse" x1="512.9473" y1="67.0332" x2="609.3281" y2="67.0332">
	<stop  offset="0" style="stop-color:#2C456E"/>
	<stop  offset="1" style="stop-color:#62748C"/>
</linearGradient>
<polygon fill="url(#SVGID_4_)" points="524.004,72.412 512.947,73.404 531.232,101.915 522.555,126.087 551.995,105.634 
	549.505,71.625 561.9,54.265 577.717,65.966 582.676,55.429 594.762,43.033 609.328,43.033 600.031,30.327 593.522,23.199 
	601.58,19.17 599.83,7.979 "/>
<linearGradient id="SVGID_5_" gradientUnits="userSpaceOnUse" x1="691.8662" y1="73.021" x2="764.8994" y2="73.021">
	<stop  offset="0" style="stop-color:#2C456E"/>
	<stop  offset="1" style="stop-color:#62748C"/>
</linearGradient>
<polygon fill="url(#SVGID_5_)" points="691.866,65.052 731.12,94.168 733.6,115.242 746.306,94.478 733.6,73.404 741.657,61.318 
	733.289,48.922 748.475,46.752 757.152,39.005 760.871,45.823 764.899,37.456 760.146,30.801 "/>
<linearGradient id="SVGID_6_" gradientUnits="userSpaceOnUse" x1="837.2002" y1="30.5044" x2="949.5537" y2="30.5044">
	<stop  offset="0" style="stop-color:#2C456E"/>
	<stop  offset="1" style="stop-color:#62748C"/>
</linearGradient>
<polygon fill="url(#SVGID_6_)" points="837.2,38.384 842.377,48.922 841.137,61.008 847.955,47.992 852.604,41.174 864.38,40.554 
	873.677,43.963 877.086,39.935 887.312,38.384 900.639,33.427 914.895,42.104 914.895,54.19 924.812,43.034 943.405,39.625 
	936.278,28.158 943.405,16.692 946.195,20.411 948.984,11.113 946.505,5.535 949.554,0 900.057,30.801 "/>
<linearGradient id="SVGID_7_" gradientUnits="userSpaceOnUse" x1="1037.6162" y1="83.7832" x2="1195.7734" y2="83.7832">
	<stop  offset="0" style="stop-color:#2C456E"/>
	<stop  offset="1" style="stop-color:#62748C"/>
</linearGradient>
<polyline fill="url(#SVGID_7_)" points="1041.05,91.477 1042.884,102.535 1060.48,102.199 1037.616,143.776 1050.941,132.286 
	1068.965,117.627 1078.213,125.158 1078.213,105.015 1087.2,98.506 1087.2,85.8 1095.568,83.631 1097.949,91.477 1105.485,102.225 
	1119.431,127.638 1119.431,96.647 1128.418,91.477 1120.36,80.842 1113.232,77.433 1126.868,70.615 1142.983,79.292 
	1150.731,65.347 1169.016,61.008 1163.826,47.992 1174.903,43.653 1191.019,43.653 1195.773,23.79 1111.513,71.938 1040.213,90.972 
	"/>
<polygon fill="none" points="0,103.199 93.657,74.812 141.063,109.343 205.396,74.812 302.997,55.312 368.984,20.814 
	537.075,61.312 600.611,7.315 693.067,65.812 760.146,30.801 841.56,38.813 900.057,30.801 949.554,0 978.579,53.812 
	1041.05,91.477 1111.513,71.938 1200.98,20.814 1200.98,180.869 0,180.869 "/>
<g>
</g>
<g>
</g>
<g>
</g>
<g>
</g>
<g>
</g>
<g>
</g>
</svg>
