<?xml version="1.0" encoding="utf-8"?>
<!-- Generator: Adobe Illustrator 16.0.0, SVG Export Plug-In . SVG Version: 6.00 Build 0)  -->
<!DOCTYPE svg PUBLIC "-//W3C//DTD SVG 1.1//EN" "http://www.w3.org/Graphics/SVG/1.1/DTD/svg11.dtd">
<svg version="1.1" id="Layer_1" xmlns="http://www.w3.org/2000/svg" xmlns:xlink="http://www.w3.org/1999/xlink" x="0px" y="0px"
	 width="307.177px" height="470.862px" viewBox="0 0 307.177 470.862" enable-background="new 0 0 307.177 470.862"
	 xml:space="preserve">
<g>
	<g>
	</g>
	<g>
		<g>
			<path fill="#FFFFFF" d="M195.352,60.045c-0.527-0.61-1.198-1.044-1.805-1.568c-1.011-0.873-1.522-2.091-1.888-3.346
				c-0.103-0.349-1.066-0.084-0.967,0.259c0.348,1.194,0.822,2.315,1.694,3.221c0.641,0.666,1.461,1.113,2.068,1.817
				C194.681,60.688,195.605,60.34,195.352,60.045L195.352,60.045z"/>
		</g>
	</g>
	<g>
		<g>
			<path fill="#FFFFFF" d="M259.69,223.43c-0.621,0-1.242,0-1.864,0c-0.218,0-0.506,0.072-0.638,0.264
				c-0.129,0.188,0.109,0.284,0.263,0.284c0.621,0,1.242,0,1.864,0c0.218,0,0.506-0.072,0.638-0.264
				C260.082,223.526,259.844,223.43,259.69,223.43L259.69,223.43z"/>
		</g>
	</g>
	<g>
		<g>
			<path fill="#FFFFFF" d="M201.556,251.721c0.394,0,1.016-0.598,0.361-0.598C201.523,251.123,200.901,251.721,201.556,251.721
				L201.556,251.721z"/>
		</g>
	</g>
	<g>
		<g>
			<path fill="#FFFFFF" d="M270.912,173.141c-0.62,0.662-1.331-0.143-1.61-0.74c-0.172-0.366-1.12-0.069-0.967,0.259
				c0.314,0.671,0.817,1.246,1.594,1.333c0.653,0.074,1.319-0.172,1.769-0.651C272.098,172.915,271.156,172.88,270.912,173.141
				L270.912,173.141z"/>
		</g>
	</g>
	<g>
		<g>
			<path fill="#FFFFFF" d="M256.768,63.506c-1.766-1.369-3.142-2.988-4.276-4.908c-0.228-0.385-1.146-0.014-0.883,0.431
				c1.168,1.976,2.603,3.637,4.417,5.043C256.374,64.343,257.213,63.851,256.768,63.506L256.768,63.506z"/>
		</g>
	</g>
	<g>
		<g>
			<path fill="#FFFFFF" d="M181.393,0.395c-0.004,0.186-0.017,0.363-0.055,0.545c-0.093,0.156-0.014,0.155,0.238-0.003
				c-0.084-0.02-0.159-0.065-0.233-0.107c-0.35-0.201-0.655-0.488-0.96-0.748c-0.315-0.271-1.166,0.189-0.746,0.548
				c0.465,0.398,0.99,0.929,1.633,0.993c0.806,0.08,1.085-0.64,1.1-1.306C182.38-0.18,181.401-0.028,181.393,0.395L181.393,0.395z"
				/>
		</g>
	</g>
	<g>
		<g>
			<path fill="#FFFFFF" d="M110.877,50.812c-0.412-0.473-0.587-0.739-0.588-1.367c0-0.274-0.966-0.098-0.966,0.259
				c0.001,0.67,0.217,0.975,0.654,1.476C110.186,51.418,111.108,51.076,110.877,50.812L110.877,50.812z"/>
		</g>
	</g>
	<g>
		<g>
			<path fill="#FFFFFF" d="M99.701,94.184c-1.242-0.711-2.484-1.422-3.727-2.132c-0.245-0.14-1.042,0.256-0.909,0.332
				c1.243,0.709,2.484,1.42,3.727,2.132C99.036,94.656,99.833,94.26,99.701,94.184L99.701,94.184z"/>
		</g>
	</g>
	<g>
		<g>
			<path fill="#FFFFFF" d="M132.62,205.048c-1.362-1.558-2.639-3.145-3.698-4.929c-0.167-0.281-1.081,0.066-0.966,0.259
				c1.077,1.814,2.373,3.437,3.759,5.022C131.903,205.615,132.82,205.277,132.62,205.048L132.62,205.048z"/>
		</g>
	</g>
	<g>
		<g>
			<path fill="#FFFFFF" d="M164.158,158.117c-0.621,0-1.242,0-1.863,0c-0.232,0-0.484,0.056-0.683,0.183
				c-0.15,0.096-0.133,0.216,0.058,0.216c0.621,0,1.242,0,1.863,0c0.232,0,0.484-0.056,0.683-0.183
				C164.366,158.237,164.349,158.117,164.158,158.117L164.158,158.117z"/>
		</g>
	</g>
	<g>
		<g>
			<path fill="#FFFFFF" d="M295.349,121.667c0.407,0,1.011-0.618,0.357-0.618C295.299,121.049,294.695,121.667,295.349,121.667
				L295.349,121.667z"/>
		</g>
	</g>
	<g>
		<g>
			<path fill="#FFFFFF" d="M306.891,175.078c-0.332-0.024-0.636-0.252-0.918-0.411c-0.298-0.167-0.602-0.274-0.943-0.3
				c-0.397-0.029-1.019,0.544-0.363,0.592c0.332,0.024,0.636,0.252,0.918,0.411c0.298,0.167,0.602,0.274,0.943,0.3
				C306.925,175.699,307.546,175.126,306.891,175.078L306.891,175.078z"/>
		</g>
	</g>
	<g>
		<g>
			<path fill="#FFFFFF" d="M303.436,251.962c-0.509-0.624-0.59-1.312-0.591-2.09c-0.001-0.197-0.967-0.046-0.967,0.258
				c0.002,0.827,0.114,1.517,0.651,2.174C302.693,252.505,303.611,252.177,303.436,251.962L303.436,251.962z"/>
		</g>
	</g>
	<g>
		<g>
			<path fill="#FFFFFF" d="M218.059,327.141c-0.621,0-1.243,0-1.864,0c-0.231,0-0.513,0.061-0.631,0.287
				c-0.105,0.199,0.09,0.373,0.285,0.373c0.621,0,1.243,0,1.864,0c0.231,0,0.513-0.061,0.631-0.287
				C218.449,327.314,218.254,327.141,218.059,327.141L218.059,327.141z"/>
		</g>
	</g>
	<g>
		<g>
			<path fill="#FFFFFF" d="M252.981,340.593c-2.331-0.108-4.134-2.07-6.068-3.162c-0.248-0.141-1.047,0.256-0.908,0.334
				c2.056,1.161,3.87,3.12,6.354,3.236C252.571,341.011,253.468,340.616,252.981,340.593L252.981,340.593z"/>
		</g>
	</g>
	<g>
		<g>
			<path fill="#FFFFFF" d="M188.731,382.542c-0.326,0-0.765,0.053-0.791-0.378c-0.032-0.52-1.008-0.377-0.98,0.068
				c0.059,0.961,0.893,1.038,1.691,1.04C189.212,383.272,189.386,382.544,188.731,382.542L188.731,382.542z"/>
		</g>
	</g>
	<g>
		<g>
			<path fill="#FFFFFF" d="M180.812,317.982c-1.45,0-2.899,0-4.349,0c-0.327,0-1.041,0.496-0.391,0.496c1.45,0,2.899,0,4.349,0
				C180.749,318.479,181.463,317.982,180.812,317.982L180.812,317.982z"/>
		</g>
	</g>
	<g>
		<g>
			<path fill="#FFFFFF" d="M247.563,314.548c-0.753-1.652-2.071-2.91-3.757-3.588c-0.266-0.107-1.006,0.29-0.91,0.328
				c1.66,0.668,2.958,1.887,3.7,3.52C246.705,315.044,247.639,314.716,247.563,314.548L247.563,314.548z"/>
		</g>
	</g>
	<g>
		<g>
			<path fill="#FFFFFF" d="M106.524,136.789c-0.935-1.066-1.852-2.18-2.447-3.478c-0.181-0.395-1.133-0.106-0.966,0.259
				c0.621,1.354,1.548,2.514,2.524,3.628C105.901,137.5,106.823,137.129,106.524,136.789L106.524,136.789z"/>
		</g>
	</g>
	<g>
		<g>
			<path fill="#FFFFFF" d="M72.98,13.828c-0.979-1.694-1.83-3.476-3.105-4.974c-0.274-0.322-1.195,0.056-0.887,0.418
				c1.276,1.499,2.126,3.28,3.105,4.974C72.302,14.605,73.227,14.254,72.98,13.828L72.98,13.828z"/>
		</g>
	</g>
	<g>
		<g>
			<path fill="#FFFFFF" d="M220.247,25.814c-1.061-1.764-2.422-3.308-3.774-4.849c-0.194-0.222-1.113,0.118-0.902,0.358
				c1.325,1.51,2.672,3.021,3.71,4.75C219.455,26.363,220.37,26.019,220.247,25.814L220.247,25.814z"/>
		</g>
	</g>
	<g>
		<g>
			<path fill="#FFFFFF" d="M294.77,60.107c-0.56-1.378-0.619-2.797-0.62-4.266c-0.001-0.173-0.967-0.029-0.967,0.259
				c0.002,1.469,0.062,2.888,0.62,4.266C293.902,60.611,294.848,60.301,294.77,60.107L294.77,60.107z"/>
		</g>
	</g>
	<g>
		<g>
			<path fill="#FFFFFF" d="M289.759,308.062c-1.277-1.498-2.128-3.28-3.106-4.977c-0.231-0.4-1.146-0.021-0.881,0.438
				c0.979,1.695,1.829,3.478,3.106,4.977C289.18,308.854,290.093,308.455,289.759,308.062L289.759,308.062z"/>
		</g>
	</g>
	<g>
		<g>
			<path fill="#FFFFFF" d="M81.677,367.779c-0.207-0.237-0.414-0.475-0.621-0.711c-0.262-0.3-1.184,0.069-0.89,0.406
				c0.207,0.237,0.414,0.475,0.621,0.711C81.049,368.485,81.972,368.116,81.677,367.779L81.677,367.779z"/>
		</g>
	</g>
	<g>
		<g>
			<path fill="#FFFFFF" d="M51.285,302.556c-0.046-1.171-1.126-1.695-2.183-1.723c-0.232-0.006-0.516,0.062-0.63,0.291
				c-0.103,0.204,0.089,0.384,0.29,0.389c0.693,0.019,1.515,0.307,1.547,1.123C50.328,303.131,51.302,302.969,51.285,302.556
				L51.285,302.556z"/>
		</g>
	</g>
	<g>
		<g>
			<path fill="#FFFFFF" d="M41.306,330.126c-1.462-1.629-3.235-2.942-4.969-4.265c-0.269-0.205-1.156,0.178-0.897,0.375
				c1.733,1.322,3.507,2.636,4.969,4.265C40.629,330.747,41.551,330.398,41.306,330.126L41.306,330.126z"/>
		</g>
	</g>
	<g>
		<g>
			<path fill="#FFFFFF" d="M31.3,306.603c-1.504-0.84-3.095-1.49-4.283-2.787c-0.262-0.286-1.183,0.083-0.891,0.402
				c1.229,1.342,2.859,2.028,4.417,2.898C30.865,307.296,31.739,306.848,31.3,306.603L31.3,306.603z"/>
		</g>
	</g>
	<g>
		<g>
			<path fill="#FFFFFF" d="M27.014,356.397c-0.414-0.474-0.828-0.947-1.242-1.422c-0.292-0.333-1.208,0.056-0.884,0.428
				c0.414,0.474,0.828,0.947,1.242,1.422C26.422,357.158,27.339,356.77,27.014,356.397L27.014,356.397z"/>
		</g>
	</g>
	<g>
		<g>
			<path fill="#FFFFFF" d="M36.959,393.388c-0.731-0.838-1.185-1.651-1.209-2.789c-0.005-0.263-0.973-0.086-0.966,0.258
				c0.025,1.181,0.518,2.029,1.273,2.895C36.258,393.979,37.179,393.64,36.959,393.388L36.959,393.388z"/>
		</g>
	</g>
	<g>
		<g>
			<path fill="#FFFFFF" d="M66.808,343.688c0-0.475,0-0.947,0-1.422c0-0.278-0.966-0.102-0.966,0.26c0,0.473,0,0.947,0,1.42
				C65.842,344.226,66.808,344.049,66.808,343.688L66.808,343.688z"/>
		</g>
	</g>
	<g>
		<g>
			<path fill="#FFFFFF" d="M23.028,177.924c-0.207,0-0.414,0-0.621,0c-0.222,0-0.508,0.068-0.635,0.271
				c-0.121,0.192,0.102,0.313,0.27,0.313c0.207,0,0.414,0,0.621,0c0.222,0,0.508-0.068,0.635-0.271
				C23.419,178.045,23.197,177.924,23.028,177.924L23.028,177.924z"/>
		</g>
	</g>
	<g>
		<g>
			<path fill="#FFFFFF" d="M38.683,141.751c-0.65-0.049-1.035-0.745-1.069-1.332c-0.013-0.219-0.983-0.042-0.966,0.259
				c0.044,0.779,0.627,1.45,1.419,1.509c0.229,0.017,0.495-0.049,0.683-0.183C38.903,141.896,38.874,141.765,38.683,141.751
				L38.683,141.751z"/>
		</g>
	</g>
	<g>
		<g>
			<path fill="#FFFFFF" d="M79.231,130.468c-0.016-0.396-0.179-0.744-0.355-1.092c-0.296-0.584-0.618-1.151-0.886-1.751
				c-0.159-0.357-1.109-0.062-0.966,0.259c0.248,0.555,0.533,1.088,0.819,1.625c0.205,0.383,0.404,0.777,0.422,1.218
				C78.279,131.065,79.247,130.862,79.231,130.468L79.231,130.468z"/>
		</g>
	</g>
	<g>
		<g>
			<path fill="#FFFFFF" d="M55.204,69.179c-0.586,0.046-1.151,0.422-1.164,1.059c-0.009,0.439,0.963,0.252,0.97-0.105
				c0.002-0.11,0.071-0.36,0.078-0.361C55.586,69.732,55.87,69.127,55.204,69.179L55.204,69.179z"/>
		</g>
	</g>
	<g>
		<g>
			<path fill="#FFFFFF" d="M107.149,165.945c-0.621-0.71-1.244-1.421-1.865-2.132c-0.222-0.253-1.146,0.094-0.896,0.379
				c0.621,0.71,1.244,1.421,1.865,2.132C106.475,166.577,107.398,166.229,107.149,165.945L107.149,165.945z"/>
		</g>
	</g>
	<g>
		<g>
			<path fill="#FFFFFF" d="M146.003,3.041c-0.67-0.049-1.167-0.661-1.863-0.711c-0.229-0.017-0.519,0.07-0.631,0.289
				c-0.107,0.209,0.093,0.368,0.288,0.382c0.67,0.049,1.167,0.661,1.863,0.711c0.229,0.017,0.519-0.07,0.631-0.289
				C146.398,3.213,146.198,3.055,146.003,3.041L146.003,3.041z"/>
		</g>
	</g>
	<g>
		<g>
			<path fill="#FFFFFF" d="M226.892,249.493c0.21,0,1.104-0.406,0.623-0.406C227.305,249.087,226.411,249.493,226.892,249.493
				L226.892,249.493z"/>
		</g>
	</g>
	<g>
		<g>
			<path fill="#FFFFFF" d="M9.005,192.231c-0.794-0.938-1.354-2.187-2.752-2.242c-0.224-0.009-0.514,0.07-0.634,0.279
				c-0.115,0.201,0.098,0.335,0.277,0.342c1.084,0.042,1.607,1.3,2.218,2.021C8.362,192.924,9.287,192.564,9.005,192.231
				L9.005,192.231z"/>
		</g>
	</g>
	<g>
		<g>
			<path fill="#FFFFFF" d="M26.438,215.841c0-0.254,0.011-0.517-0.067-0.761c-0.102-0.316-0.386-0.58-0.597-0.821
				c-0.27-0.309-1.191,0.065-0.888,0.412c0.38,0.435,0.577,0.675,0.578,1.257C25.464,216.409,26.439,216.242,26.438,215.841
				L26.438,215.841z"/>
		</g>
	</g>
	<g>
		<g>
			<path fill="#FFFFFF" d="M28.267,196.516c-0.414-0.473-0.589-0.743-0.59-1.372c0-0.248-0.966-0.08-0.966,0.259
				c0.001,0.67,0.216,0.971,0.654,1.472C27.56,197.099,28.479,196.76,28.267,196.516L28.267,196.516z"/>
		</g>
	</g>
	<g>
		<g>
			<path fill="#B4E1F8" d="M1.586,267.64c-0.042-0.759-0.578-1.373-0.62-2.133c-0.014-0.259-0.984-0.073-0.966,0.26
				c0.042,0.759,0.578,1.373,0.62,2.133C0.635,268.158,1.605,267.973,1.586,267.64L1.586,267.64z"/>
		</g>
	</g>
	<g>
		<g>
			<path fill="#FFFFFF" d="M20.551,340c-0.414,0-0.828,0-1.241,0c-0.216,0-0.504,0.074-0.639,0.26
				c-0.134,0.186,0.114,0.268,0.257,0.268c0.414,0,0.828,0,1.241,0c0.216,0,0.504-0.074,0.639-0.26
				C20.943,340.082,20.695,340,20.551,340L20.551,340z"/>
		</g>
	</g>
	<g>
		<g>
			<path fill="#FFFFFF" d="M15.832,392.643c-0.207-0.237-0.414-0.476-0.621-0.713c-0.304-0.349-1.217,0.05-0.882,0.436
				c0.207,0.237,0.414,0.476,0.621,0.713C15.253,393.427,16.167,393.028,15.832,392.643L15.832,392.643z"/>
		</g>
	</g>
	<g>
		<g>
			<path fill="#FFFFFF" d="M165.571,297.491c-0.016-0.384-0.161-0.736-0.289-1.094c-0.205-0.57-0.32-1.144-0.332-1.75
				c-0.007-0.334-0.975-0.137-0.967,0.258c0.012,0.563,0.111,1.091,0.289,1.624c0.134,0.402,0.315,0.79,0.332,1.22
				C164.618,298.087,165.587,297.885,165.571,297.491L165.571,297.491z"/>
		</g>
	</g>
	<g>
		<g>
			<path fill="#FFFFFF" d="M229.507,291.716c-0.74-0.812-1.746-1.323-2.484-2.133c-0.31-0.34-1.223,0.061-0.881,0.436
				c0.74,0.812,1.745,1.323,2.484,2.133C228.936,292.491,229.849,292.09,229.507,291.716L229.507,291.716z"/>
		</g>
	</g>
	<g>
		<g>
			<path fill="#FFFFFF" d="M281.075,257.65c-0.207-0.236-0.414-0.474-0.621-0.711c-0.165-0.189-1.071,0.148-0.908,0.336
				c0.207,0.236,0.414,0.474,0.621,0.711C280.332,258.176,281.238,257.838,281.075,257.65L281.075,257.65z"/>
		</g>
	</g>
	<g>
		<g>
			<path fill="#FFFFFF" d="M237.596,51.543c-0.207-0.237-0.414-0.474-0.621-0.711c-0.157-0.18-1.057,0.16-0.91,0.328
				c0.207,0.237,0.414,0.474,0.621,0.711C236.843,52.051,237.742,51.711,237.596,51.543L237.596,51.543z"/>
		</g>
	</g>
	<g>
		<g>
			<path fill="#FFFFFF" d="M99.693,57.911c-0.85-0.874-2.243-0.805-3.368-0.805c-0.221,0-0.507,0.069-0.636,0.269
				c-0.124,0.191,0.104,0.303,0.267,0.303c0.933,0,2.135-0.109,2.843,0.619C99.045,58.55,99.963,58.188,99.693,57.911L99.693,57.911
				z"/>
		</g>
	</g>
	<g>
		<g>
			<path fill="#FFFFFF" d="M103.458,176.666c-0.011-0.546-0.414-0.805-0.915-0.844c-0.353-0.027-1.033,0.475-0.382,0.525
				c0.249,0.019,0.327,0.379,0.331,0.578C102.498,177.21,103.465,177.026,103.458,176.666L103.458,176.666z"/>
		</g>
	</g>
	<g>
		<g>
			<path fill="#FFFFFF" d="M240.049,247.392c0.308,0,1.047-0.467,0.398-0.467C240.14,246.925,239.4,247.392,240.049,247.392
				L240.049,247.392z"/>
		</g>
	</g>
	<g>
		<g>
			<path fill="#FFFFFF" d="M214.604,314.477c-0.522-0.598-1.04-1.202-1.697-1.655c-0.669-0.461-1.507-0.577-2.299-0.59
				c-0.415-0.007-1.009,0.616-0.354,0.627c1.612,0.026,2.45,0.866,3.459,2.021C213.97,315.172,214.893,314.807,214.604,314.477
				L214.604,314.477z"/>
		</g>
	</g>
	<g>
		<g>
			<path fill="#FFFFFF" d="M142.415,293.142c-0.866-0.042-1.611-0.669-2.486-0.711c-0.231-0.012-0.491,0.05-0.683,0.183
				c-0.15,0.104-0.126,0.236,0.066,0.245c0.866,0.042,1.611,0.669,2.486,0.711c0.231,0.012,0.491-0.05,0.683-0.183
				C142.631,293.282,142.607,293.15,142.415,293.142L142.415,293.142z"/>
		</g>
	</g>
	<g>
		<g>
			<path fill="#FFFFFF" d="M83.756,251.759c-0.426-0.001-0.563-0.238-0.841-0.556c-0.306-0.35-1.219,0.051-0.881,0.438
				c0.216,0.247,0.434,0.544,0.724,0.71c0.285,0.162,0.604,0.156,0.924,0.156C84.249,252.508,84.41,251.76,83.756,251.759
				L83.756,251.759z"/>
		</g>
	</g>
	<g>
		<g>
			<path fill="#FFFFFF" d="M61.84,205.095c0-0.237,0-0.474,0-0.711c0-0.251-0.966-0.083-0.966,0.259c0,0.237,0,0.474,0,0.711
				C60.875,205.605,61.84,205.437,61.84,205.095L61.84,205.095z"/>
		</g>
	</g>
	<g>
		<g>
			<path fill="#FFFFFF" d="M178.973,134.727c-0.111,0.119-0.248,0.296-0.424,0.323c-0.214,0.033-0.477-0.27-0.596-0.397
				c-0.292-0.312-1.209,0.075-0.887,0.42c0.844,0.901,1.887,0.804,2.711-0.075C180.192,134.555,179.26,134.42,178.973,134.727
				L178.973,134.727z"/>
		</g>
	</g>
	<g>
		<g>
			<path fill="#FFFFFF" d="M231.241,130.395c-0.119,0-0.345,0.049-0.411-0.081c-0.076-0.15-0.039-0.397-0.039-0.557
				c-0.001-0.17-0.967-0.026-0.967,0.259c0.001,0.229-0.037,0.492,0.123,0.675c0.131,0.15,0.501,0.108,0.671,0.108
				c0.233,0,0.484-0.054,0.683-0.183C231.45,130.52,231.433,130.395,231.241,130.395L231.241,130.395z"/>
		</g>
	</g>
	<g>
		<g>
			<path fill="#FFFFFF" d="M249.697,154.099c-0.036,0.441-0.877,0.343-1.199,0.343c-0.229,0-0.512,0.062-0.633,0.283
				c-0.108,0.198,0.093,0.357,0.281,0.357c0.782,0,2.436,0.015,2.523-1.077C250.708,153.545,249.729,153.707,249.697,154.099
				L249.697,154.099z"/>
		</g>
	</g>
	<g>
		<g>
			<path fill="#FFFFFF" d="M251.009,181.548c-0.828,0-1.656,0-2.484,0c-0.294,0-1.051,0.444-0.404,0.444c0.828,0,1.656,0,2.484,0
				C250.898,181.993,251.655,181.548,251.009,181.548L251.009,181.548z"/>
		</g>
	</g>
	<g>
		<g>
			<path fill="#FFFFFF" d="M271.793,241.433c-0.052-2.198-1.31-3.737-3.313-4.543c-0.396-0.159-1.129,0.407-0.562,0.635
				c1.738,0.699,2.854,2.082,2.899,3.988C270.828,242.01,271.803,241.851,271.793,241.433L271.793,241.433z"/>
		</g>
	</g>
	<g>
		<g>
			<path fill="#FFFFFF" d="M190.751,367.029c-0.306-0.016-0.623-0.29-0.862-0.456c-0.449-0.312-0.894-0.625-1.366-0.901
				c-0.189-0.111-0.438-0.062-0.633,0.016c-0.055,0.022-0.452,0.235-0.27,0.342c0.848,0.496,1.71,1.432,2.738,1.484
				C190.682,367.53,191.4,367.062,190.751,367.029L190.751,367.029z"/>
		</g>
	</g>
	<g>
	</g>
	<g>
		<g>
			<path fill="#FFFFFF" d="M118.937,415.884c0.371,0,1.025-0.562,0.372-0.562C118.938,415.321,118.284,415.884,118.937,415.884
				L118.937,415.884z"/>
		</g>
	</g>
	<g>
		<g>
			<path fill="#FFFFFF" d="M79.569,352.578c1.216-0.661,2.173-0.312,3.081,0.677c0.254,0.276,1.176-0.088,0.893-0.396
				c-1.229-1.338-2.771-1.614-4.373-0.743C78.587,352.432,79.122,352.821,79.569,352.578L79.569,352.578z"/>
		</g>
	</g>
	<g>
		<g>
			<path fill="#FFFFFF" d="M50.609,247.433c0.621,0,1.242,0,1.863,0c0.218,0,0.506-0.072,0.638-0.264
				c0.129-0.188-0.109-0.285-0.262-0.285c-0.621,0-1.242,0-1.863,0c-0.218,0-0.506,0.072-0.638,0.264
				C50.218,247.336,50.456,247.433,50.609,247.433L50.609,247.433z"/>
		</g>
	</g>
	<g>
		<g>
			<path fill="#FFFFFF" d="M47.375,178.404c0.527,0.001,1.037,0.015,1.076,0.653c0.009,0.151,0.981-0.01,0.966-0.259
				c-0.046-0.766-0.805-0.768-1.41-0.769c-0.229,0-0.485,0.066-0.683,0.183C47.168,178.305,47.192,178.403,47.375,178.404
				L47.375,178.404z"/>
		</g>
	</g>
	<g>
		<g>
			<path fill="#FFFFFF" d="M88.24,294.26c0.529,0.646,0.71,1.482,1.242,2.131c0.223,0.271,1.151-0.074,0.895-0.387
				c-0.53-0.646-0.711-1.481-1.242-2.131C88.913,293.602,87.984,293.947,88.24,294.26L88.24,294.26z"/>
		</g>
	</g>
	<g>
		<g>
			<path fill="#FFFFFF" d="M39.389,297.721c0.62-0.664,1.328,0.143,1.606,0.739c0.171,0.366,1.119,0.069,0.966-0.258
				c-0.313-0.672-0.815-1.247-1.592-1.335c-0.653-0.074-1.319,0.173-1.767,0.652C38.204,297.947,39.146,297.981,39.389,297.721
				L39.389,297.721z"/>
		</g>
	</g>
	<g>
		<g>
			<path fill="#FFFFFF" d="M53.531,407.356c1.766,1.367,3.142,2.988,4.278,4.906c0.228,0.385,1.146,0.015,0.883-0.43
				c-1.169-1.975-2.604-3.638-4.419-5.043C53.925,406.52,53.086,407.012,53.531,407.356L53.531,407.356z"/>
		</g>
	</g>
	<g>
		<g>
			<path fill="#FFFFFF" d="M128.907,470.468c0.004-0.187,0.016-0.363,0.054-0.546c0.093-0.155,0.013-0.154-0.239,0.005
				c0.084,0.019,0.16,0.064,0.233,0.106c0.349,0.201,0.655,0.487,0.96,0.748c0.316,0.27,1.167-0.19,0.747-0.549
				c-0.466-0.397-0.991-0.928-1.633-0.991c-0.806-0.08-1.085,0.64-1.1,1.305C127.918,471.043,128.897,470.891,128.907,470.468
				L128.907,470.468z"/>
		</g>
	</g>
	<g>
		<g>
			<path fill="#FFFFFF" d="M199.422,420.053c0.414,0.472,0.589,0.737,0.589,1.364c0.001,0.274,0.967,0.099,0.967-0.258
				c-0.001-0.672-0.217-0.975-0.655-1.476C200.113,419.446,199.191,419.789,199.422,420.053L199.422,420.053z"/>
		</g>
	</g>
	<g>
		<g>
			<path fill="#FFFFFF" d="M168.987,363.196c1.274,1.457,2.582,2.856,4.411,3.598c0.289,0.117,1.171-0.304,0.77-0.467
				c-1.784-0.723-3.042-2.09-4.284-3.508C169.663,362.566,168.739,362.914,168.987,363.196L168.987,363.196z"/>
		</g>
	</g>
	<g>
		<g>
			<path fill="#FFFFFF" d="M177.679,265.812c1.362,1.558,2.64,3.144,3.697,4.929c0.167,0.28,1.081-0.066,0.967-0.26
				c-1.076-1.814-2.374-3.436-3.76-5.021C178.396,265.247,177.479,265.584,177.679,265.812L177.679,265.812z"/>
		</g>
	</g>
	<g>
		<g>
			<path fill="#FFFFFF" d="M224.89,281.456c0.529,0.646,0.711,1.482,1.242,2.131c0.194,0.237,1.12-0.097,0.9-0.365
				c-0.529-0.646-0.711-1.481-1.242-2.131C225.596,280.854,224.67,281.188,224.89,281.456L224.89,281.456z"/>
		</g>
	</g>
	<g>
		<g>
			<path fill="#FFFFFF" d="M147.243,230.276c0.738,0.84,1.515,1.563,2.485,2.132c0.184,0.108,0.443,0.045,0.629-0.027
				c0.05-0.02,0.451-0.221,0.275-0.324c-0.971-0.568-1.748-1.292-2.485-2.132C147.963,229.715,147.047,230.053,147.243,230.276
				L147.243,230.276z"/>
		</g>
	</g>
	<g>
		<g>
			<path fill="#FFFFFF" d="M14.324,349.703c1.324,1.513,2.674,3.264,4.417,4.318c0.312,0.189,1.188-0.248,0.758-0.508
				c-1.687-1.021-3-2.744-4.283-4.211C14.963,349.016,14.04,349.378,14.324,349.703L14.324,349.703z"/>
		</g>
	</g>
	<g>
		<g>
			<path fill="#FFFFFF" d="M3.406,295.784c0.333,0.024,0.637,0.252,0.92,0.41c0.299,0.167,0.604,0.273,0.946,0.299
				c0.397,0.028,1.019-0.544,0.364-0.592c-0.334-0.023-0.638-0.251-0.922-0.41c-0.298-0.167-0.603-0.273-0.944-0.299
				C3.372,295.164,2.751,295.736,3.406,295.784L3.406,295.784z"/>
		</g>
	</g>
	<g>
		<g>
			<path fill="#FFFFFF" d="M6.863,218.899c0.509,0.624,0.59,1.312,0.591,2.091c0,0.197,0.966,0.045,0.966-0.259
				c-0.001-0.828-0.114-1.517-0.651-2.174C7.605,218.356,6.688,218.685,6.863,218.899L6.863,218.899z"/>
		</g>
	</g>
	<g>
		<g>
			<path fill="#FFFFFF" d="M92.241,143.72c0.621,0,1.242,0,1.863,0c0.231,0,0.512-0.061,0.631-0.287
				c0.104-0.199-0.09-0.373-0.286-0.373c-0.621,0-1.242,0-1.863,0c-0.231,0-0.512,0.061-0.631,0.287
				C91.851,143.547,92.045,143.72,92.241,143.72L92.241,143.72z"/>
		</g>
	</g>
	<g>
		<g>
			<path fill="#FFFFFF" d="M57.319,130.268c2.33,0.109,4.133,2.071,6.066,3.162c0.249,0.14,1.047-0.256,0.909-0.334
				c-2.056-1.161-3.87-3.119-6.352-3.235C57.729,129.85,56.833,130.245,57.319,130.268L57.319,130.268z"/>
		</g>
	</g>
	<g>
		<g>
			<path fill="#FFFFFF" d="M121.567,88.317c0.328,0,0.767-0.052,0.793,0.38c0.032,0.52,1.007,0.377,0.98-0.067
				c-0.059-0.964-0.893-1.041-1.693-1.042C121.087,87.586,120.913,88.316,121.567,88.317L121.567,88.317z"/>
		</g>
	</g>
	<g>
		<g>
			<path fill="#FFFFFF" d="M160.992,128.555c2.016,1.319,3.864,2.841,5.519,4.594c0.319,0.338,1.23-0.067,0.881-0.438
				c-1.7-1.802-3.588-3.379-5.661-4.736C161.35,127.726,160.519,128.245,160.992,128.555L160.992,128.555z"/>
		</g>
	</g>
	<g>
		<g>
			<path fill="#FFFFFF" d="M129.489,152.877c1.449,0,2.898,0,4.348,0c0.326,0,1.041-0.495,0.39-0.495c-1.449,0-2.898,0-4.348,0
				C129.552,152.382,128.838,152.877,129.489,152.877L129.489,152.877z"/>
		</g>
	</g>
	<g>
		<g>
			<path fill="#FFFFFF" d="M62.736,156.313c0.752,1.652,2.071,2.91,3.755,3.589c0.266,0.107,1.006-0.291,0.91-0.329
				c-1.659-0.669-2.957-1.887-3.7-3.519C63.594,155.818,62.66,156.146,62.736,156.313L62.736,156.313z"/>
		</g>
	</g>
	<g>
		<g>
			<path fill="#FFFFFF" d="M237.318,457.034c0.98,1.693,1.83,3.476,3.106,4.975c0.274,0.322,1.194-0.056,0.887-0.418
				c-1.276-1.499-2.126-3.281-3.106-4.975C237.997,456.257,237.071,456.607,237.318,457.034L237.318,457.034z"/>
		</g>
	</g>
	<g>
		<g>
			<path fill="#FFFFFF" d="M90.053,445.05c1.061,1.762,2.421,3.305,3.771,4.847c0.194,0.222,1.113-0.116,0.902-0.357
				c-1.323-1.511-2.668-3.021-3.708-4.747C90.845,444.502,89.93,444.846,90.053,445.05L90.053,445.05z"/>
		</g>
	</g>
	<g>
		<g>
			<path fill="#FFFFFF" d="M15.529,410.757c0.561,1.378,0.62,2.796,0.621,4.264c0,0.174,0.966,0.029,0.966-0.258
				c-0.001-1.469-0.061-2.887-0.621-4.264C16.395,410.254,15.45,410.563,15.529,410.757L15.529,410.757z"/>
		</g>
	</g>
	<g>
		<g>
			<path fill="#FFFFFF" d="M20.541,162.799c1.276,1.499,2.127,3.281,3.106,4.975c0.231,0.401,1.146,0.021,0.881-0.437
				c-0.979-1.695-1.83-3.477-3.106-4.975C21.12,162.008,20.207,162.407,20.541,162.799L20.541,162.799z"/>
		</g>
	</g>
	<g>
		<g>
			<path fill="#FFFFFF" d="M259.015,168.307c0.047,1.169,1.124,1.693,2.181,1.721c0.232,0.006,0.516-0.063,0.63-0.291
				c0.103-0.204-0.089-0.383-0.29-0.389c-0.691-0.018-1.512-0.307-1.544-1.122C259.972,167.731,258.998,167.894,259.015,168.307
				L259.015,168.307z"/>
		</g>
	</g>
	<g>
		<g>
			<path fill="#FFFFFF" d="M268.99,140.736c1.465,1.627,3.237,2.941,4.971,4.264c0.269,0.205,1.157-0.178,0.898-0.375
				c-1.733-1.323-3.507-2.637-4.971-4.264C269.667,140.115,268.746,140.463,268.99,140.736L268.99,140.736z"/>
		</g>
	</g>
	<g>
		<g>
			<path fill="#FFFFFF" d="M224.235,159.867c0.394,0.479,0.611,1.413,1.326,1.47c0.229,0.018,0.465-0.036,0.674-0.129
				c0.052-0.023,0.351-0.21,0.125-0.228c-0.569-0.045-0.838-0.98-1.158-1.372C225.021,159.388,224.185,159.804,224.235,159.867
				L224.235,159.867z"/>
		</g>
	</g>
	<g>
		<g>
			<path fill="#FFFFFF" d="M279.001,164.259c1.503,0.841,3.093,1.49,4.28,2.788c0.262,0.286,1.184-0.083,0.891-0.402
				c-1.229-1.342-2.858-2.027-4.415-2.898C279.436,163.566,278.562,164.014,279.001,164.259L279.001,164.259z"/>
		</g>
	</g>
	<g>
		<g>
			<path fill="#FFFFFF" d="M243.491,127.174c0,0.474,0,0.947,0,1.421c0,0.279,0.967,0.102,0.967-0.259c0-0.474,0-0.947,0-1.421
				C244.458,126.636,243.491,126.813,243.491,127.174L243.491,127.174z"/>
		</g>
	</g>
	<g>
		<g>
			<path fill="#FFFFFF" d="M287.271,292.938c0.207,0,0.414,0,0.621,0c0.222,0,0.508-0.068,0.636-0.271
				c0.12-0.193-0.102-0.314-0.271-0.314c-0.207,0-0.414,0-0.621,0c-0.222,0-0.508,0.068-0.636,0.271
				C286.88,292.816,287.102,292.938,287.271,292.938L287.271,292.938z"/>
		</g>
	</g>
	<g>
		<g>
			<path fill="#FFFFFF" d="M271.618,329.11c0.65,0.049,1.033,0.746,1.066,1.332c0.013,0.22,0.983,0.043,0.967-0.258
				c-0.045-0.779-0.626-1.451-1.418-1.51c-0.229-0.018-0.494,0.05-0.683,0.183C271.397,328.966,271.427,329.096,271.618,329.11
				L271.618,329.11z"/>
		</g>
	</g>
	<g>
		<g>
			<path fill="#FFFFFF" d="M255.096,401.685c0.588-0.046,1.151-0.424,1.165-1.061c0.009-0.439-0.963-0.252-0.971,0.105
				c-0.002,0.11-0.07,0.361-0.077,0.361C254.714,401.13,254.43,401.736,255.096,401.685L255.096,401.685z"/>
		</g>
	</g>
	<g>
		<g>
			<path fill="#FFFFFF" d="M164.296,467.821c0.67,0.049,1.166,0.66,1.863,0.711c0.228,0.017,0.519-0.07,0.63-0.29
				c0.107-0.209-0.093-0.367-0.288-0.382c-0.67-0.049-1.166-0.66-1.863-0.711c-0.228-0.017-0.519,0.07-0.63,0.29
				C163.9,467.648,164.101,467.807,164.296,467.821L164.296,467.821z"/>
		</g>
	</g>
	<g>
		<g>
			<path fill="#FFFFFF" d="M82.613,221.702c0.043,0.711,0.838,0.991,1.272,1.458c0.173,0.186,1.07-0.161,0.909-0.334
				c-0.413-0.443-1.175-0.716-1.216-1.383C83.567,221.254,82.596,221.425,82.613,221.702L82.613,221.702z"/>
		</g>
	</g>
	<g>
		<g>
			<path fill="#FFFFFF" d="M301.295,278.63c0.794,0.939,1.354,2.188,2.754,2.243c0.224,0.009,0.513-0.07,0.633-0.279
				c0.116-0.2-0.098-0.335-0.277-0.342c-1.085-0.043-1.607-1.3-2.219-2.022C301.938,277.937,301.014,278.297,301.295,278.63
				L301.295,278.63z"/>
		</g>
	</g>
	<g>
		<g>
			<path fill="#FFFFFF" d="M283.862,255.02c0,0.254-0.012,0.517,0.067,0.761c0.103,0.316,0.386,0.581,0.597,0.823
				c0.27,0.31,1.191-0.064,0.889-0.412c-0.38-0.435-0.577-0.676-0.578-1.258C284.837,254.452,283.861,254.619,283.862,255.02
				L283.862,255.02z"/>
		</g>
	</g>
	<g>
		<g>
			<path fill="#FFFFFF" d="M282.033,274.346c0.414,0.473,0.59,0.742,0.59,1.372c0.001,0.247,0.967,0.079,0.967-0.26
				c-0.001-0.671-0.216-0.971-0.654-1.472C282.74,273.763,281.82,274.102,282.033,274.346L282.033,274.346z"/>
		</g>
	</g>
	<g>
		<g>
			<path fill="#FFFFFF" d="M289.749,130.86c0.414,0,0.828,0,1.242,0c0.216,0,0.504-0.074,0.639-0.259
				c0.134-0.185-0.113-0.267-0.258-0.267c-0.414,0-0.828,0-1.242,0c-0.216,0-0.504,0.074-0.639,0.259
				C289.357,130.778,289.604,130.86,289.749,130.86L289.749,130.86z"/>
		</g>
	</g>
	<g>
		<g>
			<path fill="#FFFFFF" d="M196.934,127.216c1.348,1.579,2.382,3.395,3.729,4.975c0.171,0.201,1.085-0.133,0.906-0.343
				c-1.347-1.58-2.381-3.396-3.729-4.975C197.669,126.672,196.755,127.006,196.934,127.216L196.934,127.216z"/>
		</g>
	</g>
	<g>
		<g>
			<path fill="#FFFFFF" d="M195.041,164.842c0.614,1.372,1.531,2.468,2.513,3.591c0.163,0.187,1.068-0.151,0.908-0.334
				c-0.959-1.099-1.854-2.175-2.454-3.516C195.897,164.337,194.96,164.661,195.041,164.842L195.041,164.842z"/>
		</g>
	</g>
	<g>
		<g>
			<path fill="#FFFFFF" d="M144.728,173.371c0.015,0.383,0.16,0.735,0.289,1.092c0.205,0.571,0.32,1.143,0.333,1.75
				c0.007,0.333,0.974,0.136,0.966-0.259c-0.012-0.562-0.111-1.091-0.289-1.624c-0.133-0.402-0.315-0.79-0.333-1.219
				C145.68,172.775,144.712,172.978,144.728,173.371L144.728,173.371z"/>
		</g>
	</g>
	<g>
		<g>
			<path fill="#FFFFFF" d="M80.792,179.146c0.741,0.812,1.746,1.324,2.485,2.132c0.311,0.339,1.224-0.062,0.882-0.436
				c-0.742-0.81-1.747-1.322-2.485-2.132C81.364,178.37,80.451,178.771,80.792,179.146L80.792,179.146z"/>
		</g>
	</g>
	<g>
		<g>
			<path fill="#FFFFFF" d="M29.224,213.21c0.207,0.237,0.414,0.474,0.621,0.71c0.166,0.189,1.072-0.148,0.908-0.335
				c-0.207-0.237-0.414-0.474-0.621-0.71C29.966,212.686,29.06,213.024,29.224,213.21L29.224,213.21z"/>
		</g>
	</g>
	<g>
		<g>
			<path fill="#FFFFFF" d="M72.703,419.319c0.207,0.237,0.414,0.476,0.621,0.713c0.157,0.18,1.057-0.16,0.91-0.328
				c-0.207-0.237-0.414-0.476-0.621-0.713C73.457,418.812,72.556,419.151,72.703,419.319L72.703,419.319z"/>
		</g>
	</g>
	<g>
		<g>
			<path fill="#FFFFFF" d="M210.604,412.953c0.853,0.872,2.245,0.802,3.37,0.803c0.221,0,0.507-0.069,0.636-0.269
				c0.124-0.191-0.104-0.304-0.267-0.304c-0.933-0.001-2.136,0.109-2.845-0.615C211.252,412.314,210.334,412.678,210.604,412.953
				L210.604,412.953z"/>
		</g>
	</g>
	<g>
		<g>
			<path fill="#FFFFFF" d="M206.843,294.196c0.012,0.545,0.413,0.804,0.913,0.843c0.354,0.027,1.033-0.475,0.383-0.525
				c-0.248-0.02-0.325-0.38-0.329-0.577C207.804,293.651,206.836,293.835,206.843,294.196L206.843,294.196z"/>
		</g>
	</g>
	<g>
		<g>
			<path fill="#FFFFFF" d="M181.686,258.856c0.414,0,0.828,0,1.242,0c0.23,0,0.513-0.062,0.632-0.286
				c0.105-0.198-0.091-0.368-0.284-0.368c-0.414,0-0.828,0-1.242,0c-0.23,0-0.513,0.062-0.632,0.286
				C181.296,258.687,181.492,258.856,181.686,258.856L181.686,258.856z"/>
		</g>
	</g>
	<g>
		<g>
			<path fill="#FFFFFF" d="M69.747,223.933c0.316,0.024,0.438,0.326,0.444,0.61c0.005,0.234,0.973,0.065,0.966-0.259
				c-0.01-0.476-0.34-0.773-0.8-0.81c-0.232-0.018-0.495,0.042-0.683,0.183C69.525,223.77,69.55,223.917,69.747,223.933
				L69.747,223.933z"/>
		</g>
	</g>
	<g>
		<g>
			<path fill="#FFFFFF" d="M95.695,156.385c0.522,0.597,1.04,1.202,1.698,1.655c0.668,0.461,1.506,0.577,2.298,0.59
				c0.416,0.007,1.009-0.617,0.354-0.628c-1.613-0.026-2.45-0.865-3.459-2.02C96.33,155.69,95.407,156.056,95.695,156.385
				L95.695,156.385z"/>
		</g>
	</g>
	<g>
		<g>
			<path fill="#FFFFFF" d="M167.886,177.72c0.865,0.042,1.609,0.669,2.483,0.711c0.231,0.011,0.491-0.05,0.683-0.183
				c0.151-0.104,0.127-0.235-0.065-0.245c-0.865-0.042-1.609-0.669-2.483-0.711c-0.231-0.011-0.491,0.05-0.683,0.183
				C167.669,177.579,167.693,177.71,167.886,177.72L167.886,177.72z"/>
		</g>
	</g>
	<g>
		<g>
			<path fill="#FFFFFF" d="M248.459,265.767c0,0.236,0,0.474,0,0.711c0,0.251,0.967,0.083,0.967-0.26c0-0.236,0-0.474,0-0.711
				C249.426,265.256,248.459,265.424,248.459,265.767L248.459,265.767z"/>
		</g>
	</g>
	<g>
		<g>
			<path fill="#FFFFFF" d="M59.291,289.314c0.828,0,1.656,0,2.484,0c0.293,0,1.05-0.445,0.403-0.445c-0.828,0-1.656,0-2.484,0
				C59.4,288.869,58.644,289.314,59.291,289.314L59.291,289.314z"/>
		</g>
	</g>
</g>
<g>
</g>
<g>
</g>
<g>
</g>
<g>
</g>
<g>
</g>
<g>
</g>
</svg>
