<?xml version="1.0" encoding="utf-8"?>
<!-- Generator: Adobe Illustrator 16.0.0, SVG Export Plug-In . SVG Version: 6.00 Build 0)  -->
<!DOCTYPE svg PUBLIC "-//W3C//DTD SVG 1.1//EN" "http://www.w3.org/Graphics/SVG/1.1/DTD/svg11.dtd">
<svg version="1.1" id="Layer_1" xmlns="http://www.w3.org/2000/svg" xmlns:xlink="http://www.w3.org/1999/xlink" x="0px" y="0px"
	 width="177.146px" height="242.757px" viewBox="0 0 177.146 242.757" enable-background="new 0 0 177.146 242.757"
	 xml:space="preserve">
<path fill="#BFDCE3" d="M140.366,176.774c-11.414,8.267-28.751,15.52-45.427,19.622c0.94,4.148-4.425,10.188-15.297,16.127
	c-7.454,4.071-16.232,7.399-24.731,9.618c0.034,1.376-0.763,3.018-2.499,4.863c-0.435,0.463-0.92,0.926-1.444,1.387
	c0.006,0.015,0.011,0.028,0.017,0.043c0.016,0.049,0.02,0.1,0.004,0.148l0,0c-0.013,0.041-0.054,0.081-0.091,0.121
	c0.007-0.001,0.012-0.001,0.018-0.001c-0.025,0.028-0.053,0.057-0.091,0.085c-0.146,0.105-0.382,0.206-0.685,0.301
	c-7.204,5.848-21.025,11.39-33.156,13.125c-0.208,0.031-0.414,0.062-0.617,0.089c-0.046,0.006-0.089,0.01-0.136,0.015
	c0.081-0.01,0.163-0.021,0.246-0.033c-0.084,0.012-0.167,0.023-0.251,0.034c0.001,0,0.004-0.001,0.005-0.001
	c-0.071,0.01-0.144,0.021-0.216,0.03c-13.779,1.75-19.827-2.279-13.508-9.001c3.736-3.971,10.95-7.992,19.068-10.979
	c0.062-0.168,0.171-0.341,0.316-0.518c-3.681-4.031,1.487-11.132,14.234-18.094c4.779-2.61,10.102-4.913,15.546-6.817
	c-0.094-0.478,0.064-0.986,0.508-1.519c-3.824-4.221-0.724-11.001,9.831-18.646c17.673-12.801,49.539-23.177,71.176-23.177
	c0.113,0,0.218,0.005,0.331,0.006c0.074-0.002,0.15-0.006,0.221-0.006c0.354,0,0.689,0.012,1.023,0.023
	c-0.24-0.005-0.484-0.007-0.727-0.011C154.894,153.884,157.802,164.146,140.366,176.774z"/>
<g>
	<circle fill="#DFF2F9" cx="133.387" cy="124.582" r="43.759"/>
	<ellipse opacity="0.9" fill="#FFFEF2" cx="152.919" cy="124.582" rx="18.289" ry="28.951"/>
	<g>
		<path fill="#BFDCE3" d="M101.252,124.582c0-24.044,16.75-43.549,32.507-43.751c-0.125,0-0.248-0.01-0.373-0.01
			c-24.168,0-43.758,19.593-43.758,43.761s19.59,43.759,43.758,43.759c0.125,0,0.248-0.009,0.373-0.01
			C118.002,168.13,101.252,148.624,101.252,124.582z"/>
		<path fill="#DFF2F9" d="M134.003,80.821c-0.082,0-0.163,0.01-0.244,0.01c0.477,0.006,0.95,0.018,1.423,0.037
			C134.79,80.844,134.398,80.821,134.003,80.821z"/>
		<path fill="#DFF2F9" d="M134.003,168.341c0.396,0,0.787-0.022,1.179-0.045c-0.473,0.019-0.946,0.031-1.423,0.035
			C133.84,168.332,133.921,168.341,134.003,168.341z"/>
	</g>
	<path fill="#BFDCE3" d="M131.325,79.692c-13.367,0-24.202,5.11-24.202,11.416c0,6.309,10.835,13.475,24.202,13.475
		c13.365,0,24.203-7.166,24.203-13.475C155.528,84.803,144.69,79.692,131.325,79.692z"/>
</g>
<g>
	<circle fill="#DFF2F9" cx="133.386" cy="65.361" r="32.146"/>
	
		<ellipse transform="matrix(0.9663 -0.2575 0.2575 0.9663 -10.9131 39.9947)" opacity="0.9" fill="#FFFEF2" cx="147.251" cy="61.666" rx="13.435" ry="21.267"/>
	<g>
		<path fill="#BFDCE3" d="M110.575,71.438c-4.548-17.066,3.652-34.08,14.799-37.204c-0.088,0.023-0.177,0.04-0.266,0.063
			c-17.155,4.571-27.355,22.185-22.785,39.34c4.572,17.156,22.185,27.358,39.34,22.786c0.089-0.023,0.175-0.053,0.264-0.077
			C130.703,99.185,115.124,88.507,110.575,71.438z"/>
		<path fill="#DFF2F9" d="M125.546,34.181c-0.058,0.016-0.113,0.038-0.172,0.054c0.34-0.087,0.678-0.168,1.018-0.244
			C126.109,34.047,125.827,34.106,125.546,34.181z"/>
		<path fill="#DFF2F9" d="M142.101,96.308c0.281-0.074,0.556-0.165,0.829-0.255c-0.333,0.102-0.666,0.201-1.003,0.294
			C141.984,96.333,142.044,96.323,142.101,96.308z"/>
	</g>
	<path fill="#BFDCE3" d="M131.872,32.384c-9.819,0-17.779,3.754-17.779,8.387c0,4.635,7.96,9.899,17.779,9.899
		c9.818,0,17.779-5.265,17.779-9.899C149.651,36.138,141.69,32.384,131.872,32.384z"/>
</g>
<g>
	<circle fill="#DFF2F9" cx="133.386" cy="23.754" r="23.747"/>
	
		<ellipse transform="matrix(0.9677 0.2521 -0.2521 0.9677 11.2998 -35.3555)" opacity="0.9" fill="#FFFEF2" cx="143.644" cy="26.426" rx="9.925" ry="15.711"/>
	<g>
		<path fill="#BFDCE3" d="M116.511,19.358c3.289-12.627,14.754-20.58,23.057-18.53c-0.066-0.017-0.129-0.038-0.195-0.056
			c-12.691-3.306-25.66,4.304-28.967,16.995c-3.306,12.692,4.303,25.66,16.995,28.967c0.065,0.017,0.131,0.031,0.196,0.046
			C119.351,44.52,113.222,31.984,116.511,19.358z"/>
		<path fill="#DFF2F9" d="M139.696,0.857c-0.043-0.012-0.086-0.018-0.129-0.029c0.248,0.069,0.496,0.14,0.742,0.215
			C140.106,0.977,139.903,0.911,139.696,0.857z"/>
		<path fill="#DFF2F9" d="M127.724,46.818c0.208,0.055,0.417,0.098,0.625,0.139c-0.25-0.056-0.5-0.113-0.752-0.177
			C127.64,46.794,127.681,46.808,127.724,46.818z"/>
	</g>
</g>
<g>
	<ellipse fill="#7C8F94" cx="149.118" cy="53.568" rx="2.359" ry="2.501"/>
	<ellipse fill="#7C8F94" cx="135.836" cy="19.436" rx="2.359" ry="2.501"/>
	<ellipse fill="#7C8F94" cx="149.506" cy="15.166" rx="2.359" ry="2.501"/>
	<ellipse fill="#7C8F94" cx="151.477" cy="65.875" rx="2.358" ry="2.501"/>
	<ellipse fill="#7C8F94" cx="151.865" cy="76.525" rx="2.358" ry="2.501"/>
</g>
<g>
	<ellipse fill="#010101" cx="149.305" cy="52.994" rx="2.358" ry="2.501"/>
	<ellipse fill="#010101" cx="136.023" cy="18.861" rx="2.358" ry="2.501"/>
	<ellipse fill="#010101" cx="149.693" cy="14.592" rx="2.358" ry="2.501"/>
	<ellipse fill="#010101" cx="151.664" cy="65.301" rx="2.359" ry="2.501"/>
	<ellipse fill="#010101" cx="152.052" cy="75.951" rx="2.359" ry="2.501"/>
</g>
<path fill="#F6891F" d="M147.964,30.257c1.363-0.448,2.833-0.571,4.084-1.224c1.298-0.678,2.512-1.342,3.805-1.234
	c0.911-0.471,1.49-0.955,1.49-1.425c0-0.571-0.858-1.062-2.127-1.476c-1.805,0.067-3.826-0.899-5.577-1.016
	c-0.833-0.056-1.175-0.379-2.431-0.44c-1.43-0.154-2.5-0.231-2.729-0.231c-0.841,0-1.521,1.737-1.521,3.881s0.681,3.881,1.521,3.881
	c0.147,0,0.645-0.077,1.356-0.214C146.462,30.222,147.082,30.547,147.964,30.257z"/>
<path fill="#F6891F" d="M147.208,23.442c-0.087-0.01-0.168-0.018-0.252-0.026c0.145,0.029,0.291,0.059,0.436,0.088
	C147.331,23.482,147.267,23.468,147.208,23.442z"/>
<path fill="#FDB714" d="M148.683,24.226c-0.539-0.053-4.848-0.736-5.098-0.268c-0.204,0.382-0.369,0.891-0.479,1.479
	c4.736-0.723,9.471,1.051,14.207,1.097c0.016-0.054,0.029-0.107,0.029-0.16c0-0.1-0.035-0.196-0.086-0.291
	C154.614,25.136,151.497,24.824,148.683,24.226z"/>
<path fill="#F36B21" d="M143.057,28.44c0.216,1.476,0.769,2.532,1.422,2.532c0.147,0,0.645-0.077,1.356-0.214
	c0.627-0.537,1.062-0.307,1.943-0.597c1.363-0.448,3.019-0.477,4.27-1.129c1.298-0.678,2.512-1.342,3.805-1.234
	c0.663-0.343,1.143-0.692,1.358-1.038C152.678,27.505,147.518,27.623,143.057,28.44z"/>
<ellipse transform="matrix(0.2054 0.9787 -0.9787 0.2054 127.1102 -119.9135)" fill="#FFFFFF" cx="137.398" cy="18.318" rx="0.832" ry="0.447"/>
<ellipse transform="matrix(0.2054 0.9787 -0.9787 0.2054 133.4051 -136.6995)" fill="#FFFFFF" cx="150.883" cy="13.802" rx="0.832" ry="0.446"/>
<g>
</g>
<g>
</g>
<g>
</g>
<g>
</g>
<g>
</g>
<g>
</g>
</svg>
