<?xml version="1.0" encoding="utf-8"?>
<!-- Generator: Adobe Illustrator 16.0.0, SVG Export Plug-In . SVG Version: 6.00 Build 0)  -->
<!DOCTYPE svg PUBLIC "-//W3C//DTD SVG 1.1//EN" "http://www.w3.org/Graphics/SVG/1.1/DTD/svg11.dtd">
<svg version="1.1" id="Layer_1" xmlns="http://www.w3.org/2000/svg" xmlns:xlink="http://www.w3.org/1999/xlink" x="0px" y="0px"
	 width="211.53px" height="302px" viewBox="0 0 211.53 302" enable-background="new 0 0 211.53 302" xml:space="preserve">
<g>
	<g>
		<polygon fill="#4C3618" points="94.898,302 117.484,301.809 117.356,286.301 116.447,274.977 117.214,269.57 116.803,264.914 
			117.54,259.082 116.809,221.281 94.223,221.473 94.62,268.803 95.145,272.826 94.692,277.383 95.248,285.428 94.793,289.139 		"/>
		<polygon fill="#7F5622" points="94.898,302 96.879,301.98 96.749,286.475 95.845,275.15 96.607,269.744 96.197,265.084 
			96.937,259.256 96.201,221.455 94.223,221.473 94.62,268.803 95.145,272.826 94.692,277.383 95.248,285.428 94.793,289.139 		"/>
		<polygon fill="#362716" points="111.523,301.857 114.689,301.83 114.56,286.322 113.654,275 114.419,269.594 114.006,264.936 
			114.745,259.105 114.015,221.307 110.846,221.33 111.243,268.662 111.767,272.684 111.315,277.242 111.874,285.287 111.416,289 		
			"/>
		<polygon fill="#362716" points="108.088,301.887 109.221,301.875 109.091,286.371 108.706,275.041 108.949,269.637 
			108.777,264.982 109.01,259.154 108.542,221.348 107.413,221.359 107.811,268.697 108.021,272.717 107.885,277.27 
			108.125,285.318 107.981,289.025 		"/>
		<polygon fill="#2D2113" points="114.319,301.834 117.484,301.809 117.356,286.301 116.447,274.977 117.214,269.57 
			116.803,264.914 117.54,259.082 116.809,221.281 113.641,221.307 114.038,268.641 114.562,272.664 114.112,277.219 
			114.669,285.26 114.209,288.977 		"/>
		<polygon fill="#2D2113" points="107.858,301.891 108.154,301.885 108.021,286.379 107.849,275.051 107.882,269.648 
			107.808,264.988 107.831,259.162 107.477,221.357 107.184,221.359 107.581,268.699 107.66,272.719 107.654,277.273 
			107.764,285.32 107.75,289.029 		"/>
		<polygon fill="#362716" points="99.743,301.959 100.872,301.947 100.743,286.441 100.358,275.111 100.604,269.711 
			100.433,265.053 100.661,259.225 100.197,221.42 99.063,221.428 99.465,268.766 99.672,272.783 99.535,277.346 99.775,285.393 
			99.636,289.1 		"/>
		<polygon fill="#2D2113" points="99.753,301.959 100.184,301.949 100.053,286.443 99.848,275.117 99.912,269.713 99.822,265.057 
			99.883,259.23 99.506,221.426 99.077,221.428 99.477,268.77 99.575,272.789 99.546,277.342 99.685,285.393 99.646,289.1 		"/>
		<polygon fill="#2D2113" points="96.021,301.988 97.029,301.977 96.898,286.475 96.545,275.146 96.758,269.744 96.602,265.084 
			96.801,259.256 96.352,221.447 95.346,221.457 95.743,268.797 95.932,272.816 95.813,277.371 96.038,285.42 95.914,289.131 		"/>
		<polygon fill="#6B4A1E" points="100.78,301.949 101.209,301.943 101.079,286.439 100.872,275.109 100.937,269.707 
			100.847,265.047 100.905,259.221 100.531,221.416 100.104,221.422 100.5,268.756 100.601,272.777 100.571,277.334 
			100.707,285.383 100.671,289.088 		"/>
		<polygon fill="#6B4A1E" points="114.102,301.836 114.533,301.832 114.4,286.322 114.196,274.996 114.261,269.594 114.171,264.934 
			114.227,259.109 113.855,221.305 113.426,221.309 113.822,268.646 113.925,272.666 113.896,277.223 114.028,285.27 
			113.994,288.977 		"/>
		<polygon fill="#6B4A1E" points="109.369,301.879 109.8,301.873 109.669,286.365 109.461,275.035 109.528,269.635 109.438,264.973 
			109.495,259.15 109.12,221.346 108.691,221.348 109.09,268.686 109.189,272.707 109.16,277.26 109.296,285.311 109.262,289.018 		
			"/>
	</g>
	<path fill="#2D2113" d="M92.422,263.184c0,0,11.634,28.842,19.193,33.227c-6.356-14.377,8.012-45.607,8.012-45.607L92.114,226.68
		L92.422,263.184z"/>
	<path fill="#1A170F" d="M92.856,256.771c0,0,9.522,27.717,15.691,31.938c-5.203-13.82,10.521-45.594,10.521-45.594l-26.506-21.414
		L92.856,256.771z"/>
	<g>
		<path fill="#172115" d="M91.587,195.465c0,0-12.61,19.723-33.233,30.072C34.62,237.445,0,214.523,0,214.523
			s29.47-0.506,52.702-25.715c41.755-45.321,48.043-77.04,48.043-77.04L91.587,195.465z"/>
		<path fill="#1F341D" d="M91.587,195.465c0,0-6.739,33.848-27.365,44.197c-23.731,11.91-50.927-6.164-50.927-6.164
			s21.832,4.055,42.437-23.35c37.002-49.211,45.012-98.381,45.012-98.381L91.587,195.465z"/>
		<path fill="#172115" d="M116.209,215.803c0,0,30.836,14.746,50.138,25.258c20.43,11.129,45.184-2.92,45.184-2.92
			s-22.411-0.973-46.109-25.365c-39.167-40.314-64.675-101.008-64.675-101.008L116.209,215.803z"/>
		<path fill="#141812" d="M116.08,249.498c0,0-2.222,4.334-5.409,16.275c-1.296,4.863-5.412,16.26-5.412,16.26
			s-6.213-24.807-7.322-47.586c-1.48-30.395,2.809-122.68,2.809-122.68L116.08,249.498z"/>
		<path fill="#172115" d="M91.892,231.625c0,0-0.464,18.082-20.504,29.523c-13.278,7.578-32.87-3.209-32.87-3.209
			s16.371,1.488,29.872-30.021c19.379-45.234,32.354-116.149,32.354-116.149L91.892,231.625z"/>
		<path fill="#141812" d="M116.209,215.803c0,0,6.651,21.732,25.953,32.24c20.433,11.135,45.126,7.225,45.126,7.225
			s-20.045-5.176-35.218-26.002c-23.933-32.852-51.325-117.499-51.325-117.499L116.209,215.803z"/>
		<path fill="#172115" d="M116.08,249.498c0,0-1.403,4.119,18.067,14.32c4.46,2.336,29.429,7.623,29.429,7.623
			s-23.299-18.287-31.002-39.752c-22.563-62.885-31.829-119.922-31.829-119.922L116.08,249.498z"/>
		<path fill="#1F341D" d="M90.063,246.145c0,0,0.032,3.986,2.624,17.039c0.977,4.939,12.57,18.852,12.57,18.852
			s-6.213-24.807-7.322-47.586c-1.48-30.395,2.808-122.681,2.808-122.681L90.063,246.145z"/>
	</g>
	<g>
		<path fill="#518395" d="M39.204,224.369c-2.536-9.324-11.48-11.359-19.831-13.832c4.009-1.373,8.396-3.223,12.924-5.719
			c11.16,1.85,25.674,0.102,25.263,11.135c0.012,1.271-3.785,3.209-2.497,5.107c1.645,2.152,5.107,1.521,7.676,2.064
			c-1.422,0.844-2.879,1.652-4.385,2.412c-6.314,3.166-13.396,3.871-20.39,3.197C38.89,227.381,39.737,225.922,39.204,224.369z"/>
		<path fill="#78A5B8" d="M55.841,238.209c-6.362-1.217-13.341,0.109-18.462-4.297c-3.227-2.111,1.2-4.738,1.898-7.785
			c5.265-3.502,10.891-8.586,16.425-15.939c1.254,1.389,1.955,3.234,1.86,5.766c0.011,1.271-3.786,3.209-2.499,5.107
			c1.926,2.525,6.365,1.217,8.918,2.465l0.017,1.906c4.551,1.777,9.413,2.566,14.129,1.707c-3.701,5.145-8.286,9.707-13.903,12.525
			c-1.601,0.803-3.217,1.463-4.834,2.01C58.897,239.977,58.104,238.51,55.841,238.209z"/>
		<path fill="#518395" d="M146.605,226.004c4.913-10.035,14.241-9.105,23.25-8.91c10.647,9.779,20.747,15.016,28.342,17.826
			c-14.384,6.504-30.329-6.801-43.904-1.355c-0.418,0.109-0.605,0.395-0.654,0.793c-4.165-2.143-8.433-4.303-12.528-6.354
			C143.357,228.604,145.281,228.32,146.605,226.004z"/>
		<path fill="#395E6A" d="M100.988,241.643c7.387,2.395,9.94-5.857,12.927-11.598l2.062,18.512c-1.734-0.344-3.519-0.059-5.39,1.266
			c-2.52,2.562-3.766,5.75-6.285,8.311c-0.939,0.639-2.352,0.967-3.614,1.062c-1.001-6.195-1.922-13.098-2.451-19.994
			C98.866,240.232,99.732,241.084,100.988,241.643z"/>
		<path fill="#518395" d="M68.818,226.896c4.971,1.072,10.107,0.799,14.872-1.631c0.006,0.635-0.63,0.641-0.625,1.277
			c2.534-1.293,5.689-3.863,8.232-3.246c0.429,0.174,0.811,0.379,1.164,0.605l-0.57,7.723c0,0-0.165,6.047-4.169,13.355
			c-5.355-3.998-11.844-4.938-18.473,0.742l0.628-0.643c-3.171,0.66-6.311,5.137-8.884,1.348c-0.607-0.797-0.9-1.844-1.155-2.924
			c2.856-3.992,5.762-9.084,8.55-15.584C68.531,227.578,68.677,227.234,68.818,226.896z"/>
		<path fill="#395E6A" d="M121.794,227.723c0.268-1.666,0.688-3.232,1.918-4.066c7.586-4.51,18.512,10.012,22.896,2.352
			c0.47-0.955,0.98-1.797,1.523-2.564c1.318,2.078,2.634,4.033,3.94,5.822c1.016,1.4,2.059,2.721,3.111,3.979
			c-0.294,0.1-0.592,0.207-0.887,0.32c-2.535,0.66,3.241,7.604-0.552,9.539c-5.062,2.586-12.74-3.701-18.45-2.385
			c-0.773,0.264-1.366,0.688-1.82,1.223C128.325,237.426,124.506,232.262,121.794,227.723z"/>
		<path fill="#518395" d="M114.227,229.457c0.653,1.898,0.674,4.443,1.943,4.43c7.64,1.844,3.751-7.656,7.541-10.23
			c1.808-1.072,3.802-1.064,5.856-0.531c0.974,2.838,1.976,5.695,3.005,8.566c1.089,3.031,2.49,5.996,4.092,8.85
			c-0.469,0.021-0.926,0.074-1.373,0.176c-5.7,1.953-1.804,12.088-1.751,18.443c-6.384-0.93-11.696-9.43-17.562-10.6l-2.062-18.514
			C114.02,229.844,114.122,229.648,114.227,229.457z"/>
		<path fill="#78A5B8" d="M91.861,223.555c5.582,2.832,3.581,11.064,6.378,15.646c0.528,6.896,1.449,13.799,2.451,19.994
			c-1.285,0.094-2.413-0.055-2.734-0.373c-1.874-4.348-4.584-8.604-7.841-11.785c-0.047-0.621-0.049-0.893-0.049-0.893
			L91.861,223.555z"/>
	</g>
	<g>
		<path fill="#1B2A19" d="M93.4,163.938c0,0-10.731,16.775-28.278,25.582c-20.191,10.133-49.647-9.367-49.647-9.367
			s25.077-0.428,44.842-21.879c35.523-38.557,40.873-65.544,40.873-65.544L93.4,163.938z"/>
		<path fill="#1F341D" d="M93.4,163.938c0,0-5.737,28.799-23.285,37.607c-20.19,10.131-43.33-5.25-43.33-5.25
			s18.577,3.449,36.107-19.863c31.483-41.869,38.294-83.701,38.294-83.701L93.4,163.938z"/>
		<path fill="#1B2A19" d="M114.347,181.24c0,0,26.233,12.549,42.653,21.494c17.386,9.463,38.443-2.49,38.443-2.49
			s-19.068-0.824-39.231-21.576c-33.32-34.299-55.026-85.939-55.026-85.939L114.347,181.24z"/>
		<path fill="#172115" d="M114.235,209.906c0,0-1.892,3.689-4.601,13.852c-1.104,4.135-4.607,13.83-4.607,13.83
			s-5.281-21.105-6.228-40.48c-1.261-25.863,2.389-104.378,2.389-104.378L114.235,209.906z"/>
		<path fill="#1B2A19" d="M93.658,194.703c0,0-0.396,15.383-17.443,25.117c-11.299,6.451-27.968-2.73-27.968-2.73
			s13.929,1.268,25.416-25.543c16.489-38.49,27.526-98.819,27.526-98.819L93.658,194.703z"/>
		<path fill="#172115" d="M114.347,181.24c0,0,5.657,18.492,22.08,27.436c17.385,9.467,38.393,6.143,38.393,6.143
			s-17.052-4.402-29.963-22.123c-20.36-27.951-43.667-99.966-43.667-99.966L114.347,181.24z"/>
		<path fill="#1B2A19" d="M114.235,209.906c0,0-1.193,3.508,15.373,12.188c3.792,1.984,25.037,6.48,25.037,6.48
			s-19.822-15.555-26.377-33.818c-19.198-53.499-27.079-102.027-27.079-102.027L114.235,209.906z"/>
		<path fill="#1F341D" d="M92.101,207.057c0,0,0.027,3.389,2.232,14.496c0.836,4.197,10.694,16.035,10.694,16.035
			s-5.281-21.107-6.228-40.482c-1.26-25.863,2.389-104.378,2.389-104.378L92.101,207.057z"/>
	</g>
	<g>
		<path fill="#78A5B8" d="M48.41,185.527c-6.782-2.355-13.551-3.984-18.952-7.953c4.475-1.354,9.662-3.412,15.024-6.549
			c3.968-0.109,7.934-0.465,12.057-0.814c0.036,4.449-3.759,6.385-5.636,9.582c8.235,3.211,16.442,2.654,25.06,2.793
			c-3.234,2.531-6.861,4.939-10.843,6.936c-5.232,2.627-11.086,3.264-16.887,2.762C48.891,189.814,51.228,186.441,48.41,185.527z"/>
		<path fill="#93BECF" d="M82.121,189.695c0.322-0.164,0.637-0.305,0.948-0.441c-3.329,5.035-7.587,9.594-12.953,12.291
			c-2.109,1.057-4.256,1.836-6.405,2.383c0.019-0.742-0.118-1.438-0.547-2.004c-3.218-4.42-10.832-3.088-14.679-7.5
			c-0.934-0.918-0.075-2.75,0.614-4.533c3.015-2.029,6.162-4.67,9.329-8.094c7.075,1.141,14.228,0.518,21.729,0.924
			C82.063,182.707,80.83,187.162,82.121,189.695z"/>
		<path fill="#78A5B8" d="M152.665,191.008c2.534-1.293-0.053-6.355-1.35-9.521c4.2,1.014,7.982,3.322,12.387,4.07
			c3.653,2.994,7.189,5.381,10.495,7.283c2.518,2.037,7.285,5.705,5.747,6.887c-2.405,2.189-17.817-0.369-27.176,0.73
			c-8.553-4.531-18.683-9.586-26.395-13.375C134.413,184.967,144.169,193.51,152.665,191.008z"/>
		<path fill="#518395" d="M107.014,202.828c2.632,1.285,4.637,0.758,6.357-0.709l0.864,7.787c0,0-0.624,1.227-1.669,4.197
			c-2.673,1.17-5.315,3.057-7.95,5.9c-0.978,0.998-1.984,1.242-3.004,0.959c-1.227-7.102-2.411-15.635-2.812-23.855
			c-0.021-0.43-0.038-0.871-0.059-1.326C101.282,198.5,103.882,201.295,107.014,202.828z"/>
		<path fill="#78A5B8" d="M82.121,189.695c4.901-2.504,8.539-1.225,11.804,1.387l-0.267,3.621c0,0-0.127,4.74-3.152,10.625
			c-0.219-0.381-0.432-0.746-0.639-1.084c-0.629-1.84-6.711,5.459-10.634,5.967c-3.927,0.51-0.701-3.07-4.077-3.016
			c-3.372,0.061-6.193,4.215-12.563,2.996c-0.167-0.088-0.24-0.256-0.26-0.482c3.664-3.789,7.624-9.514,11.328-18.162
			c1.229-2.865,2.425-5.857,3.592-8.934c0.962,0.023,1.928,0.053,2.904,0.107C82.063,182.707,80.83,187.162,82.121,189.695z"/>
		<path fill="#518395" d="M125.312,187.424c5.442-2.145,11.763,1.25,17.984,3.047c0.522,0.766,1.041,1.516,1.56,2.225
			c2.207,3.033,4.538,5.668,6.884,7.963c-4.158,1.467,5.437,6.25,2.983,8.123c-5.06,3.217-12.747-4.34-18.433-0.48
			c-0.064,0.066-0.115,0.135-0.168,0.201c-7.534-4.191-12.769-10.387-16.218-15.809
			C121.433,190.377,123.133,188.355,125.312,187.424z"/>
		<path fill="#78A5B8" d="M125.312,187.424c0.113-0.045,0.228-0.076,0.345-0.119c0.846,2.475,1.716,4.961,2.611,7.451
			c1.786,4.967,4.552,9.732,7.631,14.041c-1.286,1.938-0.149,4.801,0.456,7.129c-7.216-2.338-13.924-4.426-20.421-2.943
			c-2.011-2.123-1.697-3.076-1.697-3.076l-0.865-7.787C117.492,198.609,119.951,189.711,125.312,187.424z"/>
		<path fill="#93BECF" d="M98.739,195.781c0.021,0.455,0.039,0.896,0.061,1.326c0.401,8.221,1.584,16.754,2.812,23.855
			c-3.261-0.91-6.62-7.32-9.413-12.547c-0.094-0.963-0.098-1.359-0.098-1.359l1.305-16.385
			C95.263,192.057,96.989,193.902,98.739,195.781z"/>
	</g>
	<g>
		<path fill="#1F341D" d="M93.736,126.807c0,0-10.142,15.853-26.727,24.174c-19.082,9.583-46.922-8.852-46.922-8.852
			s23.696-0.407,42.376-20.678c33.58-36.443,38.633-61.949,38.633-61.949L93.736,126.807z"/>
		<path fill="#244120" d="M93.736,126.807c0,0-5.42,27.213-22.004,35.539c-19.082,9.576-40.954-4.962-40.954-4.962
			s17.559,3.263,34.124-18.772c29.758-39.571,36.194-79.109,36.194-79.109L93.736,126.807z"/>
		<path fill="#1F341D" d="M113.533,143.158c0,0,24.796,11.857,40.318,20.311c16.429,8.949,36.334-2.346,36.334-2.346
			s-18.021-0.783-37.081-20.397c-31.492-32.42-52.006-81.225-52.006-81.225L113.533,143.158z"/>
		<path fill="#1B2A19" d="M113.433,170.254c0,0-1.79,3.484-4.352,13.086c-1.043,3.912-4.354,13.074-4.354,13.074
			s-4.996-19.947-5.888-38.264c-1.188-24.439,2.259-98.648,2.259-98.648L113.433,170.254z"/>
		<path fill="#1F341D" d="M93.982,155.88c0,0-0.374,14.54-16.484,23.739c-10.682,6.096-26.438-2.578-26.438-2.578
			s13.163,1.199,24.021-24.142c15.584-36.376,26.018-93.397,26.018-93.397L93.982,155.88z"/>
		<path fill="#1B2A19" d="M113.533,143.158c0,0,5.35,17.479,20.869,25.928c16.432,8.947,36.287,5.811,36.287,5.811
			s-16.116-4.162-28.318-20.91c-19.244-26.419-41.272-94.482-41.272-94.482L113.533,143.158z"/>
		<path fill="#1F341D" d="M113.433,170.254c0,0-1.128,3.312,14.527,11.514c3.583,1.877,23.664,6.129,23.664,6.129
			s-18.736-14.703-24.93-31.964C108.552,105.364,101.1,59.501,101.1,59.501L113.433,170.254z"/>
		<path fill="#244120" d="M92.512,167.559c0,0,0.027,3.199,2.108,13.701c0.788,3.971,10.107,15.154,10.107,15.154
			s-4.996-19.947-5.888-38.264c-1.188-24.439,2.259-98.648,2.259-98.648L92.512,167.559z"/>
	</g>
	<g>
		<path fill="#93BECF" d="M51.858,142.293c-4.093-2.003-8.578-2.783-12.827-4.619c4.153-1.688,8.669-4.01,13.187-7.208
			c1.5,0.822,2.873,1.775,4.013,2.894c1.916,1.252-2.498,5.104-1.218,6.363c5.515,4.968,13.611,6.643,21.487,5.289
			c-2.862,2.173-6.034,4.239-9.492,5.971c-5.072,2.545-10.766,3.115-16.388,2.575c0.894-0.989,3.038-1.564,3.854-2.391
			C57.624,147.96,55.052,144.168,51.858,142.293z"/>
		<path fill="#BFDCE3" d="M54.475,151.165c0.915-0.934,1.338-1.911,1.411-2.88c1.653-1.396,3.331-3.008,5.016-4.847
			c7.404,3.153,16.795,2.573,24.633-1.429c0.457,1.115,1.076,2.06,1.79,2.914c-3.457,6.856-8.505,13.864-15.59,17.423
			c-0.738,0.365-1.482,0.689-2.224,0.994c0.102-0.517,0.214-1.018,0.307-1.504c-6.992,0.062-15.251,0.131-19.119-6.19
			C48.771,153.115,53.215,152.448,54.475,151.165z"/>
		<path fill="#93BECF" d="M142.277,139.566c3.161-1.933,6.786,6.144,11.705,7.476c1.863-0.018-3.797-7.484-2.011-7.502
			c0.375,0.4,0.756,0.792,1.133,1.186c8.521,8.767,16.831,13.768,23.419,16.626c0.317,0.704,0.558,1.461,0.66,2.312
			c-9.524,0.718-20.375-4.913-28.583,0.876c-0.034,0.024-0.058,0.051-0.089,0.077c-6.95-3.658-14.816-7.603-21.328-10.814
			c0.707-0.318,1.452-0.701,2.251-1.176C134.501,146.682,136.587,142.794,142.277,139.566z"/>
		<path fill="#78A5B8" d="M102.843,160.286c5.369,1.146,6.181-8.831,8.353-10.104l2.236,20.071c0,0-0.5,0.977-1.34,3.287
			c-3.35,2.354-6.252,7.312-10.373,8.408c-1.239-6.945-2.476-15.537-2.88-23.799c-0.014-0.263-0.024-0.537-0.034-0.812
			C99.813,158.627,101.053,159.711,102.843,160.286z"/>
		<path fill="#93BECF" d="M91.946,148.942c0.959,0.472,1.737,1.099,2.41,1.821l-0.374,5.117c0,0-0.16,5.883-4.418,12.536
			c-1.221-0.357-2.739-0.268-3.806,0.279c-5.057,3.221-10.108,7.076-15.227,2.67c-2.104-2.062-1.65-5.006-1.083-7.75
			c1.895-2.904,3.797-6.429,5.631-10.713c1.141-2.661,2.253-5.435,3.336-8.285c2.44-0.579,4.846-1.448,7.115-2.609
			C86.831,145.173,89.389,147.059,91.946,148.942z"/>
		<path fill="#78A5B8" d="M133.864,144.393c2.925-1.126,3.458,3.568,6.854,7.234c0.554,0.815,1.104,1.605,1.654,2.356
			c1.889,2.597,3.872,4.889,5.877,6.909c-1.384,1.942,4.69,4.914,2.327,8.525c-4.689-4.033-15.232-7.481-19.858-2.641
			c-6.843-4.832-11.299-11.317-13.956-16.274C120.752,151.146,127.202,152.254,133.864,144.393z"/>
		<path fill="#93BECF" d="M124.829,150.648c0.608,1.753,1.227,3.518,1.862,5.286c1.244,3.471,3.002,6.834,5.009,10
			c-0.846,0.596-1.562,1.379-2.105,2.391c-1.877,3.195,5.146,6.949,2.617,8.875c-5.119,2.902-12.902-4.463-17.639-4.547
			c-1.396-1.654-1.144-2.398-1.144-2.398l-2.236-20.071c0.146-0.087,0.298-0.133,0.458-0.133
			C117.05,150.002,120.188,151.865,124.829,150.648z"/>
		<path fill="#BFDCE3" d="M98.805,157.337c0.012,0.274,0.022,0.55,0.034,0.812c0.406,8.264,1.641,16.855,2.88,23.801
			c-1.497,0.398-3.157,0.289-5.055-0.639c-1.294-0.539-2.054-1.57-2.581-2.828c-1.552-8.301-1.574-10.928-1.574-10.928l1.37-17.254
			C95.973,152.251,97.052,155.105,98.805,157.337z"/>
	</g>
	<g>
		<path fill="#244120" d="M94.796,93.349c0,0-8.924,13.954-23.516,21.277c-16.795,8.43-41.295-7.793-41.295-7.793
			s20.857-0.353,37.295-18.197c29.547-32.068,33.998-54.516,33.998-54.516L94.796,93.349z"/>
		<path fill="#284F26" d="M94.796,93.349c0,0-4.77,23.953-19.363,31.276c-16.792,8.424-36.042-4.366-36.042-4.366
			s15.452,2.866,30.033-16.523c26.184-34.822,31.853-69.617,31.853-69.617L94.796,93.349z"/>
		<path fill="#244120" d="M112.219,107.741c0,0,21.822,10.436,35.481,17.874c14.459,7.877,31.971-2.064,31.971-2.064
			s-15.857-0.688-32.626-17.948c-27.716-28.53-45.767-71.48-45.767-71.48L112.219,107.741z"/>
		<path fill="#1F341D" d="M112.129,131.586c0,0-1.575,3.064-3.827,11.516c-0.918,3.441-3.828,11.503-3.828,11.503
			s-4.4-17.553-5.188-33.671c-1.044-21.509,1.99-86.812,1.99-86.812L112.129,131.586z"/>
		<path fill="#244120" d="M95.014,118.935c0,0-0.33,12.796-14.509,20.891c-9.396,5.369-23.261-2.266-23.261-2.266
			s11.585,1.055,21.139-21.246c13.714-32.013,22.896-82.191,22.896-82.191L95.014,118.935z"/>
		<path fill="#1F341D" d="M112.219,107.741c0,0,4.707,15.377,18.366,22.814c14.459,7.879,31.933,5.112,31.933,5.112
			s-14.181-3.66-24.921-18.4c-16.936-23.248-36.318-83.145-36.318-83.145L112.219,107.741z"/>
		<path fill="#244120" d="M112.129,131.586c0,0-0.993,2.917,12.785,10.13c3.154,1.652,20.825,5.392,20.825,5.392
			s-16.489-12.935-21.938-28.126c-15.97-44.5-22.522-84.862-22.522-84.862L112.129,131.586z"/>
		<path fill="#284F26" d="M93.719,129.208c0,0,0.023,2.823,1.856,12.061c0.69,3.493,8.897,13.336,8.897,13.336
			s-4.401-17.553-5.188-33.671c-1.045-21.509,1.99-86.812,1.99-86.812L93.719,129.208z"/>
	</g>
	<g>
		<path fill="#ADCFDB" d="M57.968,113.008c0.386-6.137-6.439-7.379-11.983-9.841c5.012-1.959,10.662-4.965,16.125-9.583
			c1.018,0.423,1.943,1.094,2.702,2.21c0.004,0.637-1.9,0.653-1.9,0.653c-1.235,4.457,3.87,6.955,3.271,11.408
			c4.424-3.214,10.755-5.808,13.953-3.295c0.95,0.937,1.9,1.589,2.861,2.062c-3.313,2.894-7.247,5.759-11.717,8.003
			c-4.785,2.402-10.194,2.801-15.484,2.147c-0.118-0.187-0.233-0.37-0.347-0.567C56.716,115.562,57.34,114.284,57.968,113.008z"/>
		<path fill="#BFDCE3" d="M68.881,126.264c-5.05-2.473-10.088-4.326-13.314-9.868c3.354-1.906,6.984-4.685,10.636-8.747
			c-0.005,0.069-0.011,0.14-0.021,0.207c4.424-3.214,10.755-5.808,13.953-3.295c3.021,2.974,6.019,3.117,9.556,3.632
			c-3.05,6.374-7.639,13.11-14.258,16.434c-1.998,1-4.028,1.695-6.062,2.156C69.299,126.533,69.151,126.35,68.881,126.264z"/>
		<path fill="#ADCFDB" d="M117.003,106.158c4.44-1.309,6.391,4.396,10.836,3.721l-0.018-1.906c4.436-1.305,7.674,5.654,10.828,3.086
			c2.527-1.928-0.059-6.988,2.467-8.918c0.52-0.528,1.188-0.762,1.947-0.807c1.306,1.45,2.632,2.877,3.982,4.266
			c3.738,3.846,7.424,6.863,10.905,9.239c1.703,2.461,5.505,3.746,7.472,6.162c0.642,0.63,0.018,1.909-0.613,2.546
			c-5.703,1.954-12.689,2.011-18.43-0.482c-0.844-0.41-1.952-0.261-2.975,0.25c-11.115-5.863-25.081-12.635-29.654-14.842
			C114.422,107.327,115.41,106.462,117.003,106.158z"/>
		<path fill="#93BECF" d="M99.15,117.015c0.054,0.032,0.101,0.062,0.153,0.094c1.914,0.619,1.892-1.923,2.52-2.562
			c3.177-0.029,1.949,5.064,5.126,5.04c1.785-0.015,2.896-0.691,3.652-1.726l1.529,13.725c0,0-0.118,0.229-0.329,0.718
			c-0.097-0.028-0.199-0.047-0.298-0.043c-3.811,0.029-3.764,5.749-6.294,7.04c-1.363,0.698-2.591,0.831-3.729,0.611
			c-0.969-5.728-1.87-12.468-2.192-18.978C99.231,119.757,99.188,118.438,99.15,117.015z"/>
		<path fill="#ADCFDB" d="M82.341,106.269c2.485,1.459,5.05,1.555,7.991,2.021c0.636-0.006,0.656,2.541,1.292,2.531
			c1.732,0.848,2.815,1.833,3.777,2.833l-0.389,5.283c0,0-0.22,8.245-7.64,15.686c0.005-0.085,0.005-0.167,0.005-0.253
			c-6.335,2.594-13.949,3.928-18.438-1.117c-0.411-0.268-0.55-0.716-0.553-1.251c3.203-3.144,6.719-8.038,9.995-15.686
			C79.749,113.123,81.069,109.75,82.341,106.269z"/>
		<path fill="#93BECF" d="M113.063,110.006c0.649-1.89,1.697-3.424,3.939-3.849c4.44-1.309,6.391,4.396,10.836,3.722l-0.018-1.907
			c1.64-0.483,3.119,0.164,4.487,1.042c1.774,3.069,3.543,5.857,5.289,8.25c1.729,2.375,3.545,4.454,5.375,6.282
			c-0.37,0.231-0.722,0.51-1.033,0.827c-0.628,1.276,1.286,1.896,0.66,3.172c-3.673,4.985-10.453-0.861-14.892,1.223
			C119.181,122.914,114.758,114.111,113.063,110.006z"/>
		<path fill="#ADCFDB" d="M112.129,131.586l-1.529-13.725c2.473-3.389,1.055-10.684,6.401-11.704c0.881-0.261,1.666-0.24,2.39-0.05
			c1.381,4.23,2.85,8.531,4.408,12.875c1.182,3.298,2.89,6.491,4.833,9.466c-0.445,0.1-0.87,0.264-1.271,0.498
			c0,0-0.619,1.91-0.61,3.179c-1.86,5.101-6.312,5.136-10.773,3.268c-1.479-0.475-2.589-2.101-3.605-2.805
			C112.024,131.905,112.129,131.586,112.129,131.586z"/>
		<path fill="#BFDCE3" d="M94.99,113.231c1.321,1.302,2.313,2.653,4.16,3.784c0.037,1.423,0.081,2.742,0.138,3.919
			c0.321,6.509,1.226,13.25,2.192,18.978c-2.483-0.476-4.585-2.618-6.939-4.25c-0.809-4.82-0.822-6.45-0.822-6.45L94.99,113.231z"/>
	</g>
	<g>
		<path fill="#284F26" d="M96.589,63.819c0,0-7.072,11.062-18.642,16.87c-13.312,6.683-32.732-6.18-32.732-6.18
			s16.53-0.282,29.562-14.424c23.426-25.424,26.953-43.217,26.953-43.217L96.589,63.819z"/>
		<path fill="#216835" d="M96.589,63.819c0,0-3.779,18.989-15.349,24.793c-13.312,6.683-28.57-3.459-28.57-3.459
			s12.249,2.276,23.804-13.097c20.761-27.604,25.252-55.188,25.252-55.188L96.589,63.819z"/>
		<path fill="#284F26" d="M110.401,75.229c0,0,17.298,8.273,28.125,14.171c11.462,6.243,25.35-1.638,25.35-1.638
			s-12.573-0.544-25.868-14.23c-21.969-22.614-36.278-56.664-36.278-56.664L110.401,75.229z"/>
		<path fill="#244120" d="M110.33,94.13c0,0-1.249,2.431-3.033,9.131c-0.732,2.728-3.041,9.12-3.041,9.12
			s-3.483-13.916-4.107-26.691c-0.828-17.053,1.577-68.821,1.577-68.821L110.33,94.13z"/>
		<path fill="#284F26" d="M96.763,84.102c0,0-0.263,10.143-11.504,16.562c-7.448,4.253-18.439-1.801-18.439-1.801
			s9.185,0.837,16.757-16.84c10.869-25.375,18.149-65.156,18.149-65.156L96.763,84.102z"/>
		<path fill="#244120" d="M110.401,75.229c0,0,3.731,12.19,14.561,18.087c11.459,6.243,25.31,4.054,25.31,4.054
			s-11.243-2.902-19.756-14.588c-13.423-18.428-28.79-65.912-28.79-65.912L110.401,75.229z"/>
		<path fill="#284F26" d="M110.33,94.13c0,0-0.788,2.31,10.135,8.032c2.497,1.312,16.507,4.275,16.507,4.275
			s-13.069-10.257-17.391-22.3c-12.658-35.273-17.854-67.271-17.854-67.271L110.33,94.13z"/>
		<path fill="#216835" d="M95.732,92.25c0,0,0.021,2.233,1.476,9.559c0.546,2.764,7.049,10.571,7.049,10.571
			s-3.482-13.916-4.107-26.691c-0.828-17.053,1.578-68.821,1.578-68.821L95.732,92.25z"/>
	</g>
	<g>
		<path fill="#BFDCE3" d="M69.524,64.95c2.076,1.912,3.844,4.074,6.482,2.157c1.9-0.651,0.031,3.813,2.563,2.52
			c3.154-2.569,6.945-5.142,10.778-2.631c1.319,0.973,0.958,2.967,0.734,4.673c-3.101,3.118-7.209,6.546-12.138,9.02
			c-3.731,1.871-7.943,2.208-12.069,1.725c-3.923-3.54-8.191-6.171-12.814-9.214C57.646,71.964,63.665,69.579,69.524,64.95z"/>
		<path fill="#D9F0F5" d="M67.251,83.702c-0.571-0.562-1.155-1.099-1.738-1.617c3.436-1.955,7.235-5.07,10.963-10.028
			c0.564-0.75,1.115-1.5,1.654-2.248c0.131-0.038,0.274-0.096,0.441-0.181c3.155-2.569,6.945-5.142,10.779-2.631
			c2.559,1.883-1.207,7.635,1.973,7.608c0.648-0.006,1.361-0.452,2.104-0.966c-2.378,5.567-6.257,12.001-12.184,14.974
			c-1.404,0.708-2.83,1.213-4.257,1.577C73.866,87.418,69.486,86.336,67.251,83.702z"/>
		<path fill="#BFDCE3" d="M111.002,72.531c5.688-3.227,7.684,6.925,11.468,3.716c1.895-1.287-0.676-5.078,0.564-8.266
			c4.074,1.32,7.165,1.352,9.057-1.009c1.902,2.26,3.879,4.458,5.915,6.558c5.578,5.744,11.029,9.165,15.474,11.213
			c-4.578,5.45-13.82,1.184-19.515-1.603c-1.911-0.619-3.81,0.032-4.437,1.311c-0.061,0.046-0.116,0.095-0.166,0.139
			c-8.479-4.32-17.138-8.486-18.702-9.237C110.781,74.234,110.521,73.019,111.002,72.531z"/>
		<path fill="#ADCFDB" d="M99.976,75.236c2.78,3.345,5.079,6.382,8.604,3.18l1.607,14.417c-5.758-0.56-5.325,8.333-7.812,10.66
			c-0.93-5.034-1.921-11.557-2.228-17.806C100.016,82.968,99.966,79.369,99.976,75.236z"/>
		<path fill="#BFDCE3" d="M80.054,95.03c-0.397-1.414-1.035-2.563-1.814-3.534c1.777-2.343,3.601-5.415,5.339-9.473
			c1.998-4.666,3.876-9.819,5.61-15.123c0.052,0.035,0.105,0.061,0.16,0.095c2.56,1.883-1.206,7.636,1.973,7.608
			c1.891-0.017,4.373-3.777,6.291-1.997l-0.849,11.497c0,0-0.172,6.381-5.851,12.223C87.859,93.868,84.502,92.441,80.054,95.03z"/>
		<path fill="#ADCFDB" d="M110.588,75.779c0.274-1.215-0.127-2.695,0.414-3.246c5.688-3.228,7.684,6.925,11.468,3.715
			c1.598-1.084,0.029-3.945,0.239-6.727c2.593,5.126,5.235,9.729,7.809,13.26c0.116,0.157,0.233,0.31,0.349,0.466
			c-0.601,0.265-1.083,0.678-1.339,1.205c-2.525,1.924,3.21,3.786,1.326,6.341c-1.804,3.682-6.029-0.847-9.733-0.032
			C114.383,85.392,111.332,77.858,110.588,75.779z"/>
		<path fill="#BFDCE3" d="M110.396,76.35c0.625-1.276-0.026-3.177,0.605-3.817c1.926-1.093,3.43-0.649,4.725,0.288
			c1.199,3.713,2.481,7.497,3.854,11.318c0.816,2.272,1.941,4.482,3.236,6.569c-0.722-0.094-1.435-0.067-2.13,0.169
			c-2.531,1.292-3.13,5.745-5.68,4.496c-1.28-0.627-3.201-2.513-4.469-2.501c-0.125-0.023-0.234-0.027-0.351-0.038l-1.607-14.417
			C109.153,77.897,109.753,77.223,110.396,76.35z"/>
		<path fill="#D9F0F5" d="M95.732,92.25l1.581-19.878c0.116,0.074,0.234,0.161,0.345,0.271c0.827,0.814,1.59,1.713,2.316,2.594
			c-0.011,4.131,0.039,7.732,0.174,10.453c0.305,6.25,1.296,12.772,2.228,17.806c-0.619,0.581-1.42,0.757-2.551,0.267
			c-0.878-0.429-1.722-1.006-2.547-1.664c-0.029-0.102-0.053-0.2-0.072-0.288C95.753,94.484,95.732,92.25,95.732,92.25z"/>
	</g>
	<g>
		<path fill="#216835" d="M98.373,34.77c0,0-5.243,8.194-13.812,12.491c-9.856,4.95-24.24-4.572-24.24-4.572
			s12.246-0.21,21.896-10.685c17.348-18.827,19.959-32.003,19.959-32.003L98.373,34.77z"/>
		<path fill="#24763B" d="M98.373,34.77c0,0-2.803,14.062-11.369,18.361c-9.859,4.948-21.157-2.563-21.157-2.563
			s9.07,1.684,17.63-9.697c15.371-20.442,18.7-40.869,18.7-40.869L98.373,34.77z"/>
		<path fill="#216835" d="M108.599,43.219c0,0,12.811,6.129,20.831,10.496c8.488,4.62,18.771-1.214,18.771-1.214
			s-9.311-0.405-19.154-10.537c-16.271-16.749-26.87-41.961-26.87-41.961L108.599,43.219z"/>
		<path fill="#284F26" d="M108.546,57.218c0,0-0.924,1.8-2.248,6.762c-0.538,2.02-2.248,6.753-2.248,6.753
			s-2.58-10.306-3.041-19.768c-0.614-12.627,1.165-50.963,1.165-50.963L108.546,57.218z"/>
		<path fill="#216835" d="M98.498,49.793c0,0-0.194,7.512-8.519,12.264c-5.518,3.15-13.656-1.333-13.656-1.333
			s6.8,0.62,12.408-12.472c8.051-18.793,13.442-48.25,13.442-48.25L98.498,49.793z"/>
		<path fill="#284F26" d="M108.599,43.219c0,0,2.765,9.03,10.782,13.397c8.489,4.621,18.747,2.999,18.747,2.999
			s-8.325-2.148-14.631-10.8c-9.94-13.652-21.321-48.812-21.321-48.812L108.599,43.219z"/>
		<path fill="#216835" d="M108.546,57.218c0,0-0.585,1.712,7.504,5.948c1.854,0.97,12.227,3.166,12.227,3.166
			s-9.68-7.595-12.878-16.509c-9.376-26.127-13.225-49.82-13.225-49.82L108.546,57.218z"/>
		<path fill="#24763B" d="M97.738,55.825c0,0,0.013,1.654,1.089,7.08c0.407,2.046,5.223,7.827,5.223,7.827
			s-2.58-10.306-3.041-19.768C100.395,38.336,102.174,0,102.174,0L97.738,55.825z"/>
	</g>
	<g>
		<path fill="#D9F0F5" d="M79.008,46.113c-4.205-1.868-8.172-2.829-11.513-4.793c4.292-1.346,9.838-4.015,14.72-9.315
			c17.349-18.827,19.959-32.003,19.959-32.003L98.371,34.77c0,0-5.243,8.194-13.812,12.491c-2.125,1.071-4.468,1.46-6.826,1.419
			C78.277,47.711,79.419,46.516,79.008,46.113z"/>
		<path fill="#F3FAFE" d="M83.475,40.871c15.371-20.442,18.701-40.869,18.701-40.869L98.373,34.77c0,0-2.803,14.062-11.369,18.361
			c-0.349,0.173-0.696,0.33-1.045,0.474c-1.938-1.744-6.048-1.564-8.19-3.669c-1.275-0.628,1.88-3.193,1.239-3.825
			c-0.107-0.048-0.212-0.091-0.318-0.137C80.26,44.665,81.876,42.995,83.475,40.871z"/>
		<path fill="#D9F0F5" d="M102.176,0.001c0,0,10.599,25.214,26.87,41.961c1.654,1.704,3.292,3.126,4.876,4.324
			c0.472,0.646,1.027,1.27,1.657,1.89c0.643,0.629,0.022,2.543-0.606,3.182c-3.805,1.302-7.034-5.024-9.553-2.461
			c-0.767,0.518-1.347,1.114-1.845,1.732c-7.22-3.704-14.977-7.414-14.977-7.414L102.176,0.001z"/>
		<path fill="#BFDCE3" d="M102.176,0.001l6.216,55.819c-0.842-0.299-1.703-0.321-2.611,0.233c-1.26,1.283-1.246,3.186-1.868,4.464
			c-0.67,0.544-1.231,0.869-1.707,1.035c-0.535-3.238-1.019-6.972-1.195-10.588C100.395,38.337,102.176,0.001,102.176,0.001z"/>
		<path fill="#D9F0F5" d="M102.176,0.001l-3.678,49.792c0,0-0.034,1.257-0.64,3.063c-0.403-0.636-0.925-1.072-1.648-1.17
			c-3.817-0.602-4.391,7.028-9.477,6.435c0.615-2.332,0.178-3.663-0.788-4.526c0.938-1.465,1.88-3.221,2.788-5.342
			C96.783,29.459,102.176,0.001,102.176,0.001z"/>
		<path fill="#BFDCE3" d="M108.599,43.219l-6.423-43.216c0,0,11.381,35.162,21.321,48.812c0.261,0.352,0.521,0.693,0.787,1.026
			c-2.238,2.231-2.632,5.139-6.318,5.926C111.036,51.178,108.599,43.219,108.599,43.219z"/>
		<path fill="#D9F0F5" d="M115.398,49.823c0.73,2.037,1.803,4.006,3.021,5.832c-0.686,0.193-1.497,0.305-2.476,0.314
			c-0.637,0.006-1.894,1.285-1.248,2.551c-2.26,0.471-4.223-1.959-6.306-2.7l-6.216-55.819
			C102.176,0.001,106.023,23.694,115.398,49.823z"/>
		<path fill="#F3FAFE" d="M101.009,50.966c0.175,3.615,0.66,7.351,1.194,10.588c-3.238,1.12-2.578-5.552-4.243-8.518l4.216-53.034
			C102.176,0.001,100.395,38.337,101.009,50.966z"/>
	</g>
</g>
<g>
</g>
<g>
</g>
<g>
</g>
<g>
</g>
<g>
</g>
<g>
</g>
</svg>
