<?xml version="1.0" encoding="utf-8"?>
<!-- Generator: Adobe Illustrator 16.0.0, SVG Export Plug-In . SVG Version: 6.00 Build 0)  -->
<!DOCTYPE svg PUBLIC "-//W3C//DTD SVG 1.1//EN" "http://www.w3.org/Graphics/SVG/1.1/DTD/svg11.dtd">
<svg version="1.1" id="Layer_1" xmlns="http://www.w3.org/2000/svg" xmlns:xlink="http://www.w3.org/1999/xlink" x="0px" y="0px"
	 width="551.051px" height="776.737px" viewBox="0 0 551.051 776.737" enable-background="new 0 0 551.051 776.737"
	 xml:space="preserve">
<g>
	<g>
		<polygon fill="#4C3513" points="170.426,631.784 199.772,621.604 192.783,601.453 186.62,587.096 185.24,579.712 182.656,573.826 
			181.055,565.903 163.473,516.965 134.126,527.148 155.463,588.654 157.915,593.665 159.33,599.798 163.594,610.038 
			164.632,615.074 		"/>
		<polygon fill="#7F5522" points="170.426,631.784 172.997,630.892 166.007,610.742 159.846,596.384 158.465,589.001 
			155.879,583.115 154.279,575.194 136.695,526.257 134.126,527.148 155.463,588.654 157.915,593.665 159.33,599.798 
			163.594,610.038 164.632,615.074 		"/>
		<polygon fill="#362612" points="192.025,624.29 196.141,622.863 189.15,602.713 182.99,588.356 181.607,580.972 179.022,575.086 
			177.42,567.165 159.843,518.227 155.728,519.655 177.065,581.16 179.515,586.169 180.929,592.306 185.195,602.542 
			186.229,607.581 		"/>
		<polygon fill="#362612" points="187.563,625.84 189.033,625.33 182.044,605.178 176.561,590.584 174.503,583.438 172.229,577.444 
			169.968,569.75 152.732,520.693 151.266,521.201 172.604,582.711 174.644,587.858 176.471,593.853 180.324,604.233 
			181.768,609.129 		"/>
		<polygon fill="#2C2011" points="195.658,623.029 199.772,621.604 192.783,601.453 186.62,587.096 185.24,579.712 182.656,573.826 
			181.055,565.903 163.473,516.965 159.357,518.393 180.695,579.903 183.146,584.909 184.564,591.046 188.826,601.281 
			189.861,606.319 		"/>
		<polygon fill="#2C2011" points="187.264,625.942 187.647,625.81 180.656,605.66 175.451,590.97 173.113,583.919 170.968,577.879 
			168.438,570.28 151.347,521.173 150.965,521.307 172.303,582.816 174.175,588.021 176.17,593.959 179.855,604.396 
			181.469,609.234 		"/>
		<polygon fill="#362612" points="176.718,629.601 178.188,629.091 171.196,608.941 165.713,594.347 163.656,587.202 
			161.382,581.207 159.123,573.511 141.886,524.455 140.417,524.965 161.757,586.472 163.795,591.621 165.624,597.616 
			169.477,607.998 170.921,612.892 		"/>
		<polygon fill="#2C2011" points="176.733,629.595 177.291,629.403 170.3,609.253 165.051,594.581 162.758,587.512 160.593,581.481 
			158.107,573.864 140.99,524.767 140.435,524.958 161.772,586.468 163.673,591.665 165.636,597.612 169.354,608.041 
			170.936,612.886 		"/>
		<polygon fill="#2C2011" points="171.884,631.278 173.192,630.823 166.2,610.675 160.76,596.069 158.66,588.935 156.406,582.933 
			154.104,575.254 136.891,526.188 135.582,526.641 156.922,588.151 158.937,593.305 160.787,599.294 164.616,609.684 
			166.084,614.568 		"/>
		<polygon fill="#6B491C" points="178.065,629.134 178.621,628.94 171.632,608.79 166.383,594.117 164.091,587.05 161.924,581.017 
			159.437,573.404 142.322,524.302 141.766,524.497 163.104,586.006 165.002,591.203 166.97,597.152 170.685,607.579 
			172.268,612.424 		"/>
		<polygon fill="#6B491C" points="195.378,623.128 195.936,622.933 188.943,602.783 183.693,588.111 181.401,581.043 
			179.235,575.013 176.748,567.397 159.635,518.297 159.076,518.491 180.414,580 182.315,585.197 184.281,591.144 187.994,601.571 
			189.58,606.417 		"/>
		<polygon fill="#6B491C" points="189.228,625.262 189.786,625.067 182.794,604.917 177.541,590.244 175.253,583.178 
			173.086,577.146 170.599,569.53 153.482,520.433 152.926,520.626 174.265,582.131 176.164,587.333 178.13,593.275 
			181.846,603.706 183.432,608.55 		"/>
	</g>
	<path fill="#2C2011" d="M150.127,582.298c0,0,27.846,32.464,39.621,34.854c-14.606-15.939-9.62-62.951-9.62-62.951l-46.461-19.338
		L150.127,582.298z"/>
	<path fill="#18140B" d="M147.871,573.747c0,0,24.6,31.93,34.493,34.716c-12.855-15.721-6.342-64.039-6.342-64.039l-43.959-16.246
		L147.871,573.747z"/>
	<g>
		<path fill="#142012" d="M119.254,494.42c0,0-7.759,31.245-30.082,53.802C63.483,574.181,8.29,559.534,8.29,559.534
			s38.18-13.616,57.364-56.688c34.478-77.418,28.722-121.519,28.722-121.519L119.254,494.42z"/>
		<path fill="#1D341A" d="M119.254,494.42c0,0,6.104,47.068-16.217,69.629c-25.691,25.956-69.078,14.361-69.078,14.361
			s30.233-4.318,45.03-49.086c26.575-80.399,15.387-147.997,15.387-147.997L119.254,494.42z"/>
		<path fill="#142012" d="M160.283,510.091c0,0,46.669,5.657,76.441,10.865c31.521,5.515,57.595-23.675,57.595-23.675
			s-29.63,8.591-71.241-12.774c-68.767-35.311-128.702-103.18-128.702-103.18L160.283,510.091z"/>
		<path fill="#10150E" d="M174.936,554.058c0,0-0.989,6.625,0.111,23.59c0.445,6.904,0.095,23.564,0.095,23.564
			s-19.006-29.594-30.471-58.786c-15.296-38.958-50.295-161.099-50.295-161.099L174.936,554.058z"/>
		<path fill="#142012" d="M135.555,541.403c0,0,7.35,23.769-13.732,47.491c-13.969,15.717-44.244,10.277-44.244,10.277
			s21.986-5.262,25.72-52.26c5.356-67.472-8.922-165.584-8.922-165.584L135.555,541.403z"/>
		<path fill="#10150E" d="M160.283,510.091c0,0,18.226,25.396,48.001,30.603c31.52,5.514,61.98-10.433,61.98-10.433
			s-28.396,2.071-57.33-18.397C167.3,479.582,94.376,381.328,94.376,381.328L160.283,510.091z"/>
		<path fill="#142012" d="M174.936,554.058c0,0-0.017,5.985,29.84,10.714c6.836,1.083,41.698-3.014,41.698-3.014
			s-38.403-13.577-57.881-38.159c-57.06-72.02-94.217-142.271-94.217-142.271L174.936,554.058z"/>
		<path fill="#1D341A" d="M139.557,561.13c0,0,1.796,5.178,10.916,21.05c3.445,6.002,24.669,19.032,24.669,19.032
			s-19.006-29.594-30.471-58.786c-15.296-38.958-50.295-161.099-50.295-161.099L139.557,561.13z"/>
	</g>
	<g>
		<path fill="#508294" d="M63.708,555.122c-7.405-11.031-19.958-9.752-31.926-9.299c4.618-3.555,9.521-7.894,14.325-13.137
			c15.359-2.499,33.5-11.158,37.818,3.397c0.573,1.652-3.521,5.846-1.011,7.749c3.089,2.084,7.326-0.259,10.911-0.685
			c-1.481,1.726-3.022,3.423-4.654,5.074c-6.832,6.903-15.752,10.936-25.163,13.134C64.623,559.188,65.086,556.912,63.708,555.122z"
			/>
		<path fill="#77A5B8" d="M91.474,565.837c-8.825,1.215-17.337,6.016-25.948,2.527c-5.134-1.334-0.522-6.705-0.95-10.98
			c5.319-6.882,10.412-15.978,14.39-27.995c2.244,1.254,3.97,3.354,4.961,6.694c0.573,1.652-3.521,5.846-1.011,7.749
			c3.621,2.446,8.83-1.213,12.705-0.707l0.858,2.478c6.712,0.313,13.396-0.794,19.162-3.989c-2.56,8.333-6.526,16.292-12.604,22.436
			c-1.733,1.75-3.548,3.323-5.421,4.745C96.236,566.8,94.554,565.241,91.474,565.837z"/>
		<path fill="#508294" d="M204.381,510.018c1.986-15.237,14.55-18.127,26.375-21.838c18.175,8.063,33.638,10.441,44.771,10.762
			c-15.881,14.805-42.506,4.481-57.802,17.546c-0.498,0.329-0.62,0.78-0.505,1.321c-6.369-0.961-12.881-1.898-19.12-2.769
			C201.289,514.832,203.674,513.619,204.381,510.018z"/>
		<path fill="#385D6A" d="M151.812,550.457c10.679-0.129,10.377-12.001,11.743-20.796l10.831,23.218
			c-2.412,0.312-4.609,1.471-6.467,4.017c-2.158,4.448-2.377,9.146-4.535,13.594c-0.943,1.248-2.638,2.294-4.239,2.974
			c-4.034-7.633-8.269-16.224-11.989-24.974C148.428,549.555,149.93,550.284,151.812,550.457z"/>
		<path fill="#508294" d="M103.408,545.391c6.951-0.787,13.526-3.402,18.665-8.67c0.285,0.829-0.539,1.115-0.255,1.94
			c2.729-2.797,5.714-7.531,9.301-7.85c0.634,0.036,1.223,0.137,1.78,0.276l2.655,10.314c0,0,2.444,7.953,0.444,19.242
			c-8.739-2.86-17.607-1.229-23.749,9.086l0.537-1.113c-3.841,2.259-5.964,9.471-10.985,5.662c-1.14-0.769-1.98-2.002-2.791-3.3
			c1.969-6.462,3.518-14.376,4.287-24.068C103.335,546.409,103.372,545.898,103.408,545.391z"/>
		<path fill="#385D6A" d="M172.8,523.17c-0.384-2.292-0.522-4.515,0.712-6.144c7.901-9.214,28.526,4.904,30.869-7.009
			c0.189-1.447,0.484-2.771,0.855-4.01c2.634,2.128,5.207,4.097,7.698,5.855c1.938,1.373,3.876,2.636,5.802,3.812
			c-0.342,0.263-0.681,0.53-1.012,0.812c-3.016,1.975,7.565,8.479,3.472,12.671c-5.461,5.595-18.231,0.776-25.091,5.005
			c-0.891,0.688-1.479,1.498-1.834,2.396C185.579,532.937,178.335,527.89,172.8,523.17z"/>
		<path fill="#508294" d="M163.707,528.754c1.684,2.192,2.831,5.496,4.481,4.923c10.765-0.962,1.515-11.629,5.323-16.65
			c1.883-2.191,4.489-3.059,7.396-3.271c2.52,3.274,5.083,6.556,7.685,9.844c2.751,3.47,5.884,6.712,9.227,9.735
			c-0.602,0.229-1.175,0.501-1.714,0.829c-6.57,5.055,2.966,16.546,5.831,24.801c-8.729,1.601-19.391-7.141-27.55-6.086
			l-10.831-23.218C163.604,529.353,163.655,529.053,163.707,528.754z"/>
		<path fill="#77A5B8" d="M131.962,530.905c8.524,1.233,9.537,12.842,15.194,17.584c3.721,8.75,7.955,17.341,11.989,24.974
			c-1.631,0.688-3.169,0.99-3.729,0.716c-4.356-4.843-9.757-9.196-15.4-11.907c-0.339-0.791-0.46-1.141-0.46-1.141L131.962,530.905z
			"/>
	</g>
	<g>
		<path fill="#182916" d="M107.75,452.541c0,0-6.604,26.583-25.595,45.773c-21.856,22.086-68.815,9.627-68.815,9.627
			s32.484-11.586,48.808-48.23c29.334-65.865,24.434-103.386,24.434-103.386L107.75,452.541z"/>
		<path fill="#1D341A" d="M107.75,452.541c0,0,5.192,40.049-13.8,59.242C72.097,533.865,35.18,524,35.18,524
			s25.725-3.676,38.312-41.764c22.61-68.403,13.089-125.912,13.089-125.912L107.75,452.541z"/>
		<path fill="#182916" d="M142.652,465.875c0,0,39.707,4.813,65.039,9.245c26.816,4.688,49.002-20.146,49.002-20.146
			s-25.211,7.311-60.614-10.867c-58.505-30.039-109.498-87.782-109.498-87.782L142.652,465.875z"/>
		<path fill="#142012" d="M155.121,503.281c0,0-0.842,5.637,0.094,20.068c0.381,5.877,0.081,20.048,0.081,20.048
			s-16.167-25.175-25.924-50.012c-13.015-33.144-42.791-137.061-42.791-137.061L155.121,503.281z"/>
		<path fill="#182916" d="M121.618,492.515c0,0,6.249,20.221-11.685,40.404c-11.884,13.372-37.644,8.744-37.644,8.744
			s18.707-4.478,21.882-44.464c4.558-57.405-7.591-140.875-7.591-140.875L121.618,492.515z"/>
		<path fill="#142012" d="M142.652,465.875c0,0,15.508,21.606,40.84,26.038c26.817,4.688,52.734-8.878,52.734-8.878
			s-24.16,1.763-48.777-15.65c-38.823-27.469-100.868-111.06-100.868-111.06L142.652,465.875z"/>
		<path fill="#182916" d="M155.121,503.281c0,0-0.013,5.092,25.39,9.115c5.812,0.921,35.475-2.564,35.475-2.564
			s-32.671-11.552-49.244-32.465c-48.547-61.271-80.16-121.042-80.16-121.042L155.121,503.281z"/>
		<path fill="#1D341A" d="M125.021,509.299c0,0,1.528,4.404,9.288,17.908c2.932,5.105,20.987,16.189,20.987,16.189
			s-16.167-25.175-25.924-50.012c-13.015-33.144-42.791-137.061-42.791-137.061L125.021,509.299z"/>
	</g>
	<g>
		<path fill="#77A5B8" d="M58.621,500.462c-9.874-0.088-19.414,0.766-28.193-2.032c5.231-3.726,11.088-8.693,16.697-15.139
			c5.121-1.893,10.135-4.092,15.354-6.366c2.004,5.781-2.09,9.975-3.134,14.962c12.146,0.566,22.597-3.769,33.886-7.38
			c-3.103,4.719-6.768,9.454-11.075,13.807c-5.666,5.725-13.015,9.125-20.795,11.025C61.131,505.836,62.691,500.417,58.621,500.462z
			"/>
		<path fill="#92BECF" d="M104.382,491.063c0.347-0.356,0.693-0.679,1.042-0.99c-2.127,8.026-5.667,15.84-11.474,21.71
			c-2.287,2.31-4.741,4.265-7.3,5.925c-0.304-0.973-0.787-1.819-1.595-2.367c-6.135-4.347-15.469,0.741-22.426-3.317
			c-1.62-0.785-1.31-3.552-1.194-6.177c3.035-3.971,5.976-8.796,8.597-14.652c9.72-1.625,18.764-5.582,28.722-8.353
			C101.23,481.982,101.585,488.333,104.382,491.063z"/>
		<path fill="#77A5B8" d="M196.883,461.748c2.729-2.8-2.864-8.257-5.948-11.811c5.922-0.529,11.866,0.814,17.934-0.141
			c6.076,2.291,11.735,3.85,16.879,4.869c4.179,1.55,12.003,4.233,10.518,6.447c-2.172,3.912-23.379,7.359-35.089,12.908
			c-13.142-2.144-28.563-4.274-40.279-5.82C170.442,461.903,186.912,468.748,196.883,461.748z"/>
		<path fill="#508294" d="M142.597,497.23c3.991,0.52,6.373-1.054,7.968-3.72l4.557,9.771c0,0-0.277,1.869-0.337,6.198
			c-2.964,2.704-5.578,6.321-7.759,11.186c-0.839,1.731-2.041,2.495-3.492,2.57c-4.726-8.711-10.021-19.311-14.161-29.85
			c-0.215-0.547-0.435-1.117-0.657-1.701C133.226,494.117,137.836,496.611,142.597,497.23z"/>
		<path fill="#77A5B8" d="M104.382,491.063c5.284-5.417,10.586-5.351,15.989-3.385l1.247,4.837c0,0,1.918,6.232,0.564,15.233
			c-0.451-0.399-0.89-0.783-1.306-1.134c-1.632-2.118-6.348,10.066-11.234,12.456c-4.891,2.388-2.266-3.692-6.634-2.136
			c-4.373,1.557-6.226,8.212-15.057,9.428c-0.26-0.037-0.431-0.226-0.554-0.513c3.108-6.551,5.75-15.75,6.773-28.65
			c0.341-4.276,0.584-8.703,0.75-13.224c1.268-0.393,2.539-0.775,3.832-1.135C101.23,481.982,101.585,488.333,104.382,491.063z"/>
		<path fill="#508294" d="M159.662,469.109c6.147-5.188,15.878-3.544,24.776-3.939c1.015,0.77,2.023,1.514,3.011,2.215
			c4.21,2.978,8.406,5.386,12.471,7.344c-4.771,3.738,9.837,5.751,7.461,9.276c-5.175,6.418-18.518-0.051-24.23,7.48
			c-0.053,0.111-0.09,0.224-0.131,0.334c-11.658-2.149-21.205-7.915-28.084-13.468C155.908,474.666,157.232,471.281,159.662,469.109
			z"/>
		<path fill="#77A5B8" d="M159.662,469.109c0.127-0.107,0.265-0.201,0.395-0.305c2.191,2.847,4.418,5.705,6.685,8.562
			c4.507,5.688,10.209,10.679,16.115,14.937c-0.82,3.094,1.92,6.319,3.73,9.087c-10.431,0.13-20.095,0.36-27.906,5.149
			c-3.555-1.885-3.56-3.259-3.56-3.259l-4.557-9.771C154.392,487.126,153.683,474.448,159.662,469.109z"/>
		<path fill="#92BECF" d="M128.715,491.684c0.223,0.584,0.442,1.154,0.657,1.701c4.141,10.539,9.436,21.139,14.161,29.85
			c-4.649,0.25-11.848-6.624-17.789-12.206c-0.543-1.216-0.724-1.729-0.724-1.729l-5.508-21.922
			C122.544,488.362,125.606,490.007,128.715,491.684z"/>
	</g>
	<g>
		<path fill="#1D341A" d="M91.856,404.005c0,0-6.241,25.124-24.191,43.26c-20.654,20.876-65.038,9.101-65.038,9.101
			s30.702-10.949,46.127-45.585c27.726-62.254,23.097-97.715,23.097-97.715L91.856,404.005z"/>
		<path fill="#21401D" d="M91.856,404.005c0,0,4.904,37.849-13.043,55.988c-20.654,20.872-55.546,11.549-55.546,11.549
			s24.312-3.473,36.208-39.471c21.371-64.651,12.375-119.006,12.375-119.006L91.856,404.005z"/>
		<path fill="#1D341A" d="M124.846,416.609c0,0,37.526,4.544,61.47,8.734c25.343,4.433,46.314-19.039,46.314-19.039
			s-23.83,6.91-57.289-10.271c-55.296-28.394-103.49-82.968-103.49-82.968L124.846,416.609z"/>
		<path fill="#182916" d="M136.631,451.958c0,0-0.8,5.328,0.086,18.971c0.358,5.552,0.08,18.947,0.08,18.947
			s-15.285-23.795-24.506-47.271c-12.3-31.324-40.44-129.539-40.44-129.539L136.631,451.958z"/>
		<path fill="#1D341A" d="M104.964,441.783c0,0,5.906,19.111-11.04,38.189c-11.234,12.641-35.583,8.264-35.583,8.264
			s17.681-4.229,20.686-42.023c4.305-54.255-7.176-133.146-7.176-133.146L104.964,441.783z"/>
		<path fill="#182916" d="M124.846,416.609c0,0,14.655,20.418,38.599,24.605c25.347,4.434,49.838-8.393,49.838-8.393
			s-22.831,1.669-46.098-14.79c-36.695-25.958-95.334-104.966-95.334-104.966L124.846,416.609z"/>
		<path fill="#1D341A" d="M136.631,451.958c0,0-0.014,4.814,23.994,8.617c5.495,0.867,33.531-2.425,33.531-2.425
			s-30.883-10.917-46.544-30.682c-45.884-57.913-75.762-114.403-75.762-114.403L136.631,451.958z"/>
		<path fill="#21401D" d="M108.183,457.646c0,0,1.443,4.164,8.776,16.928c2.771,4.826,19.838,15.303,19.838,15.303
			s-15.285-23.795-24.506-47.271c-12.3-31.324-40.44-129.539-40.44-129.539L108.183,457.646z"/>
	</g>
	<g>
		<path fill="#92BECF" d="M44.095,442.605c-6.21-0.81-12.397,0.147-18.745-0.381c4.673-4.022,9.534-9.035,14.016-15.188
			c2.315,0.411,4.527,1.049,6.5,2.004c3.049,0.793-1.011,7.752,1.213,8.826c9.369,4.051,20.662,2.67,30.327-2.561
			c-2.772,4.096-5.998,8.18-9.74,11.959c-5.493,5.551-12.66,8.794-20.228,10.562c0.729-1.678,3.273-3.373,3.973-4.811
			C54.104,447.457,49.084,443.65,44.095,442.605z"/>
		<path fill="#BFDCE3" d="M51.41,453.017c0.78-1.616,0.899-3.078,0.568-4.373c1.54-2.547,3.019-5.383,4.403-8.52
			c11.038,0.85,23.018-4.039,31.472-12.702c1.086,1.253,2.31,2.217,3.613,3.015c-1.488,10.457-4.985,21.805-12.653,29.557
			c-0.798,0.807-1.625,1.553-2.462,2.271c-0.088-0.711-0.166-1.414-0.259-2.087c-9.083,3.149-19.816,6.874-27.632,0.337
			C44.838,458.07,50.329,455.242,51.41,453.017z"/>
		<path fill="#92BECF" d="M160.723,399.286c3.267-3.909,11.544,5.02,18.539,4.591c2.421-0.838-8.24-8.08-5.919-8.887
			c0.666,0.352,1.332,0.699,1.998,1.044c14.961,7.681,27.986,10.54,37.827,11.362c0.724,0.777,1.37,1.658,1.878,2.726
			c-12.098,5.122-28.711,2.56-36.865,13.714c-0.03,0.048-0.049,0.092-0.078,0.137c-10.668-1.707-22.651-3.385-32.55-4.707
			c0.785-0.727,1.587-1.556,2.418-2.521C153.718,411.974,154.725,405.993,160.723,399.286z"/>
		<path fill="#77A5B8" d="M118.45,443.631c7.499-0.867,4.171-14.224,6.44-16.843l11.74,25.17c0,0-0.22,1.495-0.299,4.87
			c-3.332,4.542-4.93,12.282-9.818,15.525c-4.67-8.508-10.061-19.155-14.223-29.749c-0.128-0.334-0.265-0.69-0.401-1.041
			C113.771,442.798,115.861,443.662,118.45,443.631z"/>
		<path fill="#92BECF" d="M99.261,433.64c1.455,0.191,2.75,0.666,3.943,1.312l1.76,6.83c0,0,2.382,7.738-0.244,18.28
			c-1.742,0.067-3.687,0.856-4.837,2.037c-5.173,6.418-10.057,13.665-18.668,10.175c-3.646-1.767-4.349-5.799-4.818-9.626
			c1.191-4.616,2.12-10.046,2.63-16.437c0.312-3.968,0.542-8.068,0.698-12.26c2.93-1.828,5.68-4.02,8.129-6.53
			C90.935,430.977,95.099,432.31,99.261,433.64z"/>
		<path fill="#77A5B8" d="M151.883,409.273c3.313-2.75,6.075,3.131,12.113,6.412c1.079,0.82,2.143,1.608,3.188,2.347
			c3.604,2.55,7.198,4.665,10.697,6.418c-0.946,3.142,8.274,4.344,6.785,10.085c-7.886-3.193-23.142-3.047-27.039,5.297
			c-11.041-3.286-19.702-9.778-25.345-15.068C137.766,423.84,146.659,422.449,151.883,409.273z"/>
		<path fill="#92BECF" d="M142.858,421.398c1.565,2.02,3.149,4.043,4.754,6.071c3.15,3.972,6.92,7.583,10.925,10.826
			c-0.837,1.149-1.426,2.483-1.688,4.04c-1.045,4.987,9.759,6.791,7.311,10.413c-5.395,6.033-18.774-0.142-24.981,1.831
			c-2.547-1.54-2.547-2.621-2.547-2.621l-11.74-25.17c0.15-0.176,0.329-0.305,0.538-0.375
			C132.436,423.98,137.348,425.029,142.858,421.398z"/>
		<path fill="#BFDCE3" d="M111.89,441.564c0.137,0.351,0.273,0.707,0.401,1.041c4.162,10.594,9.553,21.241,14.223,29.749
			c-1.775,1.179-3.984,1.765-6.869,1.389c-1.92-0.136-3.363-1.142-4.604-2.552c-5.673-10.127-6.858-13.545-6.858-13.545
			l-5.804-23.086C105.963,436.183,108.623,439.425,111.89,441.564z"/>
	</g>
	<g>
		<path fill="#21401D" d="M78.523,359.945c0,0-5.491,22.106-21.286,38.07C39.06,416.384,0,406.02,0,406.02
			s27.021-9.634,40.594-40.114c24.399-54.783,20.325-85.99,20.325-85.99L78.523,359.945z"/>
		<path fill="#264E25" d="M78.523,359.945c0,0,4.32,33.309-11.477,49.27c-18.175,18.366-48.882,10.162-48.882,10.162
			s21.396-3.058,31.865-34.736c18.806-56.893,10.889-104.725,10.889-104.725L78.523,359.945z"/>
		<path fill="#21401D" d="M107.558,371.036c0,0,33.025,3.999,54.092,7.687c22.306,3.902,40.756-16.755,40.756-16.755
			s-20.965,6.08-50.412-9.04c-48.662-24.986-91.074-73.012-91.074-73.012L107.558,371.036z"/>
		<path fill="#1D341A" d="M117.926,402.145c0,0-0.701,4.688,0.077,16.69c0.316,4.887,0.069,16.675,0.069,16.675
			s-13.451-20.94-21.562-41.597c-10.826-27.566-35.592-113.998-35.592-113.998L117.926,402.145z"/>
		<path fill="#21401D" d="M90.057,393.189c0,0,5.202,16.819-9.715,33.605c-9.885,11.124-31.31,7.273-31.31,7.273
			s15.558-3.721,18.199-36.98c3.79-47.746-6.312-117.172-6.312-117.172L90.057,393.189z"/>
		<path fill="#1D341A" d="M107.558,371.036c0,0,12.896,17.968,33.966,21.653c22.303,3.901,43.859-7.383,43.859-7.383
			s-20.094,1.465-40.566-13.019c-32.292-22.846-83.897-92.372-83.897-92.372L107.558,371.036z"/>
		<path fill="#21401D" d="M117.926,402.145c0,0-0.012,4.237,21.115,7.58c4.837,0.767,29.51-2.13,29.51-2.13
			s-27.176-9.608-40.959-27.004c-40.38-50.965-66.673-100.676-66.673-100.676L117.926,402.145z"/>
		<path fill="#264E25" d="M92.891,407.149c0,0,1.271,3.663,7.725,14.894c2.438,4.25,17.457,13.468,17.457,13.468
			s-13.451-20.94-21.562-41.597c-10.826-27.566-35.592-113.998-35.592-113.998L92.891,407.149z"/>
	</g>
	<g>
		<path fill="#ADCFDB" d="M39.179,401.761c-2.198-8.167-11.636-6.784-19.943-7.557c5.667-4.758,11.708-11.156,16.797-19.578
			c1.517,0.107,3.014,0.571,4.492,1.692c0.287,0.826-2.189,1.687-2.189,1.687c0.354,6.352,8.104,7.361,9.282,13.428
			c4.348-6.133,11.459-12.301,16.731-10.43c1.65,0.801,3.173,1.232,4.636,1.426c-3.042,5.23-6.91,10.695-11.747,15.586
			c-5.179,5.232-12.052,8.131-19.232,9.605c-0.233-0.191-0.466-0.377-0.699-0.586C38.671,405.636,38.922,403.699,39.179,401.761z"/>
		<path fill="#BFDCE3" d="M59.229,414.23c-7.663-1-15.044-1.201-21.689-7c3.534-3.961,7.041-9.179,10.012-16.077
			c0.023,0.093,0.049,0.186,0.066,0.28c4.348-6.133,11.459-12.301,16.731-10.43c5.246,2.543,9.216,1.414,14.05,0.529
			c-1.172,9.646-4.188,20.446-11.352,27.682c-2.163,2.184-4.504,3.982-6.948,5.475C59.893,414.402,59.619,414.226,59.229,414.23z"/>
		<path fill="#ADCFDB" d="M113.092,366.869c5.209-3.656,10.263,2.915,15.756,0.084l-0.858-2.477
			c5.206-3.655,12.484,3.992,15.468-0.74c2.442-3.623-3.152-9.08-0.709-12.704c0.443-0.919,1.213-1.517,2.182-1.911
			c2.337,1.316,4.693,2.592,7.063,3.807c6.56,3.368,12.695,5.68,18.275,7.246c3.299,2.457,8.822,2.46,12.445,4.74
			c1.111,0.541,0.86,2.479,0.319,3.59c-6.569,5.056-15.651,8.203-24.228,7.479c-1.278-0.164-2.656,0.516-3.763,1.633
			c-17.065-2.75-38.24-5.433-45.171-6.296C110.244,369.524,111.152,367.964,113.092,366.869z"/>
		<path fill="#92BECF" d="M94.606,388.867c0.083,0.017,0.156,0.039,0.239,0.058c2.764-0.034,1.618-3.337,2.156-4.448
			c4.127-1.433,4.77,5.744,8.895,4.313c2.321-0.805,3.473-2.175,4-3.854l8.029,17.21c0,0-0.051,0.353-0.111,1.081
			c-0.142,0.007-0.279,0.025-0.406,0.07c-4.955,1.718-2.379,9.15-5.107,11.945c-1.474,1.508-3.008,2.219-4.591,2.435
			c-3.778-7.035-7.923-15.421-11.199-23.763C95.917,392.404,95.277,390.708,94.606,388.867z"/>
		<path fill="#ADCFDB" d="M67.974,382.257c3.884,0.806,7.266-0.195,11.303-0.883c0.828-0.285,1.973,3.018,2.798,2.729
			c2.631,0.345,4.474,1.152,6.167,2.029l1.815,7.057c0,0,3.342,10.841-3.053,23.8c-0.034-0.11-0.072-0.22-0.11-0.332
			c-7.111,6.167-16.445,11.255-24.516,6.655c-0.652-0.168-1.031-0.691-1.271-1.392c2.797-5.501,5.219-13.429,6.124-24.833
			C67.611,392.328,67.848,387.353,67.974,382.257z"/>
		<path fill="#92BECF" d="M109.65,373.615c0.017-2.744,0.71-5.204,3.441-6.746c5.209-3.656,10.263,2.915,15.756,0.084l-0.858-2.477
			c1.926-1.353,4.134-1.157,6.306-0.613c3.66,3.217,7.191,6.072,10.521,8.425c3.294,2.332,6.578,4.243,9.768,5.819
			c-0.382,0.465-0.718,0.982-0.986,1.533c-0.252,1.937,2.512,1.904,2.259,3.842c-2.594,8.111-14.001,3.475-18.868,8.143
			C123.301,387.744,113.666,378.22,109.65,373.615z"/>
		<path fill="#ADCFDB" d="M117.926,402.145l-8.029-17.21c1.73-5.504-3.322-14.389,3.195-18.066c1.036-0.729,2.066-1.047,3.094-1.117
			c3.66,4.904,7.465,9.865,11.406,14.84c2.991,3.777,6.618,7.187,10.457,10.209c-0.529,0.328-1.014,0.724-1.434,1.206
			c0,0,0.033,2.763,0.607,4.415c-0.187,7.465-5.966,9.467-12.604,8.997c-2.14,0.026-4.296-1.599-5.93-2.069
			C117.929,402.609,117.926,402.145,117.926,402.145z"/>
		<path fill="#BFDCE3" d="M87.52,385.767c2.295,1.116,4.182,2.438,7.087,3.1c0.671,1.841,1.311,3.537,1.904,5.047
			c3.276,8.342,7.421,16.728,11.199,23.763c-3.443,0.473-7.124-1.394-10.91-2.486c-3.174-5.928-3.909-8.041-3.909-8.041
			L87.52,385.767z"/>
	</g>
	<g>
		<path fill="#264E25" d="M67.872,320.674c0,0-4.354,17.528-16.877,30.183c-14.407,14.561-45.371,6.345-45.371,6.345
			s21.421-7.638,32.179-31.798c19.345-43.43,16.112-68.168,16.112-68.168L67.872,320.674z"/>
		<path fill="#206734" d="M67.872,320.674c0,0,3.427,26.405-9.099,39.06c-14.406,14.562-38.749,8.057-38.749,8.057
			s16.959-2.422,25.259-27.536c14.909-45.099,8.632-83.019,8.632-83.019L67.872,320.674z"/>
		<path fill="#264E25" d="M90.887,329.468c0,0,26.179,3.173,42.882,6.094c17.682,3.093,32.308-13.284,32.308-13.284
			s-16.621,4.822-39.965-7.162c-38.572-19.808-72.196-57.88-72.196-57.88L90.887,329.468z"/>
		<path fill="#21401D" d="M99.107,354.13c0,0-0.557,3.716,0.061,13.231c0.25,3.874,0.054,13.219,0.054,13.219
			s-10.661-16.603-17.091-32.976c-8.582-21.852-28.216-90.369-28.216-90.369L99.107,354.13z"/>
		<path fill="#264E25" d="M77.017,347.03c0,0,4.12,13.333-7.704,26.64c-7.836,8.818-24.821,5.765-24.821,5.765
			s12.336-2.947,14.43-29.315c3.006-37.846-5.006-92.883-5.006-92.883L77.017,347.03z"/>
		<path fill="#21401D" d="M90.887,329.468c0,0,10.223,14.244,26.929,17.164c17.68,3.094,34.767-5.852,34.767-5.852
			s-15.929,1.164-32.16-10.319c-25.599-18.11-66.507-73.226-66.507-73.226L90.887,329.468z"/>
		<path fill="#264E25" d="M99.107,354.13c0,0-0.011,3.355,16.741,6.008c3.831,0.609,23.39-1.688,23.39-1.688
			s-21.544-7.617-32.469-21.408c-32.009-40.398-52.854-79.807-52.854-79.807L99.107,354.13z"/>
		<path fill="#206734" d="M79.262,358.099c0,0,1.007,2.902,6.125,11.807c1.93,3.363,13.835,10.675,13.835,10.675
			s-10.661-16.603-17.091-32.976c-8.582-21.852-28.216-90.369-28.216-90.369L79.262,358.099z"/>
	</g>
	<g>
		<path fill="#BFDCE3" d="M33.102,334.053c3.544,1.577,6.801,3.618,9.396-0.04c2.188-1.687,1.718,4.953,4.447,2.156
			c2.98-4.736,6.79-9.758,12.89-8.172c2.146,0.686,2.551,3.446,3.009,5.765c-2.666,5.429-6.515,11.702-11.849,17.095
			c-4.037,4.08-9.376,6.371-14.97,7.557c-6.662-2.889-13.383-4.439-20.752-6.371C20.706,348.418,27.502,342.662,33.102,334.053z"/>
		<path fill="#D8EFF5" d="M38.385,359.487c-0.991-0.48-1.985-0.923-2.977-1.341c3.617-4.061,7.199-9.79,9.875-17.892
			c0.405-1.224,0.793-2.444,1.166-3.656c0.154-0.108,0.318-0.247,0.496-0.429c2.98-4.736,6.79-9.758,12.89-8.172
			c4.161,1.33,1.785,10.48,5.913,9.048c0.841-0.292,1.578-1.188,2.315-2.182c-0.648,8.302-2.874,18.389-9.29,24.87
			c-1.519,1.536-3.153,2.824-4.853,3.925C48.639,361.421,42.456,361.941,38.385,359.487z"/>
		<path fill="#BFDCE3" d="M90.484,325.689c5.996-6.705,13.056,5.646,16.578-0.203c1.902-2.508-3.116-6.318-2.899-11.018
			c5.887-0.071,9.931-1.389,11.356-5.297c3.474,2.107,7.015,4.104,10.592,5.944c9.797,5.029,18.398,7.093,25.097,7.803
			c-3.574,9.117-17.49,7.622-26.135,6.495c-2.765,0.032-4.952,1.718-5.206,3.656c-0.06,0.088-0.109,0.177-0.158,0.262
			c-12.949-1.904-26.062-3.525-28.432-3.816C90.944,328.006,90.073,326.535,90.484,325.689z"/>
		<path fill="#ADCFDB" d="M77.308,334.064c5.093,3.137,9.425,6.083,12.609,0.361l8.435,18.079
			c-7.748,1.806-3.274,13.199-5.49,17.325c-3.428-6.149-7.586-14.211-10.73-22.225C80.759,344.121,79.111,339.451,77.308,334.064z"
			/>
		<path fill="#BFDCE3" d="M60.053,368.619c-1.142-1.67-2.478-2.887-3.921-3.807c1.284-3.834,2.311-8.64,2.789-14.693
			c0.554-6.959,0.732-14.5,0.657-22.173c0.085,0.021,0.169,0.03,0.257,0.052c4.161,1.33,1.785,10.48,5.913,9.048
			c2.457-0.853,4.037-6.849,7.318-5.369l3.95,15.354c0,0,2.584,8.394-2.247,18.503C69.716,363.671,64.709,363.288,60.053,368.619z"
			/>
		<path fill="#ADCFDB" d="M91.372,330.105c-0.179-1.706-1.353-3.46-0.888-4.416c5.996-6.705,13.056,5.646,16.578-0.203
			c1.604-2.112-1.696-5.152-2.648-8.869c5.632,5.541,11.101,10.375,16.008,13.845c0.221,0.155,0.441,0.3,0.658,0.451
			c-0.664,0.612-1.109,1.36-1.213,2.157c-2.442,3.621,5.847,3.521,4.518,7.682c-0.73,5.594-8.23,1.552-12.699,4.24
			C100.545,340.96,93.258,332.486,91.372,330.105z"/>
		<path fill="#BFDCE3" d="M91.376,330.929c0.252-1.938-1.434-4.13-0.892-5.24c2.029-2.271,4.186-2.353,6.28-1.699
			c3.197,4.308,6.534,8.675,10.005,13.053c2.062,2.603,4.5,4.982,7.103,7.136c-0.978,0.196-1.899,0.543-2.699,1.158
			c-2.73,2.796-1.551,8.86-5.425,8.356c-1.938-0.253-5.273-1.871-6.923-1.297c-0.172,0.026-0.319,0.072-0.474,0.108l-8.435-18.079
			C90.434,333.497,90.92,332.351,91.376,330.929z"/>
		<path fill="#D8EFF5" d="M79.262,358.099l-6.686-26.598c0.185,0.045,0.375,0.109,0.569,0.201c1.434,0.695,2.822,1.533,4.162,2.361
			c1.804,5.387,3.451,10.057,4.823,13.541c3.145,8.014,7.303,16.075,10.73,22.225c-0.553,1.029-1.52,1.611-3.203,1.469
			c-1.334-0.173-2.687-0.555-4.051-1.049c-0.083-0.119-0.16-0.235-0.221-0.344C80.269,361.001,79.262,358.099,79.262,358.099z"/>
	</g>
	<g>
		<path fill="#206734" d="M57.416,282.039c0,0-3.223,12.981-12.499,22.353c-10.669,10.784-33.599,4.7-33.599,4.7
			s15.862-5.656,23.83-23.552c14.326-32.161,11.934-50.483,11.934-50.483L57.416,282.039z"/>
		<path fill="#20753A" d="M57.416,282.039c0,0,2.537,19.557-6.735,28.927c-10.673,10.785-28.699,5.966-28.699,5.966
			s12.561-1.794,18.708-20.393c11.039-33.399,6.393-61.482,6.393-61.482L57.416,282.039z"/>
		<path fill="#206734" d="M74.46,288.551c0,0,19.388,2.349,31.758,4.513c13.095,2.291,23.928-9.837,23.928-9.837
			s-12.31,3.569-29.597-5.306c-28.568-14.67-53.467-42.865-53.467-42.865L74.46,288.551z"/>
		<path fill="#264E25" d="M80.549,306.816c0,0-0.412,2.75,0.045,9.799c0.185,2.869,0.04,9.787,0.04,9.787
			s-7.896-12.293-12.657-24.418c-6.356-16.186-20.895-66.928-20.895-66.928L80.549,306.816z"/>
		<path fill="#206734" d="M64.188,301.558c0,0,3.053,9.875-5.704,19.727c-5.804,6.533-18.381,4.271-18.381,4.271
			s9.134-2.185,10.685-21.71c2.224-28.03-3.706-68.789-3.706-68.789L64.188,301.558z"/>
		<path fill="#264E25" d="M74.46,288.551c0,0,7.574,10.549,19.944,12.712c13.092,2.291,25.745-4.334,25.745-4.334
			s-11.794,0.861-23.815-7.643c-18.958-13.412-49.252-54.23-49.252-54.23L74.46,288.551z"/>
		<path fill="#206734" d="M80.549,306.816c0,0-0.008,2.486,12.395,4.449c2.842,0.449,17.325-1.252,17.325-1.252
			s-15.954-5.641-24.044-15.852c-23.708-29.921-39.143-59.105-39.143-59.105L80.549,306.816z"/>
		<path fill="#20753A" d="M65.852,309.752c0,0,0.745,2.151,4.533,8.746c1.432,2.491,10.249,7.903,10.249,7.903
			s-7.896-12.293-12.657-24.418c-6.356-16.186-20.895-66.928-20.895-66.928L65.852,309.752z"/>
	</g>
	<g>
		<path fill="#D8EFF5" d="M37.174,305.336c-6.301-0.587-11.893-0.092-17.107-1.183c4.999-3.641,11.05-9.559,15.082-18.614
			c14.326-32.161,11.934-50.483,11.934-50.483l10.334,46.982c0,0-3.223,12.981-12.499,22.353c-2.301,2.329-5.183,3.866-8.273,4.854
			C36.925,307.739,37.885,305.679,37.174,305.336z"/>
		<path fill="#F3FAFE" d="M40.689,296.539c11.039-33.399,6.393-61.482,6.393-61.482l10.334,46.982c0,0,2.537,19.557-6.735,28.927
			c-0.376,0.381-0.765,0.735-1.154,1.076c-3.291-1.421-8.568,0.622-12.285-1.181c-1.938-0.253,1.044-4.986-0.067-5.524
			c-0.161-0.018-0.317-0.028-0.474-0.04C38.169,302.896,39.54,300.011,40.689,296.539z"/>
		<path fill="#D8EFF5" d="M47.082,235.056c0,0,24.898,28.195,53.467,42.865c2.907,1.491,5.667,2.626,8.256,3.492
			c0.9,0.632,1.897,1.2,2.993,1.732c1.112,0.538,1.146,3.303,0.606,4.414c-4.383,3.371-11.374-3.454-13.529,0.994
			c-0.771,1.012-1.264,2.045-1.638,3.07c-11.038-1.65-22.777-3.073-22.777-3.073L47.082,235.056z"/>
		<path fill="#BFDCE3" d="M47.082,235.056l32.648,70.006c-1.226-0.019-2.359,0.33-3.299,1.452c-1.079,2.224-0.221,4.702-0.472,6.64
			c-0.632,1.006-1.221,1.676-1.771,2.102c-2.118-3.986-4.394-8.641-6.213-13.271C61.62,285.798,47.082,235.056,47.082,235.056z"/>
		<path fill="#D8EFF5" d="M47.082,235.056l17.106,66.502c0,0,0.51,1.652,0.514,4.278c-0.801-0.655-1.676-0.996-2.66-0.806
			c-5.242,0.895-2.63,11.088-9.521,12.553c-0.222-3.306-1.376-4.853-3.016-5.552c0.577-2.319,1.032-5.021,1.283-8.187
			C53.012,275.815,47.082,235.056,47.082,235.056z"/>
		<path fill="#BFDCE3" d="M74.46,288.551l-27.378-53.495c0,0,30.294,40.818,49.252,54.23c0.493,0.348,0.983,0.676,1.477,0.993
			c-1.934,3.892-1.167,7.853-5.622,10.497C81.135,297.849,74.46,288.551,74.46,288.551z"/>
		<path fill="#D8EFF5" d="M86.225,294.162c1.848,2.336,4.113,4.43,6.5,6.273c-0.808,0.555-1.813,1.057-3.084,1.498
			c-0.825,0.285-1.903,2.508-0.506,3.873c-2.736,1.609-6.363-0.696-9.404-0.744l-32.648-70.006
			C47.082,235.056,62.517,264.241,86.225,294.162z"/>
		<path fill="#F3FAFE" d="M67.977,301.984c1.819,4.631,4.095,9.285,6.213,13.271c-3.723,2.88-5.803-6.102-9.275-9.234
			l-17.832-70.965C47.082,235.056,61.62,285.798,67.977,301.984z"/>
	</g>
</g>
<path fill="#87B8CF" d="M63.39,252.825c1.229,1.577,2.016,3.285,2.321,5.267c0.296,1.912-0.795,4.697,1.564,5.379
	c1.919,0.555,3.846,1.12,5.406,2.416c3.899,3.238,3.885,8.021,1.804,12.325c-1.861,3.848-3.019,6.505,2.113,7.724
	c4.222,1.002,7.846-0.561,12.037-0.467c5.188,0.117,8.053,4.674,11.117,8.143c2.431,2.749,5.275,5.613,8.605,7.271
	c6.871-1.384,11.791-3.952,11.791-3.952s-8.845,0.641-19.021-4.707c1.775,0.279,3.492,0.562,5.09,0.842
	c13.095,2.291,23.928-9.837,23.928-9.837s-8.562,2.476-21.429-1.845c-1.23-0.414-2.498-0.889-3.803-1.434
	c-0.11-0.047-0.223-0.096-0.334-0.143c-0.524-0.223-1.056-0.459-1.592-0.705c-0.156-0.072-0.312-0.143-0.471-0.217
	c-0.648-0.305-1.304-0.622-1.969-0.963c-15.617-8.02-30.127-20.074-40.083-29.362C60.576,249.969,62.163,251.252,63.39,252.825z"/>
<path opacity="0.47" fill="#FFFCE8" d="M128.22,552.259c-7.705-2.514-15.691-0.577-23.536,0.164
	c-8.321,0.787-16.502,0.135-23.702-4.479c-3.563-2.283-4.3-7.099-1.315-10.208c3.422-3.567,6.173-7.97,8.17-12.483
	c1.067-2.413,3.59-8.074,1.056-10.456c-2.163-2.033-5.705-2.419-8.255-3.904c-3.596-2.095-6.878-5.482-7.967-9.623
	c-2.416-9.183,3.407-17.761,2.415-26.82c-0.884-8.074-7.602-9.579-14.104-12.505c-2.503-1.126-3.856-4.822-2.987-7.341
	c2.921-8.461,8.214-18.941,7.099-28.09c-0.208-1.705-1.729-4.186-4.104-6.091c-3.88-3.11-8.866-5.056-13.454-6.823
	c-3.731-1.438-6.333-5.727-3.885-9.549c3.674-5.734,8.184-11.062,11.079-17.266c2.53-5.422,3.068-9.672-1.46-13.854
	c-4.071-3.76-6.901-7.787-7.02-13.582c-0.116-5.658,3.495-8.695,4.745-13.746c3.428-13.855,9.356-39.613-11.732-40.771
	c-5.121-0.281-9.311-7.209-4.596-11.096c10.919-9.006,11.301-21.754,9.976-34.928c-0.019-0.186-0.039-0.372-0.059-0.559
	c-1.77,7.465-4.677,16.608-9.435,27.29c-0.25,0.562-0.509,1.112-0.774,1.651c-0.099,0.201-0.204,0.395-0.306,0.593
	c-0.169,0.331-0.336,0.665-0.511,0.987c-0.121,0.223-0.247,0.437-0.37,0.656c-0.161,0.285-0.319,0.575-0.484,0.854
	c-0.13,0.22-0.265,0.43-0.396,0.645c-0.164,0.268-0.325,0.538-0.492,0.798c-0.134,0.208-0.271,0.407-0.408,0.612
	c-0.169,0.255-0.338,0.514-0.51,0.762c-0.137,0.197-0.275,0.384-0.413,0.576c-0.177,0.245-0.352,0.494-0.53,0.733
	c-0.133,0.178-0.269,0.347-0.402,0.521c-0.188,0.244-0.374,0.49-0.564,0.727c-0.123,0.153-0.248,0.3-0.373,0.451
	c-0.202,0.246-0.405,0.494-0.609,0.731c-0.113,0.132-0.228,0.257-0.341,0.386c-0.218,0.248-0.436,0.497-0.655,0.736
	c-0.098,0.106-0.196,0.207-0.294,0.312c-0.237,0.253-0.475,0.506-0.712,0.749c-0.08,0.083-0.161,0.16-0.241,0.241
	c-0.256,0.258-0.512,0.514-0.768,0.76c-0.062,0.061-0.125,0.117-0.188,0.178c-0.274,0.261-0.549,0.52-0.822,0.768
	c-0.039,0.035-0.078,0.068-0.118,0.104c-0.297,0.269-0.594,0.53-0.89,0.784c-0.012,0.01-0.024,0.02-0.037,0.031
	c-0.979,0.837-1.943,1.592-2.871,2.268h0.001c-4.877,3.553-8.749,4.938-8.749,4.938s11.312,2.994,21.742,1.044
	c-5.527,5.996-11.079,6.796-11.079,6.796s10.048,2.684,19.582-0.443c-1.15,2.881-2.394,5.846-3.761,8.916
	c-1.437,3.225-3.065,6.147-4.806,8.805c-1.011,1.544-2.06,2.998-3.132,4.361c-0.01,0.012-0.019,0.024-0.028,0.036
	c-0.338,0.429-0.679,0.847-1.021,1.259c-0.051,0.061-0.102,0.123-0.152,0.184c-0.337,0.402-0.675,0.795-1.014,1.18
	c-0.049,0.055-0.098,0.109-0.146,0.164c-0.353,0.398-0.707,0.789-1.062,1.169c-0.012,0.012-0.022,0.022-0.033,0.034
	c-3.829,4.096-7.748,7.187-11.137,9.447l0.006,0.001c-5.534,3.688-9.655,5.158-9.655,5.158s15.275,4.044,29.361,1.409
	c-7.464,8.1-14.961,9.18-14.961,9.18s8.947,2.383,19.202,1.021c-1.016,2.054-2.095,3.996-3.217,5.85
	c-0.613,1.014-1.241,1.997-1.88,2.953c-0.03,0.046-0.061,0.092-0.091,0.137c-4.633,6.902-9.86,12.303-14.804,16.453
	c0.004,0.001,0.008,0.001,0.013,0.002C9.017,402.794,0,406.02,0,406.02s19.26,5.11,37.024,1.793
	c-9.411,10.202-18.859,11.563-18.859,11.563s12.057,3.22,25.532,1.106c-1.47,2.447-3.008,4.747-4.595,6.903
	c-0.318,0.432-0.639,0.854-0.96,1.274c-0.265,0.347-0.529,0.692-0.797,1.03c-0.332,0.424-0.667,0.838-1.003,1.249
	c-0.261,0.319-0.521,0.636-0.784,0.948c-0.343,0.408-0.688,0.811-1.032,1.207c-0.259,0.298-0.519,0.59-0.779,0.881
	c-0.349,0.391-0.697,0.777-1.047,1.154c-0.262,0.283-0.524,0.559-0.787,0.836c-0.349,0.366-0.697,0.732-1.047,1.088
	c-0.266,0.271-0.531,0.533-0.797,0.797c-0.347,0.344-0.694,0.689-1.041,1.023c-0.271,0.26-0.54,0.509-0.81,0.762
	c-0.342,0.32-0.684,0.644-1.023,0.953c-0.277,0.252-0.552,0.491-0.828,0.736c-0.332,0.295-0.666,0.596-0.996,0.881
	C13.39,452.525,2.627,456.366,2.627,456.366s21.886,5.806,42.073,2.035c-10.695,11.595-21.433,13.142-21.433,13.142
	s15.625,4.162,32.151,0.671c-2.763,4.321-5.728,8.164-8.757,11.593c-0.483,0.547-0.968,1.09-1.455,1.616
	c-0.22,0.238-0.441,0.469-0.662,0.703c-0.474,0.501-0.947,0.998-1.422,1.479c-0.233,0.236-0.467,0.468-0.701,0.699
	c-0.461,0.459-0.922,0.911-1.382,1.351c-0.246,0.235-0.492,0.465-0.738,0.694c-0.447,0.418-0.895,0.83-1.341,1.231
	c-0.254,0.229-0.507,0.453-0.761,0.676c-0.435,0.384-0.868,0.76-1.301,1.127c-0.259,0.22-0.517,0.437-0.774,0.65
	c-0.425,0.354-0.849,0.7-1.27,1.038c-0.256,0.205-0.511,0.409-0.765,0.609c-0.423,0.332-0.842,0.656-1.259,0.973
	c-0.242,0.185-0.484,0.368-0.725,0.547c-0.431,0.321-0.856,0.633-1.28,0.938c-9.784,7.045-17.487,9.803-17.487,9.803
	s23.158,6.144,44.518,2.153C46.541,522.363,35.18,524,35.18,524s6.881,1.833,16.453,2.147c-2.48,3.165-5.027,6.075-7.591,8.727
	c-0.22,0.227-0.44,0.447-0.66,0.671c-0.499,0.508-0.999,1.008-1.499,1.497c-0.267,0.261-0.533,0.521-0.8,0.776
	c-0.477,0.457-0.952,0.902-1.427,1.343c-0.252,0.232-0.504,0.473-0.754,0.701c-0.637,0.579-1.271,1.141-1.903,1.69
	c-0.396,0.344-0.789,0.676-1.183,1.008c-0.269,0.228-0.536,0.454-0.804,0.676c-0.448,0.372-0.896,0.739-1.341,1.097
	c-0.146,0.118-0.291,0.232-0.437,0.349c-0.487,0.387-0.973,0.771-1.453,1.141h0.007C18.926,555.735,8.29,559.534,8.29,559.534
	s27.227,7.225,52.335,2.532c-13.305,14.432-26.666,16.345-26.666,16.345s40.306,10.767,66.225-11.698
	c-0.143,0.567-0.283,1.138-0.432,1.686c-0.016,0.056-0.03,0.112-0.046,0.169c-0.226,0.825-0.457,1.631-0.695,2.413
	c-7.581,24.872-21.433,28.191-21.433,28.191s30.275,5.439,44.244-10.277c9.627-10.833,13.322-21.671,14.498-30.254
	C134.231,555.72,131.573,553.354,128.22,552.259z"/>
<g>
	<g>
		<polygon fill="#4C3513" points="293.313,776.737 346.4,770.925 342.05,731.162 336.965,702.315 337.356,688.259 335.172,676.402 
			335.391,661.265 323.808,564.424 270.722,570.232 284.002,691.619 286.28,701.815 286.409,713.61 289.817,734.128 
			289.705,743.759 		"/>
		<polygon fill="#7F5522" points="293.313,776.737 297.965,776.223 293.615,736.458 288.528,707.614 288.921,693.553 286.736,681.7 
			286.954,666.568 275.373,569.724 270.722,570.232 284.002,691.619 286.28,701.815 286.409,713.61 289.817,734.128 
			289.705,743.759 		"/>
		<polygon fill="#362612" points="332.385,772.458 339.829,771.645 335.479,731.879 330.394,703.032 330.784,688.975 
			328.601,677.12 328.818,661.988 317.236,565.144 309.792,565.96 323.073,687.342 325.354,697.537 325.48,709.337 328.889,729.854 
			328.777,739.483 		"/>
		<polygon fill="#362612" points="324.317,773.34 326.976,773.052 322.624,733.289 318.767,704.307 317.931,690.382 
			316.309,678.466 315.336,663.462 304.382,566.553 301.724,566.842 315.006,688.228 316.546,698.5 317.411,710.219 
			320.082,730.816 320.71,740.365 		"/>
		<polygon fill="#2C2011" points="338.956,771.741 346.4,770.925 342.05,731.162 336.965,702.315 337.356,688.259 335.172,676.402 
			335.391,661.265 323.808,564.424 316.364,565.238 329.645,686.626 331.925,696.818 332.053,708.624 335.459,729.132 
			335.349,738.763 		"/>
		<polygon fill="#2C2011" points="323.771,773.402 324.466,773.325 320.112,733.561 316.759,704.527 315.42,690.653 314.03,678.712 
			312.569,663.761 301.872,566.828 301.18,566.901 314.46,688.29 315.697,698.591 316.866,710.279 319.231,730.908 320.166,740.424 
					"/>
		<polygon fill="#362612" points="304.697,775.487 307.355,775.197 303.005,735.429 299.143,706.452 298.311,692.526 
			296.689,680.613 295.716,665.607 284.761,568.698 282.103,568.991 295.387,690.373 296.922,700.645 297.791,712.364 
			300.46,732.964 301.089,742.513 		"/>
		<polygon fill="#2C2011" points="304.725,775.482 305.73,775.373 301.382,735.612 297.945,706.585 296.688,692.703 295.262,680.77 
			293.877,665.806 283.14,568.876 282.132,568.983 295.413,690.372 296.697,700.67 297.818,712.363 300.233,732.988 
			301.117,742.514 		"/>
		<polygon fill="#2C2011" points="295.949,776.447 298.319,776.187 293.967,736.418 290.181,707.434 289.273,693.517 
			287.688,681.597 286.642,666.598 275.725,569.687 273.357,569.945 286.638,691.331 288.131,701.605 289.044,713.326 
			291.667,733.924 292.343,743.469 		"/>
		<polygon fill="#6B491C" points="307.132,775.225 308.141,775.112 303.789,735.344 300.352,706.317 299.095,692.44 
			297.671,680.505 296.285,665.544 285.547,568.609 284.539,568.722 297.819,690.111 299.106,700.409 300.227,712.102 
			302.643,732.722 303.524,742.248 		"/>
		<polygon fill="#6B491C" points="338.448,771.794 339.456,771.685 335.106,731.917 331.669,702.894 330.413,689.015 
			328.985,677.077 327.602,662.117 316.864,565.183 315.854,565.297 329.135,686.682 330.419,696.981 331.543,708.675 
			333.957,729.298 334.84,738.821 		"/>
		<polygon fill="#6B491C" points="327.322,773.014 328.333,772.903 323.981,733.138 320.543,704.11 319.288,690.231 317.86,678.294 
			316.477,663.334 305.738,566.401 304.729,566.514 318.01,687.896 319.298,698.199 320.416,709.891 322.831,730.514 
			323.716,740.037 		"/>
	</g>
	<path fill="#2C2011" d="M277.362,677.714c0,0,34.893,71.268,53.819,80.744c-18.705-35.403,6.95-118.929,6.95-118.929
		l-71.012-55.435L277.362,677.714z"/>
	<path fill="#18140B" d="M276.714,661.145c0,0,29.631,68.888,45.239,78.265c-15.838-34.236,12.869-119.483,12.869-119.483
		l-67.948-48.714L276.714,661.145z"/>
	<g>
		<path fill="#142012" d="M257.742,504.121c0,0-24.532,53.579-70.35,85c-52.729,36.15-140.155-14.524-140.155-14.524
			s69.204-8.229,117.281-78.406c86.42-126.138,92.943-209.022,92.943-209.022L257.742,504.121z"/>
		<path fill="#1D341A" d="M257.742,504.121c0,0-7.033,88.448-52.854,119.868c-52.728,36.154-121.426-3.834-121.426-3.834
			s52.425,5.261,93.751-69.907c74.226-135.006,80.248-263.08,80.248-263.08L257.742,504.121z"/>
		<path fill="#142012" d="M320.967,550.509c0,0,76.394,30.585,124.543,53.016c50.973,23.745,105.541-18.135,105.541-18.135
			s-52.98,2.788-115.096-54.232c-102.655-94.24-178.493-243.99-178.493-243.99L320.967,550.509z"/>
		<path fill="#10150E" d="M329.454,637.016c0,0-4.101,11.646-8.482,43.048c-1.787,12.779-8.495,42.991-8.495,42.991
			s-21.085-62.196-29.635-120.39c-11.411-77.658-25.38-315.498-25.38-315.498L329.454,637.016z"/>
		<path fill="#142012" d="M267.887,596.838c0,0,3.621,46.516-40.536,80.599c-29.263,22.584-78.171-0.487-78.171-0.487
			s38.9-0.035,62.445-84.085c33.797-120.66,45.837-305.697,45.837-305.697L267.887,596.838z"/>
		<path fill="#10150E" d="M320.967,550.509c0,0,21.316,54.21,69.467,76.638c50.974,23.742,108.05,7.908,108.05,7.908
			s-48.505-8.56-89.634-58.438c-64.871-78.675-151.388-289.449-151.388-289.449L320.967,550.509z"/>
		<path fill="#142012" d="M329.454,637.016c0,0-2.225,10.904,46.236,32.492c11.097,4.944,71.225,12.624,71.225,12.624
			s-59.587-41.434-83.305-94.702c-69.48-156.067-106.148-300.263-106.148-300.263L329.454,637.016z"/>
		<path fill="#1D341A" d="M267.37,634.539c0,0,1.115,10.215,10.617,43.107c3.59,12.438,34.489,45.409,34.489,45.409
			s-21.085-62.196-29.635-120.39c-11.411-77.658-25.38-315.498-25.38-315.498L267.37,634.539z"/>
	</g>
	<g>
		<path fill="#508294" d="M142.042,590.634c-8.4-23.33-29.977-26.448-50.265-30.819c9.071-4.479,18.908-10.256,28.911-17.725
			c26.743,2.113,60.43-5.787,62.343,22.626c0.359,3.256-8.067,9.121-4.547,13.68c4.428,5.141,12.415,2.714,18.598,3.495
			c-3.121,2.505-6.343,4.926-9.689,7.229c-14.025,9.611-30.501,13.088-47.137,13.007
			C142.085,598.439,143.696,594.493,142.042,590.634z"/>
		<path fill="#77A5B8" d="M184.792,622.229c-15.292-1.622-31.362,3.433-44.558-6.666c-8.146-4.663,1.58-12.451,2.438-20.437
			c11.469-10.229,23.374-24.594,34.479-44.77c3.312,3.256,5.442,7.836,5.88,14.359c0.359,3.256-8.067,9.121-4.547,13.68
			c5.194,6.031,15.292,1.629,21.621,4.233l0.535,4.887c11.169,3.485,22.82,4.377,33.687,1.057
			c-7.368,14.075-16.964,26.858-29.438,35.416c-3.555,2.436-7.182,4.519-10.854,6.295
			C192.443,626.043,190.19,622.475,184.792,622.229z"/>
		<path fill="#508294" d="M395.144,569.534c8.938-26.911,31.127-26.721,52.372-28.347c27.596,22.59,52.725,33.646,71.325,39.063
			c-32.141,20.086-73.115-10.298-103.638,6.875c-0.958,0.377-1.329,1.15-1.332,2.187c-10.355-4.522-20.963-9.057-31.137-13.349
			C388.176,576.97,392.629,575.791,395.144,569.534z"/>
		<path fill="#385D6A" d="M291.895,620.404c18.008,4.404,21.861-17.362,27.39-32.8l9.678,47.023
			c-4.169-0.481-8.287,0.678-12.348,4.51c-5.262,7.167-7.356,15.643-12.618,22.812c-2.046,1.861-5.277,3.031-8.223,3.576
			c-3.975-15.666-7.94-33.169-10.984-50.73C286.537,617.291,288.794,619.27,291.895,620.404z"/>
		<path fill="#508294" d="M212.373,590.144c11.973,1.583,23.993-0.33,34.562-7.691c0.178,1.629-1.313,1.795-1.136,3.42
			c5.619-3.907,12.37-11.243,18.524-10.27c1.05,0.346,2.002,0.786,2.89,1.281l0.673,19.954c0,0,1.191,15.559-6.321,35.268
			c-13.642-9.014-29.155-9.892-43.271,6.245l1.313-1.796c-7.289,2.447-13.508,14.668-20.551,5.55
			c-1.634-1.896-2.598-4.515-3.481-7.233c5.685-10.919,11.193-24.673,16.05-42.007C211.876,591.958,212.124,591.049,212.373,590.144
			z"/>
		<path fill="#385D6A" d="M337.214,579.787c0.194-4.348,0.78-8.457,3.452-10.889c16.674-13.365,46.16,21.333,54.478,0.636
			c0.849-2.56,1.832-4.844,2.909-6.938c3.65,5.025,7.256,9.729,10.797,14.021c2.757,3.343,5.546,6.485,8.353,9.469
			c-0.67,0.328-1.338,0.668-1.999,1.04c-5.796,2.282,9.607,18.736,1.181,24.604c-11.233,7.827-30.938-6.509-44.022-1.777
			c-1.754,0.864-3.037,2.087-3.964,3.57C355.115,603.14,344.783,590.793,337.214,579.787z"/>
		<path fill="#508294" d="M319.87,586.014c2.028,4.729,2.74,11.243,5.727,10.917c18.458,2.926,6.822-20.533,15.069-28.033
			c3.971-3.178,8.672-3.625,13.639-2.75c3.034,7.062,6.135,14.159,9.306,21.282c3.348,7.518,7.426,14.789,11.935,21.754
			c-1.096,0.155-2.162,0.396-3.184,0.768c-12.905,6.358-1.094,31.444,0.689,47.739c-15.263-0.873-29.977-21.438-44.089-23.063
			l-9.678-47.023C319.479,587.066,319.672,586.535,319.87,586.014z"/>
		<path fill="#77A5B8" d="M265.704,576.142c13.879,5.956,11.317,27.552,19.085,38.652c3.044,17.562,7.01,35.064,10.984,50.73
			c-2.996,0.542-5.689,0.426-6.532-0.312c-5.546-10.721-13.026-21.008-21.521-28.401c-0.275-1.582-0.351-2.272-0.351-2.272
			L265.704,576.142z"/>
	</g>
	<g>
		<path fill="#182916" d="M253.78,422.783c0,0-20.866,45.586-59.852,72.316C149.07,525.86,74.688,482.746,74.688,482.746
			s58.879-7.002,99.783-66.707c73.524-107.314,79.073-177.832,79.073-177.832L253.78,422.783z"/>
		<path fill="#1D341A" d="M253.78,422.783c0,0-5.98,75.257-44.965,101.987c-44.858,30.763-103.306-3.264-103.306-3.264
			s44.602,4.478,79.761-59.478c63.149-114.859,68.273-223.822,68.273-223.822L253.78,422.783z"/>
		<path fill="#182916" d="M307.574,462.253c0,0,64.992,26.021,105.957,45.105c43.368,20.201,89.793-15.431,89.793-15.431
			s-45.074,2.375-97.921-46.142c-87.337-80.175-151.859-207.58-151.859-207.58L307.574,462.253z"/>
		<path fill="#142012" d="M314.792,535.85c0,0-3.487,9.913-7.214,36.624c-1.52,10.875-7.229,36.578-7.229,36.578
			s-17.938-52.917-25.216-102.428c-9.705-66.065-21.59-268.418-21.59-268.418L314.792,535.85z"/>
		<path fill="#182916" d="M262.412,501.669c0,0,3.081,39.574-34.486,68.571c-24.896,19.217-66.506-0.411-66.506-0.411
			s33.096-0.032,53.127-71.546c28.754-102.651,38.997-260.077,38.997-260.077L262.412,501.669z"/>
		<path fill="#142012" d="M307.574,462.253c0,0,18.133,46.117,59.102,65.2c43.365,20.199,91.924,6.733,91.924,6.733
			s-41.267-7.285-76.261-49.722c-55.188-66.937-128.795-246.259-128.795-246.259L307.574,462.253z"/>
		<path fill="#182916" d="M314.792,535.85c0,0-1.893,9.278,39.339,27.648c9.441,4.202,60.596,10.735,60.596,10.735
			s-50.694-35.251-70.873-80.567c-59.114-132.78-90.31-255.46-90.31-255.46L314.792,535.85z"/>
		<path fill="#1D341A" d="M261.975,533.747c0,0,0.948,8.689,9.033,36.676c3.055,10.579,29.342,38.63,29.342,38.63
			s-17.938-52.917-25.216-102.428c-9.705-66.065-21.59-268.418-21.59-268.418L261.975,533.747z"/>
	</g>
	<g>
		<path fill="#77A5B8" d="M153.567,488.79c-16.565-4.451-32.919-7.04-46.654-15.952c10.165-4.521,21.838-11.031,33.638-20.341
			c9.305-1.224,18.543-3.059,28.153-4.934c1.249,11.405-7.178,17.273-10.767,25.911c20.215,6.309,39.379,2.95,59.688,1.269
			c-6.947,7.255-14.851,14.294-23.696,20.356c-11.623,7.974-25.231,10.975-39.011,11.06
			C155.816,499.673,160.436,490.471,153.567,488.79z"/>
		<path fill="#92BECF" d="M233.967,491.537c0.716-0.5,1.417-0.938,2.115-1.354c-6.52,13.708-15.349,26.411-27.267,34.587
			c-4.695,3.217-9.539,5.718-14.45,7.632c-0.151-1.909-0.653-3.662-1.814-5.007c-8.715-10.588-26.278-5.369-36.489-15.795
			c-2.433-2.133-0.895-7.038,0.267-11.777c6.556-5.917,13.275-13.436,19.833-22.972c16.943,1.263,33.601-2.021,51.363-2.746
			C232.006,473.613,230.266,485.345,233.967,491.537z"/>
		<path fill="#77A5B8" d="M400.273,478.287c5.616-3.91-1.785-16.293-5.663-24.112c10.149,1.61,19.648,6.643,30.204,7.538
			c9.374,6.818,18.32,12.114,26.588,16.211c6.459,4.633,18.629,12.929,15.319,16.32c-5.085,6.185-42.012,3.257-63.742,8.282
			c-21.306-9.618-46.455-20.203-65.586-28.109C355.758,467.085,380.935,486.717,400.273,478.287z"/>
		<path fill="#508294" d="M295.954,519.379c6.522,2.688,11.104,0.847,14.766-3.317l4.072,19.788c0,0-1.153,3.289-2.843,11.152
			c-5.978,3.642-11.699,9.101-17.156,17.021c-2.042,2.787-4.349,3.656-6.819,3.163c-4.742-17.933-9.75-39.548-12.84-60.562
			c-0.158-1.09-0.321-2.222-0.481-3.38C281.345,509.635,288.183,516.181,295.954,519.379z"/>
		<path fill="#77A5B8" d="M233.967,491.537c10.877-7.577,19.767-5.155,28.132,0.775l0.313,9.357c0,0,0.94,12.196-4.643,28.014
			c-0.61-0.923-1.206-1.81-1.781-2.633c-1.962-4.569-14.37,15.594-23.468,17.821c-9.099,2.228-2.448-7.715-10.368-6.772
			c-7.926,0.941-13.485,12.268-28.777,10.644c-0.426-0.181-0.646-0.598-0.742-1.177c7.632-10.589,15.453-26.213,21.914-49.282
			c2.142-7.645,4.179-15.604,6.12-23.774c2.271-0.164,4.554-0.312,6.857-0.404C232.006,473.613,230.266,485.345,233.967,491.537z"/>
		<path fill="#508294" d="M334.984,475.538c12.242-6.79,27.994,0.438,43.104,3.584c1.426,1.842,2.847,3.64,4.251,5.344
			c5.986,7.258,12.156,13.468,18.271,18.807c-9.396,4.741,14.427,14.752,9.134,20.145c-11.056,9.455-31.116-8.136-43.487,3.109
			c-0.13,0.182-0.23,0.371-0.345,0.552c-18.812-8.981-32.744-23.642-42.271-36.751C326.63,484.035,330.101,478.439,334.984,475.538z
			"/>
		<path fill="#77A5B8" d="M334.984,475.538c0.256-0.142,0.518-0.253,0.776-0.386c2.636,6.144,5.335,12.318,8.093,18.515
			c5.488,12.322,13.238,23.896,21.608,34.225c-2.515,5.281,0.906,12.353,2.935,18.189c-17.587-4.298-33.922-8.075-48.815-2.743
			c-5.284-4.976-4.789-7.487-4.789-7.487l-4.072-19.788C319.499,506.087,322.97,482.669,334.984,475.538z"/>
		<path fill="#92BECF" d="M274.652,503.245c0.16,1.158,0.323,2.29,0.481,3.38c3.09,21.014,8.098,42.629,12.84,60.562
			c-7.905-1.562-17.481-17.221-25.42-29.976c-0.47-2.45-0.579-3.464-0.579-3.464l-1.21-42.356
			C265.499,494.503,270.041,498.834,274.652,503.245z"/>
	</g>
	<g>
		<path fill="#1D341A" d="M244.892,327.406c0,0-19.726,43.085-56.569,68.351c-42.4,29.071-112.7-11.677-112.7-11.677
			s55.649-6.619,94.308-63.047c69.491-101.428,74.736-168.078,74.736-168.078L244.892,327.406z"/>
		<path fill="#21401D" d="M244.892,327.406c0,0-5.654,71.125-42.5,96.389c-42.396,29.074-97.642-3.08-97.642-3.08
			s42.159,4.232,75.388-56.217c59.685-108.558,64.528-211.543,64.528-211.543L244.892,327.406z"/>
		<path fill="#1D341A" d="M295.732,364.713c0,0,61.428,24.591,100.146,42.628c40.985,19.094,84.866-14.584,84.866-14.584
			s-42.604,2.244-92.551-43.609c-82.545-75.778-143.528-196.193-143.528-196.193L295.732,364.713z"/>
		<path fill="#182916" d="M302.556,434.271c0,0-3.296,9.363-6.818,34.613c-1.436,10.276-6.833,34.572-6.833,34.572
			s-16.955-50.018-23.831-96.809c-9.176-62.441-20.407-253.693-20.407-253.693L302.556,434.271z"/>
		<path fill="#1D341A" d="M253.049,401.961c0,0,2.912,37.405-32.595,64.812c-23.532,18.164-62.859-0.392-62.859-0.392
			s31.283-0.028,50.216-67.615c27.175-97.022,36.855-245.812,36.855-245.812L253.049,401.961z"/>
		<path fill="#182916" d="M295.732,364.713c0,0,17.139,43.587,55.858,61.622c40.987,19.093,86.884,6.357,86.884,6.357
			s-39.004-6.882-72.077-46.99c-52.163-63.263-121.731-232.748-121.731-232.748L295.732,364.713z"/>
		<path fill="#1D341A" d="M302.556,434.271c0,0-1.79,8.77,37.18,26.13c8.923,3.974,57.271,10.15,57.271,10.15
			s-47.913-33.319-66.984-76.152c-55.874-125.495-85.356-241.444-85.356-241.444L302.556,434.271z"/>
		<path fill="#21401D" d="M252.634,432.277c0,0,0.898,8.217,8.538,34.666c2.888,10.004,27.732,36.514,27.732,36.514
			s-16.955-50.018-23.831-96.809c-9.176-62.441-20.407-253.693-20.407-253.693L252.634,432.277z"/>
	</g>
	<g>
		<path fill="#92BECF" d="M150.404,377.016c-10.143-4.176-20.903-5.114-31.384-8.838c9.34-5.304,19.356-12.325,29.15-21.595
			c3.74,1.759,7.229,3.877,10.192,6.478c4.838,2.768-4.546,13.687-1.203,16.62c14.264,11.451,33.758,13.843,51.935,8.5
			c-6.167,6.264-13.093,12.309-20.772,17.575c-11.273,7.729-24.518,10.522-37.89,10.459c1.843-2.743,6.742-4.724,8.441-7.042
			C165.451,390.209,158.408,381.086,150.404,377.016z"/>
		<path fill="#BFDCE3" d="M158.874,399.173c1.912-2.605,2.646-5.219,2.569-7.723c3.524-3.974,7.053-8.504,10.532-13.619
			c18.246,6.35,40.185,2.641,57.581-9.477c1.365,2.751,3.068,5.043,4.972,7.062c-6.349,18.415-16.394,37.584-32.137,48.377
			c-1.641,1.124-3.303,2.125-4.978,3.072c0.121-1.332,0.243-2.646,0.334-3.916c-16.429,1.796-35.843,3.921-46.584-11.393
			C145.97,405.531,156.243,402.758,158.874,399.173z"/>
		<path fill="#92BECF" d="M362.419,348.724c6.933-5.705,17.569,14.164,29.485,16.426c4.381-0.48-10.886-18.312-6.688-18.771
			c0.99,0.929,1.982,1.854,2.978,2.77c22.334,20.502,43.181,31.373,59.428,37.143c0.934,1.732,1.697,3.623,2.159,5.787
			c-22.225,4.08-49.216-7.807-67.024,8.981c-0.072,0.072-0.122,0.144-0.187,0.216c-17.309-7.746-36.84-16.011-52.997-22.723
			c1.584-0.98,3.24-2.145,4.991-3.549C345.977,368.808,349.867,358.343,362.419,348.724z"/>
		<path fill="#77A5B8" d="M275.052,411.195c12.928,1.674,12.234-24.119,17.013-27.905l10.491,50.981c0,0-0.915,2.624-2.291,8.744
			c-7.272,6.834-12.798,20.248-22.214,24.035c-4.724-17.535-9.874-39.288-12.978-60.402c-0.098-0.67-0.198-1.374-0.296-2.074
			C267.49,407.644,270.684,410.126,275.052,411.195z"/>
		<path fill="#92BECF" d="M246.453,384.644c2.378,0.979,4.378,2.405,6.15,4.102l0.445,13.216c0,0,1.162,15.145-7.121,33.216
			c-2.959-0.633-6.513-0.04-8.882,1.61c-11.057,9.452-21.935,20.538-35.13,10.438c-5.482-4.807-5.181-12.459-4.563-19.642
			c3.698-7.893,7.256-17.386,10.458-28.818c1.985-7.094,3.876-14.472,5.678-22.042c5.604-2.061,11.029-4.858,16.068-8.369
			C233.436,376.175,239.944,380.41,246.453,384.644z"/>
		<path fill="#77A5B8" d="M343.886,363.091c6.583-3.573,9.063,8.346,18.013,16.944c1.513,1.967,3.014,3.866,4.499,5.667
			c5.123,6.214,10.391,11.628,15.632,16.344c-2.748,5.315,12.315,11.517,7.701,21.333c-12.086-9.25-37.792-15.608-47.408-2.09
			c-17.36-10.788-29.537-26.388-37.081-38.479C314.798,383.511,330.261,384.834,343.886,363.091z"/>
		<path fill="#92BECF" d="M324.259,381.266c1.89,4.364,3.808,8.741,5.764,13.133c3.835,8.613,8.847,16.833,14.39,24.483
			c-1.824,1.729-3.312,3.906-4.32,6.63c-3.59,8.638,13.907,16.616,8.468,22.159c-11.293,8.654-31.519-8.414-42.683-7.52
			c-3.715-3.912-3.321-5.881-3.321-5.881l-10.491-50.981c0.321-0.255,0.666-0.411,1.041-0.452
			C305.785,381.45,313.661,385.491,324.259,381.266z"/>
		<path fill="#BFDCE3" d="M264.777,404.574c0.098,0.7,0.198,1.404,0.296,2.074c3.104,21.114,8.254,42.867,12.978,60.402
			c-3.415,1.373-7.342,1.484-12.052-0.453c-3.183-1.086-5.243-3.541-6.81-6.65c-5.818-20.927-6.556-27.67-6.556-27.67l-1.272-44.604
			C256.79,392.191,260.073,399.251,264.777,404.574z"/>
	</g>
	<g>
		<path fill="#21401D" d="M238.663,241.298c0,0-17.356,37.916-49.782,60.148c-37.312,25.586-99.179-10.273-99.179-10.273
			s48.976-5.824,82.994-55.484C233.85,146.431,238.465,87.78,238.465,87.78L238.663,241.298z"/>
		<path fill="#264E25" d="M238.663,241.298c0,0-4.977,62.592-37.399,84.826c-37.311,25.584-85.926-2.713-85.926-2.713
			s37.097,3.723,66.34-49.473c52.525-95.533,56.787-186.159,56.787-186.159L238.663,241.298z"/>
		<path fill="#21401D" d="M283.405,274.13c0,0,54.058,21.641,88.13,37.513c36.069,16.806,74.684-12.833,74.684-12.833
			s-37.491,1.973-81.443-38.378C292.133,193.748,238.465,87.78,238.465,87.78L283.405,274.13z"/>
		<path fill="#1D341A" d="M289.409,335.343c0,0-2.901,8.238-6.001,30.459c-1.265,9.046-6.012,30.425-6.012,30.425
			s-14.921-44.015-20.974-85.192c-8.071-54.952-17.958-223.255-17.958-223.255L289.409,335.343z"/>
		<path fill="#21401D" d="M245.842,306.91c0,0,2.563,32.92-28.682,57.034c-20.709,15.985-55.317-0.347-55.317-0.347
			s27.529-0.021,44.188-59.498c23.915-85.383,32.435-216.319,32.435-216.319L245.842,306.91z"/>
		<path fill="#1D341A" d="M283.405,274.13c0,0,15.083,38.357,49.157,54.226c36.067,16.803,76.458,5.599,76.458,5.599
			s-34.323-6.057-63.431-41.352C299.688,236.928,238.465,87.78,238.465,87.78L283.405,274.13z"/>
		<path fill="#21401D" d="M289.409,335.343c0,0-1.577,7.719,32.72,22.992c7.853,3.498,50.399,8.934,50.399,8.934
			s-42.165-29.32-58.947-67.016C264.412,189.816,238.465,87.78,238.465,87.78L289.409,335.343z"/>
		<path fill="#264E25" d="M245.479,333.587c0,0,0.789,7.23,7.513,30.506c2.54,8.803,24.404,32.134,24.404,32.134
			s-14.921-44.015-20.974-85.192c-8.071-54.952-17.958-223.255-17.958-223.255L245.479,333.587z"/>
	</g>
	<g>
		<path fill="#ADCFDB" d="M157.14,300.431c-0.69-15.842-17.068-17.426-30.751-22.438c11.275-6.21,23.782-15.251,35.436-28.393
			c2.509,0.856,4.855,2.352,6.932,5.041c0.177,1.629-4.303,2.119-4.303,2.119c-1.74,11.731,10.921,16.942,10.675,28.512
			c9.563-9.292,23.784-17.442,31.964-11.742c2.479,2.175,4.883,3.62,7.271,4.611c-7.038,8.215-15.55,16.494-25.482,23.305
			c-10.627,7.289-23.249,9.586-35.862,9.15c-0.323-0.451-0.648-0.889-0.962-1.365C154.866,307.276,156.003,303.853,157.14,300.431z"
			/>
		<path fill="#BFDCE3" d="M186.271,331.871c-12.516-5.152-24.854-8.727-33.897-22.187c7.401-5.683,15.212-13.67,22.747-24.952
			c0.003,0.181,0.012,0.356,0.007,0.541c9.563-9.292,23.784-17.442,31.964-11.742c7.887,6.915,14.979,6.581,23.43,7.064
			c-5.512,17.078-14.558,35.448-29.258,45.529c-4.438,3.043-9.039,5.303-13.695,6.959
			C187.328,332.472,186.934,332.032,186.271,331.871z"/>
		<path fill="#ADCFDB" d="M294.247,268.942c10.097-4.402,16.183,9.771,26.458,6.999l-0.537-4.889
			c10.099-4.402,19.528,12.703,26.281,5.369c5.438-5.543-1.962-17.923,3.479-23.464c1.084-1.479,2.598-2.237,4.369-2.536
			c3.445,3.418,6.938,6.762,10.479,10.011c9.79,8.989,19.259,15.867,28.065,21.146c4.644,5.912,13.933,8.32,19.185,14.051
			c1.67,1.467,0.534,4.888-0.783,6.681c-12.904,6.358-29.331,8.155-43.486,3.108c-2.085-0.857-4.652-0.211-6.922,1.34
			c-27.687-12.426-62.307-26.521-73.641-31.102C288.479,272.546,290.576,270.097,294.247,268.942z"/>
		<path fill="#92BECF" d="M255.082,301.008c0.13,0.067,0.246,0.142,0.379,0.207c4.658,1.14,3.944-5.378,5.261-7.171
			c7.466-0.815,5.905,12.545,13.372,11.729c4.195-0.459,6.636-2.453,8.141-5.289l7.175,34.859c0,0-0.216,0.619-0.581,1.922
			c-0.243-0.048-0.481-0.074-0.714-0.05c-8.96,0.981-7.355,15.646-12.975,19.558c-3.031,2.111-5.872,2.737-8.614,2.443
			c-3.769-14.467-7.659-31.555-10.103-48.182C255.98,308.023,255.531,304.652,255.082,301.008z"/>
		<path fill="#ADCFDB" d="M212.726,277.385c6.232,3.163,12.288,2.809,19.33,3.308c1.494-0.163,2.208,6.354,3.701,6.191
			c4.3,1.769,7.104,4.039,9.627,6.372l0.458,13.653c0,0,1.635,21.214-13.875,42.056c-0.021-0.215-0.043-0.433-0.068-0.653
			c-14.222,8.152-31.785,13.371-43.665,1.48c-1.031-0.59-1.479-1.709-1.626-3.09c6.721-8.81,13.712-22.211,19.423-42.604
			C208.416,295.589,210.642,286.624,212.726,277.385z"/>
		<path fill="#92BECF" d="M285.98,279.74c1.033-4.99,3.102-9.173,8.267-10.798c10.097-4.402,16.183,9.771,26.458,6.999l-0.537-4.889
			c3.734-1.628,7.378-0.312,10.831,1.62c4.97,7.454,9.863,14.194,14.591,19.931c4.686,5.679,9.501,10.592,14.292,14.853
			c-0.815,0.681-1.57,1.476-2.224,2.365c-1.136,3.423,3.524,4.562,2.384,7.984c-7.341,13.656-24.815,0.249-34.718,6.646
			C303.738,311.426,291.035,289.884,285.98,279.74z"/>
		<path fill="#ADCFDB" d="M289.409,335.343l-7.175-34.859c4.929-9.279-0.3-27.668,12.013-31.542
			c2.005-0.874,3.853-1.009,5.605-0.694c4.354,10.53,8.929,21.227,13.729,32.006c3.644,8.186,8.487,15.975,13.834,23.155
			c-1.012,0.369-1.971,0.879-2.856,1.574c0,0-0.958,5.054-0.603,8.312c-3.055,13.524-13.508,14.669-24.496,10.924
			c-3.606-0.881-6.639-4.781-9.209-6.35C289.244,336.19,289.409,335.343,289.409,335.343z"/>
		<path fill="#BFDCE3" d="M244.3,292.281c3.448,3.027,6.138,6.265,10.782,8.728c0.449,3.644,0.898,7.015,1.341,10.026
			c2.443,16.627,6.334,33.715,10.103,48.182c-5.965-0.637-11.465-5.64-17.431-9.277c-3.157-12.181-3.615-16.352-3.615-16.352
			L244.3,292.281z"/>
	</g>
	<g>
		<path fill="#264E25" d="M235.182,165.093c0,0-13.762,30.059-39.464,47.682c-29.579,20.283-78.623-8.143-78.623-8.143
			s38.822-4.617,65.793-43.984c48.478-70.757,52.138-117.252,52.138-117.252L235.182,165.093z"/>
		<path fill="#206734" d="M235.182,165.093c0,0-3.945,49.619-29.65,67.244c-29.574,20.283-68.113-2.15-68.113-2.15
			s29.408,2.953,52.59-39.217c41.638-75.731,45.018-147.575,45.018-147.575L235.182,165.093z"/>
		<path fill="#264E25" d="M270.647,191.121c0,0,42.853,17.156,69.864,29.738c28.594,13.321,59.203-10.175,59.203-10.175
			s-29.719,1.566-64.563-30.421C277.566,127.399,235.025,43.396,235.025,43.396L270.647,191.121z"/>
		<path fill="#21401D" d="M275.407,239.646c0,0-2.298,6.531-4.758,24.146c-1.001,7.169-4.763,24.117-4.763,24.117
			s-11.83-34.892-16.627-67.533c-6.4-43.562-14.234-176.981-14.234-176.981L275.407,239.646z"/>
		<path fill="#264E25" d="M240.871,217.107c0,0,2.031,26.096-22.737,45.211c-16.417,12.673-43.852-0.273-43.852-0.273
			s21.821-0.018,35.032-47.168c18.955-67.684,25.711-171.481,25.711-171.481L240.871,217.107z"/>
		<path fill="#21401D" d="M270.647,191.121c0,0,11.959,30.408,38.971,42.988c28.59,13.318,60.609,4.438,60.609,4.438
			s-27.21-4.802-50.283-32.782c-36.388-44.134-84.919-162.369-84.919-162.369L270.647,191.121z"/>
		<path fill="#264E25" d="M275.407,239.646c0,0-1.25,6.117,25.939,18.227c6.223,2.771,39.952,7.085,39.952,7.085
			s-33.426-23.247-46.729-53.128c-38.979-87.547-59.545-168.434-59.545-168.434L275.407,239.646z"/>
		<path fill="#206734" d="M240.581,238.255c0,0,0.629,5.729,5.96,24.184c2.011,6.977,19.346,25.471,19.346,25.471
			s-11.83-34.892-16.627-67.533c-6.4-43.562-14.234-176.981-14.234-176.981L240.581,238.255z"/>
	</g>
	<g>
		<path fill="#BFDCE3" d="M171.802,174.373c5.381,4.418,10.104,9.554,15.811,4.008c4.306-2.119,1.071,9.776,6.688,5.863
			c6.754-7.335,15.002-14.832,24.676-9.295c3.354,2.183,3.026,7.39,2.942,11.819c-6.476,8.736-15.251,18.499-26.201,26.007
			c-8.29,5.686-18.109,7.543-27.949,7.273c-10.144-8.16-20.869-13.909-32.551-20.631
			C145.683,195.174,159.224,187.632,171.802,174.373z"/>
		<path fill="#D8EFF5" d="M171.341,223.031c-1.49-1.309-2.998-2.545-4.515-3.74c7.577-5.827,15.703-14.715,23.182-28.32
			c1.131-2.057,2.229-4.109,3.303-6.16c0.297-0.129,0.623-0.311,0.99-0.566c6.754-7.335,15.002-14.832,24.676-9.295
			c6.508,4.234-0.847,19.879,6.619,19.062c1.52-0.166,3.089-1.48,4.693-2.969c-4.142,14.85-11.59,32.267-24.758,41.295
			c-3.118,2.141-6.34,3.779-9.604,5.045C187.874,231.011,177.29,229.272,171.341,223.031z"/>
		<path fill="#BFDCE3" d="M271.356,184.057c12.55-9.616,19.882,15.963,27.951,6.835c4.124-3.748-2.921-12.871-0.824-21.344
			c9.922,2.426,17.207,1.781,21.042-4.723c5.065,5.352,10.279,10.53,15.626,15.438c14.622,13.422,28.328,20.924,39.329,25.125
			c-9.357,15.064-32.212,6.297-46.331,0.485c-4.658-1.139-8.96,0.981-10.097,4.403c-0.135,0.138-0.25,0.273-0.36,0.408
			c-21.075-9.098-42.527-17.75-46.405-19.309C271.286,188.484,270.356,185.421,271.356,184.057z"/>
		<path fill="#ADCFDB" d="M246.127,193.595c7.407,7.935,13.609,15.185,21.068,6.137l7.534,36.621
			c-13.683-0.075-10.346,22.64-15.587,29.196c-3.506-12.698-7.536-29.2-9.883-45.173
			C248.239,213.433,247.183,204.201,246.127,193.595z"/>
		<path fill="#BFDCE3" d="M204.418,249.091c-1.309-3.542-3.104-6.343-5.197-8.646c3.57-6.427,7.06-14.743,10.094-25.569
			c3.485-12.445,6.556-26.113,9.248-40.131c0.142,0.074,0.277,0.123,0.414,0.203c6.508,4.234-0.847,19.879,6.619,19.062
			c4.444-0.486,9.303-10.73,14.277-6.607l0.998,29.703c0,0,1.264,16.422-10.571,32.754
			C222.481,244.268,214.207,241.392,204.418,249.091z"/>
		<path fill="#ADCFDB" d="M271.234,192.492c0.321-3.186-1.009-6.893,0.122-8.435c12.55-9.616,19.882,15.963,27.951,6.835
			c3.476-3.158-0.961-10.132-1.195-17.318c7.438,12.548,14.857,23.732,21.832,32.19c0.312,0.379,0.628,0.737,0.941,1.107
			c-1.343,0.831-2.366,1.997-2.833,3.405c-5.439,5.542,8.538,8.959,4.772,15.966c-3.284,9.878-14.404-0.749-22.906,2.208
			C282.665,216.263,273.526,197.652,271.234,192.492z"/>
		<path fill="#BFDCE3" d="M270.934,193.998c1.137-3.424-0.892-8.146,0.423-9.94c4.251-3.259,7.904-2.472,11.19-0.367
			c3.789,9.238,7.796,18.651,12.023,28.14c2.509,5.638,5.735,11.037,9.317,16.09c-1.715-0.067-3.392,0.166-4.958,0.939
			c-5.62,3.911-5.863,15.48-12.194,12.875c-3.165-1.303-8.181-5.7-11.168-5.373c-0.293-0.022-0.557-0.006-0.838-0.008l-7.534-36.621
			C268.403,198.265,269.646,196.391,270.934,193.998z"/>
		<path fill="#D8EFF5" d="M240.581,238.255l-1.464-51.381c0.291,0.16,0.585,0.357,0.878,0.614c2.157,1.892,4.188,4.022,6.132,6.106
			c1.056,10.605,2.112,19.838,3.133,26.781c2.347,15.973,6.377,32.475,9.883,45.173c-1.312,1.638-3.148,2.28-5.934,1.287
			c-2.178-0.896-4.309-2.181-6.42-3.674c-0.1-0.252-0.182-0.495-0.248-0.724C241.21,243.985,240.581,238.255,240.581,238.255z"/>
	</g>
	<g>
		<path fill="#206734" d="M231.795,90.127c0,0-10.188,22.262-29.224,35.312c-21.907,15.021-58.228-6.032-58.228-6.032
			s28.75-3.418,48.724-32.574C228.971,34.433,231.679,0,231.679,0L231.795,90.127z"/>
		<path fill="#20753A" d="M231.795,90.127c0,0-2.92,36.746-21.956,49.799c-21.905,15.021-50.445-1.591-50.445-1.591
			s21.781,2.184,38.947-29.044C229.177,53.206,231.679,0,231.679,0L231.795,90.127z"/>
		<path fill="#206734" d="M258.061,109.402c0,0,31.736,12.704,51.74,22.023c21.178,9.865,43.847-7.535,43.847-7.535
			s-22.011,1.159-47.814-22.53C263.186,62.21,231.679,0,231.679,0L258.061,109.402z"/>
		<path fill="#264E25" d="M261.588,145.338c0,0-1.705,4.837-3.522,17.883c-0.743,5.309-3.531,17.86-3.531,17.86
			s-8.759-25.841-12.312-50.014C237.482,98.806,231.679,0,231.679,0L261.588,145.338z"/>
		<path fill="#206734" d="M236.01,128.647c0,0,1.504,19.325-16.838,33.482c-12.159,9.386-32.476-0.204-32.476-0.204
			s16.157-0.012,25.941-34.93C226.676,76.869,231.679,0,231.679,0L236.01,128.647z"/>
		<path fill="#264E25" d="M258.061,109.402c0,0,8.856,22.518,28.861,31.836c21.174,9.862,44.886,3.284,44.886,3.284
			s-20.148-3.555-37.238-24.278C267.622,87.562,231.679,0,231.679,0L258.061,109.402z"/>
		<path fill="#206734" d="M261.588,145.338c0,0-0.926,4.53,19.209,13.499c4.608,2.053,29.59,5.244,29.59,5.244
			s-24.757-17.215-34.606-39.342C246.912,59.901,231.679,0,231.679,0L261.588,145.338z"/>
		<path fill="#20753A" d="M235.794,144.308c0,0,0.465,4.244,4.414,17.908c1.488,5.168,14.326,18.865,14.326,18.865
			s-8.759-25.841-12.312-50.014C237.482,98.806,231.679,0,231.679,0L235.794,144.308z"/>
	</g>
	<g>
		<path fill="#D8EFF5" d="M189.199,123.796c-10.378-3.806-19.961-5.332-28.327-9.586c9.738-4.464,22.087-12.623,32.195-27.376
			C228.971,34.433,231.679,0,231.679,0l0.116,90.127c0,0-10.188,22.262-29.224,35.312c-4.731,3.245-10.136,4.799-15.7,5.254
			C187.897,128.067,190.269,124.732,189.199,123.796z"/>
		<path fill="#F3FAFE" d="M198.341,109.291C229.177,53.206,231.679,0,231.679,0l0.116,90.127c0,0-2.92,36.746-21.956,49.799
			c-0.771,0.529-1.551,1.007-2.335,1.461c-5.011-4.018-14.631-2.586-20.224-7.49c-3.163-1.302,3.591-8.636,1.919-10.101
			c-0.263-0.097-0.521-0.186-0.782-0.281C191.771,119.783,195.138,115.12,198.341,109.291z"/>
		<path fill="#D8EFF5" d="M231.679,0c0,0,31.507,62.21,74.154,101.36c4.336,3.982,8.563,7.249,12.6,9.95
			c1.28,1.544,2.745,3.016,4.393,4.459c1.673,1.467,0.715,6.518-0.603,8.311c-8.603,4.238-17.85-11.237-23.112-4.067
			c-1.664,1.513-2.877,3.179-3.881,4.885c-17.951-7.804-37.169-15.496-37.169-15.496L231.679,0z"/>
		<path fill="#BFDCE3" d="M231.679,0l29.177,141.789c-2.057-0.567-4.087-0.427-6.08,1.214c-2.632,3.585-2.096,8.473-3.235,11.896
			c-1.432,1.557-2.661,2.525-3.745,3.064c-2.099-8.188-4.216-17.66-5.572-26.895C237.482,98.806,231.679,0,231.679,0z"/>
		<path fill="#D8EFF5" d="M231.679,0l4.331,128.647c0,0,0.25,3.233-0.707,8.023c-1.104-1.543-2.45-2.544-4.178-2.622
			c-9.138-0.65-8.492,19.065-20.618,18.743c0.839-6.124-0.534-9.444-3.033-11.432c1.824-3.974,3.58-8.704,5.164-14.365
			C226.676,76.869,231.679,0,231.679,0z"/>
		<path fill="#BFDCE3" d="M258.061,109.402L231.679,0c0,0,35.943,87.562,62.891,120.245c0.699,0.849,1.407,1.66,2.118,2.453
			c-4.682,6.254-4.849,13.804-13.311,16.691C265.87,129.249,258.061,109.402,258.061,109.402z"/>
		<path fill="#D8EFF5" d="M275.78,124.739c2.253,5.061,5.288,9.86,8.627,14.26c-1.565,0.656-3.44,1.137-5.737,1.389
			c-1.493,0.163-4.123,3.748-2.275,6.844c-5.192,1.742-10.441-4.038-15.539-5.443L231.679,0
			C231.679,0,246.912,59.901,275.78,124.739z"/>
		<path fill="#F3FAFE" d="M242.223,131.068c1.356,9.234,3.474,18.706,5.572,26.895c-7.318,3.629-7.516-13.644-12.203-20.867
			L231.679,0C231.679,0,237.482,98.806,242.223,131.068z"/>
	</g>
</g>
<path opacity="0.47" fill="#FFFCE8" d="M198.685,628.566c-0.27,0.577-0.54,1.145-0.812,1.707c-0.104,0.217-0.208,0.434-0.312,0.648
	c-0.279,0.574-0.559,1.143-0.839,1.702c-0.079,0.156-0.157,0.311-0.235,0.466c-0.304,0.602-0.607,1.198-0.911,1.782v0.001
	c-21.885,42.047-46.396,42.077-46.396,42.077s24.362,11.489,48.985,10.312c4.263-7.462,7.171-15.814,9.258-23.955
	c3.375-13.164,4.274-25.971,3.289-39.473c-0.411-5.643-1.801-11.508-3.995-16.723c-1.955-4.645-2.787-5.611-6.852-4.677
	c-11.866,2.729-22.46,9.853-34.604,11.396c-4.887,0.621-8.121-5.982-5.612-9.78c6.667-10.097,12.689-20.737,17.576-31.837
	c-14.385-2.239-29.197-1.589-43.236,2.385c-7.198,2.038-11.257-8.069-5.008-11.88c22.677-13.828,65.153-65.082,23.553-82.12
	c-5.908-2.419-6.426-10.291,0-12.535c15.32-5.352,22.866-18.828,28.229-33.327c0.862-2.333,2.06-5.26,2.124-7.481
	c0.04-1.416,0.153-0.958-0.079-1.707c-0.146-0.474-0.343-0.746-0.139-0.523c-3.112-3.406-8.643-4.91-13.136-6.426
	c-3.905-1.316-6.149-5.786-3.885-9.549c3.477-5.775,6.465-12.779,6.703-19.609c0.237-6.826-1.98-9.764-9.091-9.609
	c-5.714,0.124-8.548-7.153-4.596-11.096c7.285-7.27,15.071-14.572,20.246-23.573c2.166-3.768,4.3-8.058,3.838-12.542
	c-0.49-4.759-4.966-7.615-8.769-9.677c-4.006-2.171-3.815-7.071-1.315-10.208c1.96-2.461,12.152-14.159,6.621-16.736
	c-2.448-1.141-6.061-0.397-8.658-0.346c-3.4,0.067-6.811-0.1-10.095-1.055c-4.756-1.382-6.268-7.314-2.868-10.863
	c9.566-9.989,21.352-18.39,29.558-29.617c2.281-3.123,6.489-8.578,5.646-12.717c-1.257-6.163-7.645-9.089-12.888-11.458
	c-3.638-1.644-4.349-7.69-1.315-10.208c1.244-1.034,4.072-2.83,4.86-4.625c-0.007-0.01-0.01-0.014-0.017-0.023
	c-0.351-0.498-0.944-1.07-1.384-1.49c-3.716-3.555-7.342-6.875-10.477-10.984c-1.788-2.345-0.797-5.931,1.017-7.877
	c9.803-10.526,20.826-19.955,29.208-31.75c3.892-5.479,8.799-12.533,9.301-19.303c0.471-6.349-2.41-10.385-8.193-13.739
	c-3.933-2.281-3.876-6.993-1.315-10.208c0.534-0.671,1.224-1.492,1.749-2.343c-0.241-0.049-0.481-0.082-0.845-0.112
	c-4.427-0.371-8.894,0.022-13.309-0.448c-6.245-0.666-9.104-8.457-3.28-12.112c17.619-11.061,24.119-32.305,27.342-51.752
	c-5.177,10.149-11.782,21.499-20.256,33.866c-0.629,0.918-1.267,1.81-1.912,2.678c-0.16,0.215-0.324,0.416-0.485,0.628
	c-0.487,0.643-0.975,1.284-1.47,1.899c-0.215,0.266-0.434,0.515-0.649,0.776c-0.446,0.542-0.893,1.086-1.345,1.606
	c-0.238,0.274-0.48,0.531-0.72,0.799c-0.435,0.486-0.868,0.977-1.306,1.444c-0.254,0.271-0.511,0.525-0.767,0.79
	c-0.426,0.442-0.852,0.89-1.281,1.315c-0.269,0.267-0.539,0.516-0.809,0.775c-0.418,0.403-0.837,0.812-1.257,1.199
	c-0.274,0.253-0.55,0.489-0.824,0.735c-0.417,0.374-0.835,0.753-1.252,1.111c-0.274,0.235-0.549,0.456-0.823,0.685
	c-0.42,0.35-0.839,0.705-1.258,1.04c-0.269,0.215-0.536,0.415-0.805,0.624c-0.425,0.331-0.851,0.666-1.274,0.982
	c-0.258,0.192-0.515,0.372-0.772,0.56c-0.433,0.314-0.865,0.632-1.296,0.931c-0.247,0.172-0.491,0.331-0.736,0.498
	c-0.439,0.298-0.88,0.599-1.316,0.882c-0.229,0.149-0.454,0.287-0.682,0.431c-0.451,0.287-0.903,0.574-1.35,0.845
	c-0.206,0.125-0.409,0.24-0.613,0.362c-0.464,0.275-0.928,0.55-1.386,0.81c-0.186,0.105-0.367,0.202-0.552,0.304
	c-0.472,0.262-0.944,0.523-1.409,0.769c-0.163,0.086-0.322,0.166-0.484,0.25c-0.482,0.25-0.963,0.497-1.435,0.729
	c-0.134,0.066-0.266,0.127-0.398,0.192c-0.495,0.24-0.987,0.476-1.47,0.698c-9.538,4.383-16.588,5.226-16.588,5.226
	s17.921,10.374,36.18,11.35c-11.499,8.531-21.13,7.578-21.13,7.578s15.919,9.26,33.103,7.694c-2.991,4.749-6.184,9.62-9.608,14.618
	c-3.528,5.15-7.261,9.701-11.081,13.729c-0.002-0.001-0.004-0.002-0.005-0.004c-12.578,13.26-26.119,20.802-36.584,25.045
	c0.003,0.002,0.007,0.004,0.01,0.006c-10.662,4.319-18.133,5.209-18.133,5.209s24.192,14.021,48.843,15.342
	c-15.522,11.512-28.52,10.213-28.52,10.213s14.164,8.242,31.906,10.217c-2.439,3.272-4.943,6.332-7.487,9.202
	c-0.005-0.001-0.009-0.003-0.013-0.005c-11.653,13.142-24.16,22.183-35.436,28.393c0.012,0.005,0.022,0.008,0.034,0.013
	c-20.369,11.222-36.721,13.167-36.721,13.167s30.517,17.688,61.611,19.354c-19.581,14.523-35.976,12.885-35.976,12.885
	s19.096,11.113,42.536,13.112c-3.224,3.656-6.506,7.037-9.812,10.161c-1.187,1.12-2.377,2.211-3.568,3.268
	c-0.004,0.003-0.008,0.006-0.011,0.01c-3.68,3.259-7.374,6.213-11.037,8.891c-0.011,0.008-0.021,0.016-0.032,0.023
	c-1.198,0.875-2.392,1.719-3.581,2.535c-0.041,0.029-0.082,0.057-0.123,0.085c-1.179,0.808-2.352,1.587-3.519,2.339
	c-0.038,0.024-0.077,0.049-0.115,0.074c-1.18,0.759-2.354,1.491-3.518,2.195c-0.004,0.002-0.009,0.005-0.013,0.008
	c-1.184,0.715-2.359,1.404-3.524,2.065c0,0,0.001,0.001,0.002,0.001c-23.917,13.58-43.4,15.9-43.4,15.9s34.679,20.1,70.013,21.994
	c-22.252,16.504-40.885,14.641-40.885,14.641s24.733,14.393,53.802,15.21c-5.925,6.345-12,11.84-18.042,16.604
	c-0.72,0.567-1.439,1.125-2.158,1.672c-0.007,0.006-0.014,0.011-0.021,0.016c-10.301,7.838-20.438,13.573-29.488,17.747
	c-0.008,0.004-0.016,0.007-0.023,0.011c-0.631,0.291-1.256,0.574-1.876,0.85c-18.66,8.302-32.255,9.922-32.255,9.922
	s36.692,21.267,74.077,23.27c-23.543,17.462-43.255,15.491-43.255,15.491s10.899,6.341,26.892,11.074
	c-3.966,3.489-7.943,6.699-11.896,9.644c-1.074,0.8-2.146,1.578-3.217,2.34c-0.197,0.141-0.396,0.282-0.593,0.422
	c-1.154,0.815-2.307,1.613-3.453,2.385c-0.02,0.013-0.038,0.024-0.057,0.037c-1.182,0.795-2.359,1.565-3.531,2.314
	c-0.064,0.042-0.129,0.084-0.194,0.125c-6.095,3.889-12.037,7.181-17.683,9.968c0.004,0.001,0.009,0.002,0.013,0.003
	c-25.273,12.481-44.553,14.778-44.553,14.778s43.125,24.995,87.066,27.353c-27.673,20.521-50.841,18.206-50.841,18.206
	s63.838,37.149,115.67,7.438c-0.051,0.109-0.101,0.221-0.151,0.33C198.883,628.136,198.784,628.353,198.685,628.566z"/>
<g>
	<g>
		<path fill="#F15E22" d="M80.952,266.992c0.064,1.799-0.517,3.637,0.262,3.611c0.777-0.029,1.834-1.747,1.771-3.546
			c-0.062-1.796-1.222-2.992-2-2.966C80.205,264.119,80.891,265.197,80.952,266.992z"/>
		<path fill="#F47B20" d="M79.29,266.638c-0.636,1.684-1.762,3.589-1.033,3.864c0.729,0.274,2.412-1.36,3.048-3.043
			s-0.02-2.777-0.748-3.052C79.827,264.132,79.925,264.956,79.29,266.638z"/>
		<path fill="#F89926" d="M77.64,265.484c-1.031,1.471-2.369,3.044-1.731,3.493c0.639,0.446,2.251-0.532,3.283-2.006
			s1.025-2.546,0.388-2.993C78.942,263.533,78.674,264.011,77.64,265.484z"/>
	</g>
	<g>
		<path fill="#F15E22" d="M69.271,258.343c-1.787,0.197-3.521,1.039-3.608,0.264c-0.085-0.772,1.463-2.066,3.251-2.263
			c1.788-0.197,3.139,0.776,3.224,1.551C72.223,258.667,71.061,258.146,69.271,258.343z"/>
		<path fill="#F47B20" d="M69.862,259.939c-1.573,0.871-3.297,2.26-3.674,1.58c-0.376-0.68,0.997-2.583,2.571-3.457
			c1.573-0.87,2.75-0.38,3.128,0.301C72.264,259.044,71.437,259.068,69.862,259.939z"/>
		<path fill="#F89926" d="M71.243,261.405c-1.31,1.233-2.672,2.783-3.207,2.218c-0.534-0.566,0.203-2.303,1.512-3.537
			s2.371-1.384,2.904-0.818C72.987,259.834,72.552,260.17,71.243,261.405z"/>
	</g>
	<path fill="#4D3614" d="M71.388,229.285c-8.302,11.271-3.936,27.818,2.913,32.862c6.848,5.043,23.945,4.308,32.249-6.966
		c6.876-9.335,2.361-19.69-7.349-26.843C89.491,221.188,78.265,219.948,71.388,229.285z"/>
	<g>
		<path fill="#63441A" d="M71.388,229.285c6.877-9.337,18.104-8.097,27.813-0.946c5.217,3.845,8.93,8.61,10.187,13.646l-13.361-9.84
			l-21.96,29.814C67.354,256.712,63.181,240.426,71.388,229.285z"/>
	</g>
	<path fill="#74592B" d="M74.188,241.072c-5.341,7.252-3.149,17.439,0.863,20.396c4.013,2.954,14.394,2.026,19.734-5.225
		c4.423-6.006,1.972-12.333-3.717-16.521C85.38,235.531,78.61,235.066,74.188,241.072z"/>
	<g>
		<path fill="#8F6F35" d="M74.188,241.072c4.317-5.861,10.867-5.55,16.468-1.635L74.661,261.15
			C70.903,257.844,69.021,248.085,74.188,241.072z"/>
	</g>
	<path opacity="0.26" fill="#FFFFFF" d="M72.963,249.583c-2.097,2.848-0.692,8.6,2.397,10.876c3.09,2.273,9.303,2.208,11.398-0.636
		c2.098-2.846,2.807-12.18-0.283-14.456C83.386,243.092,75.059,246.738,72.963,249.583z"/>
	<path opacity="0.68" fill="#534222" d="M79.871,223.598c-1.904,2.586-2.5,17.265,5.673,23.285
		c8.172,6.019,22.016,1.098,23.92-1.489c1.904-2.586-3.177-9.561-11.349-15.579C89.943,223.795,81.775,221.012,79.871,223.598z"/>
	
		<ellipse transform="matrix(-0.8052 -0.5931 0.5931 -0.8052 18.3935 487.8251)" opacity="0.54" fill="#534222" cx="89.331" cy="240.891" rx="11.573" ry="3.611"/>
	<g>
		<path fill="#8F6F35" d="M101.255,261.758c0,0-1.247,1.813-1.134,3.329s1.187,3.077,0.368,3.076
			c-0.817,0.001-1.218-0.773-1.598-1.33s-0.407-2.377-0.407-2.377"/>
		<path fill="#4D3614" d="M99.639,263.476c0,0-1.049,2.02-0.936,3.535c0.113,1.518,0.876,3.241,0.058,3.242
			c-0.817,0.001-1.379-0.773-1.759-1.329c-0.381-0.559-0.599-2.771-0.599-2.771"/>
		<path fill="#311E0F" d="M111.007,248.362c0,0,1.771,3.999-1.325,8.202c-3.846,5.223-11.25,5.425-12.911,11.14
			c-1.076,3.688-1.762,2.581-2.356,1.909c-2.685-3.043-1.636-8.26,1.63-16.038c1.943-4.626-0.97-8.988-0.97-8.988"/>
	</g>
	<g>
		<path fill="#8F6F35" d="M66.477,236.144c0,0-1.361,1.728-2.843,2.069c-1.479,0.342-3.289-0.22-3.047,0.561s1.1,0.932,1.744,1.132
			c0.645,0.196,2.392-0.316,2.392-0.316"/>
		<path fill="#4D3614" d="M65.316,238.197c0,0-1.62,1.601-3.101,1.941c-1.479,0.342-3.354,0.125-3.114,0.904
			c0.242,0.781,1.149,1.09,1.794,1.288c0.646,0.197,2.824-0.253,2.824-0.253"/>
		<path fill="#311E0F" d="M76.38,222.857c0,0-4.348-0.506-7.441,3.697c-3.848,5.223-1.844,12.354-6.809,15.635
			c-3.205,2.12-1.943,2.448-1.125,2.815c3.702,1.661,8.373-0.888,14.833-6.313c3.842-3.228,8.872-1.737,8.872-1.737"/>
	</g>
	<g>
		<path fill="#8F6F35" d="M97.639,205.564c-2.812-0.922-3.006-5.988-4.741-6.576c-1.735-0.586-4.123,4.229-4.123,4.229"/>
		<path fill="#311E0F" d="M96.896,205.581c-2.413-0.789-2.58-5.14-4.069-5.643c-1.489-0.504-3.538,3.63-3.538,3.63"/>
		<path fill="#74592B" d="M125.469,229.822c-0.171-2.386,3.284-2.445,2.289-3.984c-0.993-1.539-7.579-4.336-7.579-4.336"/>
		<path fill="#311E0F" d="M124.222,229.315c0.02-2.047,3.238-2.356,2.428-3.61c-0.811-1.256-6.731-3.184-6.731-3.184"/>
		<path fill="#4D3614" d="M70.644,210.96c-15.357,20.852,13.938,24.945,19.396,28.967c5.459,4.021,18.057,30.783,33.415,9.932
			c9.082-12.33,1.693-27.057-12.891-37.798S79.725,198.632,70.644,210.96z"/>
		<path fill="#63441A" d="M110.564,212.061c0.071,0.052,0.139,0.104,0.21,0.159c0,0-20.67,27.766-20.734,27.707
			c-3.818-3.543-35.321-8.112-19.396-28.967C79.938,198.791,95.98,201.32,110.564,212.061z"/>
		<g>
			<path fill="#311E0F" d="M98.002,236.156c0,0-6.751,4.661-7.716,3.952c-0.964-0.71,1.323-8.659,1.323-8.659
				s3.114-0.265,4.417,0.695C97.33,233.103,98.002,236.156,98.002,236.156z"/>
			<path fill="#311E0F" d="M90.286,240.108c-0.964-0.71,1.323-8.659,1.323-8.659s3.114-0.265,4.417,0.695"/>
		</g>
		<path opacity="0.68" fill="#534222" d="M87.756,205.827c-2.331,3.165-3.06,21.13,6.941,28.499
			c10.002,7.366,26.944,1.342,29.276-1.822c2.33-3.164-3.89-11.701-13.891-19.068C100.082,206.07,90.086,202.664,87.756,205.827z"/>
		<circle fill="#74592B" cx="111.784" cy="238.828" r="15.015"/>
		<circle fill="#8F6F35" cx="85.014" cy="219.111" r="15.015"/>
		<g>
			<circle fill="#311E0F" cx="107.566" cy="238.596" r="11.481"/>
			<circle fill="#FEE100" stroke="#432810" stroke-miterlimit="10" cx="108.938" cy="236.731" r="11.48"/>
			<circle fill="#FAA51A" cx="108.938" cy="236.731" r="9.372"/>
			<circle fill="#010101" stroke="#000000" stroke-miterlimit="10" cx="108.938" cy="236.732" r="7.357"/>
			
				<ellipse transform="matrix(0.5932 -0.805 0.805 0.5932 -140.7181 184.9351)" opacity="0.68" fill="#FFFFFF" cx="112.637" cy="231.71" rx="3.741" ry="6.267"/>
			
				<ellipse transform="matrix(0.5929 -0.8052 0.8052 0.5929 -154.8127 182.6481)" opacity="0.68" fill="#533914" cx="103.252" cy="244.451" rx="1.378" ry="3.755"/>
		</g>
		<g>
			<circle fill="#311E0F" cx="86.487" cy="223.07" r="11.481"/>
			<circle fill="#FEE100" stroke="#432810" stroke-miterlimit="10" cx="87.86" cy="221.207" r="11.481"/>
			<circle fill="#FAA51A" cx="87.86" cy="221.206" r="9.374"/>
			<circle fill="#010101" stroke="#000000" stroke-miterlimit="10" cx="87.859" cy="221.207" r="7.356"/>
			
				<ellipse transform="matrix(0.593 -0.8052 0.8052 0.593 -136.8069 161.7039)" opacity="0.68" fill="#FFFFFF" cx="91.559" cy="216.186" rx="3.742" ry="6.268"/>
			
				<ellipse transform="matrix(0.5927 -0.8054 0.8054 0.5927 -150.9111 159.4216)" opacity="0.68" fill="#533914" cx="82.174" cy="228.925" rx="1.377" ry="3.755"/>
		</g>
		<g>
			<path fill="#F47B20" d="M97.798,234.684c0,0-4.916,3.35-5.63,2.825c-0.712-0.525,0.908-6.303,0.908-6.303s2.28-0.168,3.243,0.539
				C97.282,232.457,97.798,234.684,97.798,234.684z"/>
			<path fill="#F89926" d="M92.168,237.509c-0.712-0.525,0.908-6.303,0.908-6.303s2.28-0.168,3.243,0.539"/>
		</g>
	</g>
	
		<ellipse transform="matrix(-0.8052 -0.593 0.593 -0.8052 66.3596 454.312)" opacity="0.15" fill="#534222" cx="107.801" cy="216.256" rx="8.894" ry="2.775"/>
</g>
<g>
</g>
<g>
</g>
<g>
</g>
<g>
</g>
<g>
</g>
<g>
</g>
</svg>
