<?xml version="1.0" encoding="utf-8"?>
<!-- Generator: Adobe Illustrator 16.0.0, SVG Export Plug-In . SVG Version: 6.00 Build 0)  -->
<!DOCTYPE svg PUBLIC "-//W3C//DTD SVG 1.1//EN" "http://www.w3.org/Graphics/SVG/1.1/DTD/svg11.dtd">
<svg version="1.1" id="Layer_1" xmlns="http://www.w3.org/2000/svg" xmlns:xlink="http://www.w3.org/1999/xlink" x="0px" y="0px"
	 width="75px" height="123px" viewBox="0 0 75 123" enable-background="new 0 0 75 123" xml:space="preserve">
<g>
	<g>
		<path fill="#542B6B" d="M75,113c0,5.5-4.5,10-10,10H10c-5.5,0-10-4.5-10-10V10C0,4.5,4.5,0,10,0h55c5.5,0,10,4.5,10,10V113z"/>
	</g>
	<rect x="6" y="12" fill="#FFFFFF" width="63" height="90"/>
	<circle fill="#FFFFFF" cx="37.5" cy="112.726" r="4.642"/>
	<path fill="#FFFFFF" d="M46.1,6.092c0,0.579-0.47,1.049-1.049,1.049H29.949c-0.579,0-1.049-0.47-1.049-1.049l0,0
		c0-0.579,0.47-1.049,1.049-1.049h15.102C45.63,5.043,46.1,5.513,46.1,6.092L46.1,6.092z"/>
</g>
<g>
</g>
<g>
</g>
<g>
</g>
<g>
</g>
<g>
</g>
<g>
</g>
</svg>
