<?xml version="1.0" encoding="utf-8"?>
<!-- Generator: Adobe Illustrator 16.0.0, SVG Export Plug-In . SVG Version: 6.00 Build 0)  -->
<!DOCTYPE svg PUBLIC "-//W3C//DTD SVG 1.1//EN" "http://www.w3.org/Graphics/SVG/1.1/DTD/svg11.dtd">
<svg version="1.1" id="Layer_1" xmlns="http://www.w3.org/2000/svg" xmlns:xlink="http://www.w3.org/1999/xlink" x="0px" y="0px"
	 width="388.599px" height="256.135px" viewBox="0 0 388.599 256.135" enable-background="new 0 0 388.599 256.135"
	 xml:space="preserve">
<g id="Spaceship">
	<path fill="#539265" d="M387.46,184.374c-11.52,57.195-107.345,86.15-214.02,64.668C66.766,227.555-10.377,163.763,1.139,106.568
		c11.526-57.201,107.348-86.151,214.019-64.667C321.833,63.387,398.975,127.175,387.46,184.374z"/>
	<path fill="#376145" d="M268.413,56.942c16.509,63.185,26.022,128.69,27.557,194.226c49.412-9.754,84.774-33.466,91.491-66.794
		C396.948,137.245,346.229,85.67,268.413,56.942z"/>
	<path fill="#2D5039" d="M158.735,35.083C76.562,31.846,10.577,59.722,1.139,106.568c-4.675,23.246,5.285,47.579,25.923,69.722
		C62.335,120.074,108.462,74.004,158.735,35.083z"/>
	<path fill="#6ABB80" d="M374.881,169.792c-9.559,47.445-97.115,69.838-195.553,50.015C80.89,199.977,8.83,145.439,18.393,97.991
		c9.552-47.447,97.102-69.84,195.542-50.015C312.376,67.805,384.437,122.344,374.881,169.792z"/>
	<path fill="#70C586" d="M346.406,155.948c-8.007,39.771-81.396,58.543-163.906,41.923C99.983,181.25,39.587,135.536,47.602,95.767
		c8.007-39.768,81.389-58.541,163.903-41.922C294.016,70.463,354.419,116.18,346.406,155.948z"/>
	<path fill="#77D28F" d="M318.476,145.262c-6.457,32.076-65.642,47.211-132.191,33.81c-66.549-13.401-115.259-50.27-108.791-82.347
		c6.454-32.074,65.642-47.211,132.188-33.81C276.224,76.32,324.945,113.187,318.476,145.262z"/>
	<path fill="#87F1A4" d="M307.156,137.787c-5.238,26.034-57.923,37.383-117.663,25.36C129.749,151.114,85.58,120.25,90.825,94.216
		c5.246-26.037,57.922-37.388,117.659-25.358C268.216,80.891,312.401,111.752,307.156,137.787z"/>
	<path fill="#77D28F" d="M307.156,137.787c-5.238,26.034-57.923,37.383-117.663,25.36C129.749,151.114,85.58,120.25,90.825,94.216
		c5.246-26.037,57.922-37.388,117.659-25.358C268.216,80.891,312.401,111.752,307.156,137.787z"/>
	<path opacity="0.25" fill="#2C4E38" d="M94.993,99.125l2.949,93.912c0,0,40.692,19.409,81.386,26.771
		c45.245,8.18,78.763,7.089,78.763,7.089l45.723-85.713L94.993,99.125z"/>
	<path opacity="0.86" fill="#B9E5FD" d="M303.912,141.037c0,0-23.488,36.709-112.501,18.779
		C102.397,141.888,94.954,98.95,94.954,98.95c13.136-65.232,70.572-108.69,128.26-97.07
		C280.927,13.503,317.051,75.805,303.912,141.037z"/>
	<path fill="#486F84" d="M94.993,99.125c0.596,2.879,10.591,43.408,96.417,60.691c85.823,17.289,110.726-16.213,112.403-18.633
		c-0.61-2.883-33.647-42.87-97.429-55.718C142.602,72.618,96.659,96.704,94.993,99.125z"/>
	<path fill="#1F3746" d="M101.639,112.974c0,0,16.638,32.111,89.772,46.842c73.138,14.729,101.873-9.089,101.873-9.089
		s-24.351-36.693-89.989-49.916C137.65,87.591,101.639,112.974,101.639,112.974z"/>
	<path fill="#122028" d="M133.244,139.038c0,0,12.236,11.526,58.316,20.812c46.084,9.279,62.381,3.236,62.381,3.236
		s-17.276-13.493-58.632-21.823C153.94,132.929,133.244,139.038,133.244,139.038z"/>
	<g>
		<path fill="#17291F" d="M149.293,228.108c-1.045,5.175-6.079,8.521-11.25,7.479c-5.171-1.042-8.521-6.075-7.476-11.249
			c1.039-5.169,6.075-8.514,11.243-7.473C146.986,217.907,150.332,222.944,149.293,228.108z"/>
		<path fill="#2C4E38" d="M146.986,227.647c-1.042,5.167-6.075,8.521-11.247,7.476c-5.167-1.039-8.514-6.079-7.479-11.246
			c1.046-5.169,6.082-8.521,11.253-7.479C144.685,217.44,148.027,222.48,146.986,227.647z"/>
		<path fill="#F3D332" d="M144.196,227.083c-0.727,3.629-4.268,5.979-7.89,5.25c-3.626-0.731-5.979-4.268-5.252-7.894
			c0.73-3.626,4.271-5.979,7.893-5.246C142.58,219.92,144.926,223.458,144.196,227.083z"/>
		<path fill="#F9EDA0" d="M142.583,224.921c-0.429,2.155-2.843,3.491-5.388,2.974c-2.545-0.511-4.253-2.673-3.817-4.827
			c0.432-2.154,2.842-3.483,5.384-2.974C141.308,220.608,143.016,222.766,142.583,224.921z"/>
		<path fill="#FDF9DF" d="M140.733,222.239c-0.106,0.535-1.227,0.766-2.499,0.503c-1.279-0.255-2.215-0.893-2.105-1.433
			c0.103-0.534,1.223-0.765,2.499-0.506C139.897,221.058,140.843,221.7,140.733,222.239z"/>
		<path fill="#B6811E" d="M140.184,230.794c-0.177,0.9-1.868,1.326-3.764,0.942c-1.9-0.382-3.279-1.425-3.102-2.325
			c0.185-0.9,1.864-1.325,3.761-0.942C138.976,228.853,140.369,229.894,140.184,230.794z"/>
	</g>
	<g>
		<path fill="#17291F" d="M212.032,240.748c-1.038,5.171-6.075,8.518-11.239,7.479c-5.179-1.043-8.521-6.078-7.479-11.25
			c1.035-5.168,6.078-8.514,11.246-7.476C209.732,230.546,213.077,235.579,212.032,240.748z"/>
		<path fill="#2C4E38" d="M209.732,240.287c-1.039,5.167-6.075,8.517-11.246,7.471c-5.172-1.038-8.518-6.075-7.476-11.242
			c1.042-5.174,6.075-8.521,11.246-7.479C207.428,230.079,210.778,235.115,209.732,240.287z"/>
		<path fill="#F3D332" d="M206.946,239.719c-0.737,3.63-4.275,5.976-7.901,5.249c-3.621-0.729-5.975-4.267-5.241-7.894
			c0.73-3.629,4.264-5.976,7.893-5.245C205.319,232.56,207.668,236.097,206.946,239.719z"/>
		<path fill="#F9EDA0" d="M205.337,237.558c-0.44,2.157-2.851,3.486-5.396,2.977c-2.545-0.514-4.253-2.676-3.824-4.831
			c0.438-2.152,2.85-3.484,5.398-2.97C204.06,233.248,205.765,235.406,205.337,237.558z"/>
		<path fill="#FDF9DF" d="M203.472,234.875c-0.1,0.535-1.223,0.762-2.495,0.507c-1.27-0.259-2.215-0.9-2.102-1.433
			c0.105-0.535,1.223-0.766,2.494-0.51C202.643,233.694,203.582,234.338,203.472,234.875z"/>
		<path fill="#B6811E" d="M202.93,243.43c-0.181,0.903-1.868,1.322-3.765,0.943c-1.903-0.383-3.286-1.422-3.107-2.322
			c0.188-0.903,1.864-1.325,3.771-0.942C201.717,241.492,203.111,242.533,202.93,243.43z"/>
	</g>
	<g>
		<path fill="#17291F" d="M273.892,243.377c-1.039,5.175-6.076,8.521-11.246,7.479c-5.168-1.042-8.511-6.079-7.476-11.25
			c1.042-5.168,6.075-8.514,11.246-7.472C271.588,233.172,274.938,238.209,273.892,243.377z"/>
		<path fill="#2C4E38" d="M275.422,243.001c-1.042,5.171-6.078,8.521-11.249,7.479c-5.172-1.041-8.518-6.078-7.476-11.246
			c1.038-5.172,6.075-8.521,11.247-7.479C273.116,232.793,276.46,237.83,275.422,243.001z"/>
		<path fill="#F3D332" d="M272.626,242.441c-0.727,3.63-4.264,5.977-7.89,5.245c-3.623-0.729-5.979-4.267-5.245-7.896
			c0.726-3.622,4.267-5.972,7.889-5.242C271.006,235.282,273.361,238.812,272.626,242.441z"/>
		<path fill="#F9EDA0" d="M271.017,240.279c-0.432,2.156-2.85,3.488-5.391,2.975c-2.538-0.514-4.246-2.677-3.817-4.831
			c0.433-2.155,2.85-3.487,5.395-2.971C269.745,235.962,271.453,238.125,271.017,240.279z"/>
		<path fill="#FDF9DF" d="M269.164,237.592c-0.105,0.54-1.227,0.767-2.496,0.504c-1.279-0.256-2.215-0.894-2.104-1.433
			c0.106-0.531,1.22-0.762,2.488-0.503C268.327,236.416,269.274,237.053,269.164,237.592z"/>
		<path fill="#B6811E" d="M268.614,246.153c-0.177,0.896-1.864,1.322-3.764,0.938c-1.896-0.383-3.278-1.425-3.102-2.321
			c0.185-0.903,1.864-1.326,3.765-0.942C267.41,244.207,268.802,245.252,268.614,246.153z"/>
	</g>
	<g>
		<path fill="#17291F" d="M333.912,230.723c-0.917,4.552-5.358,7.507-9.914,6.59c-4.554-0.918-7.499-5.363-6.585-9.914
			c0.918-4.561,5.359-7.51,9.914-6.596C331.881,221.721,334.833,226.162,333.912,230.723z"/>
		<path fill="#2C4E38" d="M335.259,230.391c-0.919,4.555-5.363,7.502-9.911,6.588c-4.558-0.917-7.51-5.355-6.592-9.913
			c0.922-4.559,5.362-7.511,9.91-6.592C333.227,221.391,336.173,225.833,335.259,230.391z"/>
		<path fill="#F3D332" d="M332.799,229.894c-0.642,3.198-3.762,5.268-6.958,4.622c-3.2-0.642-5.274-3.757-4.625-6.954
			c0.646-3.201,3.761-5.271,6.957-4.625C331.375,223.579,333.44,226.697,332.799,229.894z"/>
		<path fill="#F9EDA0" d="M331.378,227.984c-0.38,1.907-2.51,3.076-4.747,2.626c-2.243-0.453-3.75-2.356-3.363-4.261
			c0.376-1.898,2.502-3.068,4.745-2.618C330.258,224.181,331.76,226.088,331.378,227.984z"/>
		<path fill="#FDF9DF" d="M329.748,225.62c-0.097,0.472-1.085,0.674-2.198,0.447c-1.13-0.227-1.956-0.795-1.864-1.263
			c0.096-0.475,1.078-0.673,2.205-0.446C329.003,224.582,329.846,225.148,329.748,225.62z"/>
		<path fill="#B6811E" d="M329.266,233.162c-0.163,0.795-1.648,1.166-3.314,0.831c-1.677-0.337-2.899-1.256-2.744-2.05
			c0.16-0.791,1.641-1.162,3.321-0.825C328.198,231.455,329.424,232.369,329.266,233.162z"/>
	</g>
	<g>
		<path fill="#17291F" d="M373.718,204.68c-0.68,3.359-3.959,5.535-7.318,4.862c-3.36-0.681-5.537-3.956-4.859-7.315
			c0.677-3.363,3.951-5.536,7.315-4.859C372.212,198.044,374.396,201.32,373.718,204.68z"/>
		<path fill="#2C4E38" d="M374.71,204.438c-0.68,3.357-3.951,5.537-7.315,4.86c-3.363-0.678-5.535-3.952-4.862-7.316
			c0.678-3.36,3.952-5.539,7.312-4.858C373.208,197.8,375.381,201.076,374.71,204.438z"/>
		<path fill="#F3D332" d="M372.893,204.07c-0.479,2.361-2.778,3.886-5.137,3.41c-2.35-0.475-3.88-2.769-3.413-5.133
			c0.476-2.359,2.78-3.884,5.14-3.409C371.837,199.414,373.365,201.709,372.893,204.07z"/>
		<path fill="#F9EDA0" d="M371.847,202.664c-0.283,1.406-1.857,2.268-3.509,1.932c-1.655-0.33-2.765-1.729-2.481-3.141
			c0.284-1.397,1.851-2.262,3.506-1.928C371.015,199.856,372.131,201.263,371.847,202.664z"/>
		<path fill="#FDF9DF" d="M370.642,200.919c-0.074,0.348-0.801,0.493-1.627,0.329c-0.829-0.17-1.446-0.589-1.372-0.935
			c0.068-0.348,0.795-0.497,1.627-0.326C370.093,200.151,370.709,200.572,370.642,200.919z"/>
		<path fill="#B6811E" d="M370.289,206.484c-0.125,0.585-1.224,0.854-2.45,0.613c-1.24-0.252-2.141-0.929-2.021-1.514
			c0.118-0.585,1.209-0.861,2.446-0.609C369.491,205.218,370.402,205.899,370.289,206.484z"/>
	</g>
	<g>
		<path fill="#17291F" d="M95.273,206.721c-1.038,5.168-6.078,8.518-11.246,7.476c-5.175-1.046-8.514-6.079-7.479-11.247
			c1.039-5.174,6.079-8.521,11.253-7.475C92.973,196.513,96.322,201.549,95.273,206.721z"/>
		<path fill="#2C4E38" d="M92.973,206.253c-1.042,5.175-6.075,8.521-11.253,7.479c-5.164-1.043-8.514-6.076-7.472-11.248
			c1.042-5.167,6.079-8.517,11.25-7.474C90.666,196.049,94.015,201.085,92.973,206.253z"/>
		<path fill="#F3D332" d="M90.187,205.694c-0.737,3.629-4.271,5.979-7.9,5.245c-3.625-0.724-5.979-4.264-5.249-7.89
			c0.733-3.63,4.267-5.976,7.897-5.246C88.561,198.53,90.914,202.064,90.187,205.694z"/>
		<path fill="#F9EDA0" d="M88.574,203.532c-0.439,2.154-2.843,3.487-5.395,2.977c-2.545-0.517-4.253-2.673-3.817-4.83
			c0.436-2.156,2.842-3.488,5.391-2.975C87.298,199.214,89.007,201.376,88.574,203.532z"/>
		<path fill="#FDF9DF" d="M86.713,200.844c-0.106,0.539-1.223,0.766-2.495,0.511s-2.215-0.903-2.109-1.436
			c0.11-0.535,1.223-0.762,2.499-0.506C85.877,199.667,86.823,200.309,86.713,200.844z"/>
		<path fill="#B6811E" d="M86.171,209.408c-0.185,0.9-1.868,1.318-3.761,0.937c-1.91-0.384-3.289-1.422-3.112-2.319
			c0.184-0.903,1.864-1.325,3.764-0.942C84.959,207.461,86.349,208.508,86.171,209.408z"/>
	</g>
	<g>
		<path fill="#233E52" d="M209.58,93.791c-0.521,2.585-3.038,4.26-5.618,3.739c-2.595-0.521-4.268-3.038-3.743-5.624
			c0.521-2.587,3.041-4.26,5.625-3.741C208.427,88.688,210.096,91.205,209.58,93.791z"/>
		<path fill="#DA0000" d="M208.182,93.511c-0.361,1.814-2.137,2.984-3.948,2.619c-1.811-0.363-2.988-2.13-2.627-3.945
			c0.373-1.813,2.135-2.988,3.952-2.62C207.374,89.931,208.55,91.696,208.182,93.511z"/>
		<path fill="#E79C9C" d="M207.374,92.43c-0.212,1.077-1.42,1.74-2.689,1.487c-1.271-0.257-2.127-1.336-1.914-2.414
			c0.227-1.076,1.429-1.746,2.697-1.491C206.733,90.271,207.597,91.354,207.374,92.43z"/>
		<path fill="#FDF9DF" d="M206.446,91.086c-0.061,0.268-0.613,0.382-1.248,0.251c-0.634-0.127-1.108-0.452-1.048-0.714
			c0.049-0.269,0.612-0.382,1.246-0.253C206.031,90.498,206.502,90.817,206.446,91.086z"/>
		<path fill="#AA0000" d="M206.172,95.364c-0.088,0.45-0.928,0.663-1.878,0.472c-0.953-0.191-1.641-0.711-1.549-1.163
			c0.088-0.449,0.925-0.663,1.879-0.468C205.574,94.395,206.269,94.914,206.172,95.364z"/>
	</g>
	<g>
		<path fill="#233E52" d="M238.456,102.129c-0.519,2.582-3.042,4.257-5.622,3.735c-2.588-0.521-4.264-3.039-3.742-5.623
			c0.524-2.585,3.041-4.256,5.628-3.739C237.302,97.023,238.976,99.543,238.456,102.129z"/>
		<path fill="#DA0000" d="M237.059,101.845c-0.365,1.813-2.135,2.988-3.949,2.625c-1.814-0.37-2.988-2.134-2.622-3.947
			c0.365-1.814,2.13-2.987,3.952-2.623C236.244,98.264,237.427,100.031,237.059,101.845z"/>
		<path fill="#E79C9C" d="M236.254,100.764c-0.22,1.076-1.422,1.744-2.691,1.485c-1.274-0.255-2.133-1.334-1.913-2.412
			c0.22-1.078,1.421-1.744,2.697-1.487C235.612,98.606,236.473,99.687,236.254,100.764z"/>
		<path fill="#FDF9DF" d="M235.322,99.419c-0.057,0.27-0.605,0.385-1.243,0.259c-0.635-0.131-1.11-0.454-1.054-0.718
			c0.05-0.271,0.609-0.384,1.251-0.253C234.907,98.833,235.382,99.155,235.322,99.419z"/>
		<path fill="#AA0000" d="M235.053,103.703c-0.09,0.45-0.933,0.659-1.883,0.468s-1.641-0.71-1.553-1.161
			c0.089-0.45,0.926-0.665,1.882-0.474C234.45,102.729,235.145,103.249,235.053,103.703z"/>
	</g>
	<g>
		<path fill="#233E52" d="M266.459,116.055c-0.521,2.585-3.038,4.258-5.633,3.739c-2.587-0.521-4.253-3.041-3.731-5.627
			c0.514-2.585,3.037-4.26,5.621-3.735C265.303,110.949,266.973,113.469,266.459,116.055z"/>
		<path fill="#DA0000" d="M265.059,115.773c-0.358,1.812-2.137,2.986-3.945,2.621c-1.817-0.367-2.998-2.133-2.633-3.945
			c0.376-1.811,2.141-2.988,3.958-2.621C264.245,112.191,265.427,113.96,265.059,115.773z"/>
		<path fill="#E79C9C" d="M264.258,114.693c-0.22,1.072-1.433,1.742-2.697,1.484c-1.273-0.255-2.127-1.333-1.911-2.412
			c0.213-1.076,1.43-1.744,2.698-1.487C263.616,112.535,264.466,113.614,264.258,114.693z"/>
		<path fill="#FDF9DF" d="M263.326,113.348c-0.057,0.266-0.616,0.381-1.248,0.254c-0.645-0.131-1.108-0.45-1.059-0.72
			c0.061-0.266,0.616-0.379,1.262-0.25C262.904,112.76,263.375,113.081,263.326,113.348z"/>
		<path fill="#AA0000" d="M263.057,117.628c-0.089,0.45-0.939,0.659-1.883,0.47c-0.957-0.193-1.641-0.712-1.556-1.159
			c0.092-0.45,0.929-0.667,1.882-0.473C262.45,116.657,263.145,117.178,263.057,117.628z"/>
	</g>
	<g>
		<path fill="#233E52" d="M293.056,135.699c-0.521,2.584-3.048,4.253-5.629,3.736c-2.588-0.521-4.26-3.041-3.739-5.625
			c0.521-2.586,3.042-4.257,5.625-3.736C291.893,130.595,293.57,133.112,293.056,135.699z"/>
		<path fill="#DA0000" d="M291.656,135.417c-0.368,1.81-2.137,2.983-3.944,2.622c-1.815-0.365-2.999-2.134-2.627-3.946
			c0.365-1.813,2.13-2.988,3.944-2.62C290.837,131.833,292.017,133.603,291.656,135.417z"/>
		<path fill="#E79C9C" d="M290.848,134.334c-0.216,1.077-1.422,1.74-2.69,1.485c-1.275-0.256-2.131-1.335-1.914-2.414
			c0.22-1.075,1.426-1.741,2.701-1.485C290.21,132.178,291.067,133.255,290.848,134.334z"/>
		<path fill="#FDF9DF" d="M289.919,132.992c-0.054,0.266-0.609,0.381-1.251,0.255c-0.635-0.129-1.106-0.45-1.054-0.719
			c0.058-0.269,0.618-0.382,1.256-0.255C289.5,132.402,289.972,132.723,289.919,132.992z"/>
		<path fill="#AA0000" d="M289.647,137.273c-0.086,0.446-0.933,0.659-1.883,0.469c-0.95-0.192-1.641-0.717-1.549-1.163
			c0.093-0.446,0.929-0.659,1.882-0.469C289.044,136.301,289.742,136.82,289.647,137.273z"/>
	</g>
	<g>
		<path fill="#233E52" d="M179.608,90.273c-0.524,2.586-3.048,4.258-5.629,3.737c-2.591-0.519-4.256-3.038-3.735-5.621
			c0.518-2.586,3.038-4.26,5.625-3.739C178.449,85.169,180.125,87.69,179.608,90.273z"/>
		<path fill="#DA0000" d="M178.211,89.993c-0.372,1.813-2.138,2.988-3.948,2.625c-1.818-0.37-2.995-2.133-2.63-3.946
			c0.366-1.815,2.134-2.99,3.952-2.623C177.393,86.412,178.577,88.18,178.211,89.993z"/>
		<path fill="#E79C9C" d="M177.403,88.91c-0.216,1.078-1.428,1.743-2.697,1.487c-1.276-0.258-2.123-1.336-1.911-2.414
			c0.217-1.075,1.429-1.744,2.698-1.484C176.765,86.753,177.616,87.834,177.403,88.91z"/>
		<path fill="#FDF9DF" d="M176.475,87.566c-0.058,0.268-0.617,0.381-1.248,0.259c-0.645-0.133-1.109-0.452-1.06-0.723
			c0.06-0.266,0.613-0.377,1.254-0.253C176.053,86.979,176.524,87.303,176.475,87.566z"/>
		<path fill="#AA0000" d="M176.202,91.848c-0.088,0.449-0.932,0.661-1.878,0.47c-0.957-0.191-1.646-0.711-1.553-1.161
			c0.085-0.452,0.925-0.665,1.882-0.473C175.596,90.877,176.297,91.398,176.202,91.848z"/>
	</g>
	<g>
		<path fill="#233E52" d="M146.178,91.829c-0.521,2.585-3.034,4.26-5.622,3.741c-2.591-0.522-4.264-3.04-3.739-5.625
			c0.521-2.586,3.037-4.261,5.625-3.742C145.025,86.727,146.699,89.243,146.178,91.829z"/>
		<path fill="#DA0000" d="M144.785,91.549c-0.362,1.813-2.141,2.986-3.949,2.621c-1.814-0.365-2.995-2.134-2.626-3.945
			c0.369-1.814,2.134-2.99,3.949-2.621C143.966,87.969,145.149,89.738,144.785,91.549z"/>
		<path fill="#E79C9C" d="M143.977,90.468c-0.216,1.078-1.425,1.741-2.694,1.487c-1.272-0.259-2.126-1.336-1.911-2.414
			c0.22-1.076,1.429-1.744,2.694-1.485C143.342,88.309,144.192,89.392,143.977,90.468z"/>
		<path fill="#FDF9DF" d="M143.048,89.125c-0.053,0.268-0.62,0.381-1.248,0.251c-0.638-0.127-1.11-0.45-1.06-0.717
			c0.061-0.268,0.613-0.381,1.255-0.252C142.623,88.536,143.097,88.857,143.048,89.125z"/>
		<path fill="#AA0000" d="M142.778,93.404c-0.092,0.45-0.936,0.661-1.882,0.47c-0.957-0.193-1.645-0.711-1.552-1.163
			c0.092-0.449,0.928-0.663,1.882-0.47C142.168,92.431,142.867,92.953,142.778,93.404z"/>
	</g>
	<g>
		<path fill="#233E52" d="M117.245,100.29c-0.521,2.585-3.041,4.258-5.625,3.737c-2.583-0.519-4.257-3.038-3.735-5.625
			c0.521-2.582,3.03-4.257,5.621-3.738C116.093,95.187,117.763,97.704,117.245,100.29z"/>
		<path fill="#DA0000" d="M115.845,100.009c-0.365,1.811-2.134,2.984-3.941,2.619c-1.819-0.365-2.999-2.132-2.626-3.947
			c0.365-1.811,2.126-2.986,3.944-2.621C115.033,96.424,116.209,98.194,115.845,100.009z"/>
		<path fill="#E79C9C" d="M115.04,98.923c-0.22,1.081-1.425,1.744-2.694,1.491c-1.269-0.261-2.13-1.336-1.906-2.416
			c0.216-1.077,1.417-1.742,2.693-1.486C114.402,96.77,115.256,97.847,115.04,98.923z"/>
		<path fill="#FDF9DF" d="M114.108,97.583c-0.05,0.264-0.606,0.381-1.237,0.253c-0.645-0.127-1.113-0.45-1.063-0.717
			c0.053-0.268,0.617-0.381,1.255-0.254C113.693,96.993,114.165,97.315,114.108,97.583z"/>
		<path fill="#AA0000" d="M113.839,101.863c-0.089,0.452-0.933,0.661-1.875,0.467c-0.957-0.189-1.641-0.71-1.556-1.163
			c0.092-0.446,0.925-0.657,1.878-0.467C113.236,100.892,113.934,101.413,113.839,101.863z"/>
	</g>
	<g>
		<path fill="#17291F" d="M47.821,173.822c-0.911,4.526-5.327,7.462-9.85,6.544c-4.537-0.908-7.468-5.324-6.557-9.847
			c0.914-4.533,5.323-7.464,9.856-6.55C45.801,164.883,48.736,169.292,47.821,173.822z"/>
		<path fill="#2C4E38" d="M44.815,173.213c-0.914,4.529-5.327,7.464-9.86,6.549c-4.526-0.907-7.454-5.323-6.55-9.853
			c0.918-4.53,5.331-7.458,9.856-6.547C42.785,164.274,45.727,168.684,44.815,173.213z"/>
		<path fill="#F3D332" d="M42.367,172.72c-0.642,3.18-3.736,5.235-6.915,4.597c-3.18-0.641-5.235-3.735-4.601-6.915
			c0.642-3.176,3.747-5.23,6.926-4.59C40.945,166.451,43.012,169.548,42.367,172.72z"/>
		<path fill="#F9EDA0" d="M40.959,170.828c-0.383,1.889-2.499,3.052-4.725,2.604c-2.23-0.445-3.732-2.343-3.346-4.231
			c0.376-1.886,2.492-3.049,4.721-2.602C39.839,167.049,41.338,168.938,40.959,170.828z"/>
		<path fill="#FDF9DF" d="M39.333,168.474c-0.096,0.472-1.078,0.669-2.194,0.442c-1.109-0.223-1.938-0.786-1.839-1.254
			c0.092-0.468,1.071-0.666,2.187-0.442C38.599,167.442,39.425,168.005,39.333,168.474z"/>
		<path fill="#B6811E" d="M38.854,175.978c-0.16,0.782-1.641,1.151-3.293,0.814c-1.669-0.333-2.885-1.24-2.726-2.03
			c0.167-0.791,1.63-1.159,3.3-0.826C37.794,174.272,39.013,175.183,38.854,175.978z"/>
	</g>
	<g>
		<path fill="#17291F" d="M19.551,134.999c-0.911,4.542-5.331,7.485-9.875,6.57c-4.547-0.922-7.482-5.342-6.575-9.888
			c0.921-4.538,5.341-7.479,9.885-6.564C17.527,126.03,20.469,130.454,19.551,134.999z"/>
		<path fill="#2C4E38" d="M17.535,134.59c-0.915,4.54-5.338,7.481-9.875,6.567c-4.554-0.914-7.489-5.338-6.578-9.88
			c0.915-4.542,5.342-7.482,9.882-6.571C15.514,125.624,18.453,130.051,17.535,134.59z"/>
		<path fill="#F3D332" d="M15.085,134.098c-0.645,3.183-3.75,5.252-6.94,4.61c-3.19-0.646-5.249-3.752-4.608-6.94
			c0.642-3.184,3.75-5.244,6.937-4.604C13.661,127.806,15.724,130.911,15.085,134.098z"/>
		<path fill="#F9EDA0" d="M13.667,132.196c-0.379,1.895-2.499,3.063-4.732,2.613c-2.24-0.45-3.735-2.348-3.356-4.244
			c0.383-1.889,2.499-3.061,4.735-2.61C12.551,128.405,14.054,130.303,13.667,132.196z"/>
		<path fill="#FDF9DF" d="M12.041,129.838c-0.1,0.472-1.078,0.672-2.197,0.444c-1.124-0.225-1.95-0.79-1.854-1.259
			c0.103-0.471,1.074-0.674,2.198-0.445C11.307,128.802,12.133,129.369,12.041,129.838z"/>
		<path fill="#B6811E" d="M11.566,137.358c-0.167,0.79-1.648,1.155-3.31,0.823c-1.673-0.334-2.889-1.248-2.733-2.038
			c0.159-0.792,1.63-1.165,3.307-0.826C10.496,135.649,11.722,136.568,11.566,137.358z"/>
	</g>
	<path opacity="0.27" fill="#E8F7FF" d="M128.76,56.252c9.442,5.474-36.121,28.608-52.46,38.596
		c-16.347,9.976-43.071,23.558-48.756,14.247c-5.689-9.322,0.195-34.093,28.157-47.994C83.467,47.294,110.269,45.541,128.76,56.252z
		"/>
	<path fill="#589C2C" d="M168.801,51.88c0,0-0.369-19.297,23.521-18.929c23.867,0.371,36.851,16.896,27.632,38.223
		c-9.212,21.328-26.714,13.229-28.104,24.368c-1.375,11.141,4.409,12.047,20.979,19.033c16.56,6.986,17.682,22.322,17.885,33.157
		c0.205,10.839-6.246,17.329-6.246,17.329s-22.732-2.502-43.418-6.788c-18.551-3.839-34.827-11.649-34.827-11.649
		s-1.184-25.304,6.724-30.915c7.908-5.613,20.029-2.043,23.169-6.677c3.147-4.633,3.477-14.972-1.772-18.096
		C162.673,83.985,168.801,51.88,168.801,51.88z"/>
	<path fill="#7DDC3D" d="M178.591,113.465c0.351-7.647,4.477-11.659-1.414-19.241c1.145,4.303,1.006,11.766-1.06,14.807
		c-3.141,4.634-15.262,1.064-23.169,6.677c-4.778,3.389-6.224,13.941-6.631,21.791C148.311,122.592,154.854,114.57,178.591,113.465z
		"/>
	<path fill="#7DDC3D" d="M179.292,35.435c-10.662,5.122-10.492,16.446-10.492,16.446s-6.128,32.105,5.544,39.055
		c0.656,0.388,1.226,0.892,1.715,1.478C167.366,81.724,167.366,53.929,179.292,35.435z"/>
	<path fill="#487F25" d="M230.714,147.732c-0.203-10.835-1.325-26.171-17.885-33.157c-16.57-6.986-22.355-7.892-20.979-19.033
		c1.39-11.138,18.892-3.04,28.104-24.368c5.826-13.473,2.769-25.013-6.267-31.793c7.734,40.08-31.393,41.511-24.896,60.211
		c3.116,19.886,18.969,16.936,25.091,26.947c5.178,8.48,2.115,22.625-3.115,36.332c8.137,1.354,13.701,2.19,13.701,2.19
		S230.919,158.571,230.714,147.732z"/>
	<path fill="#DA0000" d="M168.89,50.42c0,0-1.73-31.017,31.389-34.581c26.388-2.839,36.255,19.267,39.572,26.228
		c7.241,15.175,15.228,11.27,17.645,7.858c2.424-3.408,1.854-4.191,1.854-4.191s1.864,8.613-4.547,13.628
		c-6.101,4.766-11.35,6.021-21.093-1.726c-8.429-6.697-10.813,1.512-10.813,1.512s-18.925-18.482-38.893-19.403
		C169.365,39.071,168.89,50.42,168.89,50.42"/>
	<path fill="#DA0000" d="M259.406,46.023c-0.004-0.201-0.057-0.289-0.057-0.289S259.378,45.878,259.406,46.023z"/>
	<path fill="#9C0000" d="M196.476,42.417c14.712,5.336,26.42,16.731,26.42,16.731s2.385-8.209,10.813-1.512
		c9.743,7.747,14.992,6.492,21.093,1.726c3.615-2.827,4.571-6.757,4.742-9.681C246.618,67.059,218.528,26.914,196.476,42.417z"/>
	<g>
		<g>
			<polygon fill="#FFFFFF" points="264.676,50.462 261.643,49.011 262.259,52.313 260.256,49.625 259.263,52.832 258.729,49.518 
				256.369,51.901 257.435,48.717 254.234,49.729 256.667,47.407 253.363,46.813 256.592,45.887 253.933,43.828 257.225,44.508 
				255.836,41.449 258.431,43.579 258.623,40.227 259.931,43.318 261.664,40.441 261.38,43.789 264.248,42.038 262.444,44.875 
				265.796,44.659 262.883,46.33 265.952,47.698 262.592,47.824 			"/>
			<polygon fill="#D9D9D9" points="265.463,49.209 262.181,48.488 263.539,51.565 260.969,49.399 260.738,52.755 259.466,49.644 
				257.701,52.505 258.02,49.162 255.128,50.875 256.971,48.063 253.615,48.24 256.545,46.601 253.497,45.199 256.85,45.11 
				254.802,42.449 257.815,43.932 257.236,40.625 259.218,43.338 260.243,40.138 260.732,43.46 263.124,41.109 262.018,44.279 
				265.233,43.303 262.781,45.596 266.08,46.227 262.836,47.115 			"/>
			<polygon fill="#FFFFFF" points="263.339,48.726 261.199,48.006 261.886,50.154 260.327,48.527 259.931,50.743 259.313,48.582 
				257.935,50.359 258.381,48.155 256.34,49.087 257.765,47.343 255.518,47.221 257.591,46.342 255.656,45.188 257.899,45.371 
				256.73,43.452 258.63,44.659 258.481,42.415 259.608,44.362 260.515,42.307 260.608,44.557 262.375,43.161 261.401,45.192 
				263.613,44.779 261.809,46.126 263.96,46.785 261.738,47.143 			"/>
			<polygon fill="#D9D9D9" points="263.758,47.826 261.522,47.618 262.67,49.553 260.785,48.324 260.906,50.569 259.806,48.607 
				258.871,50.649 258.807,48.401 257.024,49.778 258.02,47.758 255.801,48.146 257.623,46.82 255.476,46.137 257.698,45.805 
				256.124,44.202 258.244,44.944 257.591,42.792 259.125,44.432 259.551,42.224 260.15,44.393 261.543,42.631 261.069,44.829 
				263.124,43.919 261.681,45.644 263.924,45.798 261.844,46.652 			"/>
			<polygon fill="#FFFFFF" points="260.983,48.198 260.122,47.469 260.041,48.593 259.619,47.547 259.023,48.504 259.14,47.382 
				258.172,47.957 258.786,47.016 257.659,47.067 258.647,46.521 257.623,46.044 258.757,46.021 258.067,45.126 259.076,45.631 
				258.888,44.519 259.547,45.43 259.895,44.361 260.055,45.478 260.859,44.687 260.487,45.752 261.561,45.428 260.738,46.193 
				261.844,46.41 260.756,46.702 261.635,47.411 260.53,47.167 			"/>
			<polygon fill="#EFEFEF" points="261.341,47.855 260.342,47.343 260.519,48.458 259.871,47.539 259.508,48.603 259.36,47.485 
				258.544,48.265 258.934,47.208 257.854,47.517 258.694,46.758 257.587,46.533 258.675,46.25 257.811,45.536 258.903,45.793 
				258.462,44.754 259.318,45.493 259.41,44.373 259.821,45.42 260.43,44.471 260.31,45.591 261.285,45.031 260.654,45.964 
				261.777,45.924 260.785,46.457 261.798,46.943 260.674,46.956 			"/>
		</g>
		<g>
			<polygon fill="#FFFFFF" points="265.166,49.766 261.968,48.733 263.018,51.921 260.671,49.525 260.122,52.837 259.15,49.625 
				257.12,52.302 257.75,49.004 254.717,50.434 256.815,47.808 253.458,47.663 256.535,46.312 253.632,44.623 256.988,44.859 
				255.192,42.012 258.052,43.776 257.796,40.432 259.505,43.322 260.834,40.233 261.004,43.588 263.616,41.474 262.207,44.524 
				265.499,43.861 262.833,45.91 266.054,46.856 262.749,47.427 			"/>
			<polygon fill="#D9D9D9" points="265.778,48.416 262.428,48.143 264.179,51.01 261.341,49.209 261.572,52.563 259.887,49.651 
				258.526,52.72 258.392,49.364 255.758,51.452 257.205,48.417 253.902,49.04 256.592,47.024 253.38,46.044 256.691,45.506 
				254.305,43.143 257.496,44.21 256.471,41.01 258.803,43.433 259.392,40.127 260.324,43.354 262.38,40.7 261.702,43.989 
				264.758,42.598 262.631,45.197 265.984,45.38 262.897,46.695 			"/>
			<polygon fill="#FFFFFF" points="263.602,48.224 261.394,47.799 262.351,49.832 260.597,48.43 260.498,50.679 259.594,48.616 
				258.462,50.562 258.619,48.314 256.719,49.514 257.899,47.6 255.656,47.776 257.587,46.628 255.521,45.742 257.768,45.628 
				256.35,43.877 258.392,44.818 257.953,42.615 259.324,44.398 259.948,42.238 260.337,44.457 261.905,42.835 261.213,44.979 
				263.344,44.274 261.746,45.85 263.963,46.216 261.809,46.865 			"/>
			<polygon fill="#D9D9D9" points="263.903,47.278 261.657,47.367 263.057,49.133 261.022,48.164 261.444,50.372 260.093,48.577 
				259.426,50.728 259.076,48.506 257.492,50.106 258.208,47.973 256.056,48.655 257.683,47.099 255.471,46.707 257.633,46.082 
				255.851,44.701 258.048,45.153 257.12,43.11 258.857,44.531 258.981,42.282 259.863,44.357 261.011,42.424 260.834,44.662 
				262.755,43.491 261.546,45.391 263.79,45.24 261.844,46.369 			"/>
			<polygon fill="#FFFFFF" points="261.199,48.013 260.256,47.405 260.321,48.533 259.76,47.552 259.299,48.581 259.263,47.454 
				258.378,48.15 258.868,47.134 257.757,47.338 258.662,46.663 257.578,46.328 258.7,46.154 257.899,45.359 258.97,45.722 
				258.63,44.649 259.406,45.465 259.608,44.357 259.919,45.442 260.611,44.55 260.384,45.656 261.412,45.19 260.689,46.061 
				261.812,46.126 260.77,46.563 261.738,47.145 260.614,47.049 			"/>
			<polygon fill="#FFFFFF" points="261.511,47.627 260.456,47.253 260.777,48.332 260.008,47.508 259.799,48.614 259.498,47.524 
				258.796,48.407 259.034,47.308 258.002,47.76 258.733,46.894 257.609,46.813 258.655,46.392 257.698,45.8 258.821,45.91 
				258.244,44.937 259.189,45.555 259.133,44.43 259.679,45.417 260.154,44.398 260.182,45.52 261.072,44.834 260.575,45.844 
				261.681,45.655 260.77,46.316 261.84,46.663 260.724,46.824 			"/>
		</g>
	</g>
	<path fill="#FFFFFF" d="M165.529,50.214c0.05,1.7,3.271,1.666,3.271,1.666s0.348-8.7,8.195-11.34
		c7.844-2.643,26.125,3.652,33.526,8.983c7.404,5.331,12.16,12.106,12.16,12.106s1.67,0.492,2.081-0.234
		c0.418-0.725,2.243-4.826,3.049-6.045c0.811-1.217,0.627-4.322,0.158-4.772c-0.464-0.452-13.968-13.476-28.439-18.482
		c-10.303-3.566-19.373-4.291-24.718-1.833c-3.662,1.69-5.533,3.454-5.75,4.705C168.844,36.218,165.484,48.517,165.529,50.214z"/>
	<path fill="#F1F1F1" d="M169.063,34.968c-0.219,1.25-3.579,13.548-3.534,15.246c0.05,1.7,3.271,1.666,3.271,1.666
		s0.199-3.798,2.581-7.142c0.471-4.799,1.315-9.828,2.907-14.199C171.009,32.146,169.266,33.783,169.063,34.968z"/>
	<path fill="#E4E4E4" d="M227.97,50.578c-0.414-0.4-11.118-10.708-23.644-16.521c-1.414,3.504-2.673,6.864-3.637,10.352
		c3.935,1.586,7.446,3.399,9.832,5.115c7.404,5.331,12.16,12.106,12.16,12.106s1.67,0.492,2.081-0.234
		c0.418-0.725,2.243-4.826,3.049-6.045C228.623,54.133,228.439,51.028,227.97,50.578z"/>
	<g>
		<path fill="#FFFFFF" d="M170.151,56.569c0,0,3.492-12.044,16.056-10.139c12.626,1.914,14.064,13.099,14.064,13.099
			s-6.558,10.768-19.129,8.371C175.003,66.731,170.151,56.569,170.151,56.569z"/>
		<path fill="#74C4FC" stroke="#3C5E73" stroke-width="1.0888" stroke-miterlimit="10" d="M189.759,57.266
			c-0.692,4.788-4.016,8.262-7.418,7.774c-3.41-0.487-5.625-4.762-4.944-9.542c0.69-4.781,4.016-8.262,7.425-7.773
			C188.228,48.213,190.443,52.488,189.759,57.266z"/>
		<path stroke="#3C5E73" stroke-width="1.0888" stroke-miterlimit="10" d="M185.92,56.718c-0.258,1.813-1.524,3.131-2.814,2.944
			c-1.287-0.188-2.123-1.805-1.871-3.615c0.259-1.812,1.524-3.132,2.817-2.944C185.343,53.288,186.176,54.909,185.92,56.718z"/>
		<path fill="#487F25" d="M170.151,56.569C169.992,56.997,170.151,56.569,170.151,56.569s4.852,10.162,10.991,11.331
			c7.893,1.503,13.412-2.178,16.424-5.132C188.554,69.811,176.624,68.292,170.151,56.569z"/>
		<path fill="#487F25" d="M200.084,58.679c-0.6-2.577-3.275-10.644-13.877-12.248c-8.354-1.269-12.636,3.585-14.617,7.012
			C181.398,44.986,192.003,48.244,200.084,58.679z"/>
		<path opacity="0.74" fill="#FFFFFF" d="M188.447,52.981c-0.191,1.34-2.275,2.144-4.639,1.809c-2.372-0.34-4.136-1.701-3.945-3.038
			c0.192-1.338,2.272-2.151,4.644-1.811C186.877,50.28,188.635,51.641,188.447,52.981z"/>
	</g>
	<path fill="#487F25" d="M155.598,150.589c0,0-0.269-11.027,0.709-15.386c0.982-4.358,3.821-8.755,3.821-8.755
		s-2.761,8.175-1.932,17.357c0.372,4.062,1.786,8.425,1.786,8.425l-3.864-1.56"/>
	<path fill="#589C2C" d="M146.433,135.508c-0.443,6.075-0.209,11.115-0.209,11.115s16.276,7.811,34.827,11.649
		c20.686,4.286,43.418,6.788,43.418,6.788s6.451-6.49,6.246-17.329c0-0.066-0.008-0.131-0.011-0.194
		C201.232,149.083,172.268,148.619,146.433,135.508z"/>
	<path opacity="0.27" fill="#B9E5FD" d="M303.912,141.037c0,0-23.488,36.709-112.501,18.779
		C102.397,141.888,94.954,98.95,94.954,98.95c13.136-65.232,70.572-108.69,128.26-97.07
		C280.927,13.503,317.051,75.805,303.912,141.037z"/>
	<path opacity="0.55" fill="#FFFFFF" d="M207.583,12.002c1.681,5.423-8.592,13.426-22.96,17.885
		c-14.358,4.454-27.374,3.67-29.043-1.752c-1.69-5.419,8.595-13.428,22.954-17.885C192.896,5.802,205.904,6.582,207.583,12.002z"/>
	<path opacity="0.55" fill="#FFFFFF" d="M278.691,65.581c0,0,12.192,13.549,16.46,31.372c4.958,20.701,0.89,43.894,0.89,43.894
		s-4.65,4.614-11.317,7.96c-6.67,3.347-9.98,2.495-9.98,2.495s9.789-13.489,10.239-47.225
		C285.237,85.194,278.691,65.581,278.691,65.581z"/>
</g>
</svg>
