<?xml version="1.0" encoding="utf-8"?>
<!-- Generator: Adobe Illustrator 16.0.0, SVG Export Plug-In . SVG Version: 6.00 Build 0)  -->
<!DOCTYPE svg PUBLIC "-//W3C//DTD SVG 1.1//EN" "http://www.w3.org/Graphics/SVG/1.1/DTD/svg11.dtd">
<svg version="1.1" id="Layer_1" xmlns="http://www.w3.org/2000/svg" xmlns:xlink="http://www.w3.org/1999/xlink" x="0px" y="0px"
	 width="50px" height="50px" viewBox="0 0 50 50" enable-background="new 0 0 50 50" xml:space="preserve">
<g>
	<g>
		<linearGradient id="SVGID_1_" gradientUnits="userSpaceOnUse" x1="25.0005" y1="49.9995" x2="25.0005" y2="4.882812e-04">
			<stop  offset="0" style="stop-color:#006435"/>
			<stop  offset="1" style="stop-color:#44A748"/>
		</linearGradient>
		<path fill="url(#SVGID_1_)" d="M50,40c0,5.5-4.5,10-10,10H10C4.5,50,0,45.5,0,40V10C0,4.5,4.5,0,10,0h30c5.5,0,10,4.5,10,10V40z"
			/>
	</g>
	<g>
		<path fill="#FFFFFF" d="M8.356,21.683c2.437,1.833,4.806,3.777,7.107,5.866c1.149,1.048,2.279,2.136,3.378,3.309
			c1.097,1.18,2.168,2.418,3.16,3.948l0,0l-6.35-0.157c3.176-5.18,7.267-9.53,11.702-13.198c4.449-3.671,9.253-6.714,14.191-9.394
			c0.084-0.045,0.189-0.014,0.235,0.07c0.04,0.074,0.021,0.165-0.042,0.217c-4.303,3.584-8.337,7.459-11.782,11.699
			c-3.441,4.234-6.258,8.852-8.027,13.704c-0.623,1.708-2.512,2.587-4.219,1.964c-0.732-0.268-1.312-0.768-1.687-1.387l-0.443-0.734
			h0c-0.209-1.209-0.647-2.563-1.159-3.9c-0.515-1.345-1.115-2.697-1.758-4.042C11.37,26.958,9.922,24.292,8.356,21.683z"/>
	</g>
</g>
</svg>
