<?xml version="1.0" encoding="utf-8"?>
<!-- Generator: Adobe Illustrator 16.0.0, SVG Export Plug-In . SVG Version: 6.00 Build 0)  -->
<!DOCTYPE svg PUBLIC "-//W3C//DTD SVG 1.1//EN" "http://www.w3.org/Graphics/SVG/1.1/DTD/svg11.dtd">
<svg version="1.1" id="Layer_1" xmlns="http://www.w3.org/2000/svg" xmlns:xlink="http://www.w3.org/1999/xlink" x="0px" y="0px"
	 width="590px" height="396px" viewBox="0 0 590 396" enable-background="new 0 0 590 396" xml:space="preserve">
<rect fill="#E8E4C1" width="85" height="396"/>
<g>
	<path fill="#240E2C" d="M14.338,24.224c-1.376,0-2.625-0.336-3.618-0.896l0.304-1.969c1.008,0.576,2.081,0.896,3.297,0.896
		c1.489,0,2.177-0.592,2.177-1.633c0-2.257-5.714-1.28-5.714-5.298c0-1.953,1.265-3.538,4.162-3.538c1.185,0,2.385,0.24,3.282,0.64
		l-0.289,1.905c-0.976-0.352-1.92-0.544-2.881-0.544c-1.633,0-2.145,0.656-2.145,1.424c0,2.193,5.714,1.185,5.714,5.266
		C18.627,22.799,17.059,24.224,14.338,24.224z"/>
	<path fill="#240E2C" d="M24.146,24.224c-2.977,0-4.322-1.44-4.322-5.01c0-3.553,1.345-5.026,4.322-5.026
		c2.993,0,4.274,1.473,4.274,5.026C28.42,22.784,27.139,24.224,24.146,24.224z M24.146,22.511c1.584,0,2.177-0.768,2.177-3.297
		c0-2.529-0.592-3.297-2.177-3.297c-1.601,0-2.209,0.769-2.209,3.297C21.937,21.743,22.562,22.511,24.146,22.511z"/>
	<path fill="#240E2C" d="M37.939,20.703c0,2.257-1.28,3.474-3.921,3.474s-3.906-1.265-3.906-3.474v-6.338h2.033v6.291
		c0,1.104,0.608,1.681,1.889,1.681c1.249,0,1.873-0.561,1.873-1.681v-6.291h2.033V20.703z"/>
	<path fill="#240E2C" d="M40.112,24v-9.572l1.633-0.096l0.176,1.809h0.048c0.592-1.249,1.584-1.92,2.769-1.92
		c0.4,0,0.752,0.048,1.008,0.128l-0.128,2.065c-0.304-0.096-0.656-0.16-1.008-0.16c-1.393,0-2.465,1.088-2.465,2.897V24H40.112z"/>
	<path fill="#240E2C" d="M53.091,16.445c-0.528-0.224-1.168-0.368-1.777-0.368c-1.937,0-2.609,0.864-2.609,3.089
		c0,2.353,0.913,3.25,2.561,3.25c0.688,0,1.361-0.16,1.889-0.448l0.144,1.632c-0.56,0.368-1.44,0.608-2.465,0.608
		c-2.785,0-4.242-1.601-4.242-5.042c0-3.217,1.296-4.946,4.29-4.946c0.833,0,1.713,0.176,2.337,0.432L53.091,16.445z"/>
	<path fill="#240E2C" d="M54.288,19.006c0-3.057,1.345-4.802,4.13-4.802c2.369,0,3.889,1.393,3.889,4.466
		c0,0.304-0.016,0.688-0.048,0.976H56.4c0.096,2.017,0.944,2.721,2.785,2.721c0.944,0,1.777-0.176,2.593-0.528l0.24,1.681
		c-0.816,0.4-1.873,0.656-3.073,0.656C55.696,24.176,54.288,22.463,54.288,19.006z M60.434,18.27
		c-0.032-1.697-0.8-2.337-2.001-2.337c-1.393,0-1.984,0.705-2.081,2.337H60.434z"/>
</g>
<g>
	<g>
		<g>
			<path d="M32.742,46.82h-1.236l-0.855-2.432h-3.773l-0.855,2.432h-1.178l3.176-8.725h1.547L32.742,46.82z M30.293,43.392
				l-1.529-4.283l-1.535,4.283H30.293z"/>
			<path d="M39.346,46.82h-1.102v-0.727c-0.371,0.293-0.727,0.518-1.066,0.674s-0.715,0.234-1.125,0.234
				c-0.688,0-1.223-0.21-1.605-0.63s-0.574-1.036-0.574-1.849v-4.248h1.102v3.727c0,0.332,0.016,0.616,0.047,0.853
				s0.098,0.438,0.199,0.606c0.105,0.172,0.242,0.297,0.41,0.375s0.412,0.117,0.732,0.117c0.285,0,0.597-0.074,0.935-0.223
				s0.653-0.338,0.946-0.568v-4.887h1.102V46.82z"/>
			<path d="M46.822,46.82h-1.102v-0.686c-0.316,0.273-0.646,0.486-0.99,0.639s-0.717,0.229-1.119,0.229
				c-0.781,0-1.401-0.301-1.86-0.902s-0.688-1.436-0.688-2.502c0-0.555,0.079-1.049,0.237-1.482s0.372-0.803,0.642-1.107
				c0.266-0.297,0.575-0.523,0.929-0.68s0.72-0.234,1.099-0.234c0.344,0,0.648,0.036,0.914,0.108s0.545,0.185,0.838,0.337v-2.836
				h1.102V46.82z M45.721,45.208v-3.756c-0.297-0.133-0.562-0.225-0.797-0.275s-0.49-0.076-0.768-0.076
				c-0.617,0-1.098,0.215-1.441,0.645s-0.516,1.039-0.516,1.828c0,0.777,0.133,1.368,0.398,1.772s0.691,0.606,1.277,0.606
				c0.312,0,0.629-0.069,0.949-0.208S45.443,45.427,45.721,45.208z"/>
			<path d="M50.174,39.179h-1.242v-1.143h1.242V39.179z M50.104,46.82h-1.102v-6.545h1.102V46.82z"/>
			<path d="M57.861,43.55c0,1.066-0.273,1.908-0.82,2.525s-1.279,0.926-2.197,0.926c-0.926,0-1.661-0.309-2.206-0.926
				s-0.817-1.459-0.817-2.525s0.272-1.909,0.817-2.528s1.28-0.929,2.206-0.929c0.918,0,1.65,0.31,2.197,0.929
				S57.861,42.484,57.861,43.55z M56.725,43.55c0-0.848-0.166-1.478-0.498-1.89s-0.793-0.618-1.383-0.618
				c-0.598,0-1.062,0.206-1.392,0.618s-0.495,1.042-0.495,1.89c0,0.82,0.166,1.442,0.498,1.866s0.795,0.636,1.389,0.636
				c0.586,0,1.046-0.21,1.38-0.63S56.725,44.378,56.725,43.55z"/>
		</g>
	</g>
</g>
<rect x="505" fill="#E8E4C1" width="85" height="396"/>
<g>
	<path fill="#240E2C" d="M520.971,24.224c-3.633,0-5.153-1.905-5.153-6.227s1.473-6.194,5.153-6.194
		c3.666,0,5.123,1.873,5.123,6.194C526.094,22.383,524.637,24.224,520.971,24.224z M520.955,13.836
		c-2.049,0-2.816,0.848-2.816,4.162s0.768,4.194,2.832,4.194c2.065,0,2.818-0.896,2.818-4.194
		C523.789,14.668,523.053,13.836,520.955,13.836z"/>
	<path fill="#240E2C" d="M535.772,20.703c0,2.257-1.28,3.474-3.921,3.474c-2.642,0-3.906-1.265-3.906-3.474v-6.338h2.033v6.291
		c0,1.104,0.607,1.681,1.889,1.681c1.248,0,1.873-0.561,1.873-1.681v-6.291h2.032V20.703z"/>
	<path fill="#240E2C" d="M540.314,15.933v5.362c0,0.848,0.448,1.201,1.265,1.201c0.256,0,0.608-0.048,0.784-0.112l0.128,1.521
		c-0.319,0.144-0.912,0.256-1.505,0.256c-1.809,0-2.705-1.041-2.705-2.817v-5.41h-1.2v-1.568h1.265l0.368-2.257l1.601-0.16v2.417
		h2.257v1.568H540.314z"/>
	<path fill="#240E2C" d="M548.651,24.176c-0.913,0-1.761-0.224-2.401-0.896l-0.048,0.016l0.032,1.296v1.825h-2.064V14.428
		l1.44-0.096l0.399,0.913c0.689-0.656,1.649-1.041,2.722-1.041c2.369,0,3.665,1.265,3.665,4.962
		C552.396,22.64,550.94,24.176,548.651,24.176z M548.203,16.045c-0.864,0-1.553,0.352-1.969,0.944v4.466
		c0.336,0.544,0.961,0.976,1.904,0.976c1.281,0,2.161-0.608,2.161-3.281C550.3,16.701,549.611,16.045,548.203,16.045z"/>
	<path fill="#240E2C" d="M561.916,20.703c0,2.257-1.279,3.474-3.921,3.474s-3.905-1.265-3.905-3.474v-6.338h2.032v6.291
		c0,1.104,0.608,1.681,1.889,1.681c1.249,0,1.873-0.561,1.873-1.681v-6.291h2.032V20.703z"/>
	<path fill="#240E2C" d="M566.458,15.933v5.362c0,0.848,0.448,1.201,1.265,1.201c0.256,0,0.607-0.048,0.784-0.112l0.128,1.521
		c-0.32,0.144-0.912,0.256-1.504,0.256c-1.81,0-2.705-1.041-2.705-2.817v-5.41h-1.201v-1.568h1.265l0.368-2.257l1.601-0.16v2.417
		h2.257v1.568H566.458z"/>
</g>
<g>
	<g>
		<g>
			<path d="M21.179,379.229c0.355,0.391,0.628,0.869,0.817,1.436s0.284,1.209,0.284,1.928s-0.097,1.363-0.29,1.932
				s-0.464,1.041-0.812,1.42c-0.359,0.395-0.784,0.691-1.274,0.891s-1.05,0.299-1.679,0.299c-0.613,0-1.171-0.102-1.673-0.305
				s-0.929-0.498-1.28-0.885s-0.622-0.861-0.812-1.424s-0.284-1.205-0.284-1.928c0-0.711,0.094-1.348,0.281-1.912
				s0.461-1.049,0.82-1.451c0.344-0.383,0.771-0.676,1.28-0.879s1.065-0.305,1.667-0.305c0.625,0,1.187,0.104,1.685,0.309
				S20.831,378.85,21.179,379.229z M21.073,382.592c0-1.133-0.254-2.006-0.762-2.621s-1.201-0.924-2.08-0.924
				c-0.887,0-1.583,0.309-2.089,0.924s-0.759,1.488-0.759,2.621c0,1.145,0.258,2.021,0.773,2.629s1.207,0.91,2.074,0.91
				s1.558-0.303,2.071-0.91S21.073,383.736,21.073,382.592z"/>
			<path d="M28.708,385.064c0,0.598-0.247,1.088-0.741,1.471s-1.169,0.574-2.024,0.574c-0.484,0-0.929-0.057-1.333-0.172
				s-0.743-0.242-1.017-0.379v-1.236h0.059c0.348,0.262,0.734,0.471,1.16,0.625s0.834,0.23,1.225,0.23
				c0.484,0,0.863-0.078,1.137-0.234s0.41-0.402,0.41-0.738c0-0.258-0.074-0.453-0.223-0.586s-0.434-0.246-0.855-0.34
				c-0.156-0.035-0.36-0.076-0.612-0.123s-0.481-0.098-0.688-0.152c-0.574-0.152-0.981-0.375-1.222-0.67s-0.36-0.658-0.36-1.088
				c0-0.27,0.056-0.523,0.167-0.762s0.28-0.451,0.507-0.639c0.219-0.184,0.497-0.328,0.835-0.436s0.716-0.162,1.134-0.162
				c0.391,0,0.786,0.049,1.187,0.145s0.733,0.211,0.999,0.348v1.178h-0.059c-0.281-0.207-0.623-0.381-1.025-0.523
				s-0.797-0.215-1.184-0.215c-0.402,0-0.742,0.078-1.02,0.232s-0.416,0.383-0.416,0.688c0,0.27,0.084,0.473,0.252,0.609
				c0.164,0.137,0.43,0.248,0.797,0.334c0.203,0.047,0.431,0.094,0.683,0.141s0.462,0.09,0.63,0.129
				c0.512,0.117,0.906,0.318,1.184,0.604C28.569,384.205,28.708,384.588,28.708,385.064z"/>
			<path d="M35.124,386.541c-0.367,0.176-0.716,0.312-1.046,0.41s-0.681,0.146-1.052,0.146c-0.473,0-0.906-0.068-1.301-0.207
				s-0.732-0.35-1.014-0.631c-0.285-0.281-0.506-0.637-0.662-1.066s-0.234-0.932-0.234-1.506c0-1.07,0.294-1.91,0.882-2.52
				s1.364-0.914,2.329-0.914c0.375,0,0.743,0.053,1.104,0.158s0.692,0.234,0.993,0.387v1.225h-0.059
				c-0.336-0.262-0.683-0.463-1.04-0.604s-0.706-0.211-1.046-0.211c-0.625,0-1.118,0.211-1.479,0.631s-0.542,1.035-0.542,1.848
				c0,0.789,0.177,1.396,0.53,1.82s0.851,0.635,1.491,0.635c0.223,0,0.449-0.029,0.68-0.088s0.438-0.135,0.621-0.229
				c0.16-0.082,0.311-0.168,0.451-0.26s0.252-0.172,0.334-0.238h0.059V386.541z"/>
			<path d="M37.72,379.311h-1.242v-1.143h1.242V379.311z M37.649,386.951h-1.102v-6.545h1.102V386.951z"/>
			<path d="M40.942,386.951h-1.102v-9.117h1.102V386.951z"/>
			<path d="M44.235,386.951h-1.102v-9.117h1.102V386.951z"/>
			<path d="M51.501,386.951h-1.096v-0.697c-0.098,0.066-0.229,0.16-0.396,0.279s-0.327,0.213-0.483,0.283
				c-0.184,0.09-0.395,0.166-0.633,0.227s-0.518,0.09-0.838,0.09c-0.59,0-1.09-0.195-1.5-0.586s-0.615-0.889-0.615-1.494
				c0-0.496,0.106-0.896,0.319-1.203s0.517-0.549,0.911-0.725c0.398-0.176,0.877-0.295,1.436-0.357s1.158-0.109,1.799-0.141v-0.17
				c0-0.25-0.044-0.457-0.132-0.621s-0.214-0.293-0.378-0.387c-0.156-0.09-0.344-0.15-0.562-0.182s-0.447-0.047-0.686-0.047
				c-0.289,0-0.611,0.039-0.967,0.115s-0.723,0.186-1.102,0.33h-0.059v-1.119c0.215-0.059,0.525-0.123,0.932-0.193
				s0.807-0.105,1.201-0.105c0.461,0,0.862,0.039,1.204,0.115s0.638,0.205,0.888,0.389c0.246,0.18,0.434,0.412,0.562,0.697
				s0.193,0.639,0.193,1.061V386.951z M50.405,385.34v-1.822c-0.336,0.02-0.731,0.049-1.187,0.088s-0.815,0.096-1.081,0.17
				c-0.316,0.09-0.572,0.23-0.768,0.42s-0.293,0.449-0.293,0.781c0,0.375,0.113,0.658,0.34,0.848s0.572,0.283,1.037,0.283
				c0.387,0,0.74-0.074,1.061-0.225S50.132,385.551,50.405,385.34z"/>
			<path d="M57.021,386.893c-0.207,0.055-0.433,0.1-0.677,0.135s-0.462,0.053-0.653,0.053c-0.668,0-1.176-0.18-1.523-0.539
				s-0.521-0.936-0.521-1.729v-3.48h-0.744v-0.926h0.744v-1.881h1.102v1.881h2.273v0.926h-2.273v2.982
				c0,0.344,0.008,0.613,0.023,0.807s0.07,0.373,0.164,0.541c0.086,0.156,0.204,0.271,0.354,0.344s0.38,0.107,0.688,0.107
				c0.18,0,0.367-0.025,0.562-0.078s0.336-0.098,0.422-0.133h0.059V386.893z"/>
			<path d="M63.929,383.682c0,1.066-0.273,1.908-0.82,2.525s-1.279,0.926-2.197,0.926c-0.926,0-1.661-0.309-2.206-0.926
				s-0.817-1.459-0.817-2.525s0.272-1.908,0.817-2.527s1.28-0.93,2.206-0.93c0.918,0,1.65,0.311,2.197,0.93
				S63.929,382.615,63.929,383.682z M62.792,383.682c0-0.848-0.166-1.477-0.498-1.889s-0.793-0.619-1.383-0.619
				c-0.598,0-1.062,0.207-1.392,0.619s-0.495,1.041-0.495,1.889c0,0.82,0.166,1.443,0.498,1.867s0.795,0.635,1.389,0.635
				c0.586,0,1.046-0.209,1.38-0.629S62.792,384.51,62.792,383.682z"/>
			<path d="M69.718,381.607h-0.059c-0.164-0.039-0.323-0.066-0.478-0.084s-0.337-0.027-0.548-0.027c-0.34,0-0.668,0.076-0.984,0.227
				s-0.621,0.344-0.914,0.582v4.646h-1.102v-6.545h1.102v0.967c0.438-0.352,0.823-0.6,1.157-0.746s0.675-0.221,1.022-0.221
				c0.191,0,0.33,0.006,0.416,0.016s0.215,0.027,0.387,0.055V381.607z"/>
		</g>
	</g>
</g>
<g>
	<g>
		<g>
			<path d="M402.438,255.736h-1.236l-0.855-2.432h-3.773l-0.855,2.432h-1.178l3.176-8.725h1.547L402.438,255.736z M399.988,252.309
				l-1.529-4.283l-1.535,4.283H399.988z"/>
			<path d="M409.146,255.736h-1.102v-3.727c0-0.301-0.018-0.583-0.053-0.847s-0.1-0.47-0.193-0.618
				c-0.098-0.164-0.238-0.286-0.422-0.366s-0.422-0.12-0.715-0.12c-0.301,0-0.615,0.074-0.943,0.223s-0.643,0.338-0.943,0.568v4.887
				h-1.102v-6.545h1.102v0.727c0.344-0.285,0.699-0.508,1.066-0.668s0.744-0.24,1.131-0.24c0.707,0,1.246,0.213,1.617,0.639
				s0.557,1.039,0.557,1.84V255.736z"/>
			<path d="M416.354,255.736h-1.096v-0.697c-0.098,0.066-0.23,0.159-0.396,0.278s-0.326,0.214-0.482,0.284
				c-0.184,0.09-0.395,0.165-0.633,0.226s-0.518,0.091-0.838,0.091c-0.59,0-1.09-0.195-1.5-0.586s-0.615-0.889-0.615-1.494
				c0-0.496,0.105-0.897,0.318-1.204s0.518-0.548,0.912-0.724c0.398-0.176,0.877-0.295,1.436-0.357s1.158-0.109,1.799-0.141v-0.17
				c0-0.25-0.045-0.457-0.133-0.621s-0.213-0.293-0.377-0.387c-0.156-0.09-0.344-0.15-0.562-0.182s-0.447-0.047-0.686-0.047
				c-0.289,0-0.611,0.038-0.967,0.114s-0.723,0.187-1.102,0.331h-0.059v-1.119c0.215-0.059,0.525-0.123,0.932-0.193
				s0.807-0.105,1.201-0.105c0.461,0,0.861,0.038,1.203,0.114s0.639,0.206,0.889,0.39c0.246,0.18,0.434,0.412,0.562,0.697
				s0.193,0.639,0.193,1.061V255.736z M415.258,254.125v-1.822c-0.336,0.02-0.732,0.049-1.188,0.088s-0.814,0.096-1.08,0.17
				c-0.316,0.09-0.572,0.229-0.768,0.419s-0.293,0.45-0.293,0.782c0,0.375,0.113,0.657,0.34,0.847s0.572,0.284,1.037,0.284
				c0.387,0,0.74-0.075,1.061-0.226S414.984,254.336,415.258,254.125z"/>
			<path d="M419.588,255.736h-1.102v-9.117h1.102V255.736z"/>
			<path d="M427.428,249.191l-3.82,8.959h-1.178l1.219-2.73l-2.607-6.229h1.195l2.01,4.852l2.027-4.852H427.428z"/>
			<path d="M433.615,255.736h-5.285v-0.814l3.814-4.811h-3.732v-0.92h5.104v0.785l-3.832,4.828h3.932V255.736z"/>
			<path d="M440.582,252.578h-4.822c0,0.402,0.061,0.753,0.182,1.052s0.287,0.544,0.498,0.735c0.203,0.188,0.443,0.328,0.723,0.422
				s0.588,0.141,0.924,0.141c0.445,0,0.893-0.089,1.344-0.267s0.773-0.353,0.965-0.524h0.059v1.201
				c-0.371,0.156-0.75,0.287-1.137,0.393s-0.793,0.158-1.219,0.158c-1.086,0-1.934-0.294-2.543-0.882s-0.914-1.423-0.914-2.505
				c0-1.07,0.291-1.92,0.875-2.549s1.354-0.943,2.307-0.943c0.883,0,1.562,0.258,2.041,0.773s0.719,1.248,0.719,2.197V252.578z
				 M439.51,251.734c-0.004-0.578-0.15-1.025-0.438-1.342s-0.723-0.475-1.309-0.475c-0.59,0-1.061,0.174-1.41,0.521
				s-0.547,0.779-0.594,1.295H439.51z"/>
			<path d="M446.336,250.393h-0.059c-0.164-0.039-0.324-0.067-0.479-0.085s-0.336-0.026-0.547-0.026
				c-0.34,0-0.668,0.075-0.984,0.226s-0.621,0.345-0.914,0.583v4.646h-1.102v-6.545h1.102v0.967
				c0.438-0.352,0.822-0.601,1.156-0.747s0.676-0.22,1.023-0.22c0.191,0,0.33,0.005,0.416,0.015s0.215,0.028,0.387,0.056V250.393z"
				/>
		</g>
	</g>
</g>
<g>
	<g>
		<g>
			<path d="M533.48,248.014c0.355,0.391,0.627,0.869,0.816,1.436s0.285,1.209,0.285,1.928s-0.098,1.362-0.291,1.931
				s-0.463,1.042-0.811,1.421c-0.359,0.395-0.785,0.691-1.275,0.891s-1.049,0.299-1.678,0.299c-0.613,0-1.172-0.102-1.674-0.305
				s-0.928-0.498-1.279-0.885s-0.623-0.861-0.812-1.424s-0.283-1.205-0.283-1.928c0-0.711,0.094-1.349,0.281-1.913
				s0.461-1.048,0.82-1.45c0.344-0.383,0.77-0.676,1.279-0.879s1.066-0.305,1.668-0.305c0.625,0,1.186,0.103,1.684,0.308
				S533.133,247.635,533.48,248.014z M533.375,251.377c0-1.133-0.254-2.007-0.762-2.622s-1.201-0.923-2.08-0.923
				c-0.887,0-1.584,0.308-2.09,0.923s-0.758,1.489-0.758,2.622c0,1.145,0.258,2.021,0.773,2.628s1.207,0.911,2.074,0.911
				s1.557-0.304,2.07-0.911S533.375,252.521,533.375,251.377z"/>
			<path d="M541.76,255.736h-1.102v-0.727c-0.371,0.293-0.727,0.518-1.066,0.674s-0.715,0.234-1.125,0.234
				c-0.688,0-1.223-0.21-1.605-0.63s-0.574-1.036-0.574-1.849v-4.248h1.102v3.727c0,0.332,0.016,0.616,0.047,0.853
				s0.098,0.438,0.199,0.606c0.105,0.172,0.242,0.297,0.41,0.375s0.412,0.117,0.732,0.117c0.285,0,0.596-0.074,0.934-0.223
				s0.654-0.338,0.947-0.568v-4.887h1.102V255.736z"/>
			<path d="M547.326,255.678c-0.207,0.055-0.434,0.1-0.678,0.135s-0.461,0.053-0.652,0.053c-0.668,0-1.176-0.18-1.523-0.539
				s-0.521-0.936-0.521-1.729v-3.48h-0.744v-0.926h0.744v-1.881h1.102v1.881h2.273v0.926h-2.273v2.982
				c0,0.344,0.008,0.612,0.023,0.806s0.07,0.374,0.164,0.542c0.086,0.156,0.203,0.271,0.354,0.343s0.381,0.108,0.689,0.108
				c0.18,0,0.367-0.026,0.562-0.079s0.336-0.097,0.422-0.132h0.059V255.678z"/>
			<path d="M554.416,252.385c0,0.531-0.076,1.017-0.229,1.456s-0.367,0.812-0.645,1.116c-0.258,0.289-0.562,0.513-0.912,0.671
				s-0.719,0.237-1.109,0.237c-0.34,0-0.648-0.037-0.924-0.111s-0.555-0.189-0.84-0.346v2.742h-1.102v-8.959h1.102v0.686
				c0.293-0.246,0.621-0.452,0.986-0.618s0.756-0.249,1.17-0.249c0.789,0,1.402,0.298,1.842,0.894S554.416,251.326,554.416,252.385z
				 M553.279,252.414c0-0.789-0.135-1.379-0.404-1.77s-0.684-0.586-1.242-0.586c-0.316,0-0.635,0.068-0.955,0.205
				s-0.627,0.316-0.92,0.539v3.709c0.312,0.141,0.58,0.236,0.805,0.287s0.48,0.076,0.766,0.076c0.613,0,1.092-0.207,1.436-0.621
				S553.279,253.227,553.279,252.414z"/>
			<path d="M561.559,255.736h-1.102v-0.727c-0.371,0.293-0.727,0.518-1.066,0.674s-0.715,0.234-1.125,0.234
				c-0.688,0-1.223-0.21-1.605-0.63s-0.574-1.036-0.574-1.849v-4.248h1.102v3.727c0,0.332,0.016,0.616,0.047,0.853
				s0.098,0.438,0.199,0.606c0.105,0.172,0.242,0.297,0.41,0.375s0.412,0.117,0.732,0.117c0.285,0,0.596-0.074,0.934-0.223
				s0.654-0.338,0.947-0.568v-4.887h1.102V255.736z"/>
			<path d="M567.125,255.678c-0.207,0.055-0.434,0.1-0.678,0.135s-0.461,0.053-0.652,0.053c-0.668,0-1.176-0.18-1.523-0.539
				s-0.521-0.936-0.521-1.729v-3.48h-0.744v-0.926h0.744v-1.881h1.102v1.881h2.273v0.926h-2.273v2.982
				c0,0.344,0.008,0.612,0.023,0.806s0.07,0.374,0.164,0.542c0.086,0.156,0.203,0.271,0.354,0.343s0.381,0.108,0.689,0.108
				c0.18,0,0.367-0.026,0.562-0.079s0.336-0.097,0.422-0.132h0.059V255.678z"/>
		</g>
	</g>
</g>
<g>
	<g>
		<g>
			<g>
				<path d="M288.837,127.381c-0.477,0.219-0.997,0.409-1.562,0.571s-1.11,0.243-1.638,0.243c-0.68,0-1.303-0.094-1.869-0.281
					s-1.049-0.469-1.447-0.844c-0.402-0.379-0.713-0.853-0.932-1.421s-0.328-1.233-0.328-1.995c0-1.395,0.407-2.495,1.222-3.302
					s1.933-1.21,3.354-1.21c0.496,0,1.003,0.06,1.521,0.179s1.075,0.321,1.673,0.606v1.377h-0.105
					c-0.121-0.094-0.297-0.217-0.527-0.369s-0.457-0.279-0.68-0.381c-0.27-0.121-0.575-0.222-0.917-0.302s-0.729-0.12-1.163-0.12
					c-0.977,0-1.749,0.313-2.317,0.94s-0.853,1.476-0.853,2.546c0,1.129,0.297,2.007,0.891,2.634s1.402,0.94,2.426,0.94
					c0.375,0,0.749-0.037,1.122-0.111s0.7-0.17,0.981-0.287v-2.139h-2.338v-1.02h3.486V127.381z"/>
				<path d="M295.863,128.026h-1.096v-0.697c-0.098,0.066-0.229,0.159-0.396,0.278s-0.327,0.214-0.483,0.284
					c-0.184,0.09-0.395,0.165-0.633,0.226s-0.518,0.091-0.838,0.091c-0.59,0-1.09-0.195-1.5-0.586s-0.615-0.889-0.615-1.494
					c0-0.496,0.106-0.897,0.319-1.204s0.517-0.548,0.911-0.724c0.398-0.176,0.877-0.295,1.436-0.357s1.158-0.109,1.799-0.141v-0.17
					c0-0.25-0.044-0.457-0.132-0.621s-0.214-0.293-0.378-0.387c-0.156-0.09-0.344-0.15-0.562-0.182s-0.447-0.047-0.686-0.047
					c-0.289,0-0.611,0.038-0.967,0.114s-0.723,0.187-1.102,0.331h-0.059v-1.119c0.215-0.059,0.525-0.123,0.932-0.193
					s0.807-0.105,1.201-0.105c0.461,0,0.862,0.038,1.204,0.114s0.638,0.206,0.888,0.39c0.246,0.18,0.434,0.412,0.562,0.697
					s0.193,0.639,0.193,1.061V128.026z M294.767,126.415v-1.822c-0.336,0.02-0.731,0.049-1.187,0.088s-0.815,0.096-1.081,0.17
					c-0.316,0.09-0.572,0.229-0.768,0.419s-0.293,0.45-0.293,0.782c0,0.375,0.113,0.657,0.34,0.847s0.572,0.284,1.037,0.284
					c0.387,0,0.74-0.075,1.061-0.226S294.494,126.625,294.767,126.415z"/>
				<path d="M299.168,120.385h-1.242v-1.143h1.242V120.385z M299.098,128.026h-1.102v-6.545h1.102V128.026z"/>
				<path d="M306.75,128.026h-1.102v-3.727c0-0.301-0.018-0.583-0.053-0.847s-0.1-0.47-0.193-0.618
					c-0.098-0.164-0.238-0.286-0.422-0.366s-0.422-0.12-0.715-0.12c-0.301,0-0.615,0.074-0.943,0.223s-0.643,0.338-0.943,0.568
					v4.887h-1.102v-6.545h1.102v0.727c0.344-0.285,0.699-0.508,1.066-0.668s0.744-0.24,1.131-0.24c0.707,0,1.246,0.213,1.617,0.639
					s0.557,1.039,0.557,1.84V128.026z"/>
			</g>
		</g>
	</g>
	<g>
		<g>
			<g>
				<path d="M288.837,301.092c-0.477,0.219-0.997,0.409-1.562,0.571s-1.11,0.243-1.638,0.243c-0.68,0-1.303-0.094-1.869-0.281
					s-1.049-0.469-1.447-0.844c-0.402-0.379-0.713-0.853-0.932-1.421s-0.328-1.233-0.328-1.995c0-1.395,0.407-2.495,1.222-3.302
					s1.933-1.21,3.354-1.21c0.496,0,1.003,0.06,1.521,0.179s1.075,0.321,1.673,0.606v1.377h-0.105
					c-0.121-0.094-0.297-0.217-0.527-0.369s-0.457-0.279-0.68-0.381c-0.27-0.121-0.575-0.222-0.917-0.302s-0.729-0.12-1.163-0.12
					c-0.977,0-1.749,0.313-2.317,0.94s-0.853,1.476-0.853,2.546c0,1.129,0.297,2.007,0.891,2.634s1.402,0.94,2.426,0.94
					c0.375,0,0.749-0.037,1.122-0.111s0.7-0.17,0.981-0.287v-2.139h-2.338v-1.02h3.486V301.092z"/>
				<path d="M295.863,301.736h-1.096v-0.697c-0.098,0.066-0.229,0.159-0.396,0.278s-0.327,0.214-0.483,0.284
					c-0.184,0.09-0.395,0.165-0.633,0.226s-0.518,0.091-0.838,0.091c-0.59,0-1.09-0.195-1.5-0.586s-0.615-0.889-0.615-1.494
					c0-0.496,0.106-0.897,0.319-1.204s0.517-0.548,0.911-0.724c0.398-0.176,0.877-0.295,1.436-0.357s1.158-0.109,1.799-0.141v-0.17
					c0-0.25-0.044-0.457-0.132-0.621s-0.214-0.293-0.378-0.387c-0.156-0.09-0.344-0.15-0.562-0.182s-0.447-0.047-0.686-0.047
					c-0.289,0-0.611,0.038-0.967,0.114s-0.723,0.187-1.102,0.331h-0.059v-1.119c0.215-0.059,0.525-0.123,0.932-0.193
					s0.807-0.105,1.201-0.105c0.461,0,0.862,0.038,1.204,0.114s0.638,0.206,0.888,0.39c0.246,0.18,0.434,0.412,0.562,0.697
					s0.193,0.639,0.193,1.061V301.736z M294.767,300.125v-1.822c-0.336,0.02-0.731,0.049-1.187,0.088s-0.815,0.096-1.081,0.17
					c-0.316,0.09-0.572,0.229-0.768,0.419s-0.293,0.45-0.293,0.782c0,0.375,0.113,0.657,0.34,0.847s0.572,0.284,1.037,0.284
					c0.387,0,0.74-0.075,1.061-0.226S294.494,300.336,294.767,300.125z"/>
				<path d="M299.168,294.096h-1.242v-1.143h1.242V294.096z M299.098,301.736h-1.102v-6.545h1.102V301.736z"/>
				<path d="M306.75,301.736h-1.102v-3.727c0-0.301-0.018-0.583-0.053-0.847s-0.1-0.47-0.193-0.618
					c-0.098-0.164-0.238-0.286-0.422-0.366s-0.422-0.12-0.715-0.12c-0.301,0-0.615,0.074-0.943,0.223s-0.643,0.338-0.943,0.568
					v4.887h-1.102v-6.545h1.102v0.727c0.344-0.285,0.699-0.508,1.066-0.668s0.744-0.24,1.131-0.24c0.707,0,1.246,0.213,1.617,0.639
					s0.557,1.039,0.557,1.84V301.736z"/>
			</g>
		</g>
	</g>
</g>
<g>
	<g>
		<g>
			<g>
				<path d="M133.299,128.026h-5.52v-8.725h1.16v7.693h4.359V128.026z"/>
				<path d="M139.949,124.756c0,1.066-0.273,1.908-0.82,2.525s-1.279,0.926-2.197,0.926c-0.926,0-1.661-0.309-2.206-0.926
					s-0.817-1.459-0.817-2.525s0.272-1.909,0.817-2.528s1.28-0.929,2.206-0.929c0.918,0,1.65,0.31,2.197,0.929
					S139.949,123.69,139.949,124.756z M138.812,124.756c0-0.848-0.166-1.478-0.498-1.89s-0.793-0.618-1.383-0.618
					c-0.598,0-1.062,0.206-1.392,0.618s-0.495,1.042-0.495,1.89c0,0.82,0.166,1.442,0.498,1.866s0.795,0.636,1.389,0.636
					c0.586,0,1.046-0.21,1.38-0.63S138.812,125.584,138.812,124.756z"/>
				<path d="M149.887,121.481l-1.705,6.545h-1.02l-1.682-5.045l-1.67,5.045h-1.014l-1.723-6.545h1.148l1.201,5.068l1.635-5.068
					h0.908l1.676,5.068l1.137-5.068H149.887z"/>
				<path d="M157.27,121.938c0,0.387-0.067,0.745-0.202,1.075s-0.323,0.616-0.565,0.858c-0.301,0.301-0.656,0.526-1.066,0.677
					s-0.928,0.226-1.553,0.226h-1.16v3.252h-1.16v-8.725h2.367c0.523,0,0.967,0.044,1.33,0.132s0.686,0.226,0.967,0.413
					c0.332,0.223,0.589,0.5,0.771,0.832S157.27,121.43,157.27,121.938z M156.062,121.967c0-0.301-0.053-0.562-0.158-0.785
					s-0.266-0.404-0.48-0.545c-0.188-0.121-0.401-0.208-0.642-0.261s-0.544-0.079-0.911-0.079h-1.148v3.486h0.979
					c0.469,0,0.85-0.042,1.143-0.126s0.531-0.218,0.715-0.401c0.184-0.188,0.313-0.385,0.39-0.592S156.062,122.225,156.062,121.967z
					"/>
				<path d="M163.504,128.026h-1.096v-0.697c-0.098,0.066-0.229,0.159-0.396,0.278s-0.327,0.214-0.483,0.284
					c-0.184,0.09-0.395,0.165-0.633,0.226s-0.518,0.091-0.838,0.091c-0.59,0-1.09-0.195-1.5-0.586s-0.615-0.889-0.615-1.494
					c0-0.496,0.106-0.897,0.319-1.204s0.517-0.548,0.911-0.724c0.398-0.176,0.877-0.295,1.436-0.357s1.158-0.109,1.799-0.141v-0.17
					c0-0.25-0.044-0.457-0.132-0.621s-0.214-0.293-0.378-0.387c-0.156-0.09-0.344-0.15-0.562-0.182s-0.447-0.047-0.686-0.047
					c-0.289,0-0.611,0.038-0.967,0.114s-0.723,0.187-1.102,0.331h-0.059v-1.119c0.215-0.059,0.525-0.123,0.932-0.193
					s0.807-0.105,1.201-0.105c0.461,0,0.862,0.038,1.204,0.114s0.638,0.206,0.888,0.39c0.246,0.18,0.434,0.412,0.562,0.697
					s0.193,0.639,0.193,1.061V128.026z M162.408,126.415v-1.822c-0.336,0.02-0.731,0.049-1.187,0.088s-0.815,0.096-1.081,0.17
					c-0.316,0.09-0.572,0.229-0.768,0.419s-0.293,0.45-0.293,0.782c0,0.375,0.113,0.657,0.34,0.847s0.572,0.284,1.037,0.284
					c0.387,0,0.74-0.075,1.061-0.226S162.135,126.625,162.408,126.415z"/>
				<path d="M170.301,126.139c0,0.598-0.247,1.088-0.741,1.471s-1.169,0.574-2.024,0.574c-0.484,0-0.929-0.058-1.333-0.173
					s-0.743-0.241-1.017-0.378v-1.236h0.059c0.348,0.262,0.734,0.47,1.16,0.624s0.834,0.231,1.225,0.231
					c0.484,0,0.863-0.078,1.137-0.234s0.41-0.402,0.41-0.738c0-0.258-0.074-0.453-0.223-0.586s-0.434-0.246-0.855-0.34
					c-0.156-0.035-0.36-0.076-0.612-0.123s-0.481-0.098-0.688-0.152c-0.574-0.152-0.981-0.376-1.222-0.671s-0.36-0.657-0.36-1.087
					c0-0.27,0.056-0.523,0.167-0.762s0.28-0.451,0.507-0.639c0.219-0.184,0.497-0.329,0.835-0.437s0.716-0.161,1.134-0.161
					c0.391,0,0.786,0.048,1.187,0.144s0.733,0.212,0.999,0.349v1.178h-0.059c-0.281-0.207-0.623-0.382-1.025-0.524
					s-0.797-0.214-1.184-0.214c-0.402,0-0.742,0.077-1.02,0.231s-0.416,0.384-0.416,0.688c0,0.27,0.084,0.473,0.252,0.609
					c0.164,0.137,0.43,0.248,0.797,0.334c0.203,0.047,0.431,0.094,0.683,0.141s0.462,0.09,0.63,0.129
					c0.512,0.117,0.906,0.318,1.184,0.604C170.162,125.28,170.301,125.663,170.301,126.139z"/>
				<path d="M176.553,126.139c0,0.598-0.247,1.088-0.741,1.471s-1.169,0.574-2.024,0.574c-0.484,0-0.929-0.058-1.333-0.173
					s-0.743-0.241-1.017-0.378v-1.236h0.059c0.348,0.262,0.734,0.47,1.16,0.624s0.834,0.231,1.225,0.231
					c0.484,0,0.863-0.078,1.137-0.234s0.41-0.402,0.41-0.738c0-0.258-0.074-0.453-0.223-0.586s-0.434-0.246-0.855-0.34
					c-0.156-0.035-0.36-0.076-0.612-0.123s-0.481-0.098-0.688-0.152c-0.574-0.152-0.981-0.376-1.222-0.671s-0.36-0.657-0.36-1.087
					c0-0.27,0.056-0.523,0.167-0.762s0.28-0.451,0.507-0.639c0.219-0.184,0.497-0.329,0.835-0.437s0.716-0.161,1.134-0.161
					c0.391,0,0.786,0.048,1.187,0.144s0.733,0.212,0.999,0.349v1.178h-0.059c-0.281-0.207-0.623-0.382-1.025-0.524
					s-0.797-0.214-1.184-0.214c-0.402,0-0.742,0.077-1.02,0.231s-0.416,0.384-0.416,0.688c0,0.27,0.084,0.473,0.252,0.609
					c0.164,0.137,0.43,0.248,0.797,0.334c0.203,0.047,0.431,0.094,0.683,0.141s0.462,0.09,0.63,0.129
					c0.512,0.117,0.906,0.318,1.184,0.604C176.414,125.28,176.553,125.663,176.553,126.139z"/>
				<path d="M185.869,119.975h-0.059c-0.121-0.035-0.279-0.071-0.475-0.108s-0.367-0.056-0.516-0.056
					c-0.473,0-0.815,0.104-1.028,0.313s-0.319,0.587-0.319,1.134v0.223h1.986v0.926h-1.951v5.619h-1.102v-5.619h-0.744v-0.926h0.744
					v-0.217c0-0.777,0.193-1.374,0.58-1.79s0.945-0.624,1.676-0.624c0.246,0,0.468,0.012,0.665,0.035s0.378,0.051,0.542,0.082
					V119.975z"/>
				<path d="M187.75,120.385h-1.242v-1.143h1.242V120.385z M187.68,128.026h-1.102v-6.545h1.102V128.026z"/>
				<path d="M190.973,128.026h-1.102v-9.117h1.102V128.026z"/>
				<path d="M196.551,127.967c-0.207,0.055-0.433,0.1-0.677,0.135s-0.462,0.053-0.653,0.053c-0.668,0-1.176-0.18-1.523-0.539
					s-0.521-0.936-0.521-1.729v-3.48h-0.744v-0.926h0.744V119.6h1.102v1.881h2.273v0.926h-2.273v2.982
					c0,0.344,0.008,0.612,0.023,0.806s0.07,0.374,0.164,0.542c0.086,0.156,0.204,0.271,0.354,0.343s0.38,0.108,0.688,0.108
					c0.18,0,0.367-0.026,0.562-0.079s0.336-0.097,0.422-0.132h0.059V127.967z"/>
				<path d="M203.359,124.868h-4.822c0,0.402,0.061,0.753,0.182,1.052s0.287,0.544,0.498,0.735c0.203,0.188,0.444,0.328,0.724,0.422
					s0.587,0.141,0.923,0.141c0.445,0,0.894-0.089,1.345-0.267s0.772-0.353,0.964-0.524h0.059v1.201
					c-0.371,0.156-0.75,0.287-1.137,0.393s-0.793,0.158-1.219,0.158c-1.086,0-1.934-0.294-2.543-0.882s-0.914-1.423-0.914-2.505
					c0-1.07,0.292-1.92,0.876-2.549s1.353-0.943,2.306-0.943c0.883,0,1.563,0.258,2.042,0.773s0.718,1.248,0.718,2.197V124.868z
					 M202.287,124.024c-0.004-0.578-0.149-1.025-0.437-1.342s-0.724-0.475-1.31-0.475c-0.59,0-1.06,0.174-1.409,0.521
					s-0.548,0.779-0.595,1.295H202.287z"/>
				<path d="M209.113,122.682h-0.059c-0.164-0.039-0.323-0.067-0.478-0.085s-0.337-0.026-0.548-0.026
					c-0.34,0-0.668,0.075-0.984,0.226s-0.621,0.345-0.914,0.583v4.646h-1.102v-6.545h1.102v0.967
					c0.438-0.352,0.823-0.601,1.157-0.747s0.675-0.22,1.022-0.22c0.191,0,0.33,0.005,0.416,0.015s0.215,0.028,0.387,0.056V122.682z"
					/>
			</g>
		</g>
	</g>
	<g>
		<g>
			<g>
				<path d="M132.654,301.736h-1.16v-4.271h-4.354v4.271h-1.16v-8.725h1.16v3.422h4.354v-3.422h1.16V301.736z"/>
				<path d="M136.094,294.096h-1.242v-1.143h1.242V294.096z M136.023,301.736h-1.102v-6.545h1.102V301.736z"/>
				<path d="M143.512,300.992c0,1.109-0.252,1.924-0.756,2.443s-1.279,0.779-2.326,0.779c-0.348,0-0.687-0.024-1.017-0.073
					s-0.655-0.118-0.976-0.208v-1.125h0.059c0.18,0.07,0.465,0.157,0.855,0.261s0.781,0.155,1.172,0.155
					c0.375,0,0.686-0.045,0.932-0.135s0.438-0.215,0.574-0.375c0.137-0.152,0.234-0.336,0.293-0.551s0.088-0.455,0.088-0.721v-0.598
					c-0.332,0.266-0.649,0.464-0.952,0.595s-0.688,0.196-1.157,0.196c-0.781,0-1.401-0.282-1.86-0.847s-0.688-1.36-0.688-2.388
					c0-0.562,0.079-1.048,0.237-1.456s0.374-0.761,0.647-1.058c0.254-0.277,0.562-0.493,0.926-0.647s0.725-0.231,1.084-0.231
					c0.379,0,0.696,0.038,0.952,0.114s0.526,0.192,0.812,0.349l0.07-0.281h1.031V300.992z M142.41,299.938v-3.568
					c-0.293-0.133-0.565-0.228-0.817-0.284S141.09,296,140.84,296c-0.605,0-1.082,0.203-1.43,0.609s-0.521,0.996-0.521,1.77
					c0,0.734,0.129,1.291,0.387,1.67s0.686,0.568,1.283,0.568c0.32,0,0.642-0.062,0.964-0.185S142.141,300.145,142.41,299.938z"/>
				<path d="M151.152,301.736h-1.102v-3.727c0-0.301-0.018-0.583-0.053-0.847s-0.1-0.47-0.193-0.618
					c-0.098-0.164-0.238-0.286-0.422-0.366s-0.422-0.12-0.715-0.12c-0.301,0-0.615,0.074-0.943,0.223s-0.643,0.338-0.943,0.568
					v4.887h-1.102v-9.117h1.102v3.299c0.344-0.285,0.699-0.508,1.066-0.668s0.744-0.24,1.131-0.24c0.707,0,1.246,0.213,1.617,0.639
					s0.557,1.039,0.557,1.84V301.736z"/>
				<path d="M159.068,295.648c0,0.387-0.067,0.745-0.202,1.075s-0.323,0.616-0.565,0.858c-0.301,0.301-0.656,0.526-1.066,0.677
					s-0.928,0.226-1.553,0.226h-1.16v3.252h-1.16v-8.725h2.367c0.523,0,0.967,0.044,1.33,0.132s0.686,0.226,0.967,0.413
					c0.332,0.223,0.589,0.5,0.771,0.832S159.068,295.141,159.068,295.648z M157.861,295.678c0-0.301-0.053-0.562-0.158-0.785
					s-0.266-0.404-0.48-0.545c-0.188-0.121-0.401-0.208-0.642-0.261s-0.544-0.079-0.911-0.079h-1.148v3.486h0.979
					c0.469,0,0.85-0.042,1.143-0.126s0.531-0.218,0.715-0.401c0.184-0.188,0.313-0.385,0.39-0.592S157.861,295.936,157.861,295.678z
					"/>
				<path d="M165.303,301.736h-1.096v-0.697c-0.098,0.066-0.229,0.159-0.396,0.278s-0.327,0.214-0.483,0.284
					c-0.184,0.09-0.395,0.165-0.633,0.226s-0.518,0.091-0.838,0.091c-0.59,0-1.09-0.195-1.5-0.586s-0.615-0.889-0.615-1.494
					c0-0.496,0.106-0.897,0.319-1.204s0.517-0.548,0.911-0.724c0.398-0.176,0.877-0.295,1.436-0.357s1.158-0.109,1.799-0.141v-0.17
					c0-0.25-0.044-0.457-0.132-0.621s-0.214-0.293-0.378-0.387c-0.156-0.09-0.344-0.15-0.562-0.182s-0.447-0.047-0.686-0.047
					c-0.289,0-0.611,0.038-0.967,0.114s-0.723,0.187-1.102,0.331h-0.059v-1.119c0.215-0.059,0.525-0.123,0.932-0.193
					s0.807-0.105,1.201-0.105c0.461,0,0.862,0.038,1.204,0.114s0.638,0.206,0.888,0.39c0.246,0.18,0.434,0.412,0.562,0.697
					s0.193,0.639,0.193,1.061V301.736z M164.207,300.125v-1.822c-0.336,0.02-0.731,0.049-1.187,0.088s-0.815,0.096-1.081,0.17
					c-0.316,0.09-0.572,0.229-0.768,0.419s-0.293,0.45-0.293,0.782c0,0.375,0.113,0.657,0.34,0.847s0.572,0.284,1.037,0.284
					c0.387,0,0.74-0.075,1.061-0.226S163.934,300.336,164.207,300.125z"/>
				<path d="M172.1,299.85c0,0.598-0.247,1.088-0.741,1.471s-1.169,0.574-2.024,0.574c-0.484,0-0.929-0.058-1.333-0.173
					s-0.743-0.241-1.017-0.378v-1.236h0.059c0.348,0.262,0.734,0.47,1.16,0.624s0.834,0.231,1.225,0.231
					c0.484,0,0.863-0.078,1.137-0.234s0.41-0.402,0.41-0.738c0-0.258-0.074-0.453-0.223-0.586s-0.434-0.246-0.855-0.34
					c-0.156-0.035-0.36-0.076-0.612-0.123s-0.481-0.098-0.688-0.152c-0.574-0.152-0.981-0.376-1.222-0.671s-0.36-0.657-0.36-1.087
					c0-0.27,0.056-0.523,0.167-0.762s0.28-0.451,0.507-0.639c0.219-0.184,0.497-0.329,0.835-0.437s0.716-0.161,1.134-0.161
					c0.391,0,0.786,0.048,1.187,0.144s0.733,0.212,0.999,0.349v1.178h-0.059c-0.281-0.207-0.623-0.382-1.025-0.524
					s-0.797-0.214-1.184-0.214c-0.402,0-0.742,0.077-1.02,0.231s-0.416,0.384-0.416,0.688c0,0.27,0.084,0.473,0.252,0.609
					c0.164,0.137,0.43,0.248,0.797,0.334c0.203,0.047,0.431,0.094,0.683,0.141s0.462,0.09,0.63,0.129
					c0.512,0.117,0.906,0.318,1.184,0.604C171.961,298.99,172.1,299.373,172.1,299.85z"/>
				<path d="M178.352,299.85c0,0.598-0.247,1.088-0.741,1.471s-1.169,0.574-2.024,0.574c-0.484,0-0.929-0.058-1.333-0.173
					s-0.743-0.241-1.017-0.378v-1.236h0.059c0.348,0.262,0.734,0.47,1.16,0.624s0.834,0.231,1.225,0.231
					c0.484,0,0.863-0.078,1.137-0.234s0.41-0.402,0.41-0.738c0-0.258-0.074-0.453-0.223-0.586s-0.434-0.246-0.855-0.34
					c-0.156-0.035-0.36-0.076-0.612-0.123s-0.481-0.098-0.688-0.152c-0.574-0.152-0.981-0.376-1.222-0.671s-0.36-0.657-0.36-1.087
					c0-0.27,0.056-0.523,0.167-0.762s0.28-0.451,0.507-0.639c0.219-0.184,0.497-0.329,0.835-0.437s0.716-0.161,1.134-0.161
					c0.391,0,0.786,0.048,1.187,0.144s0.733,0.212,0.999,0.349v1.178h-0.059c-0.281-0.207-0.623-0.382-1.025-0.524
					s-0.797-0.214-1.184-0.214c-0.402,0-0.742,0.077-1.02,0.231s-0.416,0.384-0.416,0.688c0,0.27,0.084,0.473,0.252,0.609
					c0.164,0.137,0.43,0.248,0.797,0.334c0.203,0.047,0.431,0.094,0.683,0.141s0.462,0.09,0.63,0.129
					c0.512,0.117,0.906,0.318,1.184,0.604C178.213,298.99,178.352,299.373,178.352,299.85z"/>
				<path d="M187.668,293.686h-0.059c-0.121-0.035-0.279-0.071-0.475-0.108s-0.367-0.056-0.516-0.056
					c-0.473,0-0.815,0.104-1.028,0.313s-0.319,0.587-0.319,1.134v0.223h1.986v0.926h-1.951v5.619h-1.102v-5.619h-0.744v-0.926h0.744
					v-0.217c0-0.777,0.193-1.374,0.58-1.79s0.945-0.624,1.676-0.624c0.246,0,0.468,0.012,0.665,0.035s0.378,0.051,0.542,0.082
					V293.686z"/>
				<path d="M189.549,294.096h-1.242v-1.143h1.242V294.096z M189.479,301.736h-1.102v-6.545h1.102V301.736z"/>
				<path d="M192.771,301.736h-1.102v-9.117h1.102V301.736z"/>
				<path d="M198.35,301.678c-0.207,0.055-0.433,0.1-0.677,0.135s-0.462,0.053-0.653,0.053c-0.668,0-1.176-0.18-1.523-0.539
					s-0.521-0.936-0.521-1.729v-3.48h-0.744v-0.926h0.744v-1.881h1.102v1.881h2.273v0.926h-2.273v2.982
					c0,0.344,0.008,0.612,0.023,0.806s0.07,0.374,0.164,0.542c0.086,0.156,0.204,0.271,0.354,0.343s0.38,0.108,0.688,0.108
					c0.18,0,0.367-0.026,0.562-0.079s0.336-0.097,0.422-0.132h0.059V301.678z"/>
				<path d="M205.158,298.578h-4.822c0,0.402,0.061,0.753,0.182,1.052s0.287,0.544,0.498,0.735c0.203,0.188,0.444,0.328,0.724,0.422
					s0.587,0.141,0.923,0.141c0.445,0,0.894-0.089,1.345-0.267s0.772-0.353,0.964-0.524h0.059v1.201
					c-0.371,0.156-0.75,0.287-1.137,0.393s-0.793,0.158-1.219,0.158c-1.086,0-1.934-0.294-2.543-0.882s-0.914-1.423-0.914-2.505
					c0-1.07,0.292-1.92,0.876-2.549s1.353-0.943,2.306-0.943c0.883,0,1.563,0.258,2.042,0.773s0.718,1.248,0.718,2.197V298.578z
					 M204.086,297.734c-0.004-0.578-0.149-1.025-0.437-1.342s-0.724-0.475-1.31-0.475c-0.59,0-1.06,0.174-1.409,0.521
					s-0.548,0.779-0.595,1.295H204.086z"/>
				<path d="M210.912,296.393h-0.059c-0.164-0.039-0.323-0.067-0.478-0.085s-0.337-0.026-0.548-0.026
					c-0.34,0-0.668,0.075-0.984,0.226s-0.621,0.345-0.914,0.583v4.646h-1.102v-6.545h1.102v0.967
					c0.438-0.352,0.823-0.601,1.157-0.747s0.675-0.22,1.022-0.22c0.191,0,0.33,0.005,0.416,0.015s0.215,0.028,0.387,0.056V296.393z"
					/>
			</g>
		</g>
	</g>
</g>
<polyline fill="none" stroke="#000000" stroke-width="3" stroke-miterlimit="10" points="115,210.691 41.587,210.691 41.587,107.82 
	"/>
<line fill="none" stroke="#000000" stroke-width="3" stroke-miterlimit="10" x1="349.088" y1="210.691" x2="537.176" y2="210.693"/>
<rect x="115" y="163.649" fill="none" stroke="#000000" stroke-width="3" stroke-miterlimit="10" width="234.088" height="92.086"/>
<g>
	<path d="M66.587,97.82c0,5.5-4.5,10-10,10h-30c-5.5,0-10-4.5-10-10v-30c0-5.5,4.5-10,10-10h30c5.5,0,10,4.5,10,10V97.82z"/>
</g>
<g>
	<path d="M66.587,356.908c0,5.5-4.5,10-10,10h-30c-5.5,0-10-4.5-10-10v-30c0-5.5,4.5-10,10-10h30c5.5,0,10,4.5,10,10V356.908z"/>
</g>
<g>
	<path d="M571.586,225.691c0,5.5-4.5,10-10,10h-30c-5.5,0-10-4.5-10-10v-30c0-5.5,4.5-10,10-10h30c5.5,0,10,4.5,10,10V225.691z"/>
</g>
<g>
	<path d="M445.338,225.691c0,5.5-4.5,10-10,10h-30c-5.5,0-10-4.5-10-10v-30c0-5.5,4.5-10,10-10h30c5.5,0,10,4.5,10,10V225.691z"/>
</g>
<g>
	<path d="M319.088,178.648c0,5.5-4.5,10-10,10h-30c-5.5,0-10-4.5-10-10v-30c0-5.5,4.5-10,10-10h30c5.5,0,10,4.5,10,10V178.648z"/>
</g>
<g>
	<path d="M319.088,271.691c0,5.5-4.5,10-10,10h-30c-5.5,0-10-4.5-10-10v-30c0-5.5,4.5-10,10-10h30c5.5,0,10,4.5,10,10V271.691z"/>
</g>
<g>
	<circle fill="#FFFFFF" cx="34.183" cy="91.987" r="3.956"/>
	<polygon fill="#FFFFFF" points="38.139,75.348 36.129,76.855 36.129,91.987 38.139,91.987 	"/>
	<circle fill="#FFFFFF" cx="46.992" cy="88.722" r="3.956"/>
	<polygon fill="#FFFFFF" points="50.947,72.083 48.938,73.59 48.938,88.722 50.947,88.722 	"/>
	<polygon fill="#FFFFFF" points="50.947,69.697 36.129,74.469 36.129,80.623 50.947,75.851 	"/>
</g>
<g>
	<path fill="none" stroke="#FFFFFF" stroke-width="2" stroke-miterlimit="10" d="M277.313,261.066c0,0,1.304,1.25,2.897,2.775
		c1.594,1.527,4.267,0.328,5.94-2.664l5.016-8.971c1.674-2.994,4.412-2.994,6.085,0l5.016,8.971
		c1.674,2.992,4.293,4.191,5.818,2.664c1.527-1.525,2.775-2.775,2.775-2.775"/>
</g>
<g>
	<path fill="none" stroke="#FFFFFF" stroke-width="2" stroke-miterlimit="10" d="M277.313,168.023c0,0,1.304,1.249,2.897,2.776
		s4.267,0.327,5.94-2.666l5.016-8.971c1.674-2.993,4.412-2.993,6.085,0l5.016,8.971c1.674,2.993,4.293,4.192,5.818,2.666
		c1.527-1.527,2.775-2.776,2.775-2.776"/>
</g>
<g>
	<g>
		<path fill="none" stroke="#FFFFFF" stroke-width="2" stroke-miterlimit="10" d="M54.681,349.762c0,0-0.964,0.703-2.143,1.564
			c-1.178,0.859-3.637,0.473-5.463-0.859l-1.93-1.408c-1.826-1.332-4.815-1.332-6.642,0l-1.93,1.408
			c-1.826,1.332-4.392,1.641-5.701,0.686s-2.38-1.736-2.38-1.736"/>
	</g>
	<g>
		<path fill="none" stroke="#FFFFFF" stroke-width="2" stroke-miterlimit="10" d="M54.681,341.906c0,0-0.964,0.703-2.143,1.564
			c-1.178,0.859-3.637,0.473-5.463-0.859l-1.93-1.408c-1.826-1.332-4.815-1.332-6.642,0l-1.93,1.408
			c-1.826,1.332-4.392,1.641-5.701,0.686s-2.38-1.736-2.38-1.736"/>
	</g>
	<g>
		<path fill="none" stroke="#FFFFFF" stroke-width="2" stroke-miterlimit="10" d="M54.681,334.053c0,0-0.964,0.703-2.143,1.562
			s-3.637,0.473-5.463-0.859l-1.93-1.408c-1.826-1.332-4.815-1.332-6.642,0l-1.93,1.408c-1.826,1.332-4.392,1.641-5.701,0.686
			s-2.38-1.736-2.38-1.736"/>
	</g>
</g>
<g>
	<rect x="534.898" y="206.548" fill="#FFFFFF" width="3.613" height="8.288"/>
	<polygon fill="#FFFFFF" points="538.512,214.836 545.1,221.211 545.1,200.173 538.512,206.548 	"/>
	<g>
		<path fill="none" stroke="#FFFFFF" stroke-width="2" stroke-miterlimit="10" d="M548.018,216.551
			c1.658-1.412,2.713-3.512,2.713-5.858c0-2.349-1.055-4.448-2.713-5.86"/>
		<path fill="none" stroke="#FFFFFF" stroke-width="2" stroke-miterlimit="10" d="M550.854,218.268
			c2.145-1.826,3.508-4.541,3.508-7.575c0-3.036-1.363-5.751-3.508-7.576"/>
		<path fill="none" stroke="#FFFFFF" stroke-width="2" stroke-miterlimit="10" d="M553.689,220.598
			c2.803-2.389,4.586-5.936,4.586-9.905s-1.783-7.519-4.586-9.905"/>
	</g>
</g>
<g>
	<g>
		<path d="M192.837,178.648c0,5.5-4.5,10-10,10h-30c-5.5,0-10-4.5-10-10v-30c0-5.5,4.5-10,10-10h30c5.5,0,10,4.5,10,10V178.648z"/>
	</g>
	<g>
		
			<line fill="none" stroke="#FFFFFF" stroke-width="2" stroke-miterlimit="10" x1="161.837" y1="178.381" x2="161.837" y2="166.881"/>
		
			<line fill="none" stroke="#FFFFFF" stroke-width="2" stroke-miterlimit="10" x1="173.837" y1="178.381" x2="173.837" y2="150.631"/>
		
			<line fill="none" stroke="#FFFFFF" stroke-width="2" stroke-miterlimit="10" x1="157.837" y1="178.381" x2="157.837" y2="155.381"/>
		
			<line fill="none" stroke="#FFFFFF" stroke-width="2" stroke-miterlimit="10" x1="169.837" y1="178.381" x2="169.837" y2="159.631"/>
		
			<line fill="none" stroke="#FFFFFF" stroke-width="2" stroke-miterlimit="10" x1="181.837" y1="178.381" x2="181.837" y2="166.881"/>
		
			<line fill="none" stroke="#FFFFFF" stroke-width="2" stroke-miterlimit="10" x1="153.837" y1="178.381" x2="153.837" y2="164.381"/>
		
			<line fill="none" stroke="#FFFFFF" stroke-width="2" stroke-miterlimit="10" x1="165.837" y1="178.381" x2="165.837" y2="164.381"/>
		
			<line fill="none" stroke="#FFFFFF" stroke-width="2" stroke-miterlimit="10" x1="177.837" y1="178.381" x2="177.837" y2="161.648"/>
	</g>
</g>
<g>
	<g>
		<path d="M192.837,271.691c0,5.5-4.5,10-10,10h-30c-5.5,0-10-4.5-10-10v-30c0-5.5,4.5-10,10-10h30c5.5,0,10,4.5,10,10V271.691z"/>
	</g>
	<g>
		
			<line fill="none" stroke="#FFFFFF" stroke-width="2" stroke-miterlimit="10" x1="161.837" y1="271.424" x2="161.837" y2="259.924"/>
		
			<line fill="none" stroke="#FFFFFF" stroke-width="2" stroke-miterlimit="10" x1="173.837" y1="271.424" x2="173.837" y2="243.674"/>
		
			<line fill="none" stroke="#FFFFFF" stroke-width="2" stroke-miterlimit="10" x1="157.837" y1="271.424" x2="157.837" y2="248.424"/>
		
			<line fill="none" stroke="#FFFFFF" stroke-width="2" stroke-miterlimit="10" x1="169.837" y1="271.424" x2="169.837" y2="252.674"/>
		
			<line fill="none" stroke="#FFFFFF" stroke-width="2" stroke-miterlimit="10" x1="181.837" y1="271.424" x2="181.837" y2="259.924"/>
		
			<line fill="none" stroke="#FFFFFF" stroke-width="2" stroke-miterlimit="10" x1="153.837" y1="271.424" x2="153.837" y2="257.424"/>
		
			<line fill="none" stroke="#FFFFFF" stroke-width="2" stroke-miterlimit="10" x1="165.837" y1="271.424" x2="165.837" y2="257.424"/>
		
			<line fill="none" stroke="#FFFFFF" stroke-width="2" stroke-miterlimit="10" x1="177.837" y1="271.424" x2="177.837" y2="254.691"/>
	</g>
</g>
<g>
	<g>
		<path fill="#FFFFFF" d="M423.812,213.188c-0.242-1.527-0.84-2.932-1.711-4.131l1.299-1.297l-2.141-2.142l-1.299,1.298
			c-1.197-0.871-2.604-1.468-4.129-1.709v-1.837h-3.027v1.837c-1.527,0.241-2.932,0.838-4.131,1.709l-1.297-1.298l-2.141,2.142
			l1.297,1.297c-0.871,1.199-1.467,2.604-1.709,4.131h-1.836v3.027h1.836c0.242,1.527,0.838,2.932,1.709,4.129l-1.297,1.299
			l2.141,2.141l1.297-1.297c1.199,0.869,2.604,1.467,4.131,1.709v1.836h3.027v-1.836c1.525-0.242,2.932-0.84,4.129-1.709
			l1.299,1.297l2.141-2.141l-1.299-1.299c0.871-1.197,1.469-2.602,1.711-4.129h1.836v-3.027H423.812z M414.318,220.713
			c-3.32,0-6.014-2.691-6.014-6.012s2.693-6.014,6.014-6.014s6.012,2.693,6.012,6.014S417.639,220.713,414.318,220.713z"/>
		<circle fill="#FFFFFF" cx="414.318" cy="214.701" r="3.557"/>
	</g>
	<g>
		<path fill="#FFFFFF" d="M436.16,201.537c-0.295-1.043-0.826-1.974-1.529-2.736l0.797-1.011l-1.666-1.316l-0.799,1.01
			c-0.906-0.508-1.934-0.809-3.016-0.852l-0.152-1.279l-2.109,0.248l0.152,1.279c-1.045,0.293-1.975,0.825-2.738,1.53l-1.01-0.798
			l-1.316,1.668l1.012,0.797c-0.508,0.906-0.809,1.934-0.854,3.017l-1.279,0.15l0.25,2.109l1.277-0.15
			c0.295,1.045,0.826,1.975,1.531,2.736l-0.799,1.01l1.668,1.318l0.797-1.012c0.906,0.508,1.934,0.809,3.018,0.852l0.15,1.281
			l2.109-0.248l-0.15-1.281c1.043-0.293,1.973-0.824,2.736-1.529l1.012,0.799l1.314-1.668l-1.01-0.797
			c0.508-0.906,0.809-1.935,0.852-3.018l1.279-0.15l-0.248-2.109L436.16,201.537z M430.164,207.559
			c-2.314,0.273-4.41-1.383-4.684-3.695c-0.271-2.313,1.385-4.41,3.697-4.682s4.408,1.383,4.682,3.696
			C434.131,205.191,432.477,207.287,430.164,207.559z"/>
		<path fill="#FFFFFF" d="M432.148,203.079c0.16,1.368-0.818,2.608-2.186,2.769c-1.371,0.16-2.609-0.817-2.77-2.186
			c-0.162-1.369,0.816-2.608,2.186-2.77S431.986,201.71,432.148,203.079z"/>
	</g>
</g>
<g>
</g>
<g>
</g>
<g>
</g>
<g>
</g>
<g>
</g>
<g>
</g>
</svg>
