<?xml version="1.0" encoding="utf-8"?>
<!-- Generator: Adobe Illustrator 16.0.0, SVG Export Plug-In . SVG Version: 6.00 Build 0)  -->
<!DOCTYPE svg PUBLIC "-//W3C//DTD SVG 1.1//EN" "http://www.w3.org/Graphics/SVG/1.1/DTD/svg11.dtd">
<svg version="1.1" id="Layer_1" xmlns="http://www.w3.org/2000/svg" xmlns:xlink="http://www.w3.org/1999/xlink" x="0px" y="0px"
	 width="198.026px" height="168.055px" viewBox="0 0 198.026 168.055" enable-background="new 0 0 198.026 168.055"
	 xml:space="preserve">
<linearGradient id="SVGID_1_" gradientUnits="userSpaceOnUse" x1="148.6016" y1="83.3511" x2="386.6665" y2="83.3511" gradientTransform="matrix(0.9308 0.3656 -0.3656 0.9308 -146.59 -62.5803)">
	<stop  offset="0" style="stop-color:#AA1E22;stop-opacity:0.3"/>
	<stop  offset="1" style="stop-color:#5A0E0E"/>
</linearGradient>
<path opacity="0.8" fill="url(#SVGID_1_)" d="M18.83,114.496c4.939,5.173,10.341,10.244,16.198,15.14
	c48.11,40.211,119.591,49.231,145.488,25.299c11.418-10.553,10.955-26.312-1.666-40.438H18.83z"/>
<g id="Spaceship_2_">
	<path fill="#059464" d="M197.446,93.956c-5.869,29.147-54.702,43.901-109.062,32.954C34.023,115.961-5.289,83.453,0.58,54.306
		c5.874-29.149,54.704-43.902,109.062-32.954C164.003,32.302,203.315,64.808,197.446,93.956z"/>
	<path fill="#016242" d="M136.78,29.017c8.413,32.199,13.262,65.58,14.043,98.978c25.18-4.973,43.201-17.055,46.623-34.039
		C202.282,69.939,176.436,43.657,136.78,29.017z"/>
	<path fill="#025036" d="M80.89,17.878c-41.874-1.65-75.5,12.556-80.31,36.428c-2.383,11.846,2.692,24.247,13.21,35.528
		C31.765,61.188,55.271,37.712,80.89,17.878z"/>
	<path fill="#29B67D" d="M191.037,86.525c-4.872,24.178-49.489,35.589-99.653,25.486C41.221,101.907,4.499,74.114,9.373,49.936
		c4.867-24.179,49.482-35.59,99.647-25.487C159.184,34.553,195.906,62.346,191.037,86.525z"/>
	
		<ellipse transform="matrix(0.9803 0.1974 -0.1974 0.9803 14.6396 -18.5592)" fill="#3EB982" cx="100.392" cy="64.136" rx="77.664" ry="37.434"/>
	<path fill="#4BBB87" d="M162.293,74.025c-3.291,16.344-33.451,24.058-67.364,17.228S36.194,65.637,39.49,49.291
		c3.29-16.345,33.451-24.059,67.362-17.229C140.761,38.892,165.589,57.679,162.293,74.025z"/>
	<path fill="#68C292" d="M156.524,70.215c-2.669,13.267-29.518,19.051-59.961,12.922c-30.444-6.131-52.953-21.859-50.28-35.125
		c2.673-13.269,29.517-19.052,59.958-12.922C136.682,41.222,159.197,56.948,156.524,70.215z"/>
	<path fill="#4BBB87" d="M156.524,70.215c-2.669,13.267-29.518,19.051-59.961,12.922c-30.444-6.131-52.953-21.859-50.28-35.125
		c2.673-13.269,29.517-19.052,59.958-12.922C136.682,41.222,159.197,56.948,156.524,70.215z"/>
	<path opacity="0.25" fill="#024E35" d="M48.408,50.513L49.91,98.37c0,0,20.737,9.891,41.474,13.642
		c23.056,4.169,40.137,3.612,40.137,3.612l23.301-43.678L48.408,50.513z"/>
	<path opacity="0.86" fill="#AAE0F8" d="M154.871,71.871c0,0-11.97,18.708-57.33,9.571c-45.361-9.136-49.154-31.018-49.154-31.018
		c6.693-33.242,35.963-55.388,65.361-49.466C143.159,6.881,161.567,38.629,154.871,71.871z"/>
	<path fill="#2D7188" d="M48.408,50.513c0.303,1.468,5.396,22.12,49.134,30.928c43.734,8.809,56.425-8.262,57.28-9.496
		c-0.311-1.468-17.147-21.846-49.648-28.393C72.668,37.006,49.257,49.28,48.408,50.513z"/>
	<path fill="#013445" d="M51.794,57.571c0,0,8.478,16.364,45.748,23.871c37.27,7.506,51.914-4.632,51.914-4.632
		s-12.409-18.699-45.856-25.437C70.145,44.636,51.794,57.571,51.794,57.571z"/>
	<path fill="#071C24" d="M67.9,70.854c0,0,6.235,5.874,29.718,10.604c23.483,4.729,31.789,1.65,31.789,1.65
		s-8.804-6.877-29.879-11.122C78.446,67.74,67.9,70.854,67.9,70.854z"/>
	<g>
		<circle fill="#07251B" cx="71.307" cy="115.282" r="4.867"/>
		<path fill="#024E35" d="M74.903,116.007c-0.532,2.634-3.096,4.343-5.731,3.81c-2.634-0.53-4.339-3.098-3.812-5.73
			c0.533-2.635,3.099-4.342,5.735-3.811C73.73,110.807,75.434,113.374,74.903,116.007z"/>
		<path fill="#FED500" d="M73.481,115.72c-0.371,1.85-2.175,3.048-4.021,2.675c-1.848-0.372-3.047-2.174-2.677-4.021
			c0.372-1.85,2.176-3.047,4.022-2.674C72.657,112.071,73.853,113.872,73.481,115.72z"/>
		<path fill="#FFEF9E" d="M72.659,114.619c-0.219,1.099-1.448,1.778-2.745,1.517c-1.297-0.263-2.167-1.363-1.946-2.463
			c0.221-1.096,1.449-1.773,2.744-1.514C72.009,112.42,72.879,113.52,72.659,114.619z"/>
		<path fill="#FFF9E1" d="M71.716,113.25c-0.054,0.273-0.625,0.391-1.273,0.258c-0.653-0.131-1.129-0.457-1.073-0.73
			c0.052-0.272,0.623-0.391,1.273-0.258C71.29,112.65,71.772,112.977,71.716,113.25z"/>
		
			<ellipse transform="matrix(0.9803 0.1975 -0.1975 0.9803 24.5361 -11.4552)" fill="#C8842A" cx="69.687" cy="117.259" rx="1.785" ry="0.85"/>
	</g>
	<g>
		<path fill="#07251B" d="M108.05,122.682c-0.529,2.637-3.097,4.342-5.729,3.811c-2.638-0.53-4.342-3.096-3.81-5.731
			c0.526-2.634,3.097-4.339,5.729-3.81C106.878,117.484,108.583,120.05,108.05,122.682z"/>
		<circle fill="#024E35" cx="102.107" cy="121.487" r="4.866"/>
		<path fill="#FED500" d="M105.458,122.161c-0.375,1.85-2.18,3.044-4.027,2.674c-1.845-0.373-3.044-2.175-2.671-4.022
			c0.372-1.849,2.173-3.046,4.022-2.675C104.628,118.512,105.827,120.313,105.458,122.161z"/>
		
			<ellipse transform="matrix(0.9803 0.1975 -0.1975 0.9803 25.8288 -17.8259)" fill="#FFEF9E" cx="102.289" cy="120.586" rx="2.396" ry="2.029"/>
		<path fill="#FFF9E1" d="M103.688,119.69c-0.05,0.272-0.623,0.389-1.271,0.258c-0.647-0.131-1.129-0.457-1.071-0.73
			c0.055-0.271,0.623-0.39,1.271-0.258C103.265,119.09,103.743,119.418,103.688,119.69z"/>
		<path fill="#C8842A" d="M103.411,124.05c-0.092,0.46-0.951,0.675-1.918,0.48c-0.971-0.195-1.675-0.726-1.583-1.184
			c0.095-0.46,0.95-0.675,1.921-0.479C102.794,123.061,103.504,123.592,103.411,124.05z"/>
	</g>
	<g>
		<circle fill="#07251B" cx="134.803" cy="123.063" r="4.866"/>
		<circle fill="#024E35" cx="135.582" cy="122.872" r="4.866"/>
		<path fill="#FED500" d="M138.928,123.545c-0.37,1.85-2.173,3.047-4.021,2.674c-1.846-0.371-3.047-2.174-2.673-4.023
			c0.371-1.846,2.175-3.043,4.021-2.672C138.104,119.897,139.302,121.697,138.928,123.545z"/>
		<path fill="#FFEF9E" d="M138.107,122.445c-0.22,1.097-1.452,1.776-2.746,1.515c-1.293-0.262-2.164-1.362-1.946-2.461
			c0.221-1.098,1.453-1.777,2.749-1.513C137.459,120.246,138.33,121.345,138.107,122.445z"/>
		<path fill="#FFF9E1" d="M137.164,121.075c-0.055,0.274-0.625,0.391-1.271,0.258c-0.653-0.13-1.129-0.455-1.073-0.729
			c0.055-0.272,0.622-0.39,1.268-0.258C136.737,120.475,137.22,120.801,137.164,121.075z"/>
		<path fill="#C8842A" d="M136.883,125.438c-0.089,0.457-0.949,0.673-1.918,0.479c-0.966-0.195-1.67-0.727-1.58-1.184
			c0.094-0.459,0.951-0.676,1.918-0.48C136.271,124.447,136.979,124.979,136.883,125.438z"/>
	</g>
	<g>
		<circle fill="#07251B" cx="165.955" cy="116.728" r="4.289"/>
		<path fill="#024E35" d="M170.845,117.405c-0.468,2.321-2.731,3.824-5.05,3.358c-2.323-0.469-3.826-2.729-3.359-5.051
			c0.47-2.325,2.733-3.829,5.05-3.36C169.81,112.819,171.311,115.083,170.845,117.405z"/>
		<circle fill="#FED500" cx="166.641" cy="116.559" r="3.01"/>
		<path fill="#FFEF9E" d="M168.867,116.178c-0.192,0.973-1.278,1.568-2.418,1.338c-1.144-0.23-1.911-1.199-1.714-2.17
			c0.19-0.967,1.274-1.564,2.418-1.334C168.297,114.242,169.062,115.213,168.867,116.178z"/>
		<path fill="#FFF9E1" d="M168.037,114.974c-0.049,0.24-0.553,0.343-1.12,0.229c-0.576-0.116-0.997-0.405-0.95-0.646
			c0.049-0.24,0.549-0.342,1.123-0.225C167.657,114.445,168.087,114.734,168.037,114.974z"/>
		<path fill="#C8842A" d="M167.791,118.818c-0.084,0.404-0.839,0.595-1.688,0.424c-0.854-0.173-1.478-0.64-1.398-1.044
			c0.081-0.404,0.836-0.594,1.692-0.422C167.247,117.948,167.872,118.415,167.791,118.818z"/>
	</g>
	<g>
		<path fill="#07251B" d="M190.445,104.304c-0.348,1.712-2.019,2.821-3.731,2.478c-1.711-0.346-2.821-2.016-2.476-3.728
			c0.346-1.715,2.014-2.823,3.729-2.478C189.676,100.922,190.789,102.59,190.445,104.304z"/>
		<circle fill="#024E35" cx="187.847" cy="103.554" r="3.166"/>
		<path fill="#FED500" d="M190.022,103.993c-0.243,1.202-1.415,1.98-2.616,1.738c-1.198-0.242-1.978-1.411-1.739-2.615
			c0.241-1.203,1.416-1.98,2.618-1.737C189.485,101.62,190.264,102.79,190.022,103.993z"/>
		<path fill="#FFEF9E" d="M189.491,103.276c-0.146,0.717-0.947,1.156-1.789,0.984c-0.843-0.168-1.408-0.883-1.265-1.6
			c0.146-0.713,0.944-1.154,1.788-0.984C189.066,101.845,189.635,102.563,189.491,103.276z"/>
		<path fill="#FFF9E1" d="M188.876,102.387c-0.038,0.177-0.408,0.252-0.829,0.168c-0.422-0.087-0.736-0.299-0.698-0.477
			c0.034-0.177,0.404-0.252,0.829-0.168C188.597,101.995,188.91,102.209,188.876,102.387z"/>
		<path fill="#C8842A" d="M188.695,105.223c-0.063,0.299-0.623,0.436-1.248,0.311c-0.632-0.127-1.091-0.471-1.028-0.77
			c0.059-0.299,0.615-0.439,1.246-0.311C188.29,104.579,188.753,104.924,188.695,105.223z"/>
	</g>
	<g>
		<path fill="#07251B" d="M48.55,105.344c-0.529,2.634-3.098,4.34-5.731,3.809c-2.637-0.531-4.339-3.097-3.811-5.732
			c0.529-2.635,3.097-4.34,5.735-3.808C47.378,100.142,49.085,102.708,48.55,105.344z"/>
		<path fill="#024E35" d="M47.378,105.106c-0.531,2.637-3.096,4.342-5.734,3.811c-2.632-0.53-4.338-3.097-3.808-5.73
			c0.531-2.635,3.097-4.342,5.733-3.811C46.202,99.905,47.909,102.471,47.378,105.106z"/>
		<path fill="#FED500" d="M45.958,104.821c-0.376,1.849-2.176,3.046-4.026,2.672c-1.848-0.369-3.047-2.172-2.675-4.02
			c0.374-1.85,2.174-3.047,4.024-2.675C45.129,101.169,46.328,102.971,45.958,104.821z"/>
		
			<ellipse transform="matrix(0.9803 0.1974 -0.1974 0.9803 21.2262 -6.4157)" fill="#FFEF9E" cx="42.789" cy="103.247" rx="2.394" ry="2.029"/>
		
			<ellipse transform="matrix(0.9803 0.1975 -0.1975 0.9803 21.0135 -6.4838)" fill="#FFF9E1" cx="43.015" cy="102.114" rx="1.197" ry="0.504"/>
		<path fill="#C8842A" d="M43.912,106.713c-0.093,0.458-0.952,0.672-1.917,0.477c-0.973-0.194-1.676-0.725-1.585-1.183
			c0.094-0.46,0.949-0.675,1.917-0.479C43.294,105.721,44.002,106.252,43.912,106.713z"/>
	</g>
	<g>
		<path fill="#013D52" d="M106.8,47.795c-0.266,1.317-1.548,2.171-2.862,1.906c-1.323-0.266-2.176-1.548-1.908-2.866
			c0.267-1.319,1.55-2.171,2.866-1.906C106.214,45.195,107.062,46.478,106.8,47.795z"/>
		<circle fill="#ED2224" cx="104.414" cy="47.315" r="1.709"/>
		<path fill="#F69C9E" d="M105.677,47.102c-0.109,0.549-0.725,0.887-1.371,0.758c-0.648-0.131-1.084-0.681-0.975-1.23
			c0.114-0.548,0.727-0.89,1.374-0.76C105.349,46.001,105.79,46.553,105.677,47.102z"/>
		<path fill="#FFF9E1" d="M105.203,46.417c-0.03,0.137-0.313,0.195-0.636,0.128c-0.324-0.065-0.564-0.23-0.534-0.364
			c0.024-0.137,0.312-0.195,0.635-0.129C104.991,46.117,105.231,46.28,105.203,46.417z"/>
		
			<ellipse transform="matrix(0.9803 0.1976 -0.1976 0.9803 11.6254 -19.6375)" fill="#C82026" cx="104.19" cy="48.421" rx="0.891" ry="0.425"/>
	</g>
	<g>
		<circle fill="#013D52" cx="119.129" cy="51.563" r="2.434"/>
		<path fill="#ED2224" d="M120.804,51.9c-0.187,0.923-1.088,1.522-2.013,1.337c-0.925-0.189-1.522-1.088-1.336-2.012
			c0.185-0.925,1.085-1.522,2.014-1.336C120.388,50.074,120.99,50.975,120.804,51.9z"/>
		<path fill="#F69C9E" d="M120.394,51.349c-0.111,0.548-0.725,0.889-1.372,0.757c-0.649-0.13-1.086-0.68-0.975-1.229
			c0.112-0.549,0.724-0.888,1.375-0.757C120.065,50.249,120.505,50.8,120.394,51.349z"/>
		
			<ellipse transform="matrix(0.9806 0.1961 -0.1961 0.9806 12.2303 -22.4216)" fill="#FFF9E1" cx="119.333" cy="50.546" rx="0.598" ry="0.253"/>
		
			<ellipse transform="matrix(0.9802 0.1981 -0.1981 0.9802 12.7915 -22.5131)" fill="#C82026" cx="118.906" cy="52.669" rx="0.892" ry="0.423"/>
	</g>
	<g>
		<path fill="#013D52" d="M135.785,59.141c-0.265,1.317-1.548,2.17-2.87,1.905c-1.318-0.265-2.166-1.55-1.902-2.867
			c0.262-1.317,1.549-2.171,2.865-1.904C135.197,56.539,136.047,57.823,135.785,59.141z"/>
		<path fill="#ED2224" d="M135.072,58.997c-0.183,0.923-1.09,1.522-2.011,1.336c-0.927-0.187-1.528-1.087-1.341-2.01
			c0.19-0.923,1.091-1.522,2.017-1.335C134.656,57.172,135.26,58.073,135.072,58.997z"/>
		
			<ellipse transform="matrix(0.9803 0.1976 -0.1976 0.9803 14.1315 -25.2257)" fill="#F69C9E" cx="133.489" cy="58.21" rx="1.197" ry="1.013"/>
		<path fill="#FFF9E1" d="M134.188,57.762c-0.029,0.135-0.314,0.194-0.635,0.129c-0.329-0.067-0.566-0.229-0.541-0.367
			c0.03-0.135,0.314-0.193,0.644-0.127C133.974,57.462,134.214,57.625,134.188,57.762z"/>
		<path fill="#C82026" d="M134.052,59.942c-0.046,0.229-0.479,0.336-0.96,0.239c-0.486-0.098-0.837-0.363-0.792-0.59
			c0.047-0.229,0.473-0.34,0.958-0.241C133.743,59.448,134.096,59.713,134.052,59.942z"/>
	</g>
	<g>
		<path fill="#013D52" d="M149.339,69.15c-0.266,1.318-1.554,2.168-2.868,1.905c-1.318-0.266-2.171-1.55-1.905-2.866
			c0.265-1.318,1.55-2.17,2.867-1.904C148.747,66.55,149.601,67.833,149.339,69.15z"/>
		<path fill="#ED2224" d="M148.626,69.006c-0.188,0.924-1.089,1.523-2.011,1.337c-0.925-0.186-1.527-1.087-1.338-2.011
			c0.185-0.923,1.085-1.522,2.01-1.335C148.208,67.181,148.81,68.083,148.626,69.006z"/>
		<path fill="#F69C9E" d="M148.214,68.456c-0.109,0.549-0.725,0.888-1.371,0.758c-0.649-0.132-1.085-0.681-0.975-1.231
			c0.111-0.548,0.725-0.888,1.376-0.757C147.888,67.357,148.326,67.906,148.214,68.456z"/>
		
			<ellipse transform="matrix(0.9804 0.1968 -0.1968 0.9804 16.194 -27.6397)" fill="#FFF9E1" cx="147.154" cy="67.653" rx="0.599" ry="0.254"/>
		<path fill="#C82026" d="M147.602,69.953c-0.043,0.229-0.475,0.336-0.959,0.239c-0.484-0.098-0.836-0.364-0.789-0.593
			s0.474-0.336,0.958-0.239C147.294,69.458,147.649,69.722,147.602,69.953z"/>
	</g>
	<g>
		<path fill="#013D52" d="M91.527,46.002c-0.268,1.318-1.554,2.17-2.869,1.905c-1.32-0.265-2.169-1.548-1.904-2.865
			c0.264-1.317,1.548-2.171,2.867-1.905C90.936,43.402,91.79,44.687,91.527,46.002z"/>
		<path fill="#ED2224" d="M90.814,45.859c-0.189,0.924-1.088,1.523-2.012,1.337c-0.927-0.188-1.526-1.087-1.34-2.011
			c0.186-0.925,1.087-1.523,2.013-1.337C90.398,44.035,91,44.936,90.814,45.859z"/>
		
			<ellipse transform="matrix(0.9803 0.1973 -0.1973 0.9803 10.6461 -16.7183)" fill="#F69C9E" cx="89.229" cy="45.072" rx="1.198" ry="1.014"/>
		<path fill="#FFF9E1" d="M89.93,44.623c-0.029,0.137-0.314,0.195-0.636,0.132c-0.329-0.068-0.565-0.23-0.54-0.369
			c0.03-0.135,0.312-0.192,0.639-0.129C89.715,44.323,89.956,44.489,89.93,44.623z"/>
		<path fill="#C82026" d="M89.791,46.805c-0.045,0.229-0.475,0.337-0.957,0.239c-0.488-0.097-0.838-0.362-0.792-0.591
			c0.043-0.23,0.472-0.339,0.959-0.241C89.482,46.31,89.839,46.576,89.791,46.805z"/>
	</g>
	<g>
		<path fill="#013D52" d="M74.49,46.795c-0.265,1.317-1.546,2.171-2.864,1.906c-1.32-0.267-2.173-1.549-1.905-2.866
			c0.266-1.318,1.547-2.171,2.866-1.906C73.904,44.195,74.756,45.478,74.49,46.795z"/>
		<path fill="#ED2224" d="M73.781,46.653c-0.185,0.924-1.092,1.521-2.013,1.335c-0.925-0.186-1.526-1.087-1.338-2.01
			c0.188-0.925,1.088-1.523,2.012-1.335C73.363,44.828,73.967,45.729,73.781,46.653z"/>
		<path fill="#F69C9E" d="M73.369,46.102c-0.11,0.549-0.726,0.887-1.372,0.758c-0.648-0.132-1.084-0.681-0.974-1.23
			c0.112-0.548,0.729-0.889,1.373-0.757C73.045,45.002,73.479,45.553,73.369,46.102z"/>
		<path fill="#FFF9E1" d="M72.896,45.417c-0.026,0.136-0.316,0.194-0.635,0.128c-0.326-0.065-0.566-0.229-0.54-0.366
			c0.031-0.136,0.312-0.194,0.639-0.128C72.679,45.117,72.921,45.281,72.896,45.417z"/>
		<path fill="#C82026" d="M72.759,47.598c-0.047,0.229-0.477,0.337-0.959,0.239c-0.487-0.098-0.838-0.362-0.791-0.592
			c0.046-0.229,0.472-0.338,0.959-0.239C72.448,47.102,72.804,47.368,72.759,47.598z"/>
	</g>
	<g>
		<circle fill="#013D52" cx="57.362" cy="50.626" r="2.433"/>
		<circle fill="#ED2224" cx="57.36" cy="50.626" r="1.707"/>
		
			<ellipse transform="matrix(0.9803 0.1973 -0.1973 0.9803 11.0284 -10.3486)" fill="#F69C9E" cx="57.451" cy="50.175" rx="1.195" ry="1.015"/>
		<path fill="#FFF9E1" d="M58.148,49.728c-0.026,0.135-0.31,0.194-0.631,0.129c-0.328-0.065-0.566-0.229-0.542-0.365
			c0.027-0.137,0.314-0.194,0.639-0.129C57.937,49.427,58.177,49.591,58.148,49.728z"/>
		<path fill="#C82026" d="M58.011,51.909c-0.045,0.23-0.475,0.337-0.955,0.238c-0.487-0.097-0.837-0.362-0.793-0.592
			c0.047-0.228,0.472-0.335,0.958-0.239C57.704,51.414,58.06,51.679,58.011,51.909z"/>
	</g>
	<g>
		<path fill="#07251B" d="M24.369,88.578c-0.464,2.308-2.714,3.804-5.019,3.336c-2.312-0.464-3.806-2.712-3.341-5.018
			c0.466-2.311,2.712-3.803,5.022-3.339C23.339,84.022,24.834,86.271,24.369,88.578z"/>
		<path fill="#024E35" d="M22.837,88.268c-0.466,2.309-2.715,3.803-5.025,3.338c-2.306-0.463-3.798-2.712-3.337-5.021
			c0.467-2.309,2.716-3.802,5.022-3.336C21.803,83.712,23.301,85.96,22.837,88.268z"/>
		<path fill="#FED500" d="M21.589,88.017c-0.327,1.619-1.904,2.669-3.524,2.344c-1.62-0.328-2.667-1.905-2.344-3.525
			c0.327-1.619,1.909-2.666,3.529-2.34C20.865,84.822,21.918,86.399,21.589,88.017z"/>
		<path fill="#FFEF9E" d="M20.872,87.053c-0.195,0.962-1.273,1.556-2.407,1.327c-1.136-0.227-1.902-1.193-1.705-2.155
			c0.191-0.962,1.269-1.555,2.405-1.326C20.302,85.127,21.065,86.09,20.872,87.053z"/>
		<path fill="#FFF9E1" d="M20.043,85.853c-0.049,0.24-0.549,0.342-1.118,0.227c-0.565-0.114-0.988-0.401-0.937-0.641
			c0.047-0.238,0.545-0.338,1.114-0.225C19.669,85.329,20.09,85.615,20.043,85.853z"/>
		<path fill="#C8842A" d="M19.8,89.676c-0.082,0.4-0.837,0.588-1.678,0.417c-0.851-0.171-1.471-0.634-1.389-1.036
			c0.084-0.404,0.831-0.59,1.682-0.42C19.259,88.808,19.88,89.273,19.8,89.676z"/>
	</g>
	<g>
		<path fill="#07251B" d="M9.963,68.795c-0.464,2.314-2.717,3.812-5.032,3.347c-2.317-0.468-3.812-2.721-3.35-5.038
			c0.47-2.313,2.722-3.812,5.037-3.345C8.932,64.224,10.431,66.479,9.963,68.795z"/>
		<path fill="#024E35" d="M8.935,68.586c-0.466,2.315-2.72,3.814-5.032,3.348c-2.321-0.466-3.816-2.72-3.353-5.036
			c0.466-2.314,2.722-3.812,5.036-3.348C7.905,64.018,9.402,66.273,8.935,68.586z"/>
		<path fill="#FED500" d="M7.687,68.336c-0.329,1.622-1.911,2.675-3.536,2.349c-1.626-0.329-2.676-1.912-2.349-3.537
			c0.327-1.623,1.911-2.672,3.535-2.346C6.961,65.129,8.012,66.711,7.687,68.336z"/>
		<path fill="#FFEF9E" d="M6.964,67.366c-0.193,0.966-1.273,1.562-2.411,1.333c-1.143-0.229-1.904-1.197-1.711-2.164
			c0.196-0.962,1.274-1.559,2.414-1.33C6.396,65.434,7.162,66.401,6.964,67.366z"/>
		<path fill="#FFF9E1" d="M6.135,66.165c-0.051,0.24-0.549,0.342-1.119,0.227c-0.573-0.115-0.994-0.403-0.945-0.642
			c0.052-0.24,0.547-0.343,1.12-0.227C5.762,65.637,6.183,65.926,6.135,66.165z"/>
		<path fill="#C8842A" d="M5.894,69.997c-0.085,0.403-0.84,0.59-1.687,0.42c-0.853-0.171-1.472-0.636-1.393-1.039
			c0.082-0.403,0.831-0.594,1.685-0.421C5.348,69.127,5.973,69.594,5.894,69.997z"/>
	</g>
	<path opacity="0.27" fill="#E4F5FD" d="M65.615,28.666c4.812,2.79-18.407,14.579-26.733,19.668
		c-8.33,5.083-21.949,12.005-24.846,7.26c-2.899-4.75,0.1-17.374,14.348-24.457C42.534,24.101,56.192,23.208,65.615,28.666z"/>
	<path fill="#139F49" d="M86.02,26.438c0,0-0.188-9.834,11.986-9.646c12.162,0.189,18.778,8.61,14.08,19.478
		c-4.693,10.869-13.612,6.742-14.321,12.417c-0.7,5.678,2.248,6.14,10.691,9.699c8.438,3.56,9.011,11.376,9.113,16.897
		c0.105,5.523-3.183,8.831-3.183,8.831s-11.584-1.276-22.125-3.459c-9.454-1.956-17.748-5.937-17.748-5.937
		s-0.603-12.895,3.427-15.754c4.03-2.86,10.207-1.041,11.807-3.403c1.604-2.36,1.772-7.629-0.903-9.221
		C82.896,42.798,86.02,26.438,86.02,26.438z"/>
	<path fill="#54B848" d="M91.008,57.821c0.18-3.897,2.282-5.941-0.72-9.805c0.583,2.193,0.513,5.996-0.54,7.545
		c-1.6,2.362-7.777,0.543-11.807,3.403c-2.435,1.727-3.171,7.104-3.379,11.104C75.578,62.472,78.912,58.384,91.008,57.821z"/>
	<path fill="#54B848" d="M91.366,18.057c-5.434,2.61-5.347,8.381-5.347,8.381s-3.124,16.36,2.825,19.902
		c0.334,0.198,0.625,0.454,0.875,0.753C85.288,41.646,85.288,27.481,91.366,18.057z"/>
	<path fill="#0F8140" d="M117.569,75.283c-0.103-5.521-0.675-13.337-9.113-16.897c-8.443-3.56-11.391-4.021-10.691-9.699
		c0.709-5.676,9.628-1.548,14.321-12.417c2.97-6.865,1.411-12.746-3.192-16.202c3.94,20.425-15.998,21.154-12.687,30.684
		c1.587,10.134,9.667,8.63,12.787,13.732c2.639,4.321,1.077,11.53-1.588,18.514c4.147,0.69,6.981,1.116,6.981,1.116
		S117.675,80.807,117.569,75.283z"/>
	<path fill="#ED2224" d="M86.065,25.694c0,0-0.881-15.806,15.996-17.622c13.446-1.447,18.476,9.818,20.166,13.366
		c3.69,7.733,7.759,5.743,8.991,4.004c1.234-1.736,0.945-2.136,0.945-2.136s0.949,4.389-2.318,6.945
		c-3.107,2.429-5.783,3.068-10.748-0.879c-4.295-3.413-5.511,0.77-5.511,0.77s-9.644-9.418-19.82-9.888
		C86.307,19.91,86.065,25.694,86.065,25.694"/>
	<path fill="#ED2224" d="M132.19,23.453c-0.001-0.102-0.027-0.147-0.027-0.147S132.176,23.379,132.19,23.453z"/>
	<path fill="#B71F25" d="M100.123,21.615c7.497,2.719,13.463,8.526,13.463,8.526s1.216-4.183,5.511-0.77
		c4.965,3.947,7.641,3.308,10.748,0.879c1.842-1.44,2.33-3.443,2.417-4.934C125.674,34.172,111.36,13.715,100.123,21.615z"/>
	<g>
		<g>
			<polygon fill="#FFFFFF" points="134.877,25.715 133.331,24.976 133.645,26.658 132.624,25.288 132.118,26.922 131.847,25.234 
				130.643,26.449 131.187,24.826 129.557,25.341 130.794,24.159 129.111,23.855 130.758,23.383 129.402,22.334 131.081,22.681 
				130.372,21.122 131.694,22.208 131.792,20.499 132.458,22.075 133.342,20.608 133.197,22.314 134.659,21.422 133.738,22.868 
				135.447,22.757 133.964,23.609 135.527,24.307 133.815,24.371 			"/>
			<polygon fill="#DCDBDB" points="135.278,25.077 133.604,24.709 134.297,26.277 132.987,25.173 132.87,26.884 132.222,25.298 
				131.322,26.756 131.485,25.052 130.011,25.925 130.95,24.493 129.24,24.583 130.733,23.747 129.18,23.033 130.889,22.988 
				129.845,21.631 131.381,22.387 131.085,20.703 132.095,22.085 132.617,20.454 132.867,22.147 134.086,20.949 133.522,22.564 
				135.16,22.066 133.911,23.235 135.593,23.557 133.94,24.009 			"/>
			<polygon fill="#FFFFFF" points="134.196,24.831 133.105,24.463 133.455,25.558 132.661,24.729 132.458,25.858 132.144,24.757 
				131.441,25.663 131.669,24.54 130.628,25.015 131.354,24.126 130.209,24.063 131.266,23.616 130.279,23.028 131.423,23.121 
				130.828,22.143 131.795,22.757 131.721,21.614 132.294,22.607 132.757,21.559 132.804,22.706 133.705,21.995 133.208,23.029 
				134.336,22.819 133.415,23.505 134.512,23.841 133.38,24.023 			"/>
			<polygon fill="#DCDBDB" points="134.409,24.371 133.27,24.266 133.854,25.252 132.894,24.625 132.955,25.77 132.396,24.77 
				131.919,25.81 131.887,24.665 130.978,25.367 131.485,24.337 130.354,24.535 131.282,23.859 130.188,23.511 131.32,23.342 
				130.52,22.524 131.599,22.903 131.266,21.807 132.048,22.642 132.266,21.517 132.57,22.622 133.28,21.725 133.037,22.844 
				134.086,22.381 133.351,23.26 134.494,23.338 133.435,23.774 			"/>
			<polygon fill="#FFFFFF" points="132.995,24.562 132.556,24.19 132.515,24.762 132.3,24.23 131.997,24.717 132.056,24.146 
				131.563,24.438 131.875,23.958 131.302,23.985 131.804,23.707 131.282,23.464 131.86,23.452 131.509,22.996 132.023,23.253 
				131.928,22.686 132.263,23.15 132.44,22.606 132.521,23.175 132.932,22.772 132.742,23.315 133.289,23.15 132.87,23.54 
				133.435,23.65 132.879,23.799 133.327,24.16 132.764,24.036 			"/>
			<polygon fill="#F1F0F0" points="133.177,24.387 132.669,24.126 132.758,24.694 132.428,24.225 132.243,24.768 132.167,24.198 
				131.753,24.596 131.951,24.057 131.399,24.214 131.827,23.828 131.265,23.713 131.818,23.569 131.378,23.205 131.935,23.335 
				131.71,22.807 132.146,23.183 132.192,22.612 132.402,23.146 132.713,22.662 132.652,23.233 133.147,22.947 132.827,23.423 
				133.399,23.402 132.894,23.674 133.411,23.922 132.838,23.928 			"/>
		</g>
		<g>
			<polygon fill="#FFFFFF" points="135.126,25.36 133.497,24.834 134.031,26.458 132.836,25.237 132.556,26.925 132.062,25.288 
				131.026,26.653 131.347,24.972 129.802,25.701 130.87,24.362 129.161,24.288 130.728,23.6 129.249,22.74 130.959,22.86 
				130.043,21.41 131.501,22.308 131.37,20.604 132.242,22.077 132.918,20.502 133.005,22.212 134.337,21.135 133.618,22.689 
				135.296,22.352 133.938,23.395 135.579,23.877 133.895,24.168 			"/>
			<polygon fill="#DCDBDB" points="135.438,24.672 133.731,24.533 134.624,25.994 133.177,25.077 133.295,26.786 132.437,25.301 
				131.744,26.866 131.675,25.155 130.333,26.219 131.069,24.673 129.386,24.99 130.758,23.963 129.121,23.464 130.808,23.189 
				129.592,21.985 131.218,22.529 130.695,20.898 131.884,22.133 132.184,20.448 132.658,22.093 133.706,20.74 133.36,22.416 
				134.918,21.707 133.834,23.032 135.544,23.125 133.97,23.795 			"/>
			<polygon fill="#FFFFFF" points="134.33,24.575 133.205,24.358 133.691,25.394 132.798,24.679 132.748,25.826 132.286,24.774 
				131.71,25.766 131.789,24.621 130.822,25.232 131.423,24.257 130.279,24.346 131.265,23.761 130.212,23.31 131.357,23.251 
				130.634,22.359 131.675,22.839 131.45,21.716 132.149,22.625 132.467,21.524 132.665,22.655 133.464,21.829 133.112,22.921 
				134.197,22.562 133.383,23.365 134.514,23.551 133.415,23.882 			"/>
			<polygon fill="#DCDBDB" points="134.482,24.092 133.337,24.138 134.052,25.038 133.016,24.544 133.23,25.669 132.542,24.754 
				132.202,25.851 132.023,24.718 131.216,25.534 131.581,24.446 130.484,24.794 131.313,24.001 130.186,23.802 131.288,23.483 
				130.38,22.779 131.5,23.01 131.026,21.968 131.911,22.692 131.975,21.546 132.425,22.604 133.01,21.619 132.918,22.759 
				133.897,22.163 133.281,23.13 134.425,23.054 133.435,23.629 			"/>
			<polygon fill="#FFFFFF" points="133.105,24.467 132.624,24.157 132.657,24.732 132.371,24.232 132.137,24.756 132.118,24.182 
				131.667,24.537 131.916,24.019 131.352,24.123 131.812,23.779 131.259,23.608 131.832,23.52 131.423,23.114 131.969,23.3 
				131.795,22.753 132.19,23.168 132.294,22.604 132.452,23.157 132.806,22.703 132.689,23.266 133.214,23.028 132.845,23.472 
				133.417,23.505 132.886,23.729 133.38,24.025 132.807,23.976 			"/>
			<polygon fill="#FFFFFF" points="133.264,24.27 132.726,24.08 132.891,24.63 132.498,24.21 132.392,24.773 132.237,24.218 
				131.881,24.667 132.001,24.108 131.477,24.338 131.849,23.896 131.274,23.855 131.809,23.641 131.32,23.339 131.894,23.395 
				131.599,22.899 132.08,23.215 132.053,22.641 132.33,23.144 132.571,22.625 132.586,23.197 133.04,22.847 132.788,23.362 
				133.351,23.265 132.886,23.602 133.432,23.779 132.862,23.861 			"/>
		</g>
	</g>
	<path fill="#FFFFFF" d="M84.353,25.589c0.025,0.866,1.667,0.849,1.667,0.849s0.177-4.434,4.176-5.779
		c3.997-1.347,13.313,1.861,17.085,4.578c3.772,2.716,6.196,6.169,6.196,6.169s0.852,0.251,1.061-0.119
		c0.213-0.37,1.144-2.459,1.554-3.081c0.413-0.621,0.32-2.203,0.081-2.432c-0.237-0.23-7.118-6.867-14.492-9.418
		c-5.251-1.817-9.874-2.187-12.597-0.934c-1.866,0.861-2.82,1.76-2.93,2.398C86.042,18.456,84.329,24.724,84.353,25.589z"/>
	<path fill="#F3F3F3" d="M86.153,17.82c-0.112,0.636-1.825,6.904-1.801,7.769c0.025,0.866,1.667,0.849,1.667,0.849
		s0.101-1.936,1.315-3.64c0.24-2.445,0.67-5.008,1.481-7.236C87.145,16.381,86.256,17.215,86.153,17.82z"/>
	<path fill="#E6E6E5" d="M116.172,25.774c-0.211-0.204-5.666-5.457-12.049-8.418c-0.721,1.785-1.361,3.498-1.854,5.275
		c2.006,0.808,3.797,1.732,5.012,2.606c3.772,2.716,6.196,6.169,6.196,6.169s0.852,0.251,1.061-0.119
		c0.213-0.37,1.144-2.459,1.554-3.081C116.504,27.585,116.411,26.003,116.172,25.774z"/>
	<g>
		<path fill="#FFFFFF" d="M86.708,28.828c0,0,1.779-6.138,8.182-5.167c6.434,0.975,7.168,6.675,7.168,6.675
			s-3.342,5.487-9.749,4.267C89.181,34.006,86.708,28.828,86.708,28.828z"/>
		<path fill="#46C3F1" stroke="#205F76" stroke-width="0.3" stroke-miterlimit="10" d="M96.699,29.182
			c-0.352,2.44-2.046,4.21-3.78,3.962c-1.737-0.248-2.866-2.426-2.52-4.862c0.352-2.437,2.046-4.21,3.784-3.961
			C95.92,24.569,97.047,26.748,96.699,29.182z"/>
		<path fill="#010101" stroke="#205F76" stroke-width="0.3" stroke-miterlimit="10" d="M94.743,28.903
			c-0.132,0.924-0.777,1.596-1.434,1.5c-0.656-0.096-1.082-0.919-0.954-1.842c0.132-0.923,0.777-1.596,1.436-1.5
			C94.449,27.155,94.874,27.981,94.743,28.903z"/>
		<path fill="#0F8140" d="M86.708,28.828C86.626,29.045,86.708,28.828,86.708,28.828s2.473,5.178,5.602,5.774
			c4.022,0.765,6.834-1.11,8.37-2.616C96.086,35.575,90.005,34.801,86.708,28.828z"/>
		<path fill="#0F8140" d="M101.96,29.902c-0.304-1.313-1.668-5.424-7.07-6.241c-4.257-0.646-6.439,1.827-7.449,3.574
			C92.438,22.925,97.843,24.584,101.96,29.902z"/>
		
			<ellipse transform="matrix(0.9899 0.1416 -0.1416 0.9899 4.7251 -13.0214)" opacity="0.74" fill="#FFFFFF" cx="93.844" cy="26.686" rx="2.21" ry="1.248"/>
	</g>
	<path fill="#0F8140" d="M79.292,76.739c0,0-0.137-5.619,0.361-7.839c0.501-2.222,1.947-4.462,1.947-4.462s-1.407,4.167-0.984,8.845
		c0.19,2.07,0.911,4.293,0.911,4.293l-1.969-0.796"/>
	<path fill="#139F49" d="M74.621,69.054c-0.226,3.095-0.107,5.665-0.107,5.665s8.294,3.98,17.748,5.937
		c10.541,2.183,22.125,3.459,22.125,3.459s3.288-3.307,3.183-8.831c0-0.033-0.003-0.067-0.004-0.1
		C102.546,75.972,87.786,75.735,74.621,69.054z"/>
	<path opacity="0.27" fill="#AAE0F8" d="M154.871,71.871c0,0-11.97,18.708-57.33,9.571c-45.361-9.136-49.154-31.018-49.154-31.018
		c6.693-33.242,35.963-55.388,65.361-49.466C143.159,6.881,161.567,38.629,154.871,71.871z"/>
	<path opacity="0.55" fill="#FFFFFF" d="M105.782,6.116c0.857,2.764-4.377,6.842-11.7,9.114c-7.316,2.27-13.949,1.87-14.799-0.893
		c-0.862-2.762,4.379-6.843,11.697-9.114C98.298,2.957,104.927,3.354,105.782,6.116z"/>
	<path opacity="0.55" fill="#FFFFFF" d="M142.019,33.419c0,0,6.214,6.904,8.388,15.987c2.527,10.549,0.454,22.369,0.454,22.369
		s-2.369,2.352-5.769,4.057c-3.398,1.703-5.085,1.27-5.085,1.27s4.988-6.875,5.218-24.065
		C145.355,43.414,142.019,33.419,142.019,33.419z"/>
</g>
<g>
</g>
<g>
</g>
<g>
</g>
<g>
</g>
<g>
</g>
<g>
</g>
</svg>
