<?xml version="1.0" standalone="no"?>
<!DOCTYPE svg PUBLIC "-//W3C//DTD SVG 1.1//EN" "http://www.w3.org/Graphics/SVG/1.1/DTD/svg11.dtd" >
<svg xmlns="http://www.w3.org/2000/svg">
<metadata></metadata>
<defs>
<font id="megalopolis_extraregular" horiz-adv-x="1331" >
<font-face units-per-em="2048" ascent="1579" descent="-469" />
<missing-glyph horiz-adv-x="512" />
<glyph unicode="ff" horiz-adv-x="1771" d="M1579 1448q-85 0 -115 -52.5t-30 -160.5q0 -59 2 -125h364l-41 -305h-315q15 -660 18 -805h-489q14 542 14 745v60h-344q2 -87 6.5 -257.5t7.5 -308t5 -239.5h-490q14 542 14 745v60h-176l8 141l150 162q-2 21 -4 42.5t-3 35.5t-1 33q0 127 45.5 224t128 157t194 90 t248.5 30q193 0 379 -53q140 90 346 90q140 0 246.5 -30.5t167.5 -79.5l-94 -281q-120 82 -242 82zM854 1448q-108 0 -164.5 -56.5t-56.5 -156.5q0 -59 2 -125h334q-8 110 -8 145q0 94 22 177q-75 16 -129 16z" />
<glyph unicode="fi" horiz-adv-x="1601" d="M1462 0h-489q14 319 14 565q0 120 -6 240h-338q2 -87 6.5 -257.5t7.5 -308t5 -239.5h-490q14 542 14 745v60h-176l8 141l150 162q-8 114 -8 147q0 127 45.5 224t128 157.5t194 90.5t248.5 30q161 0 304.5 -34t224.5 -76l-95 -281q-63 26 -174.5 54t-181.5 28 q-108 0 -164.5 -56.5t-56.5 -156.5q0 -59 2 -125h844q-25 -322 -25 -555q0 -213 8 -555z" />
<glyph unicode="fl" horiz-adv-x="1601" d="M1456 0h-489q14 449 14 856q0 222 -12 590q-20 0 -59 1t-56 1q-108 0 -164.5 -56.5t-56.5 -156.5q0 -59 2 -125h231v-305h-223q2 -87 6.5 -257.5t7.5 -308t5 -239.5h-490q14 542 14 745v60h-176l8 141l150 162q-8 114 -8 147q0 127 45.5 224t128 157.5t194 90.5t248.5 30 q131 0 391.5 -18.5t311.5 -18.5q-31 -570 -31 -872q0 -506 8 -848z" />
<glyph unicode="ffi" horiz-adv-x="2402" d="M2263 0h-489q14 319 14 565q0 120 -6 240h-338q15 -660 18 -805h-489q14 542 14 745v60h-344q2 -87 6.5 -257.5t7.5 -308t5 -239.5h-490q14 542 14 745v60h-176l8 141l150 162q-2 21 -4 42.5t-3 35.5t-1 33q0 127 45.5 224t128 157t194 90t248.5 30q209 0 395 -59 q151 96 406 96q161 0 304 -34t224 -76l-94 -281q-63 26 -175 54t-181 28q-108 0 -164.5 -56.5t-56.5 -156.5q0 -59 2 -125h843q-24 -322 -24 -555q0 -213 8 -555zM854 1448q-108 0 -164.5 -56.5t-56.5 -156.5q0 -59 2 -125h334q-8 110 -8 145q0 101 26 175q-88 18 -133 18z " />
<glyph unicode="ffl" horiz-adv-x="2400" d="M1653 1448q-108 0 -164.5 -56.5t-56.5 -156.5q0 -59 2 -125h231v-305h-223q15 -660 18 -805h-489q14 542 14 745v60h-342q2 -87 6.5 -257.5t7.5 -308t5 -239.5h-490q14 542 14 745v60h-176l8 141l150 162q-2 21 -4 42.5t-3 35.5t-1 33q0 127 45.5 224t128 157t194 90 t248.5 30q205 0 393 -57q158 94 406 94q132 0 390 -18.5t304 -18.5h8q-30 -570 -30 -872q0 -506 8 -848h-490q15 449 15 856q0 191 -13 590q-20 0 -58.5 1t-55.5 1zM854 1448q-108 0 -164.5 -56.5t-56.5 -156.5q0 -59 2 -125h332q-9 124 -9 145q0 97 27 177q-78 16 -131 16z " />
<glyph unicode="ffb" horiz-adv-x="3184" d="M1653 1448q-108 0 -164.5 -56.5t-56.5 -156.5q0 -59 2 -125h231v-305h-223q15 -660 18 -805h-489q14 542 14 745v60h-342q2 -87 6.5 -257.5t7.5 -308t5 -239.5h-490q14 542 14 745v60h-176l8 141l150 162q-2 21 -4 42.5t-3 35.5t-1 33q0 127 45.5 224t128 157t194 90 t248.5 30q205 0 393 -57q158 94 406 94q131 0 391 -18.5t311 -18.5q-22 -492 -30 -800q41 102 134 164.5t218 62.5q228 0 366 -161.5t138 -432.5t-140 -430.5t-370 -159.5q-75 0 -138.5 23t-106.5 61t-71 80.5t-43 87.5q0 -16 9.5 -106t9.5 -109h-490q17 449 17 856 q0 191 -13 590q-21 0 -59 1t-55 1zM2421 264q188 0 188 289t-188 289q-73 0 -121 -43t-66 -105t-18 -141q0 -126 49 -207.5t156 -81.5zM854 1448q-108 0 -164.5 -56.5t-56.5 -156.5q0 -59 2 -125h332q-9 124 -9 145q0 97 27 177q-78 16 -131 16z" />
<glyph unicode="fb" horiz-adv-x="2383" d="M1798 1147q228 0 366 -161.5t138 -432.5t-140 -430.5t-370 -159.5q-75 0 -138.5 23t-106 61t-70.5 80.5t-43 87.5q0 -16 9 -106t9 -109h-489q16 449 16 856q0 222 -12 590q-20 0 -58 1t-55 1q-108 0 -164.5 -56.5t-56.5 -156.5q0 -59 2 -125h231v-305h-223 q2 -87 6.5 -257.5t7.5 -308t5 -239.5h-490q14 542 14 745v60h-176l8 141l150 162q-8 114 -8 147q0 127 45.5 224t128 157.5t194 90.5t248.5 30q132 0 391.5 -18.5t309.5 -18.5q-23 -492 -31 -800q41 102 134 164.5t218 62.5zM1620 264q188 0 188 289t-188 289 q-73 0 -121 -43t-66 -105t-18 -141q0 -126 49 -207.5t156 -81.5z" />
<glyph unicode="fff" horiz-adv-x="2570" d="M2378 1448q-85 0 -115.5 -52.5t-30.5 -160.5q0 -59 2 -125h365l-41 -305h-315q15 -660 18 -805h-489q14 542 14 745v60h-344q15 -660 18 -805h-489q14 542 14 745v60h-342q2 -87 6.5 -257.5t7.5 -308t5 -239.5h-490q14 542 14 745v60h-176l8 141l150 162q-2 21 -4 42.5 t-3 35.5t-1 33q0 127 45.5 224t128 157t194 90t248.5 30q221 0 414 -65q150 84 385 84q200 0 397 -60q138 78 328 78q140 0 246.5 -30.5t167.5 -79.5l-95 -281q-120 82 -241 82zM1653 1448q-108 0 -164.5 -56.5t-56.5 -156.5q0 -59 2 -125h333q-8 110 -8 145q0 90 23 177 q-75 16 -129 16zM854 1448q-108 0 -164.5 -56.5t-56.5 -156.5q0 -59 2 -125h332q-9 124 -9 127q0 114 33 193q-92 18 -137 18z" />
<glyph unicode="ffh" horiz-adv-x="3176" d="M1653 1448q-108 0 -164.5 -56.5t-56.5 -156.5q0 -59 2 -125h231v-305h-223q15 -660 18 -805h-489q14 542 14 745v60h-342q2 -87 6.5 -257.5t7.5 -308t5 -239.5h-490q14 542 14 745v60h-176l8 141l150 162q-2 21 -4 42.5t-3 35.5t-1 33q0 127 45.5 224t128 157t194 90 t248.5 30q205 0 393 -57q158 94 406 94q131 0 391 -18.5t311 -18.5q-22 -492 -30 -800q42 104 142.5 165.5t258.5 61.5q188 0 289.5 -106t101.5 -302q0 -411 15 -739h-496q0 59 4 259t4 294q0 142 -37 215.5t-131 73.5q-47 0 -79 -23.5t-48 -67t-22 -90.5t-6 -108 q0 -238 14 -553h-494q17 449 17 856q0 191 -13 590q-21 0 -59 1t-55 1zM854 1448q-108 0 -164.5 -56.5t-56.5 -156.5q0 -59 2 -125h332q-9 124 -9 145q0 97 27 177q-78 16 -131 16z" />
<glyph unicode="fh" horiz-adv-x="2377" d="M1444 553q0 -238 14 -553h-493q16 449 16 856q0 222 -12 590q-21 0 -59.5 1t-55.5 1q-108 0 -164.5 -56.5t-56.5 -156.5q0 -59 2 -125h231v-305h-223q2 -87 6.5 -257.5t7.5 -308t5 -239.5h-490q14 542 14 745v60h-176l8 141l150 162q-8 114 -8 147q0 127 45.5 224 t128 157.5t194 90.5t248.5 30q131 0 391.5 -18.5t311.5 -18.5q-23 -492 -31 -800q42 104 142.5 165.5t258.5 61.5q188 0 290 -106t102 -302q0 -433 14 -739h-496q0 59 4 259t4 294q0 142 -37 215.5t-131 73.5q-47 0 -79 -23.5t-48 -67t-22 -90.5t-6 -108z" />
<glyph unicode="ffj" horiz-adv-x="2396" d="M1655 1448q-108 0 -164.5 -56.5t-56.5 -156.5q0 -59 2 -125h831q-14 -445 -14 -854q0 -139 5 -355.5t10 -363.5l5 -147q-102 5 -231.5 5t-207.5 -3l-79 -2q31 574 31 876q0 456 -2 539h-340q15 -660 18 -805h-489q14 542 14 745v60h-344q2 -87 6.5 -257.5t7.5 -308 t5 -239.5h-490q14 542 14 745v60h-176l8 141l150 162q-2 21 -4 42.5t-3 35.5t-1 33q0 127 45.5 224t128 157t194 90t248.5 30q209 0 395 -59q151 96 406 96q161 0 304 -34t224 -76l-94 -281q-63 26 -175 54t-181 28zM854 1448q-108 0 -164.5 -56.5t-56.5 -156.5 q0 -59 2 -125h334q-8 110 -8 145q0 101 26 175q-88 18 -133 18z" />
<glyph unicode="fj" horiz-adv-x="1595" d="M854 1448q-108 0 -164.5 -56.5t-56.5 -156.5q0 -59 2 -125h831q-14 -445 -14 -854q0 -139 5 -355.5t11 -363.5l5 -147q-102 5 -231.5 5t-208.5 -3l-79 -2q31 574 31 876q0 456 -2 539h-340q2 -87 6.5 -257.5t7.5 -308t5 -239.5h-490q14 542 14 745v60h-176l8 141l150 162 q-8 114 -8 147q0 127 45.5 224t128 157.5t194 90.5t248.5 30q161 0 304.5 -34t224.5 -76l-95 -281q-63 26 -174.5 54t-181.5 28z" />
<glyph unicode="ffk" horiz-adv-x="3115" d="M1653 1448q-108 0 -164.5 -56.5t-56.5 -156.5q0 -59 2 -125h231v-305h-223q15 -660 18 -805h-489q14 542 14 745v60h-342q2 -87 6.5 -257.5t7.5 -308t5 -239.5h-490q14 542 14 745v60h-176l8 141l150 162q-2 21 -4 42.5t-3 35.5t-1 33q0 127 45.5 224t128 157t194 90 t248.5 30q205 0 393 -57q158 94 406 94q132 0 391 -18.5t309 -18.5q-30 -570 -30 -872v-182l75 -7q46 68 134 218.5t155 287.5l467 -51q-11 -11 -30 -29.5t-74.5 -75t-106.5 -111t-114.5 -127.5t-110.5 -134q157 -201 536 -627l-536 -67q-112 92 -395 577q0 -157 8 -520 h-490q15 449 15 856q0 191 -13 590q-20 0 -57.5 1t-54.5 1zM854 1448q-108 0 -164.5 -56.5t-56.5 -156.5q0 -59 2 -125h332q-9 124 -9 145q0 97 27 177q-78 16 -131 16z" />
<glyph unicode="fk" horiz-adv-x="2316" d="M1841 637q150 -192 537 -627l-537 -67q-112 92 -395 577q0 -157 8 -520h-489q14 449 14 856q0 222 -12 590q-20 0 -58 1t-55 1q-108 0 -164.5 -56.5t-56.5 -156.5q0 -59 2 -125h231v-305h-223q2 -87 6.5 -257.5t7.5 -308t5 -239.5h-490q14 542 14 745v60h-176l8 141 l150 162q-8 114 -8 147q0 127 45.5 224t128 157.5t194 90.5t248.5 30q132 0 391.5 -18.5t309.5 -18.5q-31 -570 -31 -872v-182l76 -7q45 66 133 217t155 289l467 -51q-11 -11 -30 -29.5t-74.5 -75t-106.5 -111t-114.5 -127.5t-110.5 -134z" />
<glyph unicode="fft" horiz-adv-x="2670" d="M1579 1448q-85 0 -115 -52.5t-30 -160.5q0 -59 2 -125h350l334 352h147l2 -352h326l-23 -305q-147 0 -311 2q-6 -208 -6 -385q0 -88 20 -123t92 -35q26 0 49.5 4t46.5 13t35.5 14t34.5 17.5t25 13.5l92 -263q-145 -100 -383 -100q-104 0 -190 25.5t-153 77t-104.5 137 t-37.5 198.5q0 268 4 404h-342q15 -660 18 -805h-489q14 542 14 745v60h-344q2 -87 6.5 -257.5t7.5 -308t5 -239.5h-490q14 542 14 745v60h-176l8 141l150 162q-2 21 -4 42.5t-3 35.5t-1 33q0 127 45.5 224t128 157t194 90t248.5 30q193 0 379 -53q140 90 346 90 q140 0 246.5 -30.5t167.5 -79.5l-94 -281q-120 82 -242 82zM854 1448q-108 0 -164.5 -56.5t-56.5 -156.5q0 -59 2 -125h334q-8 110 -8 145q0 94 22 177q-75 16 -129 16z" />
<glyph unicode="ft" horiz-adv-x="1869" d="M778 1448q-85 0 -115 -52.5t-30 -160.5q0 -59 2 -125h350l334 352h147l2 -352h326l-22 -305q-148 0 -312 2q-6 -209 -6 -385q0 -88 20.5 -123t92.5 -35q26 0 49.5 4t46 12.5t35.5 14.5t34.5 17.5t24.5 13.5l92 -263q-145 -100 -383 -100q-104 0 -190 25.5t-153 77 t-104.5 137t-37.5 198.5q0 268 4 404h-342q2 -87 6.5 -257.5t7.5 -308t5 -239.5h-490q14 542 14 745v60h-176l8 141l150 162q-8 114 -8 147q0 127 40 224t113 157t170.5 90.5t216.5 30.5q140 0 246.5 -30.5t167.5 -79.5l-94 -281q-120 82 -242 82z" />
<glyph unicode=" "  horiz-adv-x="512" />
<glyph unicode="&#x09;" horiz-adv-x="512" />
<glyph unicode="&#xa0;" horiz-adv-x="512" />
<glyph unicode="!" horiz-adv-x="684" d="M582 1573q-12 -196 -46.5 -527t-39.5 -456h-308l-96 983h490zM602 223q0 -107 -76.5 -183.5t-183.5 -76.5t-183.5 76.5t-76.5 183.5q0 108 76 184t184 76t184 -76t76 -184z" />
<glyph unicode="&#x22;" horiz-adv-x="948" d="M555 815l-20 610h290l-14 -610h-256zM143 815l-20 610h291l-15 -610h-256z" />
<glyph unicode="#" d="M1090 813l-25 -201h238v-284h-275l-41 -328h-317l43 328h-195l-41 -328h-317l43 328h-176q4 63 4.5 134t-1.5 110l-1 40h211l26 201h-239v285h276l43 327h311l-41 -327h197l43 327h311l-41 -327h177q-4 -63 -4.5 -134t0.5 -111l1 -40h-210zM555 612h195l26 201h-196z" />
<glyph unicode="$" d="M1188 397q0 -168 -118 -277t-310 -143v-174h-285v168q-59 8 -115 22.5t-94 30.5t-67.5 30.5t-43.5 23.5l-14 10l99 285q8 -5 21.5 -12t54.5 -26.5t81.5 -34t95 -26.5t101.5 -12q141 0 141 103q0 39 -32.5 72.5t-84.5 62t-115 59t-126 72t-115 91.5t-84.5 126.5 t-32.5 169.5q0 161 123 278.5t316 153.5v172h284v-172q76 -15 149 -42t107 -47l35 -20l-94 -274q-20 11 -53.5 27t-121 42.5t-155.5 26.5q-139 0 -139 -125q0 -30 32.5 -59.5t85 -57t115.5 -59.5t126 -75t115.5 -95t85 -128.5t32.5 -166.5z" />
<glyph unicode="%" horiz-adv-x="1835" d="M420 1448q165 0 251.5 -112t86.5 -314q0 -198 -89.5 -312t-248.5 -114q-158 0 -248 114.5t-90 311.5q0 199 90 312.5t248 113.5zM422 772q80 0 80 244q0 128 -20 192t-66 64q-78 0 -78 -246q0 -254 84 -254zM1415 831q165 0 251.5 -111.5t86.5 -313.5q0 -198 -89.5 -312 t-248.5 -114q-158 0 -248 114.5t-90 311.5q0 199 90 312t248 113zM1417 156q80 0 80 243q0 128 -20 192t-66 64q-78 0 -78 -245q0 -254 84 -254zM1520 1425l-973 -1425h-232l979 1425h226z" />
<glyph unicode="&#x26;" horiz-adv-x="1701" d="M1300 487q75 -42 402 -208q-88 -99 -119 -150l-113 -168q-199 78 -426 217q-243 -215 -524 -215q-228 0 -343.5 105t-115.5 286q0 77 28.5 144.5t82 121t112.5 93.5t138 80q-62 144 -62 272q0 125 67 217t171 136t227 44q169 0 267 -72.5t98 -213.5q0 -51 -17 -99 t-43.5 -86.5t-68 -78t-80.5 -69t-92 -63.5q74 -78 184 -153q91 147 158 311l256 -82q-70 -184 -187 -369zM752 1104q0 -82 26 -150q87 46 133.5 91t46.5 100q0 42 -21 67t-63 25q-57 0 -89.5 -34t-32.5 -99zM664 270q73 0 157 62q-141 106 -241 223q-70 -73 -70 -152 q0 -71 38 -102t116 -31z" />
<glyph unicode="'" horiz-adv-x="536" d="M143 815l-20 610h291l-15 -610h-256z" />
<glyph unicode="(" horiz-adv-x="929" d="M575 561q0 -122 19 -240t49.5 -209t67.5 -172.5t73.5 -138t67 -98.5t49.5 -62l19 -20l-185 -162q-13 8 -35 22.5t-85.5 66.5t-121.5 112t-128.5 157t-121 202t-85.5 248t-35 294t34 293t87.5 249t119 201.5t131 158.5t119 110.5t87.5 68.5l34 21l185 -162 q-7 -7 -19.5 -20.5t-48.5 -60.5t-68.5 -99.5t-72 -136.5t-68.5 -173t-48.5 -208t-19.5 -242z" />
<glyph unicode=")" horiz-adv-x="929" d="M354 561q0 123 -19 241t-49.5 209t-67 172t-73 138t-67 98.5t-49.5 61.5l-19 20l185 162q13 -8 35 -22.5t85.5 -66.5t121.5 -112t128.5 -157t121 -202t85.5 -248t35 -294t-34 -293t-87.5 -249t-119 -201.5t-131 -158.5t-119 -110.5t-87.5 -68.5l-34 -21l-185 162 q7 7 19.5 20.5t48 60.5t68 100t72.5 137t68.5 173t48 208t19.5 241z" />
<glyph unicode="*" horiz-adv-x="845" d="M795 1085l-238 -63l148 -213l-146 -96l-135 219l-137 -219l-146 96l150 213l-240 63l51 168l242 -79l-8 251h176l-6 -249l237 77z" />
<glyph unicode="+" horiz-adv-x="1271" d="M1190 735q-4 -70 -4 -159.5t2 -143.5l2 -55h-375v-377h-358v377h-375v358h375v375q70 -4 159.5 -4t143.5 2l55 2v-375h375z" />
<glyph unicode="," horiz-adv-x="546" d="M481 446l4 -8q4 -9 11 -28.5t13.5 -44.5t11.5 -64.5t5 -81.5q0 -51 -21.5 -117.5t-51.5 -125t-61 -109.5t-52.5 -81t-22.5 -30l-276 49l88 388l-43 253v0v0v0v0h1v0v0h1v0h1v0h1v0h1v0h1h1v0h1h1h1h1h1h1h1h1h1h1h1h1h1h1h1h1h1h1h1h1h1h1h1h1h1h1h1h1h1h1h1h1h1h1h1h1h1 h1h1h1h1h1h1h1h1h1h1h1h1h1h1h1h1h1h1h1h1h1h1h1h1h1h1h1h1h2h1h1h1h1h1h1h1h1h1h2h1h1h1h1h1h1h2h1h1h1h1h1h2h1h1h1h1h2h1h1h1h2h1h1h1h1h2h1h1h2h1h1h1h2h1h1h2h1h1h2h1h1h2h1h1h2h1h1h2h1h1h2h1h1h2h1h2h1h1h2h1h2h1h1h2h1h2h1h2h1h1h2h1h2h1h2h1h2h1h2h1h2h1h2h1h2h1h2 h1h2h1h2h1h2h1h2h2h1h2h1h2h1h2h1h2h2h1h2h1h2h2h1h2h1h2h2h1h2h2h1h2h1h2h2h1h2h2h1h2h2h1h2h2h1h2h2h1h2h2h2h1h2h2h1h2h2h2h1h2h2h2h1h2h2h2h1h2h2h2h1h2h2h2h2h1h2h2h2h2h1h2h2h2h2h2h1h2h2h2h2h2h1h2h2h2h2h2h2h2h2h1h2h2h2h2h10z" />
<glyph unicode="-" horiz-adv-x="786" d="M86 735h619l-3 -358h-620z" />
<glyph unicode="." horiz-adv-x="624" d="M573 223q0 -108 -76 -184t-184 -76q-109 0 -185.5 75.5t-76.5 184.5q0 107 76.5 183.5t185.5 76.5q107 0 183.5 -76.5t76.5 -183.5z" />
<glyph unicode="/" horiz-adv-x="956" d="M956 1462q-507 -1263 -620 -1536h-336l627 1536h329z" />
<glyph unicode="0" d="M666 1462q290 0 443 -197t153 -552q0 -348 -158 -549t-438 -201q-277 0 -436.5 201.5t-159.5 548.5q0 350 159 549.5t437 199.5zM668 270q78 0 110.5 112.5t32.5 319.5q0 222 -36.5 335.5t-117.5 113.5q-137 0 -137 -432q0 -222 38 -335.5t110 -113.5z" />
<glyph unicode="1" d="M938 307h223v-307h-919l-19 307h248q4 258 4 404q0 31 -4 227h-250l4 199q112 0 211.5 70.5t157.5 217.5h354q-14 -498 -14 -723q0 -91 4 -395z" />
<glyph unicode="2" d="M1137 1010q0 -77 -29 -145t-77 -118t-107 -93.5t-121.5 -79t-117.5 -66.5t-98.5 -64.5t-60.5 -64.5l629 14q-29 -243 -33 -393h-1005l6 176q1 73 30 146t75 134t101.5 120.5t110.5 114t100.5 105.5t74 104t28.5 101q0 65 -50 98.5t-138 33.5q-65 0 -134.5 -25.5 t-106.5 -50.5l-36 -25l-98 305q7 5 19.5 13.5t56 30t91 38t121.5 30t150 13.5q134 0 245.5 -28.5t195.5 -83.5t131 -142t47 -198z" />
<glyph unicode="3" d="M838 743q7 -2 19 -5t47.5 -16t67 -29.5t70.5 -45.5t67.5 -63t47.5 -83.5t19 -105.5q0 -135 -82 -234t-220.5 -148.5t-316.5 -49.5q-76 0 -149 13t-123 32t-89.5 37.5t-57.5 31.5l-19 13l98 289q5 -4 15 -11t40 -24t61 -30t75.5 -24t85.5 -11q86 0 137 40.5t51 106.5 q0 37 -16 65t-46.5 45t-62 27.5t-75 15t-72 6t-66.5 1.5l-22 221q40 0 83 4.5t94 18t90.5 33.5t66 55.5t26.5 80.5q0 70 -46 107t-132 37q-63 0 -134.5 -25.5t-111.5 -50.5l-41 -25l-98 295q8 5 22 13.5t60 30t94 38t120 30t142 13.5q162 0 295 -44t215 -132.5t82 -206.5 q0 -57 -17 -106.5t-44.5 -82.5t-60.5 -60t-66.5 -42.5t-61 -26t-44.5 -14.5z" />
<glyph unicode="4" d="M1274 596q-31 -147 -35 -297h-147q0 -47 1 -147t1 -152h-473q2 129 4 299h-570q4 67 8 219l529 907h520q-25 -498 -25 -723v-110zM629 584v127q0 148 -4 366l-295 -497z" />
<glyph unicode="5" d="M483 860q15 0 40.5 -0.5t99 -8t140.5 -21.5t149 -47t140.5 -78t99 -120t40.5 -169q0 -147 -82 -251t-219 -153t-316 -49q-76 0 -149 13t-123 32t-89.5 37.5t-57.5 31.5l-19 13l99 289q6 -4 16 -11t41.5 -24t63 -30t76 -24t85.5 -11q96 0 147.5 34t51.5 99q0 50 -43.5 88 t-102.5 57.5t-140 32t-135 16t-108 4.5l60 815h852l12 -424l-618 17z" />
<glyph unicode="6" d="M823 909q192 0 310 -110.5t118 -323.5q0 -125 -44.5 -223t-123.5 -161t-185 -95.5t-232 -32.5t-233.5 46.5t-186.5 132.5t-123.5 216.5t-44.5 290.5q0 242 75 423.5t228.5 285.5t370.5 104q79 0 156.5 -13.5t131.5 -33t97 -38.5t65 -33l21 -13l-97 -301q-7 4 -20 11 t-52 25.5t-78.5 32t-94 25t-103.5 11.5q-70 0 -122 -24t-81.5 -60.5t-47.5 -87.5t-23 -97.5t-4 -97.5q123 141 323 141zM668 256q51 0 81 29t40 71.5t10 104.5q0 209 -129 209q-59 0 -97 -58.5t-38 -150.5q0 -205 133 -205z" />
<glyph unicode="7" d="M221 1425h981v-260q-13 -18 -34 -51.5t-75.5 -138.5t-96 -211.5t-75.5 -258.5t-34 -292q0 -113 20 -213h-508q-4 29 -4 92q0 124 33 249t87 230t105 186.5t106.5 160t72.5 108.5h-615z" />
<glyph unicode="8" d="M944 743q6 -1 17.5 -3.5t43.5 -14t61 -27.5t65 -45t61.5 -65t43 -90t17.5 -117q0 -83 -42.5 -158.5t-117 -133t-186 -92t-241.5 -34.5q-129 0 -240.5 34.5t-187 92t-119 133t-43.5 158.5q0 61 16.5 113t42.5 87.5t57.5 64t63.5 45t58 27.5t42 15l17 4q-10 3 -25.5 10 t-56 34.5t-71 61t-56 93t-25.5 127.5q0 176 144 287.5t383 111.5q235 0 379.5 -112t144.5 -287q0 -68 -25.5 -126t-61.5 -92t-72 -58.5t-61 -34.5zM666 256q71 0 104 54t33 136q0 80 -35 137.5t-98 57.5q-67 0 -104.5 -51t-37.5 -139q0 -89 37 -142t101 -53zM666 805 q67 0 102 49t35 133q0 184 -133 184q-40 0 -69 -15t-44 -41.5t-22 -57t-7 -66.5q0 -77 34.5 -131.5t103.5 -54.5z" />
<glyph unicode="9" d="M666 1462q126 0 233 -46t185.5 -132t122.5 -216.5t44 -291.5q0 -180 -43 -328.5t-125.5 -257t-211 -168t-291.5 -59.5q-79 0 -156.5 13.5t-131.5 33t-97 39.5t-65 33l-21 14l96 299q7 -4 20 -11t52 -25t78.5 -32t94 -25t103.5 -11q70 0 122 24t81.5 60.5t47.5 87.5 t23 97.5t4 98.5q-119 -141 -323 -141q-192 0 -310 110t-118 324q0 165 77.5 282t208 172.5t300.5 55.5zM662 758q59 0 97 58.5t38 150.5q0 204 -133 204q-74 0 -103 -54.5t-29 -149.5q0 -209 130 -209z" />
<glyph unicode=":" horiz-adv-x="624" d="M573 223q0 -108 -76 -184t-184 -76q-109 0 -185.5 75.5t-76.5 184.5q0 107 76.5 183.5t185.5 76.5q107 0 183.5 -76.5t76.5 -183.5zM573 887q0 -108 -76 -184t-184 -76q-109 0 -185.5 75.5t-76.5 184.5q0 107 76.5 183.5t185.5 76.5q107 0 183.5 -76.5t76.5 -183.5z" />
<glyph unicode=";" horiz-adv-x="624" d="M573 887q0 -108 -76 -184t-184 -76q-109 0 -185.5 75.5t-76.5 184.5q0 107 76.5 183.5t185.5 76.5q107 0 183.5 -76.5t76.5 -183.5zM502 446l4 -8q4 -9 11 -28.5t13.5 -44.5t11.5 -64.5t5 -81.5q0 -51 -21.5 -117.5t-51.5 -125t-61 -109.5t-52.5 -81t-22.5 -30l-277 49 l89 388l-44 253v0v0v0v0h1v0v0h1v0h1v0h1v0h1v0h1h1v0h1h1h1h1h1h1h1h1h1h1h1h1h1h1h1h1h1h1h1h1h1h1h1h1h1h1h1h1h1h1h1h1h1h1h1h1h1h1h1h1h1h1h1h1h1h1h1h1h1h1h1h1h1h1h1h1h1h1h1h1h1h1h1h1h1h1h1h2h1h1h1h1h1h1h1h1h1h2h1h1h1h1h1h2h1h1h1h1h1h2h1h1h1h1h2h1h1h1h2h1h1 h1h2h1h1h1h2h1h1h1h2h1h1h2h1h1h2h1h1h2h1h1h2h1h1h2h1h1h2h1h2h1h1h2h1h2h1h1h2h1h2h1h1h2h1h2h1h2h1h2h1h1h2h1h2h1h2h1h2h1h2h1h2h1h2h1h2h1h2h2h1h2h1h2h1h2h1h2h2h1h2h1h2h1h2h2h1h2h1h2h2h1h2h1h2h2h1h2h2h1h2h2h1h2h2h1h2h2h1h2h2h1h2h2h1h2h2h2h1h2h2h1h2h2h2h1h2h2 h2h1h2h2h2h1h2h2h2h1h2h2h2h2h1h2h2h2h2h2h1h2h2h2h2h2h1h2h2h2h2h2h2h1h2h2h2h2h2h2h2h2h1h2h10z" />
<glyph unicode="&#x3c;" horiz-adv-x="1155" d="M1073 348q-4 -205 0 -383l-991 412l4 178l-4 180l991 412q-2 -79 -2 -175.5t1 -153.5l1 -56l-563 -207z" />
<glyph unicode="=" horiz-adv-x="1271" d="M82 1026h1108q-4 -70 -4 -159.5t2 -144.5l2 -54h-1108v358zM82 442h1108q-4 -70 -4 -159.5t2 -144.5l2 -54h-1108v358z" />
<glyph unicode="&#x3e;" horiz-adv-x="1155" d="M82 348l563 207l-563 207q4 207 0 385l991 -412l-4 -180l4 -178l-991 -412q2 79 2 175t-1 152z" />
<glyph unicode="?" horiz-adv-x="1097" d="M1057 1169q0 -61 -20.5 -117.5t-54 -101t-74 -84.5t-83 -75.5t-78.5 -67.5t-63 -66.5t-35 -66.5h-307q-7 58 12.5 116.5t53.5 108t69 99t60.5 109t25.5 118.5q0 65 -50 98t-138 33q-41 0 -85 -10.5t-76.5 -25t-59.5 -29.5t-42 -25l-14 -11l-98 316q8 5 22.5 13.5t62 30 t98 38t127.5 30t153 13.5q282 0 438 -113.5t156 -329.5zM782 223q0 -108 -76 -184t-184 -76q-109 0 -185.5 75.5t-76.5 184.5q0 107 76.5 183.5t185.5 76.5q107 0 183.5 -76.5t76.5 -183.5z" />
<glyph unicode="@" horiz-adv-x="1832" d="M934 1305q197 0 360 -46t271 -126t167.5 -188.5t59.5 -233.5q0 -212 -145 -354t-365 -142q-221 0 -248 197q-7 -19 -23.5 -46.5t-47.5 -64t-83 -61.5t-112 -25q-107 0 -174.5 76t-67.5 188q0 71 23 142.5t66 131t111.5 97t150.5 37.5q71 0 117.5 -35.5t60.5 -93.5 q4 24 10.5 51t10.5 42l5 15q144 -8 275 0q-88 -305 -88 -407q0 -42 16 -59t55 -17q93 0 168.5 86t75.5 219q0 134 -83.5 235.5t-229 154t-332.5 52.5q-188 0 -331 -68.5t-223.5 -202t-80.5 -314.5q0 -182 83 -309t224 -187.5t328 -60.5q158 0 306.5 34.5t248.5 98.5 l104 -144q-131 -89 -291 -130.5t-366 -41.5q-256 0 -448 84t-301 252t-109 402q0 117 30 225.5t96.5 207t164 171t241.5 115.5t320 43zM891 406q66 0 109.5 64.5t43.5 147.5q0 39 -26 69t-66 30q-65 0 -106 -65.5t-41 -143.5q0 -102 86 -102z" />
<glyph unicode="A" horiz-adv-x="1409" d="M944 1425l465 -1425q-299 4 -539 -6l-75 295h-379q-26 -182 -33 -289h-342q11 137 54.5 334t98 380.5t107.5 347.5t89 264l36 99h518zM467 551h260l-129 496q-72 -223 -131 -496z" />
<glyph unicode="B" horiz-adv-x="1456" d="M1126 774q127 -35 198 -113t71 -217q0 -120 -56 -207t-162.5 -138.5t-247.5 -75t-325 -23.5h-475q8 401 8 709q0 99 -3.5 278t-7.5 309l-3 129h487q366 0 513 -81t147 -295q0 -131 -144 -275zM860 1001q0 36 -13.5 60.5t-33 37.5t-57.5 19.5t-68.5 8t-85.5 1.5l-4 -331 q113 12 207 12q55 98 55 192zM600 287q49 -9 104.5 -6t102 14t77.5 45.5t31 89.5q0 71 -42 106.5t-112.5 38.5t-162.5 -4q0 -45 1 -136.5t1 -147.5z" />
<glyph unicode="C" horiz-adv-x="1245" d="M1130 410l101 -318q-6 -5 -17.5 -14t-52 -31t-86 -39t-119 -31t-151.5 -14q-163 0 -295 47t-228 138.5t-148 235t-52 329.5q0 181 54.5 324.5t151.5 236t228.5 140.5t288.5 48q95 0 198 -24.5t159 -49.5l55 -24l-109 -348q-7 4 -19 11.5t-49 25.5t-72.5 32t-83.5 25.5 t-89 11.5q-114 0 -179 -90t-65 -307q0 -223 64 -321.5t192 -98.5q72 0 152.5 26.5t125.5 52.5z" />
<glyph unicode="D" horiz-adv-x="1492" d="M621 1425q397 0 593.5 -171.5t196.5 -542.5q0 -364 -193 -537.5t-616 -173.5h-473q8 401 8 709q0 99 -3.5 278t-7.5 309l-3 129h498zM731 313q113 0 157 89t44 294q0 206 -50.5 314t-162.5 108h-121q1 -90 -0.5 -242t-1.5 -174v-389h135z" />
<glyph unicode="E" horiz-adv-x="1226" d="M600 332l586 20q-31 -202 -33 -352h-1024q8 401 8 709q0 99 -3.5 278t-7.5 309l-3 129h989v-305h-506l-8 -332q37 40 98 69.5t138 29.5q88 0 136 -49t48 -117q0 -72 -52 -116t-137 -44q-43 0 -104.5 30t-81.5 30q-45 0 -45 -56q2 -210 2 -233z" />
<glyph unicode="F" horiz-adv-x="1118" d="M606 1090q-8 -191 -10 -308h438l-8 -286h-430q6 -456 6 -496h-475q10 401 10 709q0 99 -3.5 278t-7.5 309l-3 129h932q2 -67 10 -155t15 -142l7 -55z" />
<glyph unicode="G" horiz-adv-x="1458" d="M743 827h623v-616q-25 0 -66.5 -25.5t-93 -62t-113 -73t-145.5 -62t-172 -25.5q-324 0 -509 190.5t-185 559.5q0 181 54.5 324.5t152 236t229 140.5t287.5 48q116 0 234 -24.5t179 -49.5l60 -24l-109 -348q-8 4 -22.5 11.5t-57.5 25.5t-85.5 32t-100 25.5t-106.5 11.5 q-244 0 -244 -405q0 -216 59 -327t170 -111q47 0 91 12.5t65 25.5l20 13v229l-215 6v262z" />
<glyph unicode="H" horiz-adv-x="1536" d="M1413 1425q-24 -498 -24 -723q0 -86 3 -324t3 -378h-473q6 295 8 573h-334q6 -504 6 -573h-473q8 401 8 709q0 99 -3.5 278t-7.5 309l-3 129h498q-17 -343 -23 -589h332l-15 589h498z" />
<glyph unicode="I" horiz-adv-x="743" d="M621 1425q-25 -498 -25 -723q0 -86 3 -324t3 -378h-475q10 401 10 709q0 99 -3.5 278t-7.5 309l-3 129h498z" />
<glyph unicode="J" horiz-adv-x="1032" d="M358 -37q-71 0 -134 8t-102.5 20t-68.5 24t-41 20l-12 8l39 319q111 -53 211 -53q98 0 137 43.5t39 143.5q0 608 -6 929h489q-10 -839 -10 -950q0 -127 -40.5 -225.5t-113 -160.5t-170.5 -94t-217 -32z" />
<glyph unicode="K" horiz-adv-x="1474" d="M596 801h84q289 442 377 637l418 -29q-270 -405 -467 -670q41 -56 160 -223.5t212 -292t156 -192.5l-516 -68q-106 88 -424 633q0 -83 3 -277t3 -319h-473q8 401 8 709q0 99 -3.5 278t-7.5 309l-3 129h498q-19 -378 -25 -624z" />
<glyph unicode="L" horiz-adv-x="1165" d="M608 336l547 16q-29 -202 -33 -352h-999q16 494 16 715q0 138 -2.5 315.5t-4.5 285.5l-3 109h483z" />
<glyph unicode="M" horiz-adv-x="1765" d="M1642 1425q-24 -498 -24 -723q0 -86 2 -324t2 -378h-473q0 -3 1 45t2.5 127t3 172t2.5 199.5t1 189.5q-140 -259 -348 -592q-20 24 -79.5 131.5t-139 251t-131.5 226.5q0 -99 2 -349t2 -401h-336q10 401 10 709q0 99 -4 278t-8 309l-4 129h452q30 -47 157.5 -323 t170.5 -350q204 434 324 673h415z" />
<glyph unicode="N" horiz-adv-x="1472" d="M1323 702q0 -86 3 -324t3 -378h-303q-26 33 -233.5 288.5t-335.5 426.5q0 -90 3 -331t3 -384h-336q8 401 8 711q1 98 -2 276.5t-7 308.5l-3 129h354q513 -671 533 -696l-13 696h353q-25 -498 -27 -723z" />
<glyph unicode="O" horiz-adv-x="1527" d="M764 1462q321 0 501.5 -192t180.5 -557q0 -361 -181.5 -555.5t-500.5 -194.5q-317 0 -499.5 195t-182.5 555q0 364 182 556.5t500 192.5zM551 725q0 -451 215 -451q111 0 160 107.5t49 316.5q0 208 -55 332.5t-166 124.5q-104 0 -153.5 -101t-49.5 -329z" />
<glyph unicode="P" horiz-adv-x="1386" d="M1325 958q0 -87 -27.5 -161.5t-73.5 -127t-108 -94.5t-128 -68t-138.5 -43t-133.5 -23.5t-118 -6.5q4 -304 4 -434h-473q10 401 10 709q0 99 -4 278t-8 309l-4 129h500q89 -2 171 -13t162.5 -33t146 -59t116 -86.5t78.5 -120t28 -155.5zM598 705q40 1 81 11t84.5 33.5 t71 70.5t27.5 112q0 207 -264 196q-2 -61 -2 -138.5t1 -164.5t1 -120z" />
<glyph unicode="Q" horiz-adv-x="1527" d="M1047 10l217 -311l-422 -100q-14 21 -36 57t-73.5 133.5t-81.5 179.5q-267 33 -418 225t-151 519q0 363 182.5 556t499.5 193q321 0 501.5 -192t180.5 -557q0 -272 -104 -452t-295 -251zM756 1155q-105 0 -155 -101t-50 -329q0 -226 56 -338.5t161 -112.5 q111 0 160 107.5t49 316.5q0 208 -55 332.5t-166 124.5z" />
<glyph unicode="R" horiz-adv-x="1435" d="M1354 334q25 0 45.5 2t28.5 4l8 2l-43 -371q-52 -8 -158 -8q-83 0 -157.5 28.5t-130.5 75t-104 111.5t-80.5 132.5t-57.5 142.5l-107 -13q4 -304 4 -440h-473q10 401 10 709q0 99 -4 278t-8 309l-4 129h500q79 -1 147 -7t141.5 -19.5t132 -35t112.5 -56t90 -79 t57.5 -107.5t21.5 -140t-22 -146t-58.5 -119.5t-78 -86t-85.5 -56.5q120 -239 273 -239zM598 715q264 6 264 239q0 54 -18.5 91.5t-47.5 53t-64.5 24.5t-70 6.5t-63.5 -1.5q-2 -61 -2 -136t1 -159.5t1 -117.5z" />
<glyph unicode="S" horiz-adv-x="1148" d="M506 1038q0 -30 32.5 -59.5t85 -57t115.5 -59.5t126 -75t115.5 -95t85 -128.5t32.5 -166.5q0 -137 -81.5 -237t-212.5 -148.5t-294 -48.5q-80 0 -157 13t-129.5 31.5t-93 36.5t-60.5 31l-19 13l99 285q8 -5 21.5 -12t54.5 -26.5t81.5 -34t95 -26.5t101.5 -12 q141 0 141 103q0 39 -32.5 72.5t-84.5 62t-115 59t-126 72t-115 91.5t-84.5 126.5t-32.5 169.5q0 126 78.5 228.5t211 159t290.5 56.5q69 0 139.5 -12.5t121 -30t91.5 -35.5t61 -30l21 -13l-94 -274q-20 11 -53.5 27t-121 42.5t-155.5 26.5q-139 0 -139 -125z" />
<glyph unicode="T" horiz-adv-x="1120" d="M1071 1075h-276q-11 -244 -11 -373q0 -86 3.5 -324t3.5 -378h-474q9 401 9 709q0 135 -7 364h-319q29 202 33 352h1087z" />
<glyph unicode="U" horiz-adv-x="1419" d="M969 1425h348v-860q0 -602 -586 -602q-295 0 -462 159t-167 443v860h494q-14 -590 -14 -872q0 -150 44.5 -214.5t151.5 -64.5q191 0 191 277v874z" />
<glyph unicode="V" horiz-adv-x="1406" d="M1024 1425h342q-10 -137 -53.5 -334t-98 -380.5t-107 -347.5t-88.5 -263l-36 -100h-518l-465 1425q299 -3 539 7l272 -1049q8 24 21 66.5t47 169t61 247t52.5 277t31.5 282.5z" />
<glyph unicode="W" horiz-adv-x="2324" d="M1942 1425h342q-10 -137 -53.5 -334t-98 -380.5t-107 -347.5t-88.5 -263l-36 -100h-519l-229 707q-47 -166 -104.5 -342.5t-90.5 -270.5l-34 -94h-459l-465 1425q299 -3 539 7l272 -1049q14 46 37 124t73.5 289t75.5 386l-79 243q487 0 538 7l273 -1049q8 24 21 66.5 t47 169t61 247t52.5 277t31.5 282.5z" />
<glyph unicode="X" horiz-adv-x="1417" d="M1438 0h-557l-258 467q-36 -74 -109 -247t-96 -220h-398q224 405 408 717l-448 708h550l263 -467q34 72 107 245t97 222h400q-226 -406 -408 -720z" />
<glyph unicode="Y" horiz-adv-x="1388" d="M1430 1425q-304 -550 -494 -864q0 -43 3 -238.5t3 -322.5h-473q6 235 8 543q-93 150 -261.5 436.5t-256.5 445.5h553q6 -12 50 -105.5t74 -155t73 -144t73 -129.5q44 80 135.5 284.5t114.5 249.5h398z" />
<glyph unicode="Z" horiz-adv-x="1243" d="M1192 1425l-2 -151l-522 -948l514 4v-330h-1123l-8 172l520 936l-499 -4l-13 321h1133z" />
<glyph unicode="[" horiz-adv-x="847" d="M549 -160l256 -10q2 -178 0 -270h-682q10 796 14 1032l-14 1032h682v-270l-256 -11l4 -751z" />
<glyph unicode="\" horiz-adv-x="956" d="M0 1462h330l626 -1536h-335z" />
<glyph unicode="]" horiz-adv-x="847" d="M43 -170l256 10l-4 752l4 751l-256 11q-2 178 0 270h682q-10 -796 -14 -1032l14 -1032h-682v270z" />
<glyph unicode="^" horiz-adv-x="1265" d="M449 791q-222 2 -398 0l406 634l176 -2l176 2l405 -634h-399l-182 339z" />
<glyph unicode="_" horiz-adv-x="1511" d="M0 -88h1511q-2 -37 -2 -90t1 -87l1 -34h-1511v211z" />
<glyph unicode="`" horiz-adv-x="710" d="M399 1659l209 -418h-317l-291 393q58 5 158 11.5t170 10.5z" />
<glyph unicode="a" horiz-adv-x="1345" d="M1249 0h-440l-4 221q-19 -43 -35.5 -72t-50 -67.5t-74.5 -62t-106.5 -40t-147.5 -16.5q-149 0 -244.5 76t-95.5 215q0 77 31 138t81.5 98.5t115 66t132 44t132 30.5t115 27t81.5 32t31 47q0 53 -41.5 83t-112.5 30q-55 0 -122 -18t-123.5 -43.5t-105 -51t-75.5 -43.5 l-28 -18l-88 289q9 7 27 19.5t77.5 44t124.5 55.5t167 43.5t206 19.5q272 0 403 -107.5t131 -306.5q0 -99 10 -282.5t20 -316.5zM616 227q49 0 87.5 48.5t60 121.5t29.5 162q-20 -15 -58 -35.5t-68.5 -38t-61 -41.5t-47.5 -56t-17 -71q0 -90 75 -90z" />
<glyph unicode="b" horiz-adv-x="1550" d="M965 1147q228 0 365.5 -161.5t137.5 -432.5t-140 -430.5t-370 -159.5q-75 0 -138.5 23t-106 61t-70.5 80.5t-43 87.5q0 -16 9 -106t9 -109h-489q16 449 16 856q0 140 -5.5 356t-11.5 362l-5 146q103 -5 233 -5t208 3l79 2q-23 -492 -31 -800q41 102 134.5 164.5 t218.5 62.5zM786 264q189 0 189 289t-189 289q-56 0 -96.5 -24t-63.5 -66t-33.5 -91.5t-10.5 -107.5q0 -126 48.5 -207.5t155.5 -81.5z" />
<glyph unicode="c" horiz-adv-x="1148" d="M764 283q54 0 105 15t81.5 31.5t89.5 53.5l99 -295q-5 -3 -40 -21.5t-49 -24.5t-50 -22t-63 -23t-66.5 -16.5t-81.5 -13.5t-89 -4q-138 0 -248 32.5t-194.5 100.5t-130 184t-45.5 273q0 149 44.5 263.5t126.5 186.5t192.5 108t246.5 36q137 0 243.5 -34.5t170.5 -86.5 l-94 -281q-72 43 -125 62.5t-123 19.5q-100 0 -144.5 -69.5t-44.5 -204.5q0 -136 44.5 -203t144.5 -67z" />
<glyph unicode="d" horiz-adv-x="1548" d="M82 553q0 271 138 432.5t366 161.5q125 0 218 -62.5t134 -164.5q-3 137 -10.5 337t-13.5 331l-7 132q291 -12 520 0q-20 -550 -20 -864q0 -297 2 -430q2 -107 11 -213.5t18 -159.5l8 -53h-490q0 19 -3 109t-3 106q-15 -45 -43 -87.5t-70.5 -80.5t-106 -61t-138.5 -23 q-230 0 -370 159.5t-140 430.5zM575 553q0 -289 189 -289q107 0 156 81.5t49 207.5q0 79 -18 141t-66 105t-121 43q-189 0 -189 -289z" />
<glyph unicode="e" horiz-adv-x="1263" d="M1133 352l90 -264q-83 -60 -220 -92.5t-305 -32.5q-109 0 -201 20t-169.5 64.5t-131.5 112t-84 167.5t-30 226q0 149 44.5 263.5t126 186t192 108t245.5 36.5q238 0 368 -99.5t130 -275.5q0 -84 -38.5 -151t-102.5 -107.5t-144 -61.5t-166 -20t-166 23q0 -42 8.5 -76.5 t27.5 -66.5t56.5 -50t90.5 -18q176 0 379 108zM743 885q-86 0 -129.5 -79t-48.5 -200q31 -7 63 -9t70.5 5.5t68 26t49.5 57t20 94.5q0 105 -93 105z" />
<glyph unicode="f" horiz-adv-x="970" d="M778 1448q-85 0 -115 -52.5t-30 -160.5q0 -59 2 -125h364l-41 -305h-315q2 -87 6.5 -257.5t7.5 -308t5 -239.5h-490q14 542 14 745v60h-176l8 141l150 162q-8 114 -8 147q0 127 40 224t113 157t170.5 90.5t216.5 30.5q140 0 246.5 -30.5t167.5 -79.5l-94 -281 q-120 82 -242 82z" />
<glyph unicode="g" horiz-adv-x="1476" d="M1425 858h-172q27 -76 27 -145q0 -189 -158 -301.5t-434 -112.5q-97 0 -188 16q-8 -19 -8 -43q0 -34 22.5 -47.5t75.5 -13.5h465q195 0 298 -104.5t103 -299.5q0 -135 -97.5 -238.5t-275 -159.5t-409.5 -56q-623 0 -623 340q0 145 144 266q-35 56 -35 141q0 142 143 281 q-101 55 -155 139.5t-54 192.5q0 194 161 314t433 120q190 0 338 -66l412 29zM948 -182h-418q-72 0 -147 16q-23 -51 -23 -98q0 -81 80.5 -117.5t249.5 -36.5t267 35t98 107q0 94 -107 94zM547 694q0 -87 35.5 -136.5t109.5 -49.5t106.5 52t32.5 134q0 185 -149 185 q-73 0 -104 -47.5t-31 -137.5z" />
<glyph unicode="h" horiz-adv-x="1542" d="M608 553q0 -215 15 -553h-494q16 449 16 856q0 140 -5.5 356t-11.5 362l-5 146q103 -5 233 -5t208 3l79 2q-23 -492 -31 -800q42 104 143 165.5t259 61.5q188 0 289.5 -106t101.5 -302q0 -433 14 -739h-495q0 59 4 259t4 294q0 142 -37 215.5t-131 73.5 q-47 0 -79.5 -23.5t-48 -67t-22 -90.5t-6.5 -108z" />
<glyph unicode="i" horiz-adv-x="763" d="M623 0h-490q14 319 14 565q0 101 -5 237t-10 222l-5 86q102 -5 230 -5t205 3l77 2q-25 -322 -25 -555q0 -170 9 -555zM643 1497q0 -108 -76 -184t-184 -76t-184 76t-76 184q0 107 76.5 183.5t183.5 76.5t183.5 -76.5t76.5 -183.5z" />
<glyph unicode="j" horiz-adv-x="763" d="M145 1110h490q-14 -445 -14 -854q0 -139 5 -355.5t10 -363.5l5 -147q-102 5 -231.5 5t-207.5 -3l-79 -2q31 574 31 876q0 459 -9 844zM643 1497q0 -108 -76 -184t-184 -76q-109 0 -185.5 75.5t-76.5 184.5q0 107 76.5 183.5t185.5 76.5q107 0 183.5 -76.5t76.5 -183.5z " />
<glyph unicode="k" horiz-adv-x="1480" d="M1006 637q157 -201 536 -627l-536 -67q-64 53 -179 227.5t-217 349.5q0 -157 8 -520h-489q14 449 14 856q0 140 -5 356t-10 362l-5 146q102 -5 231.5 -5t207.5 3l79 2q-31 -570 -31 -872v-182l76 -7q46 68 134 218.5t155 287.5l467 -51q-11 -11 -30 -29.5t-74.5 -75 t-106.5 -111t-114.5 -127.5t-110.5 -134z" />
<glyph unicode="l" horiz-adv-x="763" d="M618 0h-489q14 449 14 856q0 140 -5 356t-10 362l-5 146q102 -5 231.5 -5t207.5 3l79 2q-31 -570 -31 -872q0 -506 8 -848z" />
<glyph unicode="m" horiz-adv-x="2340" d="M2218 0h-498q0 23 5.5 236t5.5 317q0 140 -39.5 214.5t-132.5 74.5q-160 0 -160 -289q0 -247 14 -553h-498q0 23 5.5 236t5.5 317q0 141 -38 215t-132 74q-158 0 -158 -289q0 -193 16 -553h-491q14 449 14 856q0 74 -4 254h477q-4 -136 -4 -190q40 102 137 164.5 t234 62.5q72 0 128 -13.5t92.5 -35.5t64.5 -56t43.5 -67.5t29.5 -77.5q134 250 475 250q191 0 292.5 -108.5t101.5 -299.5q0 -433 14 -739z" />
<glyph unicode="n" horiz-adv-x="1536" d="M1413 0h-498q0 23 5.5 236t5.5 317q0 141 -37.5 215t-130.5 74q-48 0 -80.5 -23.5t-48.5 -67t-22.5 -90.5t-6.5 -108q0 -238 14 -553h-491q14 449 14 856q0 164 -2 254h477q-3 -117 -6 -190q42 104 142.5 165.5t255.5 61.5q196 0 295.5 -109t99.5 -299q0 -281 14 -739z " />
<glyph unicode="o" horiz-adv-x="1507" d="M754 1147q314 0 492.5 -157t178.5 -431q0 -271 -179.5 -433.5t-491.5 -162.5q-310 0 -491 163t-181 433q0 274 180 431t492 157zM561 567q0 -137 48 -217t147 -80q56 0 94 22t58 63t28 87.5t8 106.5q0 82 -17 145.5t-64 108.5t-120 45q-99 0 -140.5 -71t-41.5 -210z" />
<glyph unicode="p" horiz-adv-x="1550" d="M1468 557q0 -273 -137.5 -433.5t-367.5 -160.5q-125 0 -218 62.5t-133 164.5q3 -138 10 -338t13 -331l6 -131q-289 12 -518 0q20 550 20 862q0 182 -3.5 396.5t-7.5 337.5l-3 124h489q-1 -22 -10 -112t-10 -103q15 45 43.5 87.5t71 80.5t106 61t137.5 23q230 0 371 -160 t141 -430zM975 557q0 289 -191 289q-56 0 -96.5 -24t-63.5 -66t-33.5 -91.5t-10.5 -107.5q0 -126 48.5 -207.5t155.5 -81.5q191 0 191 289z" />
<glyph unicode="q" horiz-adv-x="1548" d="M588 -37q-230 0 -368 160.5t-138 433.5q0 270 141 430t371 160q75 0 138.5 -23t106 -61t70.5 -80.5t43 -87.5q0 14 3 104.5t3 110.5h488q-31 -188 -37 -428q-2 -133 -2 -430q0 -139 5 -354.5t10 -361.5l5 -146q-102 5 -231.5 5t-207.5 -3l-79 -2q23 490 29 800 q-40 -102 -132.5 -164.5t-217.5 -62.5zM766 846q-191 0 -191 -289t191 -289q107 0 156 81.5t49 207.5q0 79 -18 141t-66 105t-121 43z" />
<glyph unicode="r" horiz-adv-x="1042" d="M920 1147q72 0 163 -21l-92 -483q-122 64 -227 62q-83 0 -126.5 -51t-43.5 -191q0 -231 18 -463h-489q16 449 16 856q0 74 -4 254h449q-1 -34 0 -154.5t0 -148.5q12 39 26.5 74t44 87t64 88.5t88 63.5t113.5 27z" />
<glyph unicode="s" horiz-adv-x="1124" d="M1032 1024l-86 -256q-24 12 -62.5 29.5t-129.5 47t-148 29.5q-35 0 -53 -19.5t-18 -47.5q0 -25 29.5 -45.5t77 -37.5t105 -36t115 -47.5t105 -66t77 -98t29.5 -136.5q0 -167 -131.5 -272t-345.5 -105q-108 0 -207 20t-163 48.5t-113 56.5t-71 48l-22 20l111 247 q10 -7 27 -17.5t66.5 -38.5t96 -49t106 -38.5t105.5 -17.5q33 0 50.5 16.5t17.5 42.5q0 28 -28 51t-72 41.5t-98 38.5t-108 49t-98 66.5t-72 97.5t-28 135q0 89 40 160t108.5 115.5t156.5 68t187 23.5q77 0 151 -12.5t124.5 -30.5t90.5 -36.5t59 -31.5z" />
<glyph unicode="t" horiz-adv-x="1067" d="M954 326l93 -263q-145 -100 -383 -100q-104 0 -190.5 25.5t-153.5 77t-104.5 137t-37.5 198.5q0 262 4 398l-162 -2l7 149l489 516h148l2 -352h325l-22 -305q-148 0 -312 2q-6 -208 -6 -385q0 -88 20.5 -123t92.5 -35q26 0 49.5 4t46 12.5t35.5 14.5t34.5 17.5t24.5 13.5 z" />
<glyph unicode="u" horiz-adv-x="1488" d="M1364 1110q-14 -449 -14 -856q0 -91 22 -254h-473l-18 190q-88 -227 -377 -227q-180 0 -280.5 114t-100.5 329q0 67 2 240t2.5 267t-2.5 197h481q0 -10 -5 -229t-5 -324q0 -71 6 -120t21.5 -89.5t45.5 -60t76 -19.5q36 0 62 16.5t40.5 42t23.5 65.5t11.5 78t2.5 87 q0 171 -17 553h496z" />
<glyph unicode="v" horiz-adv-x="1327" d="M946 1110h340q-43 -190 -134 -467.5t-160 -460.5l-70 -182h-502l-420 1110h522l228 -731q14 36 36.5 101t75 257t84.5 373z" />
<glyph unicode="w" horiz-adv-x="2033" d="M1851 1188q4 -10 11 -28.5t24.5 -80.5t30.5 -129.5t24 -171t11 -209.5q0 -101 -18 -188t-60 -165t-106 -133t-162 -87.5t-222 -32.5q-290 0 -421 221q-131 -221 -375 -221q-220 0 -342.5 134.5t-122.5 373.5q0 69 2 223t2.5 235.5t-2.5 180.5h481q0 -5 -5 -232.5 t-5 -332.5q0 -142 32.5 -209.5t121.5 -67.5q65 0 101 66.5t36 163.5q0 70 2 216.5t2.5 222t-2.5 173.5h481q0 -10 -5 -229t-5 -324q0 -145 32.5 -217t120.5 -72q44 0 74.5 23.5t45 67t20.5 90.5t6 108q0 115 -33.5 232t-66.5 177l-33 60z" />
<glyph unicode="x" horiz-adv-x="1345" d="M932 557q302 -396 454 -545l-528 -67q-22 22 -311 385q-125 -209 -185 -330h-391q212 326 396 559q-342 439 -408 551h576q18 -30 45.5 -71t48 -70t63 -87.5t62.5 -86.5q122 200 204 368l365 -51q-209 -322 -391 -555z" />
<glyph unicode="y" horiz-adv-x="1241" d="M850 1110h350q0 -250 -53 -482t-148.5 -424.5t-233.5 -351.5t-304.5 -269t-365 -170t-410.5 -60l-105 289q190 0 340.5 31t261.5 95t170.5 168.5t59.5 243.5q0 63 -15.5 120t-41.5 99.5t-60 80t-72 63.5t-75.5 47.5t-71.5 34.5t-60 21.5t-42 11.5l-15 4l102 485 q9 -2 25 -5t65 -17.5t97 -33t112.5 -53t120 -76t112.5 -103.5t97 -134t65 -169t25 -206q25 69 41.5 137t28.5 163.5t11 203t-11 256.5z" />
<glyph unicode="z" horiz-adv-x="1243" d="M1192 1110l-2 -160l-500 -653q345 9 492 -10v-324q-133 25 -413.5 34.5t-494.5 6.5l-215 -4l-8 170l500 641l-479 -4l-13 303h1133z" />
<glyph unicode="{" horiz-adv-x="817" d="M559 -76q0 -81 51 -111t160 -30l6 -291q-134 0 -245.5 20t-201 62.5t-140 115.5t-50.5 171q0 90 45 228t45 216q-1 79 -55 119.5t-154 40.5v182q206 0 209 158q0 79 -45 217t-45 229q0 98 50.5 170.5t140 114.5t201 62t245.5 20l-6 -291q-110 0 -160.5 -29t-50.5 -110 q0 -61 45 -188t45 -197q0 -100 -59 -160.5t-158 -87.5q99 -27 158 -87.5t59 -158.5q0 -70 -45 -197t-45 -188z" />
<glyph unicode="|" horiz-adv-x="542" d="M123 -352v1814h291l6 -1814h-297z" />
<glyph unicode="}" horiz-adv-x="817" d="M258 -76q0 61 -45 188t-45 197q0 98 59 158.5t158 87.5q-99 27 -158 87.5t-59 160.5q0 70 45 197t45 188q0 81 -50.5 110t-160.5 29l-6 291q134 0 245.5 -20t201 -62t140 -114.5t50.5 -170.5q0 -91 -45 -229t-45 -217q3 -158 209 -158v-182q-100 0 -154 -40.5t-55 -119.5 q0 -78 45 -216t45 -228q0 -98 -50.5 -171t-140 -115.5t-201 -62.5t-245.5 -20l6 291q109 0 160 30t51 111z" />
<glyph unicode="~" horiz-adv-x="1411" d="M1360 651q-3 -7 -9.5 -19.5t-29 -48t-47.5 -67.5t-64 -71.5t-80.5 -68t-95.5 -48t-110 -19.5q-66 0 -136.5 27t-119.5 59t-104.5 59t-96.5 27q-45 0 -90.5 -43t-68.5 -86l-23 -43l-234 162q3 7 9 19.5t26.5 47.5t44 67t61.5 71.5t79 67.5t96.5 47.5t113.5 19.5 q63 0 121 -17.5t100.5 -43t81 -51t77.5 -43t75 -17.5q48 0 95.5 43.5t70.5 87.5l24 43z" />
<glyph unicode="&#xa1;" horiz-adv-x="684" d="M102 -463q12 196 46.5 527t39.5 456h308l96 -983h-490zM82 887q0 107 76.5 183.5t183.5 76.5t183.5 -76.5t76.5 -183.5q0 -108 -76 -184t-184 -76t-184 76t-76 184z" />
<glyph unicode="&#xa2;" d="M1200 88q-2 -1 -39 -21t-48.5 -25t-48 -21.5t-61 -23t-63.5 -16.5t-79.5 -14t-84.5 -4l-51 -229l-164 39l45 200q-218 34 -340.5 175t-122.5 405q0 149 45 263.5t127 186.5t192.5 108t246.5 36q65 0 112 -8l52 235l163 -35l-51 -239q75 -26 137 -74l-94 -281 q-77 46 -110 58l-115 -520q47 3 93.5 18.5t76.5 32t84 49.5zM637 553q0 -151 51 -213l109 485q-85 -10 -122.5 -78.5t-37.5 -193.5z" />
<glyph unicode="&#xa3;" d="M758 342l485 8q-33 -203 -37 -350h-1073q6 156 14 334l132 2q0 131 2 199h-148v196h150q0 61 1 137t1 82q0 127 40 225.5t112.5 160.5t170.5 94t217 32q138 0 244 -34t170 -85l-94 -280q-123 80 -240 80q-85 0 -116 -52.5t-31 -160.5v-199h237q-5 -56 -7 -105t-2 -70 l1 -21h-229v-193z" />
<glyph unicode="&#xa4;" horiz-adv-x="1425" d="M1206 713q0 -163 -67 -281l286 -287l-147 -145l-285 285q-119 -72 -276 -72q-162 0 -283 74l-289 -287l-145 145l287 289q-70 124 -70 279q0 160 70 278l-287 287l145 147l287 -286q121 71 285 71q156 0 276 -69l285 284l147 -147l-286 -287q67 -115 67 -278zM713 428 q128 0 198 77t70 206q0 133 -72 209.5t-196 76.5q-115 0 -188.5 -74.5t-73.5 -209.5q0 -137 71 -211t191 -74z" />
<glyph unicode="&#xa5;" d="M1010 733h227q-5 -56 -7 -105t-2 -70l1 -21h-322q0 -68 2 -99h328q-5 -56 -7 -105t-2 -70l1 -21h-318q2 -76 2 -242h-473q2 95 4 242h-350v196h352q3 46 3 99h-355v196h238q-234 391 -402 692h553q2 -5 49 -104t75.5 -157.5t72.5 -142t74 -130.5q44 80 135.5 284.5 t114.5 249.5h397q-211 -384 -391 -692z" />
<glyph unicode="&#xa6;" horiz-adv-x="542" d="M123 -352v778h291l6 -778h-297zM123 684v778h291l6 -778h-297z" />
<glyph unicode="&#xa7;" horiz-adv-x="1114" d="M1012 1339l-86 -256q-18 12 -47 29t-101.5 45.5t-122.5 28.5q-64 0 -92 -19.5t-28 -62.5q0 -21 28.5 -40t74.5 -37.5t101 -39.5t110 -51.5t101 -68.5t74.5 -95.5t28.5 -126.5q0 -123 -75.5 -212t-207.5 -128q59 -25 103.5 -51.5t88.5 -66t67.5 -93t23.5 -117.5 q0 -166 -131 -266t-347 -100q-108 0 -207 20t-163 48t-112.5 56t-70.5 48l-22 20l119 238q7 -6 19 -16t49.5 -35t76 -44.5t92.5 -35.5t103 -16q55 0 77.5 16t22.5 53q0 32 -26.5 57.5t-69 45t-94 40t-103.5 48.5t-94.5 64t-69 92.5t-26.5 127.5q0 129 81 213.5t216 118.5 q-51 22 -84 38t-77.5 46.5t-71 62.5t-45.5 81.5t-19 107.5q0 89 40 158.5t108.5 111.5t155.5 64t187 22q77 0 151 -12.5t125 -31t90.5 -36.5t58.5 -30zM559 342q127 0 127 186q0 85 -32 143t-103 58q-66 0 -94.5 -47t-28.5 -141q0 -92 32.5 -145.5t98.5 -53.5z" />
<glyph unicode="&#xa8;" horiz-adv-x="1040" d="M481 1458q0 -89 -63 -153t-152 -64t-152 64t-63 153t63 152t152 63t152 -63t63 -152zM989 1458q0 -89 -63 -153t-152 -64t-152 64t-63 153t63 152t152 63t152 -63t63 -152z" />
<glyph unicode="&#xa9;" horiz-adv-x="1628" d="M1030 551l53 -170q-3 -3 -9 -7.5t-27.5 -16.5t-46 -21.5t-63.5 -17t-81 -7.5q-178 0 -282.5 103t-104.5 299q0 192 107 296.5t280 104.5q51 0 106 -13t84 -27l29 -13l-57 -187q-10 6 -27 16t-61.5 26t-79.5 16q-61 0 -95 -48t-34 -163q0 -120 34 -172.5t101 -52.5 q39 0 82.5 14t67.5 28zM821 1462q159 0 291 -48t229 -140.5t151 -236t54 -324.5q0 -179 -54 -322t-151 -236t-229.5 -142.5t-290.5 -49.5q-157 0 -291 49.5t-234 142.5t-157 236.5t-57 321.5q0 145 37 267t103.5 210.5t158.5 150t203.5 91.5t236.5 30zM813 152 q256 0 394.5 148t138.5 409q0 266 -139.5 416.5t-391.5 150.5q-113 0 -205.5 -33t-164 -99t-111 -175.5t-39.5 -253.5q0 -258 142.5 -410.5t375.5 -152.5z" />
<glyph unicode="&#xaa;" horiz-adv-x="940" d="M82 891q0 77 47.5 128t115 73t134.5 36t114.5 30t47.5 42q0 34 -26.5 53t-72.5 19q-56 0 -128.5 -28t-117.5 -56l-44 -27l-56 185q6 5 17.5 12.5t49.5 27.5t80 35.5t106.5 28t131.5 12.5q174 0 258 -68.5t84 -195.5q0 -64 6.5 -181t12.5 -203l6 -85h-283l-2 141 q-12 -28 -22.5 -46.5t-32 -43t-47.5 -39.5t-68 -25.5t-94 -10.5q-95 0 -156 48.5t-61 137.5zM555 1085q-11 -8 -60.5 -34t-74.5 -52.5t-25 -66.5q0 -58 47 -58t76 61t37 150zM82 610h776v-186h-776v186z" />
<glyph unicode="&#xab;" horiz-adv-x="1204" d="M645 963l-201 -408l201 -405l-354 -62l-240 467l240 469zM1153 963l-201 -408l201 -405l-354 -62l-240 467l240 469z" />
<glyph unicode="&#xac;" horiz-adv-x="1198" d="M82 903h1014q-3 -49 -3.5 -117.5t0 -131.5t1.5 -197t2 -246h-338v346h-676v346z" />
<glyph unicode="&#xae;" horiz-adv-x="909" d="M461 1462q165 0 265.5 -98.5t100.5 -280.5q0 -180 -100.5 -278t-265.5 -98q-164 0 -271.5 99t-107.5 277q0 180 107.5 279.5t271.5 99.5zM459 819q120 0 186 69.5t66 192.5q0 127 -66.5 199t-185.5 72q-111 0 -178.5 -66t-67.5 -201q0 -129 66.5 -197.5t179.5 -68.5z M653 909l-131 -16q-24 32 -80 137h-14v-123h-121q4 102 4 180l-4 183h127q178 -4 178 -113q0 -66 -65 -104q28 -45 106 -144zM428 1090q66 0 66 61q0 49 -66 43v-104z" />
<glyph unicode="&#xaf;" horiz-adv-x="845" d="M795 1305h-744v245h744v-245z" />
<glyph unicode="&#xb0;" horiz-adv-x="909" d="M461 1462q165 0 265.5 -98.5t100.5 -280.5q0 -180 -100.5 -278t-265.5 -98q-164 0 -271.5 99t-107.5 277q0 180 107.5 279.5t271.5 99.5zM459 913q77 0 120.5 45.5t43.5 122.5q0 82 -43 128t-121 46q-72 0 -115 -41.5t-43 -128.5q0 -83 43 -127.5t115 -44.5z" />
<glyph unicode="&#xb1;" horiz-adv-x="978" d="M82 242h815q-3 -51 -3.5 -111.5t0.5 -95.5l1 -35h-813v242zM895 856q-3 -52 -3 -118t2 -106l1 -40h-274v-254h-263v254h-276v264h276v254q51 -3 117 -3t106 1l40 2v-254h274z" />
<glyph unicode="&#xb2;" horiz-adv-x="733" d="M662 1593q0 -50 -22.5 -94t-57 -74t-76.5 -58t-80 -47.5t-69 -42t-42 -42.5l357 8q-17 -139 -19 -223h-571l4 98q1 57 31.5 114t73.5 102.5t86.5 88.5t73.5 86t30 80t-29 56.5t-78 19.5q-37 0 -76.5 -14.5t-59.5 -28.5l-21 -14l-56 172q4 3 11 7.5t31.5 17t51.5 22t69 17 t85 7.5q158 0 255.5 -66t97.5 -192z" />
<glyph unicode="&#xb3;" horiz-adv-x="722" d="M471 1444q8 -2 21 -5.5t45.5 -19.5t58 -36.5t46 -57t20.5 -80.5q0 -115 -98 -180.5t-253 -65.5q-69 0 -131.5 18.5t-90.5 36.5l-28 19l58 164q8 -6 22 -15.5t55 -25.5t78 -16q50 0 79.5 23t29.5 61q0 90 -193 90l-12 125q29 0 60.5 5t66 16t56.5 34t22 55q0 80 -102 80 q-36 0 -76.5 -13.5t-62.5 -27.5l-23 -14l-58 166q12 8 34 20t87.5 31.5t128.5 19.5q142 0 239 -59t97 -158q0 -44 -18 -80t-44 -55.5t-52 -33t-44 -17.5z" />
<glyph unicode="&#xb4;" horiz-adv-x="710" d="M311 1659q269 -13 400 -25l-291 -393h-318z" />
<glyph unicode="&#xb5;" horiz-adv-x="1495" d="M1370 254q0 -83 23 -254h-473l-19 190q-76 -190 -291 -221q0 -272 8 -579h-489q14 449 14 856q0 140 -5 356t-10 362l-5 146q102 -5 231.5 -5t207.5 3l79 2q-17 -293 -25 -571q2 -135 35 -203t119 -68q44 0 74 23.5t45 67t20.5 90.5t5.5 108q0 193 -16 553h485 q-14 -449 -14 -856z" />
<glyph unicode="&#xb6;" horiz-adv-x="1503" d="M1380 -352h-317v1499h-207l4 -1499h-317v850q-46 -4 -68 -4q-84 0 -157 26.5t-131 78.5t-92 139t-34 198q0 114 33.5 200.5t90 140.5t140 88t174 47t201.5 13h674z" />
<glyph unicode="&#xb7;" horiz-adv-x="624" d="M573 575q0 -108 -76 -184t-184 -76q-109 0 -185.5 75.5t-76.5 184.5q0 107 76.5 184t185.5 77q107 0 183.5 -77t76.5 -184z" />
<glyph unicode="&#xb8;" horiz-adv-x="692" d="M51 -508l35 139q90 -32 166 -32q117 0 117 73q0 34 -22.5 54t-59.5 20q-21 0 -42.5 -3.5t-32.5 -6.5l-11 -4l-58 28l129 336l142 -33l-35 -184q118 -6 190 -58t72 -151q0 -56 -32.5 -100.5t-85.5 -70t-114.5 -39t-125.5 -13.5q-59 0 -117 11.5t-86 22.5z" />
<glyph unicode="&#xb9;" horiz-adv-x="636" d="M469 1194h127v-174h-522l-11 174h142q0 36 1 113t1 116q0 17 -1 57t-1 70h-144l5 113q63 0 119 41t89 125h201q-8 -283 -8 -410q0 -31 1 -105t1 -120z" />
<glyph unicode="&#xba;" horiz-adv-x="1026" d="M512 705q-198 0 -314 104t-116 276q0 175 115.5 276t314.5 101q201 0 315.5 -101t114.5 -276q0 -172 -115.5 -276t-314.5 -104zM506 1272q-63 0 -90 -45.5t-27 -134.5q0 -88 31 -139.5t94 -51.5q121 0 121 178q0 82 -30.5 137.5t-98.5 55.5zM82 610h862v-186h-862v186z " />
<glyph unicode="&#xbb;" horiz-adv-x="1204" d="M760 555l-201 408l354 61l240 -469l-240 -467l-354 62zM252 555l-201 408l355 61l239 -469l-239 -467l-355 62z" />
<glyph unicode="&#xbc;" horiz-adv-x="1638" d="M1450 336l106 4q-18 -84 -20 -170h-84q0 -27 1 -83.5t1 -86.5h-270q2 74 4 170h-324q2 39 4 125l301 514h295q-14 -283 -14 -410v-63zM1190 332v71q0 19 -1 97.5t-1 111.5l-168 -282zM1432 1425l-973 -1425h-232l979 1425h226zM469 791h127v-175h-522l-11 175h142 q0 37 1 113t1 116q0 18 -1 58t-1 69h-144l5 113q63 0 119 40.5t89 124.5h201q-8 -282 -8 -409q0 -30 1 -105t1 -120z" />
<glyph unicode="&#xbd;" horiz-adv-x="1755" d="M1663 571q0 -60 -31 -109.5t-78 -83t-94.5 -60.5t-89 -53.5t-53.5 -49.5l356 8q-16 -139 -18 -223h-572l4 98q1 57 31.5 113.5t73.5 102t86.5 88t73.5 85.5t30 80t-28.5 56.5t-77.5 19.5q-37 0 -76.5 -14.5t-60.5 -28.5l-21 -14l-55 172q4 3 11 7.5t31.5 17t51.5 22 t69 17t85 7.5q158 0 255 -66t97 -192zM1432 1425l-973 -1425h-232l979 1425h226zM469 791h127v-175h-522l-11 175h142q0 37 1 113t1 116q0 18 -1 58t-1 69h-144l5 113q63 0 119 40.5t89 124.5h201q-8 -282 -8 -409q0 -30 1 -105t1 -120z" />
<glyph unicode="&#xbe;" horiz-adv-x="1628" d="M1481 336l106 4q-18 -84 -20 -170h-84q0 -27 1 -83.5t1 -86.5h-271q3 74 5 170h-324q2 39 4 125l301 514h295q-14 -283 -14 -410v-63zM1221 332v71q0 19 -1 97.5t-1 111.5l-168 -282zM471 1040q8 -2 21 -5.5t45.5 -19.5t58 -36t46 -56.5t20.5 -80.5q0 -116 -98 -181 t-253 -65q-69 0 -131.5 18.5t-90.5 37.5l-28 18l58 164q8 -6 22 -16t55 -26t78 -16q50 0 79.5 23t29.5 61q0 90 -193 90l-12 125q29 0 60.5 5t66 16.5t56.5 34.5t22 55q0 80 -102 80q-36 0 -76.5 -14t-62.5 -28l-23 -14l-58 166q12 8 34 20t87.5 32t128.5 20q142 0 239 -59 t97 -158q0 -44 -18 -80t-44 -56t-52 -33t-44 -18zM1460 1425l-973 -1425h-231l979 1425h225z" />
<glyph unicode="&#xbf;" horiz-adv-x="1097" d="M41 -59q0 61 20.5 117.5t54 101t74 84.5t83 75.5t78.5 67.5t63 66.5t35 66.5h307q7 -58 -12.5 -116.5t-53.5 -108t-69 -99t-60.5 -109t-25.5 -118.5q0 -65 50 -98t138 -33q41 0 84.5 10.5t76.5 25t60 29.5t41 25l14 11l99 -316q-8 -5 -22.5 -13.5t-62 -30t-98 -38 t-127.5 -30t-153 -13.5q-282 0 -438 113.5t-156 329.5zM315 887q0 108 76 184t184 76q109 0 186 -76t77 -184q0 -107 -77 -183.5t-186 -76.5q-107 0 -183.5 76.5t-76.5 183.5z" />
<glyph unicode="&#xc0;" horiz-adv-x="1409" d="M944 1425l465 -1425q-299 4 -539 -6l-75 295h-379q-26 -182 -33 -289h-342q11 137 54.5 334t98 380.5t107.5 347.5t89 264l36 99h518zM467 551h260l-129 496q-72 -223 -131 -496zM698 1974l209 -418h-317l-291 394q58 5 158 11t171 9z" />
<glyph unicode="&#xc1;" horiz-adv-x="1409" d="M944 1425l465 -1425q-299 4 -539 -6l-75 295h-379q-26 -182 -33 -289h-342q11 137 54.5 334t98 380.5t107.5 347.5t89 264l36 99h518zM467 551h260l-129 496q-72 -223 -131 -496zM662 1974q268 -12 399 -24l-291 -394h-317z" />
<glyph unicode="&#xc2;" horiz-adv-x="1409" d="M944 1425l465 -1425q-299 4 -539 -6l-75 295h-379q-26 -182 -33 -289h-342q11 137 54.5 334t98 380.5t107.5 347.5t89 264l36 99h518zM467 551h260l-129 496q-72 -223 -131 -496zM559 1556q-194 5 -323 17l290 393h318l289 -393l-322 -17l-127 203z" />
<glyph unicode="&#xc3;" horiz-adv-x="1409" d="M944 1425l465 -1425q-299 4 -539 -6l-75 295h-379q-26 -182 -33 -289h-342q11 137 54.5 334t98 380.5t107.5 347.5t89 264l36 99h518zM467 551h260l-129 496q-72 -223 -131 -496zM954 1919l250 -31q-1 -7 -3 -19t-12.5 -46.5t-24.5 -66t-41.5 -69.5t-61 -65.5t-85 -46.5 t-112.5 -19q-55 0 -121 27t-126.5 53.5t-102.5 26.5q-37 0 -61 -26.5t-29 -53.5l-6 -27l-248 31h-2q1 7 3.5 19t13 46.5t25.5 66t42.5 69.5t61 65.5t84.5 46.5t110 19q43 0 94.5 -16.5t90.5 -37t85 -37t80 -16.5q38 0 62 27t29 53z" />
<glyph unicode="&#xc4;" horiz-adv-x="1409" d="M944 1425l465 -1425q-299 4 -539 -6l-75 295h-379q-26 -182 -33 -289h-342q11 137 54.5 334t98 380.5t107.5 347.5t89 264l36 99h518zM467 551h260l-129 496q-72 -223 -131 -496zM651 1774q0 -90 -63 -154t-152 -64t-152 64t-63 154q0 89 63 152t152 63t152 -63t63 -152z M1159 1774q0 -90 -63 -154t-152 -64t-152 64t-63 154q0 89 63 152t152 63t152 -63t63 -152z" />
<glyph unicode="&#xc5;" horiz-adv-x="1409" d="M684 1831q133 0 216 -79t83 -210q0 -70 -31 -141l457 -1401q-299 4 -539 -6l-75 295h-379q-26 -182 -33 -289h-342q12 153 63 375t120.5 445.5t112.5 352t79 228.5q-31 60 -31 141q0 131 83 210t216 79zM467 551h260l-129 496q-72 -223 -131 -496zM684 1425q53 0 85 31.5 t32 85.5q0 53 -32.5 86t-84.5 33t-84.5 -33t-32.5 -86q0 -54 32 -85.5t85 -31.5z" />
<glyph unicode="&#xc6;" horiz-adv-x="1859" d="M1819 352q-31 -202 -33 -352h-918l-75 289h-377q-28 -171 -33 -289h-342q10 137 53.5 334t98 380.5t107 347.5t88.5 264l36 99h1321v-305h-703l119 -366q47 54 72 73q77 60 190 60q88 0 136.5 -48.5t48.5 -115.5q0 -73 -51.5 -117.5t-135.5 -44.5q-44 0 -103.5 31 t-78.5 31q-22 0 -22 -25q0 -5 26 -96q4 -15 9.5 -31t18 -52.5t27.5 -84.5zM465 551h260l-129 496q-70 -223 -131 -496z" />
<glyph unicode="&#xc7;" horiz-adv-x="1245" d="M524 -508l35 139q90 -32 166 -32q117 0 117 73q0 34 -22.5 54t-59.5 20q-21 0 -42.5 -3.5t-32.5 -6.5l-11 -4l-58 28l80 209q-288 29 -451 218t-163 526q0 181 54.5 324.5t151.5 236t228.5 140.5t288.5 48q95 0 198 -24.5t159 -49.5l55 -24l-109 -348q-7 4 -19 11.5 t-49 25.5t-72.5 32t-83.5 25.5t-89 11.5q-114 0 -179 -90t-65 -307q0 -223 64 -321.5t192 -98.5q72 0 152.5 26.5t125.5 52.5l45 26l101 -318q-5 -4 -15 -11.5t-44.5 -27.5t-73.5 -36t-101.5 -31.5t-128.5 -20.5l-16 -86q118 -6 190 -58t72 -151q0 -56 -32.5 -100.5 t-85.5 -70t-114.5 -39t-125.5 -13.5q-59 0 -117 11.5t-87 22.5z" />
<glyph unicode="&#xc8;" horiz-adv-x="1226" d="M600 332l586 20q-31 -202 -33 -352h-1024q8 401 8 709q0 99 -3.5 278t-7.5 309l-3 129h989v-305h-506l-8 -332q37 40 98 69.5t138 29.5q88 0 136 -49t48 -117q0 -72 -52 -116t-137 -44q-43 0 -104.5 30t-81.5 30q-45 0 -45 -56q2 -210 2 -233zM610 1974l209 -418h-317 l-291 394q58 5 158 11t171 9z" />
<glyph unicode="&#xc9;" horiz-adv-x="1226" d="M600 332l586 20q-31 -202 -33 -352h-1024q8 401 8 709q0 99 -3.5 278t-7.5 309l-3 129h989v-305h-506l-8 -332q37 40 98 69.5t138 29.5q88 0 136 -49t48 -117q0 -72 -52 -116t-137 -44q-43 0 -104.5 30t-81.5 30q-45 0 -45 -56q2 -210 2 -233zM662 1974q268 -12 399 -24 l-291 -394h-317z" />
<glyph unicode="&#xca;" horiz-adv-x="1226" d="M600 332l586 20q-31 -202 -33 -352h-1024q8 401 8 709q0 99 -3.5 278t-7.5 309l-3 129h989v-305h-506l-8 -332q37 40 98 69.5t138 29.5q88 0 136 -49t48 -117q0 -72 -52 -116t-137 -44q-43 0 -104.5 30t-81.5 30q-45 0 -45 -56q2 -210 2 -233zM487 1556q-194 5 -323 17 l291 393h317l289 -393l-322 -17l-127 203z" />
<glyph unicode="&#xcb;" horiz-adv-x="1226" d="M600 332l586 20q-31 -202 -33 -352h-1024q8 401 8 709q0 99 -3.5 278t-7.5 309l-3 129h989v-305h-506l-8 -332q37 40 98 69.5t138 29.5q88 0 136 -49t48 -117q0 -72 -52 -116t-137 -44q-43 0 -104.5 30t-81.5 30q-45 0 -45 -56q2 -210 2 -233zM573 1774q0 -90 -63 -154 t-152 -64t-152 64t-63 154q0 89 63 152t152 63t152 -63t63 -152zM1081 1774q0 -90 -63 -154t-152 -64t-152 64t-63 154q0 89 63 152t152 63t152 -63t63 -152z" />
<glyph unicode="&#xcc;" horiz-adv-x="743" d="M621 1425q-25 -498 -25 -723q0 -86 3 -324t3 -378h-475q10 401 10 709q0 99 -3.5 278t-7.5 309l-3 129h498zM406 1974l208 -418h-317l-291 394q58 5 158 11t171 9z" />
<glyph unicode="&#xcd;" horiz-adv-x="743" d="M621 1425q-25 -498 -25 -723q0 -86 3 -324t3 -378h-475q10 401 10 709q0 99 -3.5 278t-7.5 309l-3 129h498zM332 1974q268 -12 399 -24l-291 -394h-317z" />
<glyph unicode="&#xce;" horiz-adv-x="743" d="M621 1425q-25 -498 -25 -723q0 -86 3 -324t3 -378h-475q10 401 10 709q0 99 -3.5 278t-7.5 309l-3 129h498zM248 1556q-195 5 -324 17l291 393h317l289 -393l-321 -17l-127 203z" />
<glyph unicode="&#xcf;" horiz-adv-x="743" d="M621 1425q-25 -498 -25 -723q0 -86 3 -324t3 -378h-475q10 401 10 709q0 99 -3.5 278t-7.5 309l-3 129h498zM334 1774q0 -90 -63 -154t-152 -64t-152 64t-63 154q0 89 63 152t152 63t152 -63t63 -152zM842 1774q0 -90 -63 -154t-152 -64t-152 64t-63 154q0 89 63 152 t152 63t152 -63t63 -152z" />
<glyph unicode="&#xd0;" horiz-adv-x="1492" d="M621 1425q397 0 593.5 -171.5t196.5 -542.5q0 -364 -193 -537.5t-616 -173.5h-473q6 304 8 588h-137v243h135l-12 594h498zM764 588h-168v-275h135q113 0 157 89t44 294q0 206 -50.5 314t-162.5 108h-121q0 -201 -2 -287h168v-243z" />
<glyph unicode="&#xd1;" horiz-adv-x="1464" d="M1298 702q0 -86 3.5 -324t3.5 -378h-304q-26 33 -233.5 288.5t-335.5 426.5q0 -90 3 -331t3 -384h-336q9 401 9 711q1 98 -2.5 276.5t-6.5 308.5l-4 129h355q512 -671 532 -696l-12 696h352q-25 -498 -27 -723zM999 1919l250 -31q-1 -7 -3 -19t-12.5 -46.5t-24.5 -66 t-41.5 -69.5t-61 -65.5t-85 -46.5t-112.5 -19q-55 0 -121 27t-126.5 53.5t-102.5 26.5q-37 0 -61 -26.5t-30 -53.5l-5 -27l-248 31h-2q1 7 3.5 19t13 46.5t25.5 66t42.5 69.5t61 65.5t84.5 46.5t110 19q43 0 94.5 -16.5t90.5 -37t85 -37t80 -16.5q38 0 62 27t29 53z" />
<glyph unicode="&#xd2;" horiz-adv-x="1527" d="M764 1462q321 0 501.5 -192t180.5 -557q0 -361 -181.5 -555.5t-500.5 -194.5q-317 0 -499.5 195t-182.5 555q0 364 182 556.5t500 192.5zM551 725q0 -451 215 -451q111 0 160 107.5t49 316.5q0 208 -55 332.5t-166 124.5q-104 0 -153.5 -101t-49.5 -329zM727 1974 l209 -418h-318l-290 394q58 5 158 11t170 9z" />
<glyph unicode="&#xd3;" horiz-adv-x="1527" d="M764 1462q321 0 501.5 -192t180.5 -557q0 -361 -181.5 -555.5t-500.5 -194.5q-317 0 -499.5 195t-182.5 555q0 364 182 556.5t500 192.5zM551 725q0 -451 215 -451q111 0 160 107.5t49 316.5q0 208 -55 332.5t-166 124.5q-104 0 -153.5 -101t-49.5 -329zM778 1974 q269 -12 400 -24l-291 -394h-318z" />
<glyph unicode="&#xd4;" horiz-adv-x="1527" d="M764 1462q321 0 501.5 -192t180.5 -557q0 -361 -181.5 -555.5t-500.5 -194.5q-317 0 -499.5 195t-182.5 555q0 364 182 556.5t500 192.5zM551 725q0 -451 215 -451q111 0 160 107.5t49 316.5q0 208 -55 332.5t-166 124.5q-104 0 -153.5 -101t-49.5 -329zM639 1556 q-195 5 -324 17l291 393h318l288 -393l-321 -17l-127 203z" />
<glyph unicode="&#xd5;" horiz-adv-x="1527" d="M764 1462q321 0 501.5 -192t180.5 -557q0 -361 -181.5 -555.5t-500.5 -194.5q-317 0 -499.5 195t-182.5 555q0 364 182 556.5t500 192.5zM551 725q0 -451 215 -451q111 0 160 107.5t49 316.5q0 208 -55 332.5t-166 124.5q-104 0 -153.5 -101t-49.5 -329zM1032 1919 l250 -31q-1 -7 -3 -19t-12.5 -46.5t-24.5 -66t-41.5 -69.5t-61 -65.5t-85 -46.5t-112.5 -19q-55 0 -121 27t-126.5 53.5t-102.5 26.5q-37 0 -61 -26.5t-29 -53.5l-6 -27l-248 31h-2q1 7 3.5 19t13 46.5t25.5 66t42.5 69.5t61 65.5t84.5 46.5t110 19q43 0 94.5 -16.5 t90.5 -37t85 -37t80 -16.5q38 0 62 27t29 53z" />
<glyph unicode="&#xd6;" horiz-adv-x="1527" d="M764 1462q321 0 501.5 -192t180.5 -557q0 -361 -181.5 -555.5t-500.5 -194.5q-317 0 -499.5 195t-182.5 555q0 364 182 556.5t500 192.5zM551 725q0 -451 215 -451q111 0 160 107.5t49 316.5q0 208 -55 332.5t-166 124.5q-104 0 -153.5 -101t-49.5 -329zM725 1774 q0 -90 -63 -154t-152 -64t-152 64t-63 154q0 89 63 152t152 63t152 -63t63 -152zM1233 1774q0 -90 -63 -154t-152 -64t-152 64t-63 154q0 89 63 152t152 63t152 -63t63 -152z" />
<glyph unicode="&#xd7;" horiz-adv-x="1257" d="M920 1102q47 -53 110.5 -116.5t103.5 -100.5l40 -37l-291 -291l293 -293l-254 -254l-293 293l-293 -293l-254 254l293 293l-291 291q52 46 115.5 109.5t100.5 104.5l38 40l291 -293z" />
<glyph unicode="&#xd8;" horiz-adv-x="1527" d="M764 1462q141 0 268 -43l103 201l149 -76l-104 -201q266 -189 266 -630q0 -361 -181.5 -555.5t-500.5 -194.5q-151 0 -270 43l-113 -221l-150 78l115 223q-128 92 -196 250.5t-68 376.5q0 364 182 556.5t500 192.5zM551 725q0 -118 16 -209l303 588q-51 51 -116 51 q-104 0 -153.5 -101t-49.5 -329zM975 698q0 112 -19 209l-303 -590q46 -43 113 -43q111 0 160 107.5t49 316.5z" />
<glyph unicode="&#xd9;" horiz-adv-x="1419" d="M969 1425h348v-860q0 -602 -586 -602q-295 0 -462 159t-167 443v860h494q-14 -590 -14 -872q0 -150 44.5 -214.5t151.5 -64.5q191 0 191 277v874zM754 1974l209 -418h-318l-291 394q58 5 158 11t171 9z" />
<glyph unicode="&#xda;" horiz-adv-x="1419" d="M969 1425h348v-860q0 -602 -586 -602q-295 0 -462 159t-167 443v860h494q-14 -590 -14 -872q0 -150 44.5 -214.5t151.5 -64.5q191 0 191 277v874zM725 1974q268 -12 399 -24l-290 -394h-318z" />
<glyph unicode="&#xdb;" horiz-adv-x="1419" d="M969 1425h348v-860q0 -602 -586 -602q-295 0 -462 159t-167 443v860h494q-14 -590 -14 -872q0 -150 44.5 -214.5t151.5 -64.5q191 0 191 277v874zM623 1556q-195 5 -324 17l291 393h317l289 -393l-322 -17l-126 203z" />
<glyph unicode="&#xdc;" horiz-adv-x="1419" d="M969 1425h348v-860q0 -602 -586 -602q-295 0 -462 159t-167 443v860h494q-14 -590 -14 -872q0 -150 44.5 -214.5t151.5 -64.5q191 0 191 277v874zM709 1774q0 -90 -63 -154t-152 -64t-152 64t-63 154q0 89 63 152t152 63t152 -63t63 -152zM1217 1774q0 -89 -63.5 -153.5 t-152.5 -64.5t-152 64t-63 154q0 89 63 152t152 63t152.5 -63t63.5 -152z" />
<glyph unicode="&#xdd;" horiz-adv-x="1388" d="M1430 1425q-304 -550 -494 -864q0 -43 3 -238.5t3 -322.5h-473q6 235 8 543q-93 150 -261.5 436.5t-256.5 445.5h553q6 -12 50 -105.5t74 -155t73 -144t73 -129.5q44 80 135.5 284.5t114.5 249.5h398zM754 1974q268 -12 399 -24l-291 -394h-317z" />
<glyph unicode="&#xde;" horiz-adv-x="1386" d="M1325 741q0 -86 -27.5 -160t-72.5 -126t-107.5 -94t-128 -68t-137.5 -43.5t-133.5 -24.5t-118.5 -8q2 -70 2 -217h-473q8 401 8 711q0 98 -3.5 276.5t-7.5 308.5l-3 129h498q-5 -94 -11 -217q109 -2 207.5 -17t193 -50t163 -86.5t110 -132t41.5 -181.5zM596 489 q31 0 63.5 5.5t70 21.5t66 40t47.5 66t19 95q0 54 -18.5 93t-47.5 58t-64.5 31.5t-70 12t-63.5 -0.5q-3 -61 -3.5 -136.5t0.5 -169.5t1 -116z" />
<glyph unicode="&#xdf;" horiz-adv-x="1519" d="M981 506q0 40 -8 74t-20 58.5t-30.5 45.5t-34.5 34t-38 25t-34.5 16.5t-31 11t-20.5 7.5l-4 197q8 4 35.5 18t42 22t37.5 30t35 46t22 65t10 93q0 189 -160 189q-91 0 -138.5 -52.5t-47.5 -150.5q0 -26 6 -241t14 -512.5t11 -481.5h-490q13 542 13 745q0 150 -1.5 311.5 t-1.5 198.5q0 127 45 224t127.5 157.5t194.5 90.5t252 30q160 0 286.5 -56.5t201.5 -167.5t75 -261q0 -78 -22.5 -144t-62.5 -113t-76.5 -76.5t-82.5 -57.5q30 -2 71.5 -14t96 -42.5t99 -74t75.5 -117.5t31 -164q0 -86 -24 -158t-64.5 -123.5t-97.5 -91.5t-119 -64.5 t-133 -40.5t-134.5 -22t-129.5 -6l4 326h13t30.5 3.5t43.5 10.5t46.5 22.5t44 38t31 59.5t12.5 83z" />
<glyph unicode="&#xe0;" horiz-adv-x="1345" d="M1249 0h-440l-4 221q-19 -43 -35.5 -72t-50 -67.5t-74.5 -62t-106.5 -40t-147.5 -16.5q-149 0 -244.5 76t-95.5 215q0 77 31 138t81.5 98.5t115 66t132 44t132 30.5t115 27t81.5 32t31 47q0 53 -41.5 83t-112.5 30q-55 0 -122 -18t-123.5 -43.5t-105 -51t-75.5 -43.5 l-28 -18l-88 289q9 7 27 19.5t77.5 44t124.5 55.5t167 43.5t206 19.5q272 0 403 -107.5t131 -306.5q0 -99 10 -282.5t20 -316.5zM616 227q49 0 87.5 48.5t60 121.5t29.5 162q-20 -15 -58 -35.5t-68.5 -38t-61 -41.5t-47.5 -56t-17 -71q0 -90 75 -90zM657 1659l209 -418h-317 l-291 393q58 5 158 11.5t170 10.5z" />
<glyph unicode="&#xe1;" horiz-adv-x="1345" d="M1249 0h-440l-4 221q-19 -43 -35.5 -72t-50 -67.5t-74.5 -62t-106.5 -40t-147.5 -16.5q-149 0 -244.5 76t-95.5 215q0 77 31 138t81.5 98.5t115 66t132 44t132 30.5t115 27t81.5 32t31 47q0 53 -41.5 83t-112.5 30q-55 0 -122 -18t-123.5 -43.5t-105 -51t-75.5 -43.5 l-28 -18l-88 289q9 7 27 19.5t77.5 44t124.5 55.5t167 43.5t206 19.5q272 0 403 -107.5t131 -306.5q0 -99 10 -282.5t20 -316.5zM616 227q49 0 87.5 48.5t60 121.5t29.5 162q-20 -15 -58 -35.5t-68.5 -38t-61 -41.5t-47.5 -56t-17 -71q0 -90 75 -90zM690 1659 q269 -13 400 -25l-291 -393h-318z" />
<glyph unicode="&#xe2;" horiz-adv-x="1345" d="M1249 0h-440l-4 221q-19 -43 -35.5 -72t-50 -67.5t-74.5 -62t-106.5 -40t-147.5 -16.5q-149 0 -244.5 76t-95.5 215q0 77 31 138t81.5 98.5t115 66t132 44t132 30.5t115 27t81.5 32t31 47q0 53 -41.5 83t-112.5 30q-55 0 -122 -18t-123.5 -43.5t-105 -51t-75.5 -43.5 l-28 -18l-88 289q9 7 27 19.5t77.5 44t124.5 55.5t167 43.5t206 19.5q272 0 403 -107.5t131 -306.5q0 -99 10 -282.5t20 -316.5zM616 227q49 0 87.5 48.5t60 121.5t29.5 162q-20 -15 -58 -35.5t-68.5 -38t-61 -41.5t-47.5 -56t-17 -71q0 -90 75 -90zM547 1241 q-195 4 -324 16l291 394h317l289 -394l-321 -16l-127 203z" />
<glyph unicode="&#xe3;" horiz-adv-x="1345" d="M1249 0h-440l-4 221q-19 -43 -35.5 -72t-50 -67.5t-74.5 -62t-106.5 -40t-147.5 -16.5q-149 0 -244.5 76t-95.5 215q0 77 31 138t81.5 98.5t115 66t132 44t132 30.5t115 27t81.5 32t31 47q0 53 -41.5 83t-112.5 30q-55 0 -122 -18t-123.5 -43.5t-105 -51t-75.5 -43.5 l-28 -18l-88 289q9 7 27 19.5t77.5 44t124.5 55.5t167 43.5t206 19.5q272 0 403 -107.5t131 -306.5q0 -99 10 -282.5t20 -316.5zM616 227q49 0 87.5 48.5t60 121.5t29.5 162q-20 -15 -58 -35.5t-68.5 -38t-61 -41.5t-47.5 -56t-17 -71q0 -90 75 -90zM940 1604l250 -31 q-1 -7 -3 -19t-12.5 -46.5t-24.5 -66t-41.5 -69.5t-61 -65.5t-85 -46.5t-112.5 -19q-43 0 -94.5 16.5t-90.5 37t-85 37t-80 16.5q-37 0 -61.5 -27t-30.5 -53l-5 -27l-247 31h-2q1 7 3.5 19t13 46.5t25.5 66t42.5 69.5t61 65.5t84.5 46.5t110 19q55 0 121 -27t126.5 -53.5 t102.5 -26.5q38 0 62 26.5t29 53.5z" />
<glyph unicode="&#xe4;" horiz-adv-x="1345" d="M1249 0h-440l-4 221q-19 -43 -35.5 -72t-50 -67.5t-74.5 -62t-106.5 -40t-147.5 -16.5q-149 0 -244.5 76t-95.5 215q0 77 31 138t81.5 98.5t115 66t132 44t132 30.5t115 27t81.5 32t31 47q0 53 -41.5 83t-112.5 30q-55 0 -122 -18t-123.5 -43.5t-105 -51t-75.5 -43.5 l-28 -18l-88 289q9 7 27 19.5t77.5 44t124.5 55.5t167 43.5t206 19.5q272 0 403 -107.5t131 -306.5q0 -99 10 -282.5t20 -316.5zM616 227q49 0 87.5 48.5t60 121.5t29.5 162q-20 -15 -58 -35.5t-68.5 -38t-61 -41.5t-47.5 -56t-17 -71q0 -90 75 -90zM633 1458 q0 -89 -63 -153t-152 -64t-152 64t-63 153t63 152t152 63t152 -63t63 -152zM1141 1458q0 -89 -63 -153t-152 -64t-152 64t-63 153t63 152t152 63t152 -63t63 -152z" />
<glyph unicode="&#xe5;" horiz-adv-x="1345" d="M1249 0h-440l-4 221q-19 -43 -35.5 -72t-50 -67.5t-74.5 -62t-106.5 -40t-147.5 -16.5q-149 0 -244.5 76t-95.5 215q0 77 31 138t81.5 98.5t115 66t132 44t132 30.5t115 27t81.5 32t31 47q0 53 -41.5 83t-112.5 30q-55 0 -122 -18t-123.5 -43.5t-105 -51t-75.5 -43.5 l-28 -18l-88 289q9 7 27 19.5t77.5 44t124.5 55.5t167 43.5t206 19.5q272 0 403 -107.5t131 -306.5q0 -99 10 -282.5t20 -316.5zM616 227q49 0 87.5 48.5t60 121.5t29.5 162q-20 -15 -58 -35.5t-68.5 -38t-61 -41.5t-47.5 -56t-17 -71q0 -90 75 -90zM672 1757q133 0 216 -79 t83 -210q0 -132 -82.5 -210t-216.5 -78t-216.5 78t-82.5 210q0 131 83 210t216 79zM672 1352q53 0 84.5 31t31.5 85q0 53 -32 86t-84 33t-84.5 -33t-32.5 -86q0 -54 32 -85t85 -31z" />
<glyph unicode="&#xe6;" horiz-adv-x="1912" d="M1782 352l90 -264q-83 -60 -219.5 -92.5t-304.5 -32.5q-382 0 -529 232q-134 -232 -428 -232q-149 0 -244.5 76t-95.5 215q0 77 31 138t81.5 98.5t115 66t132 44t132 30.5t115 27t81.5 32t31 47q0 53 -41.5 83t-112.5 30q-55 0 -122 -18t-123.5 -43.5t-105 -51 t-75.5 -43.5l-28 -18l-88 289q9 7 27 19.5t77.5 44t124.5 55.5t167 43.5t206 19.5q213 0 340 -68q139 68 323 68q238 0 368 -99.5t130 -275.5q0 -84 -38.5 -151t-102 -107.5t-143.5 -61.5t-166 -20t-166 23q0 -42 8 -76.5t27.5 -66.5t56.5 -50t90 -18q176 0 379 108z M1393 885q-86 0 -130 -79t-49 -200q31 -7 63 -9t70.5 5.5t68 26t49.5 57t20 94.5q0 105 -92 105zM616 227q49 0 87.5 48.5t60 121.5t29.5 162q-20 -15 -58 -35.5t-68.5 -38t-61 -41.5t-47.5 -56t-17 -71q0 -90 75 -90z" />
<glyph unicode="&#xe7;" horiz-adv-x="1148" d="M393 -508l35 139q90 -32 166 -32q117 0 117 73q0 34 -22.5 54t-59.5 20q-21 0 -42.5 -3.5t-32.5 -6.5l-11 -4l-58 28l80 213q-228 29 -355.5 170t-127.5 410q0 149 44.5 263.5t126.5 186.5t192.5 108t246.5 36q137 0 243.5 -34.5t170.5 -86.5l-94 -281q-72 43 -125 62.5 t-123 19.5q-100 0 -144.5 -69.5t-44.5 -204.5q0 -136 44.5 -203t144.5 -67q54 0 105 15t81.5 31.5t89.5 53.5l99 -295q-3 -1 -38 -19.5t-46.5 -23.5t-46 -21t-58 -22t-60 -16t-74 -14.5t-79.5 -6.5l-16 -86q118 -6 190 -58t72 -151q0 -56 -32.5 -100.5t-85.5 -70t-114.5 -39 t-125.5 -13.5q-59 0 -117 11.5t-86 22.5z" />
<glyph unicode="&#xe8;" horiz-adv-x="1263" d="M1133 352l90 -264q-83 -60 -220 -92.5t-305 -32.5q-109 0 -201 20t-169.5 64.5t-131.5 112t-84 167.5t-30 226q0 149 44.5 263.5t126 186t192 108t245.5 36.5q238 0 368 -99.5t130 -275.5q0 -84 -38.5 -151t-102.5 -107.5t-144 -61.5t-166 -20t-166 23q0 -42 8.5 -76.5 t27.5 -66.5t56.5 -50t90.5 -18q176 0 379 108zM743 885q-86 0 -129.5 -79t-48.5 -200q31 -7 63 -9t70.5 5.5t68 26t49.5 57t20 94.5q0 105 -93 105zM649 1659l209 -418h-317l-291 393q58 5 158 11.5t170 10.5z" />
<glyph unicode="&#xe9;" horiz-adv-x="1263" d="M1133 352l90 -264q-83 -60 -220 -92.5t-305 -32.5q-109 0 -201 20t-169.5 64.5t-131.5 112t-84 167.5t-30 226q0 149 44.5 263.5t126 186t192 108t245.5 36.5q238 0 368 -99.5t130 -275.5q0 -84 -38.5 -151t-102.5 -107.5t-144 -61.5t-166 -20t-166 23q0 -42 8.5 -76.5 t27.5 -66.5t56.5 -50t90.5 -18q176 0 379 108zM743 885q-86 0 -129.5 -79t-48.5 -200q31 -7 63 -9t70.5 5.5t68 26t49.5 57t20 94.5q0 105 -93 105zM707 1659q268 -13 399 -25l-291 -393h-317z" />
<glyph unicode="&#xea;" horiz-adv-x="1263" d="M1133 352l90 -264q-83 -60 -220 -92.5t-305 -32.5q-109 0 -201 20t-169.5 64.5t-131.5 112t-84 167.5t-30 226q0 149 44.5 263.5t126 186t192 108t245.5 36.5q238 0 368 -99.5t130 -275.5q0 -84 -38.5 -151t-102.5 -107.5t-144 -61.5t-166 -20t-166 23q0 -42 8.5 -76.5 t27.5 -66.5t56.5 -50t90.5 -18q176 0 379 108zM743 885q-86 0 -129.5 -79t-48.5 -200q31 -7 63 -9t70.5 5.5t68 26t49.5 57t20 94.5q0 105 -93 105zM553 1241q-195 4 -324 16l291 394h318l288 -394l-321 -16l-127 203z" />
<glyph unicode="&#xeb;" horiz-adv-x="1263" d="M1133 352l90 -264q-83 -60 -220 -92.5t-305 -32.5q-109 0 -201 20t-169.5 64.5t-131.5 112t-84 167.5t-30 226q0 149 44.5 263.5t126 186t192 108t245.5 36.5q238 0 368 -99.5t130 -275.5q0 -84 -38.5 -151t-102.5 -107.5t-144 -61.5t-166 -20t-166 23q0 -42 8.5 -76.5 t27.5 -66.5t56.5 -50t90.5 -18q176 0 379 108zM743 885q-86 0 -129.5 -79t-48.5 -200q31 -7 63 -9t70.5 5.5t68 26t49.5 57t20 94.5q0 105 -93 105zM637 1458q0 -89 -63 -153t-152 -64t-152 64t-63 153t63 152t152 63t152 -63t63 -152zM1145 1458q0 -89 -63 -153t-152 -64 t-152 64t-63 153t63 152t152 63t152 -63t63 -152z" />
<glyph unicode="&#xec;" horiz-adv-x="757" d="M618 0h-489q14 319 14 565q0 101 -5 237t-10 222l-5 86q102 -5 230 -5t205 3l77 2q-25 -322 -25 -555q0 -213 8 -555zM422 1659l209 -418h-318l-290 393q58 5 158 11.5t171 10.5z" />
<glyph unicode="&#xed;" horiz-adv-x="757" d="M618 0h-489q14 319 14 565q0 101 -5 237t-10 222l-5 86q102 -5 230 -5t205 3l77 2q-25 -322 -25 -555q0 -213 8 -555zM336 1659q268 -13 399 -25l-291 -393h-317z" />
<glyph unicode="&#xee;" horiz-adv-x="757" d="M618 0h-489q14 319 14 565q0 101 -5 237t-10 222l-5 86q102 -5 230 -5t205 3l77 2q-25 -322 -25 -555q0 -213 8 -555zM254 1241q-195 4 -324 16l291 394h318l288 -394l-321 -16l-127 203z" />
<glyph unicode="&#xef;" horiz-adv-x="757" d="M618 0h-489q14 319 14 565q0 101 -5 237t-10 222l-5 86q102 -5 230 -5t205 3l77 2q-25 -322 -25 -555q0 -213 8 -555zM340 1458q0 -89 -63 -153t-152 -64t-152 64t-63 153t63 152t152 63t152 -63t63 -152zM848 1458q0 -89 -63 -153t-152 -64t-152 64t-63 153t63 152 t152 63t152 -63t63 -152z" />
<glyph unicode="&#xf0;" horiz-adv-x="1507" d="M940 1593q485 -297 485 -903q0 -214 -79.5 -378t-232.5 -256.5t-359 -92.5q-311 0 -491.5 152.5t-180.5 410.5q0 262 161.5 423t426.5 161q241 0 356 -178q-83 212 -281 334l-63 -105l-143 86l53 92q-108 38 -273 66l164 362q161 -33 308 -96l57 96l145 -86zM756 266 q56 0 94.5 22.5t58.5 65t28.5 93t8.5 116.5q0 118 -51 189t-168 71q-85 0 -125.5 -75t-40.5 -195q0 -134 48 -210.5t147 -76.5z" />
<glyph unicode="&#xf1;" horiz-adv-x="1536" d="M1413 0h-498q0 23 5.5 236t5.5 317q0 141 -37.5 215t-130.5 74q-48 0 -80.5 -23.5t-48.5 -67t-22.5 -90.5t-6.5 -108q0 -238 14 -553h-491q14 449 14 856q0 164 -2 254h477q-3 -117 -6 -190q42 104 142.5 165.5t255.5 61.5q196 0 295.5 -109t99.5 -299q0 -281 14 -739z M1028 1604l250 -31q-1 -7 -3 -19t-12.5 -46.5t-24.5 -66t-41.5 -69.5t-61 -65.5t-85 -46.5t-112.5 -19q-43 0 -94.5 16.5t-90.5 37t-85 37t-80 16.5q-37 0 -61 -27t-29 -53l-6 -27l-248 31h-2q1 7 3.5 19t13 46.5t25.5 66t42.5 69.5t61 65.5t84.5 46.5t110 19q55 0 121 -27 t126.5 -53.5t102.5 -26.5q38 0 62 26.5t29 53.5z" />
<glyph unicode="&#xf2;" horiz-adv-x="1507" d="M754 1147q314 0 492.5 -157t178.5 -431q0 -271 -179.5 -433.5t-491.5 -162.5q-310 0 -491 163t-181 433q0 274 180 431t492 157zM561 567q0 -137 48 -217t147 -80q56 0 94 22t58 63t28 87.5t8 106.5q0 82 -17 145.5t-64 108.5t-120 45q-99 0 -140.5 -71t-41.5 -210z M733 1659l209 -418h-317l-291 393q58 5 158 11.5t170 10.5z" />
<glyph unicode="&#xf3;" horiz-adv-x="1507" d="M754 1147q314 0 492.5 -157t178.5 -431q0 -271 -179.5 -433.5t-491.5 -162.5q-310 0 -491 163t-181 433q0 274 180 431t492 157zM561 567q0 -137 48 -217t147 -80q56 0 94 22t58 63t28 87.5t8 106.5q0 82 -17 145.5t-64 108.5t-120 45q-99 0 -140.5 -71t-41.5 -210z M774 1659q269 -13 400 -25l-291 -393h-318z" />
<glyph unicode="&#xf4;" horiz-adv-x="1507" d="M754 1147q314 0 492.5 -157t178.5 -431q0 -271 -179.5 -433.5t-491.5 -162.5q-310 0 -491 163t-181 433q0 274 180 431t492 157zM561 567q0 -137 48 -217t147 -80q56 0 94 22t58 63t28 87.5t8 106.5q0 82 -17 145.5t-64 108.5t-120 45q-99 0 -140.5 -71t-41.5 -210z M629 1241q-195 4 -324 16l291 394h317l289 -394l-321 -16l-127 203z" />
<glyph unicode="&#xf5;" horiz-adv-x="1507" d="M754 1147q314 0 492.5 -157t178.5 -431q0 -271 -179.5 -433.5t-491.5 -162.5q-310 0 -491 163t-181 433q0 274 180 431t492 157zM561 567q0 -137 48 -217t147 -80q56 0 94 22t58 63t28 87.5t8 106.5q0 82 -17 145.5t-64 108.5t-120 45q-99 0 -140.5 -71t-41.5 -210z M1022 1604l250 -31q-1 -7 -3 -19t-12.5 -46.5t-24.5 -66t-41.5 -69.5t-61 -65.5t-85 -46.5t-112.5 -19q-43 0 -94.5 16.5t-90.5 37t-85 37t-80 16.5q-37 0 -61.5 -27t-30.5 -53l-5 -27l-247 31h-2q1 7 3.5 19t13 46.5t25 66t42 69.5t61 65.5t84.5 46.5t110 19q55 0 121 -27 t127 -53.5t103 -26.5q38 0 62 26.5t29 53.5z" />
<glyph unicode="&#xf6;" horiz-adv-x="1507" d="M754 1147q314 0 492.5 -157t178.5 -431q0 -271 -179.5 -433.5t-491.5 -162.5q-310 0 -491 163t-181 433q0 274 180 431t492 157zM561 567q0 -137 48 -217t147 -80q56 0 94 22t58 63t28 87.5t8 106.5q0 82 -17 145.5t-64 108.5t-120 45q-99 0 -140.5 -71t-41.5 -210z M715 1458q0 -89 -63 -153t-152 -64t-152 64t-63 153t63 152t152 63t152 -63t63 -152zM1223 1458q0 -89 -63 -153t-152 -64t-152 64t-63 153t63 152t152 63t152 -63t63 -152z" />
<glyph unicode="&#xf7;" horiz-adv-x="1271" d="M799 139q0 -73 -52 -124.5t-124 -51.5q-75 0 -127 51t-52 125t52 125t127 51q72 0 124 -51.5t52 -124.5zM82 735h1108q-4 -70 -4 -159.5t2 -143.5l2 -55h-1108v358zM799 971q0 -73 -52 -124.5t-124 -51.5q-75 0 -127 51t-52 125t52 125t127 51q72 0 124 -51.5t52 -124.5z " />
<glyph unicode="&#xf8;" horiz-adv-x="1507" d="M754 1147q95 0 202 -21l103 197l149 -76l-90 -174q148 -71 227.5 -203t79.5 -311q0 -271 -179.5 -433.5t-491.5 -162.5q-92 0 -195 21l-100 -199l-150 78l88 174q-152 72 -233.5 206.5t-81.5 315.5q0 274 180 431t492 157zM561 567q0 -96 25 -166l223 437q-33 10 -66 10 q-99 0 -140.5 -71t-41.5 -210zM944 549q0 79 -18 147l-217 -422q28 -4 47 -4q56 0 94 22t58 63t28 87.5t8 106.5z" />
<glyph unicode="&#xf9;" horiz-adv-x="1488" d="M1364 1110q-14 -449 -14 -856q0 -91 22 -254h-473l-18 190q-88 -227 -377 -227q-180 0 -280.5 114t-100.5 329q0 67 2 240t2.5 267t-2.5 197h481q0 -10 -5 -229t-5 -324q0 -71 6 -120t21.5 -89.5t45.5 -60t76 -19.5q36 0 62 16.5t40.5 42t23.5 65.5t11.5 78t2.5 87 q0 171 -17 553h496zM711 1659l209 -418h-318l-291 393q58 5 158 11.5t171 10.5z" />
<glyph unicode="&#xfa;" horiz-adv-x="1488" d="M1364 1110q-14 -449 -14 -856q0 -91 22 -254h-473l-18 190q-88 -227 -377 -227q-180 0 -280.5 114t-100.5 329q0 67 2 240t2.5 267t-2.5 197h481q0 -10 -5 -229t-5 -324q0 -71 6 -120t21.5 -89.5t45.5 -60t76 -19.5q36 0 62 16.5t40.5 42t23.5 65.5t11.5 78t2.5 87 q0 171 -17 553h496zM778 1659q269 -13 400 -25l-291 -393h-318z" />
<glyph unicode="&#xfb;" horiz-adv-x="1488" d="M1364 1110q-14 -449 -14 -856q0 -91 22 -254h-473l-18 190q-88 -227 -377 -227q-180 0 -280.5 114t-100.5 329q0 67 2 240t2.5 267t-2.5 197h481q0 -10 -5 -229t-5 -324q0 -71 6 -120t21.5 -89.5t45.5 -60t76 -19.5q36 0 62 16.5t40.5 42t23.5 65.5t11.5 78t2.5 87 q0 171 -17 553h496zM614 1241q-194 4 -323 16l291 394h317l289 -394l-322 -16l-127 203z" />
<glyph unicode="&#xfc;" horiz-adv-x="1488" d="M1364 1110q-14 -449 -14 -856q0 -91 22 -254h-473l-18 190q-88 -227 -377 -227q-180 0 -280.5 114t-100.5 329q0 67 2 240t2.5 267t-2.5 197h481q0 -10 -5 -229t-5 -324q0 -71 6 -120t21.5 -89.5t45.5 -60t76 -19.5q36 0 62 16.5t40.5 42t23.5 65.5t11.5 78t2.5 87 q0 171 -17 553h496zM700 1458q0 -89 -63 -153t-152 -64t-152 64t-63 153t63 152t152 63t152 -63t63 -152zM1208 1458q0 -89 -63 -153t-152 -64t-152 64t-63 153t63 152t152 63t152 -63t63 -152z" />
<glyph unicode="&#xfd;" horiz-adv-x="1241" d="M850 1110h350q0 -250 -53 -482t-148.5 -424.5t-233.5 -351.5t-304.5 -269t-365 -170t-410.5 -60l-105 289q190 0 340.5 31t261.5 95t170.5 168.5t59.5 243.5q0 63 -15.5 120t-41.5 99.5t-60 80t-72 63.5t-75.5 47.5t-71.5 34.5t-60 21.5t-42 11.5l-15 4l102 485 q9 -2 25 -5t65 -17.5t97 -33t112.5 -53t120 -76t112.5 -103.5t97 -134t65 -169t25 -206q25 69 41.5 137t28.5 163.5t11 203t-11 256.5zM666 1659q268 -13 399 -25l-291 -393h-317z" />
<glyph unicode="&#xfe;" horiz-adv-x="1550" d="M958 1147q229 0 369.5 -160.5t140.5 -429.5q0 -271 -137.5 -432.5t-365.5 -161.5q-125 0 -218.5 62.5t-134.5 164.5q4 -138 11.5 -338t13.5 -331l6 -131q-289 12 -520 0q20 550 20 862q0 182 -5 549t-10 643l-5 276q103 -5 233 -5t208 3l79 2q-35 -511 -41 -821 q15 45 43 87t70.5 79t105.5 59.5t137 22.5zM786 268q189 0 189 289t-189 289q-56 0 -96.5 -24t-63.5 -66t-33.5 -91.5t-10.5 -107.5t10.5 -107.5t33.5 -91.5t63.5 -66t96.5 -24z" />
<glyph unicode="&#xff;" horiz-adv-x="1241" d="M850 1110h350q0 -250 -53 -482t-148.5 -424.5t-233.5 -351.5t-304.5 -269t-365 -170t-410.5 -60l-105 289q190 0 340.5 31t261.5 95t170.5 168.5t59.5 243.5q0 63 -15.5 120t-41.5 99.5t-60 80t-72 63.5t-75.5 47.5t-71.5 34.5t-60 21.5t-42 11.5l-15 4l102 485 q9 -2 25 -5t65 -17.5t97 -33t112.5 -53t120 -76t112.5 -103.5t97 -134t65 -169t25 -206q25 69 41.5 137t28.5 163.5t11 203t-11 256.5zM627 1458q0 -89 -63 -153t-152 -64t-152 64t-63 153t63 152t152 63t152 -63t63 -152zM1135 1458q0 -89 -63 -153t-152 -64t-152 64 t-63 153t63 152t152 63t152 -63t63 -152z" />
<glyph unicode="&#x100;" horiz-adv-x="1409" d="M944 1425l465 -1425q-299 4 -539 -6l-75 295h-379q-26 -182 -33 -289h-342q11 137 54.5 334t98 380.5t107.5 347.5t89 264l36 99h518zM467 551h260l-129 496q-72 -223 -131 -496zM1051 1620h-744v246h744v-246z" />
<glyph unicode="&#x101;" horiz-adv-x="1345" d="M1249 0h-440l-4 221q-19 -43 -35.5 -72t-50 -67.5t-74.5 -62t-106.5 -40t-147.5 -16.5q-149 0 -244.5 76t-95.5 215q0 77 31 138t81.5 98.5t115 66t132 44t132 30.5t115 27t81.5 32t31 47q0 53 -41.5 83t-112.5 30q-55 0 -122 -18t-123.5 -43.5t-105 -51t-75.5 -43.5 l-28 -18l-88 289q9 7 27 19.5t77.5 44t124.5 55.5t167 43.5t206 19.5q272 0 403 -107.5t131 -306.5q0 -99 10 -282.5t20 -316.5zM616 227q49 0 87.5 48.5t60 121.5t29.5 162q-20 -15 -58 -35.5t-68.5 -38t-61 -41.5t-47.5 -56t-17 -71q0 -90 75 -90zM1044 1305h-743v245h743 v-245z" />
<glyph unicode="&#x102;" horiz-adv-x="1409" d="M944 1425l465 -1425q-299 4 -539 -6l-75 295h-379q-26 -182 -33 -289h-342q11 137 54.5 334t98 380.5t107.5 347.5t89 264l36 99h518zM467 551h260l-129 496q-72 -223 -131 -496zM836 1919l264 -31q-1 -7 -4 -19t-16 -46.5t-31 -66t-52 -69.5t-76 -65.5t-106.5 -46.5 t-140.5 -19t-141 18.5t-107.5 47.5t-76.5 64.5t-52.5 71t-30.5 64.5t-16 48l-4 18l262 31q2 -5 5.5 -14t17 -31t31 -39t47.5 -31t65 -14q34 0 63.5 13.5t47 32t29.5 37.5t17 33z" />
<glyph unicode="&#x103;" horiz-adv-x="1345" d="M1249 0h-440l-4 221q-19 -43 -35.5 -72t-50 -67.5t-74.5 -62t-106.5 -40t-147.5 -16.5q-149 0 -244.5 76t-95.5 215q0 77 31 138t81.5 98.5t115 66t132 44t132 30.5t115 27t81.5 32t31 47q0 53 -41.5 83t-112.5 30q-55 0 -122 -18t-123.5 -43.5t-105 -51t-75.5 -43.5 l-28 -18l-88 289q9 7 27 19.5t77.5 44t124.5 55.5t167 43.5t206 19.5q272 0 403 -107.5t131 -306.5q0 -99 10 -282.5t20 -316.5zM616 227q49 0 87.5 48.5t60 121.5t29.5 162q-20 -15 -58 -35.5t-68.5 -38t-61 -41.5t-47.5 -56t-17 -71q0 -90 75 -90zM836 1604l264 -31 q-1 -7 -4 -19t-16 -46.5t-31 -66t-52 -69.5t-76 -65.5t-106.5 -46.5t-140.5 -19t-141 18.5t-107.5 47.5t-76.5 64.5t-52.5 71t-30.5 64.5t-16 47l-4 19l262 31q2 -5 5.5 -14t17 -31t31 -39t47.5 -31t65 -14q34 0 63.5 13.5t47 32.5t29.5 37.5t17 31.5z" />
<glyph unicode="&#x104;" horiz-adv-x="1409" d="M1116 -551v-2q-10 0 -28 1.5t-69 10.5t-97.5 23t-103.5 43t-98 66.5t-69 97.5t-28 133q0 162 221 272l-49 195h-379q-26 -182 -33 -289h-342q11 137 54.5 334t98 380.5t107.5 347.5t89 264l36 99h518l465 -1425q-141 2 -305 0q-29 -8 -56 -19.5t-58 -30t-49.5 -46.5 t-18.5 -60q0 -44 56 -69t112 -28l55 -3zM467 551h260l-129 496q-72 -223 -131 -496z" />
<glyph unicode="&#x105;" horiz-adv-x="1345" d="M1200 -551v-2q-10 0 -28 1.5t-69 10.5t-97.5 23t-103.5 43t-98 66.5t-69 97.5t-28 133q0 106 102 194l-4 205q-19 -43 -35.5 -72t-50 -67.5t-74.5 -62t-106.5 -40t-147.5 -16.5q-149 0 -244.5 76t-95.5 215q0 77 31 138t81.5 98.5t115 66t132 44t132 30.5t115 27t81.5 32 t31 47q0 53 -41.5 83t-112.5 30q-55 0 -122 -18t-123.5 -43.5t-105 -51t-75.5 -43.5l-28 -18l-88 289q9 7 27 19.5t77.5 44t124.5 55.5t167 43.5t206 19.5q272 0 403 -107.5t131 -306.5q0 -99 10 -282.5t20 -316.5l9 -134h-63q-29 -8 -55.5 -19.5t-57 -30t-49 -46.5 t-18.5 -60q0 -44 56 -69t112 -28l55 -3zM616 227q49 0 87.5 48.5t60 121.5t29.5 162q-20 -15 -58 -35.5t-68.5 -38t-61 -41.5t-47.5 -56t-17 -71q0 -90 75 -90z" />
<glyph unicode="&#x106;" horiz-adv-x="1245" d="M1130 410l101 -318q-6 -5 -17.5 -14t-52 -31t-86 -39t-119 -31t-151.5 -14q-163 0 -295 47t-228 138.5t-148 235t-52 329.5q0 181 54.5 324.5t151.5 236t228.5 140.5t288.5 48q95 0 198 -24.5t159 -49.5l55 -24l-109 -348q-7 4 -19 11.5t-49 25.5t-72.5 32t-83.5 25.5 t-89 11.5q-114 0 -179 -90t-65 -307q0 -223 64 -321.5t192 -98.5q72 0 152.5 26.5t125.5 52.5zM791 1974q268 -12 399 -24l-291 -394h-317z" />
<glyph unicode="&#x107;" horiz-adv-x="1148" d="M764 283q54 0 105 15t81.5 31.5t89.5 53.5l99 -295q-5 -3 -40 -21.5t-49 -24.5t-50 -22t-63 -23t-66.5 -16.5t-81.5 -13.5t-89 -4q-138 0 -248 32.5t-194.5 100.5t-130 184t-45.5 273q0 149 44.5 263.5t126.5 186.5t192.5 108t246.5 36q137 0 243.5 -34.5t170.5 -86.5 l-94 -281q-72 43 -125 62.5t-123 19.5q-100 0 -144.5 -69.5t-44.5 -204.5q0 -136 44.5 -203t144.5 -67zM700 1659q269 -13 400 -25l-291 -393h-317z" />
<glyph unicode="&#x108;" horiz-adv-x="1245" d="M1130 410l101 -318q-6 -5 -17.5 -14t-52 -31t-86 -39t-119 -31t-151.5 -14q-163 0 -295 47t-228 138.5t-148 235t-52 329.5q0 181 54.5 324.5t151.5 236t228.5 140.5t288.5 48q95 0 198 -24.5t159 -49.5l55 -24l-109 -348q-7 4 -19 11.5t-49 25.5t-72.5 32t-83.5 25.5 t-89 11.5q-114 0 -179 -90t-65 -307q0 -223 64 -321.5t192 -98.5q72 0 152.5 26.5t125.5 52.5zM672 1556q-195 5 -324 17l291 393h317l289 -393l-321 -17l-127 203z" />
<glyph unicode="&#x109;" horiz-adv-x="1148" d="M764 283q54 0 105 15t81.5 31.5t89.5 53.5l99 -295q-5 -3 -40 -21.5t-49 -24.5t-50 -22t-63 -23t-66.5 -16.5t-81.5 -13.5t-89 -4q-138 0 -248 32.5t-194.5 100.5t-130 184t-45.5 273q0 149 44.5 263.5t126.5 186.5t192.5 108t246.5 36q137 0 243.5 -34.5t170.5 -86.5 l-94 -281q-72 43 -125 62.5t-123 19.5q-100 0 -144.5 -69.5t-44.5 -204.5q0 -136 44.5 -203t144.5 -67zM532 1241q-194 4 -323 16l291 394h317l289 -394l-322 -16l-127 203z" />
<glyph unicode="&#x10a;" horiz-adv-x="1245" d="M1130 410l101 -318q-6 -5 -17.5 -14t-52 -31t-86 -39t-119 -31t-151.5 -14q-163 0 -295 47t-228 138.5t-148 235t-52 329.5q0 181 54.5 324.5t151.5 236t228.5 140.5t288.5 48q95 0 198 -24.5t159 -49.5l55 -24l-109 -348q-7 4 -19 11.5t-49 25.5t-72.5 32t-83.5 25.5 t-89 11.5q-114 0 -179 -90t-65 -307q0 -223 64 -321.5t192 -98.5q72 0 152.5 26.5t125.5 52.5zM1057 1812q0 -108 -76 -184t-184 -76t-184 76t-76 184q0 107 76.5 184t183.5 77t183.5 -77t76.5 -184z" />
<glyph unicode="&#x10b;" horiz-adv-x="1148" d="M764 283q54 0 105 15t81.5 31.5t89.5 53.5l99 -295q-5 -3 -40 -21.5t-49 -24.5t-50 -22t-63 -23t-66.5 -16.5t-81.5 -13.5t-89 -4q-138 0 -248 32.5t-194.5 100.5t-130 184t-45.5 273q0 149 44.5 263.5t126.5 186.5t192.5 108t246.5 36q137 0 243.5 -34.5t170.5 -86.5 l-94 -281q-72 43 -125 62.5t-123 19.5q-100 0 -144.5 -69.5t-44.5 -204.5q0 -136 44.5 -203t144.5 -67zM918 1497q0 -108 -76.5 -184t-184.5 -76t-184 76t-76 184q0 107 76.5 183.5t183.5 76.5t184 -76.5t77 -183.5z" />
<glyph unicode="&#x10c;" horiz-adv-x="1245" d="M1130 410l101 -318q-6 -5 -17.5 -14t-52 -31t-86 -39t-119 -31t-151.5 -14q-163 0 -295 47t-228 138.5t-148 235t-52 329.5q0 181 54.5 324.5t151.5 236t228.5 140.5t288.5 48q95 0 198 -24.5t159 -49.5l55 -24l-109 -348q-7 4 -19 11.5t-49 25.5t-72.5 32t-83.5 25.5 t-89 11.5q-114 0 -179 -90t-65 -307q0 -223 64 -321.5t192 -98.5q72 0 152.5 26.5t125.5 52.5zM674 1966l125 -203l127 203q171 -10 321 -16l-289 -394h-317l-291 394q57 5 138 9t134 5z" />
<glyph unicode="&#x10d;" horiz-adv-x="1148" d="M764 283q54 0 105 15t81.5 31.5t89.5 53.5l99 -295q-5 -3 -40 -21.5t-49 -24.5t-50 -22t-63 -23t-66.5 -16.5t-81.5 -13.5t-89 -4q-138 0 -248 32.5t-194.5 100.5t-130 184t-45.5 273q0 149 44.5 263.5t126.5 186.5t192.5 108t246.5 36q137 0 243.5 -34.5t170.5 -86.5 l-94 -281q-72 43 -125 62.5t-123 19.5q-100 0 -144.5 -69.5t-44.5 -204.5q0 -136 44.5 -203t144.5 -67zM535 1651l124 -203l127 203q172 -11 322 -17l-289 -393h-317l-291 393q57 5 138 9.5t133 6.5z" />
<glyph unicode="&#x10e;" horiz-adv-x="1492" d="M621 1425q397 0 593.5 -171.5t196.5 -542.5q0 -364 -193 -537.5t-616 -173.5h-473q8 401 8 709q0 99 -3.5 278t-7.5 309l-3 129h498zM731 313q113 0 157 89t44 294q0 206 -50.5 314t-162.5 108h-121q1 -90 -0.5 -242t-1.5 -174v-389h135zM621 1966l124 -203l127 203 q172 -10 322 -16l-289 -394h-317l-291 394q57 5 138 9t133 5z" />
<glyph unicode="&#x10f;" horiz-adv-x="1910" d="M82 553q0 271 138 432.5t366 161.5q125 0 218 -62.5t134 -164.5q-3 137 -10.5 337t-13.5 331l-7 132q291 -12 520 0q-20 -550 -20 -864q0 -297 2 -430q2 -107 11 -213.5t18 -159.5l8 -53h-490q0 19 -3 109t-3 106q-15 -45 -43 -87.5t-70.5 -80.5t-106 -61t-138.5 -23 q-230 0 -370 159.5t-140 430.5zM575 553q0 -289 189 -289q107 0 156 81.5t49 207.5q0 79 -18 141t-66 105t-121 43q-189 0 -189 -289zM1894 1720q31 -84 31 -184q0 -34 -14.5 -83.5t-35 -95.5t-40.5 -87t-35 -66l-14 -24l-273 32l60 287l-29 221v0v0v0h1v0v0h1v0h1v0h1v0h1 h1v0h1h1h1h1h1h1h1h1h1h1h1h1h1h1h1h1h1h1h1h1h1h1h1h1h1h1h1h1h1h1h1h1h1h1h1h1h1h1h1h1h1h1h1h1h1h1h1h1h1h1h1h1h1h1h1h1h2h1h1h1h1h1h1h1h1h1h1h2h1h1h1h1h1h1h2h1h1h1h1h2h1h1h1h1h2h1h1h1h2h1h1h1h2h1h1h1h2h1h1h2h1h1h2h1h1h2h1h1h2h1h1h2h1h1h2h1h2h1h1h2h1h2h1h1h2 h1h2h1h2h1h1h2h1h2h1h2h1h2h1h2h1h2h1h2h1h2h1h2h1h2h1h2h2h1h2h1h2h1h2h1h2h2h1h2h1h2h2h1h2h1h2h2h1h2h2h1h2h2h1h2h2h1h2h2h1h2h2h1h2h2h1h2h2h2h1h2h2h1h2h2h2h1h2h2h2h1h2h2h2h2h1h2h2h2h2h1h2h2h2h2h1h2h2h2h2h2h2h1h2h2h2h2h2h2h2h1h2h2h2h2h9z" />
<glyph unicode="&#x110;" horiz-adv-x="1492" d="M621 1425q397 0 593.5 -171.5t196.5 -542.5q0 -364 -193 -537.5t-616 -173.5h-473q6 304 8 588h-137v243h135l-12 594h498zM764 588h-168v-275h135q113 0 157 89t44 294q0 206 -50.5 314t-162.5 108h-121q0 -201 -2 -287h168v-243z" />
<glyph unicode="&#x111;" horiz-adv-x="1548" d="M1548 1266h-135q-6 -214 -6 -410q0 -297 2 -430q2 -107 11 -213.5t18 -159.5l8 -53h-490q0 19 -3 109t-3 106q-15 -45 -43 -87.5t-70.5 -80.5t-106 -61t-138.5 -23q-230 0 -370 159.5t-140 430.5t138 432.5t366 161.5q125 0 218 -62.5t134 -164.5l-10 346h-320v243h310 l-11 211q291 -12 520 0q-4 -86 -8 -211h129v-243zM575 553q0 -289 189 -289q107 0 156 81.5t49 207.5q0 79 -18 141t-66 105t-121 43q-189 0 -189 -289z" />
<glyph unicode="&#x112;" horiz-adv-x="1226" d="M600 332l586 20q-31 -202 -33 -352h-1024q8 401 8 709q0 99 -3.5 278t-7.5 309l-3 129h989v-305h-506l-8 -332q37 40 98 69.5t138 29.5q88 0 136 -49t48 -117q0 -72 -52 -116t-137 -44q-43 0 -104.5 30t-81.5 30q-45 0 -45 -56q2 -210 2 -233zM985 1620h-743v246h743 v-246z" />
<glyph unicode="&#x113;" horiz-adv-x="1263" d="M1133 352l90 -264q-83 -60 -220 -92.5t-305 -32.5q-109 0 -201 20t-169.5 64.5t-131.5 112t-84 167.5t-30 226q0 149 44.5 263.5t126 186t192 108t245.5 36.5q238 0 368 -99.5t130 -275.5q0 -84 -38.5 -151t-102.5 -107.5t-144 -61.5t-166 -20t-166 23q0 -42 8.5 -76.5 t27.5 -66.5t56.5 -50t90.5 -18q176 0 379 108zM743 885q-86 0 -129.5 -79t-48.5 -200q31 -7 63 -9t70.5 5.5t68 26t49.5 57t20 94.5q0 105 -93 105zM1049 1305h-744v245h744v-245z" />
<glyph unicode="&#x114;" horiz-adv-x="1226" d="M600 332l586 20q-31 -202 -33 -352h-1024q8 401 8 709q0 99 -3.5 278t-7.5 309l-3 129h989v-305h-506l-8 -332q37 40 98 69.5t138 29.5q88 0 136 -49t48 -117q0 -72 -52 -116t-137 -44q-43 0 -104.5 30t-81.5 30q-45 0 -45 -56q2 -210 2 -233zM776 1919l264 -31 q-1 -7 -4 -19t-16 -46.5t-31 -66t-52 -69.5t-76 -65.5t-106.5 -46.5t-140.5 -19t-141 18.5t-107.5 47.5t-76.5 64.5t-52.5 71t-30.5 64.5t-16 48l-4 18l263 31q2 -5 5.5 -14t17 -31t30.5 -39t47 -31t65 -14q34 0 63.5 13.5t47 32t29.5 37.5t17 33z" />
<glyph unicode="&#x115;" horiz-adv-x="1263" d="M1133 352l90 -264q-83 -60 -220 -92.5t-305 -32.5q-109 0 -201 20t-169.5 64.5t-131.5 112t-84 167.5t-30 226q0 149 44.5 263.5t126 186t192 108t245.5 36.5q238 0 368 -99.5t130 -275.5q0 -84 -38.5 -151t-102.5 -107.5t-144 -61.5t-166 -20t-166 23q0 -42 8.5 -76.5 t27.5 -66.5t56.5 -50t90.5 -18q176 0 379 108zM743 885q-86 0 -129.5 -79t-48.5 -200q31 -7 63 -9t70.5 5.5t68 26t49.5 57t20 94.5q0 105 -93 105zM840 1604l264 -31q-1 -7 -4 -19t-16 -46.5t-31 -66t-52 -69.5t-76 -65.5t-106.5 -46.5t-140.5 -19t-141 18.5t-107.5 47.5 t-76.5 64.5t-52.5 71t-30.5 64.5t-16 47l-4 19l262 31q2 -5 5.5 -14t17 -31t31 -39t47.5 -31t65 -14q34 0 63.5 13.5t47 32.5t29.5 37.5t17 31.5z" />
<glyph unicode="&#x116;" horiz-adv-x="1226" d="M600 332l586 20q-31 -202 -33 -352h-1024q8 401 8 709q0 99 -3.5 278t-7.5 309l-3 129h989v-305h-506l-8 -332q37 40 98 69.5t138 29.5q88 0 136 -49t48 -117q0 -72 -52 -116t-137 -44q-43 0 -104.5 30t-81.5 30q-45 0 -45 -56q2 -210 2 -233zM872 1812q0 -108 -76 -184 t-184 -76t-184 76t-76 184q0 107 76.5 184t183.5 77t183.5 -77t76.5 -184z" />
<glyph unicode="&#x117;" horiz-adv-x="1263" d="M1133 352l90 -264q-83 -60 -220 -92.5t-305 -32.5q-109 0 -201 20t-169.5 64.5t-131.5 112t-84 167.5t-30 226q0 149 44.5 263.5t126 186t192 108t245.5 36.5q238 0 368 -99.5t130 -275.5q0 -84 -38.5 -151t-102.5 -107.5t-144 -61.5t-166 -20t-166 23q0 -42 8.5 -76.5 t27.5 -66.5t56.5 -50t90.5 -18q176 0 379 108zM743 885q-86 0 -129.5 -79t-48.5 -200q31 -7 63 -9t70.5 5.5t68 26t49.5 57t20 94.5q0 105 -93 105zM936 1497q0 -108 -76 -184t-184 -76t-184 76t-76 184q0 107 76.5 183.5t183.5 76.5t183.5 -76.5t76.5 -183.5z" />
<glyph unicode="&#x118;" horiz-adv-x="1226" d="M1083 -551v-2q-10 0 -28 1.5t-69 10.5t-97.5 23t-103.5 43t-98 66.5t-69 97.5t-28 133q0 99 82 178h-543q8 401 8 709q0 99 -3.5 278t-7.5 309l-3 129h989v-305h-506l-8 -332q37 40 98 69.5t138 29.5q88 0 136 -49t48 -117q0 -72 -52 -116t-137 -44q-43 0 -104.5 30 t-81.5 30q-45 0 -45 -56q2 -210 2 -233l586 20q-31 -202 -33 -352h-84q-29 -8 -55.5 -19.5t-57 -30t-49 -46.5t-18.5 -60q0 -44 55.5 -69t111.5 -28l56 -3z" />
<glyph unicode="&#x119;" horiz-adv-x="1263" d="M1018 -551v-2q-6 0 -17 1t-45 5.5t-66.5 11.5t-77 21.5t-83 32.5t-77.5 47.5t-66 64.5t-44.5 84.5t-17.5 106.5q0 80 56 149q-113 13 -202 52t-156.5 108t-103.5 175.5t-36 246.5q0 149 44.5 263.5t126 186t192 108t245.5 36.5q238 0 368 -99.5t130 -275.5 q0 -84 -38.5 -151t-102.5 -107.5t-144 -61.5t-166 -20t-166 23q0 -42 8.5 -76.5t27.5 -66.5t56.5 -50t90.5 -18q176 0 379 108l90 -264q-90 -66 -252 -98q-148 -56 -148 -146q0 -44 56 -69t112 -28l56 -3zM743 885q-86 0 -129.5 -79t-48.5 -200q31 -7 63 -9t70.5 5.5t68 26 t49.5 57t20 94.5q0 105 -93 105z" />
<glyph unicode="&#x11a;" horiz-adv-x="1226" d="M600 332l586 20q-31 -202 -33 -352h-1024q8 401 8 709q0 99 -3.5 278t-7.5 309l-3 129h989v-305h-506l-8 -332q37 40 98 69.5t138 29.5q88 0 136 -49t48 -117q0 -72 -52 -116t-137 -44q-43 0 -104.5 30t-81.5 30q-45 0 -45 -56q2 -210 2 -233zM487 1966l125 -203l127 203 q172 -10 322 -16l-289 -394h-317l-291 394q57 5 138 9t133 5z" />
<glyph unicode="&#x11b;" horiz-adv-x="1263" d="M1133 352l90 -264q-83 -60 -220 -92.5t-305 -32.5q-109 0 -201 20t-169.5 64.5t-131.5 112t-84 167.5t-30 226q0 149 44.5 263.5t126 186t192 108t245.5 36.5q238 0 368 -99.5t130 -275.5q0 -84 -38.5 -151t-102.5 -107.5t-144 -61.5t-166 -20t-166 23q0 -42 8.5 -76.5 t27.5 -66.5t56.5 -50t90.5 -18q176 0 379 108zM743 885q-86 0 -129.5 -79t-48.5 -200q31 -7 63 -9t70.5 5.5t68 26t49.5 57t20 94.5q0 105 -93 105zM551 1651l125 -203l127 203q171 -11 321 -17l-288 -393h-318l-291 393q57 5 138 9.5t133 6.5z" />
<glyph unicode="&#x11c;" horiz-adv-x="1458" d="M743 827h623v-616q-25 0 -66.5 -25.5t-93 -62t-113 -73t-145.5 -62t-172 -25.5q-324 0 -509 190.5t-185 559.5q0 181 54.5 324.5t152 236t229 140.5t287.5 48q116 0 234 -24.5t179 -49.5l60 -24l-109 -348q-8 4 -22.5 11.5t-57.5 25.5t-85.5 32t-100 25.5t-106.5 11.5 q-244 0 -244 -405q0 -216 59 -327t170 -111q47 0 91 12.5t65 25.5l20 13v229l-215 6v262zM674 1556q-195 5 -324 17l291 393h317l289 -393l-321 -17l-127 203z" />
<glyph unicode="&#x11d;" horiz-adv-x="1476" d="M1425 858h-172q27 -76 27 -145q0 -189 -158 -301.5t-434 -112.5q-97 0 -188 16q-8 -19 -8 -43q0 -34 22.5 -47.5t75.5 -13.5h465q195 0 298 -104.5t103 -299.5q0 -135 -97.5 -238.5t-275 -159.5t-409.5 -56q-623 0 -623 340q0 145 144 266q-35 56 -35 141q0 142 143 281 q-101 55 -155 139.5t-54 192.5q0 194 161 314t433 120q190 0 338 -66l412 29zM948 -182h-418q-72 0 -147 16q-23 -51 -23 -98q0 -81 80.5 -117.5t249.5 -36.5t267 35t98 107q0 94 -107 94zM547 694q0 -87 35.5 -136.5t109.5 -49.5t106.5 52t32.5 134q0 185 -149 185 q-73 0 -104 -47.5t-31 -137.5zM612 1241q-194 4 -323 16l291 394h317l289 -394l-322 -16l-127 203z" />
<glyph unicode="&#x11e;" horiz-adv-x="1458" d="M743 827h623v-616q-25 0 -66.5 -25.5t-93 -62t-113 -73t-145.5 -62t-172 -25.5q-324 0 -509 190.5t-185 559.5q0 181 54.5 324.5t152 236t229 140.5t287.5 48q116 0 234 -24.5t179 -49.5l60 -24l-109 -348q-8 4 -22.5 11.5t-57.5 25.5t-85.5 32t-100 25.5t-106.5 11.5 q-244 0 -244 -405q0 -216 59 -327t170 -111q47 0 91 12.5t65 25.5l20 13v229l-215 6v262zM961 1919l264 -31q-1 -7 -4 -19t-16 -46.5t-31 -66t-52 -69.5t-76 -65.5t-106.5 -46.5t-140.5 -19t-141 18.5t-107.5 47.5t-76.5 64.5t-52.5 71t-30.5 64.5t-16 48l-4 18l262 31 q2 -5 5.5 -14t17 -31t31 -39t47.5 -31t65 -14q34 0 63.5 13.5t47 32t29.5 37.5t17 33z" />
<glyph unicode="&#x11f;" horiz-adv-x="1476" d="M1425 858h-172q27 -76 27 -145q0 -189 -158 -301.5t-434 -112.5q-97 0 -188 16q-8 -19 -8 -43q0 -34 22.5 -47.5t75.5 -13.5h465q195 0 298 -104.5t103 -299.5q0 -135 -97.5 -238.5t-275 -159.5t-409.5 -56q-623 0 -623 340q0 145 144 266q-35 56 -35 141q0 142 143 281 q-101 55 -155 139.5t-54 192.5q0 194 161 314t433 120q190 0 338 -66l412 29zM948 -182h-418q-72 0 -147 16q-23 -51 -23 -98q0 -81 80.5 -117.5t249.5 -36.5t267 35t98 107q0 94 -107 94zM547 694q0 -87 35.5 -136.5t109.5 -49.5t106.5 52t32.5 134q0 185 -149 185 q-73 0 -104 -47.5t-31 -137.5zM901 1604l264 -31q-1 -7 -4 -19t-16 -46.5t-31 -66t-52 -69.5t-76 -65.5t-106.5 -46.5t-140.5 -19t-141 18.5t-107.5 47.5t-76.5 64.5t-52.5 71t-30.5 64.5t-16 47l-4 19l262 31q2 -5 5.5 -14t17 -31t31 -39t47.5 -31t65 -14q34 0 63.5 13.5 t47 32.5t29.5 37.5t17 31.5z" />
<glyph unicode="&#x120;" horiz-adv-x="1458" d="M743 827h623v-616q-25 0 -66.5 -25.5t-93 -62t-113 -73t-145.5 -62t-172 -25.5q-324 0 -509 190.5t-185 559.5q0 181 54.5 324.5t152 236t229 140.5t287.5 48q116 0 234 -24.5t179 -49.5l60 -24l-109 -348q-8 4 -22.5 11.5t-57.5 25.5t-85.5 32t-100 25.5t-106.5 11.5 q-244 0 -244 -405q0 -216 59 -327t170 -111q47 0 91 12.5t65 25.5l20 13v229l-215 6v262zM1059 1812q0 -108 -76 -184t-184 -76t-184 76t-76 184q0 107 76.5 184t183.5 77t183.5 -77t76.5 -184z" />
<glyph unicode="&#x121;" horiz-adv-x="1476" d="M1425 858h-172q27 -76 27 -145q0 -189 -158 -301.5t-434 -112.5q-97 0 -188 16q-8 -19 -8 -43q0 -34 22.5 -47.5t75.5 -13.5h465q195 0 298 -104.5t103 -299.5q0 -135 -97.5 -238.5t-275 -159.5t-409.5 -56q-623 0 -623 340q0 145 144 266q-35 56 -35 141q0 142 143 281 q-101 55 -155 139.5t-54 192.5q0 194 161 314t433 120q190 0 338 -66l412 29zM948 -182h-418q-72 0 -147 16q-23 -51 -23 -98q0 -81 80.5 -117.5t249.5 -36.5t267 35t98 107q0 94 -107 94zM547 694q0 -87 35.5 -136.5t109.5 -49.5t106.5 52t32.5 134q0 185 -149 185 q-73 0 -104 -47.5t-31 -137.5zM997 1497q0 -108 -76 -184t-184 -76t-184 76t-76 184q0 107 76.5 183.5t183.5 76.5t183.5 -76.5t76.5 -183.5z" />
<glyph unicode="&#x122;" horiz-adv-x="1458" d="M743 827h623v-616q-25 0 -66.5 -25.5t-93 -62t-113 -73t-145.5 -62t-172 -25.5q-324 0 -509 190.5t-185 559.5q0 181 54.5 324.5t152 236t229 140.5t287.5 48q116 0 234 -24.5t179 -49.5l60 -24l-109 -348q-8 4 -22.5 11.5t-57.5 25.5t-85.5 32t-100 25.5t-106.5 11.5 q-244 0 -244 -405q0 -216 59 -327t170 -111q47 0 91 12.5t65 25.5l20 13v229l-215 6v262zM623 -117h368l-78 -430h-307z" />
<glyph unicode="&#x123;" horiz-adv-x="1476" d="M918 1241h-369l78 430h307zM1425 858h-172q27 -76 27 -145q0 -189 -158 -301.5t-434 -112.5q-97 0 -188 16q-8 -19 -8 -43q0 -34 22.5 -47.5t75.5 -13.5h465q195 0 298 -104.5t103 -299.5q0 -135 -97.5 -238.5t-275 -159.5t-409.5 -56q-623 0 -623 340q0 145 144 266 q-35 56 -35 141q0 142 143 281q-101 55 -155 139.5t-54 192.5q0 194 161 314t433 120q190 0 338 -66l412 29zM948 -182h-418q-72 0 -147 16q-23 -51 -23 -98q0 -81 80.5 -117.5t249.5 -36.5t267 35t98 107q0 94 -107 94zM547 694q0 -87 35.5 -136.5t109.5 -49.5t106.5 52 t32.5 134q0 185 -149 185q-73 0 -104 -47.5t-31 -137.5z" />
<glyph unicode="&#x124;" horiz-adv-x="1536" d="M1413 1425q-24 -498 -24 -723q0 -86 3 -324t3 -378h-473q6 295 8 573h-334q6 -504 6 -573h-473q8 401 8 709q0 99 -3.5 278t-7.5 309l-3 129h498q-17 -343 -23 -589h332l-15 589h498zM643 1556q-195 5 -324 17l291 393h318l289 -393l-322 -17l-127 203z" />
<glyph unicode="&#x125;" horiz-adv-x="1542" d="M608 553q0 -215 15 -553h-494q16 449 16 856q0 140 -5.5 356t-11.5 362l-5 146q103 -5 233 -5t208 3l79 2q-23 -492 -31 -800q42 104 143 165.5t259 61.5q188 0 289.5 -106t101.5 -302q0 -433 14 -739h-495q0 59 4 259t4 294q0 142 -37 215.5t-131 73.5 q-47 0 -79.5 -23.5t-48 -67t-22 -90.5t-6.5 -108zM266 1757q-194 5 -323 17l290 393h318l289 -393l-322 -17l-127 203z" />
<glyph unicode="&#x126;" horiz-adv-x="1536" d="M1536 1001h-141q-6 -166 -6 -299q0 -86 3 -324t3 -378h-473q6 295 8 573h-334q6 -504 6 -573h-473q8 401 8 709q0 74 -4 292h-133v244h127l-4 180h498q-5 -76 -9 -180h308l-5 180h498q-4 -76 -8 -180h131v-244zM930 836l-4 165h-324q-4 -114 -4 -165h332z" />
<glyph unicode="&#x127;" horiz-adv-x="1542" d="M940 1266h-317l-11 -346q42 104 143 165.5t259 61.5q188 0 289.5 -106t101.5 -302q0 -433 14 -739h-495q0 59 4 259t4 294q0 142 -37 215.5t-131 73.5q-47 0 -79.5 -23.5t-48 -67t-22 -90.5t-6.5 -108q0 -215 15 -553h-494q16 449 16 856q0 124 -8 410h-137v243h131 l-8 211q103 -5 233 -5t208 3l79 2q-4 -88 -10 -211h307v-243z" />
<glyph unicode="&#x128;" horiz-adv-x="743" d="M621 1425q-25 -498 -25 -723q0 -86 3 -324t3 -378h-475q10 401 10 709q0 99 -3.5 278t-7.5 309l-3 129h498zM641 1919l250 -31q-1 -7 -3 -19t-12.5 -46.5t-24.5 -66t-41.5 -69.5t-61 -65.5t-85 -46.5t-112.5 -19q-55 0 -121 27t-126.5 53.5t-102.5 26.5q-24 0 -42.5 -11 t-28 -26.5t-16 -31.5t-8.5 -27l-2 -11l-247 31h-2q1 7 3.5 19t13 46.5t25.5 66t42.5 69.5t61 65.5t84.5 46.5t110 19q43 0 94.5 -16.5t90.5 -37t85 -37t80 -16.5q38 0 62 27t29 53z" />
<glyph unicode="&#x129;" horiz-adv-x="757" d="M618 0h-489q14 319 14 565q0 101 -5 237t-10 222l-5 86q102 -5 230 -5t205 3l77 2q-25 -322 -25 -555q0 -213 8 -555zM647 1604l250 -31q-1 -7 -3 -19t-12.5 -46.5t-24.5 -66t-41.5 -69.5t-61 -65.5t-85 -46.5t-112.5 -19q-43 0 -94.5 16.5t-90.5 37t-85 37t-80 16.5 q-37 0 -61 -27t-30 -53l-5 -27l-248 31h-2q1 7 3.5 19t13 46.5t25.5 66t42.5 69.5t61 65.5t84.5 46.5t110 19q55 0 121 -27t126.5 -53.5t102.5 -26.5q38 0 62 26.5t29 53.5z" />
<glyph unicode="&#x12a;" horiz-adv-x="743" d="M621 1425q-25 -498 -25 -723q0 -86 3 -324t3 -378h-475q10 401 10 709q0 99 -3.5 278t-7.5 309l-3 129h498zM743 1620h-743v246h743v-246z" />
<glyph unicode="&#x12b;" horiz-adv-x="757" d="M618 0h-489q14 319 14 565q0 101 -5 237t-10 222l-5 86q102 -5 230 -5t205 3l77 2q-25 -322 -25 -555q0 -213 8 -555zM752 1305h-744v245h744v-245z" />
<glyph unicode="&#x12e;" horiz-adv-x="743" d="M528 -551v-2q-10 0 -28 1.5t-69 10.5t-97.5 23t-103.5 43t-98 66.5t-69 97.5t-28 133q0 104 92 186q0 7 2.5 123t5 282t2.5 296q0 99 -3.5 278t-7.5 309l-3 129h498q-25 -498 -25 -723q0 -86 3 -324t3 -378h-88q-29 -8 -55.5 -19.5t-57 -30t-49 -46.5t-18.5 -60 q0 -44 56 -69t112 -28l55 -3z" />
<glyph unicode="&#x12f;" horiz-adv-x="763" d="M528 -551v-2q-10 0 -28 1.5t-69 10.5t-97.5 23t-103.5 43t-98 66.5t-69 97.5t-28 133q0 108 98 192q14 220 14 551q0 101 -5 237t-10 222l-5 86q102 -5 230 -5t205 3l77 2q-25 -322 -25 -555q0 -170 9 -555h-107q-29 -8 -56 -19.5t-58 -30t-49.5 -46.5t-18.5 -60 q0 -44 56 -69t112 -28l55 -3zM643 1497q0 -108 -76 -184t-184 -76t-184 76t-76 184q0 107 76.5 183.5t183.5 76.5t183.5 -76.5t76.5 -183.5z" />
<glyph unicode="&#x130;" horiz-adv-x="743" d="M621 1425q-25 -498 -25 -723q0 -86 3 -324t3 -378h-475q10 401 10 709q0 99 -3.5 278t-7.5 309l-3 129h498zM631 1812q0 -108 -76 -184t-184 -76t-184 76t-76 184q0 107 76.5 184t183.5 77t183.5 -77t76.5 -184z" />
<glyph unicode="&#x131;" horiz-adv-x="757" d="M618 0h-489q14 319 14 565q0 101 -5 237t-10 222l-5 86q102 -5 230 -5t205 3l77 2q-25 -322 -25 -555q0 -213 8 -555z" />
<glyph unicode="&#x132;" horiz-adv-x="1247" d="M459 1425q-17 -325 -17 -475q0 -57 2 -213t2 -248h-329q8 262 8 465l-10 471h344zM541 -37q-113 0 -219 20t-156 40l-49 20l39 319q186 -53 286 -53q102 0 150.5 43.5t48.5 143.5q0 608 -6 929h489q-10 -839 -10 -950q0 -254 -150 -383t-423 -129z" />
<glyph unicode="&#x133;" horiz-adv-x="1527" d="M623 0h-490q14 319 14 565q0 101 -5 237t-10 222l-5 86q102 -5 230 -5t205 3l77 2q-25 -322 -25 -555q0 -170 9 -555zM643 1497q0 -108 -76 -184t-184 -76t-184 76t-76 184q0 107 76.5 183.5t183.5 76.5t183.5 -76.5t76.5 -183.5zM909 1110h490q-15 -445 -15 -854 q0 -139 5 -355.5t11 -363.5l5 -147q-102 5 -231.5 5t-207.5 -3l-79 -2q31 574 31 876q0 459 -9 844zM1407 1497q0 -108 -76 -184t-184 -76q-109 0 -185.5 75.5t-76.5 184.5q0 107 76.5 183.5t185.5 76.5q107 0 183.5 -76.5t76.5 -183.5z" />
<glyph unicode="&#x134;" horiz-adv-x="1056" d="M383 -37q-71 0 -134 8t-102.5 20t-68.5 24t-41 20l-12 8l38 319q111 -53 211 -53q98 0 137.5 43.5t39.5 143.5q0 554 -7 929h490q-10 -839 -10 -950q0 -127 -40.5 -225.5t-113 -160.5t-170.5 -94t-217 -32zM567 1556q-194 5 -323 17l291 393h317l289 -393l-322 -17 l-127 203z" />
<glyph unicode="&#x135;" horiz-adv-x="763" d="M145 1110h490q-14 -445 -14 -854q0 -139 5 -355.5t10 -363.5l5 -147q-102 5 -231.5 5t-207.5 -3l-79 -2q31 574 31 876q0 459 -9 844zM258 1241q-195 4 -324 16l291 394h318l288 -394l-321 -16l-127 203z" />
<glyph unicode="&#x136;" horiz-adv-x="1474" d="M596 801h84q289 442 377 637l418 -29q-270 -405 -467 -670q41 -56 160 -223.5t212 -292t156 -192.5l-516 -68q-106 88 -424 633q0 -83 3 -277t3 -319h-473q8 401 8 709q0 99 -3.5 278t-7.5 309l-3 129h498q-19 -378 -25 -624zM578 -117h368l-78 -430h-307z" />
<glyph unicode="&#x137;" horiz-adv-x="1480" d="M1006 637q157 -201 536 -627l-536 -67q-64 53 -179 227.5t-217 349.5q0 -157 8 -520h-489q14 449 14 856q0 140 -5 356t-10 362l-5 146q102 -5 231.5 -5t207.5 3l79 2q-31 -570 -31 -872v-182l76 -7q46 68 134 218.5t155 287.5l467 -51q-11 -11 -30 -29.5t-74.5 -75 t-106.5 -111t-114.5 -127.5t-110.5 -134zM563 -117h369l-78 -430h-307z" />
<glyph unicode="&#x139;" horiz-adv-x="1165" d="M608 336l547 16q-29 -202 -33 -352h-999q16 494 16 715q0 138 -2.5 315.5t-4.5 285.5l-3 109h483zM434 1974q269 -12 400 -24l-291 -394h-318z" />
<glyph unicode="&#x13a;" horiz-adv-x="763" d="M618 0h-489q14 449 14 856q0 140 -5 356t-10 362l-5 146q102 -5 231.5 -5t207.5 3l79 2q-31 -570 -31 -872q0 -506 8 -848zM336 2232q268 -12 399 -24l-291 -393h-317z" />
<glyph unicode="&#x13b;" horiz-adv-x="1165" d="M608 336l547 16q-29 -202 -33 -352h-999q16 494 16 715q0 138 -2.5 315.5t-4.5 285.5l-3 109h483zM434 -117h369l-78 -430h-307z" />
<glyph unicode="&#x13c;" horiz-adv-x="763" d="M618 0h-489q14 449 14 856q0 140 -5 356t-10 362l-5 146q102 -5 231.5 -5t207.5 3l79 2q-31 -570 -31 -872q0 -506 8 -848zM205 -117h368l-77 -430h-308z" />
<glyph unicode="&#x13d;" horiz-adv-x="1165" d="M608 336l547 16q-29 -202 -33 -352h-999q16 494 16 715q0 138 -2.5 315.5t-4.5 285.5l-3 109h483zM252 1966l125 -203l127 203q171 -10 321 -16l-288 -394h-318l-291 394q57 5 138 9t134 5z" />
<glyph unicode="&#x13e;" horiz-adv-x="1116" d="M618 0h-489q14 449 14 856q0 140 -5 356t-10 362l-5 146q102 -5 231.5 -5t207.5 3l79 2q-31 -570 -31 -872q0 -506 8 -848zM1100 1720q30 -84 30 -184q0 -55 -35 -144t-69 -150l-35 -62l-272 32l59 287l-28 221v0v0v0h1v0v0h1v0h1v0h1v0h1h1v0h1h1h1h1h1h1h1h1h1h1h1h1h1 h1h1h1h1h1h1h1h1h1h1h1h1h1h1h1h1h1h1h1h1h1h1h1h1h1h1h1h1h1h1h1h1h1h1h1h1h1h1h1h1h1h1h1h2h1h1h1h1h1h1h1h1h1h1h2h1h1h1h1h1h1h2h1h1h1h1h2h1h1h1h1h2h1h1h1h2h1h1h1h2h1h1h1h2h1h1h2h1h1h2h1h1h2h1h1h2h1h1h2h1h1h2h1h2h1h1h2h1h2h1h1h2h1h2h1h2h1h1h2h1h2h1h2h1h2h1h2 h1h2h1h2h1h2h1h2h1h2h1h2h2h1h2h1h2h1h2h1h2h2h1h2h1h2h2h1h2h1h2h2h1h2h2h1h2h2h1h2h2h1h2h2h1h2h2h1h2h2h1h2h2h2h1h2h2h1h2h2h2h1h2h2h2h1h2h2h2h2h1h2h2h2h2h1h2h2h2h2h1h2h2h2h2h2h2h1h2h2h2h2h2h2h2h1h2h2h2h2h9z" />
<glyph unicode="&#x13f;" horiz-adv-x="1165" d="M608 336l547 16q-29 -202 -33 -352h-999q16 494 16 715q0 138 -2.5 315.5t-4.5 285.5l-3 109h483zM1219 702q0 -108 -76.5 -184t-184.5 -76q-109 0 -185.5 75.5t-76.5 184.5q0 108 77 184.5t185 76.5q107 0 184 -77t77 -184z" />
<glyph unicode="&#x140;" horiz-adv-x="1177" d="M618 0h-489q14 449 14 856q0 140 -5 356t-10 362l-5 146q102 -5 231.5 -5t207.5 3l79 2q-31 -570 -31 -872q0 -506 8 -848zM1219 702q0 -108 -76.5 -184t-184.5 -76q-109 0 -185.5 75.5t-76.5 184.5q0 108 77 184.5t185 76.5q107 0 184 -77t77 -184z" />
<glyph unicode="&#x141;" horiz-adv-x="1165" d="M-16 588l-33 164l188 30l-10 643h483l-2 -561l289 49l31 -165l-322 -56v-356l547 16q-29 -202 -33 -352h-999q12 370 16 614z" />
<glyph unicode="&#x142;" horiz-adv-x="839" d="M649 709q0 -336 6 -709h-489q10 291 14 618l-157 -30l-33 164l192 39v65q0 140 -5.5 356t-10.5 362l-6 146q103 -5 233 -5t209 3l78 2q-29 -531 -31 -839l170 32l31 -165z" />
<glyph unicode="&#x143;" horiz-adv-x="1464" d="M1298 702q0 -86 3.5 -324t3.5 -378h-304q-26 33 -233.5 288.5t-335.5 426.5q0 -90 3 -331t3 -384h-336q9 401 9 711q1 98 -2.5 276.5t-6.5 308.5l-4 129h355q512 -671 532 -696l-12 696h352q-25 -498 -27 -723zM754 1974q268 -12 399 -24l-291 -394h-317z" />
<glyph unicode="&#x144;" horiz-adv-x="1536" d="M1413 0h-498q0 23 5.5 236t5.5 317q0 141 -37.5 215t-130.5 74q-48 0 -80.5 -23.5t-48.5 -67t-22.5 -90.5t-6.5 -108q0 -238 14 -553h-491q14 449 14 856q0 164 -2 254h477q-3 -117 -6 -190q42 104 142.5 165.5t255.5 61.5q196 0 295.5 -109t99.5 -299q0 -281 14 -739z M786 1659q269 -13 400 -25l-291 -393h-317z" />
<glyph unicode="&#x145;" horiz-adv-x="1464" d="M1298 702q0 -86 3.5 -324t3.5 -378h-304q-26 33 -233.5 288.5t-335.5 426.5q0 -90 3 -331t3 -384h-336q9 401 9 711q1 98 -2.5 276.5t-6.5 308.5l-4 129h355q512 -671 532 -696l-12 696h352q-25 -498 -27 -723zM573 -117h369l-78 -430h-307z" />
<glyph unicode="&#x146;" horiz-adv-x="1536" d="M1413 0h-498q0 23 5.5 236t5.5 317q0 141 -37.5 215t-130.5 74q-48 0 -80.5 -23.5t-48.5 -67t-22.5 -90.5t-6.5 -108q0 -238 14 -553h-491q14 449 14 856q0 164 -2 254h477q-3 -117 -6 -190q42 104 142.5 165.5t255.5 61.5q196 0 295.5 -109t99.5 -299q0 -281 14 -739z M584 -117h368l-78 -430h-307z" />
<glyph unicode="&#x147;" horiz-adv-x="1464" d="M1298 702q0 -86 3.5 -324t3.5 -378h-304q-26 33 -233.5 288.5t-335.5 426.5q0 -90 3 -331t3 -384h-336q9 401 9 711q1 98 -2.5 276.5t-6.5 308.5l-4 129h355q512 -671 532 -696l-12 696h352q-25 -498 -27 -723zM606 1966l125 -203l127 203q172 -10 322 -16l-289 -394 h-318l-290 394q57 5 138 9t133 5z" />
<glyph unicode="&#x148;" horiz-adv-x="1536" d="M1413 0h-498q0 23 5.5 236t5.5 317q0 141 -37.5 215t-130.5 74q-48 0 -80.5 -23.5t-48.5 -67t-22.5 -90.5t-6.5 -108q0 -238 14 -553h-491q14 449 14 856q0 164 -2 254h477q-3 -117 -6 -190q42 104 142.5 165.5t255.5 61.5q196 0 295.5 -109t99.5 -299q0 -281 14 -739z M635 1651l125 -203l127 203q171 -11 321 -17l-288 -393h-318l-291 393q57 5 138 9.5t133 6.5z" />
<glyph unicode="&#x149;" horiz-adv-x="1804" d="M1681 0h-497q0 10 5 229t5 324q0 141 -37.5 215t-130.5 74q-48 0 -80.5 -23.5t-48.5 -67t-22.5 -90.5t-6.5 -108q0 -215 15 -553h-492q15 449 15 856q0 119 -3 254h478q-1 -39 -3.5 -107t-3.5 -83q42 104 142.5 165.5t255.5 61.5q196 0 295.5 -109t99.5 -299 q0 -281 14 -739zM324 1425q30 -84 30 -184q0 -55 -35 -144t-69 -151l-35 -61l-272 33l59 286l-29 221v0v0v0h1v0v0h1v0h1v0h1v0h1h1v0h1h1h1h1h1h1h1h1h1h1h1h1h1h1h1h1h1h1h1h1h1h1h1h1h1h1h1h1h1h1h1h1h1h1h1h1h1h1h1h1h1h1h1h1h1h1h1h1h1h1h1h1h1h1h1h1h1h1h2h1h1h1h1h1 h1h1h1h1h2h1h1h1h1h1h1h2h1h1h1h1h2h1h1h1h1h2h1h1h1h2h1h1h1h2h1h1h2h1h1h1h2h1h1h2h1h1h2h1h1h2h1h1h2h1h2h1h1h2h1h1h2h1h2h1h2h1h1h2h1h2h1h2h1h2h1h2h1h1h2h1h2h1h2h1h2h1h2h2h1h2h1h2h1h2h1h2h1h2h2h1h2h1h2h1h2h2h1h2h1h2h2h1h2h2h1h2h2h1h2h1h2h2h1h2h2h2h1h2h2h1h2 h2h1h2h2h2h1h2h2h1h2h2h2h1h2h2h2h2h1h2h2h2h1h2h2h2h2h1h2h2h2h2h2h1h2h2h2h2h2h2h1h2h2h2h2h2h2h2h2h1h2h9z" />
<glyph unicode="&#x14a;" horiz-adv-x="1472" d="M1323 702q0 -80 3 -305t3 -397q0 -113 -24.5 -204t-75 -161t-134.5 -108.5t-196 -38.5q-111 0 -212 34.5t-163 84.5l94 237q116 -75 226 -75q88 0 125 56.5t37 174.5v27q-54 67 -167 204t-201 248t-181 236q0 -90 3 -331t3 -384h-336q8 401 8 711q1 98 -2 276.5t-7 308.5 l-3 129h354q513 -671 533 -696l-13 696h353q-25 -498 -27 -723z" />
<glyph unicode="&#x14b;" horiz-adv-x="1527" d="M864 -647q-137 0 -243 34t-170 85l94 280q123 -80 239 -80q85 0 113.5 52t28.5 161v668q0 141 -37.5 215t-130.5 74q-48 0 -80.5 -23.5t-48.5 -67t-22.5 -90.5t-6.5 -108q0 -238 14 -553h-491q14 449 14 856q0 164 -2 254h477l-6 -190q42 104 142.5 165.5t255.5 61.5 q196 0 295.5 -109t99.5 -299q0 -245 3 -509.5t3 -364.5q0 -127 -40.5 -225.5t-113 -160.5t-170.5 -94t-217 -32z" />
<glyph unicode="&#x14c;" horiz-adv-x="1527" d="M764 1462q321 0 501.5 -192t180.5 -557q0 -361 -181.5 -555.5t-500.5 -194.5q-317 0 -499.5 195t-182.5 555q0 364 182 556.5t500 192.5zM551 725q0 -451 215 -451q111 0 160 107.5t49 316.5q0 208 -55 332.5t-166 124.5q-104 0 -153.5 -101t-49.5 -329zM1135 1620h-744 v246h744v-246z" />
<glyph unicode="&#x14d;" horiz-adv-x="1507" d="M754 1147q314 0 492.5 -157t178.5 -431q0 -271 -179.5 -433.5t-491.5 -162.5q-310 0 -491 163t-181 433q0 274 180 431t492 157zM561 567q0 -137 48 -217t147 -80q56 0 94 22t58 63t28 87.5t8 106.5q0 82 -17 145.5t-64 108.5t-120 45q-99 0 -140.5 -71t-41.5 -210z M1124 1305h-743v245h743v-245z" />
<glyph unicode="&#x14e;" horiz-adv-x="1527" d="M764 1462q321 0 501.5 -192t180.5 -557q0 -361 -181.5 -555.5t-500.5 -194.5q-317 0 -499.5 195t-182.5 555q0 364 182 556.5t500 192.5zM551 725q0 -451 215 -451q111 0 160 107.5t49 316.5q0 208 -55 332.5t-166 124.5q-104 0 -153.5 -101t-49.5 -329zM926 1919 l264 -31q-1 -7 -4 -19t-16 -46.5t-31 -66t-52 -69.5t-76 -65.5t-106.5 -46.5t-140.5 -19t-141 18.5t-107.5 47.5t-76.5 64.5t-52.5 71t-30.5 64.5t-16 48l-4 18l262 31q2 -5 5.5 -14t17 -31t31 -39t47.5 -31t65 -14q34 0 63.5 13.5t47 32t29.5 37.5t17 33z" />
<glyph unicode="&#x14f;" horiz-adv-x="1507" d="M754 1147q314 0 492.5 -157t178.5 -431q0 -271 -179.5 -433.5t-491.5 -162.5q-310 0 -491 163t-181 433q0 274 180 431t492 157zM561 567q0 -137 48 -217t147 -80q56 0 94 22t58 63t28 87.5t8 106.5q0 82 -17 145.5t-64 108.5t-120 45q-99 0 -140.5 -71t-41.5 -210z M915 1604l265 -31q-1 -7 -4 -19t-16 -46.5t-31 -66t-52 -69.5t-76 -65.5t-106.5 -46.5t-140.5 -19t-141 18.5t-107.5 47.5t-76.5 64.5t-52.5 71t-30.5 64.5t-16 47l-4 19l262 31q2 -5 5.5 -14t17 -31t31 -39t47.5 -31t65 -14q34 0 63.5 13.5t46.5 32.5t29.5 37.5t16.5 31.5z " />
<glyph unicode="&#x150;" horiz-adv-x="1527" d="M764 1462q321 0 501.5 -192t180.5 -557q0 -361 -181.5 -555.5t-500.5 -194.5q-317 0 -499.5 195t-182.5 555q0 364 182 556.5t500 192.5zM551 725q0 -451 215 -451q111 0 160 107.5t49 316.5q0 208 -55 332.5t-166 124.5q-104 0 -153.5 -101t-49.5 -329zM592 1974 q211 -12 311 -24l-225 -394h-248zM979 1974q211 -12 311 -24l-225 -394h-248z" />
<glyph unicode="&#x151;" horiz-adv-x="1507" d="M754 1147q314 0 492.5 -157t178.5 -431q0 -271 -179.5 -433.5t-491.5 -162.5q-310 0 -491 163t-181 433q0 274 180 431t492 157zM561 567q0 -137 48 -217t147 -80q56 0 94 22t58 63t28 87.5t8 106.5q0 82 -17 145.5t-64 108.5t-120 45q-99 0 -140.5 -71t-41.5 -210z M575 1659q212 -13 312 -25l-225 -393h-248zM963 1659q211 -13 311 -25l-225 -393h-248z" />
<glyph unicode="&#x152;" horiz-adv-x="2064" d="M1438 332l585 20q-30 -202 -32 -352h-975q-112 -37 -252 -37q-317 0 -499.5 195t-182.5 555q0 364 182 556.5t500 192.5q140 0 252 -37h934v-305h-506l-8 -332q37 40 97.5 69.5t137.5 29.5q88 0 136 -49t48 -117q0 -72 -51.5 -116t-136.5 -44q-43 0 -104.5 30t-81.5 30 q-45 0 -45 -56q2 -210 2 -233zM551 725q0 -451 215 -451q111 0 160 107.5t49 316.5q0 208 -55 332.5t-166 124.5q-104 0 -153.5 -101t-49.5 -329z" />
<glyph unicode="&#x153;" horiz-adv-x="2121" d="M1991 352l90 -264q-83 -60 -220 -92.5t-305 -32.5q-246 0 -397 100q-168 -100 -405 -100q-310 0 -491 163t-181 433q0 274 180 431t492 157q240 0 413 -100q147 100 381 100q238 0 368 -99.5t130 -275.5q0 -84 -38.5 -151t-102 -107.5t-143.5 -61.5t-166 -20t-166 23 q0 -42 8 -76.5t27.5 -66.5t56.5 -50t90 -18q176 0 379 108zM1602 885q-86 0 -130 -79t-49 -200q31 -7 63 -9t70.5 5.5t68 26t49.5 57t20 94.5q0 105 -92 105zM561 567q0 -137 48 -217t147 -80q56 0 94 22t58 63t28 87.5t8 106.5q0 82 -17 145.5t-64 108.5t-120 45 q-99 0 -140.5 -71t-41.5 -210z" />
<glyph unicode="&#x154;" horiz-adv-x="1435" d="M1354 334q25 0 45.5 2t28.5 4l8 2l-43 -371q-52 -8 -158 -8q-83 0 -157.5 28.5t-130.5 75t-104 111.5t-80.5 132.5t-57.5 142.5l-107 -13q4 -304 4 -440h-473q10 401 10 709q0 99 -4 278t-8 309l-4 129h500q79 -1 147 -7t141.5 -19.5t132 -35t112.5 -56t90 -79 t57.5 -107.5t21.5 -140t-22 -146t-58.5 -119.5t-78 -86t-85.5 -56.5q120 -239 273 -239zM598 715q264 6 264 239q0 54 -18.5 91.5t-47.5 53t-64.5 24.5t-70 6.5t-63.5 -1.5q-2 -61 -2 -136t1 -159.5t1 -117.5zM711 1974q268 -12 399 -24l-291 -394h-317z" />
<glyph unicode="&#x155;" horiz-adv-x="1042" d="M920 1147q72 0 163 -21l-92 -483q-122 64 -227 62q-83 0 -126.5 -51t-43.5 -191q0 -231 18 -463h-489q16 449 16 856q0 74 -4 254h449q-1 -34 0 -154.5t0 -148.5q12 39 26.5 74t44 87t64 88.5t88 63.5t113.5 27zM586 1659q268 -13 399 -25l-291 -393h-317z" />
<glyph unicode="&#x156;" horiz-adv-x="1435" d="M1354 334q25 0 45.5 2t28.5 4l8 2l-43 -371q-52 -8 -158 -8q-83 0 -157.5 28.5t-130.5 75t-104 111.5t-80.5 132.5t-57.5 142.5l-107 -13q4 -304 4 -440h-473q10 401 10 709q0 99 -4 278t-8 309l-4 129h500q79 -1 147 -7t141.5 -19.5t132 -35t112.5 -56t90 -79 t57.5 -107.5t21.5 -140t-22 -146t-58.5 -119.5t-78 -86t-85.5 -56.5q120 -239 273 -239zM598 715q264 6 264 239q0 54 -18.5 91.5t-47.5 53t-64.5 24.5t-70 6.5t-63.5 -1.5q-2 -61 -2 -136t1 -159.5t1 -117.5zM551 -117h369l-78 -430h-307z" />
<glyph unicode="&#x157;" horiz-adv-x="1042" d="M920 1147q72 0 163 -21l-92 -483q-122 64 -227 62q-83 0 -126.5 -51t-43.5 -191q0 -231 18 -463h-489q16 449 16 856q0 74 -4 254h449q-1 -34 0 -154.5t0 -148.5q12 39 26.5 74t44 87t64 88.5t88 63.5t113.5 27zM209 -117h369l-78 -430h-307z" />
<glyph unicode="&#x158;" horiz-adv-x="1435" d="M1354 334q25 0 45.5 2t28.5 4l8 2l-43 -371q-52 -8 -158 -8q-83 0 -157.5 28.5t-130.5 75t-104 111.5t-80.5 132.5t-57.5 142.5l-107 -13q4 -304 4 -440h-473q10 401 10 709q0 99 -4 278t-8 309l-4 129h500q79 -1 147 -7t141.5 -19.5t132 -35t112.5 -56t90 -79 t57.5 -107.5t21.5 -140t-22 -146t-58.5 -119.5t-78 -86t-85.5 -56.5q120 -239 273 -239zM598 715q264 6 264 239q0 54 -18.5 91.5t-47.5 53t-64.5 24.5t-70 6.5t-63.5 -1.5q-2 -61 -2 -136t1 -159.5t1 -117.5zM588 1966l125 -203l127 203q171 -10 321 -16l-289 -394h-317 l-291 394q57 5 138 9t134 5z" />
<glyph unicode="&#x159;" horiz-adv-x="1042" d="M920 1147q72 0 163 -21l-92 -483q-122 64 -227 62q-83 0 -126.5 -51t-43.5 -191q0 -231 18 -463h-489q16 449 16 856q0 74 -4 254h449q-1 -34 0 -154.5t0 -148.5q12 39 26.5 74t44 87t64 88.5t88 63.5t113.5 27zM457 1651l125 -203l127 203q171 -11 321 -17l-289 -393 h-317l-291 393q57 5 138 9.5t133 6.5z" />
<glyph unicode="&#x15a;" horiz-adv-x="1148" d="M506 1038q0 -30 32.5 -59.5t85 -57t115.5 -59.5t126 -75t115.5 -95t85 -128.5t32.5 -166.5q0 -137 -81.5 -237t-212.5 -148.5t-294 -48.5q-80 0 -157 13t-129.5 31.5t-93 36.5t-60.5 31l-19 13l99 285q8 -5 21.5 -12t54.5 -26.5t81.5 -34t95 -26.5t101.5 -12 q141 0 141 103q0 39 -32.5 72.5t-84.5 62t-115 59t-126 72t-115 91.5t-84.5 126.5t-32.5 169.5q0 126 78.5 228.5t211 159t290.5 56.5q69 0 139.5 -12.5t121 -30t91.5 -35.5t61 -30l21 -13l-94 -274q-20 11 -53.5 27t-121 42.5t-155.5 26.5q-139 0 -139 -125zM596 1974 q268 -12 399 -24l-290 -394h-318z" />
<glyph unicode="&#x15b;" horiz-adv-x="1124" d="M1032 1024l-86 -256q-24 12 -62.5 29.5t-129.5 47t-148 29.5q-35 0 -53 -19.5t-18 -47.5q0 -25 29.5 -45.5t77 -37.5t105 -36t115 -47.5t105 -66t77 -98t29.5 -136.5q0 -167 -131.5 -272t-345.5 -105q-108 0 -207 20t-163 48.5t-113 56.5t-71 48l-22 20l111 247 q10 -7 27 -17.5t66.5 -38.5t96 -49t106 -38.5t105.5 -17.5q33 0 50.5 16.5t17.5 42.5q0 28 -28 51t-72 41.5t-98 38.5t-108 49t-98 66.5t-72 97.5t-28 135q0 89 40 160t108.5 115.5t156.5 68t187 23.5q77 0 151 -12.5t124.5 -30.5t90.5 -36.5t59 -31.5zM590 1659 q268 -13 399 -25l-291 -393h-317z" />
<glyph unicode="&#x15c;" horiz-adv-x="1148" d="M506 1038q0 -30 32.5 -59.5t85 -57t115.5 -59.5t126 -75t115.5 -95t85 -128.5t32.5 -166.5q0 -137 -81.5 -237t-212.5 -148.5t-294 -48.5q-80 0 -157 13t-129.5 31.5t-93 36.5t-60.5 31l-19 13l99 285q8 -5 21.5 -12t54.5 -26.5t81.5 -34t95 -26.5t101.5 -12 q141 0 141 103q0 39 -32.5 72.5t-84.5 62t-115 59t-126 72t-115 91.5t-84.5 126.5t-32.5 169.5q0 126 78.5 228.5t211 159t290.5 56.5q69 0 139.5 -12.5t121 -30t91.5 -35.5t61 -30l21 -13l-94 -274q-20 11 -53.5 27t-121 42.5t-155.5 26.5q-139 0 -139 -125zM475 1556 q-194 5 -323 17l290 393h318l289 -393l-322 -17l-127 203z" />
<glyph unicode="&#x15d;" horiz-adv-x="1124" d="M1032 1024l-86 -256q-24 12 -62.5 29.5t-129.5 47t-148 29.5q-35 0 -53 -19.5t-18 -47.5q0 -25 29.5 -45.5t77 -37.5t105 -36t115 -47.5t105 -66t77 -98t29.5 -136.5q0 -167 -131.5 -272t-345.5 -105q-108 0 -207 20t-163 48.5t-113 56.5t-71 48l-22 20l111 247 q10 -7 27 -17.5t66.5 -38.5t96 -49t106 -38.5t105.5 -17.5q33 0 50.5 16.5t17.5 42.5q0 28 -28 51t-72 41.5t-98 38.5t-108 49t-98 66.5t-72 97.5t-28 135q0 89 40 160t108.5 115.5t156.5 68t187 23.5q77 0 151 -12.5t124.5 -30.5t90.5 -36.5t59 -31.5zM459 1241 q-195 4 -324 16l291 394h317l289 -394l-321 -16l-127 203z" />
<glyph unicode="&#x15e;" horiz-adv-x="1148" d="M289 -508l35 139q89 -32 165 -32q117 0 117 73q0 34 -22.5 54t-59.5 20q-21 0 -42.5 -3.5t-32.5 -6.5l-11 -4l-57 28l78 205q-72 3 -140 17t-114.5 31.5t-83 34.5t-53.5 28l-17 12l99 285q8 -5 21.5 -12t54.5 -26.5t81.5 -34t95 -26.5t101.5 -12q141 0 141 103 q0 39 -32.5 72.5t-84.5 62t-115 59t-126 72t-115 91.5t-84.5 126.5t-32.5 169.5q0 126 78.5 228.5t211 159t290.5 56.5q69 0 139.5 -12.5t121 -30t91.5 -35.5t61 -30l21 -13l-94 -274q-20 11 -53.5 27t-121 42.5t-155.5 26.5q-139 0 -139 -125q0 -30 32.5 -59.5t85 -57 t115.5 -59.5t126 -75t115.5 -95t85 -128.5t32.5 -166.5q0 -177 -129.5 -287.5t-335.5 -138.5l-17 -92q118 -6 190.5 -58t72.5 -151q0 -74 -57 -126.5t-135.5 -74.5t-166.5 -22q-59 0 -117 11.5t-86 22.5z" />
<glyph unicode="&#x15f;" horiz-adv-x="1124" d="M283 -508l34 139q90 -32 166 -32q117 0 117 73q0 34 -22.5 54t-59.5 20q-21 0 -42.5 -3.5t-32.5 -6.5l-11 -4l-57 28l80 213q-81 10 -156 33t-123.5 48t-85.5 48t-54 38l-16 16l111 247q10 -7 27 -17.5t66.5 -38.5t96 -49t106 -38.5t105.5 -17.5q33 0 50.5 16.5 t17.5 42.5q0 28 -28 51t-72 41.5t-98 38.5t-108 49t-98 66.5t-72 97.5t-28 135q0 89 40 160t108.5 115.5t156.5 68t187 23.5q77 0 151 -12.5t124.5 -30.5t90.5 -36.5t59 -31.5l19 -12l-86 -256q-24 12 -62.5 29.5t-129.5 47t-148 29.5q-35 0 -53 -19.5t-18 -47.5 q0 -25 29.5 -45.5t77 -37.5t105 -36t115 -47.5t105 -66t77 -98t29.5 -136.5q0 -160 -122.5 -264t-323.5 -113l-17 -84q118 -6 190 -58t72 -151q0 -56 -32.5 -100.5t-85.5 -70t-114.5 -39t-125.5 -13.5q-59 0 -117 11.5t-86 22.5z" />
<glyph unicode="&#x160;" horiz-adv-x="1148" d="M506 1038q0 -30 32.5 -59.5t85 -57t115.5 -59.5t126 -75t115.5 -95t85 -128.5t32.5 -166.5q0 -137 -81.5 -237t-212.5 -148.5t-294 -48.5q-80 0 -157 13t-129.5 31.5t-93 36.5t-60.5 31l-19 13l99 285q8 -5 21.5 -12t54.5 -26.5t81.5 -34t95 -26.5t101.5 -12 q141 0 141 103q0 39 -32.5 72.5t-84.5 62t-115 59t-126 72t-115 91.5t-84.5 126.5t-32.5 169.5q0 126 78.5 228.5t211 159t290.5 56.5q69 0 139.5 -12.5t121 -30t91.5 -35.5t61 -30l21 -13l-94 -274q-20 11 -53.5 27t-121 42.5t-155.5 26.5q-139 0 -139 -125zM471 1966 l125 -203l127 203q171 -10 321 -16l-288 -394h-318l-291 394q57 5 138 9t133 5z" />
<glyph unicode="&#x161;" horiz-adv-x="1124" d="M1032 1024l-86 -256q-24 12 -62.5 29.5t-129.5 47t-148 29.5q-35 0 -53 -19.5t-18 -47.5q0 -25 29.5 -45.5t77 -37.5t105 -36t115 -47.5t105 -66t77 -98t29.5 -136.5q0 -167 -131.5 -272t-345.5 -105q-108 0 -207 20t-163 48.5t-113 56.5t-71 48l-22 20l111 247 q10 -7 27 -17.5t66.5 -38.5t96 -49t106 -38.5t105.5 -17.5q33 0 50.5 16.5t17.5 42.5q0 28 -28 51t-72 41.5t-98 38.5t-108 49t-98 66.5t-72 97.5t-28 135q0 89 40 160t108.5 115.5t156.5 68t187 23.5q77 0 151 -12.5t124.5 -30.5t90.5 -36.5t59 -31.5zM459 1651l125 -203 l127 203q171 -11 321 -17l-289 -393h-317l-291 393q57 5 138 9.5t133 6.5z" />
<glyph unicode="&#x162;" horiz-adv-x="1120" d="M1071 1075h-276q-11 -244 -11 -373q0 -86 3.5 -324t3.5 -378h-474q9 401 9 709q0 135 -7 364h-319q29 202 33 352h1087zM383 -117h369l-78 -430h-307z" />
<glyph unicode="&#x163;" horiz-adv-x="1067" d="M954 326l93 -263q-145 -100 -383 -100q-104 0 -190.5 25.5t-153.5 77t-104.5 137t-37.5 198.5q0 262 4 398l-162 -2l7 149l489 516h148l2 -352h325l-22 -305q-148 0 -312 2q-6 -208 -6 -385q0 -88 20.5 -123t92.5 -35q26 0 49.5 4t46 12.5t35.5 14.5t34.5 17.5t24.5 13.5 zM377 -117h368l-77 -430h-308z" />
<glyph unicode="&#x164;" horiz-adv-x="1120" d="M1071 1075h-276q-11 -244 -11 -373q0 -86 3.5 -324t3.5 -378h-474q9 401 9 709q0 135 -7 364h-319q29 202 33 352h1087zM434 1966l125 -203l127 203q172 -10 322 -16l-289 -394h-318l-290 394q57 5 138 9t133 5z" />
<glyph unicode="&#x165;" horiz-adv-x="1130" d="M954 326l93 -263q-145 -100 -383 -100q-104 0 -190.5 25.5t-153.5 77t-104.5 137t-37.5 198.5q0 262 4 398l-162 -2l7 149l489 516h148l2 -352h325l-22 -305q-148 0 -312 2q-6 -208 -6 -385q0 -88 20.5 -123t92.5 -35q26 0 49.5 4t46 12.5t35.5 14.5t34.5 17.5t24.5 13.5 zM1133 1720q30 -84 30 -184q0 -55 -29 -140t-58 -142l-29 -58l-295 16l59 287l-29 221v0v0v0h1v0v0h1v0h1v0h1v0h1h1v0h1h1h1h1h1h1h1h1h1h1h1h1h1h1h1h1h1h1h1h1h1h1h1h1h1h1h1h1h1h1h1h1h1h1h1h1h1h1h1h1h1h1h1h1h1h1h1h1h1h1h1h1h1h1h1h1h1h1h2h1h1h1h1h1h1h1h1h1h2h1h1 h1h1h1h1h2h1h1h1h1h2h1h1h1h1h2h1h1h1h2h1h1h1h2h1h1h2h1h1h1h2h1h1h2h1h1h2h1h1h2h1h1h2h1h2h1h1h2h1h1h2h1h2h1h2h1h1h2h1h2h1h2h1h2h1h2h1h1h2h1h2h1h2h1h2h1h2h2h1h2h1h2h1h2h1h2h1h2h2h1h2h1h2h1h2h2h1h2h1h2h2h1h2h2h1h2h2h1h2h1h2h2h1h2h2h2h1h2h2h1h2h2h1h2h2h2h1h2 h2h1h2h2h2h1h2h2h2h2h1h2h2h2h1h2h2h2h2h1h2h2h2h2h2h1h2h2h2h2h2h2h1h2h2h2h2h2h2h2h2h1h2h9z" />
<glyph unicode="&#x166;" horiz-adv-x="1120" d="M1032 537h-248q0 -3 3.5 -213t3.5 -324h-474q7 270 9 537h-234v243h234l-7 293h-319q29 202 33 352h1087l-49 -350h-276q-11 -183 -11 -295h248v-243z" />
<glyph unicode="&#x167;" horiz-adv-x="1067" d="M965 442h-314v-20q0 -88 20.5 -123t92.5 -35q26 0 49.5 4t46 12.5t35.5 14.5t34.5 17.5t24.5 13.5l93 -263q-145 -100 -383 -100q-104 0 -190.5 25.5t-153.5 77t-104.5 137t-37.5 198.5v41h-153v244h155q0 88 2 113l-162 -2l7 149l489 516h148l2 -352h325l-22 -305 q-148 0 -312 2l-4 -121h312v-244z" />
<glyph unicode="&#x168;" horiz-adv-x="1419" d="M969 1425h348v-860q0 -602 -586 -602q-295 0 -462 159t-167 443v860h494q-14 -590 -14 -872q0 -150 44.5 -214.5t151.5 -64.5q191 0 191 277v874zM999 1919l250 -31q-1 -7 -3 -19t-12.5 -46.5t-24.5 -66t-41.5 -69.5t-61 -65.5t-85 -46.5t-112.5 -19q-55 0 -121 27 t-126.5 53.5t-102.5 26.5q-37 0 -61 -26.5t-30 -53.5l-5 -27l-248 31h-2q1 7 3.5 19t13 46.5t25.5 66t42.5 69.5t61 65.5t84.5 46.5t110 19q43 0 94.5 -16.5t90.5 -37t85 -37t80 -16.5q38 0 62 27t29 53z" />
<glyph unicode="&#x169;" horiz-adv-x="1488" d="M1364 1110q-14 -449 -14 -856q0 -91 22 -254h-473l-18 190q-88 -227 -377 -227q-180 0 -280.5 114t-100.5 329q0 67 2 240t2.5 267t-2.5 197h481q0 -10 -5 -229t-5 -324q0 -71 6 -120t21.5 -89.5t45.5 -60t76 -19.5q36 0 62 16.5t40.5 42t23.5 65.5t11.5 78t2.5 87 q0 171 -17 553h496zM1008 1604l249 -31q-1 -7 -3 -19t-12.5 -46.5t-24.5 -66t-41 -69.5t-60.5 -65.5t-85 -46.5t-112.5 -19q-55 0 -121 26.5t-127 53.5t-103 27q-37 0 -61 -27t-30 -53l-5 -27l-248 31h-2q1 7 3.5 19t13 46.5t25.5 66t42.5 69.5t61 65.5t84.5 46.5t110 19 q55 0 121 -27t126.5 -53.5t102.5 -26.5q24 0 43 11t28.5 26.5t16 31.5t7.5 27z" />
<glyph unicode="&#x16a;" horiz-adv-x="1419" d="M969 1425h348v-860q0 -602 -586 -602q-295 0 -462 159t-167 443v860h494q-14 -590 -14 -872q0 -150 44.5 -214.5t151.5 -64.5q191 0 191 277v874zM1120 1620h-743v246h743v-246z" />
<glyph unicode="&#x16b;" horiz-adv-x="1488" d="M1364 1110q-14 -449 -14 -856q0 -91 22 -254h-473l-18 190q-88 -227 -377 -227q-180 0 -280.5 114t-100.5 329q0 67 2 240t2.5 267t-2.5 197h481q0 -10 -5 -229t-5 -324q0 -71 6 -120t21.5 -89.5t45.5 -60t76 -19.5q36 0 62 16.5t40.5 42t23.5 65.5t11.5 78t2.5 87 q0 171 -17 553h496zM1112 1305h-743v245h743v-245z" />
<glyph unicode="&#x16c;" horiz-adv-x="1419" d="M969 1425h348v-860q0 -602 -586 -602q-295 0 -462 159t-167 443v860h494q-14 -590 -14 -872q0 -150 44.5 -214.5t151.5 -64.5q191 0 191 277v874zM909 1919l265 -31q-1 -7 -4 -19t-16 -46.5t-31 -66t-52 -69.5t-76 -65.5t-106.5 -46.5t-140.5 -19t-141 18.5t-107.5 47.5 t-76.5 64.5t-53 71t-31 64.5t-16 48l-4 18l263 31q2 -5 5.5 -14t17 -31t31 -39t47.5 -31t65 -14q34 0 63.5 13.5t46.5 32t29.5 37.5t16.5 33z" />
<glyph unicode="&#x16d;" horiz-adv-x="1488" d="M1364 1110q-14 -449 -14 -856q0 -91 22 -254h-473l-18 190q-88 -227 -377 -227q-180 0 -280.5 114t-100.5 329q0 67 2 240t2.5 267t-2.5 197h481q0 -10 -5 -229t-5 -324q0 -71 6 -120t21.5 -89.5t45.5 -60t76 -19.5q36 0 62 16.5t40.5 42t23.5 65.5t11.5 78t2.5 87 q0 171 -17 553h496zM903 1604l264 -31q-1 -7 -4 -19t-16 -46.5t-31 -66t-52 -69.5t-76 -65.5t-106.5 -46.5t-140.5 -19t-141 18.5t-107.5 47.5t-76.5 64.5t-52.5 71t-30.5 64.5t-16 47l-4 19l262 31q2 -5 5.5 -14t17 -31t31 -39t47.5 -31t65 -14q34 0 63.5 13.5t47 32.5 t29.5 37.5t17 31.5z" />
<glyph unicode="&#x16e;" horiz-adv-x="1419" d="M969 1425h348v-860q0 -602 -586 -602q-295 0 -462 159t-167 443v860h494q-14 -590 -14 -872q0 -150 44.5 -214.5t151.5 -64.5q191 0 191 277v874zM745 2073q133 0 216 -79t83 -210q0 -132 -83 -210.5t-216 -78.5t-216 78.5t-83 210.5q0 131 83 210t216 79zM745 1667 q53 0 85 31.5t32 85.5q0 53 -32.5 86t-84.5 33t-84 -33t-32 -86q0 -54 31.5 -85.5t84.5 -31.5z" />
<glyph unicode="&#x16f;" horiz-adv-x="1488" d="M1364 1110q-14 -449 -14 -856q0 -91 22 -254h-473l-18 190q-88 -227 -377 -227q-180 0 -280.5 114t-100.5 329q0 67 2 240t2.5 267t-2.5 197h481q0 -10 -5 -229t-5 -324q0 -71 6 -120t21.5 -89.5t45.5 -60t76 -19.5q36 0 62 16.5t40.5 42t23.5 65.5t11.5 78t2.5 87 q0 171 -17 553h496zM739 1757q133 0 216 -79t83 -210q0 -132 -82.5 -210t-216.5 -78t-216.5 78t-82.5 210q0 131 83 210t216 79zM739 1352q53 0 85 31t32 85q0 53 -32.5 86t-84.5 33t-84 -33t-32 -86q0 -54 31.5 -85t84.5 -31z" />
<glyph unicode="&#x170;" horiz-adv-x="1419" d="M969 1425h348v-860q0 -602 -586 -602q-295 0 -462 159t-167 443v860h494q-14 -590 -14 -872q0 -150 44.5 -214.5t151.5 -64.5q191 0 191 277v874zM584 1974q211 -12 311 -24l-225 -394h-248zM971 1974q211 -12 311 -24l-225 -394h-248z" />
<glyph unicode="&#x171;" horiz-adv-x="1488" d="M1364 1110q-14 -449 -14 -856q0 -91 22 -254h-473l-18 190q-88 -227 -377 -227q-180 0 -280.5 114t-100.5 329q0 67 2 240t2.5 267t-2.5 197h481q0 -10 -5 -229t-5 -324q0 -71 6 -120t21.5 -89.5t45.5 -60t76 -19.5q36 0 62 16.5t40.5 42t23.5 65.5t11.5 78t2.5 87 q0 171 -17 553h496zM563 1659q211 -13 311 -25l-225 -393h-248zM950 1659q212 -13 312 -25l-226 -393h-248z" />
<glyph unicode="&#x172;" horiz-adv-x="1419" d="M975 -551v-2q-6 0 -17 1t-45 5.5t-66.5 11.5t-77 21.5t-83 32.5t-77.5 47.5t-66 64.5t-44.5 84.5t-17.5 106.5q0 91 66 160q-213 44 -329 195.5t-116 387.5v860h494q-14 -590 -14 -872q0 -150 44.5 -214.5t151.5 -64.5q191 0 191 277v874h348v-860q0 -509 -418 -588 q-119 -50 -119 -133q0 -44 56 -69t112 -28l56 -3z" />
<glyph unicode="&#x173;" horiz-adv-x="1488" d="M1300 -551v-2q-10 0 -28 1.5t-69 10.5t-97.5 23t-103.5 43t-98 66.5t-69 97.5t-28 133q0 104 90 184l-16 184q-88 -227 -377 -227q-180 0 -280.5 114t-100.5 329q0 67 2 240t2.5 267t-2.5 197h481q0 -10 -5 -229t-5 -324q0 -71 6 -120t21.5 -89.5t45.5 -60t76 -19.5 q36 0 62 16.5t40.5 42t23.5 65.5t11.5 78t2.5 87q0 171 -17 553h496q-14 -449 -14 -856q0 -91 22 -254h-86q-29 -8 -55.5 -19.5t-57 -30t-49 -46.5t-18.5 -60q0 -44 56 -69t112 -28l55 -3z" />
<glyph unicode="&#x174;" horiz-adv-x="2324" d="M1942 1425h342q-10 -137 -53.5 -334t-98 -380.5t-107 -347.5t-88.5 -263l-36 -100h-519l-229 707q-47 -166 -104.5 -342.5t-90.5 -270.5l-34 -94h-459l-465 1425q299 -3 539 7l272 -1049q14 46 37 124t73.5 289t75.5 386l-79 243q487 0 538 7l273 -1049q8 24 21 66.5 t47 169t61 247t52.5 277t31.5 282.5zM1036 1556q-194 5 -323 17l291 393h317l289 -393l-322 -17l-127 203z" />
<glyph unicode="&#x175;" horiz-adv-x="2033" d="M1851 1188q4 -10 11 -28.5t24.5 -80.5t30.5 -129.5t24 -171t11 -209.5q0 -101 -18 -188t-60 -165t-106 -133t-162 -87.5t-222 -32.5q-290 0 -421 221q-131 -221 -375 -221q-220 0 -342.5 134.5t-122.5 373.5q0 69 2 223t2.5 235.5t-2.5 180.5h481q0 -5 -5 -232.5 t-5 -332.5q0 -142 32.5 -209.5t121.5 -67.5q65 0 101 66.5t36 163.5q0 70 2 216.5t2.5 222t-2.5 173.5h481q0 -10 -5 -229t-5 -324q0 -145 32.5 -217t120.5 -72q44 0 74.5 23.5t45 67t20.5 90.5t6 108q0 115 -33.5 232t-66.5 177l-33 60zM891 1241q-195 4 -324 16l291 394 h318l288 -394l-321 -16l-127 203z" />
<glyph unicode="&#x176;" horiz-adv-x="1388" d="M1430 1425q-304 -550 -494 -864q0 -43 3 -238.5t3 -322.5h-473q6 235 8 543q-93 150 -261.5 436.5t-256.5 445.5h553q6 -12 50 -105.5t74 -155t73 -144t73 -129.5q44 80 135.5 284.5t114.5 249.5h398zM643 1556q-195 5 -324 17l291 393h318l289 -393l-322 -17l-127 203z " />
<glyph unicode="&#x177;" horiz-adv-x="1241" d="M850 1110h350q0 -250 -53 -482t-148.5 -424.5t-233.5 -351.5t-304.5 -269t-365 -170t-410.5 -60l-105 289q190 0 340.5 31t261.5 95t170.5 168.5t59.5 243.5q0 63 -15.5 120t-41.5 99.5t-60 80t-72 63.5t-75.5 47.5t-71.5 34.5t-60 21.5t-42 11.5l-15 4l102 485 q9 -2 25 -5t65 -17.5t97 -33t112.5 -53t120 -76t112.5 -103.5t97 -134t65 -169t25 -206q25 69 41.5 137t28.5 163.5t11 203t-11 256.5zM553 1241q-195 4 -324 16l291 394h318l288 -394l-321 -16l-127 203z" />
<glyph unicode="&#x178;" horiz-adv-x="1388" d="M1430 1425q-304 -550 -494 -864q0 -43 3 -238.5t3 -322.5h-473q6 235 8 543q-93 150 -261.5 436.5t-256.5 445.5h553q6 -12 50 -105.5t74 -155t73 -144t73 -129.5q44 80 135.5 284.5t114.5 249.5h398zM729 1774q0 -90 -63 -154t-152 -64t-152 64t-63 154q0 89 63 152 t152 63t152 -63t63 -152zM1237 1774q0 -90 -63 -154t-152 -64t-152 64t-63 154q0 89 63 152t152 63t152 -63t63 -152z" />
<glyph unicode="&#x179;" horiz-adv-x="1243" d="M1192 1425l-2 -151l-522 -948l514 4v-330h-1123l-8 172l520 936l-499 -4l-13 321h1133zM662 1974q268 -12 399 -24l-291 -394h-317z" />
<glyph unicode="&#x17a;" horiz-adv-x="1243" d="M1192 1110l-2 -160l-500 -653q345 9 492 -10v-324q-133 25 -413.5 34.5t-494.5 6.5l-215 -4l-8 170l500 641l-479 -4l-13 303h1133zM641 1659q268 -13 399 -25l-290 -393h-318z" />
<glyph unicode="&#x17b;" horiz-adv-x="1243" d="M1192 1425l-2 -151l-522 -948l514 4v-330h-1123l-8 172l520 936l-499 -4l-13 321h1133zM881 1812q0 -108 -76 -184t-184 -76t-184.5 76t-76.5 184q0 107 77 184t184 77t183.5 -77t76.5 -184z" />
<glyph unicode="&#x17c;" horiz-adv-x="1243" d="M1192 1110l-2 -160l-500 -653q345 9 492 -10v-324q-133 25 -413.5 34.5t-494.5 6.5l-215 -4l-8 170l500 641l-479 -4l-13 303h1133zM881 1497q0 -108 -76 -184t-184 -76t-184.5 76t-76.5 184q0 107 77 183.5t184 76.5t183.5 -76.5t76.5 -183.5z" />
<glyph unicode="&#x17d;" horiz-adv-x="1243" d="M1192 1425l-2 -151l-522 -948l514 4v-330h-1123l-8 172l520 936l-499 -4l-13 321h1133zM496 1966l125 -203l127 203q171 -10 321 -16l-289 -394h-317l-291 394q57 5 138 9t134 5z" />
<glyph unicode="&#x17e;" horiz-adv-x="1243" d="M1192 1110l-2 -160l-500 -653q345 9 492 -10v-324q-133 25 -413.5 34.5t-494.5 6.5l-215 -4l-8 170l500 641l-479 -4l-13 303h1133zM496 1651l125 -203l127 203q171 -11 321 -17l-289 -393h-317l-291 393q57 5 138 9.5t134 6.5z" />
<glyph unicode="&#x192;" d="M926 1153q-85 0 -115.5 -52.5t-30.5 -160.5q0 -77 2 -143h346l-22 -246h-307q3 -58 5.5 -439t2.5 -464h-473q0 809 -2 903h-168l18 231l133 6q-8 114 -8 173q0 127 40 224t113.5 157t171 90t216.5 30q140 0 246.5 -30.5t167.5 -79.5l-95 -281q-120 82 -241 82z" />
<glyph unicode="&#x218;" horiz-adv-x="1148" d="M506 1038q0 -30 32.5 -59.5t85 -57t115.5 -59.5t126 -75t115.5 -95t85 -128.5t32.5 -166.5q0 -137 -81.5 -237t-212.5 -148.5t-294 -48.5q-80 0 -157 13t-129.5 31.5t-93 36.5t-60.5 31l-19 13l99 285q8 -5 21.5 -12t54.5 -26.5t81.5 -34t95 -26.5t101.5 -12 q141 0 141 103q0 39 -32.5 72.5t-84.5 62t-115 59t-126 72t-115 91.5t-84.5 126.5t-32.5 169.5q0 126 78.5 228.5t211 159t290.5 56.5q69 0 139.5 -12.5t121 -30t91.5 -35.5t61 -30l21 -13l-94 -274q-20 11 -53.5 27t-121 42.5t-155.5 26.5q-139 0 -139 -125zM403 -117h369 l-78 -430h-307z" />
<glyph unicode="&#x219;" horiz-adv-x="1124" d="M1032 1024l-86 -256q-24 12 -62.5 29.5t-129.5 47t-148 29.5q-35 0 -53 -19.5t-18 -47.5q0 -25 29.5 -45.5t77 -37.5t105 -36t115 -47.5t105 -66t77 -98t29.5 -136.5q0 -167 -131.5 -272t-345.5 -105q-108 0 -207 20t-163 48.5t-113 56.5t-71 48l-22 20l111 247 q10 -7 27 -17.5t66.5 -38.5t96 -49t106 -38.5t105.5 -17.5q33 0 50.5 16.5t17.5 42.5q0 28 -28 51t-72 41.5t-98 38.5t-108 49t-98 66.5t-72 97.5t-28 135q0 89 40 160t108.5 115.5t156.5 68t187 23.5q77 0 151 -12.5t124.5 -30.5t90.5 -36.5t59 -31.5zM410 -117h368 l-78 -430h-307z" />
<glyph unicode="&#x21a;" horiz-adv-x="1120" d="M1071 1075h-276q-11 -244 -11 -373q0 -86 3.5 -324t3.5 -378h-474q9 401 9 709q0 135 -7 364h-319q29 202 33 352h1087zM383 -117h369l-78 -430h-307z" />
<glyph unicode="&#x21b;" horiz-adv-x="1067" d="M954 326l93 -263q-145 -100 -383 -100q-104 0 -190.5 25.5t-153.5 77t-104.5 137t-37.5 198.5q0 262 4 398l-162 -2l7 149l489 516h148l2 -352h325l-22 -305q-148 0 -312 2q-6 -208 -6 -385q0 -88 20.5 -123t92.5 -35q26 0 49.5 4t46 12.5t35.5 14.5t34.5 17.5t24.5 13.5 zM377 -117h368l-77 -430h-308z" />
<glyph unicode="&#x237;" horiz-adv-x="763" d="M145 1110h490q-14 -445 -14 -854q0 -139 5 -355.5t10 -363.5l5 -147q-102 5 -231.5 5t-207.5 -3l-79 -2q31 574 31 876q0 459 -9 844z" />
<glyph unicode="&#x2b0;" horiz-adv-x="860" d="M338 1335q0 -159 8 -315h-280q6 256 6 487q0 79 -3 201.5t-5 205.5l-3 83q59 -3 133.5 -3t119.5 2l44 1q-14 -279 -18 -455q53 129 227 129q108 0 166 -59.5t58 -171.5q0 -268 8 -420h-283q0 34 3 148t3 167q0 80 -21 122t-75 42q-88 0 -88 -164z" />
<glyph unicode="&#x2c6;" horiz-adv-x="999" d="M375 1241q-195 4 -324 16l291 394h317l289 -394l-321 -16l-127 203z" />
<glyph unicode="&#x2c7;" horiz-adv-x="999" d="M375 1651l125 -203l127 203q171 -11 321 -17l-289 -393h-317l-291 393q57 5 138 9.5t133 6.5z" />
<glyph unicode="&#x2d8;" horiz-adv-x="956" d="M641 1604l264 -31q-1 -7 -4 -19t-16 -46.5t-31 -66t-52 -69.5t-76 -65.5t-106.5 -46.5t-140.5 -19t-141 18.5t-107.5 47.5t-76.5 64.5t-52.5 71t-30.5 64.5t-16 47l-4 19l262 31q2 -5 5.5 -14t17 -31t31 -39t47.5 -31t65 -14q34 0 63.5 13.5t47 32.5t29.5 37.5t17 31.5z " />
<glyph unicode="&#x2d9;" horiz-adv-x="622" d="M571 1497q0 -108 -76 -184t-184 -76t-184 76t-76 184q0 107 76.5 183.5t183.5 76.5t183.5 -76.5t76.5 -183.5z" />
<glyph unicode="&#x2da;" horiz-adv-x="700" d="M350 1757q133 0 216 -79t83 -210q0 -132 -82.5 -210t-216.5 -78t-216.5 78t-82.5 210q0 131 83 210t216 79zM350 1352q53 0 85 31t32 85q0 53 -32.5 86t-84.5 33t-84.5 -33t-32.5 -86q0 -54 32 -85t85 -31z" />
<glyph unicode="&#x2db;" horiz-adv-x="624" d="M545 -551v-2q-6 0 -17 1t-45 5.5t-66.5 11.5t-77 21.5t-83 32.5t-77.5 47.5t-66 64.5t-44.5 84.5t-17.5 106.5q0 56 27 106t71 85.5t96.5 65.5t105 49.5t96.5 33t71 18.5l27 6v-2l28 -174q-5 -1 -13 -3t-31 -8.5t-44 -15t-47 -22.5t-44.5 -30t-31 -39t-12.5 -48 q0 -44 56 -69t112 -28l55 -3z" />
<glyph unicode="&#x2dc;" horiz-adv-x="1138" d="M838 1604l249 -31q-1 -7 -3 -19t-12.5 -46.5t-24.5 -66t-41 -69.5t-60.5 -65.5t-85 -46.5t-112.5 -19q-55 0 -121 26.5t-127 53.5t-103 27q-37 0 -61 -27t-30 -53l-5 -27l-248 31h-2q1 7 3.5 19t13 46.5t25.5 66t42.5 69.5t61 65.5t84.5 46.5t110 19q55 0 121 -27 t126.5 -53.5t102.5 -26.5q24 0 43 11t28.5 26.5t16 31.5t7.5 27z" />
<glyph unicode="&#x2dd;" horiz-adv-x="962" d="M264 1659q211 -13 311 -25l-225 -393h-248zM651 1659q212 -13 312 -25l-226 -393h-248z" />
<glyph unicode="&#x394;" horiz-adv-x="1400" d="M1040 1425l351 -1425h-1381l350 1425h680zM530 276h332l-166 889z" />
<glyph unicode="&#x3a9;" horiz-adv-x="1642" d="M1200 395l361 17q-29 -262 -33 -412h-590l-6 555q4 4 9.5 11.5t21 35t27 60t21 87t9.5 115.5q0 59 -11.5 110.5t-35.5 95t-66 68.5t-98 25q-193 0 -193 -280q0 -65 9.5 -122.5t23 -92.5t27.5 -60.5t24 -35.5l9 -11l-4 -561h-590q-2 67 -10 170t-15 172l-8 70l360 -17v92 q-149 68 -222 168.5t-73 266.5q0 236 183 388t489 152q154 0 281.5 -41t212.5 -113t131.5 -171t46.5 -215q0 -166 -72 -266.5t-219 -168.5v-92z" />
<glyph unicode="&#x3bc;" horiz-adv-x="1495" d="M1370 254q0 -83 23 -254h-473l-19 190q-76 -190 -291 -221q0 -272 8 -579h-489q14 449 14 856q0 140 -5 356t-10 362l-5 146q102 -5 231.5 -5t207.5 3l79 2q-17 -293 -25 -571q2 -135 35 -203t119 -68q44 0 74 23.5t45 67t20.5 90.5t5.5 108q0 193 -16 553h485 q-14 -449 -14 -856z" />
<glyph unicode="&#x3c0;" horiz-adv-x="1611" d="M1548 803h-170q-6 -208 -6 -381q0 -158 156 -158l-33 -301q-151 0 -259 22.5t-185 73.5t-114.5 135.5t-37.5 206.5q0 260 4 396l-192 2q-4 -82 -4 -244q0 -213 8 -555h-488l6 797h-192l6 313h1524z" />
<glyph unicode="&#x2013;" horiz-adv-x="1073" d="M41 735h991q-3 -63 -3 -142.5t1 -128.5l2 -48h-991v319z" />
<glyph unicode="&#x2014;" horiz-adv-x="2060" d="M0 735h2060q-4 -63 -4.5 -142.5t0.5 -128.5l2 -48h-2058v319z" />
<glyph unicode="&#x2018;" horiz-adv-x="546" d="M66 762l-4 8q-4 9 -11 28.5t-14 44.5t-12 64.5t-5 81.5q0 51 21.5 117.5t51.5 125t61 109.5t52.5 81t22.5 30l277 -49l-88 -387l43 -254v0v0v0v0h-1v0v0h-1v0h-1v0h-1v0h-1v0h-1h-1v0h-1h-1h-1h-1h-1h-1h-1h-1h-1h-1h-1h-1h-1h-1h-1h-1h-1h-1h-1h-1h-1h-1h-1h-1h-1h-1h-1 h-1h-1h-1h-1h-1h-1h-1h-1h-1h-1h-1h-1h-1h-1h-1h-1h-1h-1h-1h-1h-1h-1h-1h-1h-1h-1h-1h-1h-1h-1h-1h-1h-1h-1h-1h-1h-1h-1h-2h-1h-1h-1h-1h-1h-1h-1h-1h-1h-2h-1h-1h-1h-1h-1h-1h-2h-1h-1h-1h-1h-1h-2h-1h-1h-1h-1h-2h-1h-1h-1h-2h-1h-1h-1h-1h-2h-1h-1h-2h-1h-1h-1h-2h-1 h-1h-2h-1h-1h-2h-1h-1h-2h-1h-1h-2h-1h-1h-2h-1h-1h-2h-1h-1h-2h-1h-2h-1h-1h-2h-1h-2h-1h-1h-2h-1h-2h-1h-2h-1h-1h-2h-1h-2h-1h-2h-1h-2h-1h-2h-1h-2h-1h-2h-1h-2h-1h-2h-1h-2h-1h-2h-1h-2h-1h-2h-2h-1h-2h-1h-2h-1h-2h-1h-2h-2h-1h-2h-1h-2h-2h-1h-2h-1h-2h-2h-1h-2h-2 h-1h-2h-1h-2h-2h-1h-2h-2h-1h-2h-2h-1h-2h-2h-1h-2h-2h-1h-2h-2h-2h-1h-2h-2h-1h-2h-2h-2h-1h-2h-2h-2h-1h-2h-2h-2h-1h-2h-2h-2h-1h-2h-2h-2h-2h-1h-2h-2h-2h-2h-1h-2h-2h-2h-2h-2h-1h-2h-2h-2h-2h-2h-1h-2h-2h-2h-2h-2h-2h-2h-2h-1h-2h-2h-2h-2h-10z" />
<glyph unicode="&#x2019;" horiz-adv-x="546" d="M481 1425l4 -9q4 -8 11 -27.5t13.5 -44.5t11.5 -64.5t5 -81.5q0 -51 -21.5 -117.5t-51.5 -125t-61 -109.5t-52.5 -81t-22.5 -30l-276 49l88 387l-43 254v0v0v0v0h1v0v0h1v0h1v0h1v0h1v0h1h1v0h1h1h1h1h1h1h1h1h1h1h1h1h1h1h1h1h1h1h1h1h1h1h1h1h1h1h1h1h1h1h1h1h1h1h1h1 h1h1h1h1h1h1h1h1h1h1h1h1h1h1h1h1h1h1h1h1h1h1h1h1h1h1h1h1h1h2h1h1h1h1h1h1h1h1h1h2h1h1h1h1h1h1h2h1h1h1h1h1h2h1h1h1h1h2h1h1h1h2h1h1h1h1h2h1h1h2h1h1h1h2h1h1h2h1h1h2h1h1h2h1h1h2h1h1h2h1h1h2h1h1h2h1h2h1h1h2h1h2h1h1h2h1h2h1h2h1h1h2h1h2h1h2h1h2h1h2h1h2h1h2h1h2h1 h2h1h2h1h2h1h2h1h2h2h1h2h1h2h1h2h1h2h2h1h2h1h2h2h1h2h1h2h2h1h2h2h1h2h1h2h2h1h2h2h1h2h2h1h2h2h1h2h2h1h2h2h2h1h2h2h1h2h2h2h1h2h2h2h1h2h2h2h1h2h2h2h1h2h2h2h2h1h2h2h2h2h1h2h2h2h2h2h1h2h2h2h2h2h1h2h2h2h2h2h2h2h2h1h2h2h2h2h10z" />
<glyph unicode="&#x201a;" horiz-adv-x="546" d="M481 446l4 -8q4 -9 11 -28.5t13.5 -44.5t11.5 -64.5t5 -81.5q0 -51 -21.5 -117.5t-51.5 -125t-61 -109.5t-52.5 -81t-22.5 -30l-276 49l88 388l-43 253v0v0v0v0h1v0v0h1v0h1v0h1v0h1v0h1h1v0h1h1h1h1h1h1h1h1h1h1h1h1h1h1h1h1h1h1h1h1h1h1h1h1h1h1h1h1h1h1h1h1h1h1h1h1h1 h1h1h1h1h1h1h1h1h1h1h1h1h1h1h1h1h1h1h1h1h1h1h1h1h1h1h1h1h2h1h1h1h1h1h1h1h1h1h2h1h1h1h1h1h1h2h1h1h1h1h1h2h1h1h1h1h2h1h1h1h2h1h1h1h1h2h1h1h2h1h1h1h2h1h1h2h1h1h2h1h1h2h1h1h2h1h1h2h1h1h2h1h1h2h1h2h1h1h2h1h2h1h1h2h1h2h1h2h1h1h2h1h2h1h2h1h2h1h2h1h2h1h2h1h2h1h2 h1h2h1h2h1h2h1h2h2h1h2h1h2h1h2h1h2h2h1h2h1h2h2h1h2h1h2h2h1h2h2h1h2h1h2h2h1h2h2h1h2h2h1h2h2h1h2h2h1h2h2h2h1h2h2h1h2h2h2h1h2h2h2h1h2h2h2h1h2h2h2h1h2h2h2h2h1h2h2h2h2h1h2h2h2h2h2h1h2h2h2h2h2h1h2h2h2h2h2h2h2h2h1h2h2h2h2h10z" />
<glyph unicode="&#x201c;" horiz-adv-x="1081" d="M66 762l-4 8q-4 9 -11 28.5t-14 44.5t-12 64.5t-5 81.5q0 51 21.5 117.5t51.5 125t61 109.5t52.5 81t22.5 30l277 -49l-88 -387l43 -254v0v0v0v0h-1v0v0h-1v0h-1v0h-1v0h-1v0h-1h-1v0h-1h-1h-1h-1h-1h-1h-1h-1h-1h-1h-1h-1h-1h-1h-1h-1h-1h-1h-1h-1h-1h-1h-1h-1h-1h-1h-1 h-1h-1h-1h-1h-1h-1h-1h-1h-1h-1h-1h-1h-1h-1h-1h-1h-1h-1h-1h-1h-1h-1h-1h-1h-1h-1h-1h-1h-1h-1h-1h-1h-1h-1h-1h-1h-1h-1h-2h-1h-1h-1h-1h-1h-1h-1h-1h-1h-2h-1h-1h-1h-1h-1h-1h-2h-1h-1h-1h-1h-1h-2h-1h-1h-1h-1h-2h-1h-1h-1h-2h-1h-1h-1h-1h-2h-1h-1h-2h-1h-1h-1h-2h-1 h-1h-2h-1h-1h-2h-1h-1h-2h-1h-1h-2h-1h-1h-2h-1h-1h-2h-1h-1h-2h-1h-2h-1h-1h-2h-1h-2h-1h-1h-2h-1h-2h-1h-2h-1h-1h-2h-1h-2h-1h-2h-1h-2h-1h-2h-1h-2h-1h-2h-1h-2h-1h-2h-1h-2h-1h-2h-1h-2h-1h-2h-2h-1h-2h-1h-2h-1h-2h-1h-2h-2h-1h-2h-1h-2h-2h-1h-2h-1h-2h-2h-1h-2h-2 h-1h-2h-1h-2h-2h-1h-2h-2h-1h-2h-2h-1h-2h-2h-1h-2h-2h-1h-2h-2h-2h-1h-2h-2h-1h-2h-2h-2h-1h-2h-2h-2h-1h-2h-2h-2h-1h-2h-2h-2h-1h-2h-2h-2h-2h-1h-2h-2h-2h-2h-1h-2h-2h-2h-2h-2h-1h-2h-2h-2h-2h-2h-1h-2h-2h-2h-2h-2h-2h-2h-2h-1h-2h-2h-2h-2h-10zM600 762l-4 8 q-4 9 -11 28.5t-13.5 44.5t-11.5 64.5t-5 81.5q0 51 21.5 117.5t51.5 125t61 109.5t52.5 81t22.5 30l276 -49l-88 -387l43 -254v0v0v0v0h-1v0v0h-1v0h-1v0h-1v0h-1v0h-1h-1v0h-1h-1h-1h-1h-1h-1h-1h-1h-1h-1h-1h-1h-1h-1h-1h-1h-1h-1h-1h-1h-1h-1h-1h-1h-1h-1h-1h-1h-1h-1 h-1h-1h-1h-1h-1h-1h-1h-1h-1h-1h-1h-1h-1h-1h-1h-1h-1h-1h-1h-1h-1h-1h-1h-1h-1h-1h-1h-1h-1h-1h-1h-1h-1h-1h-1h-2h-1h-1h-1h-1h-1h-1h-1h-1h-1h-2h-1h-1h-1h-1h-1h-1h-2h-1h-1h-1h-1h-1h-2h-1h-1h-1h-1h-2h-1h-1h-1h-2h-1h-1h-1h-1h-2h-1h-1h-2h-1h-1h-1h-2h-1h-1h-2h-1 h-1h-2h-1h-1h-2h-1h-1h-2h-1h-1h-2h-1h-1h-2h-1h-1h-2h-1h-2h-1h-1h-2h-1h-2h-1h-1h-2h-1h-2h-1h-2h-1h-1h-2h-1h-2h-1h-2h-1h-2h-1h-2h-1h-2h-1h-2h-1h-2h-1h-2h-1h-2h-1h-2h-1h-2h-1h-2h-2h-1h-2h-1h-2h-1h-2h-1h-2h-2h-1h-2h-1h-2h-2h-1h-2h-1h-2h-2h-1h-2h-2h-1h-2h-1 h-2h-2h-1h-2h-2h-1h-2h-2h-1h-2h-2h-1h-2h-2h-1h-2h-2h-2h-1h-2h-2h-1h-2h-2h-2h-1h-2h-2h-2h-1h-2h-2h-2h-1h-2h-2h-2h-1h-2h-2h-2h-2h-1h-2h-2h-2h-2h-1h-2h-2h-2h-2h-2h-1h-2h-2h-2h-2h-2h-1h-2h-2h-2h-2h-2h-2h-2h-2h-1h-2h-2h-2h-2h-10z" />
<glyph unicode="&#x201d;" horiz-adv-x="1081" d="M481 1425l4 -9q4 -8 11 -27.5t13.5 -44.5t11.5 -64.5t5 -81.5q0 -51 -21.5 -117.5t-51.5 -125t-61 -109.5t-52.5 -81t-22.5 -30l-276 49l88 387l-43 254v0v0v0v0h1v0v0h1v0h1v0h1v0h1v0h1h1v0h1h1h1h1h1h1h1h1h1h1h1h1h1h1h1h1h1h1h1h1h1h1h1h1h1h1h1h1h1h1h1h1h1h1h1h1 h1h1h1h1h1h1h1h1h1h1h1h1h1h1h1h1h1h1h1h1h1h1h1h1h1h1h1h1h1h2h1h1h1h1h1h1h1h1h1h2h1h1h1h1h1h1h2h1h1h1h1h1h2h1h1h1h1h2h1h1h1h2h1h1h1h1h2h1h1h2h1h1h1h2h1h1h2h1h1h2h1h1h2h1h1h2h1h1h2h1h1h2h1h1h2h1h2h1h1h2h1h2h1h1h2h1h2h1h2h1h1h2h1h2h1h2h1h2h1h2h1h2h1h2h1h2h1 h2h1h2h1h2h1h2h1h2h2h1h2h1h2h1h2h1h2h2h1h2h1h2h2h1h2h1h2h2h1h2h2h1h2h1h2h2h1h2h2h1h2h2h1h2h2h1h2h2h1h2h2h2h1h2h2h1h2h2h2h1h2h2h2h1h2h2h2h1h2h2h2h1h2h2h2h2h1h2h2h2h2h1h2h2h2h2h2h1h2h2h2h2h2h1h2h2h2h2h2h2h2h2h1h2h2h2h2h10zM1016 1425l4 -9q4 -8 11 -27.5 t13.5 -44.5t11.5 -64.5t5 -81.5q0 -51 -21.5 -117.5t-51.5 -125t-61 -109.5t-52.5 -81t-22.5 -30l-277 49l89 387l-43 254v0v0v0v0h1v0v0h1v0h1v0h1v0h1v0h1h1v0h1h1h1h1h1h1h1h1h1h1h1h1h1h1h1h1h1h1h1h1h1h1h1h1h1h1h1h1h1h1h1h1h1h1h1h1h1h1h1h1h1h1h1h1h1h1h1h1h1h1h1h1 h1h1h1h1h1h1h1h1h1h1h1h1h1h2h1h1h1h1h1h1h1h1h1h2h1h1h1h1h1h1h2h1h1h1h1h1h2h1h1h1h1h2h1h1h1h2h1h1h1h1h2h1h1h2h1h1h1h2h1h1h2h1h1h2h1h1h2h1h1h2h1h1h2h1h1h2h1h1h2h1h2h1h1h2h1h2h1h1h2h1h2h1h2h1h1h2h1h2h1h2h1h2h1h2h1h2h1h2h1h2h1h2h1h2h1h2h1h2h1h2h2h1h2h1h2h1h2 h1h2h2h1h2h1h2h2h1h2h1h2h2h1h2h2h1h2h1h2h2h1h2h2h1h2h2h1h2h2h1h2h2h1h2h2h2h1h2h2h1h2h2h2h1h2h2h2h1h2h2h2h1h2h2h2h1h2h2h2h2h1h2h2h2h2h1h2h2h2h2h2h1h2h2h2h2h2h1h2h2h2h2h2h2h2h2h1h2h2h2h2h10z" />
<glyph unicode="&#x201e;" horiz-adv-x="1081" d="M481 446l4 -8q4 -9 11 -28.5t13.5 -44.5t11.5 -64.5t5 -81.5q0 -51 -21.5 -117.5t-51.5 -125t-61 -109.5t-52.5 -81t-22.5 -30l-276 49l88 388l-43 253v0v0v0v0h1v0v0h1v0h1v0h1v0h1v0h1h1v0h1h1h1h1h1h1h1h1h1h1h1h1h1h1h1h1h1h1h1h1h1h1h1h1h1h1h1h1h1h1h1h1h1h1h1h1h1 h1h1h1h1h1h1h1h1h1h1h1h1h1h1h1h1h1h1h1h1h1h1h1h1h1h1h1h1h2h1h1h1h1h1h1h1h1h1h2h1h1h1h1h1h1h2h1h1h1h1h1h2h1h1h1h1h2h1h1h1h2h1h1h1h1h2h1h1h2h1h1h1h2h1h1h2h1h1h2h1h1h2h1h1h2h1h1h2h1h1h2h1h1h2h1h2h1h1h2h1h2h1h1h2h1h2h1h2h1h1h2h1h2h1h2h1h2h1h2h1h2h1h2h1h2h1h2 h1h2h1h2h1h2h1h2h2h1h2h1h2h1h2h1h2h2h1h2h1h2h2h1h2h1h2h2h1h2h2h1h2h1h2h2h1h2h2h1h2h2h1h2h2h1h2h2h1h2h2h2h1h2h2h1h2h2h2h1h2h2h2h1h2h2h2h1h2h2h2h1h2h2h2h2h1h2h2h2h2h1h2h2h2h2h2h1h2h2h2h2h2h1h2h2h2h2h2h2h2h2h1h2h2h2h2h10zM1016 446l4 -8q4 -9 11 -28.5 t13.5 -44.5t11.5 -64.5t5 -81.5q0 -51 -21.5 -117.5t-51.5 -125t-61 -109.5t-52.5 -81t-22.5 -30l-277 49l89 388l-43 253v0v0v0v0h1v0v0h1v0h1v0h1v0h1v0h1h1v0h1h1h1h1h1h1h1h1h1h1h1h1h1h1h1h1h1h1h1h1h1h1h1h1h1h1h1h1h1h1h1h1h1h1h1h1h1h1h1h1h1h1h1h1h1h1h1h1h1h1h1h1 h1h1h1h1h1h1h1h1h1h1h1h1h1h2h1h1h1h1h1h1h1h1h1h2h1h1h1h1h1h1h2h1h1h1h1h1h2h1h1h1h1h2h1h1h1h2h1h1h1h1h2h1h1h2h1h1h1h2h1h1h2h1h1h2h1h1h2h1h1h2h1h1h2h1h1h2h1h1h2h1h2h1h1h2h1h2h1h1h2h1h2h1h2h1h1h2h1h2h1h2h1h2h1h2h1h2h1h2h1h2h1h2h1h2h1h2h1h2h1h2h2h1h2h1h2h1h2 h1h2h2h1h2h1h2h2h1h2h1h2h2h1h2h2h1h2h1h2h2h1h2h2h1h2h2h1h2h2h1h2h2h1h2h2h2h1h2h2h1h2h2h2h1h2h2h2h1h2h2h2h1h2h2h2h1h2h2h2h2h1h2h2h2h2h1h2h2h2h2h2h1h2h2h2h2h2h1h2h2h2h2h2h2h2h2h1h2h2h2h2h10z" />
<glyph unicode="&#x2020;" horiz-adv-x="1198" d="M1116 1110v-270l-362 -2l4 -1190h-318v1188l-358 -2v276h358v315h312l2 -315h362z" />
<glyph unicode="&#x2021;" horiz-adv-x="1198" d="M1116 840l-362 -2l2 -598l360 2v-277h-358v-317h-318v317h-358v271l358 2v598l-358 -2v276h358v315h312l2 -315h362v-270z" />
<glyph unicode="&#x2022;" horiz-adv-x="874" d="M823 575q0 -161 -112.5 -273t-272.5 -112t-273.5 112t-113.5 273q0 159 113.5 272.5t273.5 113.5q159 0 272 -113.5t113 -272.5z" />
<glyph unicode="&#x2026;" horiz-adv-x="1873" d="M573 223q0 -108 -76 -184t-184 -76q-109 0 -185.5 75.5t-76.5 184.5q0 107 76.5 183.5t185.5 76.5q107 0 183.5 -76.5t76.5 -183.5zM1198 223q0 -108 -76 -184t-184 -76q-109 0 -185.5 75.5t-76.5 184.5q0 107 76.5 183.5t185.5 76.5q107 0 183.5 -76.5t76.5 -183.5z M1823 223q0 -108 -76 -184t-184 -76q-109 0 -186 76t-77 184q0 107 77 183.5t186 76.5q107 0 183.5 -76.5t76.5 -183.5z" />
<glyph unicode="&#x2030;" horiz-adv-x="2568" d="M420 1448q165 0 251.5 -112t86.5 -314q0 -198 -89.5 -312t-248.5 -114q-158 0 -248 114.5t-90 311.5q0 199 90 312.5t248 113.5zM422 772q80 0 80 244q0 128 -20 192t-66 64q-78 0 -78 -246q0 -254 84 -254zM1415 831q165 0 251.5 -111.5t86.5 -313.5q0 -198 -89.5 -312 t-248.5 -114q-158 0 -248 114.5t-90 311.5q0 199 90 312t248 113zM1417 156q80 0 80 243q0 128 -20 192t-66 64q-78 0 -78 -245q0 -254 84 -254zM2148 831q165 0 251.5 -111.5t86.5 -313.5q0 -198 -89.5 -312t-248.5 -114q-158 0 -248 114.5t-90 311.5q0 199 90 312t248 113 zM2150 156q80 0 80 243q0 128 -20 192t-66 64q-78 0 -78 -245q0 -254 84 -254zM1520 1425l-973 -1425h-232l979 1425h226z" />
<glyph unicode="&#x2039;" horiz-adv-x="696" d="M645 963l-201 -408l201 -405l-354 -62l-240 467l240 469z" />
<glyph unicode="&#x203a;" horiz-adv-x="696" d="M252 555l-201 408l355 61l239 -469l-239 -467l-355 62z" />
<glyph unicode="&#x2044;" horiz-adv-x="1204" d="M1204 1425l-973 -1425h-231l979 1425h225z" />
<glyph unicode="&#x2070;" horiz-adv-x="798" d="M399 1851q165 0 251.5 -112t86.5 -314q0 -198 -89.5 -312t-248.5 -114q-158 0 -248 114.5t-90 311.5q0 199 90 312.5t248 113.5zM401 1176q80 0 80 243q0 128 -20 192t-66 64q-78 0 -78 -245q0 -254 84 -254z" />
<glyph unicode="&#x2074;" horiz-adv-x="774" d="M627 1356l106 4q-18 -84 -20 -170h-84q0 -27 1 -83.5t1 -86.5h-271q3 74 5 170h-324q2 39 4 125l301 514h295q-14 -283 -14 -410v-63zM367 1352v71q0 19 -1 97.5t-1 111.5l-168 -282z" />
<glyph unicode="&#x2075;" horiz-adv-x="722" d="M258 1509h23t56.5 -4.5t80 -12.5t85 -26.5t80 -44.5t56.5 -68.5t23 -95.5q0 -126 -97 -192t-254 -66q-69 0 -131.5 18t-90.5 36l-28 18l58 164q9 -6 24 -15.5t57.5 -25.5t78.5 -16q112 0 112 75q0 35 -34.5 59.5t-88 35t-96 14.5t-80.5 4l33 463h483l8 -240l-352 8z" />
<glyph unicode="&#x2076;" horiz-adv-x="788" d="M483 1538q109 0 176.5 -63.5t67.5 -184.5q0 -140 -92.5 -215.5t-239.5 -75.5q-146 0 -240 105t-94 287q0 209 98.5 334.5t282.5 125.5q71 0 138.5 -18.5t99.5 -36.5l31 -18l-56 -172q-11 7 -30 16.5t-70.5 26t-95.5 16.5q-49 0 -82.5 -19.5t-49 -53t-21.5 -66t-5 -70.5 q70 82 182 82zM395 1167q76 0 76 115q0 119 -74 119q-34 0 -56 -33.5t-22 -85.5q0 -115 76 -115z" />
<glyph unicode="&#x2077;" horiz-adv-x="661" d="M63 1829h558v-148q-7 -10 -19.5 -29t-43.5 -78.5t-55 -120t-43.5 -146.5t-19.5 -166q0 -54 13 -121h-289q-2 16 -2 53q0 70 18.5 141.5t49 131t59.5 105.5t60.5 91t41.5 62h-350z" />
<glyph unicode="&#x2078;" horiz-adv-x="792" d="M555 1444q7 -1 19 -4.5t42.5 -18t53.5 -35.5t42 -60.5t19 -88.5q0 -97 -94 -167.5t-240 -70.5q-147 0 -241.5 70.5t-94.5 167.5q0 47 17.5 85t42 59t49 35.5t42.5 19.5l17 4q-5 2 -14 6t-31.5 19.5t-40 34.5t-31.5 52.5t-14 71.5q0 100 82 163.5t217 63.5q133 0 215 -64 t82 -163q0 -38 -14.5 -71t-35 -52t-40.5 -32.5t-34 -18.5zM397 1167q40 0 59 30.5t19 76.5q0 45 -20.5 77.5t-55.5 32.5q-38 0 -59 -28.5t-21 -79.5q0 -50 21 -79.5t57 -29.5zM397 1479q37 0 57.5 27.5t20.5 74.5q0 105 -76 105q-80 0 -80 -103q0 -43 19 -73.5t59 -30.5z " />
<glyph unicode="&#x2079;" horiz-adv-x="788" d="M395 1851q146 0 239 -103.5t93 -285.5q0 -210 -98.5 -336.5t-282.5 -126.5q-71 0 -138 19t-98 38l-32 19l55 170q11 -7 30 -16.5t71 -26t96 -16.5q49 0 82.5 19.5t49.5 52.5t22 66t5 71q-72 -80 -184 -80q-110 0 -177 63t-67 185q0 140 92.5 214t241.5 74zM391 1452 q34 0 56 33t22 86q0 115 -76 115q-74 0 -74 -115q0 -119 72 -119z" />
<glyph unicode="&#x207d;" horiz-adv-x="555" d="M340 1425q0 -95 20 -185t49 -150.5t57.5 -107.5t48.5 -69l20 -22l-105 -90q-7 4 -19.5 12.5t-49 38t-69 63t-73 88.5t-69 114.5t-48.5 140.5t-20 167t19 167t50 141.5t68 114t74 90t68 63t50 39.5l19 12l105 -92q-8 -8 -21 -23t-46.5 -66.5t-59.5 -109.5t-47 -149 t-21 -187z" />
<glyph unicode="&#x207e;" horiz-adv-x="555" d="M215 1425q0 96 -20 186t-48.5 150.5t-57.5 107.5t-49 69l-20 22l105 92q7 -4 19.5 -12.5t49 -38.5t69 -63.5t73 -89t69 -115.5t48.5 -141t20 -167t-19 -166.5t-50 -141t-68 -114t-74 -89.5t-68 -62.5t-50 -38.5l-19 -12l-105 90q8 8 21 23t46.5 67t59.5 109.5t47 148.5 t21 186z" />
<glyph unicode="&#x207f;" horiz-adv-x="856" d="M795 1020h-283q0 34 2 148t2 167q0 79 -21.5 121.5t-74.5 42.5q-92 0 -92 -164q0 -3 8 -315h-275q9 256 9 487q0 93 -2 144h272l-4 -109q53 129 225 129q112 0 168.5 -61.5t56.5 -169.5q0 -249 9 -420z" />
<glyph unicode="&#x2080;" horiz-adv-x="798" d="M399 426q165 0 251.5 -112t86.5 -314q0 -198 -89.5 -312t-248.5 -114q-158 0 -248 114.5t-90 311.5q0 199 90 312.5t248 113.5zM401 -250q80 0 80 244q0 128 -20 192t-66 64q-78 0 -78 -246q0 -254 84 -254z" />
<glyph unicode="&#x2081;" horiz-adv-x="636" d="M469 -231h127v-175h-522l-11 175h142q0 37 1 113t1 116q0 18 -1 58t-1 69h-144l5 113q63 0 119 40.5t89 124.5h201q-8 -282 -8 -409q0 -31 1 -105.5t1 -119.5z" />
<glyph unicode="&#x2082;" horiz-adv-x="733" d="M662 168q0 -50 -22.5 -94t-57 -74t-76.5 -58t-80 -47.5t-69 -42t-42 -42.5l357 8q-17 -140 -19 -224h-571l4 99q1 57 31.5 114t73.5 102.5t86.5 88.5t73.5 86t30 80t-29 56.5t-78 19.5q-37 0 -76.5 -14.5t-59.5 -29.5l-21 -14l-56 172q11 8 30.5 20t84.5 32t133 20 q158 0 255.5 -66t97.5 -192z" />
<glyph unicode="&#x2083;" horiz-adv-x="722" d="M471 18q8 -2 21 -5.5t45.5 -19.5t58 -36t46 -56.5t20.5 -80.5q0 -116 -98 -181t-253 -65q-69 0 -131.5 18.5t-90.5 37.5l-28 18l58 164q8 -6 22 -16t55 -26t78 -16q50 0 79.5 23t29.5 61q0 90 -193 90l-12 125q29 0 60.5 5t66 16.5t56.5 34.5t22 55q0 80 -102 80 q-36 0 -76.5 -14t-62.5 -28l-23 -14l-58 166q12 8 34 20t87.5 32t128.5 20q142 0 239 -59t97 -158q0 -44 -18 -80t-44 -56t-52 -33t-44 -18z" />
<glyph unicode="&#x2084;" horiz-adv-x="774" d="M627 -70l106 4q-18 -84 -20 -170h-84q0 -27 1 -83.5t1 -86.5h-271q3 74 5 170h-324q2 39 4 125l301 514h295q-14 -282 -14 -409v-64zM367 -74v72q0 19 -1 97.5t-1 111.5l-168 -283z" />
<glyph unicode="&#x2085;" horiz-adv-x="722" d="M258 84h23t56.5 -4.5t80 -12.5t85 -26.5t80 -44.5t56.5 -68.5t23 -95.5q0 -126 -97 -192t-254 -66q-69 0 -131.5 18t-90.5 36l-28 18l58 164l24 -16t57.5 -26t78.5 -16q54 0 83 19.5t29 56.5q0 35 -34.5 59.5t-88 35t-96 14.5t-80.5 4l33 462h483l8 -239l-352 8z" />
<glyph unicode="&#x2086;" horiz-adv-x="788" d="M483 113q109 0 176.5 -63.5t67.5 -184.5q0 -140 -92.5 -215.5t-239.5 -75.5q-146 0 -240 104.5t-94 286.5q0 209 98.5 335t282.5 126q71 0 138.5 -18.5t99.5 -37.5l31 -18l-56 -172q-11 7 -30 17t-70.5 26.5t-95.5 16.5q-49 0 -82.5 -19.5t-49 -53t-21.5 -66t-5 -70.5 q70 82 182 82zM395 -258q76 0 76 115q0 118 -74 118q-34 0 -56 -33t-22 -85q0 -115 76 -115z" />
<glyph unicode="&#x2087;" horiz-adv-x="661" d="M63 403h558v-147q-7 -10 -19.5 -29t-43.5 -78.5t-55 -120t-43.5 -147t-19.5 -166.5q0 -54 13 -121h-289q-2 16 -2 54q0 87 30.5 178t64.5 147.5t79.5 123t54.5 81.5h-350z" />
<glyph unicode="&#x2088;" horiz-adv-x="792" d="M555 18q7 -1 19 -4t42.5 -18t53.5 -35.5t42 -60t19 -88.5q0 -97 -94 -167.5t-240 -70.5q-147 0 -241.5 70.5t-94.5 167.5q0 47 17.5 85t42 59t49 35t42.5 19l17 4q-5 2 -14 6t-31.5 19.5t-40 35t-31.5 53t-14 71.5q0 100 82 163.5t217 63.5q133 0 215 -64t82 -163 q0 -38 -14.5 -71t-35 -52.5t-40.5 -33t-34 -18.5zM397 -258q40 0 59 30t19 76q0 45 -20.5 78t-55.5 33q-38 0 -59 -29t-21 -80q0 -50 20.5 -79t57.5 -29zM397 53q37 0 57.5 28t20.5 75q0 104 -76 104q-80 0 -80 -102q0 -43 19 -74t59 -31z" />
<glyph unicode="&#x2089;" horiz-adv-x="788" d="M395 426q146 0 239 -103.5t93 -285.5q0 -210 -98.5 -336.5t-282.5 -126.5q-71 0 -138 19t-98 38l-32 19l55 170q11 -7 30 -17t71 -26.5t96 -16.5q49 0 82.5 19.5t49.5 52.5t22 66t5 71q-72 -80 -184 -80q-110 0 -177 63t-67 185q0 140 92.5 214.5t241.5 74.5zM391 27 q34 0 56 32.5t22 85.5q0 115 -76 115q-74 0 -74 -115q0 -118 72 -118z" />
<glyph unicode="&#x208d;" horiz-adv-x="555" d="M340 0q0 -95 20 -185t49 -151t57.5 -108t48.5 -69l20 -22l-105 -90q-7 4 -19.5 12.5t-49 38t-69 63t-73 89t-69 115t-48.5 140.5t-20 167t19 167t50 141.5t68 114t74 90t68 63t50 38.5l19 13l105 -92q-8 -8 -21 -23t-46.5 -66.5t-59.5 -109.5t-47 -149t-21 -187z" />
<glyph unicode="&#x208e;" horiz-adv-x="555" d="M215 0q0 96 -20 186t-48.5 150.5t-57.5 107.5t-49 69l-20 22l105 92q7 -4 19.5 -12.5t49 -38.5t69 -63.5t73 -89t69 -115.5t48.5 -141t20 -167t-19 -166.5t-50 -141.5t-68 -114t-74 -89.5t-68 -63t-50 -38.5l-19 -12l-105 90q8 8 21 23t46.5 67t59.5 110t47 149t21 186z " />
<glyph unicode="&#x20ac;" d="M1202 410l101 -318q-6 -5 -17.5 -14t-52 -31t-86 -39t-119 -31t-151.5 -14q-270 0 -451.5 126t-243.5 372h-155v196h129q-2 18 -2 56q0 31 2 45h-129v196h155q62 247 247 377.5t448 130.5q95 0 197.5 -24.5t157.5 -49.5l56 -24l-108 -348q-7 4 -19 11.5t-49 25.5t-73 32 t-84 25.5t-89 11.5q-161 0 -215 -168h518l-61 -196h-485v-33q0 -11 1 -34t1 -34h462l-61 -196h-367q58 -156 220 -156q72 0 152.5 26.5t125.5 52.5z" />
<glyph unicode="&#x2122;" horiz-adv-x="1392" d="M1311 1425q-13 -237 -13 -346q0 -42 1 -155.5t1 -180.5h-227q0 -1 0.5 22t1.5 61t2 82.5t1.5 95.5t0.5 90q-72 -131 -168 -283q-10 11 -38.5 62.5t-66.5 120t-63 108.5q0 -47 1 -167t1 -192h-159q4 191 4 338l-8 344h217q16 -24 77 -157t80 -166q88 193 156 323h199z M532 1257h-131q-6 -95 -6 -178q0 -42 2 -155.5t2 -180.5h-227q4 191 4 338q0 50 -4 176h-152q13 96 15 168h522z" />
<glyph unicode="&#x2126;" horiz-adv-x="1642" d="M1200 395l361 17q-29 -262 -33 -412h-590l-6 555q4 4 9.5 11.5t21 35t27 60t21 87t9.5 115.5q0 59 -11.5 110.5t-35.5 95t-66 68.5t-98 25q-193 0 -193 -280q0 -65 9.5 -122.5t23 -92.5t27.5 -60.5t24 -35.5l9 -11l-4 -561h-590q-2 67 -10 170t-15 172l-8 70l360 -17v92 q-149 68 -222 168.5t-73 266.5q0 236 183 388t489 152q154 0 281.5 -41t212.5 -113t131.5 -171t46.5 -215q0 -166 -72 -266.5t-219 -168.5v-92z" />
<glyph unicode="&#x212e;" horiz-adv-x="1853" d="M1432 768v371q-173 235 -504 235q-325 0 -492 -235v-371h996zM436 674v-402q188 -221 508 -221q310 0 496 223h217q-246 -311 -731 -311q-348 0 -600 205q-244 209 -244 547q0 339 244 542q248 205 614 205q367 0 600 -217q232 -210 232 -571h-1336z" />
<glyph unicode="&#x2153;" horiz-adv-x="1708" d="M1432 1425l-973 -1425h-232l979 1425h226zM1436 424q8 -2 20.5 -5.5t45.5 -19.5t58 -36.5t45.5 -57t20.5 -80.5q0 -115 -97.5 -180t-252.5 -65q-69 0 -131.5 18t-90.5 36l-28 19l57 164q8 -6 22.5 -15.5t55.5 -25.5t78 -16q50 0 79.5 23t29.5 61q0 90 -193 90l-12 125 q29 0 60.5 5t66 16t56.5 34t22 55q0 80 -103 80q-36 0 -76.5 -13.5t-62.5 -27.5l-23 -14l-57 166q12 8 34 20t87.5 31.5t128.5 19.5q142 0 239 -59t97 -158q0 -44 -18 -80t-44 -55.5t-52 -33t-44 -17.5zM469 791h127v-175h-522l-11 175h142q0 37 1 113t1 116q0 18 -1 58 t-1 69h-144l5 113q63 0 119 40.5t89 124.5h201q-8 -282 -8 -409q0 -30 1 -105t1 -120z" />
<glyph unicode="&#x2154;" horiz-adv-x="1738" d="M1483 1425l-973 -1425h-231l978 1425h226zM1487 424q8 -2 20.5 -5.5t45.5 -19.5t58 -36.5t45.5 -57t20.5 -80.5q0 -115 -97.5 -180t-252.5 -65q-69 0 -131.5 18t-90.5 36l-28 19l58 164q8 -6 22 -15.5t55 -25.5t78 -16q50 0 79.5 23t29.5 61q0 90 -193 90l-12 125 q29 0 60.5 5t66 16t56.5 34t22 55q0 80 -103 80q-36 0 -76 -13.5t-62 -27.5l-23 -14l-58 166q12 8 34 20t87.5 31.5t128.5 19.5q142 0 239 -59t97 -158q0 -44 -18 -80t-44 -55.5t-52 -33t-44 -17.5zM662 1190q0 -50 -22.5 -94t-57 -74t-76.5 -58t-80 -48t-69 -42.5 t-42 -42.5l357 9q-17 -140 -19 -224h-571l4 99q1 57 31.5 114t73.5 102.5t86.5 88.5t73.5 86t30 80t-29 56.5t-78 19.5q-37 0 -76.5 -14.5t-59.5 -29.5l-21 -14l-56 172q11 8 30.5 20t84.5 32t133 20q158 0 255.5 -66t97.5 -192z" />
<glyph unicode="&#x215b;" horiz-adv-x="1740" d="M1432 1425l-973 -1425h-232l979 1425h226zM1483 424q7 -1 19 -4.5t42.5 -18t53.5 -35.5t42 -60.5t19 -88.5q0 -97 -93.5 -167t-240.5 -70t-241.5 70t-94.5 167q0 47 17.5 85t42 59t49 35.5t42.5 19.5l17 4q-5 2 -14 6t-31.5 19.5t-40 34.5t-31.5 52.5t-14 71.5 q0 100 82 163.5t217 63.5q133 0 215 -64t82 -163q0 -38 -14.5 -71t-35 -52t-40.5 -32.5t-34 -18.5zM1325 147q40 0 59 30.5t19 76.5q0 45 -20.5 78t-55.5 33q-38 0 -59 -29t-21 -80q0 -50 21 -79.5t57 -29.5zM1325 459q37 0 57.5 27.5t20.5 74.5q0 105 -76 105 q-80 0 -80 -103q0 -43 19 -73.5t59 -30.5zM469 791h127v-175h-522l-11 175h142q0 37 1 113t1 116q0 18 -1 58t-1 69h-144l5 113q63 0 119 40.5t89 124.5h201q-8 -282 -8 -409q0 -30 1 -105t1 -120z" />
<glyph unicode="&#x215c;" horiz-adv-x="1748" d="M1460 1425l-973 -1425h-231l979 1425h225zM1511 424q7 -1 19 -4.5t42.5 -18t54 -35.5t42.5 -60.5t19 -88.5q0 -97 -93.5 -167t-240.5 -70t-241.5 70t-94.5 167q0 47 17.5 85t42 59t49 35.5t41.5 19.5l18 4q-5 2 -14 6t-31.5 19.5t-40 34.5t-31.5 52.5t-14 71.5 q0 100 82 163.5t217 63.5q133 0 215 -64t82 -163q0 -38 -14.5 -71t-35 -52t-41 -32.5t-34.5 -18.5zM1354 147q40 0 59 30.5t19 76.5q0 45 -20.5 78t-55.5 33q-38 0 -59 -29t-21 -80q0 -50 21 -79.5t57 -29.5zM1354 459q37 0 57.5 27.5t20.5 74.5q0 105 -76 105 q-80 0 -80 -103q0 -43 19 -73.5t59 -30.5zM471 1040q8 -2 21 -5.5t45.5 -19.5t58 -36t46 -56.5t20.5 -80.5q0 -116 -98 -181t-253 -65q-69 0 -131.5 18.5t-90.5 37.5l-28 18l58 164q8 -6 22 -16t55 -26t78 -16q50 0 79.5 23t29.5 61q0 90 -193 90l-12 125q29 0 60.5 5 t66 16.5t56.5 34.5t22 55q0 80 -102 80q-36 0 -76.5 -14t-62.5 -28l-23 -14l-58 166q12 8 34 20t87.5 32t128.5 20q142 0 239 -59t97 -158q0 -44 -18 -80t-44 -56t-52 -33t-44 -18z" />
<glyph unicode="&#x215d;" horiz-adv-x="1742" d="M1454 1425l-973 -1425h-231l979 1425h225zM1505 424q7 -1 19 -4.5t42.5 -18t53.5 -35.5t42 -60.5t19 -88.5q0 -97 -93.5 -167t-239.5 -70q-147 0 -241.5 70t-94.5 167q0 47 17.5 85t42 59t49 35.5t41.5 19.5l18 4q-5 2 -14 6t-31.5 19.5t-40 34.5t-31.5 52.5t-14 71.5 q0 100 82 163.5t217 63.5q133 0 215 -64t82 -163q0 -38 -14.5 -71t-35 -52t-41 -32.5t-34.5 -18.5zM1348 147q40 0 58.5 30.5t18.5 76.5t-20 78.5t-55 32.5q-38 0 -59 -29t-21 -80q0 -50 21 -79.5t57 -29.5zM1348 459q37 0 57 27.5t20 74.5q0 105 -75 105q-80 0 -80 -103 q0 -43 19 -73.5t59 -30.5zM258 1106h23t56.5 -4.5t80 -12.5t85 -26.5t80 -44.5t56.5 -68.5t23 -95.5q0 -126 -97 -192t-254 -66q-69 0 -131.5 18t-90.5 36l-28 18l58 163q9 -6 24 -15.5t57.5 -25.5t78.5 -16q54 0 83 19.5t29 56.5q0 35 -34.5 59.5t-88 35t-96 14.5t-80.5 4 l33 462h483l8 -239l-352 8z" />
<glyph unicode="&#x215e;" horiz-adv-x="1636" d="M1348 1425l-973 -1425h-232l979 1425h226zM1399 424q7 -1 19 -4.5t42.5 -18t53.5 -35.5t42 -60.5t19 -88.5q0 -97 -93.5 -167t-240.5 -70t-241.5 70t-94.5 167q0 47 17.5 85t42 59t49 35.5t42.5 19.5l17 4q-5 2 -14 6t-31.5 19.5t-40 34.5t-31.5 52.5t-14 71.5 q0 100 82 163.5t217 63.5q133 0 215 -64t82 -163q0 -38 -14.5 -71t-35 -52t-40.5 -32.5t-34 -18.5zM1241 147q40 0 59 30.5t19 76.5q0 45 -20.5 78t-55.5 33q-38 0 -59 -29t-21 -80q0 -50 21 -79.5t57 -29.5zM1241 459q37 0 57.5 27.5t20.5 74.5q0 105 -76 105 q-80 0 -80 -103q0 -43 19 -73.5t59 -30.5zM63 1425h558v-147q-7 -10 -19.5 -29t-43.5 -78.5t-55 -120t-43.5 -147t-19.5 -166.5q0 -54 13 -121h-289q-2 16 -2 54q0 87 30.5 178t64.5 147.5t79.5 123t54.5 81.5h-350z" />
<glyph unicode="&#x2190;" horiz-adv-x="1902" d="M467 449l500 -177l-84 -309l-801 440v304l801 440l84 -309l-500 -176l500 45l895 28v-360l-895 28z" />
<glyph unicode="&#x2191;" horiz-adv-x="1265" d="M526 1075l-176 -500l-309 84l440 801h303l441 -801l-310 -84l-176 500l45 -500l29 -894h-360l28 894z" />
<glyph unicode="&#x2192;" horiz-adv-x="1902" d="M936 272l500 177l-500 -46l-895 -28v360l895 -28l500 -45l-500 176l84 309l801 -440v-304l-801 -440z" />
<glyph unicode="&#x2193;" horiz-adv-x="1265" d="M350 565l176 -499l-45 499l-28 895h360l-29 -895l-45 -499l176 499l310 -84l-441 -800h-303l-440 800z" />
<glyph unicode="&#x2194;" horiz-adv-x="2529" d="M1563 272l499 177l-499 -46h-596l-500 46l500 -177l-84 -309l-801 440v304l801 440l84 -309l-500 -176l500 45h596l499 -45l-499 176l84 309l800 -440v-304l-800 -440z" />
<glyph unicode="&#x2202;" horiz-adv-x="1449" d="M223 1364q9 4 24.5 10.5t67 23.5t105 30t132.5 23.5t155 10.5q315 0 488 -192.5t173 -521.5q0 -223 -87.5 -401.5t-249.5 -281t-369 -102.5q-257 0 -418.5 136t-161.5 350q0 218 142.5 351.5t375.5 133.5q231 0 356 -129q-32 171 -110 250.5t-207 79.5q-46 0 -126.5 -16 t-138.5 -32l-57 -16zM518 461q0 -94 56.5 -149.5t154.5 -55.5q102 0 155.5 55t53.5 154q0 92 -58 144.5t-155 52.5q-90 0 -148.5 -57.5t-58.5 -143.5z" />
<glyph unicode="&#x2206;" horiz-adv-x="1400" d="M1040 1425l351 -1425h-1381l350 1425h680zM530 276h332l-166 889z" />
<glyph unicode="&#x220f;" horiz-adv-x="1536" d="M1413 1425q-24 -623 -24 -903q0 -108 3 -404t3 -470h-473q6 1117 8 1462h-334q6 -627 6 -1462h-473q8 498 8 882q0 123 -3.5 346.5t-7.5 385.5l-3 163h1290z" />
<glyph unicode="&#x2211;" horiz-adv-x="1169" d="M1106 1425v-301h-524l358 -536q-39 -49 -198 -258t-222 -283h1h1h1h1h1h1h1h1h1h1h1h1h1h1h1h1h1h1h1h1h1h1h1h1h1h1h1h1h1h1h1h1h1h1h2h1h1h1h1h1h1h1h1h1h1h2h1h1h1h1h1h1h1h1h2h1h1h1h1h1h1h2h1h1h1h1h1h2h1h1h1h1h2h1h1h1h1h2h1h1h1h1h2h1h1h1h2h1h1h1h1h2h1h1h1h2h1 h1h2h1h1h1h2h1h1h1h2h1h1h2h1h1h1h2h1h1h2h1h1h2h1h1h2h1h1h2h1h1h2h1h1h2h1h1h2h1h1h2h1h2h1h1h2h1h1h2h1h2h1h1h2h1h2h1h1h2h1h2h1h1h2h1h2h1h2h1h1h2h1h2h1h2h1h2h1h1h2h1h2h1h2h1h2h1h2h1h2h1h2h1h2h1h2h1h2h1h2h1h2h1h2h1h2h1h2h1h2h1h2h1h2h1h2h1h2h2h1h2h1h2h1h2h1h2 h2h1h2h1h2h1h2h2h1h2h1h2h1h2h2h1h2h1h2h2h1h2h2h1h2h1h2h2h1h2h1h2h2h1h2h2h1h2h2h1h2h2h1h2h2h1h2h1h2h2h1h2h2h2h1h2h2h1h2h2h1h2h2h1h2h2h2h1h2h2h1h2h2h1h2h2h2h1h2h2h2h1h2h2h2h1h2h2h2h1h2h2h2h1h2h2h2h1h2h2h2h1h2h2h2h2h1h2h2h2h2h1h2h2h2h2h1h2h2h2h2h2h1h2h2h2h2 h2h1h2h2h2h2h2h1h2h2h2h2h2h2h2h1h2h2h2h2h2h2h2h2h1h2h2h2h2h2h2h2h2h2h2h1h2h2h2h9v-399h-1024v291l403 507l-403 644v335h1024z" />
<glyph unicode="&#x2212;" horiz-adv-x="1271" d="M82 735h1108q-4 -70 -4 -159.5t2 -143.5l2 -55h-1108v358z" />
<glyph unicode="&#x221a;" horiz-adv-x="1363" d="M1106 1720h248q-355 -1408 -457 -1720h-369l-278 674h-209v319h537v-2h2l219 -594z" />
<glyph unicode="&#x221e;" horiz-adv-x="1769" d="M872 752q8 9 21.5 23t58 51t90 65t112 51t130.5 23q185 0 294.5 -112t109.5 -286q0 -182 -112 -299.5t-290 -117.5q-65 0 -128.5 21.5t-107 52.5t-78 62t-50.5 52l-17 22q-7 -9 -20.5 -23t-57 -50t-89.5 -64t-115 -50.5t-136 -22.5q-188 0 -296.5 112t-108.5 305 q0 175 113.5 286.5t291.5 111.5q49 0 97 -11.5t85 -30.5t70.5 -42t57 -45.5t41 -41.5t26.5 -30zM287 608q0 -174 200 -174q56 0 120.5 36.5t100.5 73.5l37 36q-4 8 -12 20.5t-34.5 45.5t-55 58t-71 45.5t-85.5 20.5q-84 0 -142 -43t-58 -119zM1284 680q-33 0 -71 -15.5 t-68.5 -37.5t-57 -44t-41.5 -37l-14 -16q4 -8 12.5 -20.5t35 -44.5t54.5 -56.5t69.5 -44.5t82.5 -20q97 0 147 49t50 133q0 85 -52 119.5t-147 34.5z" />
<glyph unicode="&#x222b;" horiz-adv-x="854" d="M217 43v989q0 103 34 180t90.5 124t140.5 76t173 39.5t199 10.5l-6 -291q-110 0 -160.5 -29t-50.5 -110v-987q0 -103 -34 -180.5t-90.5 -125.5t-140.5 -77t-173 -40t-199 -11l6 291q109 0 160 30t51 111z" />
<glyph unicode="&#x2248;" horiz-adv-x="1472" d="M1391 342q-7 -14 -19.5 -37t-56 -82t-90.5 -104t-121 -82t-150 -37q-66 0 -136.5 27t-119 59t-104 59t-96.5 27q-29 0 -58 -17.5t-50.5 -43t-39 -51t-26.5 -42.5l-9 -18l-233 162q3 7 9 19.5t26.5 47.5t44 67t61.5 71.5t79 67.5t96.5 47.5t113.5 19.5q63 0 121 -17.5 t100.5 -43t81 -51t77.5 -43t75 -17.5q48 0 95.5 43.5t71.5 86.5l23 44zM1391 948q-7 -14 -19.5 -37t-56 -82t-90.5 -104t-121 -82t-150 -37q-66 0 -136.5 27t-119 59t-104 59t-96.5 27q-29 0 -58 -17.5t-50.5 -43t-39 -51t-26.5 -42.5l-9 -18l-233 162q3 7 9 19.5t26.5 47.5 t44 67t61.5 71.5t79 67.5t96.5 47.5t113.5 19.5q63 0 121 -17.5t100.5 -43t81 -51t77.5 -43t75 -17.5q48 0 95.5 43.5t71.5 86.5l23 44z" />
<glyph unicode="&#x2260;" horiz-adv-x="1271" d="M82 1026h571l78 348l164 -35l-70 -313h365q-4 -70 -4 -159.5t2 -144.5l2 -54h-445l-49 -226h494q-4 -70 -4 -159.5t2 -144.5l2 -54h-574l-77 -350l-164 39l69 311h-362v358h442l51 226h-493v358z" />
<glyph unicode="&#x2264;" horiz-adv-x="1060" d="M924 596q-2 -170 2 -297l-803 295l4 129l-4 129l803 295l-2 -297l-473 -127zM123 242h815q-3 -51 -3.5 -111.5t0.5 -95.5l1 -35h-813v242z" />
<glyph unicode="&#x2265;" horiz-adv-x="1060" d="M137 596l473 127l-473 127q2 168 -2 297l803 -295l-4 -129l4 -129l-803 -295zM123 242h815v-242h-813q4 127 -2 242z" />
<glyph unicode="&#x25ca;" horiz-adv-x="1409" d="M1024 1425l303 -712l-303 -713h-639l-303 713l303 712h639zM705 193l176 509l-176 531l-177 -531z" />
<glyph unicode="&#xe000;" horiz-adv-x="1167" d="M0 1167h1167v-1167h-1167v1167z" />
<glyph unicode="&#xfb06;" horiz-adv-x="2162" d="M1032 1024l-86 -256q-24 12 -62.5 29.5t-129.5 47t-148 29.5q-35 0 -53 -19.5t-18 -47.5q0 -25 29.5 -45.5t77 -37.5t105 -36t115 -47.5t105 -66t77 -98t29.5 -136.5q0 -167 -131.5 -272t-345.5 -105q-108 0 -207 20t-163 48.5t-113 56.5t-71 48l-22 20l111 247 q10 -7 27 -17.5t66.5 -38.5t96 -49t106 -38.5t105.5 -17.5q33 0 50.5 16.5t17.5 42.5q0 28 -28 51t-72 41.5t-98 38.5t-108 49t-98 66.5t-72 97.5t-28 135q0 89 40 160t108.5 115.5t156.5 68t187 23.5h20q-14 65 -14 127q0 71 22.5 139.5t70.5 131t116 109.5t166.5 75 t214.5 28q127 0 228.5 -30.5t165.5 -80t106.5 -117t59.5 -136t17 -142.5v-141h326l-23 -305q-147 0 -311 2q-6 -209 -6 -385q0 -88 20.5 -123t92.5 -35q26 0 49.5 4t46 12.5t35.5 14.5t34.5 17.5t24.5 13.5l92 -263q-145 -100 -383 -100q-104 0 -190 25.5t-153 77 t-104.5 137t-37.5 198.5q0 262 4 398l-162 -2l6 149l217 228q-3 150 -63 219t-178 69q-67 0 -118.5 -24t-80.5 -63.5t-43 -84.5t-14 -94q0 -40 18 -92q49 -16 92 -36t62 -32z" />
<glyph horiz-adv-x="512" />
<glyph horiz-adv-x="1245" d="M1130 410l101 -318q-6 -5 -17.5 -14t-52 -31t-86 -39t-119 -31t-151.5 -14q-163 0 -295 47t-228 138.5t-148 235t-52 329.5q0 181 54.5 324.5t151.5 236t228.5 140.5t288.5 48q95 0 198 -24.5t159 -49.5l55 -24l-109 -348q-7 4 -19 11.5t-49 25.5t-72.5 32t-83.5 25.5 t-89 11.5q-105 0 -168.5 -76t-73.5 -258q36 40 99 68.5t145 28.5q88 0 136 -49t48 -117q0 -72 -51.5 -116t-136.5 -44q-43 0 -105 29.5t-82 29.5q-17 0 -31 -12t-14 -33q0 -110 66.5 -189t179.5 -79q72 0 152.5 26.5t125.5 52.5z" />
<glyph horiz-adv-x="1157" d="M49 334q58 -2 103 10.5t77.5 45t54 63.5t39.5 89.5t27.5 98.5t24.5 113q15 72 23.5 110t28 108t38.5 109.5t53 98.5t72.5 93.5t95 75t123.5 62t155.5 36.5t192.5 15l-41 -370q-63 3 -110.5 -18.5t-76 -51t-52.5 -93t-35 -107.5t-29 -131q-15 -73 -24 -111.5t-29.5 -110 t-40.5 -112.5t-55.5 -102t-75 -96.5t-99 -77.5t-128.5 -64.5t-161 -38t-200 -15.5z" />
<glyph horiz-adv-x="2252" d="M1739 0h-930l-4 221q-19 -43 -35.5 -72t-50 -67.5t-74.5 -62t-106.5 -40t-147.5 -16.5q-149 0 -244.5 76t-95.5 215q0 77 31 138t81.5 98.5t115 66t132 44t132 30.5t115 27t81.5 32t31 47q0 53 -41.5 83t-112.5 30q-55 0 -122 -18t-123.5 -43.5t-105 -51t-75.5 -43.5 l-28 -18l-88 289q9 7 27 19.5t77.5 44t124.5 55.5t167 43.5t206 19.5q272 0 403 -107.5t131 -306.5q0 -126 15 -387h610q29 0 51.5 15.5t34 38t18.5 45t9 37.5l2 16h301q1 -10 0.5 -28t-8.5 -70t-24 -99t-53.5 -104.5t-90 -98.5t-139.5 -69.5t-197 -28.5zM616 227 q49 0 87.5 48.5t60 121.5t29.5 162q-20 -15 -58 -35.5t-68.5 -38t-61 -41.5t-47.5 -56t-17 -71q0 -90 75 -90z" />
<glyph horiz-adv-x="2387" d="M82 553q0 271 138 432.5t366 161.5q125 0 218 -62.5t134 -164.5q-3 137 -10.5 337t-13.5 331l-7 132q291 -12 520 0q-20 -550 -20 -864q0 -297 2 -430q0 -55 2 -80h559q29 0 51.5 15.5t34 38t18.5 45t9 37.5l2 16h301q1 -10 0.5 -28t-8.5 -70t-24 -99t-53.5 -104.5 t-90 -98.5t-139.5 -69.5t-197 -28.5h-918q0 19 -3 109t-3 106q-15 -45 -43 -87.5t-70.5 -80.5t-106 -61t-138.5 -23q-230 0 -370 159.5t-140 430.5zM575 553q0 -289 189 -289q107 0 156 81.5t49 207.5q0 79 -18 141t-66 105t-121 43q-189 0 -189 -289z" />
<glyph horiz-adv-x="1263" d="M1454 686l236 -88q-23 -49 -50.5 -98t-74 -114t-99 -121.5t-126.5 -114t-155 -98t-185.5 -66t-217.5 -25.5q-333 0 -516.5 146.5t-183.5 445.5q0 149 44.5 263.5t126 186t192 108t245.5 36.5q238 0 368 -99.5t130 -275.5q0 -84 -38.5 -151t-102.5 -107.5t-144 -61.5 t-166 -20t-166 23q0 -104 74.5 -157.5t210.5 -53.5q95 0 182.5 31.5t150 77.5t117.5 109.5t88 115.5t60 108zM743 883q-86 0 -129.5 -79t-48.5 -200q31 -7 63 -9t70.5 5.5t68 26t49.5 57t20 94.5q0 105 -93 105z" />
<glyph horiz-adv-x="2377" d="M2085 862q-55 0 -103.5 -21.5t-101 -77t-82 -93.5t-92.5 -127q-53 -75 -82.5 -115t-89.5 -111.5t-107.5 -112.5t-122 -94t-147.5 -80.5t-170.5 -48t-204.5 -20.5q-333 0 -516.5 146.5t-183.5 445.5q0 149 44.5 263.5t126 186t192 108t245.5 36.5q238 0 368 -99.5 t130 -275.5q0 -84 -38.5 -151t-102.5 -107.5t-144 -61.5t-166 -20t-166 23q0 -104 74.5 -157.5t210.5 -53.5q95 0 178 31t146.5 83t121 120t109 143t103 149.5t110.5 142.5t124 120t151 83t184 31q108 0 207 -27.5t127 -46.5l-52 -282q-17 8 -46.5 20t-103.5 31.5t-130 19.5 zM743 883q-86 0 -129.5 -79t-48.5 -200q31 -7 63 -9t70.5 5.5t68 26t49.5 57t20 94.5q0 105 -93 105z" />
<glyph horiz-adv-x="1562" d="M956 1110h490q-31 -192 -35 -432l-10 -729q0 -284 -168 -440t-453 -156q-116 0 -224 19t-179 46.5t-125.5 55t-79.5 46.5l-25 19l89 307q9 -7 26 -18t70 -40t107 -51.5t132 -40.5t150 -18q112 0 164.5 67t52.5 200v241q-39 -101 -132 -162t-220 -61q-229 0 -366.5 159 t-137.5 431q0 270 140.5 432t369.5 162q75 0 138.5 -23.5t106.5 -62.5t71.5 -81.5t43.5 -88.5q-1 15 2 107t2 112zM764 264q56 0 97 23.5t64.5 65t34.5 91.5t11 109q0 79 -18.5 141t-67 105t-121.5 43q-189 0 -189 -289t189 -289z" />
<glyph horiz-adv-x="2353" d="M608 553q0 -215 15 -553h-494q16 449 16 856q0 140 -5.5 356t-11.5 362l-5 146q103 -5 233 -5t208 3l79 2q-23 -492 -31 -800q42 104 143 165.5t259 61.5q188 0 289.5 -106t101.5 -302q0 -155 4 -393h526q29 0 51.5 15.5t34 38t18.5 45t9 37.5l2 16h301q1 -10 0.5 -28 t-8.5 -70t-24 -99t-53.5 -104.5t-90 -98.5t-139.5 -69.5t-197 -28.5h-915q0 59 4 259t4 294q0 142 -37 215.5t-131 73.5q-47 0 -79.5 -23.5t-48 -67t-22 -90.5t-6.5 -108z" />
<glyph horiz-adv-x="1572" d="M610 848v-502h545q29 0 51.5 15.5t34 38t18.5 45t9 37.5l2 16h301q1 -10 0.5 -28t-8.5 -70t-24 -99t-53.5 -104.5t-90 -98.5t-139.5 -69.5t-197 -28.5h-930q14 449 14 856q0 140 -5 356t-10 362l-5 146q102 -5 231.5 -5t207.5 3l79 2q-31 -570 -31 -872z" />
<glyph horiz-adv-x="2347" d="M1399 739q0 -167 4 -393h526q29 0 51.5 15.5t34 38t18.5 45t9 37.5l2 16h301q1 -10 0.5 -28t-8.5 -70t-24 -99t-53.5 -104.5t-90 -98.5t-139.5 -69.5t-197 -28.5h-918q0 23 5.5 236t5.5 317q0 141 -37.5 215t-130.5 74q-48 0 -80.5 -23.5t-48.5 -67t-22.5 -90.5 t-6.5 -108q0 -238 14 -553h-491q14 449 14 856q0 164 -2 254h477l-6 -190q42 104 142.5 165.5t255.5 61.5q196 0 295.5 -109t99.5 -299z" />
<glyph horiz-adv-x="2328" d="M754 1147h1157q29 0 51.5 15.5t34 37.5t18.5 44.5t9 37.5l1 16h302q1 -10 0.5 -28t-8.5 -69.5t-24 -98.5t-53.5 -104.5t-90 -98.5t-139.5 -69.5t-197 -28.5h-435q45 -112 45 -242q0 -271 -179.5 -433.5t-491.5 -162.5q-310 0 -491 163t-181 433q0 274 180 431t492 157z M561 567q0 -137 48 -217t147 -80q56 0 94 22t58 63t28 87.5t8 106.5q0 82 -17 145.5t-64 108.5t-120 45q-99 0 -140.5 -71t-41.5 -210z" />
<glyph horiz-adv-x="1980" d="M1563 1077q29 0 51.5 15.5t34 38t18.5 45t9 38.5l1 15h301q0 -12 -1 -33t-10 -82t-26 -116t-55.5 -122.5t-90.5 -116t-137.5 -81.5t-191.5 -33q-118 0 -246.5 22t-246.5 44t-209 22q-40 0 -68.5 -10t-52.5 -35t-36.5 -74t-12.5 -122q0 -260 18 -492h-489q16 449 16 856 q0 74 -4 254h449q-1 -34 0 -154.5t0 -148.5q108 340 385 340q117 0 320.5 -35t273.5 -35z" />
<glyph horiz-adv-x="2023" d="M2021 498q1 -10 0.5 -28t-8.5 -70t-24 -99t-53.5 -104.5t-90 -98.5t-139.5 -69.5t-197 -28.5h-893q-95 0 -173 25.5t-138 77t-93.5 137t-33.5 198.5q0 225 4 361l-162 -2l7 149l489 516h148l2 -352h325l-22 -305q-148 0 -312 2q-6 -208 -6 -348q0 -63 24 -88t89 -25h842 q29 0 51.5 15.5t34 38t18.5 45t8 37.5l2 16h301z" />
<glyph horiz-adv-x="2324" d="M1364 1110q-12 -386 -14 -764h557q29 0 51.5 15.5t34 38t18.5 45t9 37.5l1 16h301q1 -10 0.5 -28t-8.5 -70t-24 -99t-53.5 -104.5t-90 -98.5t-139.5 -69.5t-197 -28.5h-911l-18 190q-88 -227 -377 -227q-180 0 -280.5 114t-100.5 329q0 67 2 240t2.5 267t-2.5 197h481 q0 -10 -5 -229t-5 -324q0 -71 6 -120t21.5 -89.5t45.5 -60t76 -19.5q36 0 62 16.5t40.5 42t23.5 65.5t11.5 78t2.5 87q0 171 -17 553h496z" />
<glyph horiz-adv-x="1486" d="M1364 1110q-12 -612 -12 -745l-6 -416q0 -284 -168 -440t-453 -156q-116 0 -224 19t-179 46.5t-125.5 55t-79.5 46.5l-25 19l88 307q9 -7 26 -18t70.5 -40t107.5 -51.5t132 -40.5t150 -18q112 0 164.5 67t52.5 200v245q-88 -227 -379 -227q-180 0 -280.5 114t-100.5 329 q0 67 2 240t2.5 267t-2.5 197h481q0 -10 -5 -229t-5 -324q0 -71 6 -120t21.5 -89.5t45.5 -60t76 -19.5q36 0 62 16.5t40.5 42t23.5 65.5t11.5 78t2.5 87q0 171 -17 553h496z" />
<glyph horiz-adv-x="2074" d="M1249 401h408q29 0 51.5 15.5t34 38t18.5 45t9 38.5l2 15h301q0 -7 -0.5 -19.5t-6.5 -50t-16.5 -74t-33.5 -86.5t-53.5 -93t-81 -86.5t-112.5 -74t-151 -50t-193 -19.5q-189 0 -361.5 17t-303.5 34t-217 17q-121 0 -229.5 -14t-149.5 -24.5t-103 -29.5l-10 170l500 641 l-479 -4l-13 303h1133l-2 -160l-531 -688q7 6 21 15t66.5 33t114.5 42.5t166.5 33.5t221.5 15z" />
<glyph horiz-adv-x="1832" d="M934 1462q197 0 360 -46t271 -126t167.5 -188.5t59.5 -233.5q0 -212 -145 -353.5t-365 -141.5q-221 0 -248 196q-5 -14 -15.5 -34t-33.5 -49.5t-51.5 -53.5t-72.5 -41.5t-93 -17.5q-107 0 -174.5 76t-67.5 188q0 71 23 142t66 131t111.5 97t150.5 37q71 0 117.5 -35.5 t60.5 -93.5q4 24 10.5 51t10.5 42l5 16q144 -8 275 0q-88 -306 -88 -408q0 -42 16 -58.5t55 -16.5q93 0 168.5 86t75.5 219q0 134 -83.5 235.5t-229 154t-332.5 52.5q-188 0 -331 -69t-223.5 -202.5t-80.5 -314.5q0 -182 83 -309t224 -187.5t328 -60.5q158 0 306.5 35 t248.5 99l104 -144q-131 -89 -291 -130.5t-366 -41.5q-191 0 -348.5 48.5t-271 140.5t-176 232t-62.5 316q0 117 30 225.5t96.5 207t164 171t241.5 115.5t320 43zM891 563q66 0 109.5 65t43.5 148q0 38 -26 68t-66 30q-65 0 -106 -65t-41 -143q0 -103 86 -103z" />
<glyph horiz-adv-x="1245" d="M1130 410l101 -318q-6 -5 -17.5 -14t-52 -31t-86 -39t-119 -31t-151.5 -14q-163 0 -295 47t-228 138.5t-148 235t-52 329.5q0 181 54.5 324.5t151.5 236t228.5 140.5t288.5 48q95 0 198 -24.5t159 -49.5l55 -24l-109 -348q-7 4 -19 11.5t-49 25.5t-72.5 32t-83.5 25.5 t-89 11.5q-105 0 -168.5 -76t-73.5 -258q36 40 99 68.5t145 28.5q88 0 136 -49t48 -117q0 -72 -51.5 -116t-136.5 -44q-43 0 -105 29.5t-82 29.5q-17 0 -31 -12t-14 -33q0 -110 66.5 -189t179.5 -79q72 0 152.5 26.5t125.5 52.5zM727 1974l209 -418h-318l-290 394 q58 5 158 11t170 9z" />
<glyph horiz-adv-x="1245" d="M1130 410l101 -318q-6 -5 -17.5 -14t-52 -31t-86 -39t-119 -31t-151.5 -14q-163 0 -295 47t-228 138.5t-148 235t-52 329.5q0 181 54.5 324.5t151.5 236t228.5 140.5t288.5 48q95 0 198 -24.5t159 -49.5l55 -24l-109 -348q-7 4 -19 11.5t-49 25.5t-72.5 32t-83.5 25.5 t-89 11.5q-105 0 -168.5 -76t-73.5 -258q36 40 99 68.5t145 28.5q88 0 136 -49t48 -117q0 -72 -51.5 -116t-136.5 -44q-43 0 -105 29.5t-82 29.5q-17 0 -31 -12t-14 -33q0 -110 66.5 -189t179.5 -79q72 0 152.5 26.5t125.5 52.5zM791 1974q268 -12 399 -24l-291 -394h-317z " />
<glyph horiz-adv-x="1245" d="M1130 410l101 -318q-6 -5 -17.5 -14t-52 -31t-86 -39t-119 -31t-151.5 -14q-163 0 -295 47t-228 138.5t-148 235t-52 329.5q0 181 54.5 324.5t151.5 236t228.5 140.5t288.5 48q95 0 198 -24.5t159 -49.5l55 -24l-109 -348q-7 4 -19 11.5t-49 25.5t-72.5 32t-83.5 25.5 t-89 11.5q-105 0 -168.5 -76t-73.5 -258q36 40 99 68.5t145 28.5q88 0 136 -49t48 -117q0 -72 -51.5 -116t-136.5 -44q-43 0 -105 29.5t-82 29.5q-17 0 -31 -12t-14 -33q0 -110 66.5 -189t179.5 -79q72 0 152.5 26.5t125.5 52.5zM672 1556q-195 5 -324 17l291 393h317 l289 -393l-321 -17l-127 203z" />
<glyph horiz-adv-x="1245" d="M1130 410l101 -318q-6 -5 -17.5 -14t-52 -31t-86 -39t-119 -31t-151.5 -14q-163 0 -295 47t-228 138.5t-148 235t-52 329.5q0 181 54.5 324.5t151.5 236t228.5 140.5t288.5 48q95 0 198 -24.5t159 -49.5l55 -24l-109 -348q-7 4 -19 11.5t-49 25.5t-72.5 32t-83.5 25.5 t-89 11.5q-105 0 -168.5 -76t-73.5 -258q36 40 99 68.5t145 28.5q88 0 136 -49t48 -117q0 -72 -51.5 -116t-136.5 -44q-43 0 -105 29.5t-82 29.5q-17 0 -31 -12t-14 -33q0 -110 66.5 -189t179.5 -79q72 0 152.5 26.5t125.5 52.5zM674 1966l125 -203l127 203q171 -10 321 -16 l-289 -394h-317l-291 394q57 5 138 9t134 5z" />
<glyph horiz-adv-x="1245" d="M1130 410l101 -318q-6 -5 -17.5 -14t-52 -31t-86 -39t-119 -31t-151.5 -14q-163 0 -295 47t-228 138.5t-148 235t-52 329.5q0 181 54.5 324.5t151.5 236t228.5 140.5t288.5 48q95 0 198 -24.5t159 -49.5l55 -24l-109 -348q-7 4 -19 11.5t-49 25.5t-72.5 32t-83.5 25.5 t-89 11.5q-105 0 -168.5 -76t-73.5 -258q36 40 99 68.5t145 28.5q88 0 136 -49t48 -117q0 -72 -51.5 -116t-136.5 -44q-43 0 -105 29.5t-82 29.5q-17 0 -31 -12t-14 -33q0 -110 66.5 -189t179.5 -79q72 0 152.5 26.5t125.5 52.5zM725 1774q0 -90 -63 -154t-152 -64t-152 64 t-63 154q0 89 63 152t152 63t152 -63t63 -152zM1233 1774q0 -90 -63 -154t-152 -64t-152 64t-63 154q0 89 63 152t152 63t152 -63t63 -152z" />
<glyph horiz-adv-x="1245" d="M1130 410l101 -318q-6 -5 -17.5 -14t-52 -31t-86 -39t-119 -31t-151.5 -14q-163 0 -295 47t-228 138.5t-148 235t-52 329.5q0 181 54.5 324.5t151.5 236t228.5 140.5t288.5 48q95 0 198 -24.5t159 -49.5l55 -24l-109 -348q-7 4 -19 11.5t-49 25.5t-72.5 32t-83.5 25.5 t-89 11.5q-105 0 -168.5 -76t-73.5 -258q36 40 99 68.5t145 28.5q88 0 136 -49t48 -117q0 -72 -51.5 -116t-136.5 -44q-43 0 -105 29.5t-82 29.5q-17 0 -31 -12t-14 -33q0 -110 66.5 -189t179.5 -79q72 0 152.5 26.5t125.5 52.5zM1135 1620h-744v246h744v-246z" />
<glyph horiz-adv-x="1245" d="M1130 410l101 -318q-6 -5 -17.5 -14t-52 -31t-86 -39t-119 -31t-151.5 -14q-163 0 -295 47t-228 138.5t-148 235t-52 329.5q0 181 54.5 324.5t151.5 236t228.5 140.5t288.5 48q95 0 198 -24.5t159 -49.5l55 -24l-109 -348q-7 4 -19 11.5t-49 25.5t-72.5 32t-83.5 25.5 t-89 11.5q-105 0 -168.5 -76t-73.5 -258q36 40 99 68.5t145 28.5q88 0 136 -49t48 -117q0 -72 -51.5 -116t-136.5 -44q-43 0 -105 29.5t-82 29.5q-17 0 -31 -12t-14 -33q0 -110 66.5 -189t179.5 -79q72 0 152.5 26.5t125.5 52.5zM926 1919l264 -31q-1 -7 -4 -19t-16 -46.5 t-31 -66t-52 -69.5t-76 -65.5t-106.5 -46.5t-140.5 -19t-141 18.5t-107.5 47.5t-76.5 64.5t-52.5 71t-30.5 64.5t-16 48l-4 18l262 31q2 -5 5.5 -14t17 -31t31 -39t47.5 -31t65 -14q34 0 63.5 13.5t47 32t29.5 37.5t17 33z" />
<glyph horiz-adv-x="1245" d="M1130 410l101 -318q-6 -5 -17.5 -14t-52 -31t-86 -39t-119 -31t-151.5 -14q-163 0 -295 47t-228 138.5t-148 235t-52 329.5q0 181 54.5 324.5t151.5 236t228.5 140.5t288.5 48q95 0 198 -24.5t159 -49.5l55 -24l-109 -348q-7 4 -19 11.5t-49 25.5t-72.5 32t-83.5 25.5 t-89 11.5q-105 0 -168.5 -76t-73.5 -258q36 40 99 68.5t145 28.5q88 0 136 -49t48 -117q0 -72 -51.5 -116t-136.5 -44q-43 0 -105 29.5t-82 29.5q-17 0 -31 -12t-14 -33q0 -110 66.5 -189t179.5 -79q72 0 152.5 26.5t125.5 52.5zM1057 1812q0 -108 -76 -184t-184 -76 t-184 76t-76 184q0 107 76.5 184t183.5 77t183.5 -77t76.5 -184z" />
<glyph horiz-adv-x="1245" d="M1047 -551v-2q-6 0 -17 1t-45 5.5t-66.5 11.5t-77 21.5t-83 32.5t-77.5 47.5t-66 64.5t-44.5 84.5t-17.5 106.5q0 87 63 160q-251 47 -392.5 232.5t-141.5 498.5q0 181 54.5 324.5t151.5 236t228.5 140.5t288.5 48q95 0 198 -24.5t159 -49.5l55 -24l-109 -348 q-7 4 -19 11.5t-49 25.5t-72.5 32t-83.5 25.5t-89 11.5q-105 0 -168.5 -76t-73.5 -258q36 40 99 68.5t145 28.5q88 0 136 -49t48 -117q0 -72 -51.5 -116t-136.5 -44q-43 0 -105 29.5t-82 29.5q-17 0 -31 -12t-14 -33q0 -110 66.5 -189t179.5 -79q72 0 152.5 26.5t125.5 52.5 l45 26l101 -318q-10 -8 -29 -21.5t-84 -43t-137 -45.5q-129 -51 -129 -138q0 -44 56 -69t112 -28l55 -3z" />
<glyph horiz-adv-x="1128" d="M61 334q58 -2 103 10.5t77.5 45t54 63.5t39.5 89.5t27.5 98.5t24.5 113q15 72 23.5 110t28 108t38.5 109.5t53 98.5t72.5 93.5t95 75t123.5 62t155.5 36.5t192.5 15l-41 -370q-63 3 -110.5 -18.5t-76 -51t-52.5 -93t-35 -107.5t-29 -131q-15 -73 -24 -111.5t-29.5 -110 t-40.5 -112.5t-55.5 -102t-75 -96.5t-99 -77.5t-128.5 -64.5t-161 -38t-200 -15.5zM889 1974q268 -12 399 -24l-291 -394h-317z" />
<glyph horiz-adv-x="1128" d="M61 334q58 -2 103 10.5t77.5 45t54 63.5t39.5 89.5t27.5 98.5t24.5 113q15 72 23.5 110t28 108t38.5 109.5t53 98.5t72.5 93.5t95 75t123.5 62t155.5 36.5t192.5 15l-41 -370q-63 3 -110.5 -18.5t-76 -51t-52.5 -93t-35 -107.5t-29 -131q-15 -73 -24 -111.5t-29.5 -110 t-40.5 -112.5t-55.5 -102t-75 -96.5t-99 -77.5t-128.5 -64.5t-161 -38t-200 -15.5zM723 1556q-195 5 -324 17l291 393h318l288 -393l-321 -17l-127 203z" />
<glyph horiz-adv-x="1128" d="M61 334q58 -2 103 10.5t77.5 45t54 63.5t39.5 89.5t27.5 98.5t24.5 113q15 72 23.5 110t28 108t38.5 109.5t53 98.5t72.5 93.5t95 75t123.5 62t155.5 36.5t192.5 15l-41 -370q-63 3 -110.5 -18.5t-76 -51t-52.5 -93t-35 -107.5t-29 -131q-15 -73 -24 -111.5t-29.5 -110 t-40.5 -112.5t-55.5 -102t-75 -96.5t-99 -77.5t-128.5 -64.5t-161 -38t-200 -15.5zM729 1966l125 -203l127 203q172 -10 322 -16l-289 -394h-318l-290 394q57 5 138 9t133 5z" />
<glyph horiz-adv-x="1128" d="M2 -508l35 139q90 -32 166 -32q116 0 116 73q0 34 -22 54t-59 20q-21 0 -42.5 -3.5t-32.5 -6.5l-11 -4l-58 28l82 213q-85 -10 -164 -10l49 371q58 -2 103 10.5t77.5 45t54 63.5t39.5 89.5t27.5 98.5t24.5 113q15 72 23.5 110t28 108t38.5 109.5t53 98.5t72.5 93.5t95 75 t123.5 62t155.5 36.5t192.5 15l-41 -370q-74 3 -126.5 -24.5t-83 -79t-50.5 -119.5t-36.5 -148t-35 -163t-51.5 -166t-79.5 -154.5t-126 -132t-185.5 -95.5l-24 -131q118 -6 190 -58t72 -151q0 -74 -57 -126.5t-135.5 -74.5t-166.5 -22q-59 0 -117 11.5t-86 22.5z" />
<glyph horiz-adv-x="1128" d="M61 334q58 -2 103 10.5t77.5 45t54 63.5t39.5 89.5t27.5 98.5t24.5 113q15 72 23.5 110t28 108t38.5 109.5t53 98.5t72.5 93.5t95 75t123.5 62t155.5 36.5t192.5 15l-41 -370q-63 3 -110.5 -18.5t-76 -51t-52.5 -93t-35 -107.5t-29 -131q-15 -73 -24 -111.5t-29.5 -110 t-40.5 -112.5t-55.5 -102t-75 -96.5t-99 -77.5t-128.5 -64.5t-161 -38t-200 -15.5zM18 -117h369l-78 -430h-307z" />
<glyph horiz-adv-x="1409" d="M1358 1075l-299 -2l350 -1073q-299 4 -539 -6l-75 295h-379q-26 -182 -33 -289h-342q26 341 262 1073h-303q29 202 33 352h1374zM467 551h260l-129 496q-72 -223 -131 -496z" />
<glyph horiz-adv-x="1245" d="M1130 410l101 -318q-6 -5 -17.5 -14t-52 -31t-86 -39t-119 -31t-151.5 -14q-163 0 -295 47t-228 138.5t-148 235t-52 329.5q0 181 54.5 324.5t151.5 236t228.5 140.5t288.5 48q95 0 198 -24.5t159 -49.5l55 -24l-109 -348q-7 4 -19 11.5t-49 25.5t-72.5 32t-83.5 25.5 t-89 11.5q-114 0 -179 -90t-65 -307q0 -223 64 -321.5t192 -98.5q72 0 152.5 26.5t125.5 52.5zM1061 977l172 -531q-141 0 -229 -2l-27 101h-113q-2 -19 -7 -50.5t-7 -48.5h-145q6 81 42 213.5t69 224.5l32 93h213zM883 659h67l-32 168q-5 -25 -12 -54t-12.5 -54.5 t-10.5 -59.5z" />
<glyph horiz-adv-x="1245" d="M1130 410l101 -318q-6 -5 -17.5 -14t-52 -31t-86 -39t-119 -31t-151.5 -14q-163 0 -295 47t-228 138.5t-148 235t-52 329.5q0 181 54.5 324.5t151.5 236t228.5 140.5t288.5 48q95 0 198 -24.5t159 -49.5l55 -24l-109 -348q-7 4 -19 11.5t-49 25.5t-72.5 32t-83.5 25.5 t-89 11.5q-114 0 -179 -90t-65 -307q0 -223 64 -321.5t192 -98.5q72 0 152.5 26.5t125.5 52.5zM1102 612l39 -131q-6 -5 -18.5 -13.5t-54 -22t-87.5 -13.5q-127 0 -206 72t-79 209q0 133 81 205.5t204 72.5q36 0 75 -9.5t60 -18.5l21 -9l-43 -143q-58 41 -111 41 q-42 0 -62 -27t-20 -108q0 -83 19.5 -114.5t64.5 -31.5q28 0 57.5 10.5t44.5 20.5z" />
<glyph horiz-adv-x="1245" d="M1130 410l101 -318q-6 -5 -17.5 -14t-52 -31t-86 -39t-119 -31t-151.5 -14q-163 0 -295 47t-228 138.5t-148 235t-52 329.5q0 181 54.5 324.5t151.5 236t228.5 140.5t288.5 48q95 0 198 -24.5t159 -49.5l55 -24l-109 -348q-7 4 -19 11.5t-49 25.5t-72.5 32t-83.5 25.5 t-89 11.5q-114 0 -179 -90t-65 -307q0 -223 64 -321.5t192 -98.5q72 0 152.5 26.5t125.5 52.5zM963 586l204 8q-10 -93 -12 -148h-395q4 148 4 265l-6 266h383v-129h-176l-2 -107q32 37 84 37q32 0 49.5 -18t17.5 -45t-19.5 -43.5t-50.5 -16.5q-16 0 -37.5 11.5t-27.5 11.5 q-16 0 -16 -23v-69z" />
<glyph horiz-adv-x="1245" d="M1130 410l101 -318q-6 -5 -17.5 -14t-52 -31t-86 -39t-119 -31t-151.5 -14q-163 0 -295 47t-228 138.5t-148 235t-52 329.5q0 181 54.5 324.5t151.5 236t228.5 140.5t288.5 48q95 0 198 -24.5t159 -49.5l55 -24l-109 -348q-7 4 -19 11.5t-49 25.5t-72.5 32t-83.5 25.5 t-89 11.5q-114 0 -179 -90t-65 -307q0 -223 64 -321.5t192 -98.5q72 0 152.5 26.5t125.5 52.5zM1102 616l39 -135q-7 -5 -19 -13.5t-54 -22t-87 -13.5q-127 0 -206 72t-79 209q0 133 81 205.5t204 72.5q36 0 74.5 -9.5t58.5 -18.5l21 -9l-41 -145q-58 39 -113 39 q-38 0 -57 -20t-23 -87q37 37 86 37q33 0 51.5 -19t18.5 -44q0 -28 -19.5 -46t-50.5 -18q-17 0 -38 12.5t-27 12.5q-19 0 -19 -17q0 -84 84 -84q26 0 55 10.5t44 20.5z" />
<glyph horiz-adv-x="1245" d="M1130 410l101 -318q-6 -5 -17.5 -14t-52 -31t-86 -39t-119 -31t-151.5 -14q-163 0 -295 47t-228 138.5t-148 235t-52 329.5q0 181 54.5 324.5t151.5 236t228.5 140.5t288.5 48q95 0 198 -24.5t159 -49.5l55 -24l-109 -348q-7 4 -19 11.5t-49 25.5t-72.5 32t-83.5 25.5 t-89 11.5q-114 0 -179 -90t-65 -307q0 -223 64 -321.5t192 -98.5q72 0 152.5 26.5t125.5 52.5zM969 991q121 0 194.5 -72t73.5 -206t-73.5 -207.5t-194.5 -73.5t-196 73.5t-75 207.5t75 206t196 72zM905 715q0 -127 64 -127q61 0 61 119q0 131 -63 131q-33 0 -47.5 -29 t-14.5 -94z" />
<glyph horiz-adv-x="1245" d="M1130 410l101 -318q-6 -5 -17.5 -14t-52 -31t-86 -39t-119 -31t-151.5 -14q-163 0 -295 47t-228 138.5t-148 235t-52 329.5q0 181 54.5 324.5t151.5 236t228.5 140.5t288.5 48q95 0 198 -24.5t159 -49.5l55 -24l-109 -348q-7 4 -19 11.5t-49 25.5t-72.5 32t-83.5 25.5 t-89 11.5q-114 0 -179 -90t-65 -307q0 -223 64 -321.5t192 -98.5q72 0 152.5 26.5t125.5 52.5zM1065 977h149v-322q0 -108 -56 -165.5t-169 -57.5q-111 0 -179.5 59.5t-68.5 163.5v322h213q-6 -218 -6 -324q0 -65 60 -65q30 0 43.5 15t13.5 48v326z" />
<glyph horiz-adv-x="1712" d="M1085 332l586 20q-31 -202 -33 -352h-1564q-1 67 -9 155t-16 143l-8 54l586 -20l2 233q0 56 -45 56q-20 0 -82 -30t-105 -30q-85 0 -136.5 44t-51.5 116q0 68 48 117t136 49q77 0 138 -29.5t98 -69.5q-6 256 -8 332h-506v305h1482v-305h-505l-9 -332q37 40 98 69.5 t138 29.5q88 0 136 -49t48 -117q0 -72 -51.5 -116t-136.5 -44q-43 0 -105 30t-82 30q-45 0 -45 -56q2 -210 2 -233z" />
<glyph horiz-adv-x="1843" d="M1729 410l100 -318q-6 -5 -17.5 -14t-52 -31t-86 -39t-119 -31t-151.5 -14q-295 0 -481 148q-186 -148 -482 -148q-78 0 -150.5 13.5t-120.5 32.5t-84.5 37.5t-53.5 31.5l-17 14l101 318q7 -4 18.5 -11t48 -25.5t73 -32t87.5 -25t96 -11.5q113 0 179.5 79t66.5 189 q0 21 -14 33t-31 12q-20 0 -81.5 -29.5t-104.5 -29.5q-85 0 -137 44t-52 116q0 68 48.5 117t136.5 49q82 0 144.5 -28.5t98.5 -68.5q-10 182 -73.5 258t-167.5 76q-64 0 -142.5 -26.5t-124.5 -53.5l-47 -26l-108 348q8 4 22.5 10.5t60.5 23.5t92 30t111 23.5t125 10.5 q290 0 482 -157q189 157 481 157q95 0 198 -24.5t159 -49.5l55 -24l-109 -348q-7 4 -19 11.5t-49 25.5t-72.5 32t-83.5 25.5t-89 11.5q-105 0 -168.5 -76t-73.5 -258q36 40 99 68.5t145 28.5q88 0 136 -49t48 -117q0 -72 -51.5 -116t-136.5 -44q-43 0 -105 29.5t-82 29.5 q-17 0 -31 -12t-14 -33q0 -110 66.5 -189t179.5 -79q72 0 153 26.5t126 52.5z" />
<glyph horiz-adv-x="1644" d="M1087 336l547 16q-28 -202 -32 -352h-1528q-1 67 -9 155t-16 143l-8 54l586 -20l2 233q0 56 -45 56q-20 0 -82 -30t-105 -30q-85 0 -136.5 44t-51.5 116q0 68 48 117t136 49q77 0 138 -29.5t98 -69.5q-6 256 -8 332h-506v305h977z" />
<glyph horiz-adv-x="1622" d="M606 1090q-8 -191 -10 -308h211l-76 -286h-135q6 -456 6 -496h-475q10 401 10 709q0 99 -3.5 278t-7.5 309l-3 129h1425q2 -67 10 -155t16 -142l7 -55zM1339 889l291 -889q-237 2 -387 -4l-43 170h-188q-2 -15 -11.5 -74t-11.5 -92h-244q11 136 71 358t114 376l55 155 h354zM1042 356h115l-57 281q-7 -33 -20 -89t-21 -95t-17 -97z" />
<glyph horiz-adv-x="1615" d="M606 1090q-8 -191 -10 -308h172l2 -286h-174q6 -456 6 -496h-475q10 401 10 709q0 99 -3.5 278t-7.5 309l-3 129h1415q2 -67 10 -155t16 -142l7 -55zM1227 233l342 13q-19 -154 -21 -246h-663q6 247 6 442l-8 447h641v-217h-293l-6 -180q57 61 139 61q55 0 85 -30.5 t30 -73.5q0 -44 -32.5 -71.5t-84.5 -27.5q-27 0 -62 18.5t-47 18.5q-28 0 -28 -35q2 -105 2 -119z" />
<glyph horiz-adv-x="1654" d="M606 1090q-8 -191 -10 -308h229l-69 -286h-160q6 -456 6 -496h-475q10 401 10 709q0 99 -3.5 278t-7.5 309l-3 129h1456q2 -67 10 -155t15 -142l8 -55zM1542 283l62 -226q-4 -3 -11 -8.5t-32.5 -20t-54 -25t-74.5 -19.5t-95 -9q-137 0 -242 50.5t-168 158t-63 260.5 q0 112 37.5 202t102.5 147t150 87.5t183 30.5q59 0 123.5 -15.5t99.5 -30.5l35 -15l-67 -244q-11 7 -30 18t-69 29.5t-90 18.5q-34 0 -54.5 -5.5t-39.5 -23.5t-28.5 -55t-12.5 -96q59 63 146 63q55 0 84.5 -32t29.5 -74q0 -46 -32 -75.5t-84 -29.5q-27 0 -62.5 20.5 t-48.5 20.5q-11 0 -20 -7.5t-9 -21.5q0 -139 140 -139q44 0 92.5 16.5t75.5 32.5z" />
<glyph horiz-adv-x="1544" d="M606 1090q-8 -191 -10 -308h172l2 -286h-174q6 -456 6 -496h-475q10 401 10 709q0 99 -3.5 278t-7.5 309l-3 129h1329q2 -67 10 -155t16 -142l7 -55zM1229 651q-1 -28 -3 -72t-3 -79h250l-5 -209h-245q4 -188 4 -291h-344q6 247 6 442l-8 447h604q2 -41 7 -103t9 -104 l4 -41z" />
<glyph horiz-adv-x="1796" d="M606 1090q-8 -191 -10 -308h229l-69 -286h-160q6 -456 6 -496h-475q10 401 10 709q0 99 -3.5 278t-7.5 309l-3 129h1585q2 -67 10 -155t16 -142l7 -55zM1307 911q203 0 325.5 -121.5t122.5 -345.5q0 -223 -123 -346t-325 -123q-201 0 -326 123t-125 346 q0 224 124.5 345.5t326.5 121.5zM1200 451q0 -215 107 -215q56 0 80 51t24 149t-27.5 158.5t-83.5 60.5q-53 0 -76.5 -48t-23.5 -156z" />
<glyph horiz-adv-x="1763" d="M606 1090q-8 -191 -10 -308h172l2 -286h-174q6 -456 6 -496h-475q10 401 10 709q0 99 -3.5 278t-7.5 309l-3 129h1522q2 -67 10 -155t15 -142l7 -55zM1423 889h248v-537q0 -182 -93 -279.5t-280 -97.5t-301 100.5t-114 276.5v537h354q-10 -365 -10 -541q0 -112 100 -112 q50 0 73 26t23 84v543z" />
<glyph horiz-adv-x="2015" d="M1389 332l585 20q-30 -202 -32 -352h-1020q6 295 8 573h-334q6 -504 6 -573h-473q8 401 8 709q0 99 -3.5 278t-7.5 309l-3 129h498q-17 -343 -23 -589h332l-15 589h986v-305h-506l-9 -332q37 40 98 69.5t138 29.5q88 0 136 -49t48 -117q0 -72 -51.5 -116t-136.5 -44 q-43 0 -104.5 30t-81.5 30q-46 0 -46 -56q3 -210 3 -233z" />
<glyph horiz-adv-x="2347" d="M2298 401l29 -438q-249 -53 -472 -53q-139 0 -271.5 20.5t-240 53.5t-209 80.5t-178.5 96t-148.5 106t-119.5 104.5t-92 96q6 -423 6 -467h-473q8 401 8 709q0 99 -3.5 278t-7.5 309l-3 129h498q-19 -378 -25 -624h84q289 442 377 637l418 -29q-309 -454 -506 -723 q66 -63 150.5 -119.5t196 -108.5t253.5 -83t293 -31q82 0 191 14t177 28zM2015 1425l291 -888q-237 1 -387 -5l-43 170h-188q-2 -16 -11.5 -74t-11.5 -91h-244q11 136 71 358t114 376l55 154h354zM1718 893h115l-57 281q-7 -33 -20 -89t-21 -95t-17 -97z" />
<glyph horiz-adv-x="1660" d="M608 336l1010 16q-29 -202 -33 -352h-1462q16 494 16 715q0 138 -2.5 315.5t-4.5 285.5l-3 109h483zM1350 1425l290 -888q-237 1 -387 -5l-43 170h-188q-2 -16 -11.5 -74t-11.5 -91h-243q11 136 71 358t114 376l54 154h355zM1053 893h114l-57 281q-7 -30 -16.5 -73 t-14.5 -65t-12 -60t-14 -83z" />
<glyph horiz-adv-x="1484" d="M608 336l840 16q-29 -202 -33 -352h-1292q16 494 16 715q0 138 -2.5 315.5t-4.5 285.5l-3 109h483zM1133 770l342 12q-19 -153 -21 -245h-663q6 247 6 442l-9 446h642v-217h-293l-7 -180q58 62 140 62q55 0 84.5 -31t29.5 -74q0 -44 -32 -71t-84 -27q-27 0 -62 18.5 t-47 18.5q-29 0 -29 -35q3 -105 3 -119z" />
<glyph horiz-adv-x="1499" d="M608 336l854 16q-28 -202 -32 -352h-1307q16 494 16 715q0 138 -2.5 315.5t-4.5 285.5l-3 109h483zM1427 819l62 -225q-4 -3 -11 -8.5t-32.5 -20t-54 -25t-74 -19.5t-94.5 -9q-137 0 -242 50.5t-168 158t-63 260.5q0 112 37.5 202t102.5 147t150 87.5t183 30.5 q59 0 123.5 -15.5t99.5 -30.5l35 -16l-68 -243q-11 7 -30 18t-68.5 29t-89.5 18q-34 0 -54.5 -5.5t-39.5 -23.5t-28.5 -55t-12.5 -96q60 64 145 64q55 0 85 -32.5t30 -74.5q0 -46 -32.5 -75t-84.5 -29q-27 0 -62.5 20.5t-48.5 20.5q-10 0 -19 -7.5t-9 -21.5q0 -139 139 -139 q44 0 92.5 16t74.5 32z" />
<glyph horiz-adv-x="1466" d="M608 336l822 16q-29 -202 -33 -352h-1274q16 494 16 715q0 138 -2.5 315.5t-4.5 285.5l-3 109h483zM1139 772l317 10q-18 -153 -20 -245h-648q11 307 11 444l-6 444h348z" />
<glyph horiz-adv-x="1660" d="M608 336l1032 16q-28 -202 -32 -352h-1485q16 494 16 715q0 138 -2.5 315.5t-4.5 285.5l-3 109h483zM1200 1448q203 0 326 -121.5t123 -345.5q0 -223 -123.5 -346t-325.5 -123q-201 0 -325.5 123t-124.5 346q0 224 124 345.5t326 121.5zM1094 987q0 -215 106 -215 q105 0 105 201q0 98 -27.5 158.5t-83.5 60.5q-53 0 -76.5 -48.5t-23.5 -156.5z" />
<glyph horiz-adv-x="1642" d="M608 336l955 16q-29 -202 -33 -352h-1407q16 494 16 715q0 138 -2.5 315.5t-4.5 285.5l-3 109h483zM1333 1425h248v-536q0 -182 -93 -279.5t-280 -97.5t-301 100.5t-114 276.5v536h354q-10 -364 -10 -540q0 -113 100 -113q50 0 73 26.5t23 84.5v542z" />
<glyph horiz-adv-x="2244" d="M1618 332l586 20q-31 -202 -33 -352h-1022q0 -3 1 45t2.5 127t3 172t2.5 199.5t1 189.5q-140 -259 -348 -592q-20 24 -79.5 131.5t-139 251t-131.5 226.5q0 -99 2 -349t2 -401h-336q10 401 10 709q0 99 -4 278t-8 309l-4 129h452q30 -47 157.5 -323t170.5 -350 q204 434 324 673h903v-305h-506l-8 -332q37 40 97.5 69.5t137.5 29.5q88 0 136.5 -49t48.5 -117q0 -72 -52 -116t-137 -44q-43 0 -104.5 30t-81.5 30q-45 0 -45 -56q2 -210 2 -233z" />
<glyph horiz-adv-x="2338" d="M1323 711q0 -92 3 -332t3 -379h-303q-26 33 -233.5 288.5t-335.5 426.5q0 -90 3 -331t3 -384h-336q8 401 8 711q1 98 -2 276.5t-7 308.5l-3 129h354q513 -671 533 -696l-13 696h342q66 -86 295 -383.5t242 -312.5l-12 696h352q-25 -498 -27 -723q0 -86 3 -324t3 -378 h-303q-67 83 -177 216t-203.5 250.5t-188.5 244.5z" />
<glyph horiz-adv-x="2422" d="M1659 1462q321 0 501.5 -192t180.5 -557q0 -361 -181.5 -555.5t-500.5 -194.5q-274 0 -449 146q-175 -146 -446 -146q-319 0 -500.5 194.5t-181.5 555.5q0 365 180.5 557t501.5 192q271 0 446 -143q175 143 449 143zM977 725q0 228 -49.5 329t-153.5 101 q-111 0 -166 -124.5t-55 -332.5q0 -209 49 -316.5t160 -107.5q215 0 215 451zM1446 725q0 -451 215 -451q111 0 160 107.5t49 316.5q0 208 -55 332.5t-166 124.5q-104 0 -153.5 -101t-49.5 -329z" />
<glyph horiz-adv-x="2355" d="M2298 385l29 -422q-251 -53 -474 -53q-128 0 -248 20t-215 52t-184 79t-155 94t-128 104t-102.5 103t-79.5 97l-143 -19q4 -304 4 -440h-473q10 401 10 709q0 99 -4 278t-8 309l-4 129h500q79 -1 147 -7t141.5 -19.5t132 -35t112.5 -56t90 -79t57.5 -107.5t21.5 -140 q0 -125 -54 -221t-134 -154q280 -276 725 -276q82 0 191 14t177 28zM598 715q264 6 264 239q0 54 -18.5 91.5t-47.5 53t-64.5 24.5t-70 6.5t-63.5 -1.5q-2 -61 -2 -136t1 -159.5t1 -117.5zM2044 1425l291 -888q-237 1 -387 -5l-43 170h-189q-3 -22 -8 -54.5t-8.5 -59 t-5.5 -51.5h-244q11 136 71 358t115 376l54 154h354zM1747 893h115l-58 281q-7 -30 -16.5 -73t-14.5 -65t-12 -60t-14 -83z" />
<glyph horiz-adv-x="2250" d="M2171 385l29 -422q-251 -53 -474 -53q-121 0 -232.5 19.5t-199 51.5t-168 78t-139 93.5t-112 103.5t-88.5 102.5t-66 96.5l-123 -15q4 -304 4 -440h-473q10 401 10 709q0 99 -4 278t-8 309l-4 129h500q79 -1 147 -7t141.5 -19.5t132 -35t112.5 -56t90 -79t57.5 -107.5 t21.5 -140q0 -136 -63.5 -238t-151.5 -155q226 -258 625 -258q82 0 191 14t177 28zM1849 770l342 12q-18 -153 -20 -245h-664q6 247 6 442l-8 446h641v-217h-293l-6 -180q58 62 140 62q55 0 84.5 -31t29.5 -74q0 -44 -32 -71t-84 -27q-27 0 -62 18.5t-47 18.5q-29 0 -29 -35 q2 -105 2 -119zM598 715q264 6 264 239q0 54 -18.5 91.5t-47.5 53t-64.5 24.5t-70 6.5t-63.5 -1.5q-2 -61 -2 -136t1 -159.5t1 -117.5z" />
<glyph horiz-adv-x="2250" d="M2136 819l62 -225q-4 -3 -11 -8.5t-32.5 -20t-54 -25t-74.5 -19.5t-95 -9q-137 0 -242 50.5t-168 158t-63 260.5q0 112 37.5 202t102.5 147t150 87.5t183 30.5q59 0 123.5 -15.5t99.5 -30.5l35 -16l-67 -243q-11 7 -30 18t-69 29t-90 18q-34 0 -54.5 -5.5t-39.5 -23.5 t-28.5 -55t-12.5 -96q60 64 146 64q55 0 84.5 -32.5t29.5 -74.5q0 -46 -32 -75t-84 -29q-27 0 -62.5 20.5t-48.5 20.5q-11 0 -20 -7.5t-9 -21.5q0 -139 140 -139q44 0 92.5 16t75.5 32zM2171 385l29 -422q-251 -53 -474 -53q-121 0 -232.5 19.5t-199 51.5t-168 78t-139 93.5 t-112 103.5t-88.5 102.5t-66 96.5l-123 -15q4 -304 4 -440h-473q10 401 10 709q0 99 -4 278t-8 309l-4 129h500q79 -1 147 -7t141.5 -19.5t132 -35t112.5 -56t90 -79t57.5 -107.5t21.5 -140q0 -136 -63.5 -238t-151.5 -155q226 -258 625 -258q82 0 191 14t177 28zM598 715 q264 6 264 239q0 54 -18.5 91.5t-47.5 53t-64.5 24.5t-70 6.5t-63.5 -1.5q-2 -61 -2 -136t1 -159.5t1 -117.5z" />
<glyph horiz-adv-x="2398" d="M2298 385l29 -422q-251 -53 -474 -53q-128 0 -248 20t-215 52t-184 79t-155 94t-128 104t-102.5 103t-79.5 97l-143 -19q4 -304 4 -440h-473q10 401 10 709q0 99 -4 278t-8 309l-4 129h500q79 -1 147 -7t141.5 -19.5t132 -35t112.5 -56t90 -79t57.5 -107.5t21.5 -140 q0 -125 -54 -221t-134 -154q280 -276 725 -276q82 0 191 14t177 28zM598 715q264 6 264 239q0 54 -18.5 91.5t-47.5 53t-64.5 24.5t-70 6.5t-63.5 -1.5q-2 -61 -2 -136t1 -159.5t1 -117.5zM1909 1448q203 0 325.5 -121.5t122.5 -345.5q0 -223 -123 -346t-325 -123 q-201 0 -326 123t-125 346q0 224 124.5 345.5t326.5 121.5zM1802 987q0 -215 107 -215q104 0 104 201q0 99 -27 159t-83 60q-53 0 -77 -48.5t-24 -156.5z" />
<glyph horiz-adv-x="2361" d="M2257 385l29 -422q-248 -53 -471 -53q-657 0 -1072 549q-38 -7 -74.5 -12t-53.5 -6l-17 -1q4 -304 4 -440h-473q10 401 10 709q0 99 -4 278t-8 309l-4 129h500q79 -1 147 -7t141.5 -19.5t132 -35t112.5 -56t90 -79t57.5 -107.5t21.5 -140q0 -125 -54 -221t-134 -154 q272 -276 684 -276q82 0 191 14t177 28zM598 715q264 6 264 239q0 54 -18.5 91.5t-47.5 53t-64.5 24.5t-70 6.5t-63.5 -1.5q-2 -61 -2 -136t1 -159.5t1 -117.5zM2042 1425h248v-536q0 -182 -93 -279.5t-280 -97.5q-188 0 -302 100.5t-114 276.5v536h354q-10 -364 -10 -540 q0 -113 101 -113q50 0 73 26.5t23 84.5v542z" />
<glyph horiz-adv-x="2684" d="M2562 1425q-25 -498 -25 -723q0 -86 3.5 -324t3.5 -378h-473q6 295 8 573h-334q6 -504 6 -573h-473q8 401 8 709q0 45 -1 111.5t-2.5 154t-2.5 137.5q-381 51 -498 51q-64 0 -109.5 -5t-85.5 -17.5t-60.5 -38.5t-20.5 -64q0 -30 32.5 -59.5t85 -57t115.5 -59.5t126 -75 t115.5 -95t85 -128.5t32.5 -166.5q0 -137 -81.5 -237t-212.5 -148.5t-294 -48.5q-80 0 -157 13t-129.5 31.5t-93 36.5t-60.5 31l-19 13l99 285q8 -5 21.5 -12t54.5 -26.5t81.5 -34t95 -26.5t101.5 -12q141 0 141 103q0 39 -32.5 72.5t-84.5 62t-115 59t-126 72t-115 91.5 t-84.5 126.5t-32.5 169.5q0 114 51.5 200t148 139t228 79t297.5 26q147 0 564.5 -18.5t424.5 -18.5q-16 -343 -22 -589h332l-15 589h498z" />
<glyph horiz-adv-x="2623" d="M1745 801h84q289 442 377 637l417 -29q-269 -405 -466 -670q41 -56 160 -223.5t212 -292t156 -192.5l-516 -68q-106 88 -424 633q0 -83 3 -277t3 -319h-473q8 401 8 709q0 45 -1 111.5t-2.5 154t-2.5 137.5q-381 51 -498 51q-64 0 -109.5 -5t-85.5 -17.5t-60.5 -38.5 t-20.5 -64q0 -30 32.5 -59.5t85 -57t115.5 -59.5t126 -75t115.5 -95t85 -128.5t32.5 -166.5q0 -137 -81.5 -237t-212.5 -148.5t-294 -48.5q-80 0 -157 13t-129.5 31.5t-93 36.5t-60.5 31l-19 13l99 285q8 -5 21.5 -12t54.5 -26.5t81.5 -34t95 -26.5t101.5 -12q141 0 141 103 q0 39 -32.5 72.5t-84.5 62t-115 59t-126 72t-115 91.5t-84.5 126.5t-32.5 169.5q0 114 51.5 200t148 139t228 79t297.5 26q147 0 564.5 -18.5t424.5 -18.5q-18 -378 -24 -624z" />
<glyph horiz-adv-x="2314" d="M506 1038q0 -30 32.5 -59.5t85 -57t115.5 -59.5t126 -75t115.5 -95t85 -128.5t32.5 -166.5q0 -137 -81.5 -237t-212.5 -148.5t-294 -48.5q-80 0 -157 13t-129.5 31.5t-93 36.5t-60.5 31l-19 13l99 285q8 -5 21.5 -12t54.5 -26.5t81.5 -34t95 -26.5t101.5 -12 q141 0 141 103q0 39 -32.5 72.5t-84.5 62t-115 59t-126 72t-115 91.5t-84.5 126.5t-32.5 169.5q0 114 51.5 200t148 139t228 79t297.5 26q148 0 563.5 -18.5t417.5 -18.5l-4 -1089l547 16q-29 -202 -33 -352h-999q16 494 16 715q0 147 -4 397q-381 51 -502 51 q-64 0 -109.5 -5t-85.5 -17.5t-60.5 -38.5t-20.5 -64z" />
<glyph horiz-adv-x="2897" d="M506 1038q0 -30 32.5 -59.5t85 -57t115.5 -59.5t126 -75t115.5 -95t85 -128.5t32.5 -166.5q0 -137 -81.5 -237t-212.5 -148.5t-294 -48.5q-80 0 -157 13t-129.5 31.5t-93 36.5t-60.5 31l-19 13l99 285q8 -5 21.5 -12t54.5 -26.5t81.5 -34t95 -26.5t101.5 -12 q141 0 141 103q0 39 -32.5 72.5t-84.5 62t-115 59t-126 72t-115 91.5t-84.5 126.5t-32.5 169.5q0 114 51.5 200t148 139t228 79t297.5 26q110 0 342 -9t409 -19l177 -9q30 -47 157.5 -323t170.5 -350q217 463 323 673h416q-25 -498 -25 -723q0 -86 2.5 -324t2.5 -378h-474 q0 -3 1 45t2.5 127t3.5 172t3 199.5t1 189.5q-140 -259 -348 -592q-20 24 -80 131.5t-139.5 251.5t-131.5 226q0 -99 2 -349t2 -401h-335q10 401 10 709q0 119 -8 405q-362 49 -482 49q-64 0 -109.5 -5t-85.5 -17.5t-60.5 -38.5t-20.5 -64z" />
<glyph horiz-adv-x="2568" d="M506 1038q0 -30 32.5 -59.5t85 -57t115.5 -59.5t126 -75t115.5 -95t85 -128.5t32.5 -166.5q0 -137 -81.5 -237t-212.5 -148.5t-294 -48.5q-80 0 -157 13t-129.5 31.5t-93 36.5t-60.5 31l-19 13l99 285q8 -5 21.5 -12t54.5 -26.5t81.5 -34t95 -26.5t101.5 -12 q141 0 141 103q0 39 -32.5 72.5t-84.5 62t-115 59t-126 72t-115 91.5t-84.5 126.5t-32.5 169.5q0 114 51.5 200t148 139t228 79t297.5 26q109 0 341 -9t423 -18.5t201 -9.5q-14 -590 -14 -872q0 -150 44.5 -214.5t151.5 -64.5q191 0 191 277v874h348v-860q0 -602 -586 -602 q-295 0 -462 159t-167 443v551q-343 47 -469 47q-64 0 -109.5 -5t-85.5 -17.5t-60.5 -38.5t-20.5 -64z" />
<glyph horiz-adv-x="2691" d="M506 1038q0 -30 32.5 -59.5t85 -57t115.5 -59.5t126 -75t115.5 -95t85 -128.5t32.5 -166.5q0 -137 -81.5 -237t-212.5 -148.5t-294 -48.5q-80 0 -157 13t-129.5 31.5t-93 36.5t-60.5 31l-19 13l99 285q8 -5 21.5 -12t54.5 -26.5t81.5 -34t95 -26.5t101.5 -12 q141 0 141 103q0 39 -32.5 72.5t-84.5 62t-115 59t-126 72t-115 91.5t-84.5 126.5t-32.5 169.5q0 114 51.5 200t148 139t228 79t297.5 26q126 0 502 -16l-10 274q103 -5 233 -5t209 3l78 2q-23 -492 -31 -800q42 104 143 165.5t259 61.5q188 0 289.5 -106t101.5 -302 q0 -433 14 -739h-495q0 59 4 259t4 294q0 142 -37 215.5t-131 73.5q-47 0 -79.5 -23.5t-48 -67t-22 -90.5t-6.5 -108q0 -215 15 -553h-494q16 449 16 856q0 74 -4 254q-396 53 -508 53q-64 0 -109.5 -5t-85.5 -17.5t-60.5 -38.5t-20.5 -64z" />
<glyph horiz-adv-x="2629" d="M506 1038q0 -30 32.5 -59.5t85 -57t115.5 -59.5t126 -75t115.5 -95t85 -128.5t32.5 -166.5q0 -137 -81.5 -237t-212.5 -148.5t-294 -48.5q-80 0 -157 13t-129.5 31.5t-93 36.5t-60.5 31l-19 13l99 285q8 -5 21.5 -12t54.5 -26.5t81.5 -34t95 -26.5t101.5 -12 q141 0 141 103q0 39 -32.5 72.5t-84.5 62t-115 59t-126 72t-115 91.5t-84.5 126.5t-32.5 169.5q0 114 51.5 200t148 139t228 79t297.5 26q128 0 500 -16l-8 274q102 -5 231.5 -5t208.5 3l78 2q-31 -570 -31 -872v-182l76 -7q46 68 134 218.5t155 287.5l467 -51 q-30 -29 -79.5 -78t-166 -175.5t-191.5 -223.5q150 -192 537 -627l-537 -67q-112 92 -395 577q0 -157 8 -520h-489q14 449 14 856q0 74 -4 254q-396 53 -506 53q-64 0 -109.5 -5t-85.5 -17.5t-60.5 -38.5t-20.5 -64z" />
<glyph horiz-adv-x="1912" d="M506 1038q0 -30 32.5 -59.5t85 -57t115.5 -59.5t126 -75t115.5 -95t85 -128.5t32.5 -166.5q0 -137 -81.5 -237t-212.5 -148.5t-294 -48.5q-80 0 -157 13t-129.5 31.5t-93 36.5t-60.5 31l-19 13l99 285q8 -5 21.5 -12t54.5 -26.5t81.5 -34t95 -26.5t101.5 -12 q141 0 141 103q0 39 -32.5 72.5t-84.5 62t-115 59t-126 72t-115 91.5t-84.5 126.5t-32.5 169.5q0 114 51.5 200t148 139t228 79t297.5 26q128 0 500 -16l-8 274q102 -5 231.5 -5t208.5 3l78 2q-31 -570 -31 -872q0 -506 8 -848h-489q14 449 14 856q0 74 -4 254 q-396 53 -506 53q-64 0 -109.5 -5t-85.5 -17.5t-60.5 -38.5t-20.5 -64z" />
<glyph horiz-adv-x="1415" d="M788 332l586 20q-31 -202 -33 -352h-1024q9 401 9 709q0 137 -7 366h-319q29 200 33 350h1267v-317h-505l-9 -320q37 40 98 69.5t138 29.5q88 0 136 -49t48 -117q0 -72 -51.5 -116t-136.5 -44q-43 0 -105 30t-82 30q-45 0 -45 -56q2 -210 2 -233z" />
<glyph horiz-adv-x="1724" d="M1602 1425q-25 -498 -25 -723q0 -86 3 -324t3 -378h-473q6 295 8 573h-334q1 -55 3 -167t3 -213t1 -193h-474q9 401 9 709q0 135 -7 364h-319q29 202 33 352h940l-4 -350h-176l-7 -239h332l-14 589h498z" />
<glyph horiz-adv-x="1912" d="M1864 1075h-277q-10 -222 -10 -373q0 -86 3 -324t3 -378h-473q8 401 8 709q0 167 -6 364h-317q-11 -244 -11 -371q0 -86 3.5 -324t3.5 -378h-474q9 401 9 709q0 135 -7 364h-319q29 202 33 352h1880z" />
<glyph horiz-adv-x="2514" d="M1581 553q0 -238 14 -553h-493q16 449 16 856q0 31 -1 104t-1 115h-321q-11 -244 -11 -373q0 -86 3.5 -324t3.5 -378h-474q9 401 9 709q0 135 -7 364h-319q29 202 33 352h1073l-10 295q103 -5 233 -5t209 3l78 2q-23 -492 -31 -800q42 104 143 165.5t259 61.5 q188 0 289.5 -106t101.5 -302q0 -433 14 -739h-496q0 59 4.5 259t4.5 294q0 142 -37 215.5t-131 73.5q-47 0 -79.5 -23.5t-48 -67t-22 -90.5t-6.5 -108z" />
<glyph horiz-adv-x="1720" d="M1741 63q-6 -4 -17.5 -11t-49 -24t-77.5 -30t-99 -24t-118 -11q-194 0 -311 86q-159 -86 -369 -86q-178 0 -316.5 49.5t-220 148.5t-81.5 234q0 56 18.5 105.5t48.5 83.5t66 62.5t72 46t66 29.5t49 16l18 5q-6 1 -17.5 4t-43.5 14t-61.5 26t-65.5 42.5t-62 60.5 t-43.5 82.5t-17.5 106.5q0 118 87.5 206.5t224.5 132.5t300 44q70 0 143 -13t127.5 -31t98.5 -36.5t67 -31.5l23 -13l-99 -295q-19 11 -50.5 28t-112.5 45t-144 28q-89 0 -144 -37.5t-55 -106.5q0 -156 326 -161l744 -2l-5 -250h-272v-164q0 -88 20.5 -123t92.5 -35 q40 0 82 12t64 24l22 11zM575 426q0 -66 51.5 -106.5t137.5 -40.5q82 0 162 34q-6 40 -6 88l2 183h-95q-252 -18 -252 -158z" />
<glyph horiz-adv-x="2252" d="M1739 0h-930l-4 221q-19 -43 -35.5 -72t-50 -67.5t-74.5 -62t-106.5 -40t-147.5 -16.5q-149 0 -244.5 76t-95.5 215q0 77 31 138t81.5 98.5t115 66t132 44t132 30.5t115 27t81.5 32t31 47q0 53 -41.5 83t-112.5 30q-55 0 -122 -18t-123.5 -43.5t-105 -51t-75.5 -43.5 l-28 -18l-88 289q9 7 27 19.5t77.5 44t124.5 55.5t167 43.5t206 19.5q272 0 403 -107.5t131 -306.5q0 -126 15 -387h610q29 0 51.5 15.5t34 38t18.5 45t9 37.5l2 16h301q1 -10 0.5 -28t-8.5 -70t-24 -99t-53.5 -104.5t-90 -98.5t-139.5 -69.5t-197 -28.5zM616 227 q49 0 87.5 48.5t60 121.5t29.5 162q-20 -15 -58 -35.5t-68.5 -38t-61 -41.5t-47.5 -56t-17 -71q0 -90 75 -90zM657 1659l209 -418h-317l-291 393q58 5 158 11.5t170 10.5z" />
</font>
</defs>
</svg>
